# Made in Blockbench 5.1.6
mtllib Mirror.mtl

o default
o pCube2
v -0.3 0.512271 -0.054702
v -0.225 0.474771 -0.054702
v -0.225 0.474771 0.045298
v -0.3 0.512271 0.045298
v -0.15 0.437271 0.045298
v 0 0.362271 -0.054702
v 0 0.362271 0.045298
v 0.15 0.437271 0.045298
v 0.225 0.474771 -0.054702
v 0.225 0.474771 0.045298
v 0.3 0.512271 -0.054702
v 0.3 0.512271 0.045298
v -0.225 0.587271 0.045298
v -0.15 0.512271 0.045298
v 0 0.437271 0.045298
v 0.15 0.512271 0.045298
v 0.225 0.587271 0.045298
v -0.225 0.662271 0.045298
v 0.225 0.662271 0.045298
v -0.225 0.737271 0.045298
v 0.225 0.737271 0.045298
v -0.225 0.812271 0.045298
v 0.225 0.812271 0.045298
v -0.225 0.887271 0.045298
v 0.225 0.887271 0.045298
v -0.225 0.962271 0.045298
v 0.225 0.962271 0.045298
v -0.225 1.037271 0.045298
v 0.225 1.037271 0.045298
v -0.225 1.149771 0.045298
v -0.3 1.112271 0.045298
v -0.15 1.112271 0.045298
v -0.15 1.187271 0.045298
v 0 1.187271 0.045298
v 0 1.262271 0.045298
v 0.15 1.112271 0.045298
v 0.15 1.187271 0.045298
v 0.225 1.149771 0.045298
v 0.3 1.112271 0.045298
v -0.225 1.149771 -0.054702
v -0.3 1.112271 -0.054702
v 0 1.262271 -0.054702
v 0.225 1.149771 -0.054702
v 0.3 1.112271 -0.054702
v 0.225 0.587271 -0.054702
v -0.15 0.512271 -0.054702
v -0.225 0.587271 -0.054702
v -0.225 0.662271 -0.054702
v 0 0.437271 -0.054702
v 0.15 0.512271 -0.054702
v 0.225 0.587271 -0.054702
v 0.225 0.662271 -0.054702
v -0.225 0.737271 -0.054702
v 0.225 0.737271 -0.054702
v -0.225 0.812271 -0.054702
v 0.225 0.812271 -0.054702
v -0.225 0.887271 -0.054702
v 0.225 0.887271 -0.054702
v -0.225 0.962271 -0.054702
v 0.225 0.962271 -0.054702
v -0.225 1.037271 -0.054702
v -0.15 1.112271 -0.054702
v 0 1.187271 -0.054702
v 0.15 1.112271 -0.054702
v 0.225 1.037271 -0.054702
v -0.225 1.037271 -0.054702
v 0.225 1.037271 -0.054702
v -0.225 0.587271 -0.054702
v 0.15 0.437271 -0.054702
v 0 1.187271 -0.054702
v 0 0.437271 -0.054702
v 0.15 0.512271 -0.054702
v -0.15 0.437271 -0.054702
v -0.15 0.512271 -0.054702
v -0.15 1.187271 -0.054702
v -0.15 1.112271 -0.054702
v 0.15 1.187271 -0.054702
v 0.15 1.112271 -0.054702
vt 0.3749999999999969 0.5625000000000002
vt 0.3749999999999969 0.22708750000000022
vt 0.47499999999999687 0.22708750000000022
vt 0.47499999999999687 0.5625000000000002
vt 0.5374999999999974 0.22708750000000022
vt 0.5374999999999974 0.5625000000000002
vt 0.43749999999999745 0.5625000000000002
vt 0.43749999999999745 0.22708750000000022
vt 0.29986626347600853 0.15468740061207487
vt 0.3716613882694001 0.1204761550698561
vt 0.3709751446066222 0.18987159492072836
vt 0.29830630719226026 0.259618856983276
vt 0.3716613882694001 0.1204761550698561
vt 0.51388996355698 0.05270251826253847
vt 0.5138928699027978 0.12133081422583425
vt 0.3709751446066222 0.18987159492072836
vt 0.51388996355698 0.05270251826253847
vt 0.6556875883922159 0.12218284890222675
vt 0.6563754646397538 0.1913724047489831
vt 0.5138928699027978 0.12133081422583425
vt 0.6556875883922159 0.12218284890222675
vt 0.7269349350658906 0.15709379476496244
vt 0.7284893045219883 0.26155511045994373
vt 0.6563754646397538 0.1913724047489831
vt 0.0625 0.875
vt 0 0.84375
vt 0 0.25
vt 0.0625 0.1875
vt 0.2918315693417549 0.6951462364062496
vt 0.3652361264450792 0.7702218571297146
vt 0.3644860382002658 0.8460734919048642
vt 0.2901514834213922 0.8081582895573824
vt 0.3652361264450792 0.7702218571297146
vt 0.5139235504768827 0.8457991502366798
vt 0.5139267901115364 0.9222974817374633
vt 0.3644860382002658 0.8460734919048642
vt 0.5139235504768827 0.8457991502366798
vt 0.662127334690043 0.7699202692698528
vt 0.6628789969158934 0.8455256935587769
vt 0.5139267901115364 0.9222974817374633
vt 0.662127334690043 0.7699202692698528
vt 0.7349397333398512 0.6950558322268373
vt 0.7366132164625229 0.8075221754773718
vt 0.6628789969158934 0.8455256935587769
vt 1 0.84375
vt 0.9375 0.875
vt 0.9375 0.1875
vt 1 0.25
vt 0.47499999999999687 0.4770874999999991
vt 0.47499999999999687 0.8124999999999991
vt 0.3749999999999969 0.8124999999999991
vt 0.3749999999999969 0.4770874999999991
vt 0.43749999999999745 0.8124999999999991
vt 0.43749999999999745 0.4770874999999991
vt 0.5374999999999974 0.4770874999999991
vt 0.5374999999999974 0.8124999999999991
vt 0.9375 0.1875
vt 1 0.25
vt 1 0.84375
vt 0.9375 0.875
vt 0 0.25
vt 0.0625 0.1875
vt 0.0625 0.875
vt 0 0.84375
vt 0.93125 0.2125000000000017
vt 1 0.2125000000000017
vt 1 0.8125000000000016
vt 0.93125 0.8125000000000016
vt 0 0.8437500000000016
vt 0 0.2437500000000017
vt 0.06874999999999998 0.2437500000000017
vt 0.06874999999999998 0.8437500000000016
vt 0.37499999999999745 0.5000000000000006
vt 0.37499999999999745 0.3939312500000005
vt 0.4749999999999974 0.3939312500000005
vt 0.4749999999999974 0.5000000000000006
vt 0.37499999999999745 0.5624999999999973
vt 0.37499999999999745 0.4874999999999974
vt 0.4749999999999974 0.4874999999999974
vt 0.4749999999999974 0.5624999999999973
vt 0.37499999999999745 0.5625000000000009
vt 0.37499999999999745 0.3948000000000008
vt 0.4749999999999974 0.3948000000000008
vt 0.4749999999999974 0.5625000000000009
vt 0.5374999999999969 0.3948000000000008
vt 0.5374999999999969 0.5625000000000009
vt 0.4374999999999969 0.5625000000000009
vt 0.4374999999999969 0.3948000000000008
vt 0.5374999999999969 0.3939312500000005
vt 0.5374999999999969 0.5000000000000006
vt 0.4374999999999969 0.5000000000000006
vt 0.4374999999999969 0.3939312500000005
vt 0.5999999999999969 0.4874999999999974
vt 0.5999999999999969 0.5624999999999973
vt 0.4999999999999969 0.5624999999999973
vt 0.4999999999999969 0.4874999999999974
vt 0.37499999999999745 0.5625000000000017
vt 0.37499999999999745 0.4875000000000016
vt 0.4749999999999974 0.4875000000000016
vt 0.4749999999999974 0.5625000000000017
vt 0.5999999999999969 0.4875000000000016
vt 0.5999999999999969 0.5625000000000017
vt 0.4999999999999969 0.5625000000000017
vt 0.4999999999999969 0.4875000000000016
vt 0.37499999999999745 0.4999999999999988
vt 0.37499999999999745 0.4249999999999988
vt 0.4749999999999974 0.4249999999999988
vt 0.4749999999999974 0.4999999999999988
vt 0.5999999999999969 0.4249999999999988
vt 0.5999999999999969 0.4999999999999988
vt 0.4999999999999969 0.4999999999999988
vt 0.4999999999999969 0.4249999999999988
vt 0.37499999999999745 0.5625000000000031
vt 0.37499999999999745 0.48750000000000304
vt 0.4749999999999974 0.48750000000000304
vt 0.4749999999999974 0.5625000000000031
vt 0.5999999999999969 0.48750000000000304
vt 0.5999999999999969 0.5625000000000031
vt 0.4999999999999969 0.5625000000000031
vt 0.4999999999999969 0.48750000000000304
vt 0.37499999999999745 0.5000000000000002
vt 0.37499999999999745 0.42500000000000027
vt 0.4749999999999974 0.42500000000000027
vt 0.4749999999999974 0.5000000000000002
vt 0.5999999999999969 0.42500000000000027
vt 0.5999999999999969 0.5000000000000002
vt 0.4999999999999969 0.5000000000000002
vt 0.4999999999999969 0.42500000000000027
vt 0.37499999999999745 0.625000000000002
vt 0.37499999999999745 0.518931250000002
vt 0.4749999999999974 0.518931250000002
vt 0.4749999999999974 0.625000000000002
vt 0.37499999999999745 0.6249999999999973
vt 0.37499999999999745 0.5499999999999974
vt 0.4749999999999974 0.5499999999999974
vt 0.4749999999999974 0.6249999999999973
vt 0.4749999999999974 0.5624999999999989
vt 0.37499999999999745 0.5624999999999989
vt 0.37499999999999745 0.39479374999999894
vt 0.4749999999999974 0.39479374999999894
vt 0.4374999999999969 0.39479374999999894
vt 0.5374999999999969 0.39479374999999894
vt 0.5374999999999969 0.5624999999999989
vt 0.4374999999999969 0.5624999999999989
vt 0.5999999999999969 0.5499999999999974
vt 0.5999999999999969 0.6249999999999973
vt 0.4999999999999969 0.6249999999999973
vt 0.4999999999999969 0.5499999999999974
vt 0.5374999999999969 0.518931250000002
vt 0.5374999999999969 0.625000000000002
vt 0.4374999999999969 0.625000000000002
vt 0.4374999999999969 0.518931250000002
vt 0.36833684642247144 0.2265752849969398
vt 0.29572086914062623 0.291468076071433
vt 0.2972263934885798 0.19396943995039184
vt 0.3689987904664812 0.16206846972979705
vt 0.5113594999472131 0.90625
vt 0.36208778014492315 0.8355502695230295
vt 0.3628091741988694 0.7652500177210056
vt 0.5113538706312957 0.8353463135277766
vt 0.5113004632984619 0.1626576888115503
vt 0.36833684642247144 0.2265752849969398
vt 0.3689987904664812 0.16206846972979705
vt 0.5112953950837996 0.09882131709831221
vt 0.7261422843930031 0.2927940662633939
vt 0.6539404243951011 0.2276072100624208
vt 0.6532713538244338 0.16324553824498733
vt 0.7246318946853499 0.19562670549576477
vt 0.6532713538244338 0.16324553824498733
vt 0.6539404243951011 0.2276072100624208
vt 0.5113004632984619 0.1626576888115503
vt 0.5112953950837996 0.09882131709831221
vt 0.734025057267032 0.7999136737520084
vt 0.6602560499690208 0.8351428547778139
vt 0.6595270386250741 0.765015141906666
vt 0.7324027942019259 0.6955492042985719
vt 0.6595270386250741 0.765015141906666
vt 0.6602560499690208 0.8351428547778139
vt 0.5113594999472131 0.90625
vt 0.5113538706312957 0.8353463135277766
vt 0.36208778014492315 0.8355502695230295
vt 0.2878622820761516 0.8003947644150853
vt 0.28947973326862597 0.6956476804685865
vt 0.3628091741988694 0.7652500177210056
vn -0.4472135954999581 -0.894427190999916 0
vn 0.4472135954999581 -0.894427190999916 0
vn 0 0 1
vn 0 0 1
vn 0 0 1
vn 0 0 1
vn 0 0 1
vn 0 0 1
vn 0 0 1
vn 0 0 1
vn 0 0 1
vn 0 0 1
vn -0.44721359549995776 0.894427190999916 0
vn 0.44721359549995776 0.894427190999916 0
vn 0 0 -1
vn 0 0 -1
vn 1 0 0
vn -1 0 0
vn 0.7071067811865474 0.7071067811865478 0
vn 1 0 0
vn 0.4472135954999581 0.894427190999916 0
vn -0.4472135954999581 0.894427190999916 0
vn -0.7071067811865474 0.7071067811865478 0
vn -1 0 0
vn 1 0 0
vn -1 0 0
vn 1 0 0
vn -1 0 0
vn 1 0 0
vn -1 0 0
vn 1 0 0
vn -1 0 0
vn 0.7071067811865474 -0.7071067811865478 0
vn 1 0 0
vn 0.44721359549995776 -0.894427190999916 0
vn -0.44721359549995776 -0.894427190999916 0
vn -1 0 0
vn -0.7071067811865474 -0.7071067811865478 0
vn 0 0 -1
vn 0 0 -1
vn 0 0 -1
vn 0 0 -1
vn 0 0 -1
vn 0 0 -1
vn 0 0 -1
vn 0 0 -1
usemtl m_803b4a6a-37a7-8ce5-bbbd-6f5e8d4f1341
f 1/1/1 6/2/1 7/3/1 4/4/1
f 6/5/2 11/6/2 12/7/2 7/8/2
f 3/9/3 5/10/3 14/11/3 13/12/3
f 5/13/4 7/14/4 15/15/4 14/16/4
f 7/17/5 8/18/5 16/19/5 15/20/5
f 8/21/6 10/22/6 17/23/6 16/24/6
f 30/25/7 31/26/7 4/27/7 3/28/7
f 28/29/8 32/30/8 33/31/8 30/32/8
f 32/33/9 34/34/9 35/35/9 33/36/9
f 34/37/10 36/38/10 37/39/10 35/40/10
f 36/41/11 29/42/11 38/43/11 37/44/11
f 39/45/12 38/46/12 10/47/12 12/48/12
f 31/49/13 35/50/13 42/51/13 41/52/13
f 35/53/14 39/54/14 44/55/14 42/56/14
f 2/57/15 1/58/15 41/59/15 40/60/15
f 11/61/16 9/62/16 43/63/16 44/64/16
f 12/65/17 11/66/17 44/67/17 39/68/17
f 41/69/18 1/70/18 4/71/18 31/72/18
f 13/73/19 14/74/19 46/75/19 47/76/19
f 18/77/20 13/78/20 47/79/20 48/80/20
f 14/81/21 15/82/21 49/83/21 46/84/21
f 15/85/22 16/86/22 50/87/22 49/88/22
f 16/89/23 17/90/23 51/91/23 50/92/23
f 17/93/24 19/94/24 52/95/24 51/96/24
f 20/97/25 18/98/25 48/99/25 53/100/25
f 19/101/26 21/102/26 54/103/26 52/104/26
f 22/105/27 20/106/27 53/107/27 55/108/27
f 21/109/28 23/110/28 56/111/28 54/112/28
f 24/113/29 22/114/29 55/115/29 57/116/29
f 23/117/30 25/118/30 58/119/30 56/120/30
f 26/121/31 24/122/31 57/123/31 59/124/31
f 25/125/32 27/126/32 60/127/32 58/128/32
f 32/129/33 28/130/33 61/131/33 62/132/33
f 28/133/34 26/134/34 59/135/34 61/136/34
f 63/137/35 34/138/35 32/139/35 62/140/35
f 64/141/36 36/142/36 34/143/36 63/144/36
f 27/145/37 29/146/37 65/147/37 60/148/37
f 29/149/38 36/150/38 64/151/38 65/152/38
f 72/153/39 45/154/39 9/155/39 69/156/39
f 42/157/40 77/158/40 78/159/40 70/160/40
f 71/161/41 72/162/41 69/163/41 6/164/41
f 68/165/42 74/166/42 73/167/42 2/168/42
f 73/169/43 74/170/43 71/171/43 6/172/43
f 40/173/44 75/174/44 76/175/44 66/176/44
f 76/177/45 75/178/45 42/179/45 70/180/45
f 77/181/46 43/182/46 67/183/46 78/184/46
o default
o pPlane1
v -0.25 0.557502 0.003345
v 0 0.418502 0.003345
v 0 1.22226 0.003345
v -0.25 1.057502 0.003345
v 0.25 0.557502 0.003345
v 0.25 1.057502 0.003345
vt 0.125 0.33523749999999997
vt 0.375 0.19623749999999995
vt 0.375 1
vt 0.125 0.8352375000000001
vt 0.375 0.19623749999999995
vt 0.625 0.33523749999999997
vt 0.625 0.8352375000000001
vt 0.375 1
vn 0 0 1
vn 0 0 1
usemtl m_1325351c-148c-3a9b-064e-e1e2ba5556e4
f 79/185/47 80/186/47 81/187/47 82/188/47
f 80/189/48 83/190/48 84/191/48 81/192/48