# Made in Blockbench 5.1.6
mtllib ChargingChamber.mtl

o down
v 0.5 0 0.5
v 0.5 0 -0.5
v -0.5 0 0.5
v -0.5 0 -0.5
vt 0.3333333333333333 1
vt 0.6666666666666666 1
vt 0.6666666666666666 0
vt 0.3333333333333333 0
vn 0 -1 0
usemtl m_965d2640-cb4b-3d73-ffc5-c7562df74836
f 4/1/1 2/2/1 1/3/1 3/4/1
o side4
v -0.5 0.5 0.5
v -0.5 1 0.5
v -0.5 1 0.375
v -0.5 0.5 0.375
v -0.5 0.5 0.125
v -0.5 0.5 -0.125
v -0.5 0.5 -0.375
v -0.5 1 -0.375
v -0.5 1 -0.5
v -0.5 0.5 -0.5
v -0.5 0.875 0.125
v -0.5 0.875 -0.125
v -0.5 0 -0.5
v -0.5 0 0.5
vt 0.6666666666666666 1
vt 0.625 1
vt 0.625 0.53125
vt 0.6666666666666666 0.53125
vt 0.375 0.96875
vt 0.3333333333333333 0.96875
vt 0.3333333333333333 0.5
vt 0.375 0.5
vt 0.5416666666666666 0.875
vt 0.4583333333333333 0.875
vt 0.4583333333333333 0.5
vt 0.5416666666666666 0.5
vt 0.3333333333333333 0
vt 0.6666666666666666 0
vt 0.6666666666666666 0.5
vt 0.3333333333333333 0.5
vn -1 0 0
vn -1 0 0
vn -1 0 0
vn -1 0 0
usemtl m_965d2640-cb4b-3d73-ffc5-c7562df74836
f 6/5/2 7/6/2 8/7/2 5/8/2
f 12/9/3 13/10/3 14/11/3 11/12/3
f 15/13/4 16/14/4 10/15/4 9/16/4
f 17/17/5 18/18/5 5/19/5 14/20/5
o side3
v -0.5 0.5 -0.5
v -0.5 1 -0.5
v -0.375 1 -0.5
v -0.375 0.5 -0.5
v -0.125 0.5 -0.5
v 0.125 0.5 -0.5
v 0.375 0.5 -0.5
v 0.375 1 -0.5
v 0.5 1 -0.5
v 0.5 0.5 -0.5
v -0.125 0.875 -0.5
v 0.125 0.875 -0.5
v 0.5 0 -0.5
v -0.5 0 -0.5
vt 0.6666666666666666 1
vt 0.6236558333333333 1
vt 0.6236558333333333 0.53125
vt 0.6666666666666666 0.53125
vt 0.375 0.96875
vt 0.3333333333333333 0.96875
vt 0.3333333333333333 0.5
vt 0.375 0.5
vt 0.5416666666666666 0.875
vt 0.4583333333333333 0.875
vt 0.4583333333333333 0.5
vt 0.5416666666666666 0.5
vt 0.3333333333333333 0
vt 0.6666666666666666 0
vt 0.6666666666666666 0.5
vt 0.3333333333333333 0.5
vn 0 0 -1
vn 0 0 -1
vn 0 0 -1
vn 0 0 -1
usemtl m_965d2640-cb4b-3d73-ffc5-c7562df74836
f 20/21/6 21/22/6 22/23/6 19/24/6
f 26/25/7 27/26/7 28/27/7 25/28/7
f 29/29/8 30/30/8 24/31/8 23/32/8
f 31/33/9 32/34/9 19/35/9 28/36/9
o side2
v 0.5 0.5 -0.5
v 0.5 1 -0.5
v 0.5 1 -0.375
v 0.5 0.5 -0.375
v 0.5 0.5 -0.125
v 0.5 0.5 0.125
v 0.5 0.5 0.375
v 0.5 1 0.375
v 0.5 1 0.5
v 0.5 0.5 0.5
v 0.5 0.875 -0.125
v 0.5 0.875 0.125
v 0.5 0 0.5
v 0.5 0 -0.5
vt 0.6666666666666666 1
vt 0.6236558333333333 1
vt 0.6236558333333333 0.53125
vt 0.6666666666666666 0.53125
vt 0.375 0.96875
vt 0.3333333333333333 0.96875
vt 0.3333333333333333 0.5
vt 0.375 0.5
vt 0.5416666666666666 0.875
vt 0.4583333333333333 0.875
vt 0.4583333333333333 0.5
vt 0.5416666666666666 0.5
vt 0.3333333333333333 0
vt 0.6666666666666666 0
vt 0.6666666666666666 0.5
vt 0.3333333333333333 0.5
vn 1 0 0
vn 1 0 0
vn 1 0 0
vn 1 0 0
usemtl m_965d2640-cb4b-3d73-ffc5-c7562df74836
f 34/37/10 35/38/10 36/39/10 33/40/10
f 40/41/11 41/42/11 42/43/11 39/44/11
f 43/45/12 44/46/12 38/47/12 37/48/12
f 45/49/13 46/50/13 33/51/13 42/52/13
o side1
v 0.5 0.5 0.5
v 0.5 1 0.5
v 0.375 1 0.5
v 0.375 0.5 0.5
v 0.125 0.5 0.5
v -0.125 0.5 0.5
v -0.375 0.5 0.5
v -0.375 1 0.5
v -0.5 1 0.5
v -0.5 0.5 0.5
v 0.125 0.875 0.5
v -0.125 0.875 0.5
v -0.5 0 0.5
v 0.5 0 0.5
vt 0.6666666666666666 1
vt 0.6145833333333334 1
vt 0.6145833333333334 0.53125
vt 0.6666666666666666 0.53125
vt 0.375 0.96875
vt 0.3333333333333333 0.96875
vt 0.3333333333333333 0.5
vt 0.375 0.5
vt 0.5416666666666666 0.875
vt 0.4583333333333333 0.875
vt 0.4583333333333333 0.5
vt 0.5416666666666666 0.5
vt 0.3333333333333333 0
vt 0.6666666666666666 0
vt 0.6666666666666666 0.5
vt 0.3333333333333333 0.5
vn 0 0 1
vn 0 0 1
vn 0 0 1
vn 0 0 1
usemtl m_965d2640-cb4b-3d73-ffc5-c7562df74836
f 48/53/14 49/54/14 50/55/14 47/56/14
f 54/57/15 55/58/15 56/59/15 53/60/15
f 57/61/16 58/62/16 52/63/16 51/64/16
f 59/65/17 60/66/17 47/67/17 56/68/17
o frameup
v 0.5 0.875 0.25
v 0.5 0.875 -0.25
v 0.25 0.875 -0.25
v 0.25 0.875 0.25
v 0.5 0.875 -0.25
v 0.5 0.875 -0.5
v -0.5 0.875 -0.5
v -0.5 0.875 -0.25
v 0.5 0.875 0.5
v 0.5 0.875 0.25
v -0.5 0.875 0.25
v -0.5 0.875 0.5
v -0.25 0.875 0.25
v -0.25 0.875 -0.25
v -0.5 0.875 -0.25
v -0.5 0.875 0.25
v -0.375 0.875 -0.375
v -0.375 0.875 -0.5
v -0.375 0.5 -0.5
v -0.375 0.5 -0.375
v 0.375 0.875 -0.375
v 0.375 0.875 -0.5
v 0.375 0.5 -0.5
v 0.375 0.5 -0.375
v 0.125 0.875 -0.375
v 0.125 0.875 -0.5
v 0.125 0.5 -0.5
v 0.125 0.5 -0.375
v -0.125 0.875 -0.375
v -0.125 0.875 -0.5
v -0.125 0.5 -0.5
v -0.125 0.5 -0.375
v 0.25 0.5 0.375
v 0.375 0.5 0.375
v -0.5 1 0.5
v -0.375 1 0.5
v -0.5 1 0.375
v -0.125 1 0.5
v -0.125 1 0.375
v 0.375 1 0.5
v 0.5 1 0.5
v 0.5 1 0.375
v 0.375 1 0.375
v -0.125 1 0.25
v -0.125 1 0.25
v -0.125 1 0.125
v 0.25 1 0.125
v 0.125 1 0.125
v 0.25 1 0.125
v 0.375 1 0.125
v 0.5 1 0.125
v -0.375 1 -0.125
v -0.5 1 -0.125
v -0.25 1 -0.125
v 0.375 1 -0.125
v 0.25 1 -0.125
v 0.5 1 -0.125
v -0.25 1 -0.125
v -0.125 1 -0.125
v 0.125 1 -0.125
v 0.25 1 -0.125
v -0.5 1 -0.375
v -0.375 1 -0.375
v -0.375 1 -0.5
v -0.5 1 -0.5
v 0.375 1 -0.375
v 0.5 1 -0.375
v 0.5 1 -0.5
v 0.375 1 -0.5
v -0.375 0.875 0.5
v -0.125 0.875 0.5
v -0.25 0.875 0.25
v -0.125 1 0.5
v -0.5 0.875 0.375
v -0.5 0.875 0.125
v -0.125 0.875 0.5
v -0.125 0.875 0.375
v 0.125 0.875 0.5
v 0.125 0.875 0.375
v -0.125 0.875 0.25
v 0.125 0.875 0.25
v 0.375 0.875 0.5
v 0.5 0.875 0.375
v 0.25 0.875 0.25
v 0.5 1 0.125
v 0.125 0.875 0.5
v -0.125 0.875 0.25
v -0.25 0.875 0.25
v -0.125 0.875 0.125
v -0.25 0.875 0.125
v 0.25 0.875 0.25
v 0.125 0.875 0.25
v 0.125 0.875 0.125
v -0.375 0.875 0.125
v -0.5 0.875 0.125
v -0.25 0.875 0.125
v -0.5 0.875 -0.125
v -0.375 0.875 -0.125
v -0.25 0.875 -0.125
v 0.25 0.875 -0.125
v -0.125 0.875 -0.125
v -0.25 0.875 -0.125
v -0.125 0.875 -0.25
v -0.25 0.875 -0.25
v 0.25 0.875 -0.125
v 0.125 0.875 -0.125
v 0.25 0.875 -0.25
v 0.125 0.875 -0.25
v -0.125 0.875 -0.25
v -0.125 0.875 -0.375
v 0.125 0.875 -0.25
v -0.125 0.875 -0.5
v 0.125 0.875 -0.5
v -0.5 0.875 -0.375
v -0.5 0.875 -0.125
v -0.25 0.875 -0.25
v -0.5 1 -0.125
v -0.375 0.875 -0.5
v -0.125 0.875 -0.5
v 0.25 0.875 -0.25
v 0.5 1 -0.125
v 0.375 0.875 -0.5
v 0.125 0.875 -0.5
v -0.375 1 0.125
v -0.25 1 0.125
v -0.25 1 0.25
v -0.5 1 0.125
v 0.125 1 0.375
v 0.125 1 0.25
v 0.25 1 0.25
v 0.125 1 0.5
v 0.125 1 0.5
v 0.125 1 0.375
v 0.125 1 0.25
v 0.125 1 0.25
v 0.25 1 0.25
v 0.25 1 0.25
v 0.125 1 0.5
v -0.125 1 -0.375
v -0.125 1 -0.25
v -0.25 1 -0.25
v -0.125 1 -0.5
v 0.125 1 -0.25
v 0.125 1 -0.375
v 0.25 1 -0.25
v 0.125 1 -0.5
v -0.375 1 0.375
v -0.375 0.5 0.375
v -0.125 0.5 0.375
v 0.25 0.5 0.375
v 0.125 0.5 0.375
v 0.375 0.5 0.375
v -0.25 0.5 0.25
v -0.125 0.5 0.25
v 0.25 0.5 0.25
v 0.125 0.5 0.25
v 0.5 0.5 0.375
v -0.375 0.5 0.125
v -0.25 0.5 0.125
v 0 0.5 0.25
v 0 0.5 0.125
v -0.125 0.5 0.125
v 0.125 0.5 0.125
v -0.25 0.5 0
v 0.125 0.5 0
v 0.25 0.5 0
v -0.125 0.5 -0.125
v -0.25 0.5 -0.125
v 0 0.5 -0.125
v 0.125 0.5 -0.125
v 0.25 0.5 -0.125
v -0.375 0.5 -0.125
v -0.25 0.5 -0.25
v 0 0.5 -0.25
v -0.125 0.5 -0.25
v 0.125 0.5 -0.25
v 0.25 0.5 -0.25
v -0.375 0.5 -0.375
v -0.25 0.5 -0.375
v -0.125 0.5 -0.375
v -0.125 0.875 0.25
v 0.125 0.875 0.25
v 0.5 0.875 0.375
v 0.375 0.875 0.375
v -0.125 0.625 0.25
v -0.125 0.875 0.25
v -0.25 0.875 0.25
v 0 0.5 0.25
v -0.0625 0.5 0.0625
v -0.0625 0.625 0.0625
v 0 0.625 0.25
v -0.125 0.625 0.125
v -0.125 0.875 0.125
v -0.25 0.5 0
v -0.25 0.625 0
v -0.25 0.625 0.125
v -0.25 0.875 0.125
v 0.125 0.625 0.25
v 0.25 0.875 0.25
v 0.125 0.875 0.25
v 0.25 0.625 0.125
v 0.25 0.5 0
v 0.0625 0.5 0.0625
v 0.0625 0.625 0.0625
v 0.25 0.625 0
v 0.125 0.625 0.125
v 0.125 0.875 0.125
v 0 0.5 0.25
v 0 0.625 0.25
v -0.375 0.875 0.125
v -0.25 0.625 0.125
v -0.25 0.875 0.125
v -0.25 0.625 0
v -0.375 0.875 -0.125
v -0.25 0.625 -0.125
v -0.25 0.875 -0.125
v 0.25 0.625 0.125
v 0.25 0.625 0
v 0.25 0.625 -0.125
v 0.25 0.875 -0.125
v -0.25 0.5 0
v -0.0625 0.5 -0.0625
v -0.0625 0.625 -0.0625
v -0.25 0.625 0
v -0.25 0.625 -0.125
v -0.125 0.625 -0.125
v -0.125 0.875 -0.125
v -0.25 0.875 -0.125
v 0 0.5 -0.25
v 0 0.625 -0.25
v -0.125 0.625 -0.25
v -0.125 0.875 -0.25
v -0.25 0.875 -0.25
v 0.0625 0.5 -0.0625
v 0.25 0.5 0
v 0.25 0.625 0
v 0.0625 0.625 -0.0625
v 0.125 0.625 -0.125
v 0.25 0.625 -0.125
v 0.25 0.875 -0.125
v 0.125 0.875 -0.125
v 0.25 0.875 -0.25
v 0.125 0.625 -0.25
v 0.125 0.875 -0.25
v 0 0.5 -0.25
v 0 0.625 -0.25
v -0.125 0.625 -0.25
v -0.125 0.875 -0.25
v -0.125 0.875 -0.375
v 0.125 0.625 -0.25
v 0.125 0.875 -0.25
v -0.125 0.875 0.375
v 0.125 0.875 0.375
v 0.125 0.625 0.25
v 0 0.625 0.25
v -0.125 0.625 0.25
v 0 0.625 -0.25
v -0.125 0.5 0
v 0.375 0.875 -0.125
v 0.5 0.875 -0.125
v 0.5 0.5 -0.125
v 0.375 0.5 -0.125
v 0.375 0.875 0.125
v 0.5 0.875 0.125
v 0.5 0.5 0.125
v 0.375 0.5 0.125
v 0.25 0.875 0.125
v 0.25 0.5 0.125
v 0.375 0.875 -0.375
v 0.5 0.875 -0.375
v 0.5 0.5 -0.375
v 0.375 0.5 -0.375
v 0.125 0.875 -0.375
v 0.125 0.5 -0.375
v 0.125 0.875 -0.375
v 0.5 0.875 -0.375
v 0.25 0.5 -0.375
v 0.375 0.5 -0.375
v -0.25 0.5 0.375
v 0.375 0.5 -0.375
v 0.375 0.5 -0.5
v -0.125 0.5 -0.5
v -0.125 0.5 -0.375
v 0.125 0.5 -0.5
v 0.125 0.5 -0.375
v -0.375 0.5 -0.375
v -0.375 0.5 -0.5
v -0.375 0.5 -0.375
v -0.5 0.5 -0.375
v -0.5 0.5 0.125
v -0.375 0.5 0.125
v -0.5 0.5 -0.125
v -0.375 0.5 -0.125
v -0.375 0.5 0.375
v -0.5 0.5 0.375
v -0.375 0.875 0.375
v -0.5 0.875 0.375
v -0.5 0.5 0.375
v -0.375 0.5 0.375
v -0.375 0.875 -0.375
v -0.5 0.875 -0.375
v -0.5 0.5 -0.375
v -0.375 0.5 -0.375
v -0.375 0.875 -0.125
v -0.5 0.875 -0.125
v -0.5 0.5 -0.125
v -0.375 0.5 -0.125
v -0.375 0.875 0.125
v -0.5 0.875 0.125
v -0.5 0.5 0.125
v -0.375 0.5 0.125
v 0.375 0.875 0.375
v 0.375 0.875 0.5
v 0.375 0.5 0.5
v 0.375 0.5 0.375
v -0.375 0.875 0.375
v -0.375 0.875 0.5
v -0.375 0.5 0.5
v -0.375 0.5 0.375
v -0.125 0.875 0.375
v -0.125 0.875 0.5
v -0.125 0.5 0.5
v -0.125 0.5 0.375
v 0.125 0.875 0.375
v 0.125 0.875 0.5
v 0.125 0.5 0.5
v 0.125 0.5 0.375
v 0.375 0.5 0.375
v 0.5 0.5 0.375
v 0.5 0.5 -0.125
v 0.375 0.5 -0.125
v 0.5 0.5 0.125
v 0.375 0.5 0.125
v 0.375 0.5 -0.375
v 0.5 0.5 -0.375
v -0.375 0.5 0.375
v -0.375 0.5 0.5
v 0.125 0.5 0.5
v 0.125 0.5 0.375
v -0.125 0.5 0.5
v -0.125 0.5 0.375
v 0.375 0.5 0.375
v 0.375 0.5 0.5
vt 0.5833333333333334 0.75
vt 0.5833333333333334 1
vt 0.4166666666666667 1
vt 0.4166666666666667 0.75
vt 0.6666666666666666 0
vt 0.6666666666666666 1
vt 0.5833333333333334 1
vt 0.5833333333333334 0
vt 0.4166666666666667 0
vt 0.4166666666666667 1
vt 0.3333333333333333 1
vt 0.3333333333333333 0
vt 0.5833333333333334 0
vt 0.5833333333333334 0.25
vt 0.4166666666666667 0.25
vt 0.4166666666666667 0
vt 0.4479166666666667 0.4375
vt 0.40625 0.4375
vt 0.40625 0.0625
vt 0.4479166666666667 0.0625
vt 0.6041666666666666 0.9375
vt 0.5625 0.9375
vt 0.5625 0.5625
vt 0.6041666666666666 0.5625
vt 0.5625 0.5625
vt 0.5625 0.9375
vt 0.6041666666666666 0.9375
vt 0.6041666666666666 0.5625
vt 0.5625 0.5625
vt 0.5625 0.9375
vt 0.6041666666666666 0.9375
vt 0.6041666666666666 0.5625
vt 0.9270833333333334 0.4375
vt 0.9270833333333334 0.6875
vt 0.8854166666666666 0.6875
vt 0.8854166666666666 0.4375
vt 0.041666666666666664 1
vt 0 1
vt 0 0.875
vt 0.041666666666666664 0.875
vt 0.125 1
vt 0.125 0.75
vt 0.20833333333333334 0.75
vt 0.20833333333333334 1
vt 0.25 0.75
vt 0.20833333333333334 0.75
vt 0.20833333333333334 0.625
vt 0.25 0.625
vt 0.125 0.75
vt 0.08333333333333333 0.75
vt 0.08333333333333333 0.625
vt 0.125 0.625
vt 0.25 0.625
vt 0.25 0.375
vt 0.3333333333333333 0.375
vt 0.3333333333333333 0.625
vt 0 0.625
vt 0 0.375
vt 0.08333333333333333 0.375
vt 0.08333333333333333 0.625
vt 0.25 0.375
vt 0.20833333333333334 0.375
vt 0.20833333333333334 0.25
vt 0.25 0.25
vt 0.125 0.375
vt 0.08333333333333333 0.375
vt 0.08333333333333333 0.25
vt 0.125 0.25
vt 0.3333333333333333 0.125
vt 0.2916666666666667 0.125
vt 0.2916666666666667 0
vt 0.3333333333333333 0
vt 0.125 0.25
vt 0.125 0
vt 0.20833333333333334 0
vt 0.20833333333333334 0.25
vt 0.041666666666666664 0.125
vt 0 0.125
vt 0 0
vt 0.041666666666666664 0
vt 0.3229166666666667 0.375
vt 0.23958333333333334 0.25
vt 0.25 0.25
vt 0.3333333333333333 0.375
vt 0.28125 0.375
vt 0.3229166666666667 0.375
vt 0.3333333333333333 0.375
vt 0.2916666666666667 0.375
vt 0.125 0.875
vt 0.20833333333333334 0.875
vt 0.20833333333333334 1
vt 0.125 1
vt 0.3229166666666667 0.625
vt 0.28125 0.625
vt 0.2916666666666667 0.625
vt 0.3333333333333333 0.625
vt 0.23958333333333334 0.375
vt 0.28125 0.375
vt 0.2916666666666667 0.375
vt 0.25 0.375
vt 0.28125 0.625
vt 0.23958333333333334 0.625
vt 0.25 0.625
vt 0.2916666666666667 0.625
vt 0.125 0.875
vt 0.125 0.75
vt 0.20833333333333334 0.75
vt 0.20833333333333334 0.875
vt 0.20833333333333334 0.96875
vt 0.23958333333333334 0.71875
vt 0.25 0.75
vt 0.20833333333333334 1
vt 0.23958333333333334 0.71875
vt 0.3229166666666667 0.625
vt 0.3333333333333333 0.625
vt 0.25 0.75
vt 0.23958333333333334 0.25
vt 0.23958333333333334 0.375
vt 0.25 0.375
vt 0.25 0.25
vt 0.25 0.375
vt 0.20833333333333334 0.375
vt 0.20833333333333334 0.25
vt 0.25 0.25
vt 0.25 0.375
vt 0.20833333333333334 0.375
vt 0.20833333333333334 0.25
vt 0.25 0.25
vt 0.20833333333333334 0.25
vt 0.23958333333333334 0.25
vt 0.25 0.25
vt 0.20833333333333334 0.25
vt 0.23958333333333334 0.625
vt 0.23958333333333334 0.71875
vt 0.25 0.75
vt 0.25 0.625
vt 0.23958333333333334 0.71875
vt 0.20833333333333334 0.71875
vt 0.20833333333333334 0.75
vt 0.25 0.75
vt 0.25 0.375
vt 0.20833333333333334 0.375
vt 0.20833333333333334 0.25
vt 0.25 0.25
vt 0.25 0.375
vt 0.20833333333333334 0.375
vt 0.20833333333333334 0.25
vt 0.25 0.25
vt 0.20833333333333334 0.03125
vt 0.20833333333333334 0.15625
vt 0.20833333333333334 0.125
vt 0.20833333333333334 0
vt 0.20833333333333334 0.15625
vt 0.20833333333333334 0.25
vt 0.20833333333333334 0.25
vt 0.20833333333333334 0.125
vt 0.125 0.15625
vt 0.20833333333333334 0.15625
vt 0.20833333333333334 0.28125
vt 0.125 0.28125
vt 0.125 0.25
vt 0.125 0.15625
vt 0.125 0.125
vt 0.125 0.25
vt 0.20833333333333334 0.71875
vt 0.20833333333333334 0.84375
vt 0.20833333333333334 0.875
vt 0.20833333333333334 0.75
vt 0.20833333333333334 0.84375
vt 0.20833333333333334 0.96875
vt 0.20833333333333334 1
vt 0.20833333333333334 0.875
vt 0.125 0.84375
vt 0.125 0.71875
vt 0.125 0.75
vt 0.125 0.875
vt 0.20833333333333334 0.875
vt 0.20833333333333334 0.75
vt 0.125 0.75
vt 0.125 0.875
vt 0.125 0.875
vt 0.20833333333333334 0.875
vt 0.20833333333333334 1
vt 0.125 1
vt 0.125 0.96875
vt 0.125 0.84375
vt 0.125 0.875
vt 0.125 1
vt 0.25 0.375
vt 0.20833333333333334 0.375
vt 0.20833333333333334 0.25
vt 0.25 0.25
vt 0.25 0.375
vt 0.20833333333333334 0.375
vt 0.20833333333333334 0.25
vt 0.25 0.25
vt 0.08333333333333333 0.375
vt 0.08333333333333333 0.25
vt 0.08333333333333333 0.25
vt 0.08333333333333333 0.375
vt 0.08333333333333333 0.25
vt 0.125 0.25
vt 0.125 0.25
vt 0.08333333333333333 0.25
vt 0.25 0.375
vt 0.20833333333333334 0.375
vt 0.20833333333333334 0.25
vt 0.25 0.25
vt 0.125 0.71875
vt 0.08333333333333333 0.71875
vt 0.08333333333333333 0.75
vt 0.125 0.75
vt 0.08333333333333333 0.71875
vt 0.08333333333333333 0.625
vt 0.08333333333333333 0.625
vt 0.08333333333333333 0.75
vt 0.25 0.375
vt 0.20833333333333334 0.375
vt 0.20833333333333334 0.25
vt 0.25 0.25
vt 0.052083333333333336 0.375
vt 0.08333333333333333 0.375
vt 0.08333333333333333 0.375
vt 0.041666666666666664 0.375
vt 0.125 0.15625
vt 0.20833333333333334 0.15625
vt 0.20833333333333334 0.28125
vt 0.125 0.28125
vt 0.08333333333333333 0.625
vt 0.052083333333333336 0.625
vt 0.041666666666666664 0.625
vt 0.08333333333333333 0.625
vt 0.010416666666666666 0.375
vt 0.052083333333333336 0.375
vt 0.041666666666666664 0.375
vt 0 0.375
vt 0.125 1
vt 0.125 0.875
vt 0.20833333333333334 0.875
vt 0.20833333333333334 1
vt 0.125 0.03125
vt 0.08333333333333333 0.25
vt 0.08333333333333333 0.25
vt 0.125 0
vt 0.08333333333333333 0.25
vt 0.010416666666666666 0.375
vt 0 0.375
vt 0.08333333333333333 0.25
vt 0.08333333333333333 0.71875
vt 0.125 0.96875
vt 0.125 1
vt 0.08333333333333333 0.75
vt 0.010416666666666666 0.625
vt 0.08333333333333333 0.71875
vt 0.08333333333333333 0.75
vt 0 0.625
vt 0.041666666666666664 1
vt 0.041666666666666664 0.875
vt 0.125 0.875
vt 0.125 1
vt 0.041666666666666664 0.875
vt 0 0.875
vt 0 0.625
vt 0.08333333333333333 0.75
vt 0.041666666666666664 1
vt 0.041666666666666664 0.875
vt 0.125 0.875
vt 0.125 1
vt 0.2916666666666667 0.875
vt 0.2916666666666667 1
vt 0.20833333333333334 1
vt 0.20833333333333334 0.875
vt 0.041666666666666664 1
vt 0.041666666666666664 0.875
vt 0.08333333333333333 0.75
vt 0.125 1
vt 0.2916666666666667 0.125
vt 0.3333333333333333 0.125
vt 0.3333333333333333 0.375
vt 0.25 0.25
vt 0.041666666666666664 1
vt 0.041666666666666664 0.875
vt 0.125 0.875
vt 0.125 1
vt 0.2916666666666667 0.875
vt 0.2916666666666667 1
vt 0.20833333333333334 1
vt 0.20833333333333334 0.875
vt 0.2916666666666667 0
vt 0.2916666666666667 0.125
vt 0.25 0.25
vt 0.20833333333333334 0
vt 0.2916666666666667 0.875
vt 0.2916666666666667 1
vt 0.20833333333333334 1
vt 0.20833333333333334 0.875
vt 0 0.125
vt 0.041666666666666664 0.125
vt 0.08333333333333333 0.25
vt 0 0.375
vt 0.041666666666666664 0.125
vt 0.041666666666666664 0
vt 0.125 0
vt 0.08333333333333333 0.25
vt 0.041666666666666664 1
vt 0.041666666666666664 0.875
vt 0.125 0.875
vt 0.125 1
vt 0.052083333333333336 0.625
vt 0.010416666666666666 0.625
vt 0 0.625
vt 0.041666666666666664 0.625
vt 0.041666666666666664 0.375
vt 0 0.375
vt 0.08333333333333333 0.25
vt 0.08333333333333333 0.375
vt 0.041666666666666664 0.625
vt 0.08333333333333333 0.625
vt 0.08333333333333333 0.75
vt 0 0.625
vt 0.20833333333333334 0.875
vt 0.20833333333333334 0.75
vt 0.25 0.75
vt 0.20833333333333334 1
vt 0.25 0.25
vt 0.3333333333333333 0.375
vt 0.2916666666666667 0.375
vt 0.25 0.375
vt 0.25 0.75
vt 0.25 0.625
vt 0.2916666666666667 0.625
vt 0.3333333333333333 0.625
vt 0.08333333333333333 0.75
vt 0.125 0.75
vt 0.125 0.875
vt 0.125 1
vt 0.25 0.25
vt 0.20833333333333334 0.25
vt 0.20833333333333334 0.125
vt 0.20833333333333334 0
vt 0.125 0.125
vt 0.125 0.25
vt 0.08333333333333333 0.25
vt 0.125 0
vt 0.23958333333333334 0.25
vt 0.20833333333333334 0.03125
vt 0.20833333333333334 0
vt 0.25 0.25
vt 0.125 0.15625
vt 0.125 0.03125
vt 0.125 0
vt 0.125 0.125
vt 0.125 1
vt 0.125 0.875
vt 0.20833333333333334 0.875
vt 0.20833333333333334 1
vt 0.2916666666666667 0.875
vt 0.2916666666666667 1
vt 0.20833333333333334 1
vt 0.20833333333333334 0.875
vt 0.2916666666666667 0.875
vt 0.2916666666666667 1
vt 0.20833333333333334 1
vt 0.25 0.75
vt 0.2916666666666667 0.875
vt 0.3333333333333333 0.875
vt 0.3333333333333333 1
vt 0.2916666666666667 1
vt 0.3333333333333333 0.875
vt 0.2916666666666667 0.875
vt 0.25 0.75
vt 0.3333333333333333 0.625
vt 0.84375 0.625
vt 0.8854166666666666 0.625
vt 0.8854166666666666 0.75
vt 0.84375 0.75
vt 0.84375 0.5
vt 0.8854166666666666 0.5
vt 0.8854166666666666 0.625
vt 0.84375 0.625
vt 0.125 0.625
vt 0.09375 0.625
vt 0.09375 0.5
vt 0.125 0.5
vt 0.125 0.5
vt 0.09375 0.5
vt 0.09375 0.375
vt 0.125 0.375
vt 0.20833333333333334 0.375
vt 0.16666666666666666 0.375
vt 0.16666666666666666 0.28125
vt 0.20833333333333334 0.28125
vt 0.16666666666666666 0.375
vt 0.125 0.375
vt 0.125 0.28125
vt 0.16666666666666666 0.28125
vt 0.8854166666666666 0.625
vt 0.9270833333333334 0.625
vt 0.9270833333333334 0.75
vt 0.8854166666666666 0.75
vt 0.8854166666666666 0.5
vt 0.9270833333333334 0.5
vt 0.9270833333333334 0.625
vt 0.8854166666666666 0.625
vt 0.9270833333333334 0.6875
vt 0.8854166666666666 0.6875
vt 0.8854166666666666 0.4375
vt 0.9270833333333334 0.4375
vt 0.4479166666666667 0.4375
vt 0.40625 0.4375
vt 0.40625 0.0625
vt 0.4479166666666667 0.0625
vt 0.78125 0.875
vt 0.7395833333333334 0.875
vt 0.7395833333333334 0.5
vt 0.78125 0.5
vt 0.4791666666666667 0.46875
vt 0.5416666666666666 0.46875
vt 0.5416666666666666 0.59375
vt 0.4791666666666667 0.59375
vt 0.5625 0.71875
vt 0.5208333333333334 0.71875
vt 0.5208333333333334 0.46875
vt 0.5625 0.46875
vt 0.5 0.46875
vt 0.5625 0.46875
vt 0.5625 0.59375
vt 0.5 0.59375
vt 0.5208333333333334 0.71875
vt 0.5625 0.71875
vt 0.5625 0.46875
vt 0.5208333333333334 0.46875
vt 0.8020833333333334 0.875
vt 0.7604166666666666 0.875
vt 0.7604166666666666 0.5
vt 0.8020833333333334 0.5
vt 0.8020833333333334 0.875
vt 0.7604166666666666 0.875
vt 0.7604166666666666 0.5
vt 0.8020833333333334 0.5
vt 0.8645833333333334 0.625
vt 0.8229166666666666 0.625
vt 0.8229166666666666 0.25
vt 0.8645833333333334 0.25
vt 0.4791666666666667 0.46875
vt 0.5416666666666666 0.46875
vt 0.5416666666666666 0.59375
vt 0.4791666666666667 0.59375
vt 0.4791666666666667 0.71875
vt 0.5208333333333334 0.71875
vt 0.5208333333333334 0.46875
vt 0.4791666666666667 0.46875
vt 0.5 0.46875
vt 0.5625 0.46875
vt 0.5625 0.59375
vt 0.5 0.59375
vt 0.5208333333333334 0.71875
vt 0.4791666666666667 0.71875
vt 0.4791666666666667 0.46875
vt 0.5208333333333334 0.46875
vt 0.7604166666666666 0.875
vt 0.71875 0.875
vt 0.71875 0.5
vt 0.7604166666666666 0.5
vt 0.10415729166666667 0.34375
vt 0.10415729166666667 0.375
vt 0.10415729166666667 0.375
vt 0.10415729166666667 0.34375
vt 0.156240625 0.34375
vt 0.16665729166666668 0.34375
vt 0.16665729166666668 0.34375
vt 0.156240625 0.34375
vt 0.5520833333333334 0.5
vt 0.5520833333333334 0.75
vt 0.46875 0.75
vt 0.46875 0.5
vt 0.8229166666666666 0.875
vt 0.78125 0.875
vt 0.78125 0.5
vt 0.8229166666666666 0.5
vt 0.08332395833333334 0.40625
vt 0.08332395833333334 0.375
vt 0.08332395833333334 0.375
vt 0.08332395833333334 0.40625
vt 0.14582395833333334 0.40625
vt 0.14582395833333334 0.375
vt 0.14582395833333334 0.375
vt 0.14582395833333334 0.40625
vt 0.5520833333333334 0.75
vt 0.46875 0.75
vt 0.46875 0.5
vt 0.5520833333333334 0.5
vt 0.4791666666666667 0.46875
vt 0.5416666666666666 0.46875
vt 0.5416666666666666 0.59375
vt 0.4791666666666667 0.59375
vt 0.4791666666666667 0.71875
vt 0.5208333333333334 0.71875
vt 0.5208333333333334 0.46875
vt 0.4791666666666667 0.46875
vt 0.5 0.46875
vt 0.5625 0.46875
vt 0.5625 0.59375
vt 0.5 0.59375
vt 0.5208333333333334 0.71875
vt 0.4791666666666667 0.71875
vt 0.4791666666666667 0.46875
vt 0.5208333333333334 0.46875
vt 0.8020833333333334 0.875
vt 0.7604166666666666 0.875
vt 0.7604166666666666 0.5
vt 0.8020833333333334 0.5
vt 0.78125 0.875
vt 0.7395833333333334 0.875
vt 0.7395833333333334 0.5
vt 0.78125 0.5
vt 0.5 0.46875
vt 0.5625 0.46875
vt 0.5625 0.59375
vt 0.5 0.59375
vt 0.5208333333333334 0.71875
vt 0.4791666666666667 0.71875
vt 0.4791666666666667 0.46875
vt 0.5208333333333334 0.46875
vt 0.8854166666666666 0.625
vt 0.84375 0.625
vt 0.84375 0.25
vt 0.8854166666666666 0.25
vt 0.78125 0.875
vt 0.7395833333333334 0.875
vt 0.7395833333333334 0.5
vt 0.78125 0.5
vt 0.4791666666666667 0.46875
vt 0.5416666666666666 0.46875
vt 0.5416666666666666 0.59375
vt 0.4791666666666667 0.59375
vt 0.4791666666666667 0.71875
vt 0.5208333333333334 0.71875
vt 0.5208333333333334 0.46875
vt 0.4791666666666667 0.46875
vt 0.7604166666666666 0.875
vt 0.71875 0.875
vt 0.71875 0.5
vt 0.7604166666666666 0.5
vt 0.90625 0.625
vt 0.8645833333333334 0.625
vt 0.8645833333333334 0.25
vt 0.90625 0.25
vt 0.11457395833333334 0.3125
vt 0.11457395833333334 0.34375
vt 0.11457395833333334 0.34375
vt 0.11457395833333334 0.3125
vt 0.11457395833333334 0.3125
vt 0.11457395833333334 0.3125
vt 0.11457395833333334 0.3125
vt 0.11457395833333334 0.3125
vt 0.11457395833333334 0.34375
vt 0.10415729166666667 0.34375
vt 0.10415729166666667 0.34375
vt 0.11457395833333334 0.34375
vt 0.10415729166666667 0.34375
vt 0.10415729166666667 0.34375
vt 0.10415729166666667 0.34375
vt 0.10415729166666667 0.34375
vt 0.25 0.625
vt 0.20833333333333334 0.625
vt 0.1875 0.5625
vt 0.25 0.5
vt 0.14582395833333334 0.34375
vt 0.13540729166666668 0.34375
vt 0.13540729166666668 0.34375
vt 0.14582395833333334 0.34375
vt 0.125 0.625
vt 0.09375 0.625
vt 0.09375 0.5
vt 0.14583333333333334 0.5625
vt 0.14582395833333334 0.34375
vt 0.14582395833333334 0.34375
vt 0.14582395833333334 0.34375
vt 0.14582395833333334 0.34375
vt 0.13540729166666668 0.34375
vt 0.13540729166666668 0.3125
vt 0.13540729166666668 0.3125
vt 0.13540729166666668 0.34375
vt 0.125 0.75
vt 0.125 0.625
vt 0.14583333333333334 0.5625
vt 0.16666666666666666 0.75
vt 0.10415729166666667 0.40625
vt 0.11457395833333334 0.40625
vt 0.11457395833333334 0.40625
vt 0.10415729166666667 0.40625
vt 0.20833333333333334 0.375
vt 0.25 0.375
vt 0.25 0.5
vt 0.1875 0.4375
vt 0.10415729166666667 0.40625
vt 0.10415729166666667 0.40625
vt 0.10415729166666667 0.40625
vt 0.10415729166666667 0.40625
vt 0.11457395833333334 0.40625
vt 0.11457395833333334 0.4375
vt 0.11457395833333334 0.4375
vt 0.11457395833333334 0.40625
vt 0.11457395833333334 0.4375
vt 0.11457395833333334 0.4375
vt 0.11457395833333334 0.4375
vt 0.11457395833333334 0.4375
vt 0.20833333333333334 0.28125
vt 0.20833333333333334 0.375
vt 0.1875 0.4375
vt 0.16666666666666666 0.28125
vt 0.13540729166666668 0.40625
vt 0.14582395833333334 0.40625
vt 0.14582395833333334 0.40625
vt 0.13540729166666668 0.40625
vt 0.14582395833333334 0.40625
vt 0.14582395833333334 0.40625
vt 0.14582395833333334 0.40625
vt 0.14582395833333334 0.40625
vt 0.09375 0.375
vt 0.125 0.375
vt 0.14583333333333334 0.4375
vt 0.09375 0.5
vt 0.13540729166666668 0.4375
vt 0.13540729166666668 0.40625
vt 0.13540729166666668 0.40625
vt 0.13540729166666668 0.4375
vt 0.125 0.375
vt 0.125 0.28125
vt 0.16666666666666666 0.28125
vt 0.14583333333333334 0.4375
vt 0.13540729166666668 0.4375
vt 0.13540729166666668 0.4375
vt 0.13540729166666668 0.4375
vt 0.13540729166666668 0.4375
vt 0.84375 0.625
vt 0.8020833333333334 0.625
vt 0.8020833333333334 0.25
vt 0.84375 0.25
vt 0.13540729166666668 0.3125
vt 0.13540729166666668 0.3125
vt 0.13540729166666668 0.3125
vt 0.13540729166666668 0.3125
vt 0.156240625 0.28125
vt 0.156240625 0.25
vt 0.156240625 0.25
vt 0.156240625 0.28125
vt 0.20833333333333334 0.625
vt 0.20833333333333334 0.75
vt 0.16666666666666666 0.75
vt 0.1875 0.5625
vt 0.156240625 0.25
vt 0.16665729166666668 0.25
vt 0.16665729166666668 0.25
vt 0.156240625 0.25
vt 0.46875 0.5
vt 0.5520833333333334 0.5
vt 0.5520833333333334 0.75
vt 0.46875 0.75
vt 0.8229166666666666 0.875
vt 0.78125 0.875
vt 0.78125 0.5
vt 0.8229166666666666 0.5
vt 0.11457395833333334 0.4375
vt 0.12499062500000001 0.4375
vt 0.12499062500000001 0.4375
vt 0.11457395833333334 0.4375
vt 0.12499062500000001 0.4375
vt 0.13540729166666668 0.4375
vt 0.13540729166666668 0.4375
vt 0.12499062500000001 0.4375
vt 0.46875 0.5
vt 0.5520833333333334 0.5
vt 0.5520833333333334 0.75
vt 0.46875 0.75
vt 0.16666666666666666 0.71875
vt 0.125 0.71875
vt 0.125 0.625
vt 0.16666666666666666 0.625
vt 0.20833333333333334 0.625
vt 0.125 0.625
vt 0.125 0.375
vt 0.20833333333333334 0.375
vt 0.20833333333333334 0.71875
vt 0.16666666666666666 0.71875
vt 0.16666666666666666 0.625
vt 0.20833333333333334 0.625
vt 0.23958333333333334 0.625
vt 0.20833333333333334 0.625
vt 0.20833333333333334 0.5
vt 0.23958333333333334 0.5
vt 0.23958333333333334 0.5
vt 0.20833333333333334 0.5
vt 0.20833333333333334 0.375
vt 0.23958333333333334 0.375
vt 0.7604166666666666 0.875
vt 0.71875 0.875
vt 0.71875 0.5
vt 0.7604166666666666 0.5
vt 0.6041666666666666 0.9375
vt 0.5625 0.9375
vt 0.5625 0.5625
vt 0.6041666666666666 0.5625
vt 0.71875 0.5
vt 0.71875 0.875
vt 0.7604166666666666 0.875
vt 0.7604166666666666 0.5
vt 0.5625 0.5625
vt 0.5625 0.9375
vt 0.6041666666666666 0.9375
vt 0.6041666666666666 0.5625
vt 0.5625 0.5625
vt 0.5625 0.9375
vt 0.6041666666666666 0.9375
vt 0.6041666666666666 0.5625
vt 0.9270833333333334 0.8125
vt 0.8854166666666666 0.8125
vt 0.8854166666666666 0.5625
vt 0.9270833333333334 0.5625
vt 0.84375 0.5625
vt 0.8854166666666666 0.5625
vt 0.8854166666666666 0.8125
vt 0.84375 0.8125
vt 0.5833333333333334 0.375
vt 0.5 0.375
vt 0.5 0.25
vt 0.5833333333333334 0.25
vt 0.5833333333333334 0.375
vt 0.5 0.375
vt 0.5 0.25
vt 0.5833333333333334 0.25
vt 0.5208333333333334 0.4375
vt 0.5208333333333334 0.1875
vt 0.5625 0.1875
vt 0.5625 0.4375
vt 0.5208333333333334 0.4375
vt 0.5208333333333334 0.1875
vt 0.5625 0.1875
vt 0.5625 0.4375
vt 0.4479166666666667 0.4375
vt 0.40625 0.4375
vt 0.40625 0.0625
vt 0.4479166666666667 0.0625
vt 0.6041666666666666 0.9375
vt 0.5625 0.9375
vt 0.5625 0.5625
vt 0.6041666666666666 0.5625
vt 0.5625 0.5625
vt 0.5625 0.9375
vt 0.6041666666666666 0.9375
vt 0.6041666666666666 0.5625
vt 0.5625 0.5625
vt 0.5625 0.9375
vt 0.6041666666666666 0.9375
vt 0.6041666666666666 0.5625
vt 0.4479166666666667 0.4375
vt 0.40625 0.4375
vt 0.40625 0.0625
vt 0.4479166666666667 0.0625
vt 0.4583333333333333 0.9375
vt 0.4166666666666667 0.9375
vt 0.4166666666666667 0.5625
vt 0.4583333333333333 0.5625
vt 0.5625 0.5625
vt 0.5625 0.9375
vt 0.6041666666666666 0.9375
vt 0.6041666666666666 0.5625
vt 0.5625 0.5625
vt 0.5625 0.9375
vt 0.6041666666666666 0.9375
vt 0.6041666666666666 0.5625
vt 0.5625 0.1875
vt 0.5625 0.4375
vt 0.5208333333333334 0.4375
vt 0.5208333333333334 0.1875
vt 0.5625 0.1875
vt 0.5625 0.4375
vt 0.5208333333333334 0.4375
vt 0.5208333333333334 0.1875
vt 0.5 0.25
vt 0.5833333333333334 0.25
vt 0.5833333333333334 0.375
vt 0.5 0.375
vt 0.5 0.25
vt 0.5833333333333334 0.25
vt 0.5833333333333334 0.375
vt 0.5 0.375
vn 0 -1 0
vn 0 -1 0
vn 0 -1 0
vn 0 -1 0
vn -1 0 0
vn -1 0 0
vn 1 0 0
vn 1 0 0
vn 0 1 0
vn 0 1 0
vn 0 1 0
vn 0 1 0
vn 0 1 0
vn 0 1 0
vn 0 1 0
vn 0 1 0
vn 0 1 0
vn 0 1 0
vn 0 1 0
vn 0 1 0
vn 0.8944271909999161 0 -0.44721359549995804
vn -1 0 0
vn 0 0 1
vn 1 0 0
vn -1 0 0
vn 1 0 0
vn 0 0 -1
vn -0.44721359549995804 0 -0.8944271909999161
vn -0.8944271909999161 0 -0.44721359549995804
vn 0 0 1
vn 1 0 0
vn 0 0 -1
vn -1 0 0
vn 0 0 1
vn 1 0 0
vn 0 0 -1
vn -1 0 0
vn 0 0 1
vn 0 0 1
vn 1 0 0
vn 0 0 -1
vn 0 0 1
vn 0 0 1
vn 0 0 -1
vn -1 0 0
vn 1 0 0
vn 0 0 -1
vn 0 0 1
vn 1 0 0
vn 0 0 -1
vn -1 0 0
vn 0 0 1
vn 1 0 0
vn 0 0 -1
vn -1 0 0
vn -1 0 0
vn 0 0 1
vn 1 0 0
vn -1 0 0
vn 0 0 -1
vn 0.44721359549995804 0 0.8944271909999161
vn 0.8944271909999161 0 0.44721359549995804
vn -0.44721359549995804 0 0.8944271909999161
vn -0.8944271909999161 0 0.44721359549995804
vn 0 0 1
vn 0 1 0
vn 1 0 0
vn 0 0 1
vn 0 1 0
vn 0 1 0
vn -1 0 0
vn 0 0 -1
vn 0 1 0
vn 1 0 0
vn 0 1 0
vn 0 1 0
vn 0 0 -1
vn 1 0 0
vn 0 1 0
vn 0 1 0
vn 0 1 0
vn 0 1 0
vn 0 1 0
vn 0 1 0
vn 0 1 0
vn 0 1 0
vn 0.44721359549995804 0 -0.8944271909999161
vn 0 0 -1
vn -1 0 0
vn -1 0 0
vn 0 1 0
vn 0 1 0
vn 0 1 0
vn 0 1 0
vn 0 1 0
vn 0 1 0
vn 0 1 0
vn 0 1 0
vn 0 1 0
vn 0 1 0
vn 0 1 0
vn 0 1 0
vn 0 0 -1
vn 0 0 1
vn 0.948683298050514 0 -0.316227766016838
vn 1 0 0
vn 0.316227766016838 0 -0.948683298050514
vn 0 0 -1
vn -1 0 0
vn 0 0 1
vn 1 0 0
vn -0.316227766016838 0 -0.948683298050514
vn 0 0 -1
vn -0.948683298050514 0 -0.316227766016838
vn -1 0 0
vn 0 0 1
vn 1 0 0
vn 1 0 0
vn 1 0 0
vn 0 0 -1
vn -1 0 0
vn -1 0 0
vn -1 0 0
vn 0.316227766016838 0 0.948683298050514
vn 0 0 1
vn 0.948683298050514 0 0.316227766016838
vn 1 0 0
vn 0 0 -1
vn -1 0 0
vn -0.316227766016838 0 0.948683298050514
vn 0 0 1
vn 1 0 0
vn 0 0 -1
vn -0.948683298050514 0 0.316227766016838
vn -1 0 0
vn -1 0 0
vn 1 0 0
vn 0 -1 0
vn 0 0 1
vn 0 -1 0
vn -1 0 0
vn 0 1 0
vn 0 -1 0
vn 0 1 0
vn 1 0 0
vn 0 -1 0
vn 0 1 0
vn 0 -1 0
vn 0 1 0
vn -1 0 0
vn 0 -1 0
vn 0 0 -1
vn 0 1 0
vn 0 -1 0
vn 1 0 0
vn 0 1 0
vn 0 -1 0
vn 0 1 0
vn 0 0 -1
vn 1 0 0
vn 0 0 1
vn 0 0 -1
vn 0 1 0
vn 0 0 -1
vn 0 0 -1
vn -1 0 0
vn 0 0 1
vn 0 0 1
vn 0 0 1
vn 0 1 0
vn 0 1 0
vn 0 1 0
vn 0 1 0
vn 0 1 0
vn 0 0 -1
vn 0 0 -1
vn 0 0 1
vn 0 0 1
vn 0 0 1
vn 0 1 0
vn 0 1 0
vn 0 1 0
vn 0 1 0
vn 0 1 0
vn 0 1 0
vn 0 0 1
vn 0 0 1
vn 0 0 -1
vn 0 0 -1
vn 1 0 0
vn 1 0 0
vn -1 0 0
vn -1 0 0
vn 0 1 0
vn 0 1 0
vn 0 1 0
vn 0 1 0
usemtl m_965d2640-cb4b-3d73-ffc5-c7562df74836
f 63/69/18 62/70/18 61/71/18 64/72/18
f 67/73/19 66/74/19 65/75/19 68/76/19
f 71/77/20 70/78/20 69/79/20 72/80/20
f 75/81/21 74/82/21 73/83/21 76/84/21
f 81/85/22 82/86/22 83/87/22 84/88/22
f 89/89/23 90/90/23 91/91/23 92/92/23
f 87/93/24 86/94/24 85/95/24 88/96/24
f 79/97/25 78/98/25 77/99/25 80/100/25
f 94/101/26 326/102/26 328/103/26 93/104/26
f 100/105/27 101/106/27 102/107/27 103/108/27
f 192/109/28 194/110/28 104/111/28 98/112/28
f 186/113/29 105/114/29 106/115/29 185/116/29
f 195/117/30 196/118/30 107/119/30 108/120/30
f 185/121/31 114/122/31 113/123/31 187/124/31
f 111/125/32 117/126/32 116/127/32 109/128/32
f 118/129/33 119/130/33 200/131/33 201/132/33
f 120/133/34 121/134/34 205/135/34 203/136/34
f 122/137/35 123/138/35 124/139/35 125/140/35
f 203/141/36 206/142/36 202/143/36 200/144/36
f 126/145/37 127/146/37 128/147/37 129/148/37
f 131/149/38 132/150/38 186/151/38 133/152/38
f 137/153/39 136/154/39 98/155/39 99/156/39
f 136/157/40 138/158/40 192/159/40 98/160/40
f 138/161/41 139/162/41 193/163/41 192/164/41
f 140/165/42 137/166/42 99/167/42 104/168/42
f 139/169/43 141/170/43 194/171/43 193/172/43
f 194/173/44 141/174/44 140/175/44 104/176/44
f 324/177/45 144/178/45 197/179/45 145/180/45
f 144/181/46 146/182/46 198/183/46 197/184/46
f 148/185/47 147/186/47 105/187/47 186/188/47
f 147/189/48 149/190/48 106/191/48 105/192/48
f 149/193/49 150/194/49 185/195/49 106/196/49
f 150/197/50 148/198/50 186/199/50 185/200/50
f 152/201/51 151/202/51 196/203/51 195/204/51
f 151/205/52 327/206/52 107/207/52 196/208/52
f 327/209/53 153/210/53 108/211/53 107/212/53
f 153/213/54 152/214/54 195/215/54 108/216/54
f 155/217/55 154/218/55 184/219/55 187/220/55
f 154/221/56 156/222/56 185/223/56 184/224/56
f 156/225/57 159/226/57 114/227/57 185/228/57
f 159/229/58 158/230/58 112/231/58 114/232/58
f 327/233/59 323/234/59 110/235/59 109/236/59
f 323/237/60 324/238/60 111/239/60 110/240/60
f 319/241/61 160/242/61 116/243/61 115/244/61
f 116/245/62 160/246/62 327/247/62 109/248/62
f 324/249/63 320/250/63 117/251/63 111/252/63
f 320/253/64 319/254/64 115/255/64 117/256/64
f 162/257/65 161/258/65 119/259/65 118/260/65
f 161/261/66 163/262/66 200/263/66 119/264/66
f 163/265/67 164/266/67 201/267/67 200/268/67
f 164/269/68 162/270/68 118/271/68 201/272/68
f 166/273/69 165/274/69 121/275/69 120/276/69
f 165/277/70 167/278/70 205/279/70 121/280/70
f 167/281/71 168/282/71 203/283/71 205/284/71
f 168/285/72 166/286/72 120/287/72 203/288/72
f 170/289/73 169/290/73 200/291/73 199/292/73
f 169/293/74 171/294/74 203/295/74 200/296/74
f 171/297/75 333/298/75 204/299/75 203/300/75
f 172/301/76 170/302/76 199/303/76 202/304/76
f 206/305/77 173/306/77 172/307/77 202/308/77
f 175/309/78 176/310/78 201/311/78 177/312/78
f 176/313/79 179/314/79 202/315/79 201/316/79
f 180/317/80 320/318/80 181/319/80 205/320/80
f 183/321/81 180/322/81 205/323/81 206/324/81
f 96/325/82 130/326/82 131/327/82 133/328/82
f 103/329/83 102/330/83 145/331/83 197/332/83
f 102/333/84 143/334/84 324/335/84 145/336/84
f 142/337/85 100/338/85 198/339/85 146/340/85
f 100/341/86 103/342/86 197/343/86 198/344/86
f 123/345/87 122/346/87 177/347/87 201/348/87
f 122/349/88 174/350/88 175/351/88 177/352/88
f 178/353/89 124/354/89 202/355/89 179/356/89
f 124/357/90 123/358/90 201/359/90 202/360/90
f 336/361/91 127/362/91 181/363/91 320/364/91
f 127/365/92 126/366/92 205/367/92 181/368/92
f 126/369/93 129/370/93 206/371/93 205/372/93
f 129/373/94 182/374/94 183/375/94 206/376/94
f 333/377/95 173/378/95 206/379/95 204/380/95
f 115/381/96 181/382/96 205/383/96 116/384/96
f 110/385/97 109/386/97 197/387/97 145/388/97
f 99/389/98 104/390/98 186/391/98 133/392/98
f 201/393/99 113/394/99 112/395/99 118/396/99
f 186/397/100 185/398/100 184/399/100 187/400/100
f 190/401/101 189/402/101 188/403/101 191/404/101
f 201/405/102 200/406/102 199/407/102 202/408/102
f 204/409/103 203/410/103 205/411/103 206/412/103
f 132/413/104 135/414/104 187/415/104 186/416/104
f 158/417/105 157/418/105 113/419/105 112/420/105
f 113/421/106 157/422/106 155/423/106 187/424/106
f 134/425/107 97/426/107 187/427/107 135/428/107
f 207/429/108 96/430/108 133/431/108 186/432/108
f 207/433/109 97/434/109 95/435/109 96/436/109
f 97/437/110 207/438/110 186/439/110 187/440/110
f 339/441/111 209/442/111 214/443/111 213/444/111
f 211/445/112 210/446/112 215/447/112 216/448/112
f 223/449/113 328/450/113 226/451/113 225/452/113
f 225/453/114 226/454/114 231/455/114 230/456/114
f 227/457/115 229/458/115 234/459/115 235/460/115
f 229/461/116 230/462/116 236/463/116 234/464/116
f 233/465/117 235/466/117 240/467/117 239/468/117
f 236/469/118 237/470/118 337/471/118 334/472/118
f 338/473/119 337/474/119 231/475/119 322/476/119
f 244/477/120 243/478/120 217/479/120 212/480/120
f 246/481/121 247/482/121 213/483/121 214/484/121
f 248/485/122 249/486/122 250/487/122 251/488/122
f 253/489/123 246/490/123 245/491/123 252/492/123
f 249/493/124 254/494/124 255/495/124 250/496/124
f 257/497/125 253/498/125 252/499/125 256/500/125
f 247/501/126 257/502/126 219/503/126 213/504/126
f 259/505/127 260/506/127 216/507/127 215/508/127
f 327/509/128 259/510/128 215/511/128 328/512/128
f 262/513/129 263/514/129 264/515/129 265/516/129
f 267/517/130 327/518/130 261/519/130 266/520/130
f 263/521/131 268/522/131 269/523/131 264/524/131
f 260/525/132 267/526/132 266/527/132 258/528/132
f 272/529/133 270/530/133 218/531/133 219/532/133
f 219/533/134 224/534/134 273/535/134 271/536/134
f 224/537/135 228/538/135 275/539/135 273/540/135
f 275/541/136 276/542/136 272/543/136 271/544/136
f 274/545/137 276/546/137 228/547/137 232/548/137
f 226/549/138 328/550/138 277/551/138 278/552/138
f 231/553/139 226/554/139 278/555/139 279/556/139
f 327/557/140 280/558/140 279/559/140 277/560/140
f 281/561/141 282/562/141 283/563/141 284/564/141
f 287/565/142 288/566/142 285/567/142 286/568/142
f 282/569/143 289/570/143 290/571/143 283/572/143
f 292/573/144 287/574/144 286/575/144 291/576/144
f 293/577/145 292/578/145 235/579/145 233/580/145
f 288/581/146 293/582/146 233/583/146 228/584/146
f 294/585/147 295/586/147 296/587/147 297/588/147
f 300/589/148 301/590/148 298/591/148 299/592/148
f 302/593/149 300/594/149 231/595/149 237/596/149
f 304/597/150 302/598/150 237/599/150 236/600/150
f 305/601/151 294/602/151 297/603/151 306/604/151
f 301/605/152 304/606/152 303/607/152 298/608/152
f 308/609/153 309/610/153 240/611/153 235/612/153
f 335/613/154 311/614/154 236/615/154 334/616/154
f 214/617/155 222/618/155 249/619/155 248/620/155
f 245/621/156 214/622/156 248/623/156 251/624/156
f 222/625/157 219/626/157 254/627/157 249/628/157
f 219/629/158 256/630/158 255/631/158 254/632/158
f 256/633/159 252/634/159 250/635/159 255/636/159
f 328/637/160 223/638/160 263/639/160 262/640/160
f 266/641/161 261/642/161 265/643/161 264/644/161
f 261/645/162 328/646/162 262/647/162 265/648/162
f 223/649/163 216/650/163 268/651/163 263/652/163
f 258/653/164 266/654/164 264/655/164 269/656/164
f 228/657/165 227/658/165 282/659/165 281/660/165
f 286/661/166 285/662/166 284/663/166 283/664/166
f 285/665/167 228/666/167 281/667/167 284/668/167
f 227/669/168 235/670/168 289/671/168 282/672/168
f 235/673/169 291/674/169 290/675/169 289/676/169
f 291/677/170 286/678/170 283/679/170 290/680/170
f 230/681/171 231/682/171 295/683/171 294/684/171
f 231/685/172 299/686/172 296/687/172 295/688/172
f 299/689/173 298/690/173 297/691/173 296/692/173
f 236/693/174 230/694/174 294/695/174 305/696/174
f 298/697/175 303/698/175 306/699/175 297/700/175
f 303/701/176 236/702/176 305/703/176 306/704/176
f 242/705/177 313/706/177 211/707/177 216/708/177
f 216/709/178 258/710/178 269/711/178 268/712/178
f 216/713/179 220/714/179 315/715/179 314/716/179
f 252/717/180 245/718/180 251/719/180 250/720/180
f 220/721/181 214/722/181 316/723/181 315/724/181
f 314/725/182 316/726/182 241/727/182 242/728/182
f 312/729/183 241/730/183 214/731/183 209/732/183
f 235/733/184 234/734/184 317/735/184 307/736/184
f 234/737/185 236/738/185 310/739/185 317/740/185
f 307/741/186 310/742/186 311/743/186 308/744/186
f 220/745/187 216/746/187 223/747/187 221/748/187
f 222/749/188 223/750/188 230/751/188 227/752/188
f 214/753/189 220/754/189 221/755/189 222/756/189
f 219/757/190 222/758/190 318/759/190 224/760/190
f 224/761/191 318/762/191 227/763/191 228/764/191
f 280/765/192 319/766/192 322/767/192 231/768/192
f 319/769/193 320/770/193 321/771/193 322/772/193
f 326/773/194 323/774/194 327/775/194 328/776/194
f 325/777/195 324/778/195 323/779/195 326/780/195
f 331/781/196 330/782/196 329/783/196 332/784/196
f 239/785/197 238/786/197 232/787/197 228/788/197
f 208/789/198 339/790/198 219/791/198 218/792/198
f 342/793/199 347/794/199 346/795/199 343/796/199
f 341/797/200 344/798/200 345/799/200 340/800/200
f 350/801/201 355/802/201 354/803/201 351/804/201
f 349/805/202 352/806/202 353/807/202 348/808/202
f 360/809/203 361/810/203 362/811/203 363/812/203
f 368/813/204 369/814/204 370/815/204 371/816/204
f 366/817/205 365/818/205 364/819/205 367/820/205
f 358/821/206 357/822/206 356/823/206 359/824/206
f 376/825/207 377/826/207 378/827/207 379/828/207
f 384/829/208 385/830/208 386/831/208 387/832/208
f 382/833/209 381/834/209 380/835/209 383/836/209
f 374/837/210 373/838/210 372/839/210 375/840/210
f 390/841/211 395/842/211 394/843/211 391/844/211
f 389/845/212 392/846/212 393/847/212 388/848/212
f 398/849/213 403/850/213 402/851/213 399/852/213
f 397/853/214 400/854/214 401/855/214 396/856/214