# Made in Blockbench 5.1.6
mtllib ColdDistillator.mtl

o frameup
v 0.3749999999999999 1 -0.5
v -0.3750000000000001 1 -0.5000000000000002
v 0.3749999999999999 0.625 -0.5
v -0.3750000000000001 0.625 -0.5000000000000002
v 0.3749999999999999 1 -0.375
v -0.3750000000000001 1 -0.37500000000000017
v 0.3749999999999999 0.625 -0.375
v -0.3750000000000001 0.625 -0.37500000000000017
v -0.3750000000000002 1 0.3749999999999998
v -0.3750000000000001 1 -0.37500000000000017
v -0.5000000000000002 1 0.3749999999999998
v -0.5000000000000001 1 -0.37500000000000017
v -0.5000000000000002 0.625 0.3749999999999998
v -0.5000000000000001 0.625 -0.37500000000000017
v -0.3750000000000002 0.625 0.3749999999999998
v -0.3750000000000001 0.625 -0.37500000000000017
v 0.3749999999999997 0.625 0.375
v 0.3749999999999999 0.625 -0.375
v 0.24999999999999986 0.625 -0.25
v 0.2499999999999999 0.625 -0.375
v -0.2500000000000001 0.625 -0.3750000000000001
v -0.2500000000000001 0.625 -0.2500000000000001
v 0.24999999999999972 0.625 0.375
v 0.24999999999999975 0.625 0.25
v -0.2500000000000002 0.625 0.24999999999999978
v -0.2500000000000002 0.625 0.3749999999999998
v -0.37500000000000033 1 0.4999999999999998
v -0.3750000000000002 1 0.3749999999999998
v -0.37500000000000033 0.625 0.4999999999999998
v -0.3750000000000002 0.625 0.3749999999999998
v -0.5000000000000003 1 0.4999999999999998
v -0.5000000000000002 1 0.3749999999999998
v -0.5000000000000003 0.625 0.4999999999999998
v -0.5000000000000002 0.625 0.3749999999999998
v 0.3749999999999997 1 0.375
v -0.3750000000000002 1 0.3749999999999998
v 0.3749999999999997 0.625 0.375
v -0.3750000000000002 0.625 0.3749999999999998
v 0.37499999999999967 1 0.5
v -0.37500000000000033 1 0.4999999999999998
v 0.37499999999999967 0.625 0.5
v -0.37500000000000033 0.625 0.4999999999999998
v 0.49999999999999967 1 0.5
v 0.37499999999999967 1 0.5
v 0.3749999999999997 1 0.375
v 0.37499999999999967 0.625 0.5
v 0.3749999999999997 0.625 0.375
v 0.3749999999999997 1 0.375
v 0.3749999999999999 1 -0.375
v 0.3749999999999997 0.625 0.375
v 0.3749999999999999 0.625 -0.375
v 0.4999999999999999 1 -0.49999999999999994
v 0.3749999999999999 1 -0.375
v 0.3749999999999999 1 -0.5
v 0.3749999999999999 0.625 -0.375
v 0.3749999999999999 0.625 -0.5
v -0.3750000000000001 1 -0.37500000000000017
v -0.3750000000000001 1 -0.5000000000000002
v -0.3750000000000001 0.625 -0.37500000000000017
v -0.3750000000000001 0.625 -0.5000000000000002
v -0.5000000000000001 1 -0.37500000000000017
v -0.5000000000000001 1 -0.5000000000000002
v -0.5000000000000001 0.625 -0.37500000000000017
v -0.5000000000000001 0.625 -0.5000000000000002
v 0.4999999999999999 0.625 -0.49999999999999994
v 0.49999999999999967 0.625 0.5
v 0.4999999999999997 1 0.375
v 0.4999999999999997 0.625 0.375
v 0.4999999999999999 1 -0.375
v 0.4999999999999999 0.625 -0.375
vt 0.9791666666666666 0.5
vt 0.9791666666666666 0.875
vt 0.7291666666666666 0.875
vt 0.7291666666666666 0.5
vt 0.2916666666666667 0.125
vt 0.3333333333333333 0.125
vt 0.3333333333333333 0.875
vt 0.2916666666666667 0.875
vt 0.16666666666666666 0.5
vt 0.16666666666666666 1
vt 0 1
vt 0 0.5
vt 0.16666666666666666 1
vt 0 1
vt 0 0.5
vt 0.16666666666666666 0.5
vt 0.9791666666666666 0.875
vt 0.7291666666666666 0.875
vt 0.7291666666666666 0.5
vt 0.9791666666666666 0.5
vt 0.041666666666666664 1
vt 0.041666666666666664 0.875
vt 0.2916666666666667 0.875
vt 0.2916666666666667 1
vt 0.16666666666666666 0.5
vt 0.16666666666666666 1
vt 0 1
vt 0 0.5
vt 0.16666666666666666 1
vt 0 1
vt 0 0.5
vt 0.16666666666666666 0.5
vt 0.6875 0.875
vt 0.6875 0.75
vt 0.9375 0.75
vt 0.9375 0.875
vt 0.6875 0.25
vt 0.6875 0.125
vt 0.9375 0.125
vt 0.9375 0.25
vt 0.8958333333333334 0.25
vt 0.9375 0.25
vt 0.9375 0.75
vt 0.8958333333333334 0.75
vt 0.6875 0.25
vt 0.7291666666666666 0.25
vt 0.7291666666666666 0.75
vt 0.6875 0.75
vt 0.16666666666666666 1
vt 0 1
vt 0 0.5
vt 0.16666666666666666 0.5
vt 0 1
vt 0 0.875
vt 0.041666666666666664 0.875
vt 0.041666666666666664 1
vt 0.16666666666666666 0.5
vt 0.16666666666666666 1
vt 0 1
vt 0 0.5
vt 0.16666666666666666 1
vt 0 1
vt 0 0.5
vt 0.16666666666666666 0.5
vt 0.9791666666666666 0.875
vt 0.7291666666666666 0.875
vt 0.7291666666666666 0.5
vt 0.9791666666666666 0.5
vt 0 0.125
vt 0.041666666666666664 0.125
vt 0.041666666666666664 0.875
vt 0 0.875
vt 0.16666666666666666 0.5
vt 0.16666666666666666 1
vt 0 1
vt 0 0.5
vt 0.16666666666666666 1
vt 0 1
vt 0 0.5
vt 0.16666666666666666 0.5
vt 0.16666666666666666 0.5
vt 0.16666666666666666 1
vt 0 1
vt 0 0.5
vt 0 0.125
vt 0 0
vt 0.041666666666666664 0
vt 0.041666666666666664 0.125
vt 0.16666666666666666 0.5
vt 0.16666666666666666 1
vt 0 1
vt 0 0.5
vt 0.16666666666666666 1
vt 0 1
vt 0 0.5
vt 0.16666666666666666 0.5
vt 0.9791666666666666 0.5
vt 0.9791666666666666 0.875
vt 0.7291666666666666 0.875
vt 0.7291666666666666 0.5
vt 0.041666666666666664 0.125
vt 0.041666666666666664 0
vt 0.2916666666666667 0
vt 0.2916666666666667 0.125
vt 0.16666666666666666 0.5
vt 0.16666666666666666 1
vt 0 1
vt 0 0.5
vt 0.16666666666666666 1
vt 0 1
vt 0 0.5
vt 0.16666666666666666 0.5
vt 0.16666666666666666 0.5
vt 0.16666666666666666 1
vt 0 1
vt 0 0.5
vt 0.2916666666666667 0.125
vt 0.2916666666666667 0
vt 0.3333333333333333 0
vt 0.3333333333333333 0.125
vt 0.16666666666666666 0.5
vt 0.16666666666666666 1
vt 0 1
vt 0 0.5
vt 0.16666666666666666 0.5
vt 0.16666666666666666 1
vt 0 1
vt 0 0.5
vt 0.16666666666666666 1
vt 0 1
vt 0 0.5
vt 0.16666666666666666 0.5
vt 0.2916666666666667 1
vt 0.2916666666666667 0.875
vt 0.3333333333333333 0.875
vt 0.3333333333333333 1
vt 0.16666666666666666 0.5
vt 0.16666666666666666 1
vt 0 1
vt 0 0.5
vt 0.16666666666666666 0.5
vt 0.16666666666666666 1
vt 0 1
vt 0 0.5
vn -2.22044604925031316 0 1
vn 0 1 0
vn 1 0 2.22044604925031316
vn -1 0 -2.22044604925031316
vn 1 0 2.22044604925031316
vn 0 1 0
vn -2.22044604925031316 0 1
vn 2.22044604925031316 0 -1
vn 0 1 0
vn 0 1 0
vn 0 1 0
vn 0 1 0
vn 1 0 2.22044604925031316
vn 0 1 0
vn 0 -1 0
vn 2.22044604925031316 0 -1
vn 2.22044604925031316 0 -1
vn 0 1 0
vn 1 0 2.22044604925031316
vn -1 0 -2.22044604925031316
vn -1 0 -2.22044604925031316
vn 0 1 0
vn 0 -1 0
vn 2.2204460492503136 0 -1
vn -1 0 -2.2204460492503136
vn 0 1 0
vn -2.2204460492503136 0 1
vn 2.2204460492503136 0 -1
vn -1 0 -2.2204460492503136
vn 0 1 0
vn 0 -1 0
vn -2.2204460492503136 0 1
vn 1 0 2.2204460492503136
vn 0 1 0
vn 0 -1 0
vn -2.2204460492503136 0 1
usemtl m_3059e342-dafc-733e-821e-d1c82d1ab309
f 7/1/1 5/2/1 6/3/1 8/4/1
f 5/5/2 1/6/2 2/7/2 6/8/2
f 3/9/3 1/10/3 5/11/3 7/12/3
f 6/13/4 2/14/4 4/15/4 8/16/4
f 10/17/5 9/18/5 15/19/5 16/20/5
f 11/21/6 9/22/6 10/23/6 12/24/6
f 15/25/7 9/26/7 11/27/7 13/28/7
f 12/29/8 10/30/8 16/31/8 14/32/8
f 15/33/9 26/34/9 21/35/9 16/36/9
f 23/37/10 17/38/10 18/39/10 20/40/10
f 19/41/11 20/42/11 21/43/11 22/44/11
f 23/45/12 24/46/12 25/47/12 26/48/12
f 28/49/13 27/50/13 29/51/13 30/52/13
f 31/53/14 27/54/14 28/55/14 32/56/14
f 30/57/15 29/58/15 33/59/15 34/60/15
f 32/61/16 28/62/16 30/63/16 34/64/16
f 36/65/17 35/66/17 37/67/17 38/68/17
f 39/69/18 35/70/18 36/71/18 40/72/18
f 37/73/19 35/74/19 39/75/19 41/76/19
f 40/77/20 36/78/20 38/79/20 42/80/20
f 46/81/21 44/82/21 45/83/21 47/84/21
f 44/85/22 43/86/22 67/87/22 45/88/22
f 68/89/23 66/90/23 46/91/23 47/92/23
f 45/93/24 67/94/24 68/95/24 47/96/24
f 50/97/25 48/98/25 49/99/25 51/100/25
f 48/101/26 67/102/26 69/103/26 49/104/26
f 68/105/27 67/106/27 48/107/27 50/108/27
f 49/109/28 69/110/28 70/111/28 51/112/28
f 55/113/29 53/114/29 54/115/29 56/116/29
f 53/117/30 69/118/30 52/119/30 54/120/30
f 65/121/31 70/122/31 55/123/31 56/124/31
f 70/125/32 69/126/32 53/127/32 55/128/32
f 58/129/33 57/130/33 59/131/33 60/132/33
f 61/133/34 57/134/34 58/135/34 62/136/34
f 60/137/35 59/138/35 63/139/35 64/140/35
f 59/141/36 57/142/36 61/143/36 63/144/36
o inner
v -0.125 1 0.125
v -0.125 1 -0.125
v -0.125 0.625 0.125
v -0.125 0.625 -0.125
v -0.25 1 0.125
v -0.25 1 -0.125
v -0.25 0.625 0.125
v -0.25 0.625 -0.125
v -0.125 1 0.125
v -0.25 1 0.125
v -0.125 0.625 0.125
v -0.25 0.625 0.125
v -0.125 1 0.25
v -0.25 1 0.25
v -0.125 0.625 0.25
v -0.25 0.625 0.25
v 0.125 1 0.125
v -0.125 1 0.125
v 0.125 0.625 0.125
v -0.125 0.625 0.125
v 0.125 1 0.25
v -0.125 1 0.25
v 0.125 0.625 0.25
v -0.125 0.625 0.25
v 0.25 1 0.125
v 0.125 1 0.125
v 0.25 0.625 0.125
v 0.125 0.625 0.125
v 0.25 1 0.25
v 0.125 1 0.25
v 0.25 0.625 0.25
v 0.125 0.625 0.25
v 0.25 1 0.125
v 0.25 1 -0.125
v 0.25 0.625 0.125
v 0.25 0.625 -0.125
v 0.125 1 0.125
v 0.125 1 -0.125
v 0.125 0.625 0.125
v 0.125 0.625 -0.125
v 0.25 1 -0.25
v 0.125 1 -0.25
v 0.25 0.625 -0.25
v 0.125 0.625 -0.25
v 0.25 1 -0.125
v 0.125 1 -0.125
v 0.25 0.625 -0.125
v 0.125 0.625 -0.125
v 0.125 1 -0.25
v -0.125 1 -0.25
v 0.125 0.625 -0.25
v -0.125 0.625 -0.25
v 0.125 1 -0.125
v -0.125 1 -0.125
v 0.125 0.625 -0.125
v -0.125 0.625 -0.125
v -0.125 1 -0.25
v -0.25 1 -0.25
v -0.125 0.625 -0.25
v -0.25 0.625 -0.25
v -0.125 1 -0.125
v -0.25 1 -0.125
v -0.125 0.625 -0.125
v -0.25 0.625 -0.125
vt 0.20833333333333334 0.75
vt 0.125 0.75
vt 0.125 0.375
vt 0.20833333333333334 0.375
vt 0.20833333333333334 0
vt 0.20833333333333334 0.375
vt 0.125 0.375
vt 0.125 0
vt 0.08333333333333333 0.375
vt 0.125 0.375
vt 0.125 0.625
vt 0.08333333333333333 0.625
vt 0.16666666666666666 0.5
vt 0.16666666666666666 1
vt 0 1
vt 0 0.5
vt 0.16666666666666666 0.5
vt 0.16666666666666666 1
vt 0 1
vt 0 0.5
vt 0.16666666666666666 1
vt 0 1
vt 0 0.5
vt 0.16666666666666666 0.5
vt 0.16666666666666666 1
vt 0 1
vt 0 0.5
vt 0.16666666666666666 0.5
vt 0.20833333333333334 0
vt 0.20833333333333334 0.375
vt 0.25 0.375
vt 0.25 0
vt 0.125 0.25
vt 0.125 0.375
vt 0.08333333333333333 0.375
vt 0.08333333333333333 0.25
vt 0.16666666666666666 0.5
vt 0.16666666666666666 1
vt 0 1
vt 0 0.5
vt 0.16666666666666666 0.5
vt 0.16666666666666666 1
vt 0 1
vt 0 0.5
vt 0.25 0.375
vt 0.20833333333333334 0.375
vt 0.20833333333333334 0
vt 0.25 0
vt 0.20833333333333334 0.75
vt 0.125 0.75
vt 0.125 0.375
vt 0.20833333333333334 0.375
vt 0.20833333333333334 0
vt 0.20833333333333334 0.375
vt 0.125 0.375
vt 0.125 0
vt 0.20833333333333334 0.25
vt 0.20833333333333334 0.375
vt 0.125 0.375
vt 0.125 0.25
vt 0.16666666666666666 0.5
vt 0.16666666666666666 1
vt 0 1
vt 0 0.5
vt 0.16666666666666666 0.5
vt 0.16666666666666666 1
vt 0 1
vt 0 0.5
vt 0.16666666666666666 1
vt 0 1
vt 0 0.5
vt 0.16666666666666666 0.5
vt 0.16666666666666666 1
vt 0 1
vt 0 0.5
vt 0.16666666666666666 0.5
vt 0.25 0
vt 0.25 0.375
vt 0.20833333333333334 0.375
vt 0.20833333333333334 0
vt 0.25 0.25
vt 0.25 0.375
vt 0.20833333333333334 0.375
vt 0.20833333333333334 0.25
vt 0.16666666666666666 0.5
vt 0.16666666666666666 1
vt 0 1
vt 0 0.5
vt 0.20833333333333334 0
vt 0.20833333333333334 0.375
vt 0.25 0.375
vt 0.25 0
vt 0.16666666666666666 1
vt 0 1
vt 0 0.5
vt 0.16666666666666666 0.5
vt 0.20833333333333334 0.375
vt 0.125 0.375
vt 0.125 0
vt 0.20833333333333334 0
vt 0.20833333333333334 0.375
vt 0.20833333333333334 0.75
vt 0.125 0.75
vt 0.125 0.375
vt 0.20833333333333334 0.375
vt 0.25 0.375
vt 0.25 0.625
vt 0.20833333333333334 0.625
vt 0.16666666666666666 0.5
vt 0.16666666666666666 1
vt 0 1
vt 0 0.5
vt 0.16666666666666666 0.5
vt 0.16666666666666666 1
vt 0 1
vt 0 0.5
vt 0.16666666666666666 1
vt 0 1
vt 0 0.5
vt 0.16666666666666666 0.5
vt 0.20833333333333334 0.375
vt 0.25 0.375
vt 0.25 0
vt 0.20833333333333334 0
vt 0.16666666666666666 0.5
vt 0.16666666666666666 1
vt 0 1
vt 0 0.5
vt 0.25 0.625
vt 0.25 0.75
vt 0.20833333333333334 0.75
vt 0.20833333333333334 0.625
vt 0.16666666666666666 0.5
vt 0.16666666666666666 1
vt 0 1
vt 0 0.5
vt 0.25 0
vt 0.25 0.375
vt 0.20833333333333334 0.375
vt 0.20833333333333334 0
vt 0.16666666666666666 1
vt 0 1
vt 0 0.5
vt 0.16666666666666666 0.5
vt 0.20833333333333334 0.375
vt 0.125 0.375
vt 0.125 0
vt 0.20833333333333334 0
vt 0.20833333333333334 0.375
vt 0.20833333333333334 0.75
vt 0.125 0.75
vt 0.125 0.375
vt 0.20833333333333334 0.625
vt 0.20833333333333334 0.75
vt 0.125 0.75
vt 0.125 0.625
vt 0.16666666666666666 0.5
vt 0.16666666666666666 1
vt 0 1
vt 0 0.5
vt 0.16666666666666666 0.5
vt 0.16666666666666666 1
vt 0 1
vt 0 0.5
vt 0.16666666666666666 1
vt 0 1
vt 0 0.5
vt 0.16666666666666666 0.5
vt 0.25 0.375
vt 0.20833333333333334 0.375
vt 0.20833333333333334 0
vt 0.25 0
vt 0.16666666666666666 0.5
vt 0.16666666666666666 1
vt 0 1
vt 0 0.5
vt 0.125 0.625
vt 0.125 0.75
vt 0.08333333333333333 0.75
vt 0.08333333333333333 0.625
vt 0.16666666666666666 0.5
vt 0.16666666666666666 1
vt 0 1
vt 0 0.5
vt 0.16666666666666666 0.5
vt 0.16666666666666666 1
vt 0 1
vt 0 0.5
vt 0.20833333333333334 0.375
vt 0.25 0.375
vt 0.25 0
vt 0.20833333333333334 0
vt 0.20833333333333334 0.625
vt 0.125 0.625
vt 0.125 0.375
vt 0.20833333333333334 0.375
vn 1 0 0
vn -1 0 0
vn 0 1 0
vn 0 -1 0
vn 0 0 1
vn 0 0 -1
vn 0 0 -1
vn 0 0 1
vn 0 1 0
vn 0 -1 0
vn 1 0 0
vn -1 0 0
vn 0 0 -1
vn 0 0 1
vn 0 1 0
vn 0 -1 0
vn 1 0 0
vn -1 0 0
vn 0 0 -1
vn 0 0 1
vn 0 1 0
vn 0 -1 0
vn 1 0 0
vn -1 0 0
vn 1 0 0
vn -1 0 0
vn 0 1 0
vn 0 -1 0
vn 0 0 1
vn 0 0 -1
vn 0 0 -1
vn 0 0 1
vn 0 1 0
vn 0 -1 0
vn 1 0 0
vn -1 0 0
vn 0 0 -1
vn 0 0 1
vn 0 1 0
vn 0 -1 0
vn 1 0 0
vn -1 0 0
vn 0 0 -1
vn 0 0 1
vn 0 1 0
vn 0 -1 0
vn 1 0 0
vn -1 0 0
vn 0 1 0
usemtl m_3059e342-dafc-733e-821e-d1c82d1ab309
f 72/145/37 71/146/37 73/147/37 74/148/37
f 77/149/38 75/150/38 76/151/38 78/152/38
f 75/153/39 71/154/39 72/155/39 76/156/39
f 74/157/40 73/158/40 77/159/40 78/160/40
f 73/161/41 71/162/41 75/163/41 77/164/41
f 76/165/42 72/166/42 74/167/42 78/168/42
f 80/169/43 79/170/43 81/171/43 82/172/43
f 85/173/44 83/174/44 84/175/44 86/176/44
f 83/177/45 79/178/45 80/179/45 84/180/45
f 82/181/46 81/182/46 85/183/46 86/184/46
f 81/185/47 79/186/47 83/187/47 85/188/47
f 84/189/48 80/190/48 82/191/48 86/192/48
f 88/193/49 87/194/49 89/195/49 90/196/49
f 93/197/50 91/198/50 92/199/50 94/200/50
f 91/201/51 87/202/51 88/203/51 92/204/51
f 90/205/52 89/206/52 93/207/52 94/208/52
f 89/209/53 87/210/53 91/211/53 93/212/53
f 92/213/54 88/214/54 90/215/54 94/216/54
f 96/217/55 95/218/55 97/219/55 98/220/55
f 101/221/56 99/222/56 100/223/56 102/224/56
f 99/225/57 95/226/57 96/227/57 100/228/57
f 98/229/58 97/230/58 101/231/58 102/232/58
f 97/233/59 95/234/59 99/235/59 101/236/59
f 100/237/60 96/238/60 98/239/60 102/240/60
f 104/241/61 103/242/61 105/243/61 106/244/61
f 109/245/62 107/246/62 108/247/62 110/248/62
f 107/249/63 103/250/63 104/251/63 108/252/63
f 106/253/64 105/254/64 109/255/64 110/256/64
f 105/257/65 103/258/65 107/259/65 109/260/65
f 108/261/66 104/262/66 106/263/66 110/264/66
f 112/265/67 111/266/67 113/267/67 114/268/67
f 117/269/68 115/270/68 116/271/68 118/272/68
f 115/273/69 111/274/69 112/275/69 116/276/69
f 114/277/70 113/278/70 117/279/70 118/280/70
f 113/281/71 111/282/71 115/283/71 117/284/71
f 116/285/72 112/286/72 114/287/72 118/288/72
f 120/289/73 119/290/73 121/291/73 122/292/73
f 125/293/74 123/294/74 124/295/74 126/296/74
f 123/297/75 119/298/75 120/299/75 124/300/75
f 122/301/76 121/302/76 125/303/76 126/304/76
f 121/305/77 119/306/77 123/307/77 125/308/77
f 124/309/78 120/310/78 122/311/78 126/312/78
f 128/313/79 127/314/79 129/315/79 130/316/79
f 133/317/80 131/318/80 132/319/80 134/320/80
f 131/321/81 127/322/81 128/323/81 132/324/81
f 130/325/82 129/326/82 133/327/82 134/328/82
f 129/329/83 127/330/83 131/331/83 133/332/83
f 132/333/84 128/334/84 130/335/84 134/336/84
f 110/337/85 74/338/85 73/339/85 109/340/85
o side1
v 0.375 0.625 0.125
v 0.375 0.625 -0.125
v 0.375 0.375 0.125
v 0.375 0.375 -0.125
v 0.5 1 0.5
v 0.5 1 -0.5
v 0.5 0 -0.125
v 0.5 0 -0.5
v 0.5 0 0.5
v 0.5 0 0.125
v 0.5 0.625 -0.5
v 0.5 0.375 -0.125
v 0.5 0.375 -0.5
v 0.5 0.625 0.5
v 0.5 0.375 0.5
v 0.5 0.375 0.125
v 0.5 1 0.125
v 0.5 1 0.375
v 0.5 0.625 0.375
v 0.5 0.625 0.125
v 0.5 1 -0.375
v 0.5 1 -0.125
v 0.5 0.625 -0.125
v 0.5 0.625 -0.375
vt 0.5416666666666666 0.625
vt 0.4583333333333333 0.625
vt 0.4583333333333333 0.375
vt 0.5416666666666666 0.375
vt 0.375 1
vt 0.3333333333333333 1
vt 0.3333333333333333 0.625
vt 0.375 0.625
vt 0.6666666666666666 1
vt 0.625 1
vt 0.625 0.625
vt 0.6666666666666666 0.625
vt 0.5416666666666666 0.375
vt 0.4583333333333333 0.375
vt 0.4583333333333333 0
vt 0.5416666666666666 0
vt 0.6666666666666666 0.375
vt 0.5416666666666666 0.375
vt 0.5416666666666666 0
vt 0.6666666666666666 0
vt 0.4583333333333333 0.375
vt 0.3333333333333333 0.375
vt 0.3333333333333333 0
vt 0.4583333333333333 0
vt 0.6666666666666666 0.625
vt 0.5416666666666666 0.625
vt 0.5416666666666666 0.375
vt 0.6666666666666666 0.375
vt 0.4583333333333333 0.625
vt 0.3333333333333333 0.625
vt 0.3333333333333333 0.375
vt 0.4583333333333333 0.375
vt 0.5416666666666666 1
vt 0.4583333333333333 1
vt 0.4583333333333333 0.625
vt 0.5416666666666666 0.625
vt 0.4583333333333333 1
vt 0.375 1
vt 0.375 0.625
vt 0.4583333333333333 0.625
vt 0.625 1
vt 0.5416666666666666 1
vt 0.5416666666666666 0.625
vt 0.625 0.625
vt 0.5104166666666666 0.625
vt 0.46875 0.625
vt 0.46875 0.375
vt 0.5104166666666666 0.375
vt 0.46875 0.375
vt 0.5104166666666666 0.375
vt 0.5104166666666666 0.625
vt 0.46875 0.625
vt 0.5104166666666666 0.625
vt 0.46875 0.625
vt 0.46875 0.375
vt 0.5104166666666666 0.375
vt 0.5104166666666666 0.625
vt 0.46875 0.625
vt 0.46875 0.375
vt 0.5104166666666666 0.375
vn 1 0 0
vn 1 0 0
vn 1 0 0
vn 1 0 0
vn 1 0 0
vn 1 0 0
vn 1 0 0
vn 1 0 0
vn 1 0 0
vn 1 0 0
vn 1 0 0
vn 0 -1 0
vn 0 0 -1
vn 0 1 0
vn 0 0 1
usemtl m_3059e342-dafc-733e-821e-d1c82d1ab309
f 136/341/86 135/342/86 137/343/86 138/344/86
f 152/345/87 139/346/87 148/347/87 153/348/87
f 140/349/88 155/350/88 158/351/88 145/352/88
f 146/353/89 150/354/89 144/355/89 141/356/89
f 147/357/90 146/358/90 141/359/90 142/360/90
f 150/361/91 149/362/91 143/363/91 144/364/91
f 145/365/92 157/366/92 146/367/92 147/368/92
f 154/369/93 148/370/93 149/371/93 150/372/93
f 156/373/94 151/374/94 154/375/94 157/376/94
f 151/377/95 152/378/95 153/379/95 154/380/95
f 155/381/96 156/382/96 157/383/96 158/384/96
f 154/385/97 135/386/97 136/387/97 157/388/97
f 150/389/98 137/390/98 135/391/98 154/392/98
f 146/393/99 138/394/99 137/395/99 150/396/99
f 157/397/100 136/398/100 138/399/100 146/400/100
o side2
v -0.125 0.625 0.375
v 0.125 0.625 0.375
v -0.125 0.375 0.375
v 0.125 0.375 0.375
v -0.5 1 0.5
v 0.5 1 0.5
v 0.125 0 0.5
v 0.5 0 0.5
v -0.5 0 0.5
v -0.125 0 0.5
v 0.5 0.625 0.5
v 0.125 0.375 0.5
v 0.5 0.375 0.5
v -0.5 0.625 0.5
v -0.5 0.375 0.5
v -0.125 0.375 0.5
v -0.125 1 0.5
v -0.375 1 0.5
v -0.375 0.625 0.5
v -0.125 0.625 0.5
v 0.375 1 0.5
v 0.125 1 0.5
v 0.125 0.625 0.5
v 0.375 0.625 0.5
vt 0.5416666666666666 0.625
vt 0.4583333333333333 0.625
vt 0.4583333333333333 0.375
vt 0.5416666666666666 0.375
vt 0.375 1
vt 0.3333333333333333 1
vt 0.3333333333333333 0.625
vt 0.375 0.625
vt 0.6666666666666666 1
vt 0.625 1
vt 0.625 0.625
vt 0.6666666666666666 0.625
vt 0.5416666666666666 0.375
vt 0.4583333333333333 0.375
vt 0.4583333333333333 0
vt 0.5416666666666666 0
vt 0.6666666666666666 0.375
vt 0.5416666666666666 0.375
vt 0.5416666666666666 0
vt 0.6666666666666666 0
vt 0.4583333333333333 0.375
vt 0.3333333333333333 0.375
vt 0.3333333333333333 0
vt 0.4583333333333333 0
vt 0.6666666666666666 0.625
vt 0.5416666666666666 0.625
vt 0.5416666666666666 0.375
vt 0.6666666666666666 0.375
vt 0.4583333333333333 0.625
vt 0.3333333333333333 0.625
vt 0.3333333333333333 0.375
vt 0.4583333333333333 0.375
vt 0.5416666666666666 1
vt 0.4583333333333333 1
vt 0.4583333333333333 0.625
vt 0.5416666666666666 0.625
vt 0.4583333333333333 1
vt 0.375 1
vt 0.375 0.625
vt 0.4583333333333333 0.625
vt 0.625 1
vt 0.5416666666666666 1
vt 0.5416666666666666 0.625
vt 0.625 0.625
vt 0.5104166666666666 0.625
vt 0.46875 0.625
vt 0.46875 0.375
vt 0.5104166666666666 0.375
vt 0.46875 0.375
vt 0.5104166666666666 0.375
vt 0.5104166666666666 0.625
vt 0.46875 0.625
vt 0.5104166666666666 0.625
vt 0.46875 0.625
vt 0.46875 0.375
vt 0.5104166666666666 0.375
vt 0.5104166666666666 0.625
vt 0.46875 0.625
vt 0.46875 0.375
vt 0.5104166666666666 0.375
vn 0 0 1
vn 0 0 1
vn 0 0 1
vn 0 0 1
vn 0 0 1
vn 0 0 1
vn 0 0 1
vn 0 0 1
vn 0 0 1
vn 0 0 1
vn 0 0 1
vn 0 -1 0
vn 1 0 0
vn 0 1 0
vn -1 0 0
usemtl m_3059e342-dafc-733e-821e-d1c82d1ab309
f 160/401/101 159/402/101 161/403/101 162/404/101
f 176/405/102 163/406/102 172/407/102 177/408/102
f 164/409/103 179/410/103 182/411/103 169/412/103
f 170/413/104 174/414/104 168/415/104 165/416/104
f 171/417/105 170/418/105 165/419/105 166/420/105
f 174/421/106 173/422/106 167/423/106 168/424/106
f 169/425/107 181/426/107 170/427/107 171/428/107
f 178/429/108 172/430/108 173/431/108 174/432/108
f 180/433/109 175/434/109 178/435/109 181/436/109
f 175/437/110 176/438/110 177/439/110 178/440/110
f 179/441/111 180/442/111 181/443/111 182/444/111
f 178/445/112 159/446/112 160/447/112 181/448/112
f 174/449/113 161/450/113 159/451/113 178/452/113
f 170/453/114 162/454/114 161/455/114 174/456/114
f 181/457/115 160/458/115 162/459/115 170/460/115
o side3
v -0.375 0.625 -0.125
v -0.375 0.625 0.125
v -0.375 0.375 -0.125
v -0.375 0.375 0.125
v -0.5 1 -0.5
v -0.5 1 0.5
v -0.5 0 0.125
v -0.5 0 0.5
v -0.5 0 -0.5
v -0.5 0 -0.125
v -0.5 0.625 0.5
v -0.5 0.375 0.125
v -0.5 0.375 0.5
v -0.5 0.625 -0.5
v -0.5 0.375 -0.5
v -0.5 0.375 -0.125
v -0.5 1 -0.125
v -0.5 1 -0.375
v -0.5 0.625 -0.375
v -0.5 0.625 -0.125
v -0.5 1 0.375
v -0.5 1 0.125
v -0.5 0.625 0.125
v -0.5 0.625 0.375
vt 0.5416666666666666 0.625
vt 0.4583333333333333 0.625
vt 0.4583333333333333 0.375
vt 0.5416666666666666 0.375
vt 0.375 1
vt 0.3333333333333333 1
vt 0.3333333333333333 0.625
vt 0.375 0.625
vt 0.6666666666666666 1
vt 0.625 1
vt 0.625 0.625
vt 0.6666666666666666 0.625
vt 0.5416666666666666 0.375
vt 0.4583333333333333 0.375
vt 0.4583333333333333 0
vt 0.5416666666666666 0
vt 0.6666666666666666 0.375
vt 0.5416666666666666 0.375
vt 0.5416666666666666 0
vt 0.6666666666666666 0
vt 0.4583333333333333 0.375
vt 0.3333333333333333 0.375
vt 0.3333333333333333 0
vt 0.4583333333333333 0
vt 0.6666666666666666 0.625
vt 0.5416666666666666 0.625
vt 0.5416666666666666 0.375
vt 0.6666666666666666 0.375
vt 0.4583333333333333 0.625
vt 0.3333333333333333 0.625
vt 0.3333333333333333 0.375
vt 0.4583333333333333 0.375
vt 0.5416666666666666 1
vt 0.4583333333333333 1
vt 0.4583333333333333 0.625
vt 0.5416666666666666 0.625
vt 0.4583333333333333 1
vt 0.375 1
vt 0.375 0.625
vt 0.4583333333333333 0.625
vt 0.625 1
vt 0.5416666666666666 1
vt 0.5416666666666666 0.625
vt 0.625 0.625
vt 0.5104166666666666 0.625
vt 0.46875 0.625
vt 0.46875 0.375
vt 0.5104166666666666 0.375
vt 0.46875 0.375
vt 0.5104166666666666 0.375
vt 0.5104166666666666 0.625
vt 0.46875 0.625
vt 0.5104166666666666 0.625
vt 0.46875 0.625
vt 0.46875 0.375
vt 0.5104166666666666 0.375
vt 0.5104166666666666 0.625
vt 0.46875 0.625
vt 0.46875 0.375
vt 0.5104166666666666 0.375
vn -1 0 0
vn -1 0 0
vn -1 0 0
vn -1 0 0
vn -1 0 0
vn -1 0 0
vn -1 0 0
vn -1 0 0
vn -1 0 0
vn -1 0 0
vn -1 0 0
vn 0 -1 0
vn 0 0 1
vn 0 1 0
vn 0 0 -1
usemtl m_3059e342-dafc-733e-821e-d1c82d1ab309
f 184/461/116 183/462/116 185/463/116 186/464/116
f 200/465/117 187/466/117 196/467/117 201/468/117
f 188/469/118 203/470/118 206/471/118 193/472/118
f 194/473/119 198/474/119 192/475/119 189/476/119
f 195/477/120 194/478/120 189/479/120 190/480/120
f 198/481/121 197/482/121 191/483/121 192/484/121
f 193/485/122 205/486/122 194/487/122 195/488/122
f 202/489/123 196/490/123 197/491/123 198/492/123
f 204/493/124 199/494/124 202/495/124 205/496/124
f 199/497/125 200/498/125 201/499/125 202/500/125
f 203/501/126 204/502/126 205/503/126 206/504/126
f 202/505/127 183/506/127 184/507/127 205/508/127
f 198/509/128 185/510/128 183/511/128 202/512/128
f 194/513/129 186/514/129 185/515/129 198/516/129
f 205/517/130 184/518/130 186/519/130 194/520/130
o side4
v 0.125 0.625 -0.375
v -0.125 0.625 -0.375
v 0.125 0.375 -0.375
v -0.125 0.375 -0.375
v 0.5 1 -0.5
v -0.5 1 -0.5
v -0.125 0 -0.5
v -0.5 0 -0.5
v 0.5 0 -0.5
v 0.125 0 -0.5
v -0.5 0.625 -0.5
v -0.125 0.375 -0.5
v -0.5 0.375 -0.5
v 0.5 0.625 -0.5
v 0.5 0.375 -0.5
v 0.125 0.375 -0.5
v 0.125 1 -0.5
v 0.375 1 -0.5
v 0.375 0.625 -0.5
v 0.125 0.625 -0.5
v -0.375 1 -0.5
v -0.125 1 -0.5
v -0.125 0.625 -0.5
v -0.375 0.625 -0.5
vt 0.5416666666666666 0.625
vt 0.4583333333333333 0.625
vt 0.4583333333333333 0.375
vt 0.5416666666666666 0.375
vt 0.375 1
vt 0.3333333333333333 1
vt 0.3333333333333333 0.625
vt 0.375 0.625
vt 0.6666666666666666 1
vt 0.625 1
vt 0.625 0.625
vt 0.6666666666666666 0.625
vt 0.5416666666666666 0.375
vt 0.4583333333333333 0.375
vt 0.4583333333333333 0
vt 0.5416666666666666 0
vt 0.6666666666666666 0.375
vt 0.5416666666666666 0.375
vt 0.5416666666666666 0
vt 0.6666666666666666 0
vt 0.4583333333333333 0.375
vt 0.3333333333333333 0.375
vt 0.3333333333333333 0
vt 0.4583333333333333 0
vt 0.6666666666666666 0.625
vt 0.5416666666666666 0.625
vt 0.5416666666666666 0.375
vt 0.6666666666666666 0.375
vt 0.4583333333333333 0.625
vt 0.3333333333333333 0.625
vt 0.3333333333333333 0.375
vt 0.4583333333333333 0.375
vt 0.5416666666666666 1
vt 0.4583333333333333 1
vt 0.4583333333333333 0.625
vt 0.5416666666666666 0.625
vt 0.4583333333333333 1
vt 0.375 1
vt 0.375 0.625
vt 0.4583333333333333 0.625
vt 0.625 1
vt 0.5416666666666666 1
vt 0.5416666666666666 0.625
vt 0.625 0.625
vt 0.5104166666666666 0.625
vt 0.46875 0.625
vt 0.46875 0.375
vt 0.5104166666666666 0.375
vt 0.46875 0.375
vt 0.5104166666666666 0.375
vt 0.5104166666666666 0.625
vt 0.46875 0.625
vt 0.5104166666666666 0.625
vt 0.46875 0.625
vt 0.46875 0.375
vt 0.5104166666666666 0.375
vt 0.5104166666666666 0.625
vt 0.46875 0.625
vt 0.46875 0.375
vt 0.5104166666666666 0.375
vn 0 0 -1
vn 0 0 -1
vn 0 0 -1
vn 0 0 -1
vn 0 0 -1
vn 0 0 -1
vn 0 0 -1
vn 0 0 -1
vn 0 0 -1
vn 0 0 -1
vn 0 0 -1
vn 0 -1 0
vn -1 0 0
vn 0 1 0
vn 1 0 0
usemtl m_3059e342-dafc-733e-821e-d1c82d1ab309
f 208/521/131 207/522/131 209/523/131 210/524/131
f 224/525/132 211/526/132 220/527/132 225/528/132
f 212/529/133 227/530/133 230/531/133 217/532/133
f 218/533/134 222/534/134 216/535/134 213/536/134
f 219/537/135 218/538/135 213/539/135 214/540/135
f 222/541/136 221/542/136 215/543/136 216/544/136
f 217/545/137 229/546/137 218/547/137 219/548/137
f 226/549/138 220/550/138 221/551/138 222/552/138
f 228/553/139 223/554/139 226/555/139 229/556/139
f 223/557/140 224/558/140 225/559/140 226/560/140
f 227/561/141 228/562/141 229/563/141 230/564/141
f 226/565/142 207/566/142 208/567/142 229/568/142
f 222/569/143 209/570/143 207/571/143 226/572/143
f 218/573/144 210/574/144 209/575/144 222/576/144
f 229/577/145 208/578/145 210/579/145 218/580/145
o down
v 0.5 0 0.5
v 0.5 0 -0.5
v -0.5 0 0.5
v -0.5 0 -0.5
vt 1 0
vt 1 1
vt 0.6666666666666666 1
vt 0.6666666666666666 0
vn 0 -1 0
usemtl m_3059e342-dafc-733e-821e-d1c82d1ab309
f 232/581/146 231/582/146 233/583/146 234/584/146