# Made in Blockbench 5.1.6
mtllib CrystalExtractor.mtl

o up
v 0.5 1 0.5
v 0.5 1 -0.5
v -0.5 1 0.5
v -0.5 1 -0.5
vt 0.65625 0
vt 0.65625 1
vt 0.3229166666666667 1
vt 0.3229166666666667 0
vn 0 1 0
usemtl m_73e3f211-e191-2052-bcab-5e8aae80737f
f 1/1/1 2/2/1 4/3/1 3/4/1
o down
v 0.5 0 0.5
v 0.5 0 -0.5
v -0.5 0 0.5
v -0.5 0 -0.5
vt 0.3229166666666667 1
vt 0.65625 1
vt 0.65625 0
vt 0.3229166666666667 0
vn 0 -1 0
usemtl m_73e3f211-e191-2052-bcab-5e8aae80737f
f 8/5/2 6/6/2 5/7/2 7/8/2
o boltsup
v -0.28125 1.03125 0.28125
v -0.34375 1.03125 0.28125
v -0.28125 0.90625 0.28125
v -0.34375 0.90625 0.28125
v -0.28125000000000006 1.03125 0.34375
v -0.34375000000000006 1.03125 0.34375
v -0.28125000000000006 0.90625 0.34375
v -0.34375000000000006 0.90625 0.34375
v 0.34375 1.03125 0.34375
v 0.34375 1.03125 0.28125
v 0.34375 0.90625 0.34375
v 0.34375 0.90625 0.28125
v 0.28125 1.03125 0.34375
v 0.28125 1.03125 0.28125
v 0.28125 0.90625 0.34375
v 0.28125 0.90625 0.28125
v 0.34375 1.03125 -0.34375
v 0.28125 1.03125 -0.34375
v 0.34375 0.90625 -0.34375
v 0.28125 0.90625 -0.34375
v 0.3437499999999999 1.03125 -0.28124999999999994
v 0.2812499999999999 1.03125 -0.28125
v 0.3437499999999999 0.90625 -0.28124999999999994
v 0.2812499999999999 0.90625 -0.28125
v -0.28125 1.03125 -0.28125
v -0.28125 1.03125 -0.34375
v -0.28125 0.90625 -0.28125
v -0.28125 0.90625 -0.34375
v -0.34375 1.03125 -0.28125
v -0.34375 1.03125 -0.34375
v -0.34375 0.90625 -0.28125
v -0.34375 0.90625 -0.34375
vt 0.125 0.75
vt 0.10416666666666667 0.75
vt 0.10416666666666667 0.65625
vt 0.125 0.65625
vt 0.125 0.65625
vt 0.125 0.75
vt 0.10416666666666667 0.75
vt 0.10416666666666667 0.65625
vt 0.10416666666666667 0.703125
vt 0.125 0.703125
vt 0.125 0.75
vt 0.10416666666666667 0.75
vt 0.125 0.703125
vt 0.125 0.75
vt 0.10416666666666667 0.75
vt 0.10416666666666667 0.703125
vt 0.125 0.65625
vt 0.125 0.75
vt 0.10416666666666667 0.75
vt 0.10416666666666667 0.65625
vt 0.125 0.75
vt 0.10416666666666667 0.75
vt 0.10416666666666667 0.65625
vt 0.125 0.65625
vt 0.125 0.75
vt 0.10416666666666667 0.75
vt 0.10416666666666667 0.65625
vt 0.125 0.65625
vt 0.125 0.65625
vt 0.125 0.75
vt 0.10416666666666667 0.75
vt 0.10416666666666667 0.65625
vt 0.10416666666666667 0.703125
vt 0.125 0.703125
vt 0.125 0.75
vt 0.10416666666666667 0.75
vt 0.125 0.703125
vt 0.125 0.75
vt 0.10416666666666667 0.75
vt 0.10416666666666667 0.703125
vt 0.125 0.65625
vt 0.125 0.75
vt 0.10416666666666667 0.75
vt 0.10416666666666667 0.65625
vt 0.125 0.75
vt 0.10416666666666667 0.75
vt 0.10416666666666667 0.65625
vt 0.125 0.65625
vt 0.125 0.75
vt 0.10416666666666667 0.75
vt 0.10416666666666667 0.65625
vt 0.125 0.65625
vt 0.125 0.65625
vt 0.125 0.75
vt 0.10416666666666667 0.75
vt 0.10416666666666667 0.65625
vt 0.10416666666666667 0.703125
vt 0.125 0.703125
vt 0.125 0.75
vt 0.10416666666666667 0.75
vt 0.125 0.703125
vt 0.125 0.75
vt 0.10416666666666667 0.75
vt 0.10416666666666667 0.703125
vt 0.125 0.65625
vt 0.125 0.75
vt 0.10416666666666667 0.75
vt 0.10416666666666667 0.65625
vt 0.125 0.75
vt 0.10416666666666667 0.75
vt 0.10416666666666667 0.65625
vt 0.125 0.65625
vt 0.125 0.75
vt 0.10416666666666667 0.75
vt 0.10416666666666667 0.65625
vt 0.125 0.65625
vt 0.125 0.65625
vt 0.125 0.75
vt 0.10416666666666667 0.75
vt 0.10416666666666667 0.65625
vt 0.10416666666666667 0.703125
vt 0.125 0.703125
vt 0.125 0.75
vt 0.10416666666666667 0.75
vt 0.125 0.703125
vt 0.125 0.75
vt 0.10416666666666667 0.75
vt 0.10416666666666667 0.703125
vt 0.125 0.65625
vt 0.125 0.75
vt 0.10416666666666667 0.75
vt 0.10416666666666667 0.65625
vt 0.125 0.75
vt 0.10416666666666667 0.75
vt 0.10416666666666667 0.65625
vt 0.125 0.65625
vn 2.22044604925031316 0 -1
vn -2.22044604925031316 0 1
vn 0 1 0
vn 0 -1 0
vn 1 0 2.22044604925031316
vn -1 0 -2.22044604925031316
vn 1 0 2.22044604925031316
vn -1 0 -2.22044604925031316
vn 0 1 0
vn 0 -1 0
vn -2.22044604925031316 0 1
vn 2.22044604925031316 0 -1
vn 2.22044604925031316 0 -1
vn -2.22044604925031316 0 1
vn 0 1 0
vn 0 -1 0
vn 1 0 1.998401444325281815
vn -1 0 -1.998401444325281815
vn 1 0 2.22044604925031316
vn -1 0 -2.22044604925031316
vn 0 1 0
vn 0 -1 0
vn -2.22044604925031316 0 1
vn 2.22044604925031316 0 -1
usemtl m_73e3f211-e191-2052-bcab-5e8aae80737f
f 10/9/3 9/10/3 11/11/3 12/12/3
f 15/13/4 13/14/4 14/15/4 16/16/4
f 13/17/5 9/18/5 10/19/5 14/20/5
f 12/21/6 11/22/6 15/23/6 16/24/6
f 11/25/7 9/26/7 13/27/7 15/28/7
f 14/29/8 10/30/8 12/31/8 16/32/8
f 18/33/9 17/34/9 19/35/9 20/36/9
f 23/37/10 21/38/10 22/39/10 24/40/10
f 21/41/11 17/42/11 18/43/11 22/44/11
f 20/45/12 19/46/12 23/47/12 24/48/12
f 19/49/13 17/50/13 21/51/13 23/52/13
f 22/53/14 18/54/14 20/55/14 24/56/14
f 26/57/15 25/58/15 27/59/15 28/60/15
f 31/61/16 29/62/16 30/63/16 32/64/16
f 29/65/17 25/66/17 26/67/17 30/68/17
f 28/69/18 27/70/18 31/71/18 32/72/18
f 27/73/19 25/74/19 29/75/19 31/76/19
f 30/77/20 26/78/20 28/79/20 32/80/20
f 34/81/21 33/82/21 35/83/21 36/84/21
f 39/85/22 37/86/22 38/87/22 40/88/22
f 37/89/23 33/90/23 34/91/23 38/92/23
f 36/93/24 35/94/24 39/95/24 40/96/24
f 35/97/25 33/98/25 37/99/25 39/100/25
f 38/101/26 34/102/26 36/103/26 40/104/26
o rods
v 0.5 1 -0.375
v 0.5 1 -0.5
v 0.5 0 -0.375
v 0.5 0 -0.5
v 0.375 1 -0.375
v 0.375 1 -0.5
v 0.375 0 -0.375
v 0.375 0 -0.5
v 0.5 1 0.5
v 0.5 1 0.375
v 0.5 0 0.5
v 0.5 0 0.375
v 0.375 1 0.5
v 0.375 1 0.375
v 0.375 0 0.5
v 0.375 0 0.375
v -0.375 1 0.5
v -0.375 1 0.375
v -0.375 0 0.5
v -0.375 0 0.375
v -0.5 1 0.5
v -0.5 1 0.375
v -0.5 0 0.5
v -0.5 0 0.375
v -0.375 1 -0.375
v -0.375 1 -0.5
v -0.375 0 -0.375
v -0.375 0 -0.5
v -0.5 1 -0.375
v -0.5 1 -0.5
v -0.5 0 -0.375
v -0.5 0 -0.5
vt 0.8854166666666666 1
vt 0.84375 1
vt 0.84375 0
vt 0.8854166666666666 0
vt 0.8854166666666666 0
vt 0.8854166666666666 1
vt 0.84375 1
vt 0.84375 0
vt 0.8854166666666666 0
vt 0.8854166666666666 1
vt 0.84375 1
vt 0.84375 0
vt 0.8854166666666666 1
vt 0.84375 1
vt 0.84375 0
vt 0.8854166666666666 0
vt 0.8854166666666666 1
vt 0.84375 1
vt 0.84375 0
vt 0.8854166666666666 0
vt 0.8854166666666666 0
vt 0.8854166666666666 1
vt 0.84375 1
vt 0.84375 0
vt 0.8854166666666666 0
vt 0.8854166666666666 1
vt 0.84375 1
vt 0.84375 0
vt 0.8854166666666666 1
vt 0.84375 1
vt 0.84375 0
vt 0.8854166666666666 0
vt 0.8854166666666666 1
vt 0.84375 1
vt 0.84375 0
vt 0.8854166666666666 0
vt 0.8854166666666666 0
vt 0.8854166666666666 1
vt 0.84375 1
vt 0.84375 0
vt 0.8854166666666666 0
vt 0.8854166666666666 1
vt 0.84375 1
vt 0.84375 0
vt 0.8854166666666666 1
vt 0.84375 1
vt 0.84375 0
vt 0.8854166666666666 0
vt 0.8854166666666666 1
vt 0.84375 1
vt 0.84375 0
vt 0.8854166666666666 0
vt 0.8854166666666666 0
vt 0.8854166666666666 1
vt 0.84375 1
vt 0.84375 0
vt 0.8854166666666666 0
vt 0.8854166666666666 1
vt 0.84375 1
vt 0.84375 0
vt 0.8854166666666666 1
vt 0.84375 1
vt 0.84375 0
vt 0.8854166666666666 0
vn 1 0 0
vn -1 0 0
vn 0 0 1
vn 0 0 -1
vn 1 0 0
vn -1 0 0
vn 0 0 1
vn 0 0 -1
vn 1 0 0
vn -1 0 0
vn 0 0 1
vn 0 0 -1
vn 1 0 0
vn -1 0 0
vn 0 0 1
vn 0 0 -1
usemtl m_73e3f211-e191-2052-bcab-5e8aae80737f
f 42/105/27 41/106/27 43/107/27 44/108/27
f 47/109/28 45/110/28 46/111/28 48/112/28
f 43/113/29 41/114/29 45/115/29 47/116/29
f 46/117/30 42/118/30 44/119/30 48/120/30
f 50/121/31 49/122/31 51/123/31 52/124/31
f 55/125/32 53/126/32 54/127/32 56/128/32
f 51/129/33 49/130/33 53/131/33 55/132/33
f 54/133/34 50/134/34 52/135/34 56/136/34
f 58/137/35 57/138/35 59/139/35 60/140/35
f 63/141/36 61/142/36 62/143/36 64/144/36
f 59/145/37 57/146/37 61/147/37 63/148/37
f 62/149/38 58/150/38 60/151/38 64/152/38
f 66/153/39 65/154/39 67/155/39 68/156/39
f 71/157/40 69/158/40 70/159/40 72/160/40
f 67/161/41 65/162/41 69/163/41 71/164/41
f 70/165/42 66/166/42 68/167/42 72/168/42
o boltsdown
v 0.34375 0.09375 -0.34375
v 0.28125 0.09375 -0.34375
v 0.34375 -0.03125 -0.34375
v 0.28125 -0.03125 -0.34375
v 0.34374999999999994 0.09375 -0.28125
v 0.28124999999999994 0.09375 -0.28125
v 0.34374999999999994 -0.03125 -0.28125
v 0.28124999999999994 -0.03125 -0.28125
v 0.34375 0.09375 0.34375
v 0.34375 0.09375 0.28125
v 0.34375 -0.03125 0.34375
v 0.34375 -0.03125 0.28125
v 0.28125 0.09375 0.34375
v 0.28125 0.09375 0.28125
v 0.28125 -0.03125 0.34375
v 0.28125 -0.03125 0.28125
v -0.2812499999999999 0.09375 0.28125
v -0.3437499999999999 0.09375 0.28125
v -0.2812499999999999 -0.03125 0.28125
v -0.3437499999999999 -0.03125 0.28125
v -0.2812500000000001 0.09375 0.34375
v -0.3437500000000001 0.09375 0.34375
v -0.2812500000000001 -0.03125 0.34375
v -0.3437500000000001 -0.03125 0.34375
v -0.28125 0.09375 -0.28125
v -0.28125 0.09375 -0.34375
v -0.28125 -0.03125 -0.28125
v -0.28125 -0.03125 -0.34375
v -0.34375 0.09375 -0.28125
v -0.34375 0.09375 -0.34375
v -0.34375 -0.03125 -0.28125
v -0.34375 -0.03125 -0.34375
vt 0.125 0.75
vt 0.10416666666666667 0.75
vt 0.10416666666666667 0.65625
vt 0.125 0.65625
vt 0.125 0.65625
vt 0.125 0.75
vt 0.10416666666666667 0.75
vt 0.10416666666666667 0.65625
vt 0.10416666666666667 0.703125
vt 0.125 0.703125
vt 0.125 0.75
vt 0.10416666666666667 0.75
vt 0.125 0.703125
vt 0.125 0.75
vt 0.10416666666666667 0.75
vt 0.10416666666666667 0.703125
vt 0.125 0.65625
vt 0.125 0.75
vt 0.10416666666666667 0.75
vt 0.10416666666666667 0.65625
vt 0.125 0.75
vt 0.10416666666666667 0.75
vt 0.10416666666666667 0.65625
vt 0.125 0.65625
vt 0.125 0.75
vt 0.10416666666666667 0.75
vt 0.10416666666666667 0.65625
vt 0.125 0.65625
vt 0.125 0.65625
vt 0.125 0.75
vt 0.10416666666666667 0.75
vt 0.10416666666666667 0.65625
vt 0.10416666666666667 0.703125
vt 0.125 0.703125
vt 0.125 0.75
vt 0.10416666666666667 0.75
vt 0.125 0.703125
vt 0.125 0.75
vt 0.10416666666666667 0.75
vt 0.10416666666666667 0.703125
vt 0.125 0.65625
vt 0.125 0.75
vt 0.10416666666666667 0.75
vt 0.10416666666666667 0.65625
vt 0.125 0.75
vt 0.10416666666666667 0.75
vt 0.10416666666666667 0.65625
vt 0.125 0.65625
vt 0.125 0.75
vt 0.10416666666666667 0.75
vt 0.10416666666666667 0.65625
vt 0.125 0.65625
vt 0.125 0.65625
vt 0.125 0.75
vt 0.10416666666666667 0.75
vt 0.10416666666666667 0.65625
vt 0.10416666666666667 0.703125
vt 0.125 0.703125
vt 0.125 0.75
vt 0.10416666666666667 0.75
vt 0.125 0.703125
vt 0.125 0.75
vt 0.10416666666666667 0.75
vt 0.10416666666666667 0.703125
vt 0.125 0.65625
vt 0.125 0.75
vt 0.10416666666666667 0.75
vt 0.10416666666666667 0.65625
vt 0.125 0.75
vt 0.10416666666666667 0.75
vt 0.10416666666666667 0.65625
vt 0.125 0.65625
vt 0.125 0.75
vt 0.10416666666666667 0.75
vt 0.10416666666666667 0.65625
vt 0.125 0.65625
vt 0.125 0.65625
vt 0.125 0.75
vt 0.10416666666666667 0.75
vt 0.10416666666666667 0.65625
vt 0.10416666666666667 0.703125
vt 0.125 0.703125
vt 0.125 0.75
vt 0.10416666666666667 0.75
vt 0.125 0.703125
vt 0.125 0.75
vt 0.10416666666666667 0.75
vt 0.10416666666666667 0.703125
vt 0.125 0.65625
vt 0.125 0.75
vt 0.10416666666666667 0.75
vt 0.10416666666666667 0.65625
vt 0.125 0.75
vt 0.10416666666666667 0.75
vt 0.10416666666666667 0.65625
vt 0.125 0.65625
vn 2.22044604925031316 0 -1
vn -2.22044604925031316 0 1
vn 0 1 0
vn 0 -1 0
vn 1 0 2.22044604925031316
vn -1 0 -2.22044604925031316
vn 1 0 2.22044604925031316
vn -1 0 -2.22044604925031316
vn 0 1 0
vn 0 -1 0
vn -2.22044604925031316 0 1
vn 2.22044604925031316 0 -1
vn 2.22044604925031316 0 -1
vn -2.22044604925031316 0 1
vn 0 1 0
vn 0 -1 0
vn 1 0 1.998401444325281815
vn -1 0 -1.998401444325281815
vn 1 0 2.22044604925031316
vn -1 0 -2.22044604925031316
vn 0 1 0
vn 0 -1 0
vn -2.22044604925031316 0 1
vn 2.22044604925031316 0 -1
usemtl m_73e3f211-e191-2052-bcab-5e8aae80737f
f 74/169/43 73/170/43 75/171/43 76/172/43
f 79/173/44 77/174/44 78/175/44 80/176/44
f 77/177/45 73/178/45 74/179/45 78/180/45
f 76/181/46 75/182/46 79/183/46 80/184/46
f 75/185/47 73/186/47 77/187/47 79/188/47
f 78/189/48 74/190/48 76/191/48 80/192/48
f 82/193/49 81/194/49 83/195/49 84/196/49
f 87/197/50 85/198/50 86/199/50 88/200/50
f 85/201/51 81/202/51 82/203/51 86/204/51
f 84/205/52 83/206/52 87/207/52 88/208/52
f 83/209/53 81/210/53 85/211/53 87/212/53
f 86/213/54 82/214/54 84/215/54 88/216/54
f 90/217/55 89/218/55 91/219/55 92/220/55
f 95/221/56 93/222/56 94/223/56 96/224/56
f 93/225/57 89/226/57 90/227/57 94/228/57
f 92/229/58 91/230/58 95/231/58 96/232/58
f 91/233/59 89/234/59 93/235/59 95/236/59
f 94/237/60 90/238/60 92/239/60 96/240/60
f 98/241/61 97/242/61 99/243/61 100/244/61
f 103/245/62 101/246/62 102/247/62 104/248/62
f 101/249/63 97/250/63 98/251/63 102/252/63
f 100/253/64 99/254/64 103/255/64 104/256/64
f 99/257/65 97/258/65 101/259/65 103/260/65
f 102/261/66 98/262/66 100/263/66 104/264/66
o side1
v 0.125 0.25 -0.5
v -0.125 0.25 -0.5
v 0.25 0.375 -0.5
v 0.125 0.375 -0.5
v -0.25 0.375 -0.5
v -0.125 0.375 -0.5
v 0.25 0.625 -0.5
v -0.25 0.625 -0.5
v 0.125 0.625 -0.5
v 0.125 0.75 -0.5
v -0.125 0.625 -0.5
v -0.125 0.75 -0.5
v 0.0925 0.4075 -0.5
v 0.06 0.25 -0.5
v -0.06 0.25 -0.5
v -0.0925 0.4075 -0.5
v 0.25 0.44 -0.5
v -0.25 0.44 -0.5
v 0.0925 0.5925 -0.5
v 0.25 0.56 -0.5
v -0.25 0.56 -0.5
v -0.0925 0.5925 -0.5
v 0.06 0.75 -0.5
v -0.06 0.75 -0.5
v 0.125 0.25 -0.375
v 0.125 0.375 -0.375
v -0.125 0.25 -0.375
v -0.125 0.375 -0.375
v 0.25 0.375 -0.375
v -0.25 0.375 -0.375
v 0.125 0.625 -0.375
v 0.25 0.625 -0.375
v -0.25 0.625 -0.375
v -0.125 0.625 -0.375
v 0.125 0.75 -0.375
v -0.125 0.75 -0.375
v 0.06 0.25 -0.375
v 0.0925 0.4075 -0.375
v -0.0925 0.4075 -0.375
v -0.06 0.25 -0.375
v 0.25 0.44 -0.375
v -0.25 0.44 -0.375
v 0.25 0.56 -0.375
v 0.0925 0.5925 -0.375
v -0.0925 0.5925 -0.375
v -0.25 0.56 -0.375
v 0.06 0.75 -0.375
v -0.06 0.75 -0.375
v 0.375 0 -0.5
v -0.375 0 -0.5
v 0.375 0.25 -0.5
v -0.375 0.25 -0.5
v 0.375 0.375 -0.5
v -0.375 0.375 -0.5
v 0.375 0.625 -0.5
v 0.375 0.75 -0.5
v -0.375 1 -0.5
v -0.375 0.625 -0.5
v -0.375 0.75 -0.5
v 0.375 1 -0.5
vt 0.11774014630017782 0.38121343750000003
vt 0.11764123987504278 0.25598125000000005
vt 0.14163670299500977 0.2561475
vt 0.12973029194582134 0.41370593749999995
vt 0.20976574177464447 0.2566190625
vt 0.2096389238173578 0.3815459375
vt 0.197691977348032 0.41389406250000005
vt 0.1858564453763408 0.25645375000000004
vt 0.11793668518010074 0.6298425000000001
vt 0.07204526207230709 0.6299775000000001
vt 0.07193593225342247 0.5654896875
vt 0.12983232538908127 0.597633125
vt 0.11803420181940245 0.7532484375
vt 0.11793668518010074 0.6298425000000001
vt 0.12983232538908127 0.597633125
vt 0.14179583347292024 0.75310125
vt 0.2549469843216325 0.629439375
vt 0.20938714095056207 0.6295734374999999
vt 0.1975485977762321 0.5974915625
vt 0.2550698645523916 0.5652625
vt 0.20938714095056207 0.6295734374999999
vt 0.20926217604105304 0.752683125
vt 0.1855852055078792 0.7528296875
vt 0.1975485977762321 0.5974915625
vt 0.12933258156653127 0.3282771875
vt 0.21802616550571127 0.32886843750000005
vt 0.21791185562092405 0.4491309375
vt 0.1294276660806248 0.4488225
vt 0.11803478089683302 0.5944625
vt 0.2061034244729818 0.594213125
vt 0.20599073600500004 0.712790625
vt 0.11812847562509325 0.7133149999999999
vt 0.1282793555358779 0.6220828125
vt 0.1282793555358779 0.4537578125
vt 0.1746055499785157 0.4537578125
vt 0.1746055499785157 0.6220828125
vt 0.20833333333333334 0.5625
vt 0.125 0.5625
vt 0.125 0.4375
vt 0.20833333333333334 0.4375
vt 0.19776864719983459 0.4537578125
vt 0.19776864719983459 0.6220828125
vt 0.1514424527571968 0.6220828125
vt 0.1514424527571968 0.4537578125
vt 0.1282793555358779 0.5566656249999999
vt 0.1282793555358779 0.388340625
vt 0.1746055499785157 0.388340625
vt 0.1746055499785157 0.5566656249999999
vt 0.1282793555358779 0.6220828125
vt 0.1282793555358779 0.4537578125
vt 0.1746055499785157 0.4537578125
vt 0.1746055499785157 0.6220828125
vt 0.16666666666666666 0.6875
vt 0.125 0.6875
vt 0.125 0.4375
vt 0.16666666666666666 0.4375
vt 0.1875 0.375
vt 0.1875 0.625
vt 0.14583333333333334 0.625
vt 0.14583333333333334 0.375
vt 0.2209317444211535 0.4537578125
vt 0.2209317444211535 0.6220828125
vt 0.1746055499785157 0.6220828125
vt 0.1746055499785157 0.4537578125
vt 0.1282793555358779 0.6875
vt 0.1282793555358779 0.5191749999999999
vt 0.1746055499785157 0.5191749999999999
vt 0.1746055499785157 0.6875
vt 0.19776864719983459 0.5191749999999999
vt 0.19776864719983459 0.6875
vt 0.1514424527571968 0.6875
vt 0.1514424527571968 0.5191749999999999
vt 0.125 0.5
vt 0.125 0.375
vt 0.20833333333333334 0.375
vt 0.20833333333333334 0.5
vt 0.24998429074196493 0.62533875
vt 0.2061034244729818 0.625463125
vt 0.20633030701026459 0.3866309375
vt 0.25041767229097583 0.38678468749999995
vt 0.2209317444211535 0.388340625
vt 0.2209317444211535 0.5566656249999999
vt 0.1746055499785157 0.5566656249999999
vt 0.1746055499785157 0.388340625
vt 0.3021493229166667 0.006168437499999957
vt 0.30144331171336086 0.25725406250000005
vt 0.025066563180944735 0.25534
vt 0.024407804695970436 0.002395312500000024
vt 0.025066563180944735 0.25534
vt 0.11764123987504278 0.25598125000000005
vt 0.11774014630017782 0.38121343750000003
vt 0.02539351029822365 0.38087906250000003
vt 0.20976574177464447 0.2566190625
vt 0.30144331171336086 0.25725406250000005
vt 0.3010929698678884 0.3818771875
vt 0.2096389238173578 0.3815459375
vt 0.07204526207230709 0.6299775000000001
vt 0.026042656097851124 0.6301125000000001
vt 0.02539351029822365 0.38087906250000003
vt 0.07162299880996244 0.38104625000000003
vt 0.026042656097851124 0.6301125000000001
vt 0.11793668518010074 0.6298425000000001
vt 0.11803420181940245 0.7532484375
vt 0.026364854780199662 0.7538165625
vt 0.30039726624284613 0.6293059375000001
vt 0.2549469843216325 0.629439375
vt 0.255421248737239 0.38171187500000003
vt 0.3010929698678884 0.3818771875
vt 0.20938714095056207 0.6295734374999999
vt 0.30039726624284613 0.6293059375000001
vt 0.30005190446327623 0.7521203125
vt 0.20926217604105304 0.752683125
vt 0.2993661609700391 0.99597125
vt 0.027004503709966387 0.9994203125
vt 0.026364854780199662 0.7538165625
vt 0.30005190446327623 0.7521203125
vt 0.14119787811815188 0.6257125
vt 0.09700952173355572 0.6258375
vt 0.09661157972329347 0.3861678125
vt 0.14100921469128425 0.3863225
vt 0.07162299880996244 0.38104625000000003
vt 0.11774014630017782 0.38121343750000003
vt 0.12973029194582134 0.41370593749999995
vt 0.07173325515273592 0.44600343750000004
vt 0.2096389238173578 0.3815459375
vt 0.255421248737239 0.38171187500000003
vt 0.2552975577980771 0.44635375
vt 0.197691977348032 0.41389406250000005
vt 0.20935019581049405 0.375
vt 0.20935019581049405 0.625
vt 0.11669780692521847 0.625
vt 0.11669780692521847 0.375
vn 0 0 -1
vn 0 0 -1
vn 0 0 -1
vn 0 0 -1
vn 0 0 -1
vn 0 0 -1
vn 0 0 -1
vn 0 0 -1
vn -0.979366639219671 0.20209152872786867 0
vn 0 1 0
vn 0.979366639219671 0.20209152872786867 0
vn -0.2020915287278688 0.979366639219671 0
vn -0.20209152872786848 -0.979366639219671 0
vn -1 0 0
vn 1 0 0
vn 0.20209152872786848 -0.979366639219671 0
vn -0.979366639219671 -0.20209152872786867 0
vn 0.979366639219671 -0.20209152872786867 0
vn 0 -1 0
vn 0 0 -1
vn 0.2020915287278688 0.979366639219671 0
vn 0 0 -1
vn 0 0 -1
vn 0 0 -1
vn 0 0 -1
vn 0 0 -1
vn 0 0 -1
vn 0 0 -1
vn 0 0 -1
vn 0 0 -1
vn 0 0 -1
vn 0 0 -1
vn 0 0 -1
usemtl m_73e3f211-e191-2052-bcab-5e8aae80737f
f 108/265/67 105/266/67 118/267/67 117/268/67
f 106/269/68 110/270/68 120/271/68 119/272/68
f 113/273/69 111/274/69 124/275/69 123/276/69
f 114/277/70 113/278/70 123/279/70 127/280/70
f 112/281/71 115/282/71 126/283/71 125/284/71
f 115/285/72 116/286/72 128/287/72 126/288/72
f 129/289/73 131/290/73 132/291/73 130/292/73
f 135/293/74 138/294/74 140/295/74 139/296/74
f 117/297/75 118/298/75 141/299/75 142/300/75
f 105/301/76 106/302/76 131/303/76 129/304/76
f 119/305/77 120/306/77 143/307/77 144/308/77
f 121/309/78 117/310/78 142/311/78 145/312/78
f 123/313/79 124/314/79 147/315/79 148/316/79
f 136/317/80 111/318/80 107/319/80 133/320/80
f 109/321/81 112/322/81 137/323/81 134/324/81
f 125/325/82 126/326/82 149/327/82 150/328/82
f 127/329/83 123/330/83 148/331/83 151/332/83
f 126/333/84 128/334/84 152/335/84 149/336/84
f 140/337/85 116/338/85 114/339/85 139/340/85
f 137/341/86 138/342/86 132/343/86 134/344/86
f 120/345/87 122/346/87 146/347/87 143/348/87
f 154/349/88 156/350/88 155/351/88 153/352/88
f 155/353/89 105/354/89 108/355/89 157/356/89
f 106/357/90 156/358/90 158/359/90 110/360/90
f 111/361/91 159/362/91 157/363/91 107/364/91
f 159/365/92 113/366/92 114/367/92 160/368/92
f 162/369/93 112/370/93 109/371/93 158/372/93
f 115/373/94 162/374/94 163/375/94 116/376/94
f 161/377/95 164/378/95 160/379/95 163/380/95
f 135/381/96 136/382/96 133/383/96 130/384/96
f 107/385/97 108/386/97 117/387/97 121/388/97
f 110/389/98 109/390/98 122/391/98 120/392/98
f 132/393/99 138/394/99 135/395/99 130/396/99
o side2
v 0.5 0.25 0.125
v 0.5 0.25 -0.125
v 0.5 0.375 0.25
v 0.5 0.375 0.125
v 0.5 0.375 -0.25
v 0.5 0.375 -0.125
v 0.5 0.625 0.25
v 0.5 0.625 -0.25
v 0.5 0.625 0.125
v 0.5 0.75 0.125
v 0.5 0.625 -0.125
v 0.5 0.75 -0.125
v 0.5 0.4075 0.0925
v 0.5 0.25 0.06
v 0.5 0.25 -0.06
v 0.5 0.4075 -0.0925
v 0.5 0.44 0.25
v 0.5 0.44 -0.25
v 0.5 0.5925 0.0925
v 0.5 0.56 0.25
v 0.5 0.56 -0.25
v 0.5 0.5925 -0.0925
v 0.5 0.75 0.06
v 0.5 0.75 -0.06
v 0.375 0.25 0.125
v 0.375 0.375 0.125
v 0.375 0.25 -0.125
v 0.375 0.375 -0.125
v 0.375 0.375 0.25
v 0.375 0.375 -0.25
v 0.375 0.625 0.125
v 0.375 0.625 0.25
v 0.375 0.625 -0.25
v 0.375 0.625 -0.125
v 0.375 0.75 0.125
v 0.375 0.75 -0.125
v 0.375 0.25 0.06
v 0.375 0.4075 0.0925
v 0.375 0.4075 -0.0925
v 0.375 0.25 -0.06
v 0.375 0.44 0.25
v 0.375 0.44 -0.25
v 0.375 0.56 0.25
v 0.375 0.5925 0.0925
v 0.375 0.5925 -0.0925
v 0.375 0.56 -0.25
v 0.375 0.75 0.06
v 0.375 0.75 -0.06
v 0.5 0 0.375
v 0.5 0 -0.375
v 0.5 0.25 0.375
v 0.5 0.25 -0.375
v 0.5 0.375 0.375
v 0.5 0.375 -0.375
v 0.5 0.625 0.375
v 0.5 0.75 0.375
v 0.5 1 -0.375
v 0.5 0.625 -0.375
v 0.5 0.75 -0.375
v 0.5 1 0.375
vt 0.11774014630017782 0.38121343750000003
vt 0.11764123987504278 0.25598125000000005
vt 0.14163670299500977 0.2561475
vt 0.12973029194582134 0.41370593749999995
vt 0.20976574177464447 0.2566190625
vt 0.2096389238173578 0.3815459375
vt 0.197691977348032 0.41389406250000005
vt 0.1858564453763408 0.25645375000000004
vt 0.11793668518010074 0.6298425000000001
vt 0.07204526207230709 0.6299775000000001
vt 0.07193593225342247 0.5654896875
vt 0.12983232538908127 0.597633125
vt 0.11803420181940245 0.7532484375
vt 0.11793668518010074 0.6298425000000001
vt 0.12983232538908127 0.597633125
vt 0.14179583347292024 0.75310125
vt 0.2549469843216325 0.629439375
vt 0.20938714095056207 0.6295734374999999
vt 0.1975485977762321 0.5974915625
vt 0.2550698645523916 0.5652625
vt 0.20938714095056207 0.6295734374999999
vt 0.20926217604105304 0.752683125
vt 0.1855852055078792 0.7528296875
vt 0.1975485977762321 0.5974915625
vt 0.12933258156653127 0.3282771875
vt 0.21802616550571127 0.32886843750000005
vt 0.21791185562092405 0.4491309375
vt 0.1294276660806248 0.4488225
vt 0.11803478089683302 0.5944625
vt 0.2061034244729818 0.594213125
vt 0.20599073600500004 0.712790625
vt 0.11812847562509325 0.7133149999999999
vt 0.1282793555358779 0.6220828125
vt 0.1282793555358779 0.4537578125
vt 0.1746055499785157 0.4537578125
vt 0.1746055499785157 0.6220828125
vt 0.20833333333333334 0.5625
vt 0.125 0.5625
vt 0.125 0.4375
vt 0.20833333333333334 0.4375
vt 0.19776864719983459 0.4537578125
vt 0.19776864719983459 0.6220828125
vt 0.1514424527571968 0.6220828125
vt 0.1514424527571968 0.4537578125
vt 0.1282793555358779 0.5566656249999999
vt 0.1282793555358779 0.388340625
vt 0.1746055499785157 0.388340625
vt 0.1746055499785157 0.5566656249999999
vt 0.1282793555358779 0.6220828125
vt 0.1282793555358779 0.4537578125
vt 0.1746055499785157 0.4537578125
vt 0.1746055499785157 0.6220828125
vt 0.16666666666666666 0.6875
vt 0.125 0.6875
vt 0.125 0.4375
vt 0.16666666666666666 0.4375
vt 0.1875 0.375
vt 0.1875 0.625
vt 0.14583333333333334 0.625
vt 0.14583333333333334 0.375
vt 0.2209317444211535 0.4537578125
vt 0.2209317444211535 0.6220828125
vt 0.1746055499785157 0.6220828125
vt 0.1746055499785157 0.4537578125
vt 0.1282793555358779 0.6875
vt 0.1282793555358779 0.5191749999999999
vt 0.1746055499785157 0.5191749999999999
vt 0.1746055499785157 0.6875
vt 0.19776864719983459 0.5191749999999999
vt 0.19776864719983459 0.6875
vt 0.1514424527571968 0.6875
vt 0.1514424527571968 0.5191749999999999
vt 0.125 0.5
vt 0.125 0.375
vt 0.20833333333333334 0.375
vt 0.20833333333333334 0.5
vt 0.24998429074196493 0.62533875
vt 0.2061034244729818 0.625463125
vt 0.20633030701026459 0.3866309375
vt 0.25041767229097583 0.38678468749999995
vt 0.2209317444211535 0.388340625
vt 0.2209317444211535 0.5566656249999999
vt 0.1746055499785157 0.5566656249999999
vt 0.1746055499785157 0.388340625
vt 0.3021493229166667 0.006168437499999957
vt 0.30144331171336086 0.25725406250000005
vt 0.025066563180944735 0.25534
vt 0.024407804695970436 0.002395312500000024
vt 0.025066563180944735 0.25534
vt 0.11764123987504278 0.25598125000000005
vt 0.11774014630017782 0.38121343750000003
vt 0.02539351029822365 0.38087906250000003
vt 0.20976574177464447 0.2566190625
vt 0.30144331171336086 0.25725406250000005
vt 0.3010929698678884 0.3818771875
vt 0.2096389238173578 0.3815459375
vt 0.07204526207230709 0.6299775000000001
vt 0.026042656097851124 0.6301125000000001
vt 0.02539351029822365 0.38087906250000003
vt 0.07162299880996244 0.38104625000000003
vt 0.026042656097851124 0.6301125000000001
vt 0.11793668518010074 0.6298425000000001
vt 0.11803420181940245 0.7532484375
vt 0.026364854780199662 0.7538165625
vt 0.30039726624284613 0.6293059375000001
vt 0.2549469843216325 0.629439375
vt 0.255421248737239 0.38171187500000003
vt 0.3010929698678884 0.3818771875
vt 0.20938714095056207 0.6295734374999999
vt 0.30039726624284613 0.6293059375000001
vt 0.30005190446327623 0.7521203125
vt 0.20926217604105304 0.752683125
vt 0.2993661609700391 0.99597125
vt 0.027004503709966387 0.9994203125
vt 0.026364854780199662 0.7538165625
vt 0.30005190446327623 0.7521203125
vt 0.14119787811815188 0.6257125
vt 0.09700952173355572 0.6258375
vt 0.09661157972329347 0.3861678125
vt 0.14100921469128425 0.3863225
vt 0.07162299880996244 0.38104625000000003
vt 0.11774014630017782 0.38121343750000003
vt 0.12973029194582134 0.41370593749999995
vt 0.07173325515273592 0.44600343750000004
vt 0.2096389238173578 0.3815459375
vt 0.255421248737239 0.38171187500000003
vt 0.2552975577980771 0.44635375
vt 0.197691977348032 0.41389406250000005
vt 0.20935019581049405 0.375
vt 0.20935019581049405 0.625
vt 0.11669780692521847 0.625
vt 0.11669780692521847 0.375
vn 1 0 0
vn 1 0 0
vn 1 0 0
vn 1 0 0
vn 1 0 0
vn 1 0 0
vn 1 0 0
vn 1 0 0
vn 0 0.20209152872786867 -0.979366639219671
vn 0 1 0
vn 0 0.20209152872786867 0.979366639219671
vn 0 0.979366639219671 -0.2020915287278688
vn 0 -0.979366639219671 -0.20209152872786848
vn 0 0 -1
vn 0 0 1
vn 0 -0.979366639219671 0.20209152872786848
vn 0 -0.20209152872786867 -0.979366639219671
vn 0 -0.20209152872786867 0.979366639219671
vn 0 -1 0
vn 1 0 0
vn 0 0.979366639219671 0.2020915287278688
vn 1 0 0
vn 1 0 0
vn 1 0 0
vn 1 0 0
vn 1 0 0
vn 1 0 0
vn 1 0 0
vn 1 0 0
vn 1 0 0
vn 1 0 0
vn 1 0 0
vn 1 0 0
usemtl m_73e3f211-e191-2052-bcab-5e8aae80737f
f 168/397/100 165/398/100 178/399/100 177/400/100
f 166/401/101 170/402/101 180/403/101 179/404/101
f 173/405/102 171/406/102 184/407/102 183/408/102
f 174/409/103 173/410/103 183/411/103 187/412/103
f 172/413/104 175/414/104 186/415/104 185/416/104
f 175/417/105 176/418/105 188/419/105 186/420/105
f 189/421/106 191/422/106 192/423/106 190/424/106
f 195/425/107 198/426/107 200/427/107 199/428/107
f 177/429/108 178/430/108 201/431/108 202/432/108
f 165/433/109 166/434/109 191/435/109 189/436/109
f 179/437/110 180/438/110 203/439/110 204/440/110
f 181/441/111 177/442/111 202/443/111 205/444/111
f 183/445/112 184/446/112 207/447/112 208/448/112
f 196/449/113 171/450/113 167/451/113 193/452/113
f 169/453/114 172/454/114 197/455/114 194/456/114
f 185/457/115 186/458/115 209/459/115 210/460/115
f 187/461/116 183/462/116 208/463/116 211/464/116
f 186/465/117 188/466/117 212/467/117 209/468/117
f 200/469/118 176/470/118 174/471/118 199/472/118
f 197/473/119 198/474/119 192/475/119 194/476/119
f 180/477/120 182/478/120 206/479/120 203/480/120
f 214/481/121 216/482/121 215/483/121 213/484/121
f 215/485/122 165/486/122 168/487/122 217/488/122
f 166/489/123 216/490/123 218/491/123 170/492/123
f 171/493/124 219/494/124 217/495/124 167/496/124
f 219/497/125 173/498/125 174/499/125 220/500/125
f 222/501/126 172/502/126 169/503/126 218/504/126
f 175/505/127 222/506/127 223/507/127 176/508/127
f 221/509/128 224/510/128 220/511/128 223/512/128
f 195/513/129 196/514/129 193/515/129 190/516/129
f 167/517/130 168/518/130 177/519/130 181/520/130
f 170/521/131 169/522/131 182/523/131 180/524/131
f 192/525/132 198/526/132 195/527/132 190/528/132
o side3
v -0.125 0.25 0.5
v 0.125 0.25 0.5
v -0.25 0.375 0.5
v -0.125 0.375 0.5
v 0.25 0.375 0.5
v 0.125 0.375 0.5
v -0.25 0.625 0.5
v 0.25 0.625 0.5
v -0.125 0.625 0.5
v -0.125 0.75 0.5
v 0.125 0.625 0.5
v 0.125 0.75 0.5
v -0.0925 0.4075 0.5
v -0.06 0.25 0.5
v 0.06 0.25 0.5
v 0.0925 0.4075 0.5
v -0.25 0.44 0.5
v 0.25 0.44 0.5
v -0.0925 0.5925 0.5
v -0.25 0.56 0.5
v 0.25 0.56 0.5
v 0.0925 0.5925 0.5
v -0.06 0.75 0.5
v 0.06 0.75 0.5
v -0.125 0.25 0.375
v -0.125 0.375 0.375
v 0.125 0.25 0.375
v 0.125 0.375 0.375
v -0.25 0.375 0.375
v 0.25 0.375 0.375
v -0.125 0.625 0.375
v -0.25 0.625 0.375
v 0.25 0.625 0.375
v 0.125 0.625 0.375
v -0.125 0.75 0.375
v 0.125 0.75 0.375
v -0.06 0.25 0.375
v -0.0925 0.4075 0.375
v 0.0925 0.4075 0.375
v 0.06 0.25 0.375
v -0.25 0.44 0.375
v 0.25 0.44 0.375
v -0.25 0.56 0.375
v -0.0925 0.5925 0.375
v 0.0925 0.5925 0.375
v 0.25 0.56 0.375
v -0.06 0.75 0.375
v 0.06 0.75 0.375
v -0.375 0 0.5
v 0.375 0 0.5
v -0.375 0.25 0.5
v 0.375 0.25 0.5
v -0.375 0.375 0.5
v 0.375 0.375 0.5
v -0.375 0.625 0.5
v -0.375 0.75 0.5
v 0.375 1 0.5
v 0.375 0.625 0.5
v 0.375 0.75 0.5
v -0.375 1 0.5
vt 0.11774014630017782 0.38121343750000003
vt 0.11764123987504278 0.25598125000000005
vt 0.14163670299500977 0.2561475
vt 0.12973029194582134 0.41370593749999995
vt 0.20976574177464447 0.2566190625
vt 0.2096389238173578 0.3815459375
vt 0.197691977348032 0.41389406250000005
vt 0.1858564453763408 0.25645375000000004
vt 0.11793668518010074 0.6298425000000001
vt 0.07204526207230709 0.6299775000000001
vt 0.07193593225342247 0.5654896875
vt 0.12983232538908127 0.597633125
vt 0.11803420181940245 0.7532484375
vt 0.11793668518010074 0.6298425000000001
vt 0.12983232538908127 0.597633125
vt 0.14179583347292024 0.75310125
vt 0.2549469843216325 0.629439375
vt 0.20938714095056207 0.6295734374999999
vt 0.1975485977762321 0.5974915625
vt 0.2550698645523916 0.5652625
vt 0.20938714095056207 0.6295734374999999
vt 0.20926217604105304 0.752683125
vt 0.1855852055078792 0.7528296875
vt 0.1975485977762321 0.5974915625
vt 0.12933258156653127 0.3282771875
vt 0.21802616550571127 0.32886843750000005
vt 0.21791185562092405 0.4491309375
vt 0.1294276660806248 0.4488225
vt 0.11803478089683302 0.5944625
vt 0.2061034244729818 0.594213125
vt 0.20599073600500004 0.712790625
vt 0.11812847562509325 0.7133149999999999
vt 0.1282793555358779 0.6220828125
vt 0.1282793555358779 0.4537578125
vt 0.1746055499785157 0.4537578125
vt 0.1746055499785157 0.6220828125
vt 0.20833333333333334 0.5625
vt 0.125 0.5625
vt 0.125 0.4375
vt 0.20833333333333334 0.4375
vt 0.19776864719983459 0.4537578125
vt 0.19776864719983459 0.6220828125
vt 0.1514424527571968 0.6220828125
vt 0.1514424527571968 0.4537578125
vt 0.1282793555358779 0.5566656249999999
vt 0.1282793555358779 0.388340625
vt 0.1746055499785157 0.388340625
vt 0.1746055499785157 0.5566656249999999
vt 0.1282793555358779 0.6220828125
vt 0.1282793555358779 0.4537578125
vt 0.1746055499785157 0.4537578125
vt 0.1746055499785157 0.6220828125
vt 0.16666666666666666 0.6875
vt 0.125 0.6875
vt 0.125 0.4375
vt 0.16666666666666666 0.4375
vt 0.1875 0.375
vt 0.1875 0.625
vt 0.14583333333333334 0.625
vt 0.14583333333333334 0.375
vt 0.2209317444211535 0.4537578125
vt 0.2209317444211535 0.6220828125
vt 0.1746055499785157 0.6220828125
vt 0.1746055499785157 0.4537578125
vt 0.1282793555358779 0.6875
vt 0.1282793555358779 0.5191749999999999
vt 0.1746055499785157 0.5191749999999999
vt 0.1746055499785157 0.6875
vt 0.19776864719983459 0.5191749999999999
vt 0.19776864719983459 0.6875
vt 0.1514424527571968 0.6875
vt 0.1514424527571968 0.5191749999999999
vt 0.125 0.5
vt 0.125 0.375
vt 0.20833333333333334 0.375
vt 0.20833333333333334 0.5
vt 0.24998429074196493 0.62533875
vt 0.2061034244729818 0.625463125
vt 0.20633030701026459 0.3866309375
vt 0.25041767229097583 0.38678468749999995
vt 0.2209317444211535 0.388340625
vt 0.2209317444211535 0.5566656249999999
vt 0.1746055499785157 0.5566656249999999
vt 0.1746055499785157 0.388340625
vt 0.3021493229166667 0.006168437499999957
vt 0.30144331171336086 0.25725406250000005
vt 0.025066563180944735 0.25534
vt 0.024407804695970436 0.002395312500000024
vt 0.025066563180944735 0.25534
vt 0.11764123987504278 0.25598125000000005
vt 0.11774014630017782 0.38121343750000003
vt 0.02539351029822365 0.38087906250000003
vt 0.20976574177464447 0.2566190625
vt 0.30144331171336086 0.25725406250000005
vt 0.3010929698678884 0.3818771875
vt 0.2096389238173578 0.3815459375
vt 0.07204526207230709 0.6299775000000001
vt 0.026042656097851124 0.6301125000000001
vt 0.02539351029822365 0.38087906250000003
vt 0.07162299880996244 0.38104625000000003
vt 0.026042656097851124 0.6301125000000001
vt 0.11793668518010074 0.6298425000000001
vt 0.11803420181940245 0.7532484375
vt 0.026364854780199662 0.7538165625
vt 0.30039726624284613 0.6293059375000001
vt 0.2549469843216325 0.629439375
vt 0.255421248737239 0.38171187500000003
vt 0.3010929698678884 0.3818771875
vt 0.20938714095056207 0.6295734374999999
vt 0.30039726624284613 0.6293059375000001
vt 0.30005190446327623 0.7521203125
vt 0.20926217604105304 0.752683125
vt 0.2993661609700391 0.99597125
vt 0.027004503709966387 0.9994203125
vt 0.026364854780199662 0.7538165625
vt 0.30005190446327623 0.7521203125
vt 0.14119787811815188 0.6257125
vt 0.09700952173355572 0.6258375
vt 0.09661157972329347 0.3861678125
vt 0.14100921469128425 0.3863225
vt 0.07162299880996244 0.38104625000000003
vt 0.11774014630017782 0.38121343750000003
vt 0.12973029194582134 0.41370593749999995
vt 0.07173325515273592 0.44600343750000004
vt 0.2096389238173578 0.3815459375
vt 0.255421248737239 0.38171187500000003
vt 0.2552975577980771 0.44635375
vt 0.197691977348032 0.41389406250000005
vt 0.20935019581049405 0.375
vt 0.20935019581049405 0.625
vt 0.11669780692521847 0.625
vt 0.11669780692521847 0.375
vn 0 0 1
vn 0 0 1
vn 0 0 1
vn 0 0 1
vn 0 0 1
vn 0 0 1
vn 0 0 1
vn 0 0 1
vn 0.979366639219671 0.20209152872786867 0
vn 0 1 0
vn -0.979366639219671 0.20209152872786867 0
vn 0.2020915287278688 0.979366639219671 0
vn 0.20209152872786848 -0.979366639219671 0
vn 1 0 0
vn -1 0 0
vn -0.20209152872786848 -0.979366639219671 0
vn 0.979366639219671 -0.20209152872786867 0
vn -0.979366639219671 -0.20209152872786867 0
vn 0 -1 0
vn 0 0 1
vn -0.2020915287278688 0.979366639219671 0
vn 0 0 1
vn 0 0 1
vn 0 0 1
vn 0 0 1
vn 0 0 1
vn 0 0 1
vn 0 0 1
vn 0 0 1
vn 0 0 1
vn 0 0 1
vn 0 0 1
vn 0 0 1
usemtl m_73e3f211-e191-2052-bcab-5e8aae80737f
f 228/529/133 225/530/133 238/531/133 237/532/133
f 226/533/134 230/534/134 240/535/134 239/536/134
f 233/537/135 231/538/135 244/539/135 243/540/135
f 234/541/136 233/542/136 243/543/136 247/544/136
f 232/545/137 235/546/137 246/547/137 245/548/137
f 235/549/138 236/550/138 248/551/138 246/552/138
f 249/553/139 251/554/139 252/555/139 250/556/139
f 255/557/140 258/558/140 260/559/140 259/560/140
f 237/561/141 238/562/141 261/563/141 262/564/141
f 225/565/142 226/566/142 251/567/142 249/568/142
f 239/569/143 240/570/143 263/571/143 264/572/143
f 241/573/144 237/574/144 262/575/144 265/576/144
f 243/577/145 244/578/145 267/579/145 268/580/145
f 256/581/146 231/582/146 227/583/146 253/584/146
f 229/585/147 232/586/147 257/587/147 254/588/147
f 245/589/148 246/590/148 269/591/148 270/592/148
f 247/593/149 243/594/149 268/595/149 271/596/149
f 246/597/150 248/598/150 272/599/150 269/600/150
f 260/601/151 236/602/151 234/603/151 259/604/151
f 257/605/152 258/606/152 252/607/152 254/608/152
f 240/609/153 242/610/153 266/611/153 263/612/153
f 274/613/154 276/614/154 275/615/154 273/616/154
f 275/617/155 225/618/155 228/619/155 277/620/155
f 226/621/156 276/622/156 278/623/156 230/624/156
f 231/625/157 279/626/157 277/627/157 227/628/157
f 279/629/158 233/630/158 234/631/158 280/632/158
f 282/633/159 232/634/159 229/635/159 278/636/159
f 235/637/160 282/638/160 283/639/160 236/640/160
f 281/641/161 284/642/161 280/643/161 283/644/161
f 255/645/162 256/646/162 253/647/162 250/648/162
f 227/649/163 228/650/163 237/651/163 241/652/163
f 230/653/164 229/654/164 242/655/164 240/656/164
f 252/657/165 258/658/165 255/659/165 250/660/165
o side4
v -0.5 0.25 -0.125
v -0.5 0.25 0.125
v -0.5 0.375 -0.25
v -0.5 0.375 -0.125
v -0.5 0.375 0.25
v -0.5 0.375 0.125
v -0.5 0.625 -0.25
v -0.5 0.625 0.25
v -0.5 0.625 -0.125
v -0.5 0.75 -0.125
v -0.5 0.625 0.125
v -0.5 0.75 0.125
v -0.5 0.4075 -0.0925
v -0.5 0.25 -0.06
v -0.5 0.25 0.06
v -0.5 0.4075 0.0925
v -0.5 0.44 -0.25
v -0.5 0.44 0.25
v -0.5 0.5925 -0.0925
v -0.5 0.56 -0.25
v -0.5 0.56 0.25
v -0.5 0.5925 0.0925
v -0.5 0.75 -0.06
v -0.5 0.75 0.06
v -0.375 0.25 -0.125
v -0.375 0.375 -0.125
v -0.375 0.25 0.125
v -0.375 0.375 0.125
v -0.375 0.375 -0.25
v -0.375 0.375 0.25
v -0.375 0.625 -0.125
v -0.375 0.625 -0.25
v -0.375 0.625 0.25
v -0.375 0.625 0.125
v -0.375 0.75 -0.125
v -0.375 0.75 0.125
v -0.375 0.25 -0.06
v -0.375 0.4075 -0.0925
v -0.375 0.4075 0.0925
v -0.375 0.25 0.06
v -0.375 0.44 -0.25
v -0.375 0.44 0.25
v -0.375 0.56 -0.25
v -0.375 0.5925 -0.0925
v -0.375 0.5925 0.0925
v -0.375 0.56 0.25
v -0.375 0.75 -0.06
v -0.375 0.75 0.06
v -0.5 0 -0.375
v -0.5 0 0.375
v -0.5 0.25 -0.375
v -0.5 0.25 0.375
v -0.5 0.375 -0.375
v -0.5 0.375 0.375
v -0.5 0.625 -0.375
v -0.5 0.75 -0.375
v -0.5 1 0.375
v -0.5 0.625 0.375
v -0.5 0.75 0.375
v -0.5 1 -0.375
vt 0.11774014630017782 0.38121343750000003
vt 0.11764123987504278 0.25598125000000005
vt 0.14163670299500977 0.2561475
vt 0.12973029194582134 0.41370593749999995
vt 0.20976574177464447 0.2566190625
vt 0.2096389238173578 0.3815459375
vt 0.197691977348032 0.41389406250000005
vt 0.1858564453763408 0.25645375000000004
vt 0.11793668518010074 0.6298425000000001
vt 0.07204526207230709 0.6299775000000001
vt 0.07193593225342247 0.5654896875
vt 0.12983232538908127 0.597633125
vt 0.11803420181940245 0.7532484375
vt 0.11793668518010074 0.6298425000000001
vt 0.12983232538908127 0.597633125
vt 0.14179583347292024 0.75310125
vt 0.2549469843216325 0.629439375
vt 0.20938714095056207 0.6295734374999999
vt 0.1975485977762321 0.5974915625
vt 0.2550698645523916 0.5652625
vt 0.20938714095056207 0.6295734374999999
vt 0.20926217604105304 0.752683125
vt 0.1855852055078792 0.7528296875
vt 0.1975485977762321 0.5974915625
vt 0.12933258156653127 0.3282771875
vt 0.21802616550571127 0.32886843750000005
vt 0.21791185562092405 0.4491309375
vt 0.1294276660806248 0.4488225
vt 0.11803478089683302 0.5944625
vt 0.2061034244729818 0.594213125
vt 0.20599073600500004 0.712790625
vt 0.11812847562509325 0.7133149999999999
vt 0.1282793555358779 0.6220828125
vt 0.1282793555358779 0.4537578125
vt 0.1746055499785157 0.4537578125
vt 0.1746055499785157 0.6220828125
vt 0.20833333333333334 0.5625
vt 0.125 0.5625
vt 0.125 0.4375
vt 0.20833333333333334 0.4375
vt 0.19776864719983459 0.4537578125
vt 0.19776864719983459 0.6220828125
vt 0.1514424527571968 0.6220828125
vt 0.1514424527571968 0.4537578125
vt 0.1282793555358779 0.5566656249999999
vt 0.1282793555358779 0.388340625
vt 0.1746055499785157 0.388340625
vt 0.1746055499785157 0.5566656249999999
vt 0.1282793555358779 0.6220828125
vt 0.1282793555358779 0.4537578125
vt 0.1746055499785157 0.4537578125
vt 0.1746055499785157 0.6220828125
vt 0.16666666666666666 0.6875
vt 0.125 0.6875
vt 0.125 0.4375
vt 0.16666666666666666 0.4375
vt 0.1875 0.375
vt 0.1875 0.625
vt 0.14583333333333334 0.625
vt 0.14583333333333334 0.375
vt 0.2209317444211535 0.4537578125
vt 0.2209317444211535 0.6220828125
vt 0.1746055499785157 0.6220828125
vt 0.1746055499785157 0.4537578125
vt 0.1282793555358779 0.6875
vt 0.1282793555358779 0.5191749999999999
vt 0.1746055499785157 0.5191749999999999
vt 0.1746055499785157 0.6875
vt 0.19776864719983459 0.5191749999999999
vt 0.19776864719983459 0.6875
vt 0.1514424527571968 0.6875
vt 0.1514424527571968 0.5191749999999999
vt 0.125 0.5
vt 0.125 0.375
vt 0.20833333333333334 0.375
vt 0.20833333333333334 0.5
vt 0.24998429074196493 0.62533875
vt 0.2061034244729818 0.625463125
vt 0.20633030701026459 0.3866309375
vt 0.25041767229097583 0.38678468749999995
vt 0.2209317444211535 0.388340625
vt 0.2209317444211535 0.5566656249999999
vt 0.1746055499785157 0.5566656249999999
vt 0.1746055499785157 0.388340625
vt 0.3021493229166667 0.006168437499999957
vt 0.30144331171336086 0.25725406250000005
vt 0.025066563180944735 0.25534
vt 0.024407804695970436 0.002395312500000024
vt 0.025066563180944735 0.25534
vt 0.11764123987504278 0.25598125000000005
vt 0.11774014630017782 0.38121343750000003
vt 0.02539351029822365 0.38087906250000003
vt 0.20976574177464447 0.2566190625
vt 0.30144331171336086 0.25725406250000005
vt 0.3010929698678884 0.3818771875
vt 0.2096389238173578 0.3815459375
vt 0.07204526207230709 0.6299775000000001
vt 0.026042656097851124 0.6301125000000001
vt 0.02539351029822365 0.38087906250000003
vt 0.07162299880996244 0.38104625000000003
vt 0.026042656097851124 0.6301125000000001
vt 0.11793668518010074 0.6298425000000001
vt 0.11803420181940245 0.7532484375
vt 0.026364854780199662 0.7538165625
vt 0.30039726624284613 0.6293059375000001
vt 0.2549469843216325 0.629439375
vt 0.255421248737239 0.38171187500000003
vt 0.3010929698678884 0.3818771875
vt 0.20938714095056207 0.6295734374999999
vt 0.30039726624284613 0.6293059375000001
vt 0.30005190446327623 0.7521203125
vt 0.20926217604105304 0.752683125
vt 0.2993661609700391 0.99597125
vt 0.027004503709966387 0.9994203125
vt 0.026364854780199662 0.7538165625
vt 0.30005190446327623 0.7521203125
vt 0.14119787811815188 0.6257125
vt 0.09700952173355572 0.6258375
vt 0.09661157972329347 0.3861678125
vt 0.14100921469128425 0.3863225
vt 0.07162299880996244 0.38104625000000003
vt 0.11774014630017782 0.38121343750000003
vt 0.12973029194582134 0.41370593749999995
vt 0.07173325515273592 0.44600343750000004
vt 0.2096389238173578 0.3815459375
vt 0.255421248737239 0.38171187500000003
vt 0.2552975577980771 0.44635375
vt 0.197691977348032 0.41389406250000005
vt 0.20935019581049405 0.375
vt 0.20935019581049405 0.625
vt 0.11669780692521847 0.625
vt 0.11669780692521847 0.375
vn -1 0 0
vn -1 0 0
vn -1 0 0
vn -1 0 0
vn -1 0 0
vn -1 0 0
vn -1 0 0
vn -1 0 0
vn 0 0.20209152872786867 0.979366639219671
vn 0 1 0
vn 0 0.20209152872786867 -0.979366639219671
vn 0 0.979366639219671 0.2020915287278688
vn 0 -0.979366639219671 0.20209152872786848
vn 0 0 1
vn 0 0 -1
vn 0 -0.979366639219671 -0.20209152872786848
vn 0 -0.20209152872786867 0.979366639219671
vn 0 -0.20209152872786867 -0.979366639219671
vn 0 -1 0
vn -1 0 0
vn 0 0.979366639219671 -0.2020915287278688
vn -1 0 0
vn -1 0 0
vn -1 0 0
vn -1 0 0
vn -1 0 0
vn -1 0 0
vn -1 0 0
vn -1 0 0
vn -1 0 0
vn -1 0 0
vn -1 0 0
vn -1 0 0
usemtl m_73e3f211-e191-2052-bcab-5e8aae80737f
f 288/661/166 285/662/166 298/663/166 297/664/166
f 286/665/167 290/666/167 300/667/167 299/668/167
f 293/669/168 291/670/168 304/671/168 303/672/168
f 294/673/169 293/674/169 303/675/169 307/676/169
f 292/677/170 295/678/170 306/679/170 305/680/170
f 295/681/171 296/682/171 308/683/171 306/684/171
f 309/685/172 311/686/172 312/687/172 310/688/172
f 315/689/173 318/690/173 320/691/173 319/692/173
f 297/693/174 298/694/174 321/695/174 322/696/174
f 285/697/175 286/698/175 311/699/175 309/700/175
f 299/701/176 300/702/176 323/703/176 324/704/176
f 301/705/177 297/706/177 322/707/177 325/708/177
f 303/709/178 304/710/178 327/711/178 328/712/178
f 316/713/179 291/714/179 287/715/179 313/716/179
f 289/717/180 292/718/180 317/719/180 314/720/180
f 305/721/181 306/722/181 329/723/181 330/724/181
f 307/725/182 303/726/182 328/727/182 331/728/182
f 306/729/183 308/730/183 332/731/183 329/732/183
f 320/733/184 296/734/184 294/735/184 319/736/184
f 317/737/185 318/738/185 312/739/185 314/740/185
f 300/741/186 302/742/186 326/743/186 323/744/186
f 334/745/187 336/746/187 335/747/187 333/748/187
f 335/749/188 285/750/188 288/751/188 337/752/188
f 286/753/189 336/754/189 338/755/189 290/756/189
f 291/757/190 339/758/190 337/759/190 287/760/190
f 339/761/191 293/762/191 294/763/191 340/764/191
f 342/765/192 292/766/192 289/767/192 338/768/192
f 295/769/193 342/770/193 343/771/193 296/772/193
f 341/773/194 344/774/194 340/775/194 343/776/194
f 315/777/195 316/778/195 313/779/195 310/780/195
f 287/781/196 288/782/196 297/783/196 301/784/196
f 290/785/197 289/786/197 302/787/197 300/788/197
f 312/789/198 318/790/198 315/791/198 310/792/198