# Made in Blockbench 5.1.6
mtllib CrystalController.mtl

o default
o frame
v 0.25 1 0.375
v 0.25 1 -0.375
v 0.25 0 0.375
v 0.25 0 -0.375
v -0.25 1 0.375
v -0.25 1 -0.375
v -0.25 0 0.375
v -0.25 0 -0.375
v -0.25 1 0.25
v -0.25 1 -0.25
v -0.25 0 0.25
v -0.25 0 -0.25
v -0.375 1 0.25
v -0.375 1 -0.25
v -0.375 0 0.25
v -0.375 0 -0.25
v 0.375 1 0.25
v 0.375 1 -0.25
v 0.375 0 0.25
v 0.375 0 -0.25
v 0.25 1 0.25
v 0.25 1 -0.25
v 0.25 0 0.25
v 0.25 0 -0.25
vt 0.2708333333333333 1
vt 0.0625 1
vt 0.0625 0
vt 0.2708333333333333 0
vt 0.2708333333333333 0
vt 0.2708333333333333 1
vt 0.0625 1
vt 0.0625 0
vt 0.08333333333333333 0.6875
vt 0.08333333333333333 0.3125
vt 0.23958333333333334 0.3125
vt 0.23958333333333334 0.6875
vt 0.25 0.21875
vt 0.25 0.96875
vt 0.08333333333333333 0.96875
vt 0.08333333333333333 0.21875
vt 0.25 0
vt 0.25 1
vt 0.08333333333333333 1
vt 0.08333333333333333 0
vt 0.2604166666666667 1
vt 0.09375 1
vt 0.09375 0
vt 0.2604166666666667 0
vt 0.2708333333333333 1
vt 0.0625 1
vt 0.0625 0
vt 0.2708333333333333 0
vt 0.25 0
vt 0.25 1
vt 0.08333333333333333 1
vt 0.08333333333333333 0
vt 0.09375 0.78125
vt 0.09375 0.6875
vt 0.20833333333333334 0.6875
vt 0.20833333333333334 0.78125
vt 0.1875 0.34375
vt 0.1875 0.84375
vt 0.14583333333333334 0.84375
vt 0.14583333333333334 0.34375
vt 0.2708333333333333 0
vt 0.2708333333333333 1
vt 0.0625 1
vt 0.0625 0
vt 0.2708333333333333 1
vt 0.0625 1
vt 0.0625 0
vt 0.2708333333333333 0
vt 0.2604166666666667 1
vt 0.09375 1
vt 0.09375 0
vt 0.2604166666666667 0
vt 0.2708333333333333 0
vt 0.2708333333333333 1
vt 0.0625 1
vt 0.0625 0
vt 0.125 0.3125
vt 0.125 0.21875
vt 0.23958333333333334 0.21875
vt 0.23958333333333334 0.3125
vt 0.1875 0.34375
vt 0.1875 0.84375
vt 0.14583333333333334 0.84375
vt 0.14583333333333334 0.34375
vt 0.2708333333333333 0
vt 0.2708333333333333 1
vt 0.0625 1
vt 0.0625 0
vt 0.2708333333333333 1
vt 0.0625 1
vt 0.0625 0
vt 0.2708333333333333 0
vn 1 0 0
vn -1 0 0
vn 0 1 0
vn 0 -1 0
vn 0 0 1
vn 0 0 -1
vn 1 0 0
vn -1 0 0
vn 0 1 0
vn 0 -1 0
vn 0 0 1
vn 0 0 -1
vn 1 0 0
vn -1 0 0
vn 0 1 0
vn 0 -1 0
vn 0 0 1
vn 0 0 -1
usemtl m_196ddecc-28ed-2a44-d4d1-aa93caf4524e
f 2/1/1 1/2/1 3/3/1 4/4/1
f 7/5/2 5/6/2 6/7/2 8/8/2
f 5/9/3 1/10/3 2/11/3 6/12/3
f 4/13/4 3/14/4 7/15/4 8/16/4
f 3/17/5 1/18/5 5/19/5 7/20/5
f 6/21/6 2/22/6 4/23/6 8/24/6
f 10/25/7 9/26/7 11/27/7 12/28/7
f 15/29/8 13/30/8 14/31/8 16/32/8
f 13/33/9 9/34/9 10/35/9 14/36/9
f 12/37/10 11/38/10 15/39/10 16/40/10
f 11/41/11 9/42/11 13/43/11 15/44/11
f 14/45/12 10/46/12 12/47/12 16/48/12
f 18/49/13 17/50/13 19/51/13 20/52/13
f 23/53/14 21/54/14 22/55/14 24/56/14
f 21/57/15 17/58/15 18/59/15 22/60/15
f 20/61/16 19/62/16 23/63/16 24/64/16
f 19/65/17 17/66/17 21/67/17 23/68/17
f 22/69/18 18/70/18 20/71/18 24/72/18
o rods
v -0.25 1 -0.25
v -0.25 1 -0.375
v -0.25 0 -0.25
v -0.25 0 -0.375
v -0.375 1 -0.25
v -0.375 1 -0.375
v -0.375 0 -0.25
v -0.375 0 -0.375
v -0.25 1 0.375
v -0.25 1 0.25
v -0.25 0 0.375
v -0.25 0 0.25
v -0.375 1 0.375
v -0.375 1 0.25
v -0.375 0 0.375
v -0.375 0 0.25
v 0.375 1 0.375
v 0.375 1 0.25
v 0.375 0 0.375
v 0.375 0 0.25
v 0.25 1 0.375
v 0.25 1 0.25
v 0.25 0 0.375
v 0.25 0 0.25
v 0.375 1 -0.25
v 0.375 1 -0.375
v 0.375 0 -0.25
v 0.375 0 -0.375
v 0.25 1 -0.25
v 0.25 1 -0.375
v 0.25 0 -0.25
v 0.25 0 -0.375
vt 0.46875 1
vt 0.4270833333333333 1
vt 0.4270833333333333 0
vt 0.46875 0
vt 0.46875 0
vt 0.46875 1
vt 0.4270833333333333 1
vt 0.4270833333333333 0
vt 0.4479166666666667 0.8125
vt 0.4895833333333333 0.8125
vt 0.4895833333333333 0.9375
vt 0.4479166666666667 0.9375
vt 0.4895833333333333 0.8125
vt 0.4895833333333333 0.9375
vt 0.4479166666666667 0.9375
vt 0.4479166666666667 0.8125
vt 0.46875 0
vt 0.46875 1
vt 0.4270833333333333 1
vt 0.4270833333333333 0
vt 0.46875 1
vt 0.4270833333333333 1
vt 0.4270833333333333 0
vt 0.46875 0
vt 0.46875 1
vt 0.4270833333333333 1
vt 0.4270833333333333 0
vt 0.46875 0
vt 0.46875 0
vt 0.46875 1
vt 0.4270833333333333 1
vt 0.4270833333333333 0
vt 0.4479166666666667 0.8125
vt 0.4895833333333333 0.8125
vt 0.4895833333333333 0.9375
vt 0.4479166666666667 0.9375
vt 0.4895833333333333 0.8125
vt 0.4895833333333333 0.9375
vt 0.4479166666666667 0.9375
vt 0.4479166666666667 0.8125
vt 0.46875 0
vt 0.46875 1
vt 0.4270833333333333 1
vt 0.4270833333333333 0
vt 0.46875 1
vt 0.4270833333333333 1
vt 0.4270833333333333 0
vt 0.46875 0
vt 0.46875 1
vt 0.4270833333333333 1
vt 0.4270833333333333 0
vt 0.46875 0
vt 0.46875 0
vt 0.46875 1
vt 0.4270833333333333 1
vt 0.4270833333333333 0
vt 0.4479166666666667 0.8125
vt 0.4895833333333333 0.8125
vt 0.4895833333333333 0.9375
vt 0.4479166666666667 0.9375
vt 0.4895833333333333 0.8125
vt 0.4895833333333333 0.9375
vt 0.4479166666666667 0.9375
vt 0.4479166666666667 0.8125
vt 0.46875 0
vt 0.46875 1
vt 0.4270833333333333 1
vt 0.4270833333333333 0
vt 0.46875 1
vt 0.4270833333333333 1
vt 0.4270833333333333 0
vt 0.46875 0
vt 0.46875 1
vt 0.4270833333333333 1
vt 0.4270833333333333 0
vt 0.46875 0
vt 0.46875 0
vt 0.46875 1
vt 0.4270833333333333 1
vt 0.4270833333333333 0
vt 0.4479166666666667 0.8125
vt 0.4895833333333333 0.8125
vt 0.4895833333333333 0.9375
vt 0.4479166666666667 0.9375
vt 0.4895833333333333 0.8125
vt 0.4895833333333333 0.9375
vt 0.4479166666666667 0.9375
vt 0.4479166666666667 0.8125
vt 0.46875 0
vt 0.46875 1
vt 0.4270833333333333 1
vt 0.4270833333333333 0
vt 0.46875 1
vt 0.4270833333333333 1
vt 0.4270833333333333 0
vt 0.46875 0
vn 1 0 0
vn -1 0 0
vn 0 1 0
vn 0 -1 0
vn 0 0 1
vn 0 0 -1
vn 1 0 0
vn -1 0 0
vn 0 1 0
vn 0 -1 0
vn 0 0 1
vn 0 0 -1
vn 1 0 0
vn -1 0 0
vn 0 1 0
vn 0 -1 0
vn 0 0 1
vn 0 0 -1
vn 1 0 0
vn -1 0 0
vn 0 1 0
vn 0 -1 0
vn 0 0 1
vn 0 0 -1
usemtl m_196ddecc-28ed-2a44-d4d1-aa93caf4524e
f 26/73/19 25/74/19 27/75/19 28/76/19
f 31/77/20 29/78/20 30/79/20 32/80/20
f 29/81/21 25/82/21 26/83/21 30/84/21
f 28/85/22 27/86/22 31/87/22 32/88/22
f 27/89/23 25/90/23 29/91/23 31/92/23
f 30/93/24 26/94/24 28/95/24 32/96/24
f 34/97/25 33/98/25 35/99/25 36/100/25
f 39/101/26 37/102/26 38/103/26 40/104/26
f 37/105/27 33/106/27 34/107/27 38/108/27
f 36/109/28 35/110/28 39/111/28 40/112/28
f 35/113/29 33/114/29 37/115/29 39/116/29
f 38/117/30 34/118/30 36/119/30 40/120/30
f 42/121/31 41/122/31 43/123/31 44/124/31
f 47/125/32 45/126/32 46/127/32 48/128/32
f 45/129/33 41/130/33 42/131/33 46/132/33
f 44/133/34 43/134/34 47/135/34 48/136/34
f 43/137/35 41/138/35 45/139/35 47/140/35
f 46/141/36 42/142/36 44/143/36 48/144/36
f 50/145/37 49/146/37 51/147/37 52/148/37
f 55/149/38 53/150/38 54/151/38 56/152/38
f 53/153/39 49/154/39 50/155/39 54/156/39
f 52/157/40 51/158/40 55/159/40 56/160/40
f 51/161/41 49/162/41 53/163/41 55/164/41
f 54/165/42 50/166/42 52/167/42 56/168/42
o boltsup
v 0.03125 1.03125 0.34375
v 0.03125 1.03125 0.28125
v 0.03125 0.90625 0.34375
v 0.03125 0.90625 0.28125
v -0.03125 1.03125 0.34375
v -0.03125 1.03125 0.28125
v -0.03125 0.90625 0.34375
v -0.03125 0.90625 0.28125
v 0.34375 1.03125 -0.03125
v 0.28125 1.03125 -0.03125
v 0.34375 0.90625 -0.03125
v 0.28125 0.90625 -0.03125
v 0.34374999999999994 1.03125 0.03125
v 0.28124999999999994 1.03125 0.03125
v 0.34374999999999994 0.90625 0.03125
v 0.28124999999999994 0.90625 0.03125
v 0.03125 1.03125 -0.28125
v 0.03125 1.03125 -0.34375
v 0.03125 0.90625 -0.28125
v 0.03125 0.90625 -0.34375
v -0.03125 1.03125 -0.28125
v -0.03125 1.03125 -0.34375
v -0.03125 0.90625 -0.28125
v -0.03125 0.90625 -0.34375
v -0.28125 1.03125 -0.03125
v -0.34375 1.03125 -0.03125
v -0.28125 0.90625 -0.03125
v -0.34375 0.90625 -0.03125
v -0.28125000000000006 1.03125 0.03125
v -0.34375000000000006 1.03125 0.03125
v -0.28125000000000006 0.90625 0.03125
v -0.34375000000000006 0.90625 0.03125
vt 0.125 0.75
vt 0.10416666666666667 0.75
vt 0.10416666666666667 0.65625
vt 0.125 0.65625
vt 0.125 0.65625
vt 0.125 0.75
vt 0.10416666666666667 0.75
vt 0.10416666666666667 0.65625
vt 0.10416666666666667 0.703125
vt 0.125 0.703125
vt 0.125 0.75
vt 0.10416666666666667 0.75
vt 0.125 0.703125
vt 0.125 0.75
vt 0.10416666666666667 0.75
vt 0.10416666666666667 0.703125
vt 0.125 0.65625
vt 0.125 0.75
vt 0.10416666666666667 0.75
vt 0.10416666666666667 0.65625
vt 0.125 0.75
vt 0.10416666666666667 0.75
vt 0.10416666666666667 0.65625
vt 0.125 0.65625
vt 0.125 0.75
vt 0.10416666666666667 0.75
vt 0.10416666666666667 0.65625
vt 0.125 0.65625
vt 0.125 0.65625
vt 0.125 0.75
vt 0.10416666666666667 0.75
vt 0.10416666666666667 0.65625
vt 0.10416666666666667 0.703125
vt 0.125 0.703125
vt 0.125 0.75
vt 0.10416666666666667 0.75
vt 0.125 0.703125
vt 0.125 0.75
vt 0.10416666666666667 0.75
vt 0.10416666666666667 0.703125
vt 0.125 0.65625
vt 0.125 0.75
vt 0.10416666666666667 0.75
vt 0.10416666666666667 0.65625
vt 0.125 0.75
vt 0.10416666666666667 0.75
vt 0.10416666666666667 0.65625
vt 0.125 0.65625
vt 0.125 0.75
vt 0.10416666666666667 0.75
vt 0.10416666666666667 0.65625
vt 0.125 0.65625
vt 0.125 0.65625
vt 0.125 0.75
vt 0.10416666666666667 0.75
vt 0.10416666666666667 0.65625
vt 0.10416666666666667 0.703125
vt 0.125 0.703125
vt 0.125 0.75
vt 0.10416666666666667 0.75
vt 0.125 0.703125
vt 0.125 0.75
vt 0.10416666666666667 0.75
vt 0.10416666666666667 0.703125
vt 0.125 0.65625
vt 0.125 0.75
vt 0.10416666666666667 0.75
vt 0.10416666666666667 0.65625
vt 0.125 0.75
vt 0.10416666666666667 0.75
vt 0.10416666666666667 0.65625
vt 0.125 0.65625
vt 0.125 0.75
vt 0.10416666666666667 0.75
vt 0.10416666666666667 0.65625
vt 0.125 0.65625
vt 0.125 0.65625
vt 0.125 0.75
vt 0.10416666666666667 0.75
vt 0.10416666666666667 0.65625
vt 0.10416666666666667 0.703125
vt 0.125 0.703125
vt 0.125 0.75
vt 0.10416666666666667 0.75
vt 0.125 0.703125
vt 0.125 0.75
vt 0.10416666666666667 0.75
vt 0.10416666666666667 0.703125
vt 0.125 0.65625
vt 0.125 0.75
vt 0.10416666666666667 0.75
vt 0.10416666666666667 0.65625
vt 0.125 0.75
vt 0.10416666666666667 0.75
vt 0.10416666666666667 0.65625
vt 0.125 0.65625
vn 1 0 0
vn -1 0 0
vn 0 1 0
vn 0 -1 0
vn 0 0 1
vn 0 0 -1
vn 0 0 -1
vn 0 0 1
vn 0 1 0
vn 0 -1 0
vn 1 0 8.88178419700125216
vn -1 0 -8.88178419700125216
vn 1 0 0
vn -1 0 0
vn 0 1 0
vn 0 -1 0
vn 0 0 1
vn 0 0 -1
vn 0 0 -1
vn 0 0 1
vn 0 1 0
vn 0 -1 0
vn 1 0 8.88178419700125216
vn -1 0 -8.88178419700125216
usemtl m_196ddecc-28ed-2a44-d4d1-aa93caf4524e
f 58/169/43 57/170/43 59/171/43 60/172/43
f 63/173/44 61/174/44 62/175/44 64/176/44
f 61/177/45 57/178/45 58/179/45 62/180/45
f 60/181/46 59/182/46 63/183/46 64/184/46
f 59/185/47 57/186/47 61/187/47 63/188/47
f 62/189/48 58/190/48 60/191/48 64/192/48
f 66/193/49 65/194/49 67/195/49 68/196/49
f 71/197/50 69/198/50 70/199/50 72/200/50
f 69/201/51 65/202/51 66/203/51 70/204/51
f 68/205/52 67/206/52 71/207/52 72/208/52
f 67/209/53 65/210/53 69/211/53 71/212/53
f 70/213/54 66/214/54 68/215/54 72/216/54
f 74/217/55 73/218/55 75/219/55 76/220/55
f 79/221/56 77/222/56 78/223/56 80/224/56
f 77/225/57 73/226/57 74/227/57 78/228/57
f 76/229/58 75/230/58 79/231/58 80/232/58
f 75/233/59 73/234/59 77/235/59 79/236/59
f 78/237/60 74/238/60 76/239/60 80/240/60
f 82/241/61 81/242/61 83/243/61 84/244/61
f 87/245/62 85/246/62 86/247/62 88/248/62
f 85/249/63 81/250/63 82/251/63 86/252/63
f 84/253/64 83/254/64 87/255/64 88/256/64
f 83/257/65 81/258/65 85/259/65 87/260/65
f 86/261/66 82/262/66 84/263/66 88/264/66
o boltsdown
v 0.03125 0.09375 0.34375
v 0.03125 0.09375 0.28125
v 0.03125 -0.03125 0.34375
v 0.03125 -0.03125 0.28125
v -0.03125 0.09375 0.34375
v -0.03125 0.09375 0.28125
v -0.03125 -0.03125 0.34375
v -0.03125 -0.03125 0.28125
v 0.34375 0.09375 -0.03125
v 0.28125 0.09375 -0.03125
v 0.34375 -0.03125 -0.03125
v 0.28125 -0.03125 -0.03125
v 0.34374999999999994 0.09375 0.03125
v 0.28124999999999994 0.09375 0.03125
v 0.34374999999999994 -0.03125 0.03125
v 0.28124999999999994 -0.03125 0.03125
v 0.03125 0.09375 -0.28125
v 0.03125 0.09375 -0.34375
v 0.03125 -0.03125 -0.28125
v 0.03125 -0.03125 -0.34375
v -0.03125 0.09375 -0.28125
v -0.03125 0.09375 -0.34375
v -0.03125 -0.03125 -0.28125
v -0.03125 -0.03125 -0.34375
v -0.28125 0.09375 -0.03125
v -0.34375 0.09375 -0.03125
v -0.28125 -0.03125 -0.03125
v -0.34375 -0.03125 -0.03125
v -0.28125000000000006 0.09375 0.03125
v -0.34375000000000006 0.09375 0.03125
v -0.28125000000000006 -0.03125 0.03125
v -0.34375000000000006 -0.03125 0.03125
vt 0.125 0.75
vt 0.10416666666666667 0.75
vt 0.10416666666666667 0.65625
vt 0.125 0.65625
vt 0.125 0.65625
vt 0.125 0.75
vt 0.10416666666666667 0.75
vt 0.10416666666666667 0.65625
vt 0.10416666666666667 0.703125
vt 0.125 0.703125
vt 0.125 0.75
vt 0.10416666666666667 0.75
vt 0.125 0.703125
vt 0.125 0.75
vt 0.10416666666666667 0.75
vt 0.10416666666666667 0.703125
vt 0.125 0.65625
vt 0.125 0.75
vt 0.10416666666666667 0.75
vt 0.10416666666666667 0.65625
vt 0.125 0.75
vt 0.10416666666666667 0.75
vt 0.10416666666666667 0.65625
vt 0.125 0.65625
vt 0.125 0.75
vt 0.10416666666666667 0.75
vt 0.10416666666666667 0.65625
vt 0.125 0.65625
vt 0.125 0.65625
vt 0.125 0.75
vt 0.10416666666666667 0.75
vt 0.10416666666666667 0.65625
vt 0.10416666666666667 0.703125
vt 0.125 0.703125
vt 0.125 0.75
vt 0.10416666666666667 0.75
vt 0.125 0.703125
vt 0.125 0.75
vt 0.10416666666666667 0.75
vt 0.10416666666666667 0.703125
vt 0.125 0.65625
vt 0.125 0.75
vt 0.10416666666666667 0.75
vt 0.10416666666666667 0.65625
vt 0.125 0.75
vt 0.10416666666666667 0.75
vt 0.10416666666666667 0.65625
vt 0.125 0.65625
vt 0.125 0.75
vt 0.10416666666666667 0.75
vt 0.10416666666666667 0.65625
vt 0.125 0.65625
vt 0.125 0.65625
vt 0.125 0.75
vt 0.10416666666666667 0.75
vt 0.10416666666666667 0.65625
vt 0.10416666666666667 0.703125
vt 0.125 0.703125
vt 0.125 0.75
vt 0.10416666666666667 0.75
vt 0.125 0.703125
vt 0.125 0.75
vt 0.10416666666666667 0.75
vt 0.10416666666666667 0.703125
vt 0.125 0.65625
vt 0.125 0.75
vt 0.10416666666666667 0.75
vt 0.10416666666666667 0.65625
vt 0.125 0.75
vt 0.10416666666666667 0.75
vt 0.10416666666666667 0.65625
vt 0.125 0.65625
vt 0.125 0.75
vt 0.10416666666666667 0.75
vt 0.10416666666666667 0.65625
vt 0.125 0.65625
vt 0.125 0.65625
vt 0.125 0.75
vt 0.10416666666666667 0.75
vt 0.10416666666666667 0.65625
vt 0.10416666666666667 0.703125
vt 0.125 0.703125
vt 0.125 0.75
vt 0.10416666666666667 0.75
vt 0.125 0.703125
vt 0.125 0.75
vt 0.10416666666666667 0.75
vt 0.10416666666666667 0.703125
vt 0.125 0.65625
vt 0.125 0.75
vt 0.10416666666666667 0.75
vt 0.10416666666666667 0.65625
vt 0.125 0.75
vt 0.10416666666666667 0.75
vt 0.10416666666666667 0.65625
vt 0.125 0.65625
vn 1 0 0
vn -1 0 0
vn 0 1 0
vn 0 -1 0
vn 0 0 1
vn 0 0 -1
vn 0 0 -1
vn 0 0 1
vn 0 1 0
vn 0 -1 0
vn 1 0 8.88178419700125216
vn -1 0 -8.88178419700125216
vn 1 0 0
vn -1 0 0
vn 0 1 0
vn 0 -1 0
vn 0 0 1
vn 0 0 -1
vn 0 0 -1
vn 0 0 1
vn 0 1 0
vn 0 -1 0
vn 1 0 8.88178419700125216
vn -1 0 -8.88178419700125216
usemtl m_196ddecc-28ed-2a44-d4d1-aa93caf4524e
f 90/265/67 89/266/67 91/267/67 92/268/67
f 95/269/68 93/270/68 94/271/68 96/272/68
f 93/273/69 89/274/69 90/275/69 94/276/69
f 92/277/70 91/278/70 95/279/70 96/280/70
f 91/281/71 89/282/71 93/283/71 95/284/71
f 94/285/72 90/286/72 92/287/72 96/288/72
f 98/289/73 97/290/73 99/291/73 100/292/73
f 103/293/74 101/294/74 102/295/74 104/296/74
f 101/297/75 97/298/75 98/299/75 102/300/75
f 100/301/76 99/302/76 103/303/76 104/304/76
f 99/305/77 97/306/77 101/307/77 103/308/77
f 102/309/78 98/310/78 100/311/78 104/312/78
f 106/313/79 105/314/79 107/315/79 108/316/79
f 111/317/80 109/318/80 110/319/80 112/320/80
f 109/321/81 105/322/81 106/323/81 110/324/81
f 108/325/82 107/326/82 111/327/82 112/328/82
f 107/329/83 105/330/83 109/331/83 111/332/83
f 110/333/84 106/334/84 108/335/84 112/336/84
f 114/337/85 113/338/85 115/339/85 116/340/85
f 119/341/86 117/342/86 118/343/86 120/344/86
f 117/345/87 113/346/87 114/347/87 118/348/87
f 116/349/88 115/350/88 119/351/88 120/352/88
f 115/353/89 113/354/89 117/355/89 119/356/89
f 118/357/90 114/358/90 116/359/90 120/360/90
o stone1
v -0.078125 0.604166875 -0.4624999999999999
v -0.078125 0.708333125 -0.4624999999999999
v 0.078125 0.604166875 -0.4624999999999999
v 0.078125 0.708333125 -0.4624999999999999
v 0.15625 0.604166875 -0.4624999999999999
v 0.15625 0.395833125 -0.4624999999999999
v -0.15625 0.395833125 -0.4624999999999999
v -0.15625 0.604166875 -0.4624999999999999
v -0.078125 0.291666875 -0.4624999999999999
v -0.078125 0.395833125 -0.4624999999999999
v 0.078125 0.291666875 -0.4624999999999999
v 0.078125 0.395833125 -0.4624999999999999
v -0.078125 0.604166875 -0.4624999999999999
v 0.078125 0.291666875 -0.4624999999999999
v 0 0.291666875 -0.4624999999999999
v 0.078125 0.395833125 -0.4624999999999999
v -0.078125 0.291666875 -0.4624999999999999
v -0.078125 0.395833125 -0.4624999999999999
v 0.15625 0.395833125 -0.4624999999999999
v 0.15625 0.5 -0.4624999999999999
v -0.15625 0.395833125 -0.4624999999999999
v -0.15625 0.5 -0.4624999999999999
v 0.078125 0.604166875 -0.4624999999999999
v 0.15625 0.604166875 -0.4624999999999999
v -0.15625 0.604166875 -0.4624999999999999
v 0 0.708333125 -0.4624999999999999
v 0.078125 0.708333125 -0.4624999999999999
v -0.078125 0.708333125 -0.4624999999999999
v 0.15625 0.208333125 -0.3375
v 0 0.125 -0.3375
v 0 0.125 -0.3999999999999999
v 0.15625 0.208333125 -0.3999999999999999
v 0.15625 0.3125 -0.3375
v 0.15625 0.3125 -0.4624999999999999
v -0.15625 0.208333125 -0.3375
v -0.15625 0.208333125 -0.3999999999999999
v -0.15625 0.3125 -0.3375
v -0.15625 0.3125 -0.4624999999999999
v 0.234375 0.3125 -0.3375
v 0.234375 0.3125 -0.3999999999999999
v 0.3125 0.5 -0.3375
v 0.3125 0.5 -0.3999999999999999
v -0.234375 0.3125 -0.3375
v -0.234375 0.3125 -0.3999999999999999
v -0.3125 0.5 -0.3375
v -0.3125 0.5 -0.3999999999999999
v 0.15625 0.6875 -0.3375
v 0.234375 0.6875 -0.3375
v 0.234375 0.6875 -0.3999999999999999
v 0.15625 0.6875 -0.4624999999999999
v -0.234375 0.6875 -0.3375
v -0.234375 0.6875 -0.3999999999999999
v -0.15625 0.6875 -0.3375
v -0.15625 0.6875 -0.3999999999999999
v 0 0.875 -0.3375
v 0.15625 0.791666875 -0.3375
v 0.15625 0.791666875 -0.3999999999999999
v 0 0.875 -0.3999999999999999
v -0.15625 0.791666875 -0.3375
v -0.15625 0.791666875 -0.3999999999999999
vt 0.8204462032222327 0.26249536369645043
vt 0.8725999830044581 0.2646077920619261
vt 0.8726923426815066 0.3648110190535685
vt 0.8201945155152259 0.3632260005572494
vt 0.819681024035818 0.5687336421234095
vt 0.8728808049798 0.5692210779190517
vt 0.8729769076010444 0.6734812085575781
vt 0.8194190179421094 0.673564875223073
vt 0.7928621207480436 0.5684879100280857
vt 0.7937323046932495 0.36242713884004285
vt 0.8987302857208518 0.36559717583268125
vt 0.899264009331048 0.5694624717428314
vt 0.7954346489678698 0.2052743561597451
vt 0.8437493521658718 0.13294850382581958
vt 0.8454133847079789 0.09770343749999999
vt 0.7938279761830992 0.17457819193301982
vt 0.7950543158033692 0.2999836502764709
vt 0.7954346489678698 0.2052743561597451
vt 0.7938279761830992 0.17457819193301982
vt 0.793411068678555 0.2755737768894273
vt 0.8437493521658718 0.13294850382581958
vt 0.8914549826792628 0.20974997978636323
vt 0.8963312615621115 0.17968044044606823
vt 0.8454133847079789 0.09770343749999999
vt 0.8914549826792628 0.20974997978636323
vt 0.8916647355201156 0.30354110090608055
vt 0.896587082082637 0.2796322769034889
vt 0.8963312615621115 0.17968044044606823
vt 0.7705964750226414 0.29908301400791826
vt 0.7950543158033692 0.2999836502764709
vt 0.793411068678555 0.2755737768894273
vt 0.7672687097280996 0.2745453730278393
vt 0.7447614004864896 0.4724999638371624
vt 0.7705964750226414 0.29908301400791826
vt 0.7672687097280996 0.2745453730278393
vt 0.7395833333333334 0.45968781792085767
vt 0.8916647355201156 0.30354110090608055
vt 0.9155167013727393 0.30441918995233275
vt 0.9220382259782188 0.2806334362047973
vt 0.896587082082637 0.2796322769034889
vt 0.9155167013727393 0.30441918995233275
vt 0.9401585130824858 0.47619207148884346
vt 0.9484204166666667 0.46390665373794415
vt 0.9220382259782188 0.2806334362047973
vt 0.7936456041323338 0.6508290765692285
vt 0.7686273565238294 0.6508149845552909
vt 0.7650799453292428 0.650429489685128
vt 0.7918635543891561 0.6504457737901227
vt 0.7686273565238294 0.6508149845552909
vt 0.7447614004864896 0.4724999638371624
vt 0.7395833333333334 0.45968781792085767
vt 0.7650799453292428 0.650429489685128
vt 0.9401585130824858 0.47619207148884346
vt 0.916826282592071 0.6508985971713213
vt 0.9235947339577922 0.6505253153799044
vt 0.9484204166666667 0.46390665373794415
vt 0.916826282592071 0.6508985971713213
vt 0.8924415904914311 0.6508848183132487
vt 0.897536116255853 0.650509344430775
vt 0.9235947339577922 0.6505253153799044
vt 0.8395132241636823 0.6610767891047344
vt 0.8395132241636823 0.84375
vt 0.879485180495822 0.84375
vt 0.879485180495822 0.6610767891047344
vt 0.7932428866722877 0.7511313344399004
vt 0.7936456041323338 0.6508290765692285
vt 0.7918635543891561 0.6504457737901227
vt 0.7914202653934329 0.7578316173334858
vt 0.8924415904914311 0.6508848183132487
vt 0.8926636347088559 0.7501571065430065
vt 0.8978079255589116 0.7567158429854841
vt 0.897536116255853 0.650509344430775
vt 0.879485180495822 0.6610767891047344
vt 0.879485180495822 0.84375
vt 0.8395132241636823 0.84375
vt 0.8395132241636823 0.6610767891047344
vt 0.8452909705917114 0.25741449457342314
vt 0.8194623914984637 0.25634412782588745
vt 0.7938279761830992 0.17457819193301982
vt 0.8454133847079789 0.09770343749999999
vt 0.8194623914984637 0.25634412782588745
vt 0.819213765930078 0.35814076548568763
vt 0.793411068678555 0.2755737768894273
vt 0.7938279761830992 0.17457819193301982
vt 0.8709816464356136 0.2584789113595185
vt 0.8452909705917114 0.25741449457342314
vt 0.8454133847079789 0.09770343749999999
vt 0.8963312615621115 0.17968044044606823
vt 0.8710728824259416 0.3597425577366078
vt 0.8709816464356136 0.2584789113595185
vt 0.8963312615621115 0.17968044044606823
vt 0.896587082082637 0.2796322769034889
vt 0.819213765930078 0.35814076548568763
vt 0.7930735055073302 0.35733344966498914
vt 0.7672687097280996 0.2745453730278393
vt 0.793411068678555 0.2755737768894273
vt 0.7930735055073302 0.35733344966498914
vt 0.7926466050137028 0.4607597504477199
vt 0.7395833333333334 0.45968781792085767
vt 0.7672687097280996 0.2745453730278393
vt 0.8967940368865467 0.3605370341668297
vt 0.8710728824259416 0.3597425577366078
vt 0.896587082082637 0.2796322769034889
vt 0.9220382259782188 0.2806334362047973
vt 0.8970559531304131 0.4628691683562629
vt 0.8967940368865467 0.3605370341668297
vt 0.9220382259782188 0.2806334362047973
vt 0.9484204166666667 0.46390665373794415
vt 0.7922139085864076 0.5655748974929786
vt 0.818706521804223 0.5658232300941477
vt 0.7918635543891561 0.6504457737901227
vt 0.7650799453292428 0.650429489685128
vt 0.7926466050137028 0.4607597504477199
vt 0.7922139085864076 0.5655748974929786
vt 0.7650799453292428 0.650429489685128
vt 0.7395833333333334 0.45968781792085767
vt 0.8973212669905678 0.5665597726892921
vt 0.8970559531304131 0.4628691683562629
vt 0.9484204166666667 0.46390665373794415
vt 0.9235947339577922 0.6505253153799044
vt 0.8712590518125588 0.5663158242702371
vt 0.8973212669905678 0.5665597726892921
vt 0.9235947339577922 0.6505253153799044
vt 0.897536116255853 0.650509344430775
vt 0.8184477033869723 0.6717638593192318
vt 0.8449734933285434 0.6717215832774186
vt 0.8448416858025384 0.84375
vt 0.7914202653934329 0.7578316173334858
vt 0.818706521804223 0.5658232300941477
vt 0.8184477033869723 0.6717638593192318
vt 0.7914202653934329 0.7578316173334858
vt 0.7918635543891561 0.6504457737901227
vt 0.8713539852088473 0.6716793072356055
vt 0.8712590518125588 0.5663158242702371
vt 0.897536116255853 0.650509344430775
vt 0.8978079255589116 0.7567158429854841
vt 0.8449734933285434 0.6717215832774186
vt 0.8713539852088473 0.6716793072356055
vt 0.8978079255589116 0.7567158429854841
vt 0.8448416858025384 0.84375
vn 0 0 -1
vn 0 0 -1
vn 0 0 -1
vn 0.47058731935604786 -0.8823534296761638 0
vn 1 0 0
vn -0.47058731935604786 -0.8823534296761638 0
vn -1 0 0
vn 0 -1 0
vn 0.9230769230769231 -0.38461538461538464 0
vn 0 -1 0
vn -0.9230769230769231 -0.38461538461538464 0
vn 0 1 0
vn 0.9230769230769231 0.38461538461538464 0
vn -0.9230769230769231 0.38461538461538464 0
vn 0 1 0
vn 0.47058731935604786 0.8823534296761638 0
vn 1 0 0
vn -1 0 0
vn -0.47058731935604786 0.8823534296761638 0
vn 0 -0.5999980800044161 -0.8000014399930881
vn 0 0 -1
vn 0 -0.35112305679597106 -0.9363293218661121
vn -0.6246950475544243 0 -0.7808688094430305
vn 0 -0.600000960001104 -0.7999992799982721
vn 0.3713906763541038 0 -0.9284766908852594
vn 0 0 -1
vn -0.6246950475544243 0 -0.7808688094430305
vn 0 0 -1
vn 0.6246950475544243 0 -0.7808688094430305
vn -0.3713906763541038 0 -0.9284766908852594
vn 0 0.600000960001104 -0.7999992799982721
vn 0 0.35112305679597106 -0.9363293218661121
vn 0.6246950475544243 0 -0.7808688094430305
vn -0.6246950475544243 0 -0.7808688094430305
vn 0 0.5999980800044161 -0.8000014399930881
usemtl m_196ddecc-28ed-2a44-d4d1-aa93caf4524e
f 131/361/91 129/362/91 130/363/91 132/364/91
f 123/365/92 121/366/92 122/367/92 124/368/92
f 125/369/93 126/370/93 127/371/93 128/372/93
f 149/373/94 150/374/94 151/375/94 152/376/94
f 153/377/95 149/378/95 152/379/95 154/380/95
f 150/381/96 155/382/96 156/383/96 151/384/96
f 155/385/97 157/386/97 158/387/97 156/388/97
f 159/389/98 153/390/98 154/391/98 160/392/98
f 161/393/99 159/394/99 160/395/99 162/396/99
f 157/397/100 163/398/100 164/399/100 158/400/100
f 163/401/101 165/402/101 166/403/101 164/404/101
f 167/405/102 168/406/102 169/407/102 170/408/102
f 168/409/103 161/410/103 162/411/103 169/412/103
f 165/413/104 171/414/104 172/415/104 166/416/104
f 171/417/105 173/418/105 174/419/105 172/420/105
f 175/421/106 176/422/106 177/423/106 178/424/106
f 176/425/107 167/426/107 170/427/107 177/428/107
f 173/429/108 179/430/108 180/431/108 174/432/108
f 179/433/109 175/434/109 178/435/109 180/436/109
f 135/437/110 134/438/110 152/439/110 151/440/110
f 134/441/111 136/442/111 154/443/111 152/444/111
f 137/445/112 135/446/112 151/447/112 156/448/112
f 138/449/113 137/450/113 156/451/113 158/452/113
f 136/453/114 139/454/114 160/455/114 154/456/114
f 139/457/115 140/458/115 162/459/115 160/460/115
f 141/461/116 138/462/116 158/463/116 164/464/116
f 142/465/117 141/466/117 164/467/117 166/468/117
f 144/469/118 143/470/118 170/471/118 169/472/118
f 140/473/119 144/474/119 169/475/119 162/476/119
f 145/477/120 142/478/120 166/479/120 172/480/120
f 133/481/121 145/482/121 172/483/121 174/484/121
f 147/485/122 146/486/122 178/487/122 177/488/122
f 143/489/123 147/490/123 177/491/123 170/492/123
f 148/493/124 133/494/124 174/495/124 180/496/124
f 146/497/125 148/498/125 180/499/125 178/500/125
o stone2
v 0.4624999999999999 0.604166875 -0.078125
v 0.4624999999999999 0.708333125 -0.078125
v 0.4624999999999999 0.604166875 0.078125
v 0.4624999999999999 0.708333125 0.078125
v 0.4624999999999999 0.604166875 0.15625
v 0.4624999999999999 0.395833125 0.15625
v 0.4624999999999999 0.395833125 -0.15625
v 0.4624999999999999 0.604166875 -0.15625
v 0.4624999999999999 0.291666875 -0.078125
v 0.4624999999999999 0.395833125 -0.078125
v 0.4624999999999999 0.291666875 0.078125
v 0.4624999999999999 0.395833125 0.078125
v 0.4624999999999999 0.604166875 -0.078125
v 0.4624999999999999 0.291666875 0.078125
v 0.4624999999999999 0.291666875 0
v 0.4624999999999999 0.395833125 0.078125
v 0.4624999999999999 0.291666875 -0.078125
v 0.4624999999999999 0.395833125 -0.078125
v 0.4624999999999999 0.395833125 0.15625
v 0.4624999999999999 0.5 0.15625
v 0.4624999999999999 0.395833125 -0.15625
v 0.4624999999999999 0.5 -0.15625
v 0.4624999999999999 0.604166875 0.078125
v 0.4624999999999999 0.604166875 0.15625
v 0.4624999999999999 0.604166875 -0.15625
v 0.4624999999999999 0.708333125 0
v 0.4624999999999999 0.708333125 0.078125
v 0.4624999999999999 0.708333125 -0.078125
v 0.3375 0.208333125 0.15625
v 0.3375 0.125 0
v 0.3999999999999999 0.125 0
v 0.3999999999999999 0.208333125 0.15625
v 0.3375 0.3125 0.15625
v 0.4624999999999999 0.3125 0.15625
v 0.3375 0.208333125 -0.15625
v 0.3999999999999999 0.208333125 -0.15625
v 0.3375 0.3125 -0.15625
v 0.4624999999999999 0.3125 -0.15625
v 0.3375 0.3125 0.234375
v 0.3999999999999999 0.3125 0.234375
v 0.3375 0.5 0.3125
v 0.3999999999999999 0.5 0.3125
v 0.3375 0.3125 -0.234375
v 0.3999999999999999 0.3125 -0.234375
v 0.3375 0.5 -0.3125
v 0.3999999999999999 0.5 -0.3125
v 0.3375 0.6875 0.15625
v 0.3375 0.6875 0.234375
v 0.3999999999999999 0.6875 0.234375
v 0.4624999999999999 0.6875 0.15625
v 0.3375 0.6875 -0.234375
v 0.3999999999999999 0.6875 -0.234375
v 0.3375 0.6875 -0.15625
v 0.3999999999999999 0.6875 -0.15625
v 0.3375 0.875 0
v 0.3375 0.791666875 0.15625
v 0.3999999999999999 0.791666875 0.15625
v 0.3999999999999999 0.875 0
v 0.3375 0.791666875 -0.15625
v 0.3999999999999999 0.791666875 -0.15625
vt 0.8204462032222327 0.26249536369645043
vt 0.8725999830044581 0.2646077920619261
vt 0.8726923426815066 0.3648110190535685
vt 0.8201945155152259 0.3632260005572494
vt 0.819681024035818 0.5687336421234095
vt 0.8728808049798 0.5692210779190517
vt 0.8729769076010444 0.6734812085575781
vt 0.8194190179421094 0.673564875223073
vt 0.7928621207480436 0.5684879100280857
vt 0.7937323046932495 0.36242713884004285
vt 0.8987302857208518 0.36559717583268125
vt 0.899264009331048 0.5694624717428314
vt 0.7954346489678698 0.2052743561597451
vt 0.8437493521658718 0.13294850382581958
vt 0.8454133847079789 0.09770343749999999
vt 0.7938279761830992 0.17457819193301982
vt 0.7950543158033692 0.2999836502764709
vt 0.7954346489678698 0.2052743561597451
vt 0.7938279761830992 0.17457819193301982
vt 0.793411068678555 0.2755737768894273
vt 0.8437493521658718 0.13294850382581958
vt 0.8914549826792628 0.20974997978636323
vt 0.8963312615621115 0.17968044044606823
vt 0.8454133847079789 0.09770343749999999
vt 0.8914549826792628 0.20974997978636323
vt 0.8916647355201156 0.30354110090608055
vt 0.896587082082637 0.2796322769034889
vt 0.8963312615621115 0.17968044044606823
vt 0.7705964750226414 0.29908301400791826
vt 0.7950543158033692 0.2999836502764709
vt 0.793411068678555 0.2755737768894273
vt 0.7672687097280996 0.2745453730278393
vt 0.7447614004864896 0.4724999638371624
vt 0.7705964750226414 0.29908301400791826
vt 0.7672687097280996 0.2745453730278393
vt 0.7395833333333334 0.45968781792085767
vt 0.8916647355201156 0.30354110090608055
vt 0.9155167013727393 0.30441918995233275
vt 0.9220382259782188 0.2806334362047973
vt 0.896587082082637 0.2796322769034889
vt 0.9155167013727393 0.30441918995233275
vt 0.9401585130824858 0.47619207148884346
vt 0.9484204166666667 0.46390665373794415
vt 0.9220382259782188 0.2806334362047973
vt 0.7936456041323338 0.6508290765692285
vt 0.7686273565238294 0.6508149845552909
vt 0.7650799453292428 0.650429489685128
vt 0.7918635543891561 0.6504457737901227
vt 0.7686273565238294 0.6508149845552909
vt 0.7447614004864896 0.4724999638371624
vt 0.7395833333333334 0.45968781792085767
vt 0.7650799453292428 0.650429489685128
vt 0.9401585130824858 0.47619207148884346
vt 0.916826282592071 0.6508985971713213
vt 0.9235947339577922 0.6505253153799044
vt 0.9484204166666667 0.46390665373794415
vt 0.916826282592071 0.6508985971713213
vt 0.8924415904914311 0.6508848183132487
vt 0.897536116255853 0.650509344430775
vt 0.9235947339577922 0.6505253153799044
vt 0.8395132241636823 0.6610767891047344
vt 0.8395132241636823 0.84375
vt 0.879485180495822 0.84375
vt 0.879485180495822 0.6610767891047344
vt 0.7932428866722877 0.7511313344399004
vt 0.7936456041323338 0.6508290765692285
vt 0.7918635543891561 0.6504457737901227
vt 0.7914202653934329 0.7578316173334858
vt 0.8924415904914311 0.6508848183132487
vt 0.8926636347088559 0.7501571065430065
vt 0.8978079255589116 0.7567158429854841
vt 0.897536116255853 0.650509344430775
vt 0.879485180495822 0.6610767891047344
vt 0.879485180495822 0.84375
vt 0.8395132241636823 0.84375
vt 0.8395132241636823 0.6610767891047344
vt 0.8452909705917114 0.25741449457342314
vt 0.8194623914984637 0.25634412782588745
vt 0.7938279761830992 0.17457819193301982
vt 0.8454133847079789 0.09770343749999999
vt 0.8194623914984637 0.25634412782588745
vt 0.819213765930078 0.35814076548568763
vt 0.793411068678555 0.2755737768894273
vt 0.7938279761830992 0.17457819193301982
vt 0.8709816464356136 0.2584789113595185
vt 0.8452909705917114 0.25741449457342314
vt 0.8454133847079789 0.09770343749999999
vt 0.8963312615621115 0.17968044044606823
vt 0.8710728824259416 0.3597425577366078
vt 0.8709816464356136 0.2584789113595185
vt 0.8963312615621115 0.17968044044606823
vt 0.896587082082637 0.2796322769034889
vt 0.819213765930078 0.35814076548568763
vt 0.7930735055073302 0.35733344966498914
vt 0.7672687097280996 0.2745453730278393
vt 0.793411068678555 0.2755737768894273
vt 0.7930735055073302 0.35733344966498914
vt 0.7926466050137028 0.4607597504477199
vt 0.7395833333333334 0.45968781792085767
vt 0.7672687097280996 0.2745453730278393
vt 0.8967940368865467 0.3605370341668297
vt 0.8710728824259416 0.3597425577366078
vt 0.896587082082637 0.2796322769034889
vt 0.9220382259782188 0.2806334362047973
vt 0.8970559531304131 0.4628691683562629
vt 0.8967940368865467 0.3605370341668297
vt 0.9220382259782188 0.2806334362047973
vt 0.9484204166666667 0.46390665373794415
vt 0.7922139085864076 0.5655748974929786
vt 0.818706521804223 0.5658232300941477
vt 0.7918635543891561 0.6504457737901227
vt 0.7650799453292428 0.650429489685128
vt 0.7926466050137028 0.4607597504477199
vt 0.7922139085864076 0.5655748974929786
vt 0.7650799453292428 0.650429489685128
vt 0.7395833333333334 0.45968781792085767
vt 0.8973212669905678 0.5665597726892921
vt 0.8970559531304131 0.4628691683562629
vt 0.9484204166666667 0.46390665373794415
vt 0.9235947339577922 0.6505253153799044
vt 0.8712590518125588 0.5663158242702371
vt 0.8973212669905678 0.5665597726892921
vt 0.9235947339577922 0.6505253153799044
vt 0.897536116255853 0.650509344430775
vt 0.8184477033869723 0.6717638593192318
vt 0.8449734933285434 0.6717215832774186
vt 0.8448416858025384 0.84375
vt 0.7914202653934329 0.7578316173334858
vt 0.818706521804223 0.5658232300941477
vt 0.8184477033869723 0.6717638593192318
vt 0.7914202653934329 0.7578316173334858
vt 0.7918635543891561 0.6504457737901227
vt 0.8713539852088473 0.6716793072356055
vt 0.8712590518125588 0.5663158242702371
vt 0.897536116255853 0.650509344430775
vt 0.8978079255589116 0.7567158429854841
vt 0.8449734933285434 0.6717215832774186
vt 0.8713539852088473 0.6716793072356055
vt 0.8978079255589116 0.7567158429854841
vt 0.8448416858025384 0.84375
vn 1 0 0
vn 1 0 0
vn 1 0 0
vn 0 -0.8823534296761638 0.47058731935604786
vn 0 0 1
vn 0 -0.8823534296761638 -0.47058731935604786
vn 0 0 -1
vn 0 -1 0
vn 0 -0.38461538461538464 0.9230769230769231
vn 0 -1 0
vn 0 -0.38461538461538464 -0.9230769230769231
vn 0 1 0
vn 0 0.38461538461538464 0.9230769230769231
vn 0 0.38461538461538464 -0.9230769230769231
vn 0 1 0
vn 0 0.8823534296761638 0.47058731935604786
vn 0 0 1
vn 0 0 -1
vn 0 0.8823534296761638 -0.47058731935604786
vn 0.8000014399930881 -0.5999980800044161 0
vn 1 0 0
vn 0.9363293218661121 -0.35112305679597106 0
vn 0.7808688094430305 0 -0.6246950475544243
vn 0.7999992799982721 -0.600000960001104 0
vn 0.9284766908852594 0 0.3713906763541038
vn 1 0 0
vn 0.7808688094430305 0 -0.6246950475544243
vn 1 0 0
vn 0.7808688094430305 0 0.6246950475544243
vn 0.9284766908852594 0 -0.3713906763541038
vn 0.7999992799982721 0.600000960001104 0
vn 0.9363293218661121 0.35112305679597106 0
vn 0.7808688094430305 0 0.6246950475544243
vn 0.7808688094430305 0 -0.6246950475544243
vn 0.8000014399930881 0.5999980800044161 0
usemtl m_196ddecc-28ed-2a44-d4d1-aa93caf4524e
f 191/501/126 189/502/126 190/503/126 192/504/126
f 183/505/127 181/506/127 182/507/127 184/508/127
f 185/509/128 186/510/128 187/511/128 188/512/128
f 209/513/129 210/514/129 211/515/129 212/516/129
f 213/517/130 209/518/130 212/519/130 214/520/130
f 210/521/131 215/522/131 216/523/131 211/524/131
f 215/525/132 217/526/132 218/527/132 216/528/132
f 219/529/133 213/530/133 214/531/133 220/532/133
f 221/533/134 219/534/134 220/535/134 222/536/134
f 217/537/135 223/538/135 224/539/135 218/540/135
f 223/541/136 225/542/136 226/543/136 224/544/136
f 227/545/137 228/546/137 229/547/137 230/548/137
f 228/549/138 221/550/138 222/551/138 229/552/138
f 225/553/139 231/554/139 232/555/139 226/556/139
f 231/557/140 233/558/140 234/559/140 232/560/140
f 235/561/141 236/562/141 237/563/141 238/564/141
f 236/565/142 227/566/142 230/567/142 237/568/142
f 233/569/143 239/570/143 240/571/143 234/572/143
f 239/573/144 235/574/144 238/575/144 240/576/144
f 195/577/145 194/578/145 212/579/145 211/580/145
f 194/581/146 196/582/146 214/583/146 212/584/146
f 197/585/147 195/586/147 211/587/147 216/588/147
f 198/589/148 197/590/148 216/591/148 218/592/148
f 196/593/149 199/594/149 220/595/149 214/596/149
f 199/597/150 200/598/150 222/599/150 220/600/150
f 201/601/151 198/602/151 218/603/151 224/604/151
f 202/605/152 201/606/152 224/607/152 226/608/152
f 204/609/153 203/610/153 230/611/153 229/612/153
f 200/613/154 204/614/154 229/615/154 222/616/154
f 205/617/155 202/618/155 226/619/155 232/620/155
f 193/621/156 205/622/156 232/623/156 234/624/156
f 207/625/157 206/626/157 238/627/157 237/628/157
f 203/629/158 207/630/158 237/631/158 230/632/158
f 208/633/159 193/634/159 234/635/159 240/636/159
f 206/637/160 208/638/160 240/639/160 238/640/160
o stone3
v 0.078125 0.604166875 0.4624999999999999
v 0.078125 0.708333125 0.4624999999999999
v -0.078125 0.604166875 0.4624999999999999
v -0.078125 0.708333125 0.4624999999999999
v -0.15625 0.604166875 0.4624999999999999
v -0.15625 0.395833125 0.4624999999999999
v 0.15625 0.395833125 0.4624999999999999
v 0.15625 0.604166875 0.4624999999999999
v 0.078125 0.291666875 0.4624999999999999
v 0.078125 0.395833125 0.4624999999999999
v -0.078125 0.291666875 0.4624999999999999
v -0.078125 0.395833125 0.4624999999999999
v 0.078125 0.604166875 0.4624999999999999
v -0.078125 0.291666875 0.4624999999999999
v 0 0.291666875 0.4624999999999999
v -0.078125 0.395833125 0.4624999999999999
v 0.078125 0.291666875 0.4624999999999999
v 0.078125 0.395833125 0.4624999999999999
v -0.15625 0.395833125 0.4624999999999999
v -0.15625 0.5 0.4624999999999999
v 0.15625 0.395833125 0.4624999999999999
v 0.15625 0.5 0.4624999999999999
v -0.078125 0.604166875 0.4624999999999999
v -0.15625 0.604166875 0.4624999999999999
v 0.15625 0.604166875 0.4624999999999999
v 0 0.708333125 0.4624999999999999
v -0.078125 0.708333125 0.4624999999999999
v 0.078125 0.708333125 0.4624999999999999
v -0.15625 0.208333125 0.3375
v 0 0.125 0.3375
v 0 0.125 0.3999999999999999
v -0.15625 0.208333125 0.3999999999999999
v -0.15625 0.3125 0.3375
v -0.15625 0.3125 0.4624999999999999
v 0.15625 0.208333125 0.3375
v 0.15625 0.208333125 0.3999999999999999
v 0.15625 0.3125 0.3375
v 0.15625 0.3125 0.4624999999999999
v -0.234375 0.3125 0.3375
v -0.234375 0.3125 0.3999999999999999
v -0.3125 0.5 0.3375
v -0.3125 0.5 0.3999999999999999
v 0.234375 0.3125 0.3375
v 0.234375 0.3125 0.3999999999999999
v 0.3125 0.5 0.3375
v 0.3125 0.5 0.3999999999999999
v -0.15625 0.6875 0.3375
v -0.234375 0.6875 0.3375
v -0.234375 0.6875 0.3999999999999999
v -0.15625 0.6875 0.4624999999999999
v 0.234375 0.6875 0.3375
v 0.234375 0.6875 0.3999999999999999
v 0.15625 0.6875 0.3375
v 0.15625 0.6875 0.3999999999999999
v 0 0.875 0.3375
v -0.15625 0.791666875 0.3375
v -0.15625 0.791666875 0.3999999999999999
v 0 0.875 0.3999999999999999
v 0.15625 0.791666875 0.3375
v 0.15625 0.791666875 0.3999999999999999
vt 0.8204462032222327 0.26249536369645043
vt 0.8725999830044581 0.2646077920619261
vt 0.8726923426815066 0.3648110190535685
vt 0.8201945155152259 0.3632260005572494
vt 0.819681024035818 0.5687336421234095
vt 0.8728808049798 0.5692210779190517
vt 0.8729769076010444 0.6734812085575781
vt 0.8194190179421094 0.673564875223073
vt 0.7928621207480436 0.5684879100280857
vt 0.7937323046932495 0.36242713884004285
vt 0.8987302857208518 0.36559717583268125
vt 0.899264009331048 0.5694624717428314
vt 0.7954346489678698 0.2052743561597451
vt 0.8437493521658718 0.13294850382581958
vt 0.8454133847079789 0.09770343749999999
vt 0.7938279761830992 0.17457819193301982
vt 0.7950543158033692 0.2999836502764709
vt 0.7954346489678698 0.2052743561597451
vt 0.7938279761830992 0.17457819193301982
vt 0.793411068678555 0.2755737768894273
vt 0.8437493521658718 0.13294850382581958
vt 0.8914549826792628 0.20974997978636323
vt 0.8963312615621115 0.17968044044606823
vt 0.8454133847079789 0.09770343749999999
vt 0.8914549826792628 0.20974997978636323
vt 0.8916647355201156 0.30354110090608055
vt 0.896587082082637 0.2796322769034889
vt 0.8963312615621115 0.17968044044606823
vt 0.7705964750226414 0.29908301400791826
vt 0.7950543158033692 0.2999836502764709
vt 0.793411068678555 0.2755737768894273
vt 0.7672687097280996 0.2745453730278393
vt 0.7447614004864896 0.4724999638371624
vt 0.7705964750226414 0.29908301400791826
vt 0.7672687097280996 0.2745453730278393
vt 0.7395833333333334 0.45968781792085767
vt 0.8916647355201156 0.30354110090608055
vt 0.9155167013727393 0.30441918995233275
vt 0.9220382259782188 0.2806334362047973
vt 0.896587082082637 0.2796322769034889
vt 0.9155167013727393 0.30441918995233275
vt 0.9401585130824858 0.47619207148884346
vt 0.9484204166666667 0.46390665373794415
vt 0.9220382259782188 0.2806334362047973
vt 0.7936456041323338 0.6508290765692285
vt 0.7686273565238294 0.6508149845552909
vt 0.7650799453292428 0.650429489685128
vt 0.7918635543891561 0.6504457737901227
vt 0.7686273565238294 0.6508149845552909
vt 0.7447614004864896 0.4724999638371624
vt 0.7395833333333334 0.45968781792085767
vt 0.7650799453292428 0.650429489685128
vt 0.9401585130824858 0.47619207148884346
vt 0.916826282592071 0.6508985971713213
vt 0.9235947339577922 0.6505253153799044
vt 0.9484204166666667 0.46390665373794415
vt 0.916826282592071 0.6508985971713213
vt 0.8924415904914311 0.6508848183132487
vt 0.897536116255853 0.650509344430775
vt 0.9235947339577922 0.6505253153799044
vt 0.8395132241636823 0.6610767891047344
vt 0.8395132241636823 0.84375
vt 0.879485180495822 0.84375
vt 0.879485180495822 0.6610767891047344
vt 0.7932428866722877 0.7511313344399004
vt 0.7936456041323338 0.6508290765692285
vt 0.7918635543891561 0.6504457737901227
vt 0.7914202653934329 0.7578316173334858
vt 0.8924415904914311 0.6508848183132487
vt 0.8926636347088559 0.7501571065430065
vt 0.8978079255589116 0.7567158429854841
vt 0.897536116255853 0.650509344430775
vt 0.879485180495822 0.6610767891047344
vt 0.879485180495822 0.84375
vt 0.8395132241636823 0.84375
vt 0.8395132241636823 0.6610767891047344
vt 0.8452909705917114 0.25741449457342314
vt 0.8194623914984637 0.25634412782588745
vt 0.7938279761830992 0.17457819193301982
vt 0.8454133847079789 0.09770343749999999
vt 0.8194623914984637 0.25634412782588745
vt 0.819213765930078 0.35814076548568763
vt 0.793411068678555 0.2755737768894273
vt 0.7938279761830992 0.17457819193301982
vt 0.8709816464356136 0.2584789113595185
vt 0.8452909705917114 0.25741449457342314
vt 0.8454133847079789 0.09770343749999999
vt 0.8963312615621115 0.17968044044606823
vt 0.8710728824259416 0.3597425577366078
vt 0.8709816464356136 0.2584789113595185
vt 0.8963312615621115 0.17968044044606823
vt 0.896587082082637 0.2796322769034889
vt 0.819213765930078 0.35814076548568763
vt 0.7930735055073302 0.35733344966498914
vt 0.7672687097280996 0.2745453730278393
vt 0.793411068678555 0.2755737768894273
vt 0.7930735055073302 0.35733344966498914
vt 0.7926466050137028 0.4607597504477199
vt 0.7395833333333334 0.45968781792085767
vt 0.7672687097280996 0.2745453730278393
vt 0.8967940368865467 0.3605370341668297
vt 0.8710728824259416 0.3597425577366078
vt 0.896587082082637 0.2796322769034889
vt 0.9220382259782188 0.2806334362047973
vt 0.8970559531304131 0.4628691683562629
vt 0.8967940368865467 0.3605370341668297
vt 0.9220382259782188 0.2806334362047973
vt 0.9484204166666667 0.46390665373794415
vt 0.7922139085864076 0.5655748974929786
vt 0.818706521804223 0.5658232300941477
vt 0.7918635543891561 0.6504457737901227
vt 0.7650799453292428 0.650429489685128
vt 0.7926466050137028 0.4607597504477199
vt 0.7922139085864076 0.5655748974929786
vt 0.7650799453292428 0.650429489685128
vt 0.7395833333333334 0.45968781792085767
vt 0.8973212669905678 0.5665597726892921
vt 0.8970559531304131 0.4628691683562629
vt 0.9484204166666667 0.46390665373794415
vt 0.9235947339577922 0.6505253153799044
vt 0.8712590518125588 0.5663158242702371
vt 0.8973212669905678 0.5665597726892921
vt 0.9235947339577922 0.6505253153799044
vt 0.897536116255853 0.650509344430775
vt 0.8184477033869723 0.6717638593192318
vt 0.8449734933285434 0.6717215832774186
vt 0.8448416858025384 0.84375
vt 0.7914202653934329 0.7578316173334858
vt 0.818706521804223 0.5658232300941477
vt 0.8184477033869723 0.6717638593192318
vt 0.7914202653934329 0.7578316173334858
vt 0.7918635543891561 0.6504457737901227
vt 0.8713539852088473 0.6716793072356055
vt 0.8712590518125588 0.5663158242702371
vt 0.897536116255853 0.650509344430775
vt 0.8978079255589116 0.7567158429854841
vt 0.8449734933285434 0.6717215832774186
vt 0.8713539852088473 0.6716793072356055
vt 0.8978079255589116 0.7567158429854841
vt 0.8448416858025384 0.84375
vn 0 0 1
vn 0 0 1
vn 0 0 1
vn -0.47058731935604786 -0.8823534296761638 0
vn -1 0 0
vn 0.47058731935604786 -0.8823534296761638 0
vn 1 0 0
vn 0 -1 0
vn -0.9230769230769231 -0.38461538461538464 0
vn 0 -1 0
vn 0.9230769230769231 -0.38461538461538464 0
vn 0 1 0
vn -0.9230769230769231 0.38461538461538464 0
vn 0.9230769230769231 0.38461538461538464 0
vn 0 1 0
vn -0.47058731935604786 0.8823534296761638 0
vn -1 0 0
vn 1 0 0
vn 0.47058731935604786 0.8823534296761638 0
vn 0 -0.5999980800044161 0.8000014399930881
vn 0 0 1
vn 0 -0.35112305679597106 0.9363293218661121
vn 0.6246950475544243 0 0.7808688094430305
vn 0 -0.600000960001104 0.7999992799982721
vn -0.3713906763541038 0 0.9284766908852594
vn 0 0 1
vn 0.6246950475544243 0 0.7808688094430305
vn 0 0 1
vn -0.6246950475544243 0 0.7808688094430305
vn 0.3713906763541038 0 0.9284766908852594
vn 0 0.600000960001104 0.7999992799982721
vn 0 0.35112305679597106 0.9363293218661121
vn -0.6246950475544243 0 0.7808688094430305
vn 0.6246950475544243 0 0.7808688094430305
vn 0 0.5999980800044161 0.8000014399930881
usemtl m_196ddecc-28ed-2a44-d4d1-aa93caf4524e
f 251/641/161 249/642/161 250/643/161 252/644/161
f 243/645/162 241/646/162 242/647/162 244/648/162
f 245/649/163 246/650/163 247/651/163 248/652/163
f 269/653/164 270/654/164 271/655/164 272/656/164
f 273/657/165 269/658/165 272/659/165 274/660/165
f 270/661/166 275/662/166 276/663/166 271/664/166
f 275/665/167 277/666/167 278/667/167 276/668/167
f 279/669/168 273/670/168 274/671/168 280/672/168
f 281/673/169 279/674/169 280/675/169 282/676/169
f 277/677/170 283/678/170 284/679/170 278/680/170
f 283/681/171 285/682/171 286/683/171 284/684/171
f 287/685/172 288/686/172 289/687/172 290/688/172
f 288/689/173 281/690/173 282/691/173 289/692/173
f 285/693/174 291/694/174 292/695/174 286/696/174
f 291/697/175 293/698/175 294/699/175 292/700/175
f 295/701/176 296/702/176 297/703/176 298/704/176
f 296/705/177 287/706/177 290/707/177 297/708/177
f 293/709/178 299/710/178 300/711/178 294/712/178
f 299/713/179 295/714/179 298/715/179 300/716/179
f 255/717/180 254/718/180 272/719/180 271/720/180
f 254/721/181 256/722/181 274/723/181 272/724/181
f 257/725/182 255/726/182 271/727/182 276/728/182
f 258/729/183 257/730/183 276/731/183 278/732/183
f 256/733/184 259/734/184 280/735/184 274/736/184
f 259/737/185 260/738/185 282/739/185 280/740/185
f 261/741/186 258/742/186 278/743/186 284/744/186
f 262/745/187 261/746/187 284/747/187 286/748/187
f 264/749/188 263/750/188 290/751/188 289/752/188
f 260/753/189 264/754/189 289/755/189 282/756/189
f 265/757/190 262/758/190 286/759/190 292/760/190
f 253/761/191 265/762/191 292/763/191 294/764/191
f 267/765/192 266/766/192 298/767/192 297/768/192
f 263/769/193 267/770/193 297/771/193 290/772/193
f 268/773/194 253/774/194 294/775/194 300/776/194
f 266/777/195 268/778/195 300/779/195 298/780/195
o stone4
v -0.4624999999999999 0.604166875 0.078125
v -0.4624999999999999 0.708333125 0.078125
v -0.4624999999999999 0.604166875 -0.078125
v -0.4624999999999999 0.708333125 -0.078125
v -0.4624999999999999 0.604166875 -0.15625
v -0.4624999999999999 0.395833125 -0.15625
v -0.4624999999999999 0.395833125 0.15625
v -0.4624999999999999 0.604166875 0.15625
v -0.4624999999999999 0.291666875 0.078125
v -0.4624999999999999 0.395833125 0.078125
v -0.4624999999999999 0.291666875 -0.078125
v -0.4624999999999999 0.395833125 -0.078125
v -0.4624999999999999 0.604166875 0.078125
v -0.4624999999999999 0.291666875 -0.078125
v -0.4624999999999999 0.291666875 0
v -0.4624999999999999 0.395833125 -0.078125
v -0.4624999999999999 0.291666875 0.078125
v -0.4624999999999999 0.395833125 0.078125
v -0.4624999999999999 0.395833125 -0.15625
v -0.4624999999999999 0.5 -0.15625
v -0.4624999999999999 0.395833125 0.15625
v -0.4624999999999999 0.5 0.15625
v -0.4624999999999999 0.604166875 -0.078125
v -0.4624999999999999 0.604166875 -0.15625
v -0.4624999999999999 0.604166875 0.15625
v -0.4624999999999999 0.708333125 0
v -0.4624999999999999 0.708333125 -0.078125
v -0.4624999999999999 0.708333125 0.078125
v -0.3375 0.208333125 -0.15625
v -0.3375 0.125 0
v -0.3999999999999999 0.125 0
v -0.3999999999999999 0.208333125 -0.15625
v -0.3375 0.3125 -0.15625
v -0.4624999999999999 0.3125 -0.15625
v -0.3375 0.208333125 0.15625
v -0.3999999999999999 0.208333125 0.15625
v -0.3375 0.3125 0.15625
v -0.4624999999999999 0.3125 0.15625
v -0.3375 0.3125 -0.234375
v -0.3999999999999999 0.3125 -0.234375
v -0.3375 0.5 -0.3125
v -0.3999999999999999 0.5 -0.3125
v -0.3375 0.3125 0.234375
v -0.3999999999999999 0.3125 0.234375
v -0.3375 0.5 0.3125
v -0.3999999999999999 0.5 0.3125
v -0.3375 0.6875 -0.15625
v -0.3375 0.6875 -0.234375
v -0.3999999999999999 0.6875 -0.234375
v -0.4624999999999999 0.6875 -0.15625
v -0.3375 0.6875 0.234375
v -0.3999999999999999 0.6875 0.234375
v -0.3375 0.6875 0.15625
v -0.3999999999999999 0.6875 0.15625
v -0.3375 0.875 0
v -0.3375 0.791666875 -0.15625
v -0.3999999999999999 0.791666875 -0.15625
v -0.3999999999999999 0.875 0
v -0.3375 0.791666875 0.15625
v -0.3999999999999999 0.791666875 0.15625
vt 0.8204462032222327 0.26249536369645043
vt 0.8725999830044581 0.2646077920619261
vt 0.8726923426815066 0.3648110190535685
vt 0.8201945155152259 0.3632260005572494
vt 0.819681024035818 0.5687336421234095
vt 0.8728808049798 0.5692210779190517
vt 0.8729769076010444 0.6734812085575781
vt 0.8194190179421094 0.673564875223073
vt 0.7928621207480436 0.5684879100280857
vt 0.7937323046932495 0.36242713884004285
vt 0.8987302857208518 0.36559717583268125
vt 0.899264009331048 0.5694624717428314
vt 0.7954346489678698 0.2052743561597451
vt 0.8437493521658718 0.13294850382581958
vt 0.8454133847079789 0.09770343749999999
vt 0.7938279761830992 0.17457819193301982
vt 0.7950543158033692 0.2999836502764709
vt 0.7954346489678698 0.2052743561597451
vt 0.7938279761830992 0.17457819193301982
vt 0.793411068678555 0.2755737768894273
vt 0.8437493521658718 0.13294850382581958
vt 0.8914549826792628 0.20974997978636323
vt 0.8963312615621115 0.17968044044606823
vt 0.8454133847079789 0.09770343749999999
vt 0.8914549826792628 0.20974997978636323
vt 0.8916647355201156 0.30354110090608055
vt 0.896587082082637 0.2796322769034889
vt 0.8963312615621115 0.17968044044606823
vt 0.7705964750226414 0.29908301400791826
vt 0.7950543158033692 0.2999836502764709
vt 0.793411068678555 0.2755737768894273
vt 0.7672687097280996 0.2745453730278393
vt 0.7447614004864896 0.4724999638371624
vt 0.7705964750226414 0.29908301400791826
vt 0.7672687097280996 0.2745453730278393
vt 0.7395833333333334 0.45968781792085767
vt 0.8916647355201156 0.30354110090608055
vt 0.9155167013727393 0.30441918995233275
vt 0.9220382259782188 0.2806334362047973
vt 0.896587082082637 0.2796322769034889
vt 0.9155167013727393 0.30441918995233275
vt 0.9401585130824858 0.47619207148884346
vt 0.9484204166666667 0.46390665373794415
vt 0.9220382259782188 0.2806334362047973
vt 0.7936456041323338 0.6508290765692285
vt 0.7686273565238294 0.6508149845552909
vt 0.7650799453292428 0.650429489685128
vt 0.7918635543891561 0.6504457737901227
vt 0.7686273565238294 0.6508149845552909
vt 0.7447614004864896 0.4724999638371624
vt 0.7395833333333334 0.45968781792085767
vt 0.7650799453292428 0.650429489685128
vt 0.9401585130824858 0.47619207148884346
vt 0.916826282592071 0.6508985971713213
vt 0.9235947339577922 0.6505253153799044
vt 0.9484204166666667 0.46390665373794415
vt 0.916826282592071 0.6508985971713213
vt 0.8924415904914311 0.6508848183132487
vt 0.897536116255853 0.650509344430775
vt 0.9235947339577922 0.6505253153799044
vt 0.8395132241636823 0.6610767891047344
vt 0.8395132241636823 0.84375
vt 0.879485180495822 0.84375
vt 0.879485180495822 0.6610767891047344
vt 0.7932428866722877 0.7511313344399004
vt 0.7936456041323338 0.6508290765692285
vt 0.7918635543891561 0.6504457737901227
vt 0.7914202653934329 0.7578316173334858
vt 0.8924415904914311 0.6508848183132487
vt 0.8926636347088559 0.7501571065430065
vt 0.8978079255589116 0.7567158429854841
vt 0.897536116255853 0.650509344430775
vt 0.879485180495822 0.6610767891047344
vt 0.879485180495822 0.84375
vt 0.8395132241636823 0.84375
vt 0.8395132241636823 0.6610767891047344
vt 0.8452909705917114 0.25741449457342314
vt 0.8194623914984637 0.25634412782588745
vt 0.7938279761830992 0.17457819193301982
vt 0.8454133847079789 0.09770343749999999
vt 0.8194623914984637 0.25634412782588745
vt 0.819213765930078 0.35814076548568763
vt 0.793411068678555 0.2755737768894273
vt 0.7938279761830992 0.17457819193301982
vt 0.8709816464356136 0.2584789113595185
vt 0.8452909705917114 0.25741449457342314
vt 0.8454133847079789 0.09770343749999999
vt 0.8963312615621115 0.17968044044606823
vt 0.8710728824259416 0.3597425577366078
vt 0.8709816464356136 0.2584789113595185
vt 0.8963312615621115 0.17968044044606823
vt 0.896587082082637 0.2796322769034889
vt 0.819213765930078 0.35814076548568763
vt 0.7930735055073302 0.35733344966498914
vt 0.7672687097280996 0.2745453730278393
vt 0.793411068678555 0.2755737768894273
vt 0.7930735055073302 0.35733344966498914
vt 0.7926466050137028 0.4607597504477199
vt 0.7395833333333334 0.45968781792085767
vt 0.7672687097280996 0.2745453730278393
vt 0.8967940368865467 0.3605370341668297
vt 0.8710728824259416 0.3597425577366078
vt 0.896587082082637 0.2796322769034889
vt 0.9220382259782188 0.2806334362047973
vt 0.8970559531304131 0.4628691683562629
vt 0.8967940368865467 0.3605370341668297
vt 0.9220382259782188 0.2806334362047973
vt 0.9484204166666667 0.46390665373794415
vt 0.7922139085864076 0.5655748974929786
vt 0.818706521804223 0.5658232300941477
vt 0.7918635543891561 0.6504457737901227
vt 0.7650799453292428 0.650429489685128
vt 0.7926466050137028 0.4607597504477199
vt 0.7922139085864076 0.5655748974929786
vt 0.7650799453292428 0.650429489685128
vt 0.7395833333333334 0.45968781792085767
vt 0.8973212669905678 0.5665597726892921
vt 0.8970559531304131 0.4628691683562629
vt 0.9484204166666667 0.46390665373794415
vt 0.9235947339577922 0.6505253153799044
vt 0.8712590518125588 0.5663158242702371
vt 0.8973212669905678 0.5665597726892921
vt 0.9235947339577922 0.6505253153799044
vt 0.897536116255853 0.650509344430775
vt 0.8184477033869723 0.6717638593192318
vt 0.8449734933285434 0.6717215832774186
vt 0.8448416858025384 0.84375
vt 0.7914202653934329 0.7578316173334858
vt 0.818706521804223 0.5658232300941477
vt 0.8184477033869723 0.6717638593192318
vt 0.7914202653934329 0.7578316173334858
vt 0.7918635543891561 0.6504457737901227
vt 0.8713539852088473 0.6716793072356055
vt 0.8712590518125588 0.5663158242702371
vt 0.897536116255853 0.650509344430775
vt 0.8978079255589116 0.7567158429854841
vt 0.8449734933285434 0.6717215832774186
vt 0.8713539852088473 0.6716793072356055
vt 0.8978079255589116 0.7567158429854841
vt 0.8448416858025384 0.84375
vn -1 0 0
vn -1 0 0
vn -1 0 0
vn 0 -0.8823534296761638 -0.47058731935604786
vn 0 0 -1
vn 0 -0.8823534296761638 0.47058731935604786
vn 0 0 1
vn 0 -1 0
vn 0 -0.38461538461538464 -0.9230769230769231
vn 0 -1 0
vn 0 -0.38461538461538464 0.9230769230769231
vn 0 1 0
vn 0 0.38461538461538464 -0.9230769230769231
vn 0 0.38461538461538464 0.9230769230769231
vn 0 1 0
vn 0 0.8823534296761638 -0.47058731935604786
vn 0 0 -1
vn 0 0 1
vn 0 0.8823534296761638 0.47058731935604786
vn -0.8000014399930881 -0.5999980800044161 0
vn -1 0 0
vn -0.9363293218661121 -0.35112305679597106 0
vn -0.7808688094430305 0 0.6246950475544243
vn -0.7999992799982721 -0.600000960001104 0
vn -0.9284766908852594 0 -0.3713906763541038
vn -1 0 0
vn -0.7808688094430305 0 0.6246950475544243
vn -1 0 0
vn -0.7808688094430305 0 -0.6246950475544243
vn -0.9284766908852594 0 0.3713906763541038
vn -0.7999992799982721 0.600000960001104 0
vn -0.9363293218661121 0.35112305679597106 0
vn -0.7808688094430305 0 -0.6246950475544243
vn -0.7808688094430305 0 0.6246950475544243
vn -0.8000014399930881 0.5999980800044161 0
usemtl m_196ddecc-28ed-2a44-d4d1-aa93caf4524e
f 311/781/196 309/782/196 310/783/196 312/784/196
f 303/785/197 301/786/197 302/787/197 304/788/197
f 305/789/198 306/790/198 307/791/198 308/792/198
f 329/793/199 330/794/199 331/795/199 332/796/199
f 333/797/200 329/798/200 332/799/200 334/800/200
f 330/801/201 335/802/201 336/803/201 331/804/201
f 335/805/202 337/806/202 338/807/202 336/808/202
f 339/809/203 333/810/203 334/811/203 340/812/203
f 341/813/204 339/814/204 340/815/204 342/816/204
f 337/817/205 343/818/205 344/819/205 338/820/205
f 343/821/206 345/822/206 346/823/206 344/824/206
f 347/825/207 348/826/207 349/827/207 350/828/207
f 348/829/208 341/830/208 342/831/208 349/832/208
f 345/833/209 351/834/209 352/835/209 346/836/209
f 351/837/210 353/838/210 354/839/210 352/840/210
f 355/841/211 356/842/211 357/843/211 358/844/211
f 356/845/212 347/846/212 350/847/212 357/848/212
f 353/849/213 359/850/213 360/851/213 354/852/213
f 359/853/214 355/854/214 358/855/214 360/856/214
f 315/857/215 314/858/215 332/859/215 331/860/215
f 314/861/216 316/862/216 334/863/216 332/864/216
f 317/865/217 315/866/217 331/867/217 336/868/217
f 318/869/218 317/870/218 336/871/218 338/872/218
f 316/873/219 319/874/219 340/875/219 334/876/219
f 319/877/220 320/878/220 342/879/220 340/880/220
f 321/881/221 318/882/221 338/883/221 344/884/221
f 322/885/222 321/886/222 344/887/222 346/888/222
f 324/889/223 323/890/223 350/891/223 349/892/223
f 320/893/224 324/894/224 349/895/224 342/896/224
f 325/897/225 322/898/225 346/899/225 352/900/225
f 313/901/226 325/902/226 352/903/226 354/904/226
f 327/905/227 326/906/227 358/907/227 357/908/227
f 323/909/228 327/910/228 357/911/228 350/912/228
f 328/913/229 313/914/229 354/915/229 360/916/229
f 326/917/230 328/918/230 360/919/230 358/920/230