# Made in Blockbench 5.1.6
mtllib DarknessObelisk.mtl

o pPlane1
v 0 0.1875 2.12132
v 2.12132 0.1875 0
v 0 0.1875 -2.12132
v -2.12132 0.1875 0
vt 0 0
vt 1 0
vt 1 1
vt 0 1
vn 0 1 0
usemtl m_4866d84c-f549-14e5-d0a6-6afc1f16ebf8
f 1/1/1 2/2/1 3/3/1 4/4/1
o mesh
v 0.5 0.125 0.5
v 0.5 0.125 -0.5
v 0.5 0 0.5
v 0.5 0 -0.5
v -0.5 0.125 0.5
v -0.5 0.125 -0.5
v -0.5 0 0.5
v -0.5 0 -0.5
vt 1 0.5625
vt 0 0.5625
vt 0 0.5
vt 1 0.5
vt 1 0.5
vt 1 0.5625
vt 0 0.5625
vt 0 0.5
vt 0 0.09375
vt 1 0.09375
vt 1 0.59375
vt 0 0.59375
vt 1 0.09375
vt 1 0.59375
vt 0 0.59375
vt 0 0.09375
vt 1 0.5
vt 1 0.5625
vt 0 0.5625
vt 0 0.5
vt 1 0.5625
vt 0 0.5625
vt 0 0.5
vt 1 0.5
vn 1 0 0
vn -1 0 0
vn 0 1 0
vn 0 -1 0
vn 0 0 1
vn 0 0 -1
usemtl m_8f37d3e1-49ef-53d8-1bc1-360542664f2f
f 6/5/2 5/6/2 7/7/2 8/8/2
f 11/9/3 9/10/3 10/11/3 12/12/3
f 9/13/4 5/14/4 6/15/4 10/16/4
f 8/17/5 7/18/5 11/19/5 12/20/5
f 7/21/6 5/22/6 9/23/6 11/24/6
f 10/25/7 6/26/7 8/27/7 12/28/7
o mesh
v 0.25 0.375 0.25
v 0.25 0.375 -0.25
v 0.25 0.125 0.25
v 0.25 0.125 -0.25
v -0.25 0.375 0.25
v -0.25 0.375 -0.25
v -0.25 0.125 0.25
v -0.25 0.125 -0.25
vt 0.5 0.59375
vt 0 0.59375
vt 0 0.46875
vt 0.5 0.46875
vt 0.5 0.46875
vt 0.5 0.59375
vt 0 0.59375
vt 0 0.46875
vt 0 0.34375
vt 0.5 0.34375
vt 0.5 0.59375
vt 0 0.59375
vt 0.5 0.34375
vt 0.5 0.59375
vt 0 0.59375
vt 0 0.34375
vt 0.5 0.46875
vt 0.5 0.59375
vt 0 0.59375
vt 0 0.46875
vt 0.5 0.59375
vt 0 0.59375
vt 0 0.46875
vt 0.5 0.46875
vn 1 0 0
vn -1 0 0
vn 0 1 0
vn 0 -1 0
vn 0 0 1
vn 0 0 -1
usemtl m_8f37d3e1-49ef-53d8-1bc1-360542664f2f
f 14/29/8 13/30/8 15/31/8 16/32/8
f 19/33/9 17/34/9 18/35/9 20/36/9
f 17/37/10 13/38/10 14/39/10 18/40/10
f 16/41/11 15/42/11 19/43/11 20/44/11
f 15/45/12 13/46/12 17/47/12 19/48/12
f 18/49/13 14/50/13 16/51/13 20/52/13
o mesh
v 0.3125 2.125 0.3125
v 0.3125 2.125 -0.3125
v 0.3125 2 0.3125
v 0.3125 2 -0.3125
v -0.3125 2.125 0.3125
v -0.3125 2.125 -0.3125
v -0.3125 2 0.3125
v -0.3125 2 -0.3125
vt 0.8125 0.21875
vt 0.1875 0.21875
vt 0.1875 0.15625
vt 0.8125 0.15625
vt 0.8125 0.15625
vt 0.8125 0.21875
vt 0.1875 0.21875
vt 0.1875 0.15625
vt 0.1875 0.1875
vt 0.8125 0.1875
vt 0.8125 0.5
vt 0.1875 0.5
vt 0.8125 0.1875
vt 0.8125 0.5
vt 0.1875 0.5
vt 0.1875 0.1875
vt 0.8125 0.15625
vt 0.8125 0.21875
vt 0.1875 0.21875
vt 0.1875 0.15625
vt 0.8125 0.21875
vt 0.1875 0.21875
vt 0.1875 0.15625
vt 0.8125 0.15625
vn 1 0 0
vn -1 0 0
vn 0 1 0
vn 0 -1 0
vn 0 0 1
vn 0 0 -1
usemtl m_8f37d3e1-49ef-53d8-1bc1-360542664f2f
f 22/53/14 21/54/14 23/55/14 24/56/14
f 27/57/15 25/58/15 26/59/15 28/60/15
f 25/61/16 21/62/16 22/63/16 26/64/16
f 24/65/17 23/66/17 27/67/17 28/68/17
f 23/69/18 21/70/18 25/71/18 27/72/18
f 26/73/19 22/74/19 24/75/19 28/76/19
o mesh_selection
v -0.4375 2 0.4375
v -0.4375 2 -0.4375
v 0 2 0.5625
v 0 2 -0.5625
v 0 2 0
v -0.5625 2 0
v 0.4375 2 0.4375
v 0.4375 2 -0.4375
v 0.5625 2 0
v 0.5625 0.375 0
v 0.4375 0.375 -0.4375
v 0 0.375 -0.5625
v 0 0.375 0
v -0.4375 0.375 -0.4375
v -0.5625 0.375 0
v 0 0.375 0.5625
v -0.4375 0.375 0.4375
v 0.4375 0.375 0.4375
vt 0.5625 0.5
vt 0.5625 0.78125
vt 0 0.78125
vt 0.125 0.5625
vt 0.5625 0.71875
vt 0.5625 1
vt 0.125 0.9375
vt 0 0.71875
vt 0.4375 0.5625
vt 0.5625 0.78125
vt 0 0.78125
vt 0 0.5
vt 0.5625 0.71875
vt 0.4375 0.9375
vt 0 1
vt 0 0.71875
vt 0.9375 0.09375
vt 0.9375 0.90625
vt 0.5 0.90625
vt 0.5 0.09375
vt 0.5 0.90625
vt 0.0625 0.90625
vt 0.0625 0.09375
vt 0.5 0.09375
vt 0.9375 0.09375
vt 0.9375 0.90625
vt 0.5 0.90625
vt 0.5 0.09375
vt 0.5 0.90625
vt 0.0625 0.90625
vt 0.0625 0.09375
vt 0.5 0.09375
vt 0.9375 0.90625
vt 0.5 0.90625
vt 0.5 0.09375
vt 0.9375 0.09375
vt 0.5 0.90625
vt 0.0625 0.90625
vt 0.0625 0.09375
vt 0.5 0.09375
vt 0.9375 0.90625
vt 0.5 0.90625
vt 0.5 0.09375
vt 0.9375 0.09375
vt 0.5 0.90625
vt 0.0625 0.90625
vt 0.0625 0.09375
vt 0.5 0.09375
vt 0 0.78125
vt 0.5625 0.78125
vt 0.5625 0.5
vt 0.125 0.5625
vt 0.125 0.9375
vt 0.5625 1
vt 0.5625 0.71875
vt 0 0.71875
vt 0 0.78125
vt 0.5625 0.78125
vt 0.4375 0.5625
vt 0 0.5
vt 0 1
vt 0.4375 0.9375
vt 0.5625 0.71875
vt 0 0.71875
vn 0 1 0
vn 0 1 0
vn 0 1 0
vn 0 1 0
vn -0.9615239476408233 0 0.27472112789737807
vn -0.9615239476408233 0 -0.27472112789737807
vn 0.27472112789737807 0 0.9615239476408233
vn -0.27472112789737807 0 0.9615239476408233
vn 0.9615239476408233 0 -0.27472112789737807
vn 0.9615239476408233 0 0.27472112789737807
vn -0.27472112789737807 0 -0.9615239476408233
vn 0.27472112789737807 0 -0.9615239476408233
vn 0 -1 0
vn 0 -1 0
vn 0 -1 0
vn 0 -1 0
usemtl m_8f37d3e1-49ef-53d8-1bc1-360542664f2f
f 31/77/20 33/78/20 34/79/20 29/80/20
f 33/81/21 32/82/21 30/83/21 34/84/21
f 35/85/22 37/86/22 33/87/22 31/88/22
f 37/89/23 36/90/23 32/91/23 33/92/23
f 45/93/24 29/94/24 34/95/24 43/96/24
f 34/97/25 30/98/25 42/99/25 43/100/25
f 46/101/26 35/102/26 31/103/26 44/104/26
f 31/105/27 29/106/27 45/107/27 44/108/27
f 36/109/28 37/110/28 38/111/28 39/112/28
f 37/113/29 35/114/29 46/115/29 38/116/29
f 30/117/30 32/118/30 40/119/30 42/120/30
f 32/121/31 36/122/31 39/123/31 40/124/31
f 43/125/32 41/126/32 44/127/32 45/128/32
f 42/129/33 40/130/33 41/131/33 43/132/33
f 41/133/34 38/134/34 46/135/34 44/136/34
f 40/137/35 39/138/35 38/139/35 41/140/35