# Made in Blockbench 5.1.6
mtllib EnderGenerator.mtl

o down
v 0.5 0 0.5
v 0.5 0 -0.5
v -0.5 0 0.5
v -0.5 0 -0.5
vt 1 0
vt 1 1
vt 0.6666666666666666 1
vt 0.6666666666666666 0
vn 0 -1 0
usemtl m_d17cf1e0-9035-93b3-0ada-69b892a71d1a
f 2/1/1 1/2/1 3/3/1 4/4/1
o up
v 0.375 1 0.375
v 0.375 1 0.125
v 0.125 1 0.375
v 0.125 1 0.125
v -0.125 1 0.375
v -0.125 1 0.125
v -0.375 1 0.375
v -0.375 1 0.125
v -0.125 1 -0.125
v -0.125 1 -0.375
v -0.375 1 -0.125
v -0.375 1 -0.375
v 0.125 1 -0.125
v 0.125 1 -0.375
v 0.375 1 -0.125
v 0.375 1 -0.375
v 0.125 0.75 0.125
v 0.125 0.75 -0.125
v -0.125 0.75 0.125
v -0.125 0.75 -0.125
vt 0.20833333333333334 0.375
vt 0.2916666666666667 0.375
vt 0.2916666666666667 0.625
vt 0.20833333333333334 0.625
vt 0.20833333333333334 0.125
vt 0.2916666666666667 0.125
vt 0.2916666666666667 0.375
vt 0.20833333333333334 0.375
vt 0.125 0.125
vt 0.20833333333333334 0.125
vt 0.20833333333333334 0.375
vt 0.125 0.375
vt 0.041666666666666664 0.125
vt 0.125 0.125
vt 0.125 0.375
vt 0.041666666666666664 0.375
vt 0.041666666666666664 0.375
vt 0.125 0.375
vt 0.125 0.625
vt 0.041666666666666664 0.625
vt 0.041666666666666664 0.625
vt 0.125 0.625
vt 0.125 0.875
vt 0.041666666666666664 0.875
vt 0.125 0.625
vt 0.20833333333333334 0.625
vt 0.20833333333333334 0.875
vt 0.125 0.875
vt 0.20833333333333334 0.625
vt 0.2916666666666667 0.625
vt 0.2916666666666667 0.875
vt 0.20833333333333334 0.875
vt 0.125 0.375
vt 0.20833333333333334 0.375
vt 0.20833333333333334 0.625
vt 0.125 0.625
vt 0.7916666666666666 0.40625
vt 0.875 0.40625
vt 0.875 0.65625
vt 0.7916666666666666 0.65625
vt 0.7916666666666666 0.40625
vt 0.875 0.40625
vt 0.875 0.65625
vt 0.7916666666666666 0.65625
vt 0.7916666666666666 0.40625
vt 0.875 0.40625
vt 0.875 0.65625
vt 0.7916666666666666 0.65625
vt 0.7916666666666666 0.40625
vt 0.875 0.40625
vt 0.875 0.65625
vt 0.7916666666666666 0.65625
vn 0 1 0
vn 0 1 0
vn 0 1 0
vn 0 1 0
vn 0 1 0
vn 0 1 0
vn 0 1 0
vn 0 1 0
vn 0 1 0
vn -1 0 0
vn 0 0 -1
vn 0 0 1
vn 1 0 0
usemtl m_d17cf1e0-9035-93b3-0ada-69b892a71d1a
f 8/5/2 6/6/2 19/7/2 17/8/2
f 7/9/3 5/10/3 6/11/3 8/12/3
f 9/13/4 7/14/4 8/15/4 10/16/4
f 11/17/5 9/18/5 10/19/5 12/20/5
f 12/21/6 10/22/6 13/23/6 15/24/6
f 15/25/7 13/26/7 14/27/7 16/28/7
f 13/29/8 17/30/8 18/31/8 14/32/8
f 17/33/9 19/34/9 20/35/9 18/36/9
f 23/37/10 21/38/10 22/39/10 24/40/10
f 17/41/11 22/42/11 21/43/11 8/44/11
f 8/45/12 21/46/12 23/47/12 10/48/12
f 13/49/13 24/50/13 22/51/13 17/52/13
f 10/53/14 23/54/14 24/55/14 13/56/14
o side3
v 0.5 1 -0.5
v 0.5 0.875 -0.5
v -0.5 1 -0.5
v -0.5 0.875 -0.5
v 0.5 0.875 -0.5
v 0.5 0.75 -0.5
v 0.25 0.875 -0.5
v 0.25 0.75 -0.5
v 0.5 0.75 -0.5
v 0.5 0 -0.5
v -0.5 0.75 -0.5
v -0.5 0 -0.5
v -0.25 0.875 -0.5
v -0.25 0.75 -0.5
v -0.5 0.875 -0.5
v -0.5 0.75 -0.5
v 0.25 0.875 -0.375
v 0.25 0.75 -0.375
v -0.25 0.875 -0.375
v -0.25 0.75 -0.375
v 0.25 0.75 -0.5
v -0.25 0.75 -0.5
v -0.25 0.875 -0.5
v 0.25 0.875 -0.5
vt 0.6666666666666666 0.9375
vt 0.3333333333333333 0.9375
vt 0.3333333333333333 0.8125
vt 0.6666666666666666 0.8125
vt 0.4166666666666667 0.84375
vt 0.3333333333333333 0.84375
vt 0.3333333333333333 0.71875
vt 0.4166666666666667 0.71875
vt 0.6666666666666666 0.75
vt 0.3333333333333333 0.75
vt 0.3333333333333333 0
vt 0.6666666666666666 0
vt 0.6666666666666666 0.84375
vt 0.5833333333333334 0.84375
vt 0.5833333333333334 0.71875
vt 0.6666666666666666 0.71875
vt 0.5833333333333334 0.75
vt 0.4166666666666667 0.75
vt 0.4166666666666667 0.625
vt 0.5833333333333334 0.625
vt 0.7291666666666666 0.5
vt 0.7291666666666666 0.375
vt 0.7708333333333334 0.375
vt 0.7708333333333334 0.5
vt 0.9166666666666666 0.8125
vt 0.75 0.8125
vt 0.75 0.6875
vt 0.9166666666666666 0.6875
vt 0.7291666666666666 0.5
vt 0.7291666666666666 0.375
vt 0.7708333333333334 0.375
vt 0.7708333333333334 0.5
vt 0.9166666666666666 0.6875
vt 0.9166666666666666 0.8125
vt 0.75 0.8125
vt 0.75 0.6875
vn 0 0 -1
vn 0 0 -1
vn 0 0 -1
vn 0 0 -1
vn 0 0 -1
vn 1 0 0
vn 0 -1 0
vn -1 0 0
vn 0 1 0
usemtl m_d17cf1e0-9035-93b3-0ada-69b892a71d1a
f 27/57/15 25/58/15 26/59/15 28/60/15
f 31/61/16 29/62/16 30/63/16 32/64/16
f 35/65/17 33/66/17 34/67/17 36/68/17
f 39/69/18 37/70/18 38/71/18 40/72/18
f 43/73/19 41/74/19 42/75/19 44/76/19
f 46/77/20 47/78/20 43/79/20 44/80/20
f 47/81/21 48/82/21 41/83/21 43/84/21
f 48/85/22 45/86/22 42/87/22 41/88/22
f 42/89/23 45/90/23 46/91/23 44/92/23
o frameup
v 0.5 1.0625 -0.5
v -0.5 1.0625 -0.5
v 0.5000000000000001 1.125 -0.5
v -0.49999999999999994 1.125 -0.5
v 0.5 1 -0.5
v -0.5 1 -0.5
v 0.5000000000000001 1.0625 -0.5
v -0.49999999999999994 1.0625 -0.5
v -0.5 1.0625 -0.5
v -0.5 1.0625 0.5
v -0.5 1.125 -0.5000000000000001
v -0.5 1.125 0.49999999999999994
v -0.5 1 -0.5
v -0.5 1 0.5
v -0.5 1.0625 -0.5000000000000001
v -0.5 1.0625 0.49999999999999994
v -0.5 1.0625 0.5
v 0.5 1.0625 0.5
v -0.5000000000000001 1.125 0.5
v 0.49999999999999994 1.125 0.5
v -0.5 1 0.5
v 0.5 1 0.5
v -0.5000000000000001 1.0625 0.5
v 0.49999999999999994 1.0625 0.5
v 0.5 1.0625 0.5
v 0.5 1.0625 -0.5
v 0.5 1.125 0.5000000000000001
v 0.5 1.125 -0.49999999999999994
v 0.5 1 0.5
v 0.5 1 -0.5
v 0.5 1.0625 0.5000000000000001
v 0.5 1.0625 -0.49999999999999994
v 0.375 1 0.375
v 0.375 1 -0.375
v -0.375 1 0.375
v -0.375 1 -0.375
v 0.49999999999999994 1.125 0.5
v 0.5000000000000001 1.125 0.375
v 0.37500000000000006 1.125 0.375
v 0.3749999999999999 1.125 0.5
v 0.49999999999999994 1.125 -0.375
v 0.5000000000000001 1.125 -0.5
v 0.37500000000000006 1.125 -0.5
v 0.3749999999999999 1.125 -0.375
v -0.37500000000000006 1.125 -0.375
v -0.3749999999999999 1.125 -0.5
v -0.49999999999999994 1.125 -0.5
v -0.5000000000000001 1.125 -0.375
v -0.37500000000000006 1.125 0.5
v -0.3749999999999999 1.125 0.375
v -0.49999999999999994 1.125 0.375
v -0.5000000000000001 1.125 0.5
vt 1 0.0625
vt 0.5 0.0625
vt 0.5 0
vt 1 0
vt 0.6666666666666666 1
vt 0.3333333333333333 1
vt 0.3333333333333333 0.9375
vt 0.6666666666666666 0.9375
vt 1 0.0625
vt 0.5 0.0625
vt 0.5 0
vt 1 0
vt 0.6666666666666666 1
vt 0.3333333333333333 1
vt 0.3333333333333333 0.9375
vt 0.6666666666666666 0.9375
vt 1 0.0625
vt 0.5 0.0625
vt 0.5 0
vt 1 0
vt 0.6666666666666666 1
vt 0.3333333333333333 1
vt 0.3333333333333333 0.9375
vt 0.6666666666666666 0.9375
vt 1 0.0625
vt 0.5 0.0625
vt 0.5 0
vt 1 0
vt 0.6666666666666666 1
vt 0.3333333333333333 1
vt 0.3333333333333333 0.9375
vt 0.6666666666666666 0.9375
vt 0.041666666666666664 0
vt 0.2916666666666667 0
vt 0.2916666666666667 0.125
vt 0.041666666666666664 0.125
vt 0.041666666666666664 0.875
vt 0.2916666666666667 0.875
vt 0.2916666666666667 1
vt 0.041666666666666664 1
vt 0.041666666666666664 0.125
vt 0.041666666666666664 0.875
vt 0 0.875
vt 0 0.125
vt 0.3333333333333333 0.125
vt 0.3333333333333333 0.875
vt 0.2916666666666667 0.875
vt 0.2916666666666667 0.125
vt 0.3333333333333333 0
vt 0.3333333333333333 0.125
vt 0.2916666666666667 0.125
vt 0.2916666666666667 0
vt 0.3333333333333333 0.875
vt 0.3333333333333333 1
vt 0.2916666666666667 1
vt 0.2916666666666667 0.875
vt 0.041666666666666664 0.875
vt 0.041666666666666664 1
vt 0 1
vt 0 0.875
vt 0.041666666666666664 0
vt 0.041666666666666664 0.125
vt 0 0.125
vt 0 0
vt 0.041666666666666664 0.9375
vt 0.041666666666666664 0.8125
vt 0.2916666666666667 0.8125
vt 0.2916666666666667 0.9375
vt 0.041666666666666664 0.9375
vt 0.041666666666666664 0.8125
vt 0.2916666666666667 0.8125
vt 0.2916666666666667 0.9375
vt 0.041666666666666664 0.9375
vt 0.041666666666666664 0.8125
vt 0.2916666666666667 0.8125
vt 0.2916666666666667 0.9375
vt 0.041666666666666664 0.9375
vt 0.041666666666666664 0.8125
vt 0.2916666666666667 0.8125
vt 0.2916666666666667 0.9375
vn 0 0 -1
vn 0 0 -1
vn -1 0 0
vn -1 0 0
vn 0 0 1
vn 0 0 1
vn 1 0 0
vn 1 0 0
vn 0 1 0
vn 0 1 0
vn 0 1 0
vn 0 1 0
vn 0 1 0
vn 0 1 0
vn 0 1 0
vn 0 1 0
vn 0 0 -1
vn -1 -8.88178419700125216 0
vn 0 0 1
vn 1 -8.88178419700125216 0
usemtl m_d17cf1e0-9035-93b3-0ada-69b892a71d1a
f 52/93/24 51/94/24 49/95/24 50/96/24
f 56/97/25 55/98/25 53/99/25 54/100/25
f 60/101/26 59/102/26 57/103/26 58/104/26
f 64/105/27 63/106/27 61/107/27 62/108/27
f 68/109/28 67/110/28 65/111/28 66/112/28
f 72/113/29 71/114/29 69/115/29 70/116/29
f 76/117/30 75/118/30 73/119/30 74/120/30
f 80/121/31 79/122/31 77/123/31 78/124/31
f 97/125/32 88/126/32 87/127/32 98/128/32
f 93/129/33 92/130/33 91/131/33 94/132/33
f 98/133/34 93/134/34 96/135/34 99/136/34
f 86/137/35 89/138/35 92/139/35 87/140/35
f 85/141/36 86/142/36 87/143/36 88/144/36
f 89/145/37 90/146/37 91/147/37 92/148/37
f 93/149/38 94/150/38 95/151/38 96/152/38
f 97/153/39 98/154/39 99/155/39 100/156/39
f 87/157/40 81/158/40 83/159/40 98/160/40
f 92/161/41 82/162/41 81/163/41 87/164/41
f 93/165/42 84/166/42 82/167/42 92/168/42
f 98/169/43 83/170/43 84/171/43 93/172/43
o side2
v 0.5 1 0.5
v 0.5 0.875 0.5
v 0.5 1 -0.5
v 0.5 0.875 -0.5
v 0.5 0.875 0.5
v 0.5 0.75 0.5
v 0.5 0.875 0.25
v 0.5 0.75 0.25
v 0.5 0.75 0.5
v 0.5 0 0.5
v 0.5 0.75 -0.5
v 0.5 0 -0.5
v 0.5 0.875 -0.25
v 0.5 0.75 -0.25
v 0.5 0.875 -0.5
v 0.5 0.75 -0.5
v 0.375 0.875 0.25
v 0.375 0.75 0.25
v 0.375 0.875 -0.25
v 0.375 0.75 -0.25
v 0.5 0.75 0.25
v 0.5 0.75 -0.25
v 0.5 0.875 -0.25
v 0.5 0.875 0.25
vt 0.6666666666666666 0.9375
vt 0.3333333333333333 0.9375
vt 0.3333333333333333 0.8125
vt 0.6666666666666666 0.8125
vt 0.4166666666666667 0.84375
vt 0.3333333333333333 0.84375
vt 0.3333333333333333 0.71875
vt 0.4166666666666667 0.71875
vt 0.6666666666666666 0.75
vt 0.3333333333333333 0.75
vt 0.3333333333333333 0
vt 0.6666666666666666 0
vt 0.6666666666666666 0.84375
vt 0.5833333333333334 0.84375
vt 0.5833333333333334 0.71875
vt 0.6666666666666666 0.71875
vt 0.5833333333333334 0.75
vt 0.4166666666666667 0.75
vt 0.4166666666666667 0.625
vt 0.5833333333333334 0.625
vt 0.7291666666666666 0.5
vt 0.7291666666666666 0.375
vt 0.7708333333333334 0.375
vt 0.7708333333333334 0.5
vt 0.9166666666666666 0.8125
vt 0.75 0.8125
vt 0.75 0.6875
vt 0.9166666666666666 0.6875
vt 0.7291666666666666 0.5
vt 0.7291666666666666 0.375
vt 0.7708333333333334 0.375
vt 0.7708333333333334 0.5
vt 0.9166666666666666 0.6875
vt 0.9166666666666666 0.8125
vt 0.75 0.8125
vt 0.75 0.6875
vn 1 0 0
vn 1 0 0
vn 1 0 0
vn 1 0 0
vn 1 0 0
vn 0 0 1
vn 0 -1 0
vn 0 0 -1
vn 0 1 0
usemtl m_d17cf1e0-9035-93b3-0ada-69b892a71d1a
f 103/173/44 101/174/44 102/175/44 104/176/44
f 107/177/45 105/178/45 106/179/45 108/180/45
f 111/181/46 109/182/46 110/183/46 112/184/46
f 115/185/47 113/186/47 114/187/47 116/188/47
f 119/189/48 117/190/48 118/191/48 120/192/48
f 122/193/49 123/194/49 119/195/49 120/196/49
f 123/197/50 124/198/50 117/199/50 119/200/50
f 124/201/51 121/202/51 118/203/51 117/204/51
f 118/205/52 121/206/52 122/207/52 120/208/52
o side1
v -0.5 1 0.5
v -0.5 0.875 0.5
v 0.5 1 0.5
v 0.5 0.875 0.5
v -0.5 0.875 0.5
v -0.5 0.75 0.5
v -0.25 0.875 0.5
v -0.25 0.75 0.5
v -0.5 0.75 0.5
v -0.5 0 0.5
v 0.5 0.75 0.5
v 0.5 0 0.5
v 0.25 0.875 0.5
v 0.25 0.75 0.5
v 0.5 0.875 0.5
v 0.5 0.75 0.5
v -0.25 0.875 0.375
v -0.25 0.75 0.375
v 0.25 0.875 0.375
v 0.25 0.75 0.375
v -0.25 0.75 0.5
v 0.25 0.75 0.5
v 0.25 0.875 0.5
v -0.25 0.875 0.5
vt 0.6666666666666666 0.9375
vt 0.3333333333333333 0.9375
vt 0.3333333333333333 0.8125
vt 0.6666666666666666 0.8125
vt 0.4166666666666667 0.84375
vt 0.3333333333333333 0.84375
vt 0.3333333333333333 0.71875
vt 0.4166666666666667 0.71875
vt 0.6666666666666666 0.75
vt 0.3333333333333333 0.75
vt 0.3333333333333333 0
vt 0.6666666666666666 0
vt 0.6666666666666666 0.84375
vt 0.5833333333333334 0.84375
vt 0.5833333333333334 0.71875
vt 0.6666666666666666 0.71875
vt 0.5833333333333334 0.75
vt 0.4166666666666667 0.75
vt 0.4166666666666667 0.625
vt 0.5833333333333334 0.625
vt 0.7291666666666666 0.5
vt 0.7291666666666666 0.375
vt 0.7708333333333334 0.375
vt 0.7708333333333334 0.5
vt 0.9166666666666666 0.8125
vt 0.75 0.8125
vt 0.75 0.6875
vt 0.9166666666666666 0.6875
vt 0.7291666666666666 0.5
vt 0.7291666666666666 0.375
vt 0.7708333333333334 0.375
vt 0.7708333333333334 0.5
vt 0.9166666666666666 0.6875
vt 0.9166666666666666 0.8125
vt 0.75 0.8125
vt 0.75 0.6875
vn 0 0 1
vn 0 0 1
vn 0 0 1
vn 0 0 1
vn 0 0 1
vn -1 0 0
vn 0 -1 0
vn 1 0 0
vn 0 1 0
usemtl m_d17cf1e0-9035-93b3-0ada-69b892a71d1a
f 127/209/53 125/210/53 126/211/53 128/212/53
f 131/213/54 129/214/54 130/215/54 132/216/54
f 135/217/55 133/218/55 134/219/55 136/220/55
f 139/221/56 137/222/56 138/223/56 140/224/56
f 143/225/57 141/226/57 142/227/57 144/228/57
f 146/229/58 147/230/58 143/231/58 144/232/58
f 147/233/59 148/234/59 141/235/59 143/236/59
f 148/237/60 145/238/60 142/239/60 141/240/60
f 142/241/61 145/242/61 146/243/61 144/244/61
o side4
v -0.5 1 -0.5
v -0.5 0.875 -0.5
v -0.5 1 0.5
v -0.5 0.875 0.5
v -0.5 0.875 -0.5
v -0.5 0.75 -0.5
v -0.5 0.875 -0.25
v -0.5 0.75 -0.25
v -0.5 0.75 -0.5
v -0.5 0 -0.5
v -0.5 0.75 0.5
v -0.5 0 0.5
v -0.5 0.875 0.25
v -0.5 0.75 0.25
v -0.5 0.875 0.5
v -0.5 0.75 0.5
v -0.375 0.875 -0.25
v -0.375 0.75 -0.25
v -0.375 0.875 0.25
v -0.375 0.75 0.25
v -0.5 0.75 -0.25
v -0.5 0.75 0.25
v -0.5 0.875 0.25
v -0.5 0.875 -0.25
vt 0.6666666666666666 0.9375
vt 0.3333333333333333 0.9375
vt 0.3333333333333333 0.8125
vt 0.6666666666666666 0.8125
vt 0.4166666666666667 0.84375
vt 0.3333333333333333 0.84375
vt 0.3333333333333333 0.71875
vt 0.4166666666666667 0.71875
vt 0.6666666666666666 0.75
vt 0.3333333333333333 0.75
vt 0.3333333333333333 0
vt 0.6666666666666666 0
vt 0.6666666666666666 0.84375
vt 0.5833333333333334 0.84375
vt 0.5833333333333334 0.71875
vt 0.6666666666666666 0.71875
vt 0.5833333333333334 0.75
vt 0.4166666666666667 0.75
vt 0.4166666666666667 0.625
vt 0.5833333333333334 0.625
vt 0.7291666666666666 0.5
vt 0.7291666666666666 0.375
vt 0.7708333333333334 0.375
vt 0.7708333333333334 0.5
vt 0.9166666666666666 0.8125
vt 0.75 0.8125
vt 0.75 0.6875
vt 0.9166666666666666 0.6875
vt 0.7291666666666666 0.5
vt 0.7291666666666666 0.375
vt 0.7708333333333334 0.375
vt 0.7708333333333334 0.5
vt 0.9166666666666666 0.6875
vt 0.9166666666666666 0.8125
vt 0.75 0.8125
vt 0.75 0.6875
vn -1 0 0
vn -1 0 0
vn -1 0 0
vn -1 0 0
vn -1 0 0
vn 0 0 -1
vn 0 -1 0
vn 0 0 1
vn 0 1 0
usemtl m_d17cf1e0-9035-93b3-0ada-69b892a71d1a
f 151/245/62 149/246/62 150/247/62 152/248/62
f 155/249/63 153/250/63 154/251/63 156/252/63
f 159/253/64 157/254/64 158/255/64 160/256/64
f 163/257/65 161/258/65 162/259/65 164/260/65
f 167/261/66 165/262/66 166/263/66 168/264/66
f 170/265/67 171/266/67 167/267/67 168/268/67
f 171/269/68 172/270/68 165/271/68 167/272/68
f 172/273/69 169/274/69 166/275/69 165/276/69
f 166/277/70 169/278/70 170/279/70 168/280/70