# Made in Blockbench 5.1.6
mtllib flowerBurner.mtl

o down
v 0.5 0.125 0.5
v 0.5 0.125 -0.5
v 0.5 0 0.5
v 0.5 0 -0.5
v -0.5 0.125 0.5
v -0.5 0.125 -0.5
v -0.5 0 0.5
v -0.5 0 -0.5
v 0.4375 0.5 0.4375
v -0.4375 0.5 0.4375
v 0.4375 0.5 -0.4375
v -0.4375 0.5 -0.4375
vt 1 0.125
vt 0 0.125
vt 0 0
vt 1 0
vt 1 0
vt 1 0.125
vt 0 0.125
vt 0 0
vt 0.01649928426743713 0.01926142078162507
vt 0.9865483288577994 0.019261585110581625
vt 0.9865480062161385 0.9893104796252301
vt 0.016499284267437297 0.9893103068476599
vt 1 0
vt 1 1
vt 0 1
vt 0 0
vt 1 0
vt 1 0.125
vt 0 0.125
vt 0 0
vt 1 0.125
vt 0 0.125
vt 0 0
vt 1 0
vt 1 0
vt 1 1
vt 0 1
vt 0 0
vn 1 0 0
vn -1 0 0
vn 0 1 0
vn 0 -1 0
vn 0 0 1
vn 0 0 -1
vn 0 -1 0
usemtl m_27e31f94-6ec4-d5bd-cb9f-7f6665701c68
f 2/1/1 1/2/1 3/3/1 4/4/1
f 7/5/2 5/6/2 6/7/2 8/8/2
f 5/9/3 1/10/3 2/11/3 6/12/3
f 4/13/4 3/14/4 7/15/4 8/16/4
f 3/17/5 1/18/5 5/19/5 7/20/5
f 6/21/6 2/22/6 4/23/6 8/24/6
f 11/25/7 9/26/7 10/27/7 12/28/7
o up
v -0.375 1 0.375
v -0.25 1 0.375
v 0.25 1 0.375
v 0.375 1 0.375
v -0.25 1 0.25
v 0.25 1 0.25
v -0.25 0.875 0.25
v -0.125 0.875 0.125
v -0.25 0.875 0.125
v 0.125 0.875 0.125
v 0.25 0.875 0.25
v 0.25 0.875 0.125
v -0.125 0.875 -0.125
v -0.25 0.875 -0.125
v 0.25 0.875 -0.125
v 0.125 0.875 -0.125
v -0.25 1 -0.25
v -0.25 0.875 -0.25
v 0.25 0.875 -0.25
v 0.25 1 -0.25
v -0.375 1 -0.375
v -0.25 1 -0.375
v 0.25 1 -0.375
v 0.375 1 -0.375
v -0.125 0.5 0.186082
v -0.125 0.5 0.123298
v -0.125 0.54856 0.186082
v -0.125 0.54856 0.123298
v 0 0.54856 0.123298
v 0.125 0.5 0.186082
v 0.125 0.54856 0.186082
v 0.125 0.54856 0.123298
v 0.125 0.5 0.123298
v -0.125 0.5 -0.186082
v -0.125 0.5 -0.123298
v -0.125 0.54856 -0.186082
v 0 0.54856 -0.123298
v -0.125 0.54856 -0.123298
v 0.125 0.5 -0.186082
v 0.125 0.54856 -0.186082
v 0.125 0.54856 -0.123298
v 0.125 0.5 -0.123298
v 0.186082 0.5 -0.125
v 0.123298 0.5 -0.125
v 0.186082 0.54856 -0.125
v 0.123298 0.54856 0
v 0.123298 0.54856 -0.125
v 0.186082 0.5 0.125
v 0.186082 0.54856 0.125
v 0.123298 0.54856 0.125
v 0.123298 0.5 0.125
v -0.186082 0.5 -0.125
v -0.123298 0.5 -0.125
v -0.186082 0.54856 -0.125
v -0.123298 0.54856 -0.125
v -0.123298 0.54856 0
v -0.186082 0.5 0.125
v -0.186082 0.54856 0.125
v -0.123298 0.54856 0.125
v -0.123298 0.5 0.125
v -0.125 0.543042 0.125
v 0.125 0.543042 0.125
v -0.125 0.543042 -0.125
v 0.125 0.543042 -0.125
v 0 0.5 0.123298
v 0 0.5 -0.123298
v 0.123298 0.5 0
v -0.123298 0.5 0
vt 0.28125 0.09375
vt 0.78125 0.09375
vt 0.78125 0.21875
vt 0.28125 0.21875
vt 0.25 0.625
vt 0.125 0.625
vt 0.125 0.375
vt 0.25 0.375
vt 0.90625 0.625
vt 0.78125 0.625
vt 0.78125 0.375
vt 0.90625 0.375
vt 0.25 0.75
vt 0.75 0.75
vt 0.75 0.875
vt 0.25 0.875
vt 0.1875 0.09375
vt 0.1875 0.84375
vt 0.0625 0.84375
vt 0.0625 0.09375
vt 0.5625 0.78125
vt 0.5625 0.90625
vt 0.0625 0.90625
vt 0.0625 0.78125
vt 0.9104501500456359 0.14973041066417114
vt 0.910450025077604 0.8986436110667935
vt 0.7856311811963202 0.8986436103124376
vt 0.7856312622413044 0.14973041105998064
vt 0.343728 0.625
vt 0.406228 0.625
vt 0.406228 0.625
vt 0.343728 0.625
vt 0.656228 0.125
vt 0.593728 0.125
vt 0.593728 0.125
vt 0.656228 0.125
vt 0.156228 0.125
vt 0.156228 0.125
vt 0.093728 0.125
vt 0.093728 0.125
vt 0.625 0.21875
vt 0.125 0.21875
vt 0.125 0.09375
vt 0.625 0.09375
vt 0.65625 0.09375
vt 0.65625 0.21875
vt 0.15625 0.21875
vt 0.15625 0.09375
vt 0.6875 0.21875
vt 0.1875 0.21875
vt 0.1875 0.09375
vt 0.6875 0.09375
vt 0.625 0.09375
vt 0.625 0.21875
vt 0.125 0.21875
vt 0.125 0.09375
vt 0.25 0.53125
vt 0.0625 0.53125
vt 0.0625 0.23054375000000005
vt 0.25 0.23054375000000005
vt 0.25 0.23054375000000005
vt 0.25 0.5625
vt 0.0625 0.5625
vt 0.0625 0.23054375000000005
vt 0.25 0.5625
vt 0.0625 0.5625
vt 0.0625 0.23054375000000005
vt 0.25 0.23054375000000005
vt 0.25 0.26179375000000005
vt 0.25 0.5625
vt 0.09375 0.5625
vt 0.09375 0.26179375000000005
vt 0.4375 0.18749999999999722
vt 0.4375 0.13893749999999727
vt 0.3125 0.13893749999999727
vt 0.3125 0.18749999999999722
vt 0.406228 0.125
vt 0.406228 0.125
vt 0.343728 0.125
vt 0.343728 0.125
vt 0.4375 0.18749999999999722
vt 0.4375 0.13893749999999727
vt 0.3125 0.13893749999999727
vt 0.3125 0.18749999999999722
vt 0.406228 0.125
vt 0.406228 0.125
vt 0.406228 0.125
vt 0.406228 0.125
vt 0.1875 0.18749999999999722
vt 0.1875 0.13893749999999727
vt 0.0625 0.13893749999999727
vt 0.0625 0.18749999999999722
vt 0.343728 0.625
vt 0.343728 0.625
vt 0.343728 0.625
vt 0.343728 0.625
vt 0.343728 0.625
vt 0.406228 0.625
vt 0.406228 0.625
vt 0.343728 0.625
vt 0.406228 0.625
vt 0.406228 0.625
vt 0.406228 0.625
vt 0.406228 0.625
vt 0.28125 0.15624999999999722
vt 0.28125 0.10768749999999727
vt 0.15625 0.10768749999999727
vt 0.15625 0.15624999999999722
vt 0.6875 0.18749999999999722
vt 0.6875 0.13893749999999727
vt 0.5625 0.13893749999999727
vt 0.5625 0.18749999999999722
vt 0.656228 0.125
vt 0.656228 0.125
vt 0.656228 0.125
vt 0.656228 0.125
vt 0.656228 0.125
vt 0.593728 0.125
vt 0.593728 0.125
vt 0.656228 0.125
vt 0.593728 0.125
vt 0.593728 0.125
vt 0.593728 0.125
vt 0.593728 0.125
vt 0.6875 0.18749999999999722
vt 0.6875 0.13893749999999727
vt 0.5625 0.13893749999999727
vt 0.5625 0.18749999999999722
vt 0.093728 0.125
vt 0.093728 0.125
vt 0.093728 0.125
vt 0.093728 0.125
vt 0.1875 0.18749999999999722
vt 0.1875 0.13893749999999727
vt 0.0625 0.13893749999999727
vt 0.0625 0.18749999999999722
vt 0.156228 0.125
vt 0.156228 0.125
vt 0.093728 0.125
vt 0.093728 0.125
vt 0.1875 0.18749999999999722
vt 0.1875 0.13893749999999727
vt 0.0625 0.13893749999999727
vt 0.0625 0.18749999999999722
vt 0.156228 0.125
vt 0.156228 0.125
vt 0.156228 0.125
vt 0.156228 0.125
vt 0.5668812622413044 0.08723041105998064
vt 0.566881248733803 0.21204931420460094
vt 0.06760573063240355 0.2120493150210614
vt 0.06760571485786482 0.0872304126432184
vt 0.406228 0.125
vt 0.406228 0.125
vt 0.343728 0.125
vt 0.343728 0.125
vn 0 1 0
vn 0 1 0
vn 0 1 0
vn 0 1 0
vn 0 1 0
vn 0 1 0
vn 0 1 0
vn 0 -1 0
vn 0 -1 0
vn 0 -1 0
vn 0 0 -1
vn 1 0 0
vn -1 0 0
vn 0 0 1
vn 0 0 -1
vn 1 0 0
vn -1 0 0
vn 0 0 1
vn 0 0 -1
vn 0 0 -1
vn 0 0 -1
vn -1 0 0
vn 0 0 1
vn 1 0 0
vn 0 0 1
vn -1 0 0
vn 0 0 1
vn -1 0 0
vn 0 0 1
vn -1 0 0
vn 0 0 -1
vn -1 0 0
vn 0 0 1
vn 1 0 0
vn 1 0 0
vn 1 0 0
vn 0 0 -1
vn 0 1 0
vn 0 -1 0
usemtl m_27e31f94-6ec4-d5bd-cb9f-7f6665701c68
f 19/29/8 23/30/8 24/31/8 21/32/8
f 25/33/9 26/34/9 21/35/9 20/36/9
f 27/37/10 28/38/10 22/39/10 24/40/10
f 26/41/11 27/42/11 31/43/11 30/44/11
f 14/45/12 34/46/12 33/47/12 13/48/12
f 32/49/13 35/50/13 34/51/13 29/52/13
f 16/53/14 36/54/14 35/55/14 15/56/14
f 48/57/15 52/58/15 53/59/15 50/60/15
f 57/61/16 61/62/16 62/63/16 59/64/16
f 71/65/17 70/66/17 66/67/17 67/68/17
f 17/69/18 18/70/18 23/71/18 19/72/18
f 30/73/19 29/74/19 17/75/19 19/76/19
f 18/77/20 32/78/20 31/79/20 23/80/20
f 31/81/21 32/82/21 29/83/21 30/84/21
f 20/85/22 22/86/22 74/87/22 73/88/22
f 75/89/23 25/90/23 20/91/23 73/92/23
f 22/93/24 28/94/24 76/95/24 74/96/24
f 76/97/25 28/98/25 25/99/25 75/100/25
f 41/101/26 77/102/26 38/103/26 40/104/26
f 43/105/27 42/106/27 37/107/27 39/108/27
f 44/109/28 45/110/28 77/111/28 41/112/28
f 45/113/29 42/114/29 43/115/29 44/116/29
f 50/117/30 47/118/30 78/119/30 49/120/30
f 47/121/31 46/122/31 48/123/31 50/124/31
f 46/125/32 51/126/32 52/127/32 48/128/32
f 51/129/33 54/130/33 53/131/33 52/132/33
f 49/133/34 78/134/34 54/135/34 53/136/34
f 59/137/35 56/138/35 79/139/35 58/140/35
f 56/141/36 55/142/36 57/143/36 59/144/36
f 55/145/37 60/146/37 61/147/37 57/148/37
f 60/149/38 63/150/38 62/151/38 61/152/38
f 58/153/39 79/154/39 63/155/39 62/156/39
f 64/157/40 65/158/40 67/159/40 66/160/40
f 68/161/41 80/162/41 65/163/41 67/164/41
f 70/165/42 69/166/42 64/167/42 66/168/42
f 71/169/43 72/170/43 80/171/43 68/172/43
f 72/173/44 69/174/44 70/175/44 71/176/44
f 15/177/45 18/178/45 17/179/45 14/180/45
f 44/181/46 43/182/46 39/183/46 40/184/46
o side1
v 0 0.5 0.5
v 0 0.5 0.375
v -0.0625 0.1875 0.5
v -0.0625 0.1875 0.375
v -0.375 0.5 0.5
v -0.375 0.5 0.375
v -0.375 0.125 0.5
v -0.375 0.125 0.375
v 0.375 0.5 0.5
v 0.375 0.5 0.375
v 0.375 0.125 0.5
v 0.375 0.125 0.375
v 0 0.5 0.5
v 0 0.5 0.375
v 0.0625 0.1875 0.5
v 0.0625 0.1875 0.375
v -0.375 1 0.5
v 0.375 1 0.5
v -0.37500000000000194 0.9999999999999976 0.37500000000000144
v 0.3750000000000001 0.9999999999999976 0.3750000000000012
v -0.3749999999999999 0.49999999999999933 0.3750000000000002
v -0.375 0.49999999999999756 0.5
v -0.375 0.12500000000000183 0.5
v -0.3749999999999999 0.12500000000000183 0.3750000000000002
v 0.3750000000000001 0.49999999999999933 0.3750000000000002
v 0.375 0.49999999999999756 0.5
v 0.375 0.12500000000000183 0.5
v 0.3750000000000001 0.12500000000000183 0.3750000000000002
vt 0.5625 0.6874999999999991
vt 0.4375 0.6874999999999991
vt 0.4375 0.3688124999999991
vt 0.5625 0.3688124999999991
vt 1 0
vt 1 1
vt 0 1
vt 0 0
vt 0 0
vt 1 0
vt 1 1
vt 0 1
vt 0.5625 0.6875000000000002
vt 0.4375 0.6875000000000002
vt 0.4375 0.3688062500000002
vt 0.5625 0.3688062500000002
vt 0.4375 0.1875
vt 0.5 0.5
vt 0.125 0.5
vt 0.125 0.125
vt 1 1
vt 0 1
vt 0 0
vt 1 0
vt 1 1
vt 0 1
vt 0 0
vt 1 0
vt 0.5625 0.3688124999999991
vt 0.5625 0.6874999999999991
vt 0.4375 0.6874999999999991
vt 0.4375 0.3688124999999991
vt 0 0
vt 1 0
vt 1 1
vt 0 1
vt 0.4375 0.3688062500000002
vt 0.5625 0.3688062500000002
vt 0.5625 0.6875000000000002
vt 0.4375 0.6875000000000002
vt 0.875 0.125
vt 0.875 0.5
vt 0.5 0.5
vt 0.5625 0.1875
vt 1 1
vt 0 1
vt 0 0
vt 1 0
vt 0.468728 0.25
vt 0.281228 0.25
vt 0.281228 0.125
vt 0.468728 0.125
vt 0.875 1
vt 0.125 1
vt 0.125 0.5
vt 0.875 0.5
vt 0.15625 1
vt 0.90625 1
vt 0.90625 0.875
vt 0.15625 0.875
vt 0.75 1
vt 0 1
vt 0 0.875
vt 0.75 0.875
vt 0 1
vt 0 0.5
vt 0.125 0.5
vt 0.125 1
vt 0.125 1
vt 0 1
vt 0 0.5
vt 0.125 0.5
vt 0.281228 0.25
vt 0.249978 0.25
vt 0.249978 0.03125
vt 0.281228 0.03125
vt 0.281228 0.25
vt 0.249978 0.25
vt 0.249978 0.03125
vt 0.281228 0.03125
vn 0.9805806756909202 -0.19611613513818404 0
vn -1 0 0
vn 0 1 0
vn 0.19611613513818404 -0.9805806756909202 0
vn 0 0 1
vn 0 0 -1
vn 1 0 0
vn -0.9805806756909202 -0.19611613513818404 0
vn 0 1 0
vn -0.19611613513818404 -0.9805806756909202 0
vn 0 0 1
vn 0 0 -1
vn 2.960594732333742716 -2.44249065417535215 1
vn 0 0 1
vn 0 1 -1.953992523340294814
vn 0 1 1.42108547152020314
vn 1 0 8.88178419700126816
vn 1 0 -1.55431223447523714
vn 1 0 8.88178419700126816
vn 1 0 8.88178419700126816
usemtl m_27e31f94-6ec4-d5bd-cb9f-7f6665701c68
f 82/185/47 81/186/47 83/187/47 84/188/47
f 87/189/48 85/190/48 86/191/48 88/192/48
f 85/193/49 81/194/49 82/195/49 86/196/49
f 84/197/50 83/198/50 87/199/50 88/200/50
f 83/201/51 81/202/51 85/203/51 87/204/51
f 86/205/52 82/206/52 84/207/52 88/208/52
f 90/209/53 89/210/53 91/211/53 92/212/53
f 95/213/54 93/214/54 94/215/54 96/216/54
f 93/217/55 89/218/55 90/219/55 94/220/55
f 92/221/56 91/222/56 95/223/56 96/224/56
f 91/225/57 89/226/57 93/227/57 95/228/57
f 94/229/58 90/230/58 92/231/58 96/232/58
f 100/233/59 99/234/59 101/235/59 105/236/59
f 98/237/60 97/238/60 102/239/60 106/240/60
f 97/241/61 98/242/61 100/243/61 99/244/61
f 105/245/62 101/246/62 102/247/62 106/248/62
f 98/249/63 106/250/63 105/251/63 100/252/63
f 99/253/64 97/254/64 102/255/64 101/256/64
f 101/257/65 102/258/65 103/259/65 104/260/65
f 105/261/66 106/262/66 107/263/66 108/264/66
o side2
v -0.5 0.5 0
v -0.375 0.5 0
v -0.5 0.1875 -0.0625
v -0.375 0.1875 -0.0625
v -0.5 0.5 -0.375
v -0.375 0.5 -0.375
v -0.5 0.125 -0.375
v -0.375 0.125 -0.375
v -0.5 0.5 0.375
v -0.375 0.5 0.375
v -0.5 0.125 0.375
v -0.375 0.125 0.375
v -0.5 0.5 0
v -0.375 0.5 0
v -0.5 0.1875 0.0625
v -0.375 0.1875 0.0625
v -0.5 1 -0.375
v -0.5 1 0.375
v -0.37500000000000144 0.9999999999999976 -0.37500000000000194
v -0.3750000000000012 0.9999999999999976 0.3750000000000001
v -0.3750000000000002 0.49999999999999933 -0.3749999999999999
v -0.5 0.49999999999999756 -0.375
v -0.5 0.12500000000000183 -0.375
v -0.3750000000000002 0.12500000000000183 -0.3749999999999999
v -0.3750000000000002 0.49999999999999933 0.3750000000000001
v -0.5 0.49999999999999756 0.375
v -0.5 0.12500000000000183 0.375
v -0.3750000000000002 0.12500000000000183 0.3750000000000001
vt 0.5625 0.6874999999999991
vt 0.4375 0.6874999999999991
vt 0.4375 0.3688124999999991
vt 0.5625 0.3688124999999991
vt 1 0
vt 1 1
vt 0 1
vt 0 0
vt 0 0
vt 1 0
vt 1 1
vt 0 1
vt 0.5625 0.6875000000000002
vt 0.4375 0.6875000000000002
vt 0.4375 0.3688062500000002
vt 0.5625 0.3688062500000002
vt 0.4375 0.1875
vt 0.5 0.5
vt 0.125 0.5
vt 0.125 0.125
vt 1 1
vt 0 1
vt 0 0
vt 1 0
vt 1 1
vt 0 1
vt 0 0
vt 1 0
vt 0.5625 0.3688124999999991
vt 0.5625 0.6874999999999991
vt 0.4375 0.6874999999999991
vt 0.4375 0.3688124999999991
vt 0 0
vt 1 0
vt 1 1
vt 0 1
vt 0.4375 0.3688062500000002
vt 0.5625 0.3688062500000002
vt 0.5625 0.6875000000000002
vt 0.4375 0.6875000000000002
vt 0.875 0.125
vt 0.875 0.5
vt 0.5 0.5
vt 0.5625 0.1875
vt 1 1
vt 0 1
vt 0 0
vt 1 0
vt 0.468728 0.25
vt 0.281228 0.25
vt 0.281228 0.125
vt 0.468728 0.125
vt 0.875 1
vt 0.125 1
vt 0.125 0.5
vt 0.875 0.5
vt 0.15625 1
vt 0.90625 1
vt 0.90625 0.875
vt 0.15625 0.875
vt 0.75 1
vt 0 1
vt 0 0.875
vt 0.75 0.875
vt 0 1
vt 0 0.5
vt 0.125 0.5
vt 0.125 1
vt 0.125 1
vt 0 1
vt 0 0.5
vt 0.125 0.5
vt 0.281228 0.25
vt 0.249978 0.25
vt 0.249978 0.03125
vt 0.281228 0.03125
vt 0.281228 0.25
vt 0.249978 0.25
vt 0.249978 0.03125
vt 0.281228 0.03125
vn 0 -0.19611613513818404 0.9805806756909202
vn 0 0 -1
vn 0 1 0
vn 0 -0.9805806756909202 0.19611613513818404
vn -1 0 0
vn 1 0 0
vn 0 0 1
vn 0 -0.19611613513818404 -0.9805806756909202
vn 0 1 0
vn 0 -0.9805806756909202 -0.19611613513818404
vn -1 0 0
vn 1 0 0
vn -1 -2.44249065417535215 2.960594732333742716
vn -1 0 0
vn 1.953992523340294814 1 0
vn -1.42108547152020314 1 0
vn -8.88178419700126816 0 1
vn 1.55431223447523714 0 1
vn -8.88178419700126816 0 1
vn -8.88178419700126816 0 1
usemtl m_27e31f94-6ec4-d5bd-cb9f-7f6665701c68
f 110/265/67 109/266/67 111/267/67 112/268/67
f 115/269/68 113/270/68 114/271/68 116/272/68
f 113/273/69 109/274/69 110/275/69 114/276/69
f 112/277/70 111/278/70 115/279/70 116/280/70
f 111/281/71 109/282/71 113/283/71 115/284/71
f 114/285/72 110/286/72 112/287/72 116/288/72
f 118/289/73 117/290/73 119/291/73 120/292/73
f 123/293/74 121/294/74 122/295/74 124/296/74
f 121/297/75 117/298/75 118/299/75 122/300/75
f 120/301/76 119/302/76 123/303/76 124/304/76
f 119/305/77 117/306/77 121/307/77 123/308/77
f 122/309/78 118/310/78 120/311/78 124/312/78
f 128/313/79 127/314/79 129/315/79 133/316/79
f 126/317/80 125/318/80 130/319/80 134/320/80
f 125/321/81 126/322/81 128/323/81 127/324/81
f 133/325/82 129/326/82 130/327/82 134/328/82
f 126/329/83 134/330/83 133/331/83 128/332/83
f 127/333/84 125/334/84 130/335/84 129/336/84
f 129/337/85 130/338/85 131/339/85 132/340/85
f 133/341/86 134/342/86 135/343/86 136/344/86
o side3
v 0 0.5 -0.5
v 0 0.5 -0.375
v 0.0625 0.1875 -0.5
v 0.0625 0.1875 -0.375
v 0.375 0.5 -0.5
v 0.375 0.5 -0.375
v 0.375 0.125 -0.5
v 0.375 0.125 -0.375
v -0.375 0.5 -0.5
v -0.375 0.5 -0.375
v -0.375 0.125 -0.5
v -0.375 0.125 -0.375
v 0 0.5 -0.5
v 0 0.5 -0.375
v -0.0625 0.1875 -0.5
v -0.0625 0.1875 -0.375
v 0.375 1 -0.5
v -0.375 1 -0.5
v 0.37500000000000194 0.9999999999999976 -0.37500000000000144
v -0.3750000000000001 0.9999999999999976 -0.3750000000000012
v 0.3749999999999999 0.49999999999999933 -0.3750000000000002
v 0.375 0.49999999999999756 -0.5
v 0.375 0.12500000000000183 -0.5
v 0.3749999999999999 0.12500000000000183 -0.3750000000000002
v -0.3750000000000001 0.49999999999999933 -0.3750000000000002
v -0.375 0.49999999999999756 -0.5
v -0.375 0.12500000000000183 -0.5
v -0.3750000000000001 0.12500000000000183 -0.3750000000000002
vt 0.5625 0.6874999999999991
vt 0.4375 0.6874999999999991
vt 0.4375 0.3688124999999991
vt 0.5625 0.3688124999999991
vt 1 0
vt 1 1
vt 0 1
vt 0 0
vt 0 0
vt 1 0
vt 1 1
vt 0 1
vt 0.5625 0.6875000000000002
vt 0.4375 0.6875000000000002
vt 0.4375 0.3688062500000002
vt 0.5625 0.3688062500000002
vt 0.4375 0.1875
vt 0.5 0.5
vt 0.125 0.5
vt 0.125 0.125
vt 1 1
vt 0 1
vt 0 0
vt 1 0
vt 1 1
vt 0 1
vt 0 0
vt 1 0
vt 0.5625 0.3688124999999991
vt 0.5625 0.6874999999999991
vt 0.4375 0.6874999999999991
vt 0.4375 0.3688124999999991
vt 0 0
vt 1 0
vt 1 1
vt 0 1
vt 0.4375 0.3688062500000002
vt 0.5625 0.3688062500000002
vt 0.5625 0.6875000000000002
vt 0.4375 0.6875000000000002
vt 0.875 0.125
vt 0.875 0.5
vt 0.5 0.5
vt 0.5625 0.1875
vt 1 1
vt 0 1
vt 0 0
vt 1 0
vt 0.468728 0.25
vt 0.281228 0.25
vt 0.281228 0.125
vt 0.468728 0.125
vt 0.875 1
vt 0.125 1
vt 0.125 0.5
vt 0.875 0.5
vt 0.15625 1
vt 0.90625 1
vt 0.90625 0.875
vt 0.15625 0.875
vt 0.75 1
vt 0 1
vt 0 0.875
vt 0.75 0.875
vt 0 1
vt 0 0.5
vt 0.125 0.5
vt 0.125 1
vt 0.125 1
vt 0 1
vt 0 0.5
vt 0.125 0.5
vt 0.281228 0.25
vt 0.249978 0.25
vt 0.249978 0.03125
vt 0.281228 0.03125
vt 0.281228 0.25
vt 0.249978 0.25
vt 0.249978 0.03125
vt 0.281228 0.03125
vn -0.9805806756909202 -0.19611613513818404 0
vn 1 0 0
vn 0 1 0
vn -0.19611613513818404 -0.9805806756909202 0
vn 0 0 -1
vn 0 0 1
vn -1 0 0
vn 0.9805806756909202 -0.19611613513818404 0
vn 0 1 0
vn 0.19611613513818404 -0.9805806756909202 0
vn 0 0 -1
vn 0 0 1
vn -2.960594732333742716 -2.44249065417535215 -1
vn 0 0 -1
vn 0 1 1.953992523340294814
vn 0 1 -1.42108547152020314
vn -1 0 -8.88178419700126816
vn -1 0 1.55431223447523714
vn -1 0 -8.88178419700126816
vn -1 0 -8.88178419700126816
usemtl m_27e31f94-6ec4-d5bd-cb9f-7f6665701c68
f 138/345/87 137/346/87 139/347/87 140/348/87
f 143/349/88 141/350/88 142/351/88 144/352/88
f 141/353/89 137/354/89 138/355/89 142/356/89
f 140/357/90 139/358/90 143/359/90 144/360/90
f 139/361/91 137/362/91 141/363/91 143/364/91
f 142/365/92 138/366/92 140/367/92 144/368/92
f 146/369/93 145/370/93 147/371/93 148/372/93
f 151/373/94 149/374/94 150/375/94 152/376/94
f 149/377/95 145/378/95 146/379/95 150/380/95
f 148/381/96 147/382/96 151/383/96 152/384/96
f 147/385/97 145/386/97 149/387/97 151/388/97
f 150/389/98 146/390/98 148/391/98 152/392/98
f 156/393/99 155/394/99 157/395/99 161/396/99
f 154/397/100 153/398/100 158/399/100 162/400/100
f 153/401/101 154/402/101 156/403/101 155/404/101
f 161/405/102 157/406/102 158/407/102 162/408/102
f 154/409/103 162/410/103 161/411/103 156/412/103
f 155/413/104 153/414/104 158/415/104 157/416/104
f 157/417/105 158/418/105 159/419/105 160/420/105
f 161/421/106 162/422/106 163/423/106 164/424/106
o side4
v 0.5 0.5 0
v 0.375 0.5 0
v 0.5 0.1875 0.0625
v 0.375 0.1875 0.0625
v 0.5 0.5 0.375
v 0.375 0.5 0.375
v 0.5 0.125 0.375
v 0.375 0.125 0.375
v 0.5 0.5 -0.375
v 0.375 0.5 -0.375
v 0.5 0.125 -0.375
v 0.375 0.125 -0.375
v 0.5 0.5 0
v 0.375 0.5 0
v 0.5 0.1875 -0.0625
v 0.375 0.1875 -0.0625
v 0.5 1 0.375
v 0.5 1 -0.375
v 0.37500000000000144 0.9999999999999976 0.37500000000000194
v 0.3750000000000012 0.9999999999999976 -0.3750000000000001
v 0.3750000000000002 0.49999999999999933 0.3749999999999999
v 0.5 0.49999999999999756 0.375
v 0.5 0.12500000000000183 0.375
v 0.3750000000000002 0.12500000000000183 0.3749999999999999
v 0.3750000000000002 0.49999999999999933 -0.3750000000000001
v 0.5 0.49999999999999756 -0.375
v 0.5 0.12500000000000183 -0.375
v 0.3750000000000002 0.12500000000000183 -0.3750000000000001
vt 0.5625 0.6874999999999991
vt 0.4375 0.6874999999999991
vt 0.4375 0.3688124999999991
vt 0.5625 0.3688124999999991
vt 1 0
vt 1 1
vt 0 1
vt 0 0
vt 0 0
vt 1 0
vt 1 1
vt 0 1
vt 0.5625 0.6875000000000002
vt 0.4375 0.6875000000000002
vt 0.4375 0.3688062500000002
vt 0.5625 0.3688062500000002
vt 0.4375 0.1875
vt 0.5 0.5
vt 0.125 0.5
vt 0.125 0.125
vt 1 1
vt 0 1
vt 0 0
vt 1 0
vt 1 1
vt 0 1
vt 0 0
vt 1 0
vt 0.5625 0.3688124999999991
vt 0.5625 0.6874999999999991
vt 0.4375 0.6874999999999991
vt 0.4375 0.3688124999999991
vt 0 0
vt 1 0
vt 1 1
vt 0 1
vt 0.4375 0.3688062500000002
vt 0.5625 0.3688062500000002
vt 0.5625 0.6875000000000002
vt 0.4375 0.6875000000000002
vt 0.875 0.125
vt 0.875 0.5
vt 0.5 0.5
vt 0.5625 0.1875
vt 1 1
vt 0 1
vt 0 0
vt 1 0
vt 0.468728 0.25
vt 0.281228 0.25
vt 0.281228 0.125
vt 0.468728 0.125
vt 0.875 1
vt 0.125 1
vt 0.125 0.5
vt 0.875 0.5
vt 0.15625 1
vt 0.90625 1
vt 0.90625 0.875
vt 0.15625 0.875
vt 0.75 1
vt 0 1
vt 0 0.875
vt 0.75 0.875
vt 0 1
vt 0 0.5
vt 0.125 0.5
vt 0.125 1
vt 0.125 1
vt 0 1
vt 0 0.5
vt 0.125 0.5
vt 0.281228 0.25
vt 0.249978 0.25
vt 0.249978 0.03125
vt 0.281228 0.03125
vt 0.281228 0.25
vt 0.249978 0.25
vt 0.249978 0.03125
vt 0.281228 0.03125
vn 0 -0.19611613513818404 -0.9805806756909202
vn 0 0 1
vn 0 1 0
vn 0 -0.9805806756909202 -0.19611613513818404
vn 1 0 0
vn -1 0 0
vn 0 0 -1
vn 0 -0.19611613513818404 0.9805806756909202
vn 0 1 0
vn 0 -0.9805806756909202 0.19611613513818404
vn 1 0 0
vn -1 0 0
vn 1 -2.44249065417535215 -2.960594732333742716
vn 1 0 0
vn -1.953992523340294814 1 0
vn 1.42108547152020314 1 0
vn 8.88178419700126816 0 -1
vn -1.55431223447523714 0 -1
vn 8.88178419700126816 0 -1
vn 8.88178419700126816 0 -1
usemtl m_27e31f94-6ec4-d5bd-cb9f-7f6665701c68
f 166/425/107 165/426/107 167/427/107 168/428/107
f 171/429/108 169/430/108 170/431/108 172/432/108
f 169/433/109 165/434/109 166/435/109 170/436/109
f 168/437/110 167/438/110 171/439/110 172/440/110
f 167/441/111 165/442/111 169/443/111 171/444/111
f 170/445/112 166/446/112 168/447/112 172/448/112
f 174/449/113 173/450/113 175/451/113 176/452/113
f 179/453/114 177/454/114 178/455/114 180/456/114
f 177/457/115 173/458/115 174/459/115 178/460/115
f 176/461/116 175/462/116 179/463/116 180/464/116
f 175/465/117 173/466/117 177/467/117 179/468/117
f 178/469/118 174/470/118 176/471/118 180/472/118
f 184/473/119 183/474/119 185/475/119 189/476/119
f 182/477/120 181/478/120 186/479/120 190/480/120
f 181/481/121 182/482/121 184/483/121 183/484/121
f 189/485/122 185/486/122 186/487/122 190/488/122
f 182/489/123 190/490/123 189/491/123 184/492/123
f 183/493/124 181/494/124 186/495/124 185/496/124
f 185/497/125 186/498/125 187/499/125 188/500/125
f 189/501/126 190/502/126 191/503/126 192/504/126
o columns
v -0.4999999999999996 0.9999999999999996 -0.37499999999999967
v 0.4999999999999989 0.9999999999999996 -0.3750000000000001
v 0.4999999999999989 0.9999999999999976 -0.4999999999999999
v 0.4999999999999989 0.1250000000000009 -0.4999999999999999
v -0.4999999999999994 0.9999999999999976 -0.49999999999999917
v -0.4999999999999994 0.12500000000000133 -0.49999999999999917
v -0.375000000000001 0.9999999999999976 -0.3750000000000013
v -0.37500000000000094 0.9999999999999976 -0.499999999999999
v -0.37500000000000094 0.1250000000000031 -0.499999999999999
v 0.37500000000000056 0.9999999999999976 -0.4999999999999978
v 0.3750000000000002 0.9999999999999976 -0.3750000000000001
v 0.37500000000000056 0.12500000000000266 -0.4999999999999978
v -0.4999999999999996 0.12500000000000316 -0.37499999999999967
v -0.37500000000000033 0.12500000000000316 -0.37499999999999944
v 0.4999999999999989 0.12500000000000272 -0.3750000000000001
v 0.37499999999999944 0.12500000000000272 -0.37500000000000017
v -0.375 1 0.5
v 0.375 1 0.5
v 0.5 0.9999999999999976 0.5
v 0.5 0.125 0.5
v -0.5 0.9999999999999976 0.5
v -0.5 0.125 0.5
v -0.37500000000000194 0.9999999999999976 0.37500000000000133
v -0.4999999999999999 0.9999999999999976 0.37500000000000133
v -0.4999999999999999 0.12500000000000178 0.37500000000000133
v 0.499999999999998 0.9999999999999976 0.37500000000000133
v 0.3750000000000001 0.9999999999999976 0.37500000000000133
v 0.499999999999998 0.12500000000000178 0.37500000000000133
v -0.375 0.12500000000000183 0.5
v -0.3749999999999999 0.12500000000000183 0.3750000000000002
v 0.375 0.12500000000000183 0.5
v 0.3750000000000001 0.12500000000000183 0.3750000000000002
vt 1 1
vt 0.875 1
vt 0.875 0.125
vt 1 0.125
vt 0.125 1
vt 0 1
vt 0 0.125
vt 0.125 0.125
vt 0.875 1
vt 1 1
vt 1 0.125
vt 0.875 0.125
vt 0 0.125
vt 0 1
vt 0.125 1
vt 0.125 0.125
vt 0.468728 0.03125
vt 0.468728 0.25
vt 0.499978 0.25
vt 0.499978 0.03125
vt 0.468728 0.03125
vt 0.468728 0.25
vt 0.499978 0.25
vt 0.499978 0.03125
vt 0 0.875
vt 0.125 0.875
vt 0.125 1
vt 0 1
vt 0.875 0
vt 1 0
vt 1 0.125
vt 0.875 0.125
vt 1 1
vt 0.875 1
vt 0.875 0.125
vt 1 0.125
vt 0.125 1
vt 0 1
vt 0 0.125
vt 0.125 0.125
vt 0.875 1
vt 1 1
vt 1 0.125
vt 0.875 0.125
vt 0 0.125
vt 0 1
vt 0.125 1
vt 0.125 0.125
vt 0.499978 0.25
vt 0.468728 0.25
vt 0.468728 0.03125
vt 0.499978 0.03125
vt 0.499978 0.25
vt 0.468728 0.25
vt 0.468728 0.03125
vt 0.499978 0.03125
vt 0 0.875
vt 0.125 0.875
vt 0.125 1
vt 0 1
vt 0.875 0
vt 1 0
vt 1 0.125
vt 0.875 0.125
vn 1 0 0
vn -1 0 -1.776356839400257615
vn -1.687538997430260314 0 -1
vn 1.332267629550204215 0 -1
vn 1 0 4.44089209850070716
vn -1 8.88178419700130616 -2.664535259100424615
vn -1.598721155460242814 1 -4.25984888819358929
vn 2.12992444409676729 1 -1.598721155460231714
vn 0 0 1
vn 0 0 1
vn 1 0 -1.598721155460242514
vn -1 0 -8.88178419700134716
vn 0 0 1
vn 0 -1.26882631385732815 1
vn 0 1 -1.953992523340296714
vn -1.953992523340275514 1 -1.735493991486244529
usemtl m_27e31f94-6ec4-d5bd-cb9f-7f6665701c68
f 195/505/127 194/506/127 207/507/127 196/508/127
f 193/509/128 197/510/128 198/511/128 205/512/128
f 202/513/129 195/514/129 196/515/129 204/516/129
f 198/517/130 197/518/130 200/519/130 201/520/130
f 201/521/131 200/522/131 199/523/131 206/524/131
f 208/525/132 203/526/132 202/527/132 204/528/132
f 202/529/133 203/530/133 194/531/133 195/532/133
f 200/533/134 197/534/134 193/535/134 199/536/134
f 211/537/135 210/538/135 223/539/135 212/540/135
f 209/541/136 213/542/136 214/543/136 221/544/136
f 218/545/137 211/546/137 212/547/137 220/548/137
f 214/549/138 213/550/138 216/551/138 217/552/138
f 215/553/139 216/554/139 217/555/139 222/556/139
f 218/557/140 219/558/140 224/559/140 220/560/140
f 218/561/141 219/562/141 210/563/141 211/564/141
f 216/565/142 213/566/142 209/567/142 215/568/142