# Made in Blockbench 5.1.6
mtllib HeatGenerator.mtl

o side4
v -0.5 0.8125 0.5
v -0.5 0.8125 -0.5
v -0.5 0 0.5
v -0.5 0 -0.5
v -0.5 0.275 -0.125
v -0.5 0.5375 -0.125
v -0.5 0.5375 -0.5
v -0.5 0.275 -0.5
v -0.5 0.275 0.5
v -0.5 0.5375 0.5
v -0.5 0.5375 0.125
v -0.5 0.275 0.125
v -0.375 0.47083375 -0.125
v -0.375 0.47083375 -0.0625
v -0.375 0.5375 -0.125
v -0.375 0.47083375 0.0625
v -0.375 0.47083375 0.125
v -0.375 0.5375 0.125
v -0.375 0.27083375 0.125
v -0.375 0.3375 0.125
v -0.375 0.3375 0.0625
v -0.375 0.27083375 -0.125
v -0.375 0.3375 -0.0625
v -0.375 0.3375 -0.125
v -0.5 0.3375 0.0625
v -0.5 0.404166875 0.0625
v -0.5 0.404166875 0.129166875
v -0.5 0.304166875 0.095833125
v -0.5 0.3375 0
v -0.5 0.27083375 0
v -0.5 0.3375 -0.0625
v -0.5 0.304166875 -0.095833125
v -0.5 0.404166875 -0.0625
v -0.5 0.404166875 -0.129166875
v -0.5 0.47083375 -0.0625
v -0.5 0.504166875 -0.095833125
v -0.5 0.47083375 0
v -0.5 0.5375 0
v -0.5 0.47083375 0.0625
v -0.5 0.504166875 0.095833125
v -0.45 0.47083375 -0.0625
v -0.45 0.47083375 0.0625
v -0.45 0.3375 0.0625
v -0.45 0.3375 -0.0625
v -0.45 0.504166875 -0.095833125
v -0.45 0.504166875 0.095833125
v -0.45 0.404166875 -0.129166875
v -0.45 0.304166875 -0.095833125
v -0.45 0.27083375 0
v -0.45 0.304166875 0.095833125
v -0.45 0.404166875 0.129166875
v -0.5 0.5375 -0.125
v -0.5 0.5375 0.125
v -0.5 0.27083375 0.125
v -0.5 0.27083375 -0.125
v -0.45 0.5375 0
vt 0.6666666666666666 0.725
vt 0.6666666666666666 1
vt 0.3333333333333333 1
vt 0.3333333333333333 0.725
vt 0.6666666666666666 0
vt 0.6666666666666666 0.28125
vt 0.3333333333333333 0.28125
vt 0.3333333333333333 0
vt 0.4583333333333333 0.475
vt 0.4583333333333333 0.725
vt 0.3333333333333333 0.725
vt 0.3333333333333333 0.475
vt 0.6666666666666666 0.47187500000000004
vt 0.6666666666666666 0.721875
vt 0.5416666666666666 0.721875
vt 0.5416666666666666 0.47187500000000004
vt 0.46093416666666664 0.38541625
vt 0.5390591666666666 0.38541625
vt 0.5390591666666666 0.44270937499999996
vt 0.46093416666666664 0.44270937499999996
vt 0.48046541666666664 0.557290625
vt 0.46093416666666664 0.557290625
vt 0.46093416666666664 0.44270937499999996
vt 0.48046541666666664 0.44270937499999996
vt 0.5208333333333334 0.46875
vt 0.5208333333333334 0.5625
vt 0.4895833333333333 0.5625
vt 0.4895833333333333 0.46875
vt 0.5390591666666666 0.557290625
vt 0.5195279166666666 0.557290625
vt 0.5195279166666666 0.44270937499999996
vt 0.5390591666666666 0.44270937499999996
vt 0.46093416666666664 0.557290625
vt 0.5390591666666666 0.557290625
vt 0.5390591666666666 0.61458375
vt 0.46093416666666664 0.61458375
vt 0.49999666666666664 0.44270937499999996
vt 0.49999666666666664 0.44270937499999996
vt 0.48046541666666664 0.44270937499999996
vt 0.48046541666666664 0.44270937499999996
vt 0.48046541666666664 0.44270937499999996
vt 0.48046541666666664 0.44270937499999996
vt 0.48046541666666664 0.5
vt 0.48046541666666664 0.5
vt 0.5195279166666666 0.44270937499999996
vt 0.5195279166666666 0.44270937499999996
vt 0.49999666666666664 0.44270937499999996
vt 0.49999666666666664 0.44270937499999996
vt 0.5195279166666666 0.5
vt 0.5195279166666666 0.5
vt 0.5195279166666666 0.44270937499999996
vt 0.5195279166666666 0.44270937499999996
vt 0.48046541666666664 0.5
vt 0.48046541666666664 0.5
vt 0.48046541666666664 0.557290625
vt 0.48046541666666664 0.557290625
vt 0.5195279166666666 0.557290625
vt 0.5195279166666666 0.557290625
vt 0.5195279166666666 0.5
vt 0.5195279166666666 0.5
vt 0.49999666666666664 0.557290625
vt 0.49999666666666664 0.557290625
vt 0.5195279166666666 0.557290625
vt 0.5195279166666666 0.557290625
vt 0.5008091666666666 0.40063812499999996
vt 0.5007816666666667 0.44993875000000005
vt 0.4854129166666667 0.449775625
vt 0.4772266666666667 0.42490625000000004
vt 0.4772266666666667 0.42490625000000004
vt 0.4854129166666667 0.449775625
vt 0.48534583333333337 0.49946124999999997
vt 0.46881958333333335 0.4994275
vt 0.5241735416666666 0.425605
vt 0.5160693749999999 0.45010125
vt 0.5007816666666667 0.44993875000000005
vt 0.5008091666666666 0.40063812499999996
vt 0.53234 0.499556875
vt 0.5160808333333333 0.49952375000000004
vt 0.5160693749999999 0.45010125
vt 0.5241735416666666 0.425605
vt 0.4769614583333333 0.5745575
vt 0.4852785416666667 0.5494012500000001
vt 0.5007264583333334 0.5493
vt 0.50069875 0.599361875
vt 0.46881958333333335 0.4994275
vt 0.48534583333333337 0.49946124999999997
vt 0.4852785416666667 0.5494012500000001
vt 0.4769614583333333 0.5745575
vt 0.5242702083333334 0.574041875
vt 0.5160922916666667 0.54919875
vt 0.5160808333333333 0.49952375000000004
vt 0.53234 0.499556875
vt 0.50069875 0.599361875
vt 0.5007264583333334 0.5493
vt 0.5160922916666667 0.54919875
vt 0.5242702083333334 0.574041875
vt 0.4791666666666667 0.4375
vt 0.4791666666666667 0.5625
vt 0.5208333333333334 0.5625
vt 0.5208333333333334 0.4375
vt 0.46093416666666664 0.38541625
vt 0.5390591666666666 0.38541625
vt 0.5390591666666666 0.38541625
vt 0.46093416666666664 0.38541625
vt 0.4895833333333333 0.5625
vt 0.53125 0.5625
vt 0.53125 0.4375
vt 0.4895833333333333 0.4375
vt 0.4895833333333333 0.4375
vt 0.4895833333333333 0.5625
vt 0.53125 0.5625
vt 0.53125 0.4375
vt 0.46093416666666664 0.61458375
vt 0.46093416666666664 0.61458375
vt 0.46093416666666664 0.38541625
vt 0.46093416666666664 0.38541625
vt 0.5208333333333334 0.46875
vt 0.4791666666666667 0.46875
vt 0.4791666666666667 0.59375
vt 0.5208333333333334 0.59375
vt 0.5390591666666666 0.38541625
vt 0.5390591666666666 0.61458375
vt 0.5390591666666666 0.61458375
vt 0.5390591666666666 0.38541625
vt 0.5390591666666666 0.61458375
vt 0.5390591666666666 0.61458375
vt 0.46093416666666664 0.61458375
vt 0.46093416666666664 0.61458375
vt 0.48046541666666664 0.557290625
vt 0.48046541666666664 0.557290625
vt 0.49999666666666664 0.557290625
vt 0.49999666666666664 0.557290625
vn -1 0 0
vn -1 0 0
vn -1 0 0
vn -1 0 0
vn -1 0 0
vn -1 0 0
vn -1 0 0
vn -1 0 0
vn -1 0 0
vn 0 -0.9444972122047506 -0.3285194303803877
vn 0 -0.31623132357253514 -0.9486821121912032
vn 0 -0.9444972122047506 0.3285194303803877
vn 0 -0.31623132357253514 0.9486821121912032
vn 0 0.3162313235725349 -0.9486821121912032
vn 0 0.3162313235725349 0.9486821121912032
vn 0 0.9444972122047507 0.3285194303803872
vn -1 0 0
vn -1 0 0
vn -1 0 0
vn -1 0 0
vn -1 0 0
vn -1 0 0
vn -1 0 0
vn -1 0 0
vn 0 1 0
vn 0 1 0
vn 0 0 1
vn 0 0 -1
vn 0 0 1
vn 0 -1 0
vn 0 0 -1
vn 0 -1 0
vn 0 0.9444972122047507 -0.3285194303803872
usemtl m_03b23392-8c83-755b-a046-d5c0dcaa0c48
f 10/1/1 1/2/1 2/3/1 7/4/1
f 3/5/2 9/6/2 8/7/2 4/8/2
f 5/9/3 6/10/3 7/11/3 8/12/3
f 9/13/4 10/14/4 11/15/4 12/16/4
f 22/17/5 19/18/5 20/19/5 24/20/5
f 14/21/6 13/22/6 24/23/6 23/24/6
f 43/25/7 42/26/7 41/27/7 44/28/7
f 17/29/8 16/30/8 21/31/8 20/32/8
f 13/33/9 17/34/9 18/35/9 15/36/9
f 49/37/10 30/38/10 32/39/10 48/40/10
f 48/41/11 32/42/11 34/43/11 47/44/11
f 50/45/12 28/46/12 30/47/12 49/48/12
f 51/49/13 27/50/13 28/51/13 50/52/13
f 47/53/14 34/54/14 36/55/14 45/56/14
f 46/57/15 40/58/15 27/59/15 51/60/15
f 56/61/16 38/62/16 40/63/16 46/64/16
f 30/65/17 29/66/17 31/67/17 32/68/17
f 32/69/18 31/70/18 33/71/18 34/72/18
f 28/73/19 25/74/19 29/75/19 30/76/19
f 27/77/20 26/78/20 25/79/20 28/80/20
f 36/81/21 35/82/21 37/83/21 38/84/21
f 34/85/22 33/86/22 35/87/22 36/88/22
f 40/89/23 39/90/23 26/91/23 27/92/23
f 38/93/24 37/94/24 39/95/24 40/96/24
f 31/97/25 25/98/25 21/99/25 23/100/25
f 55/101/26 54/102/26 19/103/26 22/104/26
f 14/105/27 35/106/27 31/107/27 23/108/27
f 25/109/28 39/110/28 16/111/28 21/112/28
f 15/113/29 52/114/29 55/115/29 22/116/29
f 16/117/30 39/118/30 35/119/30 14/120/30
f 54/121/31 53/122/31 18/123/31 19/124/31
f 18/125/32 53/126/32 52/127/32 15/128/32
f 45/129/33 36/130/33 38/131/33 56/132/33
o up
v 0.3125 0.8125 0.3125
v 0.3125 0.8125 -0.3125
v -0.3125 0.8125 0.3125
v -0.3125 0.8125 -0.3125
v 0.125 1 0.125
v 0.125 1 -0.125
v -0.125 1 0.125
v -0.125 1 -0.125
v -0.3125 0.8125 -0.3125
v -0.5 0.8125 -0.3125
v -0.3125 0.8125 0.3125
v -0.5 0.8125 0.3125
v 0.5 0.8125 -0.3125
v 0.3125 0.8125 -0.3125
v 0.5 0.8125 0.3125
v 0.3125 0.8125 0.3125
v 0.5 0.8125 0.5
v 0.5 0.8125 0.3125
v -0.5 0.8125 0.5
v -0.5 0.8125 0.3125
v 0.5 0.8125 -0.3125
v 0.5 0.8125 -0.5
v -0.5 0.8125 -0.3125
v -0.5 0.8125 -0.5
v 0.125 0.6875 0.125
v 0.125 0.6875 -0.125
v -0.125 0.6875 0.125
v -0.125 0.6875 -0.125
vt 0.4583333333333333 -0.015162499999999968
vt 0.3958333333333333 0.25
vt 0.6041666666666666 0.25
vt 0.5416666666666666 -0.015162499999999968
vt 0.5416666666666666 -0.015162499999999968
vt 0.4583333333333333 -0.015162499999999968
vt 0.3958333333333333 0.25
vt 0.6041666666666666 0.25
vt 0.5416666666666666 -0.015162499999999968
vt 0.4583333333333333 -0.015162499999999968
vt 0.3958333333333333 0.25
vt 0.6041666666666666 0.25
vt 0.4583333333333333 -0.015162499999999968
vt 0.3958333333333333 0.25
vt 0.6041666666666666 0.25
vt 0.5416666666666666 -0.015162499999999968
vt 0.7291666666666666 0.1875
vt 0.7291666666666666 0.8125
vt 0.6666666666666666 0.8125
vt 0.6666666666666666 0.1875
vt 1 0.1875
vt 1 0.8125
vt 0.9375 0.8125
vt 0.9375 0.1875
vt 0.6666666666666666 0
vt 1 0
vt 1 0.1875
vt 0.6666666666666666 0.1875
vt 0.6666666666666666 0.8125
vt 1 0.8125
vt 1 1
vt 0.6666666666666666 1
vt 0.125 0.375
vt 0.20833333333333334 0.375
vt 0.20833333333333334 0.625
vt 0.125 0.625
vt 0.125 1
vt 0.125 0.75
vt 0.20833333333333334 0.75
vt 0.20833333333333334 1
vt 0.125 1
vt 0.125 0.75
vt 0.20833333333333334 0.75
vt 0.20833333333333334 1
vt 0.125 1
vt 0.125 0.75
vt 0.20833333333333334 0.75
vt 0.20833333333333334 1
vt 0.125 1
vt 0.125 0.75
vt 0.20833333333333334 0.75
vt 0.20833333333333334 1
vn -0.7071067811865476 0.7071067811865476 0
vn 0 0.7071067811865476 0.7071067811865476
vn 0.7071067811865476 0.7071067811865476 0
vn 0 0.7071067811865476 -0.7071067811865476
vn 0 1 0
vn 0 1 0
vn 0 1 0
vn 0 1 0
vn 0 1 0
vn 0 0 1
vn 1 0 0
vn -1 0 0
vn 0 0 -1
usemtl m_03b23392-8c83-755b-a046-d5c0dcaa0c48
f 64/133/34 60/134/34 59/135/34 63/136/34
f 61/137/35 63/138/35 59/139/35 57/140/35
f 62/141/36 61/142/36 57/143/36 58/144/36
f 62/145/37 58/146/37 60/147/37 64/148/37
f 67/149/38 65/150/38 66/151/38 68/152/38
f 71/153/39 69/154/39 70/155/39 72/156/39
f 75/157/40 73/158/40 74/159/40 76/160/40
f 79/161/41 77/162/41 78/163/41 80/164/41
f 83/165/42 81/166/42 82/167/42 84/168/42
f 64/169/43 84/170/43 82/171/43 62/172/43
f 63/173/44 83/174/44 84/175/44 64/176/44
f 62/177/45 82/178/45 81/179/45 61/180/45
f 61/181/46 81/182/46 83/183/46 63/184/46
o down
v 0.5 0 0.5
v 0.5 0 -0.5
v -0.5 0 0.5
v -0.5 0 -0.5
vt 0.6666666666666666 0
vt 1 0
vt 1 1
vt 0.6666666666666666 1
vn 0 -1 0
usemtl m_03b23392-8c83-755b-a046-d5c0dcaa0c48
f 86/185/47 85/186/47 87/187/47 88/188/47
o side1
v -0.5 0.8125 -0.5
v 0.5 0.8125 -0.5
v -0.5 0 -0.5
v 0.5 0 -0.5
v 0.125 0.275 -0.5
v 0.125 0.5375 -0.5
v 0.5 0.5375 -0.5
v 0.5 0.275 -0.5
v -0.5 0.275 -0.5
v -0.5 0.5375 -0.5
v -0.125 0.5375 -0.5
v -0.125 0.275 -0.5
v 0.125 0.47083375 -0.375
v 0.0625 0.47083375 -0.375
v 0.125 0.5375 -0.375
v -0.0625 0.47083375 -0.375
v -0.125 0.47083375 -0.375
v -0.125 0.5375 -0.375
v -0.125 0.27083375 -0.375
v -0.125 0.3375 -0.375
v -0.0625 0.3375 -0.375
v 0.125 0.27083375 -0.375
v 0.0625 0.3375 -0.375
v 0.125 0.3375 -0.375
v -0.0625 0.3375 -0.5
v -0.0625 0.404166875 -0.5
v -0.129166875 0.404166875 -0.5
v -0.095833125 0.304166875 -0.5
v 0 0.3375 -0.5
v 0 0.27083375 -0.5
v 0.0625 0.3375 -0.5
v 0.095833125 0.304166875 -0.5
v 0.0625 0.404166875 -0.5
v 0.129166875 0.404166875 -0.5
v 0.0625 0.47083375 -0.5
v 0.095833125 0.504166875 -0.5
v 0 0.47083375 -0.5
v 0 0.5375 -0.5
v -0.0625 0.47083375 -0.5
v -0.095833125 0.504166875 -0.5
v 0.0625 0.47083375 -0.45
v -0.0625 0.47083375 -0.45
v -0.0625 0.3375 -0.45
v 0.0625 0.3375 -0.45
v 0.095833125 0.504166875 -0.45
v -0.095833125 0.504166875 -0.45
v 0.129166875 0.404166875 -0.45
v 0.095833125 0.304166875 -0.45
v 0 0.27083375 -0.45
v -0.095833125 0.304166875 -0.45
v -0.129166875 0.404166875 -0.45
v 0.125 0.5375 -0.5
v -0.125 0.5375 -0.5
v -0.125 0.27083375 -0.5
v 0.125 0.27083375 -0.5
v 0 0.5375 -0.45
vt 0.6666666666666666 0.725
vt 0.6666666666666666 1
vt 0.3333333333333333 1
vt 0.3333333333333333 0.725
vt 0.6666666666666666 0
vt 0.6666666666666666 0.28125
vt 0.3333333333333333 0.28125
vt 0.3333333333333333 0
vt 0.4583333333333333 0.475
vt 0.4583333333333333 0.725
vt 0.3333333333333333 0.725
vt 0.3333333333333333 0.475
vt 0.6666666666666666 0.47187500000000004
vt 0.6666666666666666 0.721875
vt 0.5416666666666666 0.721875
vt 0.5416666666666666 0.47187500000000004
vt 0.46093416666666664 0.38541625
vt 0.5390591666666666 0.38541625
vt 0.5390591666666666 0.44270937499999996
vt 0.46093416666666664 0.44270937499999996
vt 0.48046541666666664 0.557290625
vt 0.46093416666666664 0.557290625
vt 0.46093416666666664 0.44270937499999996
vt 0.48046541666666664 0.44270937499999996
vt 0.5208333333333334 0.46875
vt 0.5208333333333334 0.5625
vt 0.4895833333333333 0.5625
vt 0.4895833333333333 0.46875
vt 0.5390591666666666 0.557290625
vt 0.5195279166666666 0.557290625
vt 0.5195279166666666 0.44270937499999996
vt 0.5390591666666666 0.44270937499999996
vt 0.46093416666666664 0.557290625
vt 0.5390591666666666 0.557290625
vt 0.5390591666666666 0.61458375
vt 0.46093416666666664 0.61458375
vt 0.49999666666666664 0.44270937499999996
vt 0.49999666666666664 0.44270937499999996
vt 0.48046541666666664 0.44270937499999996
vt 0.48046541666666664 0.44270937499999996
vt 0.48046541666666664 0.44270937499999996
vt 0.48046541666666664 0.44270937499999996
vt 0.48046541666666664 0.5
vt 0.48046541666666664 0.5
vt 0.5195279166666666 0.44270937499999996
vt 0.5195279166666666 0.44270937499999996
vt 0.49999666666666664 0.44270937499999996
vt 0.49999666666666664 0.44270937499999996
vt 0.5195279166666666 0.5
vt 0.5195279166666666 0.5
vt 0.5195279166666666 0.44270937499999996
vt 0.5195279166666666 0.44270937499999996
vt 0.48046541666666664 0.5
vt 0.48046541666666664 0.5
vt 0.48046541666666664 0.557290625
vt 0.48046541666666664 0.557290625
vt 0.5195279166666666 0.557290625
vt 0.5195279166666666 0.557290625
vt 0.5195279166666666 0.5
vt 0.5195279166666666 0.5
vt 0.49999666666666664 0.557290625
vt 0.49999666666666664 0.557290625
vt 0.5195279166666666 0.557290625
vt 0.5195279166666666 0.557290625
vt 0.5008091666666666 0.40063812499999996
vt 0.5007816666666667 0.44993875000000005
vt 0.4854129166666667 0.449775625
vt 0.4772266666666667 0.42490625000000004
vt 0.4772266666666667 0.42490625000000004
vt 0.4854129166666667 0.449775625
vt 0.48534583333333337 0.49946124999999997
vt 0.46881958333333335 0.4994275
vt 0.5241735416666666 0.425605
vt 0.5160693749999999 0.45010125
vt 0.5007816666666667 0.44993875000000005
vt 0.5008091666666666 0.40063812499999996
vt 0.53234 0.499556875
vt 0.5160808333333333 0.49952375000000004
vt 0.5160693749999999 0.45010125
vt 0.5241735416666666 0.425605
vt 0.4769614583333333 0.5745575
vt 0.4852785416666667 0.5494012500000001
vt 0.5007264583333334 0.5493
vt 0.50069875 0.599361875
vt 0.46881958333333335 0.4994275
vt 0.48534583333333337 0.49946124999999997
vt 0.4852785416666667 0.5494012500000001
vt 0.4769614583333333 0.5745575
vt 0.5242702083333334 0.574041875
vt 0.5160922916666667 0.54919875
vt 0.5160808333333333 0.49952375000000004
vt 0.53234 0.499556875
vt 0.50069875 0.599361875
vt 0.5007264583333334 0.5493
vt 0.5160922916666667 0.54919875
vt 0.5242702083333334 0.574041875
vt 0.4791666666666667 0.4375
vt 0.4791666666666667 0.5625
vt 0.5208333333333334 0.5625
vt 0.5208333333333334 0.4375
vt 0.46093416666666664 0.38541625
vt 0.5390591666666666 0.38541625
vt 0.5390591666666666 0.38541625
vt 0.46093416666666664 0.38541625
vt 0.4895833333333333 0.5625
vt 0.53125 0.5625
vt 0.53125 0.4375
vt 0.4895833333333333 0.4375
vt 0.4895833333333333 0.4375
vt 0.4895833333333333 0.5625
vt 0.53125 0.5625
vt 0.53125 0.4375
vt 0.46093416666666664 0.61458375
vt 0.46093416666666664 0.61458375
vt 0.46093416666666664 0.38541625
vt 0.46093416666666664 0.38541625
vt 0.5208333333333334 0.46875
vt 0.4791666666666667 0.46875
vt 0.4791666666666667 0.59375
vt 0.5208333333333334 0.59375
vt 0.5390591666666666 0.38541625
vt 0.5390591666666666 0.61458375
vt 0.5390591666666666 0.61458375
vt 0.5390591666666666 0.38541625
vt 0.5390591666666666 0.61458375
vt 0.5390591666666666 0.61458375
vt 0.46093416666666664 0.61458375
vt 0.46093416666666664 0.61458375
vt 0.48046541666666664 0.557290625
vt 0.48046541666666664 0.557290625
vt 0.49999666666666664 0.557290625
vt 0.49999666666666664 0.557290625
vn 0 0 -1
vn 0 0 -1
vn 0 0 -1
vn 0 0 -1
vn 0 0 -1
vn 0 0 -1
vn 0 0 -1
vn 0 0 -1
vn 0 0 -1
vn 0.3285194303803877 -0.9444972122047506 0
vn 0.9486821121912032 -0.31623132357253514 0
vn -0.3285194303803877 -0.9444972122047506 0
vn -0.9486821121912032 -0.31623132357253514 0
vn 0.9486821121912032 0.3162313235725349 0
vn -0.9486821121912032 0.3162313235725349 0
vn -0.3285194303803872 0.9444972122047507 0
vn 0 0 -1
vn 0 0 -1
vn 0 0 -1
vn 0 0 -1
vn 0 0 -1
vn 0 0 -1
vn 0 0 -1
vn 0 0 -1
vn 0 1 0
vn 0 1 0
vn -1 0 0
vn 1 0 0
vn -1 0 0
vn 0 -1 0
vn 1 0 0
vn 0 -1 0
vn 0.3285194303803872 0.9444972122047507 0
usemtl m_03b23392-8c83-755b-a046-d5c0dcaa0c48
f 98/189/48 89/190/48 90/191/48 95/192/48
f 91/193/49 97/194/49 96/195/49 92/196/49
f 93/197/50 94/198/50 95/199/50 96/200/50
f 97/201/51 98/202/51 99/203/51 100/204/51
f 110/205/52 107/206/52 108/207/52 112/208/52
f 102/209/53 101/210/53 112/211/53 111/212/53
f 131/213/54 130/214/54 129/215/54 132/216/54
f 105/217/55 104/218/55 109/219/55 108/220/55
f 101/221/56 105/222/56 106/223/56 103/224/56
f 137/225/57 118/226/57 120/227/57 136/228/57
f 136/229/58 120/230/58 122/231/58 135/232/58
f 138/233/59 116/234/59 118/235/59 137/236/59
f 139/237/60 115/238/60 116/239/60 138/240/60
f 135/241/61 122/242/61 124/243/61 133/244/61
f 134/245/62 128/246/62 115/247/62 139/248/62
f 144/249/63 126/250/63 128/251/63 134/252/63
f 118/253/64 117/254/64 119/255/64 120/256/64
f 120/257/65 119/258/65 121/259/65 122/260/65
f 116/261/66 113/262/66 117/263/66 118/264/66
f 115/265/67 114/266/67 113/267/67 116/268/67
f 124/269/68 123/270/68 125/271/68 126/272/68
f 122/273/69 121/274/69 123/275/69 124/276/69
f 128/277/70 127/278/70 114/279/70 115/280/70
f 126/281/71 125/282/71 127/283/71 128/284/71
f 119/285/72 113/286/72 109/287/72 111/288/72
f 143/289/73 142/290/73 107/291/73 110/292/73
f 102/293/74 123/294/74 119/295/74 111/296/74
f 113/297/75 127/298/75 104/299/75 109/300/75
f 103/301/76 140/302/76 143/303/76 110/304/76
f 104/305/77 127/306/77 123/307/77 102/308/77
f 142/309/78 141/310/78 106/311/78 107/312/78
f 106/313/79 141/314/79 140/315/79 103/316/79
f 133/317/80 124/318/80 126/319/80 144/320/80
o side2
v 0.5 0.8125 -0.5
v 0.5 0.8125 0.5
v 0.5 0 -0.5
v 0.5 0 0.5
v 0.5 0.275 0.125
v 0.5 0.5375 0.125
v 0.5 0.5375 0.5
v 0.5 0.275 0.5
v 0.5 0.275 -0.5
v 0.5 0.5375 -0.5
v 0.5 0.5375 -0.125
v 0.5 0.275 -0.125
v 0.375 0.47083375 0.125
v 0.375 0.47083375 0.0625
v 0.375 0.5375 0.125
v 0.375 0.47083375 -0.0625
v 0.375 0.47083375 -0.125
v 0.375 0.5375 -0.125
v 0.375 0.27083375 -0.125
v 0.375 0.3375 -0.125
v 0.375 0.3375 -0.0625
v 0.375 0.27083375 0.125
v 0.375 0.3375 0.0625
v 0.375 0.3375 0.125
v 0.5 0.3375 -0.0625
v 0.5 0.404166875 -0.0625
v 0.5 0.404166875 -0.129166875
v 0.5 0.304166875 -0.095833125
v 0.5 0.3375 0
v 0.5 0.27083375 0
v 0.5 0.3375 0.0625
v 0.5 0.304166875 0.095833125
v 0.5 0.404166875 0.0625
v 0.5 0.404166875 0.129166875
v 0.5 0.47083375 0.0625
v 0.5 0.504166875 0.095833125
v 0.5 0.47083375 0
v 0.5 0.5375 0
v 0.5 0.47083375 -0.0625
v 0.5 0.504166875 -0.095833125
v 0.45 0.47083375 0.0625
v 0.45 0.47083375 -0.0625
v 0.45 0.3375 -0.0625
v 0.45 0.3375 0.0625
v 0.45 0.504166875 0.095833125
v 0.45 0.504166875 -0.095833125
v 0.45 0.404166875 0.129166875
v 0.45 0.304166875 0.095833125
v 0.45 0.27083375 0
v 0.45 0.304166875 -0.095833125
v 0.45 0.404166875 -0.129166875
v 0.5 0.5375 0.125
v 0.5 0.5375 -0.125
v 0.5 0.27083375 -0.125
v 0.5 0.27083375 0.125
v 0.45 0.5375 0
vt 0.6666666666666666 0.725
vt 0.6666666666666666 1
vt 0.3333333333333333 1
vt 0.3333333333333333 0.725
vt 0.6666666666666666 0
vt 0.6666666666666666 0.28125
vt 0.3333333333333333 0.28125
vt 0.3333333333333333 0
vt 0.4583333333333333 0.475
vt 0.4583333333333333 0.725
vt 0.3333333333333333 0.725
vt 0.3333333333333333 0.475
vt 0.6666666666666666 0.47187500000000004
vt 0.6666666666666666 0.721875
vt 0.5416666666666666 0.721875
vt 0.5416666666666666 0.47187500000000004
vt 0.46093416666666664 0.38541625
vt 0.5390591666666666 0.38541625
vt 0.5390591666666666 0.44270937499999996
vt 0.46093416666666664 0.44270937499999996
vt 0.48046541666666664 0.557290625
vt 0.46093416666666664 0.557290625
vt 0.46093416666666664 0.44270937499999996
vt 0.48046541666666664 0.44270937499999996
vt 0.5208333333333334 0.46875
vt 0.5208333333333334 0.5625
vt 0.4895833333333333 0.5625
vt 0.4895833333333333 0.46875
vt 0.5390591666666666 0.557290625
vt 0.5195279166666666 0.557290625
vt 0.5195279166666666 0.44270937499999996
vt 0.5390591666666666 0.44270937499999996
vt 0.46093416666666664 0.557290625
vt 0.5390591666666666 0.557290625
vt 0.5390591666666666 0.61458375
vt 0.46093416666666664 0.61458375
vt 0.49999666666666664 0.44270937499999996
vt 0.49999666666666664 0.44270937499999996
vt 0.48046541666666664 0.44270937499999996
vt 0.48046541666666664 0.44270937499999996
vt 0.48046541666666664 0.44270937499999996
vt 0.48046541666666664 0.44270937499999996
vt 0.48046541666666664 0.5
vt 0.48046541666666664 0.5
vt 0.5195279166666666 0.44270937499999996
vt 0.5195279166666666 0.44270937499999996
vt 0.49999666666666664 0.44270937499999996
vt 0.49999666666666664 0.44270937499999996
vt 0.5195279166666666 0.5
vt 0.5195279166666666 0.5
vt 0.5195279166666666 0.44270937499999996
vt 0.5195279166666666 0.44270937499999996
vt 0.48046541666666664 0.5
vt 0.48046541666666664 0.5
vt 0.48046541666666664 0.557290625
vt 0.48046541666666664 0.557290625
vt 0.5195279166666666 0.557290625
vt 0.5195279166666666 0.557290625
vt 0.5195279166666666 0.5
vt 0.5195279166666666 0.5
vt 0.49999666666666664 0.557290625
vt 0.49999666666666664 0.557290625
vt 0.5195279166666666 0.557290625
vt 0.5195279166666666 0.557290625
vt 0.5008091666666666 0.40063812499999996
vt 0.5007816666666667 0.44993875000000005
vt 0.4854129166666667 0.449775625
vt 0.4772266666666667 0.42490625000000004
vt 0.4772266666666667 0.42490625000000004
vt 0.4854129166666667 0.449775625
vt 0.48534583333333337 0.49946124999999997
vt 0.46881958333333335 0.4994275
vt 0.5241735416666666 0.425605
vt 0.5160693749999999 0.45010125
vt 0.5007816666666667 0.44993875000000005
vt 0.5008091666666666 0.40063812499999996
vt 0.53234 0.499556875
vt 0.5160808333333333 0.49952375000000004
vt 0.5160693749999999 0.45010125
vt 0.5241735416666666 0.425605
vt 0.4769614583333333 0.5745575
vt 0.4852785416666667 0.5494012500000001
vt 0.5007264583333334 0.5493
vt 0.50069875 0.599361875
vt 0.46881958333333335 0.4994275
vt 0.48534583333333337 0.49946124999999997
vt 0.4852785416666667 0.5494012500000001
vt 0.4769614583333333 0.5745575
vt 0.5242702083333334 0.574041875
vt 0.5160922916666667 0.54919875
vt 0.5160808333333333 0.49952375000000004
vt 0.53234 0.499556875
vt 0.50069875 0.599361875
vt 0.5007264583333334 0.5493
vt 0.5160922916666667 0.54919875
vt 0.5242702083333334 0.574041875
vt 0.4791666666666667 0.4375
vt 0.4791666666666667 0.5625
vt 0.5208333333333334 0.5625
vt 0.5208333333333334 0.4375
vt 0.46093416666666664 0.38541625
vt 0.5390591666666666 0.38541625
vt 0.5390591666666666 0.38541625
vt 0.46093416666666664 0.38541625
vt 0.4895833333333333 0.5625
vt 0.53125 0.5625
vt 0.53125 0.4375
vt 0.4895833333333333 0.4375
vt 0.4895833333333333 0.4375
vt 0.4895833333333333 0.5625
vt 0.53125 0.5625
vt 0.53125 0.4375
vt 0.46093416666666664 0.61458375
vt 0.46093416666666664 0.61458375
vt 0.46093416666666664 0.38541625
vt 0.46093416666666664 0.38541625
vt 0.5208333333333334 0.46875
vt 0.4791666666666667 0.46875
vt 0.4791666666666667 0.59375
vt 0.5208333333333334 0.59375
vt 0.5390591666666666 0.38541625
vt 0.5390591666666666 0.61458375
vt 0.5390591666666666 0.61458375
vt 0.5390591666666666 0.38541625
vt 0.5390591666666666 0.61458375
vt 0.5390591666666666 0.61458375
vt 0.46093416666666664 0.61458375
vt 0.46093416666666664 0.61458375
vt 0.48046541666666664 0.557290625
vt 0.48046541666666664 0.557290625
vt 0.49999666666666664 0.557290625
vt 0.49999666666666664 0.557290625
vn 1 0 0
vn 1 0 0
vn 1 0 0
vn 1 0 0
vn 1 0 0
vn 1 0 0
vn 1 0 0
vn 1 0 0
vn 1 0 0
vn 0 -0.9444972122047506 0.3285194303803877
vn 0 -0.31623132357253514 0.9486821121912032
vn 0 -0.9444972122047506 -0.3285194303803877
vn 0 -0.31623132357253514 -0.9486821121912032
vn 0 0.3162313235725349 0.9486821121912032
vn 0 0.3162313235725349 -0.9486821121912032
vn 0 0.9444972122047507 -0.3285194303803872
vn 1 0 0
vn 1 0 0
vn 1 0 0
vn 1 0 0
vn 1 0 0
vn 1 0 0
vn 1 0 0
vn 1 0 0
vn 0 1 0
vn 0 1 0
vn 0 0 -1
vn 0 0 1
vn 0 0 -1
vn 0 -1 0
vn 0 0 1
vn 0 -1 0
vn 0 0.9444972122047507 0.3285194303803872
usemtl m_03b23392-8c83-755b-a046-d5c0dcaa0c48
f 154/321/81 145/322/81 146/323/81 151/324/81
f 147/325/82 153/326/82 152/327/82 148/328/82
f 149/329/83 150/330/83 151/331/83 152/332/83
f 153/333/84 154/334/84 155/335/84 156/336/84
f 166/337/85 163/338/85 164/339/85 168/340/85
f 158/341/86 157/342/86 168/343/86 167/344/86
f 187/345/87 186/346/87 185/347/87 188/348/87
f 161/349/88 160/350/88 165/351/88 164/352/88
f 157/353/89 161/354/89 162/355/89 159/356/89
f 193/357/90 174/358/90 176/359/90 192/360/90
f 192/361/91 176/362/91 178/363/91 191/364/91
f 194/365/92 172/366/92 174/367/92 193/368/92
f 195/369/93 171/370/93 172/371/93 194/372/93
f 191/373/94 178/374/94 180/375/94 189/376/94
f 190/377/95 184/378/95 171/379/95 195/380/95
f 200/381/96 182/382/96 184/383/96 190/384/96
f 174/385/97 173/386/97 175/387/97 176/388/97
f 176/389/98 175/390/98 177/391/98 178/392/98
f 172/393/99 169/394/99 173/395/99 174/396/99
f 171/397/100 170/398/100 169/399/100 172/400/100
f 180/401/101 179/402/101 181/403/101 182/404/101
f 178/405/102 177/406/102 179/407/102 180/408/102
f 184/409/103 183/410/103 170/411/103 171/412/103
f 182/413/104 181/414/104 183/415/104 184/416/104
f 175/417/105 169/418/105 165/419/105 167/420/105
f 199/421/106 198/422/106 163/423/106 166/424/106
f 158/425/107 179/426/107 175/427/107 167/428/107
f 169/429/108 183/430/108 160/431/108 165/432/108
f 159/433/109 196/434/109 199/435/109 166/436/109
f 160/437/110 183/438/110 179/439/110 158/440/110
f 198/441/111 197/442/111 162/443/111 163/444/111
f 162/445/112 197/446/112 196/447/112 159/448/112
f 189/449/113 180/450/113 182/451/113 200/452/113
o side3
v 0.5 0.8125 0.5
v -0.5 0.8125 0.5
v 0.5 0 0.5
v -0.5 0 0.5
v -0.125 0.275 0.5
v -0.125 0.5375 0.5
v -0.5 0.5375 0.5
v -0.5 0.275 0.5
v 0.5 0.275 0.5
v 0.5 0.5375 0.5
v 0.125 0.5375 0.5
v 0.125 0.275 0.5
v -0.125 0.47083375 0.375
v -0.0625 0.47083375 0.375
v -0.125 0.5375 0.375
v 0.0625 0.47083375 0.375
v 0.125 0.47083375 0.375
v 0.125 0.5375 0.375
v 0.125 0.27083375 0.375
v 0.125 0.3375 0.375
v 0.0625 0.3375 0.375
v -0.125 0.27083375 0.375
v -0.0625 0.3375 0.375
v -0.125 0.3375 0.375
v 0.0625 0.3375 0.5
v 0.0625 0.404166875 0.5
v 0.129166875 0.404166875 0.5
v 0.095833125 0.304166875 0.5
v 0 0.3375 0.5
v 0 0.27083375 0.5
v -0.0625 0.3375 0.5
v -0.095833125 0.304166875 0.5
v -0.0625 0.404166875 0.5
v -0.129166875 0.404166875 0.5
v -0.0625 0.47083375 0.5
v -0.095833125 0.504166875 0.5
v 0 0.47083375 0.5
v 0 0.5375 0.5
v 0.0625 0.47083375 0.5
v 0.095833125 0.504166875 0.5
v -0.0625 0.47083375 0.45
v 0.0625 0.47083375 0.45
v 0.0625 0.3375 0.45
v -0.0625 0.3375 0.45
v -0.095833125 0.504166875 0.45
v 0.095833125 0.504166875 0.45
v -0.129166875 0.404166875 0.45
v -0.095833125 0.304166875 0.45
v 0 0.27083375 0.45
v 0.095833125 0.304166875 0.45
v 0.129166875 0.404166875 0.45
v -0.125 0.5375 0.5
v 0.125 0.5375 0.5
v 0.125 0.27083375 0.5
v -0.125 0.27083375 0.5
v 0 0.5375 0.45
vt 0.6666666666666666 0.725
vt 0.6666666666666666 1
vt 0.3333333333333333 1
vt 0.3333333333333333 0.725
vt 0.6666666666666666 0
vt 0.6666666666666666 0.28125
vt 0.3333333333333333 0.28125
vt 0.3333333333333333 0
vt 0.4583333333333333 0.475
vt 0.4583333333333333 0.725
vt 0.3333333333333333 0.725
vt 0.3333333333333333 0.475
vt 0.6666666666666666 0.47187500000000004
vt 0.6666666666666666 0.721875
vt 0.5416666666666666 0.721875
vt 0.5416666666666666 0.47187500000000004
vt 0.46093416666666664 0.38541625
vt 0.5390591666666666 0.38541625
vt 0.5390591666666666 0.44270937499999996
vt 0.46093416666666664 0.44270937499999996
vt 0.48046541666666664 0.557290625
vt 0.46093416666666664 0.557290625
vt 0.46093416666666664 0.44270937499999996
vt 0.48046541666666664 0.44270937499999996
vt 0.5208333333333334 0.46875
vt 0.5208333333333334 0.5625
vt 0.4895833333333333 0.5625
vt 0.4895833333333333 0.46875
vt 0.5390591666666666 0.557290625
vt 0.5195279166666666 0.557290625
vt 0.5195279166666666 0.44270937499999996
vt 0.5390591666666666 0.44270937499999996
vt 0.46093416666666664 0.557290625
vt 0.5390591666666666 0.557290625
vt 0.5390591666666666 0.61458375
vt 0.46093416666666664 0.61458375
vt 0.49999666666666664 0.44270937499999996
vt 0.49999666666666664 0.44270937499999996
vt 0.48046541666666664 0.44270937499999996
vt 0.48046541666666664 0.44270937499999996
vt 0.48046541666666664 0.44270937499999996
vt 0.48046541666666664 0.44270937499999996
vt 0.48046541666666664 0.5
vt 0.48046541666666664 0.5
vt 0.5195279166666666 0.44270937499999996
vt 0.5195279166666666 0.44270937499999996
vt 0.49999666666666664 0.44270937499999996
vt 0.49999666666666664 0.44270937499999996
vt 0.5195279166666666 0.5
vt 0.5195279166666666 0.5
vt 0.5195279166666666 0.44270937499999996
vt 0.5195279166666666 0.44270937499999996
vt 0.48046541666666664 0.5
vt 0.48046541666666664 0.5
vt 0.48046541666666664 0.557290625
vt 0.48046541666666664 0.557290625
vt 0.5195279166666666 0.557290625
vt 0.5195279166666666 0.557290625
vt 0.5195279166666666 0.5
vt 0.5195279166666666 0.5
vt 0.49999666666666664 0.557290625
vt 0.49999666666666664 0.557290625
vt 0.5195279166666666 0.557290625
vt 0.5195279166666666 0.557290625
vt 0.5008091666666666 0.40063812499999996
vt 0.5007816666666667 0.44993875000000005
vt 0.4854129166666667 0.449775625
vt 0.4772266666666667 0.42490625000000004
vt 0.4772266666666667 0.42490625000000004
vt 0.4854129166666667 0.449775625
vt 0.48534583333333337 0.49946124999999997
vt 0.46881958333333335 0.4994275
vt 0.5241735416666666 0.425605
vt 0.5160693749999999 0.45010125
vt 0.5007816666666667 0.44993875000000005
vt 0.5008091666666666 0.40063812499999996
vt 0.53234 0.499556875
vt 0.5160808333333333 0.49952375000000004
vt 0.5160693749999999 0.45010125
vt 0.5241735416666666 0.425605
vt 0.4769614583333333 0.5745575
vt 0.4852785416666667 0.5494012500000001
vt 0.5007264583333334 0.5493
vt 0.50069875 0.599361875
vt 0.46881958333333335 0.4994275
vt 0.48534583333333337 0.49946124999999997
vt 0.4852785416666667 0.5494012500000001
vt 0.4769614583333333 0.5745575
vt 0.5242702083333334 0.574041875
vt 0.5160922916666667 0.54919875
vt 0.5160808333333333 0.49952375000000004
vt 0.53234 0.499556875
vt 0.50069875 0.599361875
vt 0.5007264583333334 0.5493
vt 0.5160922916666667 0.54919875
vt 0.5242702083333334 0.574041875
vt 0.4791666666666667 0.4375
vt 0.4791666666666667 0.5625
vt 0.5208333333333334 0.5625
vt 0.5208333333333334 0.4375
vt 0.46093416666666664 0.38541625
vt 0.5390591666666666 0.38541625
vt 0.5390591666666666 0.38541625
vt 0.46093416666666664 0.38541625
vt 0.4895833333333333 0.5625
vt 0.53125 0.5625
vt 0.53125 0.4375
vt 0.4895833333333333 0.4375
vt 0.4895833333333333 0.4375
vt 0.4895833333333333 0.5625
vt 0.53125 0.5625
vt 0.53125 0.4375
vt 0.46093416666666664 0.61458375
vt 0.46093416666666664 0.61458375
vt 0.46093416666666664 0.38541625
vt 0.46093416666666664 0.38541625
vt 0.5208333333333334 0.46875
vt 0.4791666666666667 0.46875
vt 0.4791666666666667 0.59375
vt 0.5208333333333334 0.59375
vt 0.5390591666666666 0.38541625
vt 0.5390591666666666 0.61458375
vt 0.5390591666666666 0.61458375
vt 0.5390591666666666 0.38541625
vt 0.5390591666666666 0.61458375
vt 0.5390591666666666 0.61458375
vt 0.46093416666666664 0.61458375
vt 0.46093416666666664 0.61458375
vt 0.48046541666666664 0.557290625
vt 0.48046541666666664 0.557290625
vt 0.49999666666666664 0.557290625
vt 0.49999666666666664 0.557290625
vn 0 0 1
vn 0 0 1
vn 0 0 1
vn 0 0 1
vn 0 0 1
vn 0 0 1
vn 0 0 1
vn 0 0 1
vn 0 0 1
vn -0.3285194303803877 -0.9444972122047506 0
vn -0.9486821121912032 -0.31623132357253514 0
vn 0.3285194303803877 -0.9444972122047506 0
vn 0.9486821121912032 -0.31623132357253514 0
vn -0.9486821121912032 0.3162313235725349 0
vn 0.9486821121912032 0.3162313235725349 0
vn 0.3285194303803872 0.9444972122047507 0
vn 0 0 1
vn 0 0 1
vn 0 0 1
vn 0 0 1
vn 0 0 1
vn 0 0 1
vn 0 0 1
vn 0 0 1
vn 0 1 0
vn 0 1 0
vn 1 0 0
vn -1 0 0
vn 1 0 0
vn 0 -1 0
vn -1 0 0
vn 0 -1 0
vn -0.3285194303803872 0.9444972122047507 0
usemtl m_03b23392-8c83-755b-a046-d5c0dcaa0c48
f 210/453/114 201/454/114 202/455/114 207/456/114
f 203/457/115 209/458/115 208/459/115 204/460/115
f 205/461/116 206/462/116 207/463/116 208/464/116
f 209/465/117 210/466/117 211/467/117 212/468/117
f 222/469/118 219/470/118 220/471/118 224/472/118
f 214/473/119 213/474/119 224/475/119 223/476/119
f 243/477/120 242/478/120 241/479/120 244/480/120
f 217/481/121 216/482/121 221/483/121 220/484/121
f 213/485/122 217/486/122 218/487/122 215/488/122
f 249/489/123 230/490/123 232/491/123 248/492/123
f 248/493/124 232/494/124 234/495/124 247/496/124
f 250/497/125 228/498/125 230/499/125 249/500/125
f 251/501/126 227/502/126 228/503/126 250/504/126
f 247/505/127 234/506/127 236/507/127 245/508/127
f 246/509/128 240/510/128 227/511/128 251/512/128
f 256/513/129 238/514/129 240/515/129 246/516/129
f 230/517/130 229/518/130 231/519/130 232/520/130
f 232/521/131 231/522/131 233/523/131 234/524/131
f 228/525/132 225/526/132 229/527/132 230/528/132
f 227/529/133 226/530/133 225/531/133 228/532/133
f 236/533/134 235/534/134 237/535/134 238/536/134
f 234/537/135 233/538/135 235/539/135 236/540/135
f 240/541/136 239/542/136 226/543/136 227/544/136
f 238/545/137 237/546/137 239/547/137 240/548/137
f 231/549/138 225/550/138 221/551/138 223/552/138
f 255/553/139 254/554/139 219/555/139 222/556/139
f 214/557/140 235/558/140 231/559/140 223/560/140
f 225/561/141 239/562/141 216/563/141 221/564/141
f 215/565/142 252/566/142 255/567/142 222/568/142
f 216/569/143 239/570/143 235/571/143 214/572/143
f 254/573/144 253/574/144 218/575/144 219/576/144
f 218/577/145 253/578/145 252/579/145 215/580/145
f 245/581/146 236/582/146 238/583/146 256/584/146
o side2_selection
v -0.06979187500000006 0.751041875 0.0625
v -0.06979187500000006 0.751041875 0
v -0.10312500000000013 0.751041875 0.095833125
v -0.1364581250000001 0.751041875 0
v -0.0031250000000000444 0.751041875 0.0625
v -0.0031250000000000444 0.751041875 0.129166875
v 0.06354187499999997 0.751041875 0.0625
v 0.09687499999999993 0.751041875 0.095833125
v 0.06354187499999997 0.751041875 0
v 0.130208125 0.751041875 0
v 0.06354187499999997 0.751041875 -0.0625
v 0.09687499999999993 0.751041875 -0.095833125
v -0.0031250000000000444 0.751041875 -0.0625
v -0.0031250000000000444 0.751041875 -0.129166875
v -0.06979187500000006 0.751041875 -0.0625
v -0.10312500000000013 0.751041875 -0.095833125
v 0.06354187499999997 0.701041875 -0.0625
v -0.06979187500000006 0.701041875 -0.0625
v -0.06979187500000006 0.701041875 0.0625
v 0.06354187499999997 0.701041875 0.0625
v -0.06979187500000006 0.626041875 -0.0625
v -0.06979187500000006 0.626041875 0.0625
v 0.06354187499999997 0.626041875 0.0625
v 0.06354187499999997 0.626041875 -0.0625
v 0.09687499999999993 0.701041875 0.095833125
v -0.0031250000000000444 0.701041875 0.129166875
v 0.130208125 0.701041875 0
v -0.10312500000000013 0.701041875 0.095833125
v -0.1364581250000001 0.701041875 0
v -0.10312500000000013 0.701041875 -0.095833125
v -0.0031250000000000444 0.701041875 -0.129166875
v 0.09687499999999993 0.701041875 -0.095833125
vt 0.5208333333333334 0.46875
vt 0.5208333333333334 0.5625
vt 0.4895833333333333 0.5625
vt 0.4895833333333333 0.46875
vt 0.49999666666666664 0.44270937499999996
vt 0.49999666666666664 0.44270937499999996
vt 0.48046541666666664 0.44270937499999996
vt 0.48046541666666664 0.44270937499999996
vt 0.48046541666666664 0.44270937499999996
vt 0.48046541666666664 0.44270937499999996
vt 0.48046541666666664 0.5
vt 0.48046541666666664 0.5
vt 0.5195279166666666 0.44270937499999996
vt 0.5195279166666666 0.44270937499999996
vt 0.49999666666666664 0.44270937499999996
vt 0.49999666666666664 0.44270937499999996
vt 0.5195279166666666 0.5
vt 0.5195279166666666 0.5
vt 0.5195279166666666 0.44270937499999996
vt 0.5195279166666666 0.44270937499999996
vt 0.48046541666666664 0.5
vt 0.48046541666666664 0.5
vt 0.48046541666666664 0.557290625
vt 0.48046541666666664 0.557290625
vt 0.5195279166666666 0.557290625
vt 0.5195279166666666 0.557290625
vt 0.5195279166666666 0.5
vt 0.5195279166666666 0.5
vt 0.49999666666666664 0.557290625
vt 0.49999666666666664 0.557290625
vt 0.5195279166666666 0.557290625
vt 0.5195279166666666 0.557290625
vt 0.5008091666666666 0.40063812499999996
vt 0.5007816666666667 0.44993875000000005
vt 0.4854129166666667 0.449775625
vt 0.4772266666666667 0.42490625000000004
vt 0.4772266666666667 0.42490625000000004
vt 0.4854129166666667 0.449775625
vt 0.48534583333333337 0.49946124999999997
vt 0.46881958333333335 0.4994275
vt 0.5241735416666666 0.425605
vt 0.5160693749999999 0.45010125
vt 0.5007816666666667 0.44993875000000005
vt 0.5008091666666666 0.40063812499999996
vt 0.53234 0.499556875
vt 0.5160808333333333 0.49952375000000004
vt 0.5160693749999999 0.45010125
vt 0.5241735416666666 0.425605
vt 0.4769614583333333 0.5745575
vt 0.4852785416666667 0.5494012500000001
vt 0.5007264583333334 0.5493
vt 0.50069875 0.599361875
vt 0.46881958333333335 0.4994275
vt 0.48534583333333337 0.49946124999999997
vt 0.4852785416666667 0.5494012500000001
vt 0.4769614583333333 0.5745575
vt 0.5242702083333334 0.574041875
vt 0.5160922916666667 0.54919875
vt 0.5160808333333333 0.49952375000000004
vt 0.53234 0.499556875
vt 0.50069875 0.599361875
vt 0.5007264583333334 0.5493
vt 0.5160922916666667 0.54919875
vt 0.5242702083333334 0.574041875
vt 0.4791666666666667 0.4375
vt 0.4791666666666667 0.5625
vt 0.5208333333333334 0.5625
vt 0.5208333333333334 0.4375
vt 0.4895833333333333 0.5625
vt 0.53125 0.5625
vt 0.53125 0.4375
vt 0.4895833333333333 0.4375
vt 0.4895833333333333 0.4375
vt 0.4895833333333333 0.5625
vt 0.53125 0.5625
vt 0.53125 0.4375
vt 0.5208333333333334 0.46875
vt 0.4791666666666667 0.46875
vt 0.4791666666666667 0.59375
vt 0.5208333333333334 0.59375
vt 0.48046541666666664 0.557290625
vt 0.48046541666666664 0.557290625
vt 0.49999666666666664 0.557290625
vt 0.49999666666666664 0.557290625
vn 0 1 0
vn 0.9444972122047504 0 0.3285194303803882
vn 0.31623132357253514 0 0.9486821121912032
vn 0.9444972122047504 0 -0.3285194303803882
vn 0.31623132357253514 0 -0.9486821121912032
vn -0.31623132357253475 0 0.9486821121912032
vn -0.31623132357253475 0 -0.9486821121912032
vn -0.9444972122047507 0 -0.3285194303803872
vn 0 1 0
vn 0 1 0
vn 0 1 0
vn 0 1 0
vn 0 1 0
vn 0 1 0
vn 0 1 0
vn 0 1 0
vn -1 0 0
vn 0 0 -1
vn 0 0 1
vn 1 0 0
vn -0.9444972122047507 0 0.3285194303803872
usemtl m_03b23392-8c83-755b-a046-d5c0dcaa0c48
f 273/585/147 274/586/147 275/587/147 276/588/147
f 283/589/148 266/590/148 264/591/148 281/592/148
f 281/593/149 264/594/149 262/595/149 282/596/149
f 288/597/150 268/598/150 266/599/150 283/600/150
f 287/601/151 270/602/151 268/603/151 288/604/151
f 282/605/152 262/606/152 259/607/152 284/608/152
f 286/609/153 272/610/153 270/611/153 287/612/153
f 285/613/154 260/614/154 272/615/154 286/616/154
f 266/617/155 265/618/155 263/619/155 264/620/155
f 264/621/156 263/622/156 261/623/156 262/624/156
f 268/625/157 267/626/157 265/627/157 266/628/157
f 270/629/158 269/630/158 267/631/158 268/632/158
f 259/633/159 257/634/159 258/635/159 260/636/159
f 262/637/160 261/638/160 257/639/160 259/640/160
f 272/641/161 271/642/161 269/643/161 270/644/161
f 260/645/162 258/646/162 271/647/162 272/648/162
f 263/649/163 267/650/163 280/651/163 279/652/163
f 278/653/164 257/654/164 263/655/164 279/656/164
f 267/657/165 271/658/165 277/659/165 280/660/165
f 277/661/166 271/662/166 257/663/166 278/664/166
f 284/665/167 259/666/167 260/667/167 285/668/167