# Made in Blockbench 5.1.6
mtllib MagicianTable.mtl

o side1
v -0.375 0.375 -0.125
v -0.375 0.375 0.125
v -0.375 0.625 -0.125
v -0.375 0.625 0.125
v -0.5 0.375 -0.125
v -0.5 0.375 0.125
v -0.5 0.625 -0.125
v -0.5 0.625 0.125
v -0.5 1 0.5
v -0.5 0 0.5
v -0.5 1 -0.125
v -0.5 0.625 -0.125
v -0.5 0 0.125
v -0.5 0.375 0.125
v -0.5 0.375 -0.125
v -0.5 0 -0.125
v -0.5 1 -0.125
v -0.5 1 -0.5
v -0.5 0 -0.125
v -0.5 0 -0.5
v -0.5 1 0.125
v -0.5 0 0.125
v -0.5 1 0.125
v -0.5 0.625 0.125
vt 0.15625 0.625
vt 0.15625 0.375
vt 0.21875 0.375
vt 0.21875 0.625
vt 0.1875 0.40625
vt 0.1875 0.28125
vt 0.3125 0.28125
vt 0.3125 0.40625
vt 0.15625 0.625
vt 0.15625 0.375
vt 0.21875 0.375
vt 0.21875 0.625
vt 0.1875 0.40625
vt 0.1875 0.28125
vt 0.3125 0.28125
vt 0.3125 0.40625
vt 0.3125 0
vt 0.3125 0.375
vt 0.1875 0.375
vt 0.1875 0
vt 0.1875 0
vt 0.1875 1
vt 0 1
vt 0 0
vt 0.5 0
vt 0.5 1
vt 0.3125 1
vt 0.3125 0
vt 0.3125 0.625
vt 0.3125 1
vt 0.1875 1
vt 0.1875 0.625
vt 0.3125825 0.375
vt 0.3125825 0.625
vt 0.1875825 0.625
vt 0.1875825 0.375
vn 0 1 0
vn 0 0 1
vn 0 0 -1
vn 0 -1 0
vn -1 0 0
vn -1 0 0
vn -1 0 0
vn -1 0 0
vn -1 0 0
usemtl m_2be0671d-2af4-e9ee-52a8-570e743540ec
f 5/1/1 6/2/1 2/3/1 1/4/1
f 3/5/2 7/6/2 5/7/2 1/8/2
f 6/9/3 8/10/3 4/11/3 2/12/3
f 4/13/4 8/14/4 7/15/4 3/16/4
f 13/17/5 14/18/5 15/19/5 16/20/5
f 19/21/6 17/22/6 18/23/6 20/24/6
f 10/25/7 9/26/7 21/27/7 22/28/7
f 24/29/8 23/30/8 11/31/8 12/32/8
f 2/33/9 4/34/9 3/35/9 1/36/9
o side2
v 0.125 0.375 -0.375
v -0.125 0.375 -0.375
v 0.125 0.625 -0.375
v -0.125 0.625 -0.375
v 0.125 0.375 -0.5
v -0.125 0.375 -0.5
v 0.125 0.625 -0.5
v -0.125 0.625 -0.5
v -0.5 1 -0.5
v -0.5 0 -0.5
v 0.125 1 -0.5
v 0.125 0.625 -0.5
v -0.125 0 -0.5
v -0.125 0.375 -0.5
v 0.125 0.375 -0.5
v 0.125 0 -0.5
v 0.125 1 -0.5
v 0.5 1 -0.5
v 0.125 0 -0.5
v 0.5 0 -0.5
v -0.125 1 -0.5
v -0.125 0 -0.5
v -0.125 1 -0.5
v -0.125 0.625 -0.5
vt 0.1484375 0.65625
vt 0.1484375 0.40625
vt 0.2109375 0.40625
vt 0.2109375 0.65625
vt 0.1796875 0.4375
vt 0.1796875 0.3125
vt 0.3046875 0.3125
vt 0.3046875 0.4375
vt 0.1484375 0.65625
vt 0.1484375 0.40625
vt 0.2109375 0.40625
vt 0.2109375 0.65625
vt 0.1796875 0.4375
vt 0.1796875 0.3125
vt 0.3046875 0.3125
vt 0.3046875 0.4375
vt 0.30477 0.40625
vt 0.30477 0.65625
vt 0.17977 0.65625
vt 0.17977 0.40625
vt 0.3125 0
vt 0.3125 0.375
vt 0.1875 0.375
vt 0.1875 0
vt 0.1875 0
vt 0.1875 1
vt 0 1
vt 0 0
vt 0.5 0
vt 0.5 1
vt 0.3125 1
vt 0.3125 0
vt 0.3125 0.625
vt 0.3125 1
vt 0.1875 1
vt 0.1875 0.625
vn 0 1 0
vn -1 0 0
vn 1 0 0
vn 0 -1 0
vn 0 0 -1
vn 0 0 -1
vn 0 0 -1
vn 0 0 -1
vn 0 0 -1
usemtl m_2be0671d-2af4-e9ee-52a8-570e743540ec
f 29/37/10 30/38/10 26/39/10 25/40/10
f 27/41/11 31/42/11 29/43/11 25/44/11
f 30/45/12 32/46/12 28/47/12 26/48/12
f 28/49/13 32/50/13 31/51/13 27/52/13
f 26/53/14 28/54/14 27/55/14 25/56/14
f 37/57/15 38/58/15 39/59/15 40/60/15
f 43/61/16 41/62/16 42/63/16 44/64/16
f 34/65/17 33/66/17 45/67/17 46/68/17
f 48/69/18 47/70/18 35/71/18 36/72/18
o side3
v 0.375 0.375 0.125
v 0.375 0.375 -0.125
v 0.375 0.625 0.125
v 0.375 0.625 -0.125
v 0.5 0.375 0.125
v 0.5 0.375 -0.125
v 0.5 0.625 0.125
v 0.5 0.625 -0.125
v 0.5 1 -0.5
v 0.5 0 -0.5
v 0.5 1 0.125
v 0.5 0.625 0.125
v 0.5 0 -0.125
v 0.5 0.375 -0.125
v 0.5 0.375 0.125
v 0.5 0 0.125
v 0.5 1 0.125
v 0.5 1 0.5
v 0.5 0 0.125
v 0.5 0 0.5
v 0.5 1 -0.125
v 0.5 0 -0.125
v 0.5 1 -0.125
v 0.5 0.625 -0.125
vt 0.15625 0.625
vt 0.15625 0.375
vt 0.21875 0.375
vt 0.21875 0.625
vt 0.1875 0.40625
vt 0.1875 0.28125
vt 0.3125 0.28125
vt 0.3125 0.40625
vt 0.15625 0.625
vt 0.15625 0.375
vt 0.21875 0.375
vt 0.21875 0.625
vt 0.1875 0.40625
vt 0.1875 0.28125
vt 0.3125 0.28125
vt 0.3125 0.40625
vt 0.3125 0
vt 0.3125 0.375
vt 0.1875 0.375
vt 0.1875 0
vt 0.1875 0
vt 0.1875 1
vt 0 1
vt 0 0
vt 0.5 0
vt 0.5 1
vt 0.3125 1
vt 0.3125 0
vt 0.3125 0.625
vt 0.3125 1
vt 0.1875 1
vt 0.1875 0.625
vt 0.3125825 0.375
vt 0.3125825 0.625
vt 0.1875825 0.625
vt 0.1875825 0.375
vn 0 1 0
vn 0 0 -1
vn 0 0 1
vn 0 -1 0
vn 1 0 0
vn 1 0 0
vn 1 0 0
vn 1 0 0
vn 1 0 0
usemtl m_2be0671d-2af4-e9ee-52a8-570e743540ec
f 53/73/19 54/74/19 50/75/19 49/76/19
f 51/77/20 55/78/20 53/79/20 49/80/20
f 54/81/21 56/82/21 52/83/21 50/84/21
f 52/85/22 56/86/22 55/87/22 51/88/22
f 61/89/23 62/90/23 63/91/23 64/92/23
f 67/93/24 65/94/24 66/95/24 68/96/24
f 58/97/25 57/98/25 69/99/25 70/100/25
f 72/101/26 71/102/26 59/103/26 60/104/26
f 50/105/27 52/106/27 51/107/27 49/108/27
o side4
v -0.125 0.375 0.375
v 0.125 0.375 0.375
v -0.125 0.625 0.375
v 0.125 0.625 0.375
v -0.125 0.375 0.5
v 0.125 0.375 0.5
v -0.125 0.625 0.5
v 0.125 0.625 0.5
v 0.5 1 0.5
v 0.5 0 0.5
v -0.125 1 0.5
v -0.125 0.625 0.5
v 0.125 0 0.5
v 0.125 0.375 0.5
v -0.125 0.375 0.5
v -0.125 0 0.5
v -0.125 1 0.5
v -0.5 1 0.5
v -0.125 0 0.5
v -0.5 0 0.5
v 0.125 1 0.5
v 0.125 0 0.5
v 0.125 1 0.5
v 0.125 0.625 0.5
vt 0.15625 0.625
vt 0.15625 0.375
vt 0.21875 0.375
vt 0.21875 0.625
vt 0.1875 0.40625
vt 0.1875 0.28125
vt 0.3125 0.28125
vt 0.3125 0.40625
vt 0.15625 0.625
vt 0.15625 0.375
vt 0.21875 0.375
vt 0.21875 0.625
vt 0.1875 0.40625
vt 0.1875 0.28125
vt 0.3125 0.28125
vt 0.3125 0.40625
vt 0.3125 0
vt 0.3125 0.375
vt 0.1875 0.375
vt 0.1875 0
vt 0.1875 0
vt 0.1875 1
vt 0 1
vt 0 0
vt 0.5 0
vt 0.5 1
vt 0.3125 1
vt 0.3125 0
vt 0.3125 0.625
vt 0.3125 1
vt 0.1875 1
vt 0.1875 0.625
vt 0.3125825 0.375
vt 0.3125825 0.625
vt 0.1875825 0.625
vt 0.1875825 0.375
vn 0 1 0
vn 1 0 0
vn -1 0 0
vn 0 -1 0
vn 0 0 1
vn 0 0 1
vn 0 0 1
vn 0 0 1
vn 0 0 1
usemtl m_2be0671d-2af4-e9ee-52a8-570e743540ec
f 77/109/28 78/110/28 74/111/28 73/112/28
f 75/113/29 79/114/29 77/115/29 73/116/29
f 78/117/30 80/118/30 76/119/30 74/120/30
f 76/121/31 80/122/31 79/123/31 75/124/31
f 85/125/32 86/126/32 87/127/32 88/128/32
f 91/129/33 89/130/33 90/131/33 92/132/33
f 82/133/34 81/134/34 93/135/34 94/136/34
f 96/137/35 95/138/35 83/139/35 84/140/35
f 74/141/36 76/142/36 75/143/36 73/144/36
o down
v 0.5 0 0.5
v 0.5 0 -0.5
v -0.5 0 0.5
v -0.5 0 -0.5
vt 0.5 0
vt 0.5 1
vt 0 1
vt 0 0
vn 0 -1 0
usemtl m_2be0671d-2af4-e9ee-52a8-570e743540ec
f 98/145/37 97/146/37 99/147/37 100/148/37
o up
v 0.25 1 0.0625
v 0.25 0.875 0.0625
v 0.3125 1 0.0625
v 0.3125 0.875 0.0625
v 0.0625 1 -0.25
v 0.0625 0.875 -0.25
v 0.0625 1 -0.3125
v 0.0625 0.875 -0.3125
v -0.5 1 -0.3125
v -0.3125 1 -0.3125
v -0.5 1 -0.5
v -0.3125 1 -0.5
v 0.3125 1 -0.3125
v 0.5 1 -0.3125
v 0.3125 1 -0.5
v 0.5 1 -0.5
v 0.5 1 -0.3125
v 0.3125 1 -0.3125
v 0.3125 1 -0.5
v 0.3125 1 0.5
v 0.5 1 0.5
v 0.3125 1 0.3125
v 0.5 1 0.3125
v -0.5 1 0.5
v -0.3125 1 0.5
v -0.5 1 0.3125
v -0.3125 1 0.3125
v -0.125 1 0.3125
v -0.0625 1 0.3125
v 0.0625 1 0.3125
v 0.125 1 0.3125
v 0.3125 1 0.3125
v -0.3125 1 0.25
v -0.25 1 0.25
v -0.1875 1 0.25
v -0.125 1 0.25
v -0.125 0.875 0.3125
v -0.0625 0.875 0.3125
v -0.0625 0.875 0.25
v -0.125 0.875 0.25
v 0.0625 0.875 0.3125
v 0.125 0.875 0.3125
v 0.125 0.875 0.25
v 0.0625 0.875 0.25
v 0.125 1 0.25
v 0.25 1 0.25
v 0.3125 1 0.25
v -0.25 1 0.1875
v -0.25 0.875 0.25
v -0.1875 0.875 0.25
v -0.25 0.875 0.1875
v -0.125 0.875 0.1875
v -0.0625 0.875 0.1875
v -0.0625 1 0.1875
v 0.0625 1 0.1875
v 0.125 0.875 0.1875
v 0.0625 0.875 0.1875
v 0.1875 0.875 0.25
v 0.25 0.875 0.25
v 0.25 0.875 0.1875
v 0.25 1 0.1875
v -0.3125 1 0.125
v -0.25 1 0.125
v -0.1875 0.875 0.125
v -0.25 0.875 0.125
v -0.125 0.875 0.125
v -0.125 1 0.1875
v -0.0625 1 0.125
v -0.125 1 0.125
v 0.0625 1 0.125
v 0.125 1 0.1875
v 0.125 1 0.125
v 0.1875 0.875 0.125
v 0.125 0.875 0.125
v 0.25 0.875 0.125
v 0.3125 1 0.125
v 0.25 1 0.125
v -0.3125 1 0.0625
v -0.3125 0.875 0.125
v -0.25 0.875 0.0625
v -0.3125 0.875 0.0625
v -0.1875 0.875 0.0625
v -0.1875 1 0.125
v -0.125 1 0.0625
v -0.1875 1 0.0625
v -0.0625 1 0.0625
v -0.0625 0.75 0.125
v -0.0625 0.75 0.0625
v 0.0625 0.75 0.125
v 0.0625 0.75 0.0625
v 0.125 1 0.0625
v 0.0625 1 0.0625
v 0.1875 1 0.125
v 0.1875 1 0.0625
v 0.25 0.875 0.0625
v 0.1875 0.875 0.0625
v 0.3125 0.875 0.125
v 0.3125 0.875 0.0625
v 0.3125 1 0.0625
v -0.125 0.75 0.0625
v 0.125 0.75 0.0625
v -0.3125 1 -0.0625
v -0.25 1 -0.0625
v -0.1875 1 -0.0625
v -0.125 1 -0.0625
v -0.0625 0.75 -0.0625
v -0.125 0.75 -0.0625
v 0.0625 0.75 -0.0625
v 0.125 0.75 -0.0625
v 0.1875 1 -0.0625
v 0.125 1 -0.0625
v 0.3125 1 -0.0625
v -0.3125 1 -0.125
v -0.3125 0.875 -0.0625
v -0.25 0.875 -0.0625
v -0.25 0.875 -0.125
v -0.3125 0.875 -0.125
v -0.1875 0.875 -0.0625
v -0.1875 0.875 -0.125
v -0.125 1 -0.125
v -0.1875 1 -0.125
v -0.0625 1 -0.0625
v -0.0625 1 -0.125
v -0.0625 0.75 -0.125
v 0.0625 0.75 -0.125
v 0.0625 1 -0.0625
v 0.125 1 -0.125
v 0.0625 1 -0.125
v 0.1875 1 -0.125
v 0.1875 0.875 -0.0625
v 0.25 0.875 -0.0625
v 0.25 0.875 -0.125
v 0.1875 0.875 -0.125
v 0.3125 0.875 -0.0625
v 0.3125 0.875 -0.125
v 0.3125 1 -0.125
v -0.25 1 -0.125
v -0.25 1 -0.1875
v -0.25 0.875 -0.1875
v -0.125 0.875 -0.125
v -0.125 0.875 -0.1875
v -0.0625 1 -0.1875
v -0.125 1 -0.1875
v 0.0625 1 -0.1875
v 0.125 1 -0.1875
v 0.125 0.875 -0.125
v 0.125 0.875 -0.1875
v 0.25 0.875 -0.1875
v 0.25 1 -0.125
v 0.25 1 -0.1875
v -0.3125 1 -0.25
v -0.25 1 -0.25
v -0.1875 0.875 -0.25
v -0.25 0.875 -0.25
v -0.125 0.875 -0.25
v -0.0625 0.875 -0.1875
v -0.0625 0.875 -0.25
v -0.0625 1 -0.25
v 0.0625 0.875 -0.1875
v 0.125 0.875 -0.25
v 0.0625 0.875 -0.25
v 0.1875 0.875 -0.25
v 0.25 0.875 -0.25
v 0.25 1 -0.25
v -0.3125 1 -0.3125
v -0.25 1 -0.3125
v -0.1875 1 -0.25
v -0.125 1 -0.25
v -0.125 1 -0.3125
v -0.0625 0.875 -0.3125
v -0.125 0.875 -0.3125
v -0.0625 1 -0.3125
v 0.0625 1 -0.3125
v 0.125 0.875 -0.3125
v 0.0625 0.875 -0.3125
v 0.125 1 -0.25
v 0.1875 1 -0.25
v 0.125 1 -0.3125
v 0.3125 1 -0.3125
v 0.3125 1 -0.25
v 0.1875 1 0.25
v -0.3125 1 0.3125
v -0.25 1 0.0625
v -0.3125 1 0.0625
v -0.3125 0.875 0.0625
v -0.25 0.875 0.0625
v -0.1875 1 0.0625
v -0.1875 0.875 0.0625
v -0.1875 1 0.125
v -0.1875 0.875 0.125
v -0.125 1 0.125
v -0.125 0.875 0.125
v -0.125 1 0.1875
v -0.125 0.875 0.1875
v -0.0625 1 0.1875
v -0.0625 0.875 0.1875
v -0.0625 1 0.25
v -0.0625 0.875 0.25
v -0.0625 1 0.3125
v -0.0625 0.875 0.3125
v 0.0625 1 0.25
v 0.0625 1 0.3125
v 0.0625 0.875 0.3125
v 0.0625 0.875 0.25
v 0.0625 1 0.1875
v 0.0625 0.875 0.1875
v 0.125 1 0.1875
v 0.125 0.875 0.1875
v 0.125 1 0.125
v 0.125 0.875 0.125
v 0.1875 1 0.125
v 0.1875 0.875 0.125
v 0.1875 1 0.0625
v 0.1875 0.875 0.0625
v 0.25 1 0.0625
v 0.25 0.875 0.0625
v 0.3125 1 0.0625
v 0.3125 0.875 0.0625
v 0.25 1 -0.0625
v 0.3125 1 -0.0625
v 0.3125 0.875 -0.0625
v 0.25 0.875 -0.0625
v 0.1875 1 -0.0625
v 0.1875 0.875 -0.0625
v 0.1875 1 -0.125
v 0.1875 0.875 -0.125
v 0.125 1 -0.125
v 0.125 0.875 -0.125
v 0.125 1 -0.1875
v 0.125 0.875 -0.1875
v 0.0625 1 -0.1875
v 0.0625 0.875 -0.1875
v 0.0625 1 -0.25
v 0.0625 0.875 -0.25
v 0.0625 1 -0.3125
v 0.0625 0.875 -0.3125
vt 0.0625 0.796875
vt 0.046875 0.796875
vt 0.046875 0.734375
vt 0.0625 0.734375
vt 0.0625 0.796875
vt 0.046875 0.796875
vt 0.046875 0.734375
vt 0.0625 0.734375
vt 0.5 0.1875
vt 0.59375 0.1875
vt 0.59375 0.8125
vt 0.5 0.8125
vt 0.921875 0.1875
vt 1 0.1875
vt 1 0.8125
vt 0.921875 0.8125
vt 0.59375 0.1875
vt 0.59375 0
vt 0.921875 0
vt 0.921875 0.1875
vt 0.59375 1
vt 0.59375 0.8125
vt 0.921875 0.8125
vt 0.921875 1
vt 0.5 1
vt 0.5 0.8125
vt 0.59375 0.8125
vt 0.59375 1
vt 0.921875 1
vt 0.921875 0.8125
vt 1 0.8125
vt 1 1
vt 0.921875 0.1875
vt 0.921875 0
vt 1 0
vt 1 0.1875
vt 0.5 0.1875
vt 0.5 0
vt 0.59375 0
vt 0.59375 0.1875
vt 0.6875825 0.1875
vt 0.7188325 0.1875
vt 0.7188325 0.25
vt 0.6875825 0.25
vt 0.7813325 0.1875
vt 0.8125825 0.1875
vt 0.8125825 0.25
vt 0.7813325 0.25
vt 0.6875825 0.25
vt 0.7188325 0.25
vt 0.7188325 0.3125
vt 0.6875825 0.3125
vt 0.7813325 0.25
vt 0.8125825 0.25
vt 0.8125825 0.3125
vt 0.7813325 0.3125
vt 0.6250825 0.375
vt 0.5938325 0.375
vt 0.5938325 0.25
vt 0.6250825 0.25
vt 0.6875825 0.25
vt 0.6875825 0.375
vt 0.6250825 0.375
vt 0.6250825 0.25
vt 0.6875825 0.3125
vt 0.7188325 0.3125
vt 0.7188325 0.375
vt 0.6875825 0.375
vt 0.7813325 0.1875
vt 0.7813325 0.375
vt 0.7188325 0.375
vt 0.7188325 0.1875
vt 0.7813325 0.3125
vt 0.8125825 0.3125
vt 0.8125825 0.375
vt 0.7813325 0.375
vt 0.8750825 0.25
vt 0.8750825 0.375
vt 0.8125825 0.375
vt 0.8125825 0.25
vt 0.5938325 0.375
vt 0.6250825 0.375
vt 0.6250825 0.4375
vt 0.5938325 0.4375
vt 0.6250825 0.375
vt 0.6563325 0.375
vt 0.6563325 0.4375
vt 0.6250825 0.4375
vt 0.6563325 0.375
vt 0.6875825 0.375
vt 0.6875825 0.4375
vt 0.6563325 0.4375
vt 0.6875825 0.375
vt 0.7188325 0.375
vt 0.7188325 0.4375
vt 0.6875825 0.4375
vt 0.7188325 0.375
vt 0.7813325 0.375
vt 0.7813325 0.4375
vt 0.7188325 0.4375
vt 0.7813325 0.375
vt 0.8125825 0.375
vt 0.8125825 0.4375
vt 0.7813325 0.4375
vt 0.8125825 0.375
vt 0.8438325 0.375
vt 0.8438325 0.4375
vt 0.8125825 0.4375
vt 0.8438325 0.375
vt 0.8750825 0.375
vt 0.8750825 0.4375
vt 0.8438325 0.4375
vt 0.8750825 0.375
vt 0.9063325 0.375
vt 0.9063325 0.4375
vt 0.8750825 0.4375
vt 0.7188325 0.5625
vt 0.6875825 0.5625
vt 0.6875825 0.4375
vt 0.7188325 0.4375
vt 0.5938325 0.5625
vt 0.6250825 0.5625
vt 0.6250825 0.625
vt 0.5938325 0.625
vt 0.6250825 0.5625
vt 0.6563325 0.5625
vt 0.6563325 0.625
vt 0.6250825 0.625
vt 0.6875825 0.5625
vt 0.7188325 0.5625
vt 0.7188325 0.625
vt 0.6875825 0.625
vt 0.7188325 0.5625
vt 0.7813325 0.5625
vt 0.7813325 0.625
vt 0.7188325 0.625
vt 0.7813325 0.5625
vt 0.8125825 0.5625
vt 0.8125825 0.625
vt 0.7813325 0.625
vt 0.8125825 0.5625
vt 0.8438325 0.5625
vt 0.8438325 0.625
vt 0.8125825 0.625
vt 0.8438325 0.5625
vt 0.8750825 0.5625
vt 0.8750825 0.625
vt 0.8438325 0.625
vt 0.8750825 0.5625
vt 0.9063325 0.5625
vt 0.9063325 0.625
vt 0.8750825 0.625
vt 0.6875825 0.625
vt 0.7188325 0.625
vt 0.7188325 0.6875
vt 0.6875825 0.6875
vt 0.7813325 0.625
vt 0.8125825 0.625
vt 0.8125825 0.6875
vt 0.7813325 0.6875
vt 0.6250825 0.75
vt 0.5938325 0.75
vt 0.5938325 0.625
vt 0.6250825 0.625
vt 0.6875825 0.625
vt 0.6875825 0.75
vt 0.6250825 0.75
vt 0.6250825 0.625
vt 0.6875825 0.6875
vt 0.7188325 0.6875
vt 0.7188325 0.75
vt 0.6875825 0.75
vt 0.7813325 0.6875
vt 0.8125825 0.6875
vt 0.8125825 0.75
vt 0.7813325 0.75
vt 0.8750825 0.625
vt 0.8750825 0.75
vt 0.8125825 0.75
vt 0.8125825 0.625
vt 0.5938325 0.75
vt 0.6250825 0.75
vt 0.6250825 0.8125
vt 0.5938325 0.8125
vt 0.6250825 0.75
vt 0.6875825 0.75
vt 0.6875825 0.8125
vt 0.6250825 0.8125
vt 0.6875825 0.75
vt 0.7188325 0.75
vt 0.7188325 0.8125
vt 0.6875825 0.8125
vt 0.7813325 0.75
vt 0.8125825 0.75
vt 0.8125825 0.8125
vt 0.7813325 0.8125
vt 0.8125825 0.75
vt 0.9063325 0.75
vt 0.9063325 0.8125
vt 0.8125825 0.8125
vt 0.65625 0.78125
vt 0.625 0.78125
vt 0.625 0.65625
vt 0.65625 0.65625
vt 0.625 0.78125
vt 0.59375 0.78125
vt 0.59375 0.65625
vt 0.625 0.65625
vt 0.65625 0.78125
vt 0.625 0.78125
vt 0.625 0.65625
vt 0.65625 0.65625
vt 0.65625 0.78125
vt 0.625 0.78125
vt 0.625 0.65625
vt 0.65625 0.65625
vt 0.65625 0.78125
vt 0.625 0.78125
vt 0.625 0.65625
vt 0.65625 0.65625
vt 0.625 0.78125
vt 0.59375 0.78125
vt 0.59375 0.65625
vt 0.625 0.65625
vt 0.65625 0.78125
vt 0.625 0.78125
vt 0.625 0.65625
vt 0.65625 0.65625
vt 0.65625 0.78125
vt 0.625 0.78125
vt 0.625 0.65625
vt 0.65625 0.65625
vt 0.71875 0.8125
vt 0.6875 0.8125
vt 0.6875 0.6875
vt 0.71875 0.6875
vt 0.6875825 0.3125
vt 0.6875825 0.375
vt 0.6875825 0.375
vt 0.6875825 0.3125
vt 0.6875 0.84375
vt 0.65625 0.84375
vt 0.65625 0.71875
vt 0.6875 0.71875
vt 0.625 0.59375
vt 0.59375 0.59375
vt 0.59375 0.46875
vt 0.625 0.46875
vt 0.59375 0.84375
vt 0.5625 0.84375
vt 0.5625 0.71875
vt 0.59375 0.71875
vt 0.59375 0.84375
vt 0.5625 0.84375
vt 0.5625 0.71875
vt 0.59375 0.71875
vt 0.65625 0.625
vt 0.625 0.625
vt 0.625 0.5
vt 0.65625 0.5
vt 0.6875 0.625
vt 0.65625 0.625
vt 0.65625 0.5
vt 0.6875 0.5
vt 0.65625 0.84375
vt 0.625 0.84375
vt 0.625 0.71875
vt 0.65625 0.71875
vt 0.875 0.625
vt 0.84375 0.625
vt 0.84375 0.5
vt 0.875 0.5
vt 0.890625 0.625
vt 0.859375 0.625
vt 0.859375 0.5
vt 0.890625 0.5
vt 0.625 0.90625
vt 0.59375 0.90625
vt 0.59375 0.78125
vt 0.625 0.78125
vt 0.6875 0.84375
vt 0.65625 0.84375
vt 0.65625 0.71875
vt 0.6875 0.71875
vt 0.625 0.90625
vt 0.59375 0.90625
vt 0.59375 0.78125
vt 0.625 0.78125
vt 0.6875 0.6875
vt 0.65625 0.6875
vt 0.65625 0.5625
vt 0.6875 0.5625
vt 0.71875 0.6875
vt 0.6875 0.6875
vt 0.6875 0.5625
vt 0.71875 0.5625
vt 0.84375 0.6875
vt 0.8125 0.6875
vt 0.8125 0.5625
vt 0.84375 0.5625
vt 0.65625 0.90625
vt 0.625 0.90625
vt 0.625 0.78125
vt 0.65625 0.78125
vt 0.6875 0.90625
vt 0.65625 0.90625
vt 0.65625 0.78125
vt 0.6875 0.78125
vt 0.625 0.90625
vt 0.59375 0.90625
vt 0.59375 0.78125
vt 0.625 0.78125
vt 0.625 0.90625
vt 0.59375 0.90625
vt 0.59375 0.78125
vt 0.625 0.78125
vt 0.65625 0.90625
vt 0.625 0.90625
vt 0.625 0.78125
vt 0.65625 0.78125
vt 0.625 0.90625
vt 0.59375 0.90625
vt 0.59375 0.78125
vt 0.625 0.78125
vt 0.625 0.90625
vt 0.59375 0.90625
vt 0.59375 0.78125
vt 0.625 0.78125
vt 0.625 0.90625
vt 0.59375 0.90625
vt 0.59375 0.78125
vt 0.625 0.78125
vt 0.65625 0.90625
vt 0.625 0.90625
vt 0.625 0.78125
vt 0.65625 0.78125
vt 0.65625 0.90625
vt 0.625 0.90625
vt 0.625 0.78125
vt 0.65625 0.78125
vt 0.8125 0.5625
vt 0.78125 0.5625
vt 0.78125 0.4125
vt 0.8125 0.4125
vt 0.8125 0.525
vt 0.8125 0.525
vt 0.8125 0.375
vt 0.8125 0.375
vt 0.84375 0.5625
vt 0.8125 0.5625
vt 0.8125 0.4125
vt 0.84375 0.4125
vt 0.8125 0.5625
vt 0.78125 0.5625
vt 0.78125 0.4125
vt 0.8125 0.4125
vt 0.84375 0.5625
vt 0.8125 0.5625
vt 0.8125 0.4125
vt 0.84375 0.4125
vt 0.8125 0.5625
vt 0.78125 0.5625
vt 0.78125 0.4125
vt 0.8125 0.4125
vt 0.8125 0.4125
vt 0.8125 0.5625
vt 0.78125 0.5625
vt 0.78125 0.4125
vt 0.84375 0.5625
vt 0.8125 0.5625
vt 0.8125 0.4125
vt 0.84375 0.4125
vt 0.84375 0.5625
vt 0.8125 0.5625
vt 0.8125 0.4125
vt 0.84375 0.4125
vt 0.8125 0.5625
vt 0.78125 0.5625
vt 0.78125 0.4125
vt 0.8125 0.4125
vt 0.84375 0.5625
vt 0.8125 0.5625
vt 0.8125 0.4125
vt 0.84375 0.4125
vt 0.84375 0.4125
vt 0.84375 0.5625
vt 0.78125 0.5625
vt 0.78125 0.4125
vt 0.8125825 0.1875
vt 0.9063325 0.1875
vt 0.9063325 0.25
vt 0.8125825 0.25
vt 0.8750825 0.25
vt 0.9063325 0.25
vt 0.9063325 0.375
vt 0.8750825 0.375
vt 0.9063325 0.75
vt 0.8750825 0.75
vt 0.8750825 0.625
vt 0.9063325 0.625
vt 0.6875 0.78125
vt 0.65625 0.78125
vt 0.65625 0.65625
vt 0.6875 0.65625
vt 0.59375 0.78125
vt 0.5625 0.78125
vt 0.5625 0.65625
vt 0.59375 0.65625
vt 0.59375 0.84375
vt 0.5625 0.84375
vt 0.5625 0.71875
vt 0.59375 0.71875
vt 0.625 0.84375
vt 0.59375 0.84375
vt 0.59375 0.71875
vt 0.625 0.71875
vt 0.6875 0.78125
vt 0.65625 0.78125
vt 0.65625 0.65625
vt 0.6875 0.65625
vt 0.6875825 0.4375
vt 0.6875825 0.5625
vt 0.5938325 0.5625
vt 0.5938325 0.4375
vt 0.6563325 0.5625
vt 0.6875825 0.5625
vt 0.6875825 0.625
vt 0.6563325 0.625
vt 0.7188325 0.625
vt 0.7813325 0.625
vt 0.7813325 0.8125
vt 0.7188325 0.8125
vt 0.8125825 0.5625
vt 0.8125825 0.4375
vt 0.9063325 0.4375
vt 0.9063325 0.5625
vt 0.8125825 0.5625
vt 0.7813325 0.5625
vt 0.7813325 0.4375
vt 0.8125825 0.4375
vt 0.7813325 0.4375
vt 0.7813325 0.5625
vt 0.7188325 0.5625
vt 0.7188325 0.4375
vt 0.5938325 0.1875
vt 0.6875825 0.1875
vt 0.6875825 0.25
vt 0.5938325 0.25
vt 0.625 0.59375
vt 0.59375 0.59375
vt 0.59375 0.46875
vt 0.625 0.46875
vt 0.65625 0.625
vt 0.625 0.625
vt 0.625 0.5
vt 0.65625 0.5
vt 0.6875 0.625
vt 0.65625 0.625
vt 0.65625 0.5
vt 0.6875 0.5
vt 0.875 0.625
vt 0.84375 0.625
vt 0.84375 0.5
vt 0.875 0.5
vt 0.890625 0.625
vt 0.859375 0.625
vt 0.859375 0.5
vt 0.890625 0.5
vt 0.6875 0.6875
vt 0.65625 0.6875
vt 0.65625 0.5625
vt 0.6875 0.5625
vt 0.71875 0.6875
vt 0.6875 0.6875
vt 0.6875 0.5625
vt 0.71875 0.5625
vt 0.84375 0.6875
vt 0.8125 0.6875
vt 0.8125 0.5625
vt 0.84375 0.5625
vt 0.625 0.59375
vt 0.59375 0.59375
vt 0.59375 0.46875
vt 0.625 0.46875
vt 0.65625 0.625
vt 0.625 0.625
vt 0.625 0.5
vt 0.65625 0.5
vt 0.6875 0.625
vt 0.65625 0.625
vt 0.65625 0.5
vt 0.6875 0.5
vt 0.875 0.625
vt 0.84375 0.625
vt 0.84375 0.5
vt 0.875 0.5
vt 0.890625 0.625
vt 0.859375 0.625
vt 0.859375 0.5
vt 0.890625 0.5
vt 0.6875 0.6875
vt 0.65625 0.6875
vt 0.65625 0.5625
vt 0.6875 0.5625
vt 0.71875 0.6875
vt 0.6875 0.6875
vt 0.6875 0.5625
vt 0.71875 0.5625
vt 0.84375 0.6875
vt 0.8125 0.6875
vt 0.8125 0.5625
vt 0.84375 0.5625
vt 0.625 0.59375
vt 0.59375 0.59375
vt 0.59375 0.46875
vt 0.625 0.46875
vt 0.65625 0.625
vt 0.625 0.625
vt 0.625 0.5
vt 0.65625 0.5
vt 0.6875 0.625
vt 0.65625 0.625
vt 0.65625 0.5
vt 0.6875 0.5
vt 0.875 0.625
vt 0.84375 0.625
vt 0.84375 0.5
vt 0.875 0.5
vt 0.890625 0.625
vt 0.859375 0.625
vt 0.859375 0.5
vt 0.890625 0.5
vt 0.6875 0.6875
vt 0.65625 0.6875
vt 0.65625 0.5625
vt 0.6875 0.5625
vt 0.71875 0.6875
vt 0.6875 0.6875
vt 0.6875 0.5625
vt 0.71875 0.5625
vt 0.84375 0.6875
vt 0.8125 0.6875
vt 0.8125 0.5625
vt 0.84375 0.5625
vn 0 0 1
vn 1 0 0
vn 0 1 0
vn 0 1 0
vn 0 1 0
vn 0 1 0
vn 0 1 0
vn 0 1 0
vn 0 1 0
vn 0 1 0
vn 0 1 0
vn 0 1 0
vn 0 1 0
vn 0 1 0
vn 0 1 0
vn 0 1 0
vn 0 1 0
vn 0 1 0
vn 0 1 0
vn 0 1 0
vn 0 1 0
vn 0 1 0
vn 0 1 0
vn 0 1 0
vn 0 1 0
vn 0 1 0
vn 0 1 0
vn 0 1 0
vn 0 1 0
vn 0 1 0
vn 0 1 0
vn 0 1 0
vn 0 1 0
vn 0 1 0
vn 0 1 0
vn 0 1 0
vn 0 1 0
vn 0 1 0
vn 0 1 0
vn 0 1 0
vn 0 1 0
vn 0 1 0
vn 0 1 0
vn 0 1 0
vn 0 1 0
vn 0 1 0
vn 0 1 0
vn 0 1 0
vn 0 1 0
vn 0 1 0
vn 0 0 -1
vn 1 0 0
vn 0 0 -1
vn 1 0 0
vn 0 0 -1
vn 1 0 0
vn 0 0 -1
vn 1 0 0
vn 0 0 -1
vn -1 0 0
vn -1 0 0
vn 0 0 -1
vn 0 0 1
vn 1 0 0
vn 0 0 -1
vn -1 0 0
vn 1 0 0
vn 0 0 -1
vn -1 0 0
vn 0 0 1
vn 1 0 0
vn 0 0 1
vn 0 0 -1
vn -1 0 0
vn -1 0 0
vn 0 0 1
vn 1 0 0
vn -1 0 0
vn 0 0 1
vn -1 0 0
vn 0 0 1
vn -1 0 0
vn 0 0 1
vn -1 0 0
vn 0 0 1
vn 1 0 0
vn 0 0 -1
vn -1 0 0
vn 0 0 -1
vn 0 0 -1
vn 0 0 1
vn 1 0 0
vn -1 0 0
vn 0 0 1
vn 1 0 0
vn -1 0 0
vn 0 0 1
vn 0 1 0
vn 0 1 0
vn 0 1 0
vn 0 0 -1
vn 0 0 -1
vn -1 0 0
vn -1 0 0
vn 0 0 -1
vn 0 1 0
vn 0 1 0
vn 0 1 0
vn 0 1 0
vn 0 1 0
vn 0 1 0
vn 0 1 0
vn -1 0 0
vn -1 0 0
vn 0 0 1
vn -1 0 0
vn 0 0 1
vn -1 0 0
vn 0 0 1
vn 0 0 1
vn 0 0 1
vn 0 0 1
vn 1 0 0
vn 0 0 1
vn 1 0 0
vn 0 0 1
vn 1 0 0
vn 1 0 0
vn 1 0 0
vn 1 0 0
vn 0 0 -1
vn 1 0 0
vn 0 0 -1
vn 1 0 0
vn 0 0 -1
vn 0 0 -1
usemtl m_2be0671d-2af4-e9ee-52a8-570e743540ec
f 103/149/38 101/150/38 102/151/38 104/152/38
f 107/153/39 105/154/39 106/155/39 108/156/39
f 126/157/40 127/158/40 110/159/40 109/160/40
f 122/161/41 123/162/41 117/163/41 118/164/41
f 127/165/42 125/166/42 120/167/42 122/168/42
f 112/169/43 110/170/43 118/171/43 119/172/43
f 111/173/44 109/174/44 110/175/44 112/176/44
f 115/177/45 113/178/45 114/179/45 116/180/45
f 122/181/46 120/182/46 121/183/46 123/184/46
f 126/185/47 124/186/47 125/187/47 127/188/47
f 137/189/48 138/190/48 139/191/48 140/192/48
f 141/193/49 142/194/49 143/195/49 144/196/49
f 140/197/50 139/198/50 153/199/50 152/200/50
f 144/201/51 143/202/51 156/203/51 157/204/51
f 163/205/52 162/206/52 133/207/52 134/208/52
f 140/209/53 166/210/53 165/211/53 149/212/53
f 167/213/54 154/214/54 168/215/54 169/216/54
f 130/217/55 170/218/55 168/219/55 129/220/55
f 155/221/56 171/222/56 172/223/56 170/224/56
f 159/225/57 175/226/57 174/227/57 143/228/57
f 179/229/58 165/230/58 180/231/58 181/232/58
f 165/233/59 164/234/59 182/235/59 180/236/59
f 183/237/60 169/238/60 184/239/60 185/240/60
f 169/241/61 168/242/61 186/243/61 184/244/61
f 187/245/62 189/246/62 190/247/62 188/248/62
f 170/249/63 172/250/63 191/251/63 192/252/63
f 172/253/64 193/254/64 194/255/64 191/256/64
f 173/257/65 175/258/65 195/259/65 196/260/65
f 175/261/66 197/262/66 198/263/66 195/264/66
f 206/265/67 207/266/67 200/267/67 188/268/67
f 214/269/68 215/270/68 216/271/68 217/272/68
f 215/273/69 218/274/69 219/275/69 216/276/69
f 205/277/70 222/278/70 223/279/70 220/280/70
f 206/281/71 208/282/71 225/283/71 224/284/71
f 226/285/72 211/286/72 227/287/72 228/288/72
f 211/289/73 210/290/73 229/291/73 227/292/73
f 230/293/74 231/294/74 232/295/74 233/296/74
f 231/297/75 234/298/75 235/299/75 232/300/75
f 220/301/76 223/302/76 242/303/76 243/304/76
f 228/305/77 227/306/77 245/307/77 244/308/77
f 252/309/78 251/310/78 213/311/78 237/312/78
f 240/313/79 255/314/79 254/315/79 216/316/79
f 241/317/80 256/318/80 257/319/80 255/320/80
f 259/321/81 247/322/81 260/323/81 261/324/81
f 232/325/82 263/326/82 260/327/82 246/328/82
f 251/329/83 252/330/83 266/331/83 265/332/83
f 252/333/84 268/334/84 269/335/84 266/336/84
f 255/337/85 257/338/85 270/339/85 271/340/85
f 261/341/86 260/342/86 274/343/86 275/344/86
f 276/345/87 280/346/87 279/347/87 278/348/87
f 128/349/88 129/350/88 138/351/88 137/352/88
f 136/353/89 128/354/89 137/355/89 140/356/89
f 134/357/90 135/358/90 150/359/90 149/360/90
f 148/361/91 134/362/91 149/363/91 151/364/91
f 135/365/92 136/366/92 140/367/92 150/368/92
f 163/369/93 148/370/93 151/371/93 165/372/93
f 162/373/94 163/374/94 165/375/94 179/376/94
f 178/377/95 162/378/95 179/379/95 181/380/95
f 130/381/96 131/382/96 142/383/96 141/384/96
f 131/385/97 145/386/97 143/387/97 142/388/97
f 176/389/98 199/390/98 198/391/98 197/392/98
f 202/393/99 203/394/99 215/395/99 214/396/99
f 237/397/100 213/398/100 217/399/100 216/400/100
f 213/401/101 202/402/101 214/403/101 217/404/101
f 203/405/102 204/406/102 218/407/102 215/408/102
f 204/409/103 221/410/103 219/411/103 218/412/103
f 238/413/104 237/414/104 216/415/104 239/416/104
f 221/417/105 220/418/105 240/419/105 219/420/105
f 220/421/106 243/422/106 241/423/106 240/424/106
f 267/425/107 252/426/107 254/427/107 253/428/107
f 252/429/108 238/430/108 239/431/108 254/432/108
f 268/433/109 267/434/109 253/435/109 255/436/109
f 243/437/110 242/438/110 256/439/110 241/440/110
f 242/441/111 258/442/111 257/443/111 256/444/111
f 258/445/112 272/446/112 270/447/112 257/448/112
f 272/449/113 269/450/113 271/451/113 270/452/113
f 269/453/114 268/454/114 255/455/114 271/456/114
f 212/457/115 236/458/115 235/459/115 234/460/115
f 236/461/116 249/462/116 232/463/116 235/464/116
f 249/465/117 250/466/117 248/467/117 232/468/117
f 277/469/118 276/470/118 260/471/118 262/472/118
f 250/473/119 264/474/119 263/475/119 248/476/119
f 264/477/120 277/478/120 262/479/120 263/480/120
f 276/481/121 278/482/121 274/483/121 260/484/121
f 278/485/122 273/486/122 275/487/122 274/488/122
f 186/489/123 168/490/123 187/491/123 188/492/123
f 168/493/124 170/494/124 189/495/124 187/496/124
f 170/497/125 192/498/125 190/499/125 189/500/125
f 184/501/126 186/502/126 188/503/126 200/504/126
f 192/505/127 191/506/127 201/507/127 190/508/127
f 222/509/128 205/510/128 207/511/128 206/512/128
f 207/513/129 205/514/129 184/515/129 200/516/129
f 191/517/130 211/518/130 209/519/130 201/520/130
f 211/521/131 226/522/131 208/523/131 209/524/131
f 223/525/132 222/526/132 206/527/132 224/528/132
f 226/529/133 228/530/133 225/531/133 208/532/133
f 225/533/134 228/534/134 223/535/134 224/536/134
f 131/537/135 132/538/135 147/539/135 145/540/135
f 146/541/136 147/542/136 176/543/136 177/544/136
f 280/545/137 264/546/137 249/547/137 236/548/137
f 145/549/138 281/550/138 158/551/138 143/552/138
f 281/553/139 146/554/139 159/555/139 158/556/139
f 146/557/140 161/558/140 160/559/140 159/560/140
f 161/561/141 177/562/141 175/563/141 160/564/141
f 177/565/142 176/566/142 197/567/142 175/568/142
f 184/569/143 205/570/143 202/571/143 178/572/143
f 204/573/144 205/574/144 220/575/144 221/576/144
f 223/577/145 228/578/145 273/579/145 272/580/145
f 211/581/146 191/582/146 199/583/146 212/584/146
f 209/585/147 208/586/147 190/587/147 201/588/147
f 190/589/148 208/590/148 206/591/148 188/592/148
f 282/593/149 128/594/149 136/595/149 133/596/149
f 299/597/150 297/598/150 298/599/150 300/600/150
f 297/601/151 295/602/151 296/603/151 298/604/151
f 295/605/152 293/606/152 294/607/152 296/608/152
f 293/609/153 291/610/153 292/611/153 294/612/153
f 291/613/154 289/614/154 290/615/154 292/616/154
f 289/617/155 287/618/155 288/619/155 290/620/155
f 287/621/156 283/622/156 286/623/156 288/624/156
f 283/625/157 284/626/157 285/627/157 286/628/157
f 317/629/158 315/630/158 316/631/158 318/632/158
f 315/633/159 313/634/159 314/635/159 316/636/159
f 313/637/160 311/638/160 312/639/160 314/640/160
f 311/641/161 309/642/161 310/643/161 312/644/161
f 309/645/162 307/646/162 308/647/162 310/648/162
f 307/649/163 305/650/163 306/651/163 308/652/163
f 305/653/164 301/654/164 304/655/164 306/656/164
f 301/657/165 302/658/165 303/659/165 304/660/165
f 335/661/166 333/662/166 334/663/166 336/664/166
f 333/665/167 331/666/167 332/667/167 334/668/167
f 331/669/168 329/670/168 330/671/168 332/672/168
f 329/673/169 327/674/169 328/675/169 330/676/169
f 327/677/170 325/678/170 326/679/170 328/680/170
f 325/681/171 323/682/171 324/683/171 326/684/171
f 323/685/172 319/686/172 322/687/172 324/688/172
f 319/689/173 320/690/173 321/691/173 322/692/173