# Made in Blockbench 5.1.6
mtllib MagicalEnchanter.mtl

o spike2
v -0.375 0.75 -0.5
v -0.5 0.75 -0.5
v -0.25 0.5 -0.5
v -0.5 0.5 -0.5
v -0.375 0.75 -0.375
v -0.5 0.75 -0.375
v -0.25 0.5 -0.25
v -0.5 0.5 -0.25
vt 0.46875 0.06424375000000004
vt 0.40625 0.34375
vt 0.34375 0.34375
vt 0.34375 0.06424375000000004
vt 0.59375 0.65625
vt 0.59375 0.53125
vt 0.65625 0.53125
vt 0.65625 0.65625
vt 0.6875 0.71875
vt 0.5625 0.71875
vt 0.5625 0.46875
vt 0.6875 0.46875
vt 0.34375 0.06424375000000004
vt 0.34375 0.34375
vt 0.40625 0.34375
vt 0.46875 0.06424375000000004
vt 1 0.28125
vt 0.9375 0.28125
vt 0.875 0.03125
vt 1 0.03125
vt 0.578125 0.25
vt 0.515625 0.25
vt 0.515625 0
vt 0.640625 0
vn 0 0.44721359549995804 0.8944271909999161
vn 0 1 0
vn 0 -1 0
vn 0.8944271909999161 0.44721359549995804 0
vn 0 0 -1
vn -1 0 0
usemtl m_80a5fe02-394c-2714-e180-4f3d8fb1b2c2
f 7/1/1 5/2/1 6/3/1 8/4/1
f 5/5/2 1/6/2 2/7/2 6/8/2
f 4/9/3 3/10/3 7/11/3 8/12/3
f 3/13/4 1/14/4 5/15/4 7/16/4
f 2/17/5 1/18/5 3/19/5 4/20/5
f 6/21/6 2/22/6 4/23/6 8/24/6
o side1
v 0.5 0 -0.5
v -0.5 0 -0.5
v 0.5 0.5 -0.5
v 0.5 0.25 -0.5
v -0.5 0.5 -0.5
v -0.5 0.25 -0.5
vt 1 0.25
vt 0.5 0.25
vt 0.5 0
vt 1 0
vt 1 1
vt 0.5 1
vt 0.5 0.75
vt 1 0.75
vn 0 0 -1
vn 0 0 -1
usemtl m_80a5fe02-394c-2714-e180-4f3d8fb1b2c2
f 14/25/7 12/26/7 9/27/7 10/28/7
f 13/29/8 11/30/8 12/31/8 14/32/8
o side2
v 0.5 0 0.5
v 0.5 0 -0.5
v 0.5 0.5 0.5
v 0.5 0.25 0.5
v 0.5 0.5 -0.5
v 0.5 0.25 -0.5
vt 1 0.25
vt 0.5 0.25
vt 0.5 0
vt 1 0
vt 1 1
vt 0.5 1
vt 0.5 0.75
vt 1 0.75
vn 1 0 0
vn 1 0 0
usemtl m_80a5fe02-394c-2714-e180-4f3d8fb1b2c2
f 20/33/9 18/34/9 15/35/9 16/36/9
f 19/37/10 17/38/10 18/39/10 20/40/10
o side3
v -0.5 0 0.5
v 0.5 0 0.5
v -0.5 0.5 0.5
v -0.5 0.25 0.5
v 0.5 0.5 0.5
v 0.5 0.25 0.5
vt 1 0.25
vt 0.5 0.25
vt 0.5 0
vt 1 0
vt 1 1
vt 0.5 1
vt 0.5 0.75
vt 1 0.75
vn 0 0 1
vn 0 0 1
usemtl m_80a5fe02-394c-2714-e180-4f3d8fb1b2c2
f 26/41/11 24/42/11 21/43/11 22/44/11
f 25/45/12 23/46/12 24/47/12 26/48/12
o side4
v -0.5 0 -0.5
v -0.5 0 0.5
v -0.5 0.5 -0.5
v -0.5 0.25 -0.5
v -0.5 0.5 0.5
v -0.5 0.25 0.5
vt 1 0.25
vt 0.5 0.25
vt 0.5 0
vt 1 0
vt 1 1
vt 0.5 1
vt 0.5 0.75
vt 1 0.75
vn -1 0 0
vn -1 0 0
usemtl m_80a5fe02-394c-2714-e180-4f3d8fb1b2c2
f 32/49/13 30/50/13 27/51/13 28/52/13
f 31/53/14 29/54/14 30/55/14 32/56/14
o eye
v 0.131718125 0.506718125 0.131718125
v 0.131718125 0.506718125 -0.131718125
v 0.131718125 0.24328187499999998 0.131718125
v 0.131718125 0.24328187499999998 -0.131718125
v -0.131718125 0.506718125 0.131718125
v -0.131718125 0.506718125 -0.131718125
v -0.131718125 0.24328187499999998 0.131718125
v -0.131718125 0.24328187499999998 -0.131718125
v 0.22721375 0.375 0
v -0.22721375 0.375 0
v 0 0.60221375 0
v 0 0.14778625 0
v 0 0.375 0.22721375
v 0 0.375 -0.22721375
v 0.16636875 0.54136875 0
v 0.16636875 0.375 0.16636875
v 0.16636875 0.20863125 0
v 0.16636875 0.375 -0.16636875
v -0.16636875 0.375 0.16636875
v -0.16636875 0.54136875 0
v -0.16636875 0.375 -0.16636875
v -0.16636875 0.20863125 0
v 0 0.54136875 0.16636875
v 0 0.54136875 -0.16636875
v 0 0.20863125 0.16636875
v 0 0.20863125 -0.16636875
v 0.197576875 0.459419375 -0.084419375
v 0.197576875 0.459419375 0.084419375
v 0.197576875 0.29058062500000004 0.084419375
v 0.197576875 0.29058062500000004 -0.084419375
v -0.197576875 0.29058062500000004 0.084419375
v -0.197576875 0.459419375 0.084419375
v -0.197576875 0.459419375 -0.084419375
v -0.197576875 0.29058062500000004 -0.084419375
v -0.084419375 0.572576875 0.084419375
v 0.084419375 0.572576875 0.084419375
v 0.084419375 0.572576875 -0.084419375
v -0.084419375 0.572576875 -0.084419375
v 0.084419375 0.17742312500000001 -0.084419375
v 0.084419375 0.17742312500000001 0.084419375
v -0.084419375 0.17742312500000001 0.084419375
v -0.084419375 0.17742312500000001 -0.084419375
v 0.084419375 0.29058062500000004 0.197576875
v 0.084419375 0.459419375 0.197576875
v -0.084419375 0.459419375 0.197576875
v -0.084419375 0.29058062500000004 0.197576875
v -0.084419375 0.459419375 -0.197576875
v 0.084419375 0.459419375 -0.197576875
v 0.084419375 0.29058062500000004 -0.197576875
v -0.084419375 0.29058062500000004 -0.197576875
v 0.154918125 0.4531325 -0.154918125
v 0.154918125 0.529918125 -0.0781325
v 0.21194625 0.465705625 0
v 0.21194625 0.375 -0.090705625
v 0.154918125 0.529918125 0.0781325
v 0.154918125 0.4531325 0.154918125
v 0.21194625 0.375 0.090705625
v 0.154918125 0.2968675 0.154918125
v 0.154918125 0.22008187499999998 0.0781325
v 0.21194625 0.284294375 0
v 0.154918125 0.22008187499999998 -0.0781325
v 0.154918125 0.2968675 -0.154918125
v -0.154918125 0.22008187499999998 0.0781325
v -0.154918125 0.2968675 0.154918125
v -0.21194625 0.375 0.090705625
v -0.21194625 0.284294375 0
v -0.154918125 0.4531325 0.154918125
v -0.154918125 0.529918125 0.0781325
v -0.21194625 0.465705625 0
v -0.154918125 0.529918125 -0.0781325
v -0.154918125 0.4531325 -0.154918125
v -0.21194625 0.375 -0.090705625
v -0.154918125 0.2968675 -0.154918125
v -0.154918125 0.22008187499999998 -0.0781325
v -0.0781325 0.529918125 0.154918125
v 0 0.58694625 0.090705625
v -0.090705625 0.58694625 0
v 0.0781325 0.529918125 0.154918125
v 0.090705625 0.58694625 0
v 0.0781325 0.529918125 -0.154918125
v 0 0.58694625 -0.090705625
v -0.0781325 0.529918125 -0.154918125
v 0.0781325 0.22008187499999998 -0.154918125
v 0.090705625 0.16305375 0
v 0 0.16305375 -0.090705625
v 0.0781325 0.22008187499999998 0.154918125
v 0 0.16305375 0.090705625
v -0.0781325 0.22008187499999998 0.154918125
v -0.090705625 0.16305375 0
v -0.0781325 0.22008187499999998 -0.154918125
v 0.090705625 0.375 0.21194625
v 0 0.284294375 0.21194625
v 0 0.465705625 0.21194625
v -0.090705625 0.375 0.21194625
v 0 0.465705625 -0.21194625
v -0.090705625 0.375 -0.21194625
v 0.090705625 0.375 -0.21194625
v 0 0.284294375 -0.21194625
vt 0.160431875 0.445370625
vt 0.1780653125 0.38701312499999996
vt 0.1810103125 0.39283124999999997
vt 0.1639421875 0.44841312499999997
vt 0.1810103125 0.39283124999999997
vt 0.1892821875 0.40935937499999997
vt 0.17945 0.451958125
vt 0.1639421875 0.44841312499999997
vt 0.17945 0.451958125
vt 0.1745121875 0.51528375
vt 0.1580321875 0.515305625
vt 0.1639421875 0.44841312499999997
vt 0.1580321875 0.515305625
vt 0.15448875 0.51537375
vt 0.160431875 0.445370625
vt 0.1639421875 0.44841312499999997
vt 0.1580321875 0.515305625
vt 0.1745121875 0.51528375
vt 0.17935875 0.57865875
vt 0.1638459375 0.5822425
vt 0.17935875 0.57865875
vt 0.18913 0.62135625
vt 0.1808340625 0.637933125
vt 0.1638459375 0.5822425
vt 0.1808340625 0.637933125
vt 0.1778809375 0.64386875
vt 0.16033125 0.585410625
vt 0.1638459375 0.5822425
vt 0.16033125 0.585410625
vt 0.15448875 0.51537375
vt 0.1580321875 0.515305625
vt 0.1638459375 0.5822425
vt 0.16033125 0.585410625
vt 0.1778809375 0.64386875
vt 0.18371 0.632288125
vt 0.1678121875 0.5789893749999999
vt 0.18371 0.632288125
vt 0.1932509375 0.613289375
vt 0.1850665625 0.5731412499999999
vt 0.1678121875 0.5789893749999999
vt 0.1850665625 0.5731412499999999
vt 0.1810953125 0.515583125
vt 0.1626028125 0.51547125
vt 0.1678121875 0.5789893749999999
vt 0.1626028125 0.51547125
vt 0.15448875 0.51537375
vt 0.16033125 0.585410625
vt 0.1678121875 0.5789893749999999
vt 0.1626028125 0.51547125
vt 0.1810953125 0.515583125
vt 0.1851490625 0.45803000000000005
vt 0.167903125 0.4519725
vt 0.1851490625 0.45803000000000005
vt 0.19339125 0.417893125
vt 0.1838778125 0.39875562499999995
vt 0.167903125 0.4519725
vt 0.1838778125 0.39875562499999995
vt 0.1780653125 0.38701312499999996
vt 0.160431875 0.445370625
vt 0.167903125 0.4519725
vt 0.160431875 0.445370625
vt 0.15448875 0.51537375
vt 0.1626028125 0.51547125
vt 0.167903125 0.4519725
vt 0.3217478125 0.5159281250000001
vt 0.303236875 0.5159337500000001
vt 0.299185625 0.573469375
vt 0.3164490625 0.5794168749999999
vt 0.299185625 0.573469375
vt 0.2909490625 0.61357
vt 0.30047625 0.63262375
vt 0.3164490625 0.5794168749999999
vt 0.30047625 0.63262375
vt 0.3063084375 0.6442375
vt 0.3239421875 0.5858806249999999
vt 0.3164490625 0.5794168749999999
vt 0.3239421875 0.5858806249999999
vt 0.3298853125 0.5158775
vt 0.3217478125 0.5159281250000001
vt 0.3164490625 0.5794168749999999
vt 0.3239421875 0.5858806249999999
vt 0.3063084375 0.6442375
vt 0.303385 0.638285
vt 0.3204546875 0.5826925000000001
vt 0.303385 0.638285
vt 0.295128125 0.6216606250000001
vt 0.3049671875 0.579019375
vt 0.3204546875 0.5826925000000001
vt 0.3049671875 0.579019375
vt 0.3099084375 0.5156725
vt 0.3263665625 0.51578875
vt 0.3204546875 0.5826925000000001
vt 0.3263665625 0.51578875
vt 0.3298853125 0.5158775
vt 0.3239421875 0.5858806249999999
vt 0.3204546875 0.5826925000000001
vt 0.3263665625 0.51578875
vt 0.3099084375 0.5156725
vt 0.305058125 0.45231875
vt 0.3205509375 0.44886312500000003
vt 0.305058125 0.45231875
vt 0.295280625 0.40966437499999997
vt 0.3035609375 0.39318375000000005
vt 0.3205509375 0.44886312500000003
vt 0.3035609375 0.39318375000000005
vt 0.306493125 0.38738249999999996
vt 0.3240428125 0.445840625
vt 0.3205509375 0.44886312500000003
vt 0.3240428125 0.445840625
vt 0.3298853125 0.5158775
vt 0.3263665625 0.51578875
vt 0.3205509375 0.44886312500000003
vt 0.3240428125 0.445840625
vt 0.306493125 0.38738249999999996
vt 0.30064375 0.39909125
vt 0.3165403125 0.45239937500000005
vt 0.30064375 0.39909125
vt 0.291089375 0.41817375
vt 0.2992684375 0.4583575
vt 0.3165403125 0.45239937500000005
vt 0.2992684375 0.4583575
vt 0.303236875 0.5159337500000001
vt 0.3217478125 0.5159281250000001
vt 0.3165403125 0.45239937500000005
vt 0.3217478125 0.5159281250000001
vt 0.3298853125 0.5158775
vt 0.3240428125 0.445840625
vt 0.3165403125 0.45239937500000005
vt 0.2796834375 0.5155425
vt 0.3099084375 0.5156725
vt 0.3049671875 0.579019375
vt 0.2768696875 0.584958125
vt 0.3049671875 0.579019375
vt 0.295128125 0.6216606250000001
vt 0.2737934375 0.641188125
vt 0.2768696875 0.584958125
vt 0.2737934375 0.641188125
vt 0.2421128125 0.650874375
vt 0.242163125 0.590368125
vt 0.2768696875 0.584958125
vt 0.242163125 0.590368125
vt 0.242219375 0.51542
vt 0.2796834375 0.5155425
vt 0.2768696875 0.584958125
vt 0.242163125 0.590368125
vt 0.2421128125 0.650874375
vt 0.210443125 0.64100625
vt 0.2074603125 0.58475875
vt 0.210443125 0.64100625
vt 0.18913 0.62135625
vt 0.17935875 0.57865875
vt 0.2074603125 0.58475875
vt 0.17935875 0.57865875
vt 0.1745121875 0.51528375
vt 0.2047503125 0.5153274999999999
vt 0.2074603125 0.58475875
vt 0.2047503125 0.5153274999999999
vt 0.242219375 0.51542
vt 0.242163125 0.590368125
vt 0.2074603125 0.58475875
vt 0.2047503125 0.5153274999999999
vt 0.1745121875 0.51528375
vt 0.17945 0.451958125
vt 0.20756 0.445939375
vt 0.17945 0.451958125
vt 0.1892821875 0.40935937499999997
vt 0.21062375 0.389789375
vt 0.20756 0.445939375
vt 0.21062375 0.389789375
vt 0.2423075 0.380081875
vt 0.2422709375 0.44050187500000004
vt 0.20756 0.445939375
vt 0.2422709375 0.44050187500000004
vt 0.242219375 0.51542
vt 0.2047503125 0.5153274999999999
vt 0.20756 0.445939375
vt 0.2422709375 0.44050187500000004
vt 0.2423075 0.380081875
vt 0.2739740625 0.38997125
vt 0.276969375 0.44613875000000003
vt 0.2739740625 0.38997125
vt 0.295280625 0.40966437499999997
vt 0.305058125 0.45231875
vt 0.276969375 0.44613875000000003
vt 0.305058125 0.45231875
vt 0.3099084375 0.5156725
vt 0.2796834375 0.5155425
vt 0.276969375 0.44613875000000003
vt 0.2796834375 0.5155425
vt 0.242219375 0.51542
vt 0.2422709375 0.44050187500000004
vt 0.276969375 0.44613875000000003
vt 0.2422078125 0.45008125
vt 0.24225375 0.393616875
vt 0.2134715625 0.40154749999999995
vt 0.2114996875 0.45428
vt 0.2134715625 0.40154749999999995
vt 0.19339125 0.417893125
vt 0.1851490625 0.45803000000000005
vt 0.2114996875 0.45428
vt 0.1851490625 0.45803000000000005
vt 0.1810953125 0.515583125
vt 0.209305 0.515698125
vt 0.2114996875 0.45428
vt 0.209305 0.515698125
vt 0.2421590625 0.51580375
vt 0.2422078125 0.45008125
vt 0.2114996875 0.45428
vt 0.209305 0.515698125
vt 0.1810953125 0.515583125
vt 0.1850665625 0.5731412499999999
vt 0.2114115625 0.577106875
vt 0.1850665625 0.5731412499999999
vt 0.1932509375 0.613289375
vt 0.2133075 0.62978625
vt 0.2114115625 0.577106875
vt 0.2133075 0.62978625
vt 0.2420784375 0.6379
vt 0.2421134375 0.58150375
vt 0.2114115625 0.577106875
vt 0.2421134375 0.58150375
vt 0.2421590625 0.51580375
vt 0.209305 0.515698125
vt 0.2114115625 0.577106875
vt 0.2421134375 0.58150375
vt 0.2420784375 0.6379
vt 0.2708634375 0.6299518749999999
vt 0.272825 0.57728375
vt 0.2708634375 0.6299518749999999
vt 0.2909490625 0.61357
vt 0.299185625 0.573469375
vt 0.272825 0.57728375
vt 0.299185625 0.573469375
vt 0.303236875 0.5159337500000001
vt 0.27501625 0.5158868750000001
vt 0.272825 0.57728375
vt 0.27501625 0.5158868750000001
vt 0.2421590625 0.51580375
vt 0.2421134375 0.58150375
vt 0.272825 0.57728375
vt 0.27501625 0.5158868750000001
vt 0.303236875 0.5159337500000001
vt 0.2992684375 0.4583575
vt 0.272913125 0.454456875
vt 0.2992684375 0.4583575
vt 0.291089375 0.41817375
vt 0.2710271875 0.401713125
vt 0.272913125 0.454456875
vt 0.2710271875 0.401713125
vt 0.24225375 0.393616875
vt 0.2422078125 0.45008125
vt 0.272913125 0.454456875
vt 0.2422078125 0.45008125
vt 0.2421590625 0.51580375
vt 0.27501625 0.5158868750000001
vt 0.272913125 0.454456875
vt 0.2420609375 0.6748449999999999
vt 0.2420784375 0.6379
vt 0.2133075 0.62978625
vt 0.210315 0.6642399999999999
vt 0.2133075 0.62978625
vt 0.1932509375 0.613289375
vt 0.18371 0.632288125
vt 0.210315 0.6642399999999999
vt 0.18371 0.632288125
vt 0.1778809375 0.64386875
vt 0.207059375 0.679135625
vt 0.210315 0.6642399999999999
vt 0.207059375 0.679135625
vt 0.2420609375 0.691021875
vt 0.2420609375 0.6748449999999999
vt 0.210315 0.6642399999999999
vt 0.207059375 0.679135625
vt 0.1778809375 0.64386875
vt 0.1808340625 0.637933125
vt 0.20862875 0.672065
vt 0.1808340625 0.637933125
vt 0.18913 0.62135625
vt 0.210443125 0.64100625
vt 0.20862875 0.672065
vt 0.210443125 0.64100625
vt 0.2421128125 0.650874375
vt 0.2420784375 0.683881875
vt 0.20862875 0.672065
vt 0.2420784375 0.683881875
vt 0.2420609375 0.691021875
vt 0.207059375 0.679135625
vt 0.20862875 0.672065
vt 0.2420784375 0.683881875
vt 0.2421128125 0.650874375
vt 0.2737934375 0.641188125
vt 0.275543125 0.6722575
vt 0.2737934375 0.641188125
vt 0.295128125 0.6216606250000001
vt 0.303385 0.638285
vt 0.275543125 0.6722575
vt 0.303385 0.638285
vt 0.3063084375 0.6442375
vt 0.277079375 0.679336875
vt 0.275543125 0.6722575
vt 0.277079375 0.679336875
vt 0.2420609375 0.691021875
vt 0.2420784375 0.683881875
vt 0.275543125 0.6722575
vt 0.277079375 0.679336875
vt 0.3063084375 0.6442375
vt 0.30047625 0.63262375
vt 0.2738234375 0.6644225
vt 0.30047625 0.63262375
vt 0.2909490625 0.61357
vt 0.2708634375 0.6299518749999999
vt 0.2738234375 0.6644225
vt 0.2708634375 0.6299518749999999
vt 0.2420784375 0.6379
vt 0.2420609375 0.6748449999999999
vt 0.2738234375 0.6644225
vt 0.2420609375 0.6748449999999999
vt 0.2420609375 0.691021875
vt 0.277079375 0.679336875
vt 0.2738234375 0.6644225
vt 0.277314375 0.35211499999999996
vt 0.306493125 0.38738249999999996
vt 0.3035609375 0.39318375000000005
vt 0.275768125 0.35904
vt 0.3035609375 0.39318375000000005
vt 0.295280625 0.40966437499999997
vt 0.2739740625 0.38997125
vt 0.275768125 0.35904
vt 0.2739740625 0.38997125
vt 0.2423075 0.380081875
vt 0.2423203125 0.34721250000000003
vt 0.275768125 0.35904
vt 0.2423203125 0.34721250000000003
vt 0.242313125 0.34022874999999997
vt 0.277314375 0.35211499999999996
vt 0.275768125 0.35904
vt 0.2423203125 0.34721250000000003
vt 0.2423075 0.380081875
vt 0.21062375 0.389789375
vt 0.20885375 0.35884812499999996
vt 0.21062375 0.389789375
vt 0.1892821875 0.40935937499999997
vt 0.1810103125 0.39283124999999997
vt 0.20885375 0.35884812499999996
vt 0.1810103125 0.39283124999999997
vt 0.1780653125 0.38701312499999996
vt 0.2072946875 0.35191375
vt 0.20885375 0.35884812499999996
vt 0.2072946875 0.35191375
vt 0.242313125 0.34022874999999997
vt 0.2423203125 0.34721250000000003
vt 0.20885375 0.35884812499999996
vt 0.2072946875 0.35191375
vt 0.1780653125 0.38701312499999996
vt 0.1838778125 0.39875562499999995
vt 0.21052875 0.36696625000000005
vt 0.1838778125 0.39875562499999995
vt 0.19339125 0.417893125
vt 0.2134715625 0.40154749999999995
vt 0.21052875 0.36696625000000005
vt 0.2134715625 0.40154749999999995
vt 0.24225375 0.393616875
vt 0.2422896875 0.356554375
vt 0.21052875 0.36696625000000005
vt 0.2422896875 0.356554375
vt 0.242313125 0.34022874999999997
vt 0.2072946875 0.35191375
vt 0.21052875 0.36696625000000005
vt 0.2422896875 0.356554375
vt 0.24225375 0.393616875
vt 0.2710271875 0.401713125
vt 0.2740371875 0.36714875
vt 0.2710271875 0.401713125
vt 0.291089375 0.41817375
vt 0.30064375 0.39909125
vt 0.2740371875 0.36714875
vt 0.30064375 0.39909125
vt 0.306493125 0.38738249999999996
vt 0.277314375 0.35211499999999996
vt 0.2740371875 0.36714875
vt 0.277314375 0.35211499999999996
vt 0.242313125 0.34022874999999997
vt 0.2422896875 0.356554375
vt 0.2740371875 0.36714875
vn 0.8397724959976449 0.19720731049573081 -0.5058571257310962
vn 0.6794829461990236 0.5187980945535048 -0.518798094553505
vn 0.839772495997645 0.5058571257310963 -0.19720731049573076
vn 0.9728184697700814 0.16374404550119911 -0.16374404550119914
vn 0.8397724959976449 0.5058571257310963 0.1972073104957307
vn 0.6794829461990236 0.5187980945535048 0.518798094553505
vn 0.8397724959976449 0.19720731049573087 0.5058571257310961
vn 0.9728184697700814 0.16374404550119911 0.16374404550119914
vn 0.8397724959976449 -0.19720731049573081 0.5058571257310962
vn 0.6794829461990236 -0.5187980945535049 0.518798094553505
vn 0.839772495997645 -0.5058571257310963 0.19720731049573076
vn 0.9728184697700814 -0.16374404550119911 0.16374404550119914
vn 0.8397724959976449 -0.5058571257310964 -0.1972073104957308
vn 0.6794829461990236 -0.5187980945535048 -0.5187980945535049
vn 0.8397724959976449 -0.19720731049573087 -0.5058571257310961
vn 0.9728184697700814 -0.16374404550119911 -0.16374404550119914
vn -0.8397724959976449 -0.5058571257310964 0.1972073104957308
vn -0.6794829461990236 -0.5187980945535048 0.5187980945535049
vn -0.8397724959976449 -0.19720731049573087 0.5058571257310961
vn -0.9728184697700814 -0.16374404550119911 0.16374404550119914
vn -0.8397724959976449 0.19720731049573081 0.5058571257310962
vn -0.6794829461990236 0.5187980945535048 0.518798094553505
vn -0.839772495997645 0.5058571257310963 0.19720731049573076
vn -0.9728184697700814 0.16374404550119911 0.16374404550119914
vn -0.8397724959976449 0.5058571257310963 -0.1972073104957307
vn -0.6794829461990236 0.5187980945535048 -0.518798094553505
vn -0.8397724959976449 0.19720731049573087 -0.5058571257310961
vn -0.9728184697700814 0.16374404550119911 -0.16374404550119914
vn -0.8397724959976449 -0.19720731049573081 -0.5058571257310962
vn -0.6794829461990236 -0.5187980945535049 -0.518798094553505
vn -0.839772495997645 -0.5058571257310963 -0.19720731049573076
vn -0.9728184697700814 -0.16374404550119911 -0.16374404550119914
vn -0.5058571257310962 0.8397724959976449 0.19720731049573056
vn -0.5187980945535049 0.6794829461990235 0.5187980945535049
vn -0.19720731049573056 0.8397724959976449 0.5058571257310962
vn -0.16374404550119914 0.9728184697700814 0.16374404550119914
vn 0.19720731049573056 0.8397724959976449 0.5058571257310962
vn 0.5187980945535049 0.6794829461990235 0.5187980945535049
vn 0.5058571257310962 0.8397724959976449 0.19720731049573056
vn 0.16374404550119914 0.9728184697700814 0.16374404550119914
vn 0.5058571257310962 0.8397724959976449 -0.19720731049573056
vn 0.5187980945535049 0.6794829461990235 -0.5187980945535049
vn 0.19720731049573056 0.8397724959976449 -0.5058571257310962
vn 0.16374404550119914 0.9728184697700814 -0.16374404550119914
vn -0.19720731049573056 0.8397724959976449 -0.5058571257310962
vn -0.5187980945535049 0.6794829461990235 -0.5187980945535049
vn -0.5058571257310962 0.8397724959976449 -0.19720731049573056
vn -0.16374404550119914 0.9728184697700814 -0.16374404550119914
vn 0.1972073104957306 -0.839772495997645 -0.5058571257310963
vn 0.5187980945535049 -0.6794829461990235 -0.5187980945535049
vn 0.5058571257310963 -0.839772495997645 -0.19720731049573062
vn 0.16374404550119923 -0.9728184697700814 -0.16374404550119923
vn 0.5058571257310963 -0.839772495997645 0.1972073104957306
vn 0.5187980945535049 -0.6794829461990235 0.5187980945535049
vn 0.19720731049573062 -0.839772495997645 0.5058571257310963
vn 0.16374404550119923 -0.9728184697700814 0.16374404550119923
vn -0.1972073104957306 -0.839772495997645 0.5058571257310963
vn -0.5187980945535049 -0.6794829461990235 0.5187980945535049
vn -0.5058571257310963 -0.839772495997645 0.19720731049573062
vn -0.16374404550119923 -0.9728184697700814 0.16374404550119923
vn -0.5058571257310963 -0.839772495997645 -0.1972073104957306
vn -0.5187980945535049 -0.6794829461990235 -0.5187980945535049
vn -0.19720731049573062 -0.839772495997645 -0.5058571257310963
vn -0.16374404550119923 -0.9728184697700814 -0.16374404550119923
vn 0.19720731049573073 -0.5058571257310963 0.8397724959976447
vn 0.5187980945535049 -0.5187980945535048 0.6794829461990236
vn 0.5058571257310961 -0.19720731049573087 0.8397724959976449
vn 0.16374404550119914 -0.16374404550119911 0.9728184697700814
vn 0.5058571257310962 0.19720731049573081 0.8397724959976449
vn 0.518798094553505 0.5187980945535048 0.6794829461990236
vn 0.19720731049573076 0.5058571257310963 0.839772495997645
vn 0.16374404550119914 0.16374404550119911 0.9728184697700814
vn -0.1972073104957307 0.5058571257310963 0.8397724959976449
vn -0.518798094553505 0.5187980945535048 0.6794829461990236
vn -0.5058571257310961 0.19720731049573087 0.8397724959976449
vn -0.16374404550119914 0.16374404550119911 0.9728184697700814
vn -0.5058571257310962 -0.19720731049573081 0.8397724959976449
vn -0.518798094553505 -0.5187980945535049 0.6794829461990236
vn -0.19720731049573076 -0.5058571257310963 0.839772495997645
vn -0.16374404550119914 -0.16374404550119911 0.9728184697700814
vn -0.5058571257310962 0.19720731049573081 -0.8397724959976449
vn -0.518798094553505 0.5187980945535048 -0.6794829461990236
vn -0.19720731049573076 0.5058571257310963 -0.839772495997645
vn -0.16374404550119914 0.16374404550119911 -0.9728184697700814
vn 0.1972073104957307 0.5058571257310963 -0.8397724959976449
vn 0.518798094553505 0.5187980945535048 -0.6794829461990236
vn 0.5058571257310961 0.19720731049573087 -0.8397724959976449
vn 0.16374404550119914 0.16374404550119911 -0.9728184697700814
vn 0.5058571257310962 -0.19720731049573081 -0.8397724959976449
vn 0.518798094553505 -0.5187980945535049 -0.6794829461990236
vn 0.19720731049573076 -0.5058571257310963 -0.839772495997645
vn 0.16374404550119914 -0.16374404550119911 -0.9728184697700814
vn -0.19720731049573073 -0.5058571257310963 -0.8397724959976447
vn -0.5187980945535049 -0.5187980945535048 -0.6794829461990236
vn -0.5058571257310961 -0.19720731049573087 -0.8397724959976449
vn -0.16374404550119914 -0.16374404550119911 -0.9728184697700814
usemtl m_80a5fe02-394c-2714-e180-4f3d8fb1b2c2
f 86/57/15 50/58/15 83/59/15 59/60/15
f 83/61/16 34/62/16 84/63/16 59/64/16
f 84/65/17 47/66/17 85/67/17 59/68/17
f 85/69/18 41/70/18 86/71/18 59/72/18
f 85/73/19 47/74/19 87/75/19 60/76/19
f 87/77/20 33/78/20 88/79/20 60/80/20
f 88/81/21 48/82/21 89/83/21 60/84/21
f 89/85/22 41/86/22 85/87/22 60/88/22
f 89/89/23 48/90/23 90/91/23 61/92/23
f 90/93/24 35/94/24 91/95/24 61/96/24
f 91/97/25 49/98/25 92/99/25 61/100/25
f 92/101/26 41/102/26 89/103/26 61/104/26
f 92/105/27 49/106/27 93/107/27 62/108/27
f 93/109/28 36/110/28 94/111/28 62/112/28
f 94/113/29 50/114/29 86/115/29 62/116/29
f 86/117/30 41/118/30 92/119/30 62/120/30
f 98/121/31 54/122/31 95/123/31 63/124/31
f 95/125/32 39/126/32 96/127/32 63/128/32
f 96/129/33 51/130/33 97/131/33 63/132/33
f 97/133/34 42/134/34 98/135/34 63/136/34
f 97/137/35 51/138/35 99/139/35 64/140/35
f 99/141/36 37/142/36 100/143/36 64/144/36
f 100/145/37 52/146/37 101/147/37 64/148/37
f 101/149/38 42/150/38 97/151/38 64/152/38
f 101/153/39 52/154/39 102/155/39 65/156/39
f 102/157/40 38/158/40 103/159/40 65/160/40
f 103/161/41 53/162/41 104/163/41 65/164/41
f 104/165/42 42/166/42 101/167/42 65/168/42
f 104/169/43 53/170/43 105/171/43 66/172/43
f 105/173/44 40/174/44 106/175/44 66/176/44
f 106/177/45 54/178/45 98/179/45 66/180/45
f 98/181/46 42/182/46 104/183/46 66/184/46
f 109/185/47 52/186/47 100/187/47 67/188/47
f 100/189/48 37/190/48 107/191/48 67/192/48
f 107/193/49 55/194/49 108/195/49 67/196/49
f 108/197/50 43/198/50 109/199/50 67/200/50
f 108/201/51 55/202/51 110/203/51 68/204/51
f 110/205/52 33/206/52 87/207/52 68/208/52
f 87/209/53 47/210/53 111/211/53 68/212/53
f 111/213/54 43/214/54 108/215/54 68/216/54
f 111/217/55 47/218/55 84/219/55 69/220/55
f 84/221/56 34/222/56 112/223/56 69/224/56
f 112/225/57 56/226/57 113/227/57 69/228/57
f 113/229/58 43/230/58 111/231/58 69/232/58
f 113/233/59 56/234/59 114/235/59 70/236/59
f 114/237/60 38/238/60 102/239/60 70/240/60
f 102/241/61 52/242/61 109/243/61 70/244/61
f 109/245/62 43/246/62 113/247/62 70/248/62
f 117/249/63 58/250/63 115/251/63 71/252/63
f 115/253/64 36/254/64 93/255/64 71/256/64
f 93/257/65 49/258/65 116/259/65 71/260/65
f 116/261/66 44/262/66 117/263/66 71/264/66
f 116/265/67 49/266/67 91/267/67 72/268/67
f 91/269/68 35/270/68 118/271/68 72/272/68
f 118/273/69 57/274/69 119/275/69 72/276/69
f 119/277/70 44/278/70 116/279/70 72/280/70
f 119/281/71 57/282/71 120/283/71 73/284/71
f 120/285/72 39/286/72 95/287/72 73/288/72
f 95/289/73 54/290/73 121/291/73 73/292/73
f 121/293/74 44/294/74 119/295/74 73/296/74
f 121/297/75 54/298/75 106/299/75 74/300/75
f 106/301/76 40/302/76 122/303/76 74/304/76
f 122/305/77 58/306/77 117/307/77 74/308/77
f 117/309/78 44/310/78 121/311/78 74/312/78
f 124/313/79 57/314/79 118/315/79 75/316/79
f 118/317/80 35/318/80 90/319/80 75/320/80
f 90/321/81 48/322/81 123/323/81 75/324/81
f 123/325/82 45/326/82 124/327/82 75/328/82
f 123/329/83 48/330/83 88/331/83 76/332/83
f 88/333/84 33/334/84 110/335/84 76/336/84
f 110/337/85 55/338/85 125/339/85 76/340/85
f 125/341/86 45/342/86 123/343/86 76/344/86
f 125/345/87 55/346/87 107/347/87 77/348/87
f 107/349/88 37/350/88 99/351/88 77/352/88
f 99/353/89 51/354/89 126/355/89 77/356/89
f 126/357/90 45/358/90 125/359/90 77/360/90
f 126/361/91 51/362/91 96/363/91 78/364/91
f 96/365/92 39/366/92 120/367/92 78/368/92
f 120/369/93 57/370/93 124/371/93 78/372/93
f 124/373/94 45/374/94 126/375/94 78/376/94
f 128/377/95 53/378/95 103/379/95 79/380/95
f 103/381/96 38/382/96 114/383/96 79/384/96
f 114/385/97 56/386/97 127/387/97 79/388/97
f 127/389/98 46/390/98 128/391/98 79/392/98
f 127/393/99 56/394/99 112/395/99 80/396/99
f 112/397/100 34/398/100 83/399/100 80/400/100
f 83/401/101 50/402/101 129/403/101 80/404/101
f 129/405/102 46/406/102 127/407/102 80/408/102
f 129/409/103 50/410/103 94/411/103 81/412/103
f 94/413/104 36/414/104 115/415/104 81/416/104
f 115/417/105 58/418/105 130/419/105 81/420/105
f 130/421/106 46/422/106 129/423/106 81/424/106
f 130/425/107 58/426/107 122/427/107 82/428/107
f 122/429/108 40/430/108 105/431/108 82/432/108
f 105/433/109 53/434/109 128/435/109 82/436/109
f 128/437/110 46/438/110 130/439/110 82/440/110
o up
v 0.25 0.5 0.25
v 0.25 0.5 0.125
v 0.125 0.375 0.125
v 0.125 0.5 0.25
v 0.25 0.5 -0.25
v 0.125 0.5 -0.25
v 0.125 0.375 -0.125
v 0.25 0.5 -0.125
v -0.25 0.5 -0.25
v -0.25 0.5 -0.125
v -0.125 0.375 -0.125
v -0.125 0.5 -0.25
v -0.25 0.5 0.25
v -0.125 0.5 0.25
v -0.25 0.5 0.125
v -0.25 0.5 -0.125
v -0.125 0.375 0.125
v 0.125 0.375 0.125
v 0.125 0.375 -0.125
v -0.125 0.375 -0.125
v 0.5 0.5 0.5
v 0.5 0.5 -0.5
v -0.5 0.5 0.5
v -0.5 0.5 -0.5
v 0.25 0.5 0.5
v 0.25 0.5 -0.5
v -0.25 0.5 0.5
v -0.25 0.5 -0.5
v -0.25 0.5 0.25
v -0.25 0.5 -0.25
v 0.25 0.5 0.25
v 0.25 0.5 -0.25
v -0.125 0.5 -0.25
v 0.125 0.5 -0.25
v -0.125 0.5 0.25
v 0.125 0.5 0.25
v 0.25 0.5 0.125
v 0.25 0.5 -0.125
vt 0.115871875 0.907464375
vt 0.109329375 0.792863125
vt 0.1875803125 0.7102474999999999
vt 0.1866221875 0.907464375
vt 0.115871875 0.907464375
vt 0.109329375 0.792863125
vt 0.1875803125 0.7102474999999999
vt 0.1866221875 0.907464375
vt 0.115871875 0.907464375
vt 0.109329375 0.792863125
vt 0.1875803125 0.7102474999999999
vt 0.1866221875 0.907464375
vt 0.1875 0.90625
vt 0.1875 0.729475
vt 0.3125 0.729475
vt 0.3125 0.90625
vt 0.115871875 0.907464375
vt 0.109329375 0.792863125
vt 0.1875803125 0.7102474999999999
vt 0.1866221875 0.907464375
vt 0.71875 0.40625
vt 0.84375 0.40625
vt 0.84375 0.65625
vt 0.71875 0.65625
vt 0.375 0
vt 0.5 0
vt 0.5 1
vt 0.375 1
vt 0 0
vt 0.125 0
vt 0.125 1
vt 0 1
vt 0.109375 0
vt 0.359375 0
vt 0.359375 0.25
vt 0.109375 0.25
vt 0.125 0.75
vt 0.375 0.75
vt 0.375 1
vt 0.125 1
vt 0.1875 0.90625
vt 0.1875 0.729475
vt 0.3125 0.729475
vt 0.3125 0.90625
vt 0.1875 0.90625
vt 0.1875 0.729475
vt 0.3125 0.729475
vt 0.3125 0.90625
vt 0.1875 0.90625
vt 0.1875 0.729475
vt 0.3125 0.729475
vt 0.3125 0.90625
vn -0.7071067811865476 0.7071067811865476 0
vn 0 0.7071067811865476 0.7071067811865476
vn 0.7071067811865476 0.7071067811865476 0
vn 0.7071067811865476 0.7071067811865476 0
vn 0 0.7071067811865476 -0.7071067811865476
vn 0 1 0
vn 0 1 0
vn 0 1 0
vn 0 1 0
vn 0 1 0
vn 0 0.7071067811865476 0.7071067811865476
vn 0 0.7071067811865476 -0.7071067811865476
vn -0.7071067811865476 0.7071067811865476 0
usemtl m_80a5fe02-394c-2714-e180-4f3d8fb1b2c2
f 131/441/111 132/442/111 133/443/111 134/444/111
f 135/445/112 136/446/112 137/447/112 138/448/112
f 139/449/113 140/450/113 141/451/113 142/452/113
f 145/453/114 147/454/114 150/455/114 146/456/114
f 143/457/115 144/458/115 147/459/115 145/460/115
f 147/461/116 148/462/116 149/463/116 150/464/116
f 155/465/117 151/466/117 152/467/117 156/468/117
f 153/469/118 157/470/118 158/471/118 154/472/118
f 157/473/119 155/474/119 161/475/119 159/476/119
f 160/477/120 162/478/120 156/479/120 158/480/120
f 163/481/121 150/482/121 149/483/121 164/484/121
f 147/485/122 165/486/122 166/487/122 148/488/122
f 148/489/123 167/490/123 168/491/123 149/492/123
o spike1
v -0.5 0.75 0.375
v -0.5 0.75 0.5
v -0.5 0.5 0.25
v -0.5 0.5 0.5
v -0.375 0.75 0.375
v -0.375 0.75 0.5
v -0.25 0.5 0.25
v -0.25 0.5 0.5
v -0.375 0.75 0.5
v -0.5 0.75 0.5
v -0.5 0.5 0.5
v -0.25 0.5 0.5
v -0.5 0.75 0.375
v -0.5 0.5 0.25
vt 0.46875 0.06424375000000004
vt 0.40625 0.34375
vt 0.34375 0.34375
vt 0.34375 0.06424375000000004
vt 0.59375 0.65625
vt 0.59375 0.53125
vt 0.65625 0.53125
vt 0.65625 0.65625
vt 0.6875 0.71875
vt 0.5625 0.71875
vt 0.5625 0.46875
vt 0.6875 0.46875
vt 0.34375 0.06424375000000004
vt 0.34375 0.34375
vt 0.40625 0.34375
vt 0.46875 0.06424375000000004
vt 1 0.28125
vt 0.9375 0.28125
vt 0.875 0.03125
vt 1 0.03125
vt 0.578125 0.25
vt 0.515625 0.25
vt 0.515625 0
vt 0.640625 0
vn 0.8944271909999161 0.44721359549995804 0
vn 0 1 0
vn 0 -1 0
vn 0 0.44721359549995804 -0.8944271909999161
vn -1 0 0
vn 0 0 1
usemtl m_80a5fe02-394c-2714-e180-4f3d8fb1b2c2
f 175/493/124 173/494/124 174/495/124 176/496/124
f 173/497/125 169/498/125 170/499/125 174/500/125
f 172/501/126 171/502/126 175/503/126 176/504/126
f 171/505/127 169/506/127 173/507/127 175/508/127
f 178/509/128 181/510/128 182/511/128 179/512/128
f 177/513/129 178/514/129 179/515/129 180/516/129
o down
v 0.5 0 0.5
v 0.5 0 -0.5
v -0.5 0 0.5
v -0.5 0 -0.5
vt 1 0
vt 1 1
vt 0.5 1
vt 0.5 0
vn 0 -1 0
usemtl m_80a5fe02-394c-2714-e180-4f3d8fb1b2c2
f 184/517/130 183/518/130 185/519/130 186/520/130
o spike3
v 0.375 0.75 -0.5
v 0.5 0.75 -0.5
v 0.5 0.5 -0.5
v 0.25 0.5 -0.5
v 0.5 0.75 -0.375
v 0.5 0.5 -0.25
v 0.5 0.75 -0.375
v 0.5 0.75 -0.5
v 0.5 0.5 -0.25
v 0.5 0.5 -0.5
v 0.375 0.75 -0.375
v 0.375 0.75 -0.5
v 0.25 0.5 -0.25
v 0.25 0.5 -0.5
vt 1 0.28125
vt 0.9375 0.28125
vt 0.875 0.03125
vt 1 0.03125
vt 0.578125 0.25
vt 0.515625 0.25
vt 0.515625 0
vt 0.640625 0
vt 0.46875 0.06424375000000004
vt 0.40625 0.34375
vt 0.34375 0.34375
vt 0.34375 0.06424375000000004
vt 0.59375 0.65625
vt 0.59375 0.53125
vt 0.65625 0.53125
vt 0.65625 0.65625
vt 0.6875 0.71875
vt 0.5625 0.71875
vt 0.5625 0.46875
vt 0.6875 0.46875
vt 0.34375 0.06424375000000004
vt 0.34375 0.34375
vt 0.40625 0.34375
vt 0.46875 0.06424375000000004
vn 1 0 0
vn 0 0 -1
vn -0.8944271909999161 0.44721359549995804 0
vn 0 1 0
vn 0 -1 0
vn 0 0.44721359549995804 0.8944271909999161
usemtl m_80a5fe02-394c-2714-e180-4f3d8fb1b2c2
f 188/521/131 191/522/131 192/523/131 189/524/131
f 187/525/132 188/526/132 189/527/132 190/528/132
f 199/529/133 197/530/133 198/531/133 200/532/133
f 197/533/134 193/534/134 194/535/134 198/536/134
f 196/537/135 195/538/135 199/539/135 200/540/135
f 195/541/136 193/542/136 197/543/136 199/544/136
o spike4
v 0.5 0.75 0.375
v 0.5 0.75 0.5
v 0.5 0.5 0.5
v 0.5 0.5 0.25
v 0.375 0.75 0.5
v 0.25 0.5 0.5
v 0.375 0.75 0.5
v 0.5 0.75 0.5
v 0.25 0.5 0.5
v 0.5 0.5 0.5
v 0.375 0.75 0.375
v 0.5 0.75 0.375
v 0.25 0.5 0.25
v 0.5 0.5 0.25
vt 1 0.28125
vt 0.9375 0.28125
vt 0.875 0.03125
vt 1 0.03125
vt 0.578125 0.25
vt 0.515625 0.25
vt 0.515625 0
vt 0.640625 0
vt 0.46875 0.06424375000000004
vt 0.40625 0.34375
vt 0.34375 0.34375
vt 0.34375 0.06424375000000004
vt 0.59375 0.65625
vt 0.59375 0.53125
vt 0.65625 0.53125
vt 0.65625 0.65625
vt 0.6875 0.71875
vt 0.5625 0.71875
vt 0.5625 0.46875
vt 0.6875 0.46875
vt 0.34375 0.06424375000000004
vt 0.34375 0.34375
vt 0.40625 0.34375
vt 0.46875 0.06424375000000004
vn 0 0 1
vn 1 0 0
vn 0 0.44721359549995804 -0.8944271909999161
vn 0 1 0
vn 0 -1 0
vn -0.8944271909999161 0.44721359549995804 0
usemtl m_80a5fe02-394c-2714-e180-4f3d8fb1b2c2
f 202/545/137 205/546/137 206/547/137 203/548/137
f 201/549/138 202/550/138 203/551/138 204/552/138
f 213/553/139 211/554/139 212/555/139 214/556/139
f 211/557/140 207/558/140 208/559/140 212/560/140
f 210/561/141 209/562/141 213/563/141 214/564/141
f 209/565/142 207/566/142 211/567/142 213/568/142