# Made in Blockbench 5.1.6
mtllib MagicalRepairer.mtl

o down
v -0.5 0 -0.5
v 0.5 0 -0.5
v -0.5 0 0.5
v 0.5 0 0.5
vt 0.3333333333333333 0
vt 0.6666666666666666 0
vt 0.6666666666666666 1
vt 0.3333333333333333 1
vn 0 -1 0
usemtl m_f2ef69d7-7076-1d63-7804-b1fa02a88cae
f 1/1/1 2/2/1 4/3/1 3/4/1
o frame
v 0.5 0 0.375
v 0.5 0.875 0.375
v 0.375 0 0.375
v 0.375 0.875 0.375
v 0.375 0 0.5
v 0.375 0.875 0.5
v 0.375 0 -0.5
v 0.375 0.875 -0.5
v 0.375 0 -0.375
v 0.375 0.875 -0.375
v 0.5 0 -0.375
v 0.5 0.875 -0.375
v -0.5 1 0.5
v -0.375 1 0.5
v -0.375 1 0.375
v -0.5 1 0.375
v 0.375 1 0.5
v 0.5 1 0.5
v 0.5 1 0.375
v 0.375 1 0.375
v -0.25 0.5 0.25
v -0.125 0.5 0.25
v 0 0.5 0.25
v 0.125 0.5 0.25
v 0.25 0.5 0.25
v -0.5 0.5 0.125
v -0.25 0.5 0.125
v -0.25 0.625 0.25
v -0.125 0.625 0.25
v -0.25 0.625 0.125
v 0 0.625 0.25
v 0.125 0.625 0.25
v 0.25 0.625 0.25
v 0.25 0.625 0.125
v 0.25 0.5 0.125
v -0.5 0.5 0
v -0.25 0.5 0
v -0.25 0.625 0
v 0.25 0.625 0
v 0.25 0.5 0
v -0.5 0.5 -0.125
v -0.25 0.5 -0.125
v -0.25 0.625 -0.125
v -0.25 0.5 -0.25
v -0.125 0.625 -0.25
v -0.25 0.625 -0.25
v 0 0.625 -0.25
v 0.125 0.625 -0.25
v -0.125 0.5 -0.25
v 0 0.5 -0.25
v 0.125 0.5 -0.25
v -0.5 1 -0.375
v -0.375 1 -0.375
v -0.375 1 -0.5
v -0.5 1 -0.5
v 0.375 1 -0.375
v 0.5 1 -0.375
v 0.5 1 -0.5
v 0.375 1 -0.5
v -0.125 1 0.125
v 0 1 0.5
v 0.125 1 0.125
v -0.125 1 -0.125
v -0.5 1 0
v 0.5 1 0
v 0.125 1 -0.125
v 0 1 -0.5
v 0.125 0.875 0.5
v -0.5 0.875 -0.125
v 0.5 0.875 -0.125
v -0.125 0.875 0.5
v -0.5 0.875 0.125
v 0.125 0.875 -0.5
v 0.5 0.875 0.125
v -0.125 0.875 -0.5
v -0.375 0.5 0.375
v -0.125 0.5 0.5
v -0.5 0.5 0.125
v 0.125 0.5 0.5
v 0.375 0.5 0.375
v 0.5 0.5 0.125
v -0.125 0.5 -0.5
v -0.375 0.5 -0.375
v -0.5 0.5 -0.125
v 0.5 0.5 -0.125
v 0.375 0.5 -0.375
v 0.125 0.5 -0.5
v 0 0.5 0.25
v 0 0.625 0.25
v 0 0.5 0.5
v -0.125 0.75 0.25
v -0.25 0.75 0.25
v -0.375 0.75 0.375
v -0.125 0.75 0.5
v -0.25 0.75 0.125
v -0.5 0.75 0.125
v -0.25 0.625 0
v -0.25 0.5 0
v -0.5 0.5 0
v 0.25 0.75 0.25
v 0.125 0.75 0.25
v 0.125 0.75 0.5
v 0.375 0.75 0.375
v 0 0.625 0.25
v 0 0.5 0.25
v 0 0.5 0.5
v 0.25 0.5 0
v 0.25 0.625 0
v 0.5 0.5 0
v 0.25 0.75 0.125
v 0.5 0.75 0.125
v -0.25 0.75 -0.25
v -0.125 0.75 -0.25
v -0.125 0.75 -0.5
v -0.375 0.75 -0.375
v 0 0.625 -0.25
v 0 0.5 -0.25
v -0.25 0.5 0
v -0.25 0.625 0
v -0.5 0.5 0
v -0.25 0.75 -0.125
v -0.5 0.75 -0.125
v 0.25 0.75 -0.25
v 0.25 0.75 -0.125
v 0.5 0.75 -0.125
v 0.375 0.75 -0.375
v 0.25 0.625 0
v 0.25 0.5 0
v 0.5 0.5 0
v 0 0.5 -0.25
v 0 0.625 -0.25
v 0.125 0.75 -0.25
v 0.125 0.75 -0.5
v 0 0.625 0.25
v 0 0.75 0.25
v 0 0.75 0.5
v -0.25 0.625 0
v -0.5 0.75 0
v -0.25 0.75 0
v 0 0.625 0.25
v 0 0.75 0.5
v 0 0.75 0.25
v 0.25 0.625 0
v 0.25 0.75 0
v 0 0.625 -0.25
v 0 0.75 -0.5
v 0 0.75 -0.25
v -0.25 0.625 0
v -0.25 0.75 0
v -0.5 0.75 0
v 0.25 0.625 0
v 0.5 0.75 0
v 0.25 0.75 0
v 0 0.625 -0.25
v 0 0.75 -0.25
v 0 0.75 -0.5
v -0.125 0.5 -0.375
v 0 0.5 -0.375
v 0.125 0.5 -0.375
v -0.125 0.5 -0.5
v 0 0.5 -0.5
v 0.125 0.5 -0.5
v 0.25 0.5 -0.125
v 0.25 0.5 -0.25
v 0.25 0.625 -0.25
v 0.25 0.625 -0.125
v 0.5 0.75 0
v -0.5 0 -0.375
v -0.375 0 -0.375
v -0.375 0 -0.5
v -0.5 0 -0.5
v -0.5 0.5 0.375
v -0.5 0.5 -0.375
v -0.5 0 -0.375
v -0.5 0 0.375
v -0.375 0 0.5
v -0.375 0 0.375
v -0.5 0 0.375
v -0.5 0 0.5
v 0.5 0.875 -0.375
v 0.375 0.875 -0.375
v 0.125 0.875 -0.125
v 0.5 0.875 0
v 0.5 0.875 -0.5
v 0.375 0.875 -0.5
v 0 0.875 -0.5
v 0.375 0.875 0.5
v 0.375 0.875 0.375
v 0.125 0.875 0.125
v 0 0.875 0.5
v 0.5 0.875 0.375
v 0.5 0.875 0.5
v -0.375 0.875 0.375
v -0.375 0.875 0.5
v -0.125 0.875 0.125
v -0.5 0.875 0.375
v -0.5 0.875 0
v -0.5 0.875 0.5
v -0.375 0.875 -0.375
v -0.5 0.875 -0.375
v -0.125 0.875 -0.125
v -0.375 0.875 -0.5
v -0.5 0.875 -0.5
v 0.375 0.875 0.5
v 0.375 1 0.5
v 0 1 0.5
v 0 0.875 0.5
v -0.375 1 0.5
v -0.375 0.875 0.5
v -0.5 0.875 0.5
v -0.5 1 0.5
v -0.5 0 0.5
v -0.375 0 0.5
v -0.375 0.875 0.5
v -0.5 0.875 0.5
v -0.375 0 0.5
v 0.375 0 0.5
v 0.375 0.5 0.5
v -0.375 0.5 0.5
v 0.375 0 0.5
v 0.5 0 0.5
v 0.5 0.875 0.5
v 0.375 0.875 0.5
v 0.5 0.875 0.5
v 0.5 1 0.5
v 0.5 0.875 -0.375
v 0.5 1 -0.375
v 0.5 1 0
v 0.5 0.875 0
v 0.5 1 0.375
v 0.5 0.875 0.375
v 0.5 0.875 0.5
v 0.5 1 0.5
v 0.5 0 0.5
v 0.5 0 0.375
v 0.5 0.875 0.375
v 0.5 0.875 0.5
v 0.5 0 0.375
v 0.5 0 -0.375
v 0.5 0.5 -0.375
v 0.5 0.5 0.375
v 0.5 0 -0.375
v 0.5 0 -0.5
v 0.5 0.875 -0.5
v 0.5 0.875 -0.375
v 0.5 0.875 -0.5
v 0.5 1 -0.5
v -0.375 0.875 -0.5
v -0.375 1 -0.5
v 0 1 -0.5
v 0 0.875 -0.5
v 0.375 1 -0.5
v 0.375 0.875 -0.5
v 0.5 0.875 -0.5
v 0.5 1 -0.5
v 0.5 0 -0.5
v 0.375 0 -0.5
v 0.375 0.875 -0.5
v 0.5 0.875 -0.5
v 0.375 0 -0.5
v -0.375 0 -0.5
v -0.375 0.5 -0.5
v 0.375 0.5 -0.5
v -0.375 0 -0.5
v -0.5 0 -0.5
v -0.5 0.875 -0.5
v -0.375 0.875 -0.5
v -0.5 0.875 -0.5
v -0.5 1 -0.5
vt 0.5833333333333334 0.0625
vt 0.6458333333333334 0.0625
vt 0.6458333333333334 0.9375
vt 0.5833333333333334 0.9375
vt 0.5833333333333334 0.0625
vt 0.6458333333333334 0.0625
vt 0.6458333333333334 0.9375
vt 0.5833333333333334 0.9375
vt 0.5729166666666666 0
vt 0.6354166666666666 0
vt 0.6354166666666666 0.875
vt 0.5729166666666666 0.875
vt 0.5729166666666666 0
vt 0.6354166666666666 0
vt 0.6354166666666666 0.875
vt 0.5729166666666666 0.875
vt 0.6666666666666666 0.96875
vt 0.625 0.96875
vt 0.625 0.84375
vt 0.6666666666666666 0.84375
vt 0.375 0.96875
vt 0.3333333333333333 0.96875
vt 0.3333333333333333 0.84375
vt 0.375 0.84375
vt 0.7708333333333334 0.4375
vt 0.8541666666666666 0.4375
vt 0.8541666666666666 0.5625
vt 0.7708333333333334 0.5625
vt 0.7708333333333334 0.4375
vt 0.8541666666666666 0.4375
vt 0.8541666666666666 0.5625
vt 0.7708333333333334 0.5625
vt 0.25 0.25
vt 0.25 0.75
vt 0.08333333333333333 0.75
vt 0.08333333333333333 0.25
vt 0.6666666666666666 0.125
vt 0.625 0.125
vt 0.625 0
vt 0.6666666666666666 0
vt 0.375 0.125
vt 0.3333333333333333 0.125
vt 0.3333333333333333 0
vt 0.375 0
vt 0.3645833333333333 0.53125
vt 0.4963458333333333 0.53125
vt 0.4963458333333333 0.65625
vt 0.3645833333333333 0.65625
vt 0.4895833333333333 0.78125
vt 0.6213458333333334 0.78125
vt 0.6213458333333334 0.90625
vt 0.4895833333333333 0.90625
vt 0.375 0.875
vt 0.3333333333333333 0.875
vt 0.3333333333333333 1
vt 0.375 1
vt 0.4895833333333333 0.15625
vt 0.6213458333333334 0.15625
vt 0.6213458333333334 0.28125
vt 0.4895833333333333 0.28125
vt 0.3645833333333333 0.40625
vt 0.4963458333333333 0.40625
vt 0.4963458333333333 0.53125
vt 0.3645833333333333 0.53125
vt 0.5520833333333334 0.78125
vt 0.6838458333333333 0.78125
vt 0.6838458333333333 0.90625
vt 0.5520833333333334 0.90625
vt 0.5208333333333334 0.53125
vt 0.6525958333333334 0.53125
vt 0.6525958333333334 0.65625
vt 0.5208333333333334 0.65625
vt 0.6666666666666666 0.875
vt 0.625 0.875
vt 0.625 1
vt 0.6666666666666666 1
vt 0.5208333333333334 0.40625
vt 0.6525958333333334 0.40625
vt 0.6525958333333334 0.53125
vt 0.5208333333333334 0.53125
vt 0.625 0.84375
vt 0.625 0.96875
vt 0.5 0.96875
vt 0.5416666666666666 0.625
vt 0.5 0.875
vt 0.5 1
vt 0.375 1
vt 0.375 0.875
vt 0.6666666666666666 0.84375
vt 0.625 0.84375
vt 0.5416666666666666 0.625
vt 0.6666666666666666 0.5
vt 0.375 0.84375
vt 0.3333333333333333 0.84375
vt 0.3333333333333333 0.5
vt 0.4583333333333333 0.625
vt 0.375 0.96875
vt 0.375 0.84375
vt 0.4583333333333333 0.625
vt 0.5 0.96875
vt 0.625 0.125
vt 0.6666666666666666 0.125
vt 0.6666666666666666 0.5
vt 0.5416666666666666 0.375
vt 0.5 1
vt 0.5 0.875
vt 0.625 0.875
vt 0.625 1
vt 0.625 0
vt 0.625 0.125
vt 0.5416666666666666 0.375
vt 0.5 0
vt 0.3333333333333333 0.125
vt 0.375 0.125
vt 0.4583333333333333 0.375
vt 0.3333333333333333 0.5
vt 0.375 0.125
vt 0.375 0
vt 0.5 0
vt 0.4583333333333333 0.375
vt 0.5113677083333333 0.5116149999999999
vt 0.5113677083333333 0.869119375
vt 0.5113675 0.392446875
vt 0.570951875 0.988288125
vt 0.7497041666666666 0.9882875
vt 0.8092883333333334 0.9882875
vt 0.7497039583333334 0.03494187500000001
vt 0.5709516666666666 0.03494187500000001
vt 0.809288125 0.03494187500000001
vt 0.5113675 0.15410999999999997
vt 0.5113677083333333 0.5116149999999999
vt 0.5113677083333333 0.630783125
vt 0.7497041666666666 0.9882875
vt 0.9284564583333333 0.9882875
vt 0.69012 0.9882875
vt 0.9284564583333333 0.03494187500000001
vt 0.7497039583333334 0.03494187500000001
vt 0.69012 0.03494187500000001
vt 0.8125 0.4375
vt 0.8541666666666666 0.4375
vt 0.8541666666666666 0.5625
vt 0.8125 0.5625
vt 0.8125 0.4375
vt 0.8541666666666666 0.4375
vt 0.8541666666666666 0.5625
vt 0.8125 0.5625
vt 0.7916666666666666 0.4375
vt 0.8333333333333334 0.4375
vt 0.8333333333333334 0.5625
vt 0.7916666666666666 0.5625
vt 0.8125 0.4375
vt 0.8541666666666666 0.4375
vt 0.8541666666666666 0.5625
vt 0.8125 0.5625
vt 0.7916666666666666 0.4375
vt 0.8333333333333334 0.4375
vt 0.8333333333333334 0.5625
vt 0.7916666666666666 0.5625
vt 0.8125 0.4375
vt 0.8541666666666666 0.4375
vt 0.8541666666666666 0.5625
vt 0.8125 0.5625
vt 0.8125 0.5
vt 0.8541666666666666 0.5
vt 0.8541666666666666 0.625
vt 0.8125 0.625
vt 0.8125 0.5
vt 0.8541666666666666 0.5
vt 0.8541666666666666 0.625
vt 0.8125 0.625
vt 0.8125 0.375
vt 0.8541666666666666 0.375
vt 0.8541666666666666 0.625
vt 0.7708333333333334 0.5
vt 0.8541666666666666 0.5625
vt 0.8125 0.5625
vt 0.7708333333333334 0.4375
vt 0.8541666666666666 0.3125
vt 0.8541666666666666 0.375
vt 0.8541666666666666 0.5
vt 0.8125 0.625
vt 0.7708333333333334 0.375
vt 0.8541666666666666 0.4375
vt 0.8541666666666666 0.5625
vt 0.7708333333333334 0.5625
vt 0.8125 0.3125
vt 0.8125 0.375
vt 0.8541666666666666 0.375
vt 0.8958333333333334 0.5
vt 0.8125 0.625
vt 0.8541666666666666 0.5625
vt 0.8125 0.5625
vt 0.8125 0.3125
vt 0.8958333333333334 0.4375
vt 0.8125 0.5
vt 0.8125 0.375
vt 0.8958333333333334 0.375
vt 0.8541666666666666 0.625
vt 0.8125 0.5625
vt 0.8125 0.4375
vt 0.8541666666666666 0.3125
vt 0.8958333333333334 0.5625
vt 0.8125 0.4375
vt 0.8541666666666666 0.4375
vt 0.8541666666666666 0.6875
vt 0.7708333333333334 0.5625
vt 0.8541666666666666 0.5
vt 0.8541666666666666 0.625
vt 0.7708333333333334 0.625
vt 0.8125 0.375
vt 0.8541666666666666 0.4375
vt 0.8541666666666666 0.5625
vt 0.8125 0.6875
vt 0.7708333333333334 0.4375
vt 0.8125 0.625
vt 0.8125 0.5
vt 0.8541666666666666 0.375
vt 0.8958333333333334 0.625
vt 0.8125 0.5625
vt 0.8125 0.4375
vt 0.8958333333333334 0.4375
vt 0.8541666666666666 0.6875
vt 0.8125 0.4375
vt 0.8541666666666666 0.4375
vt 0.8958333333333334 0.5625
vt 0.8125 0.6875
vt 0.8125 0.4375
vt 0.8541666666666666 0.4375
vt 0.8541666666666666 0.5625
vt 0.8125 0.5625
vt 0.7702541666666667 0.625
vt 0.6770833333333334 0.625
vt 0.6770833333333334 0.375
vt 0.7702541666666667 0.375
vt 0.7916666666666666 0.4375
vt 0.8333333333333334 0.4375
vt 0.8333333333333334 0.5625
vt 0.7916666666666666 0.5625
vt 0.9473375 0.625
vt 0.8541666666666666 0.625
vt 0.8541666666666666 0.375
vt 0.9473375 0.375
vt 0.8125 0.4375
vt 0.8541666666666666 0.4375
vt 0.8541666666666666 0.5625
vt 0.8125 0.5625
vt 0.9473375 0.625
vt 0.8541666666666666 0.625
vt 0.8541666666666666 0.375
vt 0.9473375 0.375
vt 0.8125 0.4375
vt 0.8541666666666666 0.4375
vt 0.8541666666666666 0.5625
vt 0.8125 0.5625
vt 0.7702541666666672 0.625
vt 0.6770833333333339 0.625
vt 0.6770833333333339 0.375
vt 0.7702541666666672 0.375
vt 0.8125 0.5
vt 0.8541666666666666 0.5
vt 0.8541666666666666 0.625
vt 0.8125 0.625
vt 0.9473375 0.625
vt 0.8541666666666666 0.625
vt 0.8541666666666666 0.375
vt 0.9473375 0.375
vt 0.7916666666666666 0.4375
vt 0.8333333333333334 0.4375
vt 0.8333333333333334 0.5625
vt 0.7916666666666666 0.5625
vt 0.7910875 0.625
vt 0.6979166666666666 0.625
vt 0.6979166666666666 0.375
vt 0.7910875 0.375
vt 0.8125 0.4375
vt 0.8541666666666666 0.4375
vt 0.8541666666666666 0.5625
vt 0.8125 0.5625
vt 0.9473375 0.625
vt 0.8541666666666666 0.625
vt 0.8541666666666666 0.375
vt 0.9473375 0.375
vt 0.8125 0.5
vt 0.8541666666666666 0.5
vt 0.8541666666666666 0.625
vt 0.8125 0.625
vt 0.7702541666666667 0.625
vt 0.6770833333333334 0.625
vt 0.6770833333333334 0.375
vt 0.7702541666666667 0.375
vt 0.8125 0.625
vt 0.8125 0.375
vt 0.8541666666666666 0.375
vt 0.8541666666666666 0.625
vt 0.8541666666666666 0.625
vt 0.8125 0.625
vt 0.8125 0.34548749999999995
vt 0.8541666666666666 0.34548749999999995
vt 0.7708333333333334 0.3125
vt 0.8541666666666666 0.3125
vt 0.8541666666666666 0.4375
vt 0.7708333333333334 0.4375
vt 0.7916666666666666 0.5625
vt 0.7916666666666666 0.4375
vt 0.8333333333333334 0.4375
vt 0.8333333333333334 0.5625
vt 0.8541666666666666 0.34548749999999995
vt 0.8541666666666666 0.625
vt 0.8125 0.625
vt 0.8125 0.34548749999999995
vt 0.8958333333333334 0.375
vt 0.8958333333333334 0.625
vt 0.8541666666666666 0.625
vt 0.8541666666666666 0.375
vt 0.8125 0.5625
vt 0.8125 0.4375
vt 0.8541666666666666 0.4375
vt 0.8541666666666666 0.5625
vt 0.8541666666666666 0.4375
vt 0.8541666666666666 0.5625
vt 0.8125 0.5625
vt 0.8125 0.4375
vt 0.8541666666666666 0.40798749999999995
vt 0.8541666666666666 0.6875
vt 0.8125 0.6875
vt 0.8125 0.40798749999999995
vt 0.8541666666666666 0.6875
vt 0.8541666666666666 0.4375
vt 0.8958333333333334 0.4375
vt 0.8958333333333334 0.6875
vt 0.8125 0.625
vt 0.8125 0.5
vt 0.8541666666666666 0.5
vt 0.8541666666666666 0.625
vt 0.8333333333333334 0.4375
vt 0.8333333333333334 0.5625
vt 0.7916666666666666 0.5625
vt 0.7916666666666666 0.4375
vt 0.8541666666666666 0.5625
vt 0.7708333333333334 0.5625
vt 0.7708333333333334 0.4375
vt 0.8541666666666666 0.4375
vt 0.8125 0.5625
vt 0.8125 0.4375
vt 0.8541666666666666 0.4375
vt 0.8541666666666666 0.5625
vt 0.8541666666666666 0.5
vt 0.8541666666666666 0.625
vt 0.8125 0.625
vt 0.8125 0.5
vt 0.8541666666666666 0.4375
vt 0.8541666666666666 0.6875
vt 0.8125 0.6875
vt 0.8125 0.4375
vt 0.8541666666666666 0.6875
vt 0.8125 0.6875
vt 0.8125 0.40798749999999995
vt 0.8541666666666666 0.40798749999999995
vt 0.8541666666666666 0.4375
vt 0.8541666666666666 0.5625
vt 0.8125 0.5625
vt 0.8125 0.4375
vt 0.8125 0.625
vt 0.8125 0.375
vt 0.8541666666666666 0.375
vt 0.8541666666666666 0.625
vt 0.7916666666666666 0.5625
vt 0.7916666666666666 0.4375
vt 0.8333333333333334 0.4375
vt 0.8333333333333334 0.5625
vt 0.8541666666666666 0.5625
vt 0.7708333333333334 0.5625
vt 0.7708333333333334 0.4375
vt 0.8541666666666666 0.4375
vt 0.8125 0.5625
vt 0.8125 0.4375
vt 0.8541666666666666 0.4375
vt 0.8541666666666666 0.5625
vt 0.8541666666666666 0.375
vt 0.8541666666666666 0.625
vt 0.8125 0.625
vt 0.8125 0.375
vt 0.8541666666666666 0.4375
vt 0.8541666666666666 0.5625
vt 0.8125 0.5625
vt 0.8125 0.4375
vt 0.875 0.5625
vt 0.7916666666666666 0.5625
vt 0.7916666666666666 0.4375
vt 0.875 0.4375
vt 0.8125 0.625
vt 0.8125 0.5
vt 0.8541666666666666 0.5
vt 0.8541666666666666 0.625
vt 0.8333333333333334 0.4375
vt 0.8333333333333334 0.5625
vt 0.7916666666666666 0.5625
vt 0.7916666666666666 0.4375
vt 0.7708333333333334 0.4375
vt 0.8541666666666666 0.4375
vt 0.8541666666666666 0.5625
vt 0.7708333333333334 0.5625
vt 0.8125 0.5625
vt 0.8125 0.4375
vt 0.8541666666666666 0.4375
vt 0.8541666666666666 0.5625
vt 0.7916666666666666 0.4375
vt 0.875 0.4375
vt 0.875 0.5625
vt 0.7916666666666666 0.5625
vt 0.8541666666666666 0.5
vt 0.8541666666666666 0.625
vt 0.8125 0.625
vt 0.8125 0.5
vt 0.8125 0.5
vt 0.8541666666666666 0.5
vt 0.8541666666666666 0.625
vt 0.8125 0.625
vt 0.8125 0.5
vt 0.8541666666666666 0.5
vt 0.8541666666666666 0.625
vt 0.8125 0.625
vt 0.8125 0.5
vt 0.8541666666666666 0.5
vt 0.8541666666666666 0.625
vt 0.8125 0.625
vt 0.8125 0.5
vt 0.8541666666666666 0.5
vt 0.8541666666666666 0.625
vt 0.8125 0.625
vt 0.8541666666666666 0.625
vt 0.8125 0.625
vt 0.8125 0.375
vt 0.8958333333333334 0.5
vt 0.8125 0.4375
vt 0.8541666666666666 0.4375
vt 0.8541666666666666 0.5625
vt 0.8125 0.5625
vt 0.8541666666666666 0.625
vt 0.8125 0.625
vt 0.7708333333333334 0.5
vt 0.8541666666666666 0.375
vt 0.4895833333333333 0.15625
vt 0.6213458333333334 0.15625
vt 0.6213458333333334 0.28125
vt 0.4895833333333333 0.28125
vt 0.988040625 0.5116149999999999
vt 0.988040625 0.392446875
vt 0.988040625 0.869119375
vt 0.988040625 0.5116149999999999
vt 0.988040625 0.15410999999999997
vt 0.988040625 0.630783125
vt 0.875 0.4375
vt 0.7916666666666666 0.4375
vt 0.7916666666666666 0.3125
vt 0.875 0.3125
vt 0.875 0.625
vt 0.7916666666666666 0.625
vt 0.7916666666666666 0.375
vt 0.875 0.375
vt 0.875 0.625
vt 0.7916666666666666 0.625
vt 0.7916666666666666 0.375
vt 0.875 0.375
vt 0.875 0.625
vt 0.7916666666666666 0.625
vt 0.7916666666666666 0.375
vt 0.875 0.375
vt 0.875 0.625
vt 0.7916666666666666 0.625
vt 0.7916666666666666 0.375
vt 0.875 0.375
vt 0.7916666666666666 0.4375
vt 0.875 0.4375
vt 0.875 0.5625
vt 0.7916666666666666 0.5625
vt 0.8541666666666666 0.4375
vt 0.8541666666666666 0.5625
vt 0.8125 0.5625
vt 0.8125 0.4375
vt 0.5729166666666666 0
vt 0.6354166666666666 0
vt 0.6354166666666666 0.875
vt 0.5729166666666666 0.875
vt 0.5729166666666666 0
vt 0.6354166666666666 0
vt 0.6354166666666666 0.875
vt 0.5729166666666666 0.875
vt 0.3333333333333333 0
vt 0.375 0
vt 0.375 0.875
vt 0.3333333333333333 0.875
vt 0.3854166666666667 0
vt 0.6354166666666666 0
vt 0.6354166666666666 0.5
vt 0.3854166666666667 0.5
vt 0.5729166666666666 0.09375
vt 0.6354166666666666 0.09375
vt 0.6354166666666666 0.96875
vt 0.5729166666666666 0.96875
vt 0.5729166666666666 0.09375
vt 0.6354166666666666 0.09375
vt 0.6354166666666666 0.96875
vt 0.5729166666666666 0.96875
vt 0.625 0
vt 0.6666666666666666 0
vt 0.6666666666666666 0.875
vt 0.625 0.875
vt 0.625 0.84375
vt 0.625 0.96875
vt 0.6666666666666666 0.96875
vt 0.6666666666666666 0.84375
vt 0.3333333333333333 0.84375
vt 0.3333333333333333 0.96875
vt 0.375 0.96875
vt 0.375 0.84375
vt 0.625 0
vt 0.625 0.125
vt 0.6666666666666666 0.125
vt 0.6666666666666666 0
vt 0.3333333333333333 0
vt 0.3333333333333333 0.125
vt 0.375 0.125
vt 0.375 0
vt 0.5 0.96875
vt 0.625 0.96875
vt 0.625 0.84375
vt 0.5416666666666666 0.625
vt 0.5416666666666666 0.625
vt 0.625 0.84375
vt 0.6666666666666666 0.84375
vt 0.6666666666666666 0.5
vt 0.3333333333333333 0.5
vt 0.3333333333333333 0.84375
vt 0.375 0.84375
vt 0.4583333333333333 0.625
vt 0.4583333333333333 0.625
vt 0.375 0.84375
vt 0.375 0.96875
vt 0.5 0.96875
vt 0.6666666666666666 0.5
vt 0.6666666666666666 0.125
vt 0.625 0.125
vt 0.5416666666666666 0.375
vt 0.5416666666666666 0.375
vt 0.625 0.125
vt 0.625 0
vt 0.5 0
vt 0.4583333333333333 0.375
vt 0.375 0.125
vt 0.3333333333333333 0.125
vt 0.3333333333333333 0.5
vt 0.5 0
vt 0.375 0
vt 0.375 0.125
vt 0.4583333333333333 0.375
vt 0.375 0.875
vt 0.3333333333333333 0.875
vt 0.3333333333333333 1
vt 0.375 1
vt 0.6666666666666666 0.875
vt 0.625 0.875
vt 0.625 1
vt 0.6666666666666666 1
vt 0.5 0.875
vt 0.5 1
vt 0.375 1
vt 0.375 0.875
vt 0.5 1
vt 0.5 0.875
vt 0.625 0.875
vt 0.625 1
vt 0.3333333333333333 0
vt 0.375 0
vt 0.375 0.875
vt 0.3333333333333333 0.875
vt 0.3854166666666667 0
vt 0.6354166666666666 0
vt 0.6354166666666666 0.5
vt 0.3854166666666667 0.5
vt 0.625 0
vt 0.6666666666666666 0
vt 0.6666666666666666 0.875
vt 0.625 0.875
vt 0.375 0.875
vt 0.3333333333333333 0.875
vt 0.3333333333333333 1
vt 0.375 1
vt 0.6666666666666666 0.875
vt 0.625 0.875
vt 0.625 1
vt 0.6666666666666666 1
vt 0.5 0.875
vt 0.5 1
vt 0.375 1
vt 0.375 0.875
vt 0.5 1
vt 0.5 0.875
vt 0.625 0.875
vt 0.625 1
vt 0.3333333333333333 0
vt 0.375 0
vt 0.375 0.875
vt 0.3333333333333333 0.875
vt 0.3854166666666667 0
vt 0.6354166666666666 0
vt 0.6354166666666666 0.5
vt 0.3854166666666667 0.5
vt 0.625 0
vt 0.6666666666666666 0
vt 0.6666666666666666 0.875
vt 0.625 0.875
vt 0.375 0.875
vt 0.3333333333333333 0.875
vt 0.3333333333333333 1
vt 0.375 1
vt 0.6666666666666666 0.875
vt 0.625 0.875
vt 0.625 1
vt 0.6666666666666666 1
vt 0.5 0.875
vt 0.5 1
vt 0.375 1
vt 0.375 0.875
vt 0.5 1
vt 0.5 0.875
vt 0.625 0.875
vt 0.625 1
vt 0.3333333333333333 0
vt 0.375 0
vt 0.375 0.875
vt 0.3333333333333333 0.875
vt 0.3854166666666667 0
vt 0.6354166666666666 0
vt 0.6354166666666666 0.5
vt 0.3854166666666667 0.5
vt 0.625 0
vt 0.6666666666666666 0
vt 0.6666666666666666 0.875
vt 0.625 0.875
vn 0 0 -1
vn -1 0 0
vn -1 0 0
vn 0 0 1
vn 0 1 0
vn 0 1 0
vn 0 1 0
vn 0 1 0
vn 0 1 0
vn 0 1 0
vn 0 1 0
vn 0.948683298050514 0 -0.316227766016838
vn 0.316227766016838 0 -0.948683298050514
vn -1 0 0
vn -0.316227766016838 0 -0.948683298050514
vn -0.948683298050514 0 -0.316227766016838
vn 0.316227766016838 0 0.948683298050514
vn 0.948683298050514 0 0.316227766016838
vn -1 0 0
vn -0.948683298050514 0 0.316227766016838
vn 0 1 0
vn -1 0 0
vn 0 1 0
vn 0 1 0
vn 0 1 0
vn 0 1 0
vn -1 0 0
vn 0 1 0
vn 0 1 0
vn 0 1 0
vn 0 0 0
vn 0 0 0
vn 0 0 0
vn 0 0 0
vn 0 0 0
vn 0 0 0
vn 0 0 1
vn 0 0 1
vn -1 0 0
vn 1 0 0
vn -1 0 0
vn 1 0 0
vn 0 0 -1
vn 0 0 -1
vn 0 -1 0
vn 0 1 0
vn 0 -1 0
vn 0 1 0
vn 0 -1 0
vn 0 1 0
vn 0 -1 0
vn 0 1 0
vn 0 1 0
vn 0 -1 0
vn 0 1 0
vn 0 -1 0
vn 0 1 0
vn 0 1 0
vn 0 0 -1
vn -0.44721359549995804 0 0.8944271909999161
vn 1 0 0
vn -0.8944271909999161 0 0.44721359549995804
vn 0 0 -1
vn 0.44721359549995804 0 0.8944271909999161
vn -1 0 0
vn 0.8944271909999161 0 0.44721359549995804
vn 0 0 1
vn -0.44721359549995804 0 -0.8944271909999161
vn 1 0 0
vn -0.8944271909999161 0 -0.44721359549995804
vn -1 0 0
vn 0.8944271909999161 0 -0.44721359549995804
vn 0 0 1
vn 0.44721359549995804 0 -0.8944271909999161
vn 0 1 0
vn 0 -0.8944271909999161 0.44721359549995804
vn 0 1 0
vn 1 0 0
vn 0 -0.8944271909999161 0.44721359549995804
vn 0 1 0
vn 0 0 -1
vn -1 0 0
vn 0 -0.8944271909999161 -0.44721359549995804
vn 0 1 0
vn 0 0 1
vn 1 0 0
vn 0 1 0
vn -1 0 0
vn 0 0 1
vn 0 1 0
vn 0 -0.8944271909999161 -0.44721359549995804
vn 0 0 -1
vn 0 -1 0
vn 1 0 0
vn 0 -1 0
vn 0 0 -1
vn 0 -1 0
vn -1 0 0
vn 0 -1 0
vn 0 0 1
vn 1 0 0
vn 0 -1 0
vn -1 0 0
vn 0 -1 0
vn 0 0 1
vn 0 1 0
vn 0 1 0
vn 0 1 0
vn 0 1 0
vn 0 -1 0
vn 1 0 0
vn 0 -1 0
vn -0.316227766016838 0 0.948683298050514
vn 0 0 0
vn 0 0 0
vn 0 1 0
vn 1 0 0
vn 0 0 1
vn -1 0 0
vn 0 0 -1
vn 0 1 0
vn 0 0 -1
vn 0 0 1
vn 1 0 0
vn -1 0 0
vn -1 0 0
vn 1 0 0
vn 0 0 -1
vn -1 0 0
vn 0 -1 0
vn 0 -1 0
vn 0 -1 0
vn 0 -1 0
vn 0 -1 0
vn 0 -1 0
vn 0 -1 0
vn 0 -1 0
vn 0 -1 0
vn 0 -1 0
vn 0 -1 0
vn 0 -1 0
vn 0 0 1
vn 0 0 1
vn 0 0 1
vn 0 0 1
vn 0 0 1
vn 0 0 1
vn 0 0 1
vn 1 0 0
vn 1 0 0
vn 1 0 0
vn 1 0 0
vn 1 0 0
vn 1 0 0
vn 1 0 0
vn 0 0 -1
vn 0 0 -1
vn 0 0 -1
vn 0 0 -1
vn 0 0 -1
vn 0 0 -1
vn 0 0 -1
usemtl m_f2ef69d7-7076-1d63-7804-b1fa02a88cae
f 5/5/2 7/6/2 8/7/2 6/8/2
f 7/9/3 9/10/3 10/11/3 8/12/3
f 11/13/4 13/14/4 14/15/4 12/16/4
f 13/17/5 15/18/5 16/19/5 14/20/5
f 17/21/6 18/22/6 19/23/6 20/24/6
f 21/25/7 22/26/7 23/27/7 24/28/7
f 30/29/8 31/30/8 41/31/8 40/32/8
f 40/33/9 41/34/9 46/35/9 45/36/9
f 37/37/10 169/38/10 50/39/10 32/40/10
f 56/41/11 57/42/11 58/43/11 59/44/11
f 60/45/12 61/46/12 62/47/12 63/48/12
f 194/49/13 199/50/13 64/51/13 65/52/13
f 199/53/14 201/54/14 68/55/14 64/56/14
f 200/57/15 202/58/15 17/59/15 20/60/15
f 187/61/16 193/62/16 66/63/16 69/64/16
f 193/65/17 194/66/17 65/67/17 66/68/17
f 201/69/18 205/70/18 67/71/18 68/72/18
f 205/73/19 190/74/19 71/75/19 67/76/19
f 207/77/20 204/78/20 56/79/20 59/80/20
f 190/81/21 186/82/21 70/83/21 71/84/21
f 19/85/22 18/86/22 65/87/22 64/88/22
f 200/89/23 20/90/23 68/91/23 201/92/23
f 20/93/24 19/94/24 64/95/24 68/96/24
f 24/97/25 23/98/25 69/99/25 66/100/25
f 21/101/26 24/102/26 66/103/26 65/104/26
f 57/105/27 56/106/27 68/107/27 67/108/27
f 56/109/28 204/110/28 201/111/28 68/112/28
f 58/113/29 57/114/29 67/115/29 71/116/29
f 61/117/30 60/118/30 70/119/30 69/120/30
f 60/121/31 63/122/31 71/123/31 70/124/31
f 26/143/38 27/144/38 35/145/38 33/146/38
f 27/147/39 28/148/39 36/149/39 35/150/39
f 41/151/40 31/152/40 34/153/40 42/154/40
f 39/155/41 44/156/41 43/157/41 38/158/41
f 46/159/42 41/160/42 42/161/42 47/162/42
f 44/163/43 167/164/43 170/165/43 43/166/43
f 54/167/44 53/168/44 49/169/44 51/170/44
f 55/171/45 54/172/45 51/173/45 52/174/45
f 25/175/46 26/176/46 81/177/46 80/178/46
f 95/179/47 96/180/47 97/181/47 98/182/47
f 31/183/48 25/184/48 80/185/48 82/186/48
f 96/187/49 99/188/49 100/189/49 97/190/49
f 28/191/50 29/192/50 84/193/50 83/194/50
f 104/195/51 105/196/51 106/197/51 107/198/51
f 29/199/52 39/200/52 85/201/52 84/202/52
f 114/203/53 104/204/53 107/205/53 115/206/53
f 116/207/54 117/208/54 118/209/54 119/210/54
f 48/211/55 46/212/55 88/213/55 87/214/55
f 125/215/56 116/216/56 119/217/56 126/218/56
f 167/219/57 168/220/57 90/221/57 89/222/57
f 127/223/58 128/224/58 129/225/58 130/226/58
f 136/227/59 127/228/59 130/229/59 137/230/59
f 33/231/60 32/232/60 96/233/60 95/234/60
f 98/235/61 97/236/61 80/237/61 81/238/61
f 32/239/62 34/240/62 99/241/62 96/242/62
f 97/243/63 100/244/63 82/245/63 80/246/63
f 37/247/64 36/248/64 105/249/64 104/250/64
f 107/251/65 106/252/65 83/253/65 84/254/65
f 38/255/66 37/256/66 104/257/66 114/258/66
f 115/259/67 107/260/67 84/261/67 85/262/67
f 50/263/68 49/264/68 117/265/68 116/266/68
f 119/267/69 118/268/69 86/269/69 87/270/69
f 47/271/70 50/272/70 116/273/70 125/274/70
f 126/275/71 119/276/71 87/277/71 88/278/71
f 169/279/72 170/280/72 128/281/72 127/282/72
f 130/283/73 129/284/73 89/285/73 90/286/73
f 52/287/74 169/288/74 127/289/74 136/290/74
f 137/291/75 130/292/75 90/293/75 91/294/75
f 95/295/76 98/296/76 140/297/76 139/298/76
f 140/299/77 98/300/77 33/301/77 138/302/77
f 100/303/78 99/304/78 143/305/78 142/306/78
f 99/307/79 34/308/79 141/309/79 143/310/79
f 36/311/80 106/312/80 145/313/80 144/314/80
f 106/315/81 105/316/81 146/317/81 145/318/81
f 105/319/82 36/320/82 144/321/82 146/322/82
f 38/323/83 114/324/83 148/325/83 147/326/83
f 49/327/84 118/328/84 150/329/84 149/330/84
f 118/331/85 117/332/85 151/333/85 150/334/85
f 117/335/86 49/336/86 149/337/86 151/338/86
f 47/339/87 125/340/87 153/341/87 152/342/87
f 125/343/88 126/344/88 154/345/88 153/346/88
f 128/347/89 170/348/89 155/349/89 157/350/89
f 52/351/90 136/352/90 159/353/90 158/354/90
f 136/355/91 137/356/91 160/357/91 159/358/91
f 160/359/92 137/360/92 52/361/92 158/362/92
f 26/363/93 33/364/93 93/365/93 92/366/93
f 81/367/94 26/368/94 92/369/94 94/370/94
f 34/371/95 31/372/95 102/373/95 101/374/95
f 31/375/96 82/376/96 103/377/96 102/378/96
f 36/379/97 28/380/97 109/381/97 108/382/97
f 28/383/98 83/384/98 110/385/98 109/386/98
f 39/387/99 38/388/99 112/389/99 111/390/99
f 85/391/100 39/392/100 111/393/100 113/394/100
f 49/395/101 53/396/101 121/397/101 120/398/101
f 46/399/102 47/400/102 123/401/102 122/402/102
f 88/403/103 46/404/103 122/405/103 124/406/103
f 170/407/104 167/408/104 132/409/104 131/410/104
f 167/411/105 89/412/105 133/413/105 132/414/105
f 55/415/106 52/416/106 135/417/106 134/418/106
f 53/419/107 54/420/107 162/421/107 161/422/107
f 54/423/108 55/424/108 163/425/108 162/426/108
f 161/427/109 162/428/109 165/429/109 164/430/109
f 162/431/110 163/432/110 166/433/110 165/434/110
f 168/435/111 55/436/111 91/437/111 90/438/111
f 167/439/112 168/440/112 169/441/112 170/442/112
f 53/443/113 48/444/113 87/445/113 86/446/113
f 186/447/114 187/448/114 69/449/114 70/450/114
f 129/457/117 128/458/117 157/459/117 156/460/117
f 129/461/118 115/462/118 85/463/118 89/464/118
f 106/465/119 98/466/119 81/467/119 83/468/119
f 100/469/120 126/470/120 88/471/120 82/472/120
f 118/473/121 137/474/121 91/475/121 86/476/121
f 114/477/122 115/478/122 171/479/122 148/480/122
f 33/481/123 95/482/123 139/483/123 138/484/123
f 172/485/124 173/486/124 203/487/124 204/488/124
f 173/489/125 174/490/125 206/491/125 203/492/125
f 175/493/126 172/494/126 204/495/126 207/496/126
f 178/497/127 179/498/127 176/499/127 177/500/127
f 180/501/128 181/502/128 197/503/128 198/504/128
f 181/505/129 182/506/129 200/507/129 197/508/129
f 182/509/130 183/510/130 202/511/130 200/512/130
f 197/513/131 198/514/131 202/515/131 200/516/131
f 195/517/132 196/518/132 191/519/132 192/520/132
f 206/521/133 203/522/133 204/523/133 207/524/133
f 188/525/134 184/526/134 185/527/134 189/528/134
f 194/529/135 198/530/135 197/531/135 199/532/135
f 199/533/136 197/534/136 200/535/136 201/536/136
f 187/537/137 195/538/137 192/539/137 193/540/137
f 193/541/138 192/542/138 191/543/138 194/544/138
f 201/545/139 204/546/139 203/547/139 205/548/139
f 205/549/140 203/550/140 206/551/140 190/552/140
f 186/553/141 185/554/141 184/555/141 187/556/141
f 190/557/142 189/558/142 185/559/142 186/560/142
f 208/561/143 228/562/143 229/563/143 209/564/143
f 214/565/144 213/566/144 212/567/144 215/568/144
f 208/569/145 209/570/145 210/571/145 211/572/145
f 212/573/146 213/574/146 211/575/146 210/576/146
f 216/577/147 217/578/147 218/579/147 219/580/147
f 220/581/148 221/582/148 222/583/148 223/584/148
f 224/585/149 225/586/149 226/587/149 227/588/149
f 230/589/150 250/590/150 251/591/150 231/592/150
f 236/593/151 235/594/151 234/595/151 237/596/151
f 230/597/152 231/598/152 232/599/152 233/600/152
f 234/601/153 235/602/153 233/603/153 232/604/153
f 238/605/154 239/606/154 240/607/154 241/608/154
f 242/609/155 243/610/155 244/611/155 245/612/155
f 246/613/156 247/614/156 248/615/156 249/616/156
f 252/617/157 272/618/157 273/619/157 253/620/157
f 258/621/158 257/622/158 256/623/158 259/624/158
f 252/625/159 253/626/159 254/627/159 255/628/159
f 256/629/160 257/630/160 255/631/160 254/632/160
f 260/633/161 261/634/161 262/635/161 263/636/161
f 264/637/162 265/638/162 266/639/162 267/640/162
f 268/641/163 269/642/163 270/643/163 271/644/163
o middle
v -0.5 0.5 -0.5
v 0.5 0.5 -0.5
v -0.5 0.5 0.5
v 0.5 0.5 0.5
vt 0.6458333333333334 0.0625
vt 0.6458333333333334 0.9375
vt 0.34375 0.9375
vt 0.34375 0.0625
vn 0 1 0
usemtl m_f2ef69d7-7076-1d63-7804-b1fa02a88cae
f 277/645/164 275/646/164 274/647/164 276/648/164