# Made in Blockbench 5.1.6
mtllib MagmaticSmeltery.mtl

o dingus
v -0.1 0.2 -0.4
v 0.1 0.2 -0.4
v -0.1 0.2 -0.3
v 0.1 0.2 -0.3
v -0.2 0.2 -0.2
v -0.1 0.2 -0.2
v -0.1 0.075 -0.3
v -0.1 0.075 -0.2
v 0.1 0.075 -0.3
v 0.1 0.075 -0.2
v 0.2 0.2 -0.2
v 0.1 0.2 -0.2
v -0.3 0.2 -0.1
v -0.2 0.2 -0.1
v -0.2 0.075 -0.2
v -0.1 0.075 -0.2
v -0.2 0.075 -0.1
v 0.1 0.075 -0.2
v 0.2 0.075 -0.2
v 0.2 0.075 -0.1
v 0.3 0.2 -0.1
v 0.2 0.2 -0.1
v -0.3 0.075 -0.1
v -0.2 0.075 -0.1
v 0.2 0.075 -0.1
v 0.3 0.075 -0.1
v -0.3 0.2 0.1
v -0.2 0.075 0.1
v -0.3 0.075 0.1
v -0.2 0.075 0.1
v 0.2 0.075 0.1
v 0.3 0.075 0.1
v 0.2 0.075 0.1
v 0.3 0.2 0.1
v -0.2 0.2 0.1
v -0.2 0.2 0.2
v -0.1 0.075 0.2
v -0.2 0.075 0.2
v 0.1 0.075 0.2
v 0.2 0.075 0.2
v 0.2 0.2 0.1
v 0.2 0.2 0.2
v -0.1 0.2 0.2
v -0.1 0.2 0.3
v -0.1 0.075 0.2
v -0.1 0.075 0.3
v 0.1 0.075 0.2
v 0.1 0.075 0.3
v 0.1 0.2 0.2
v 0.1 0.2 0.3
v 0.4 0.2 -0.1
v 0.4 0.2 0.1
v -0.4 0.2 -0.1
v -0.4 0.2 0.1
v -0.3 0.2 -0.3
v -0.1 0.075 -0.4
v -0.3 0.075 -0.3
v -0.4 0.075 -0.1
v 0.3 0.2 -0.3
v 0.3 0.075 -0.3
v 0.1 0.075 -0.4
v 0.4 0.075 -0.1
v -0.1 0.2 0.4
v -0.3 0.2 0.3
v -0.3 0.075 0.3
v -0.1 0.075 0.4
v -0.4 0.075 0.1
v 0.3 0.2 0.3
v 0.3 0.075 0.3
v 0.4 0.075 0.1
v 0.1 0.2 0.4
v 0.1 0.075 0.4
vt 0.7311010416666667 0.608275625
vt 0.7320039583333333 0.41426375000000004
vt 0.764339375 0.41561875000000004
vt 0.7634362499999999 0.60963
vt 0.8599904166666666 0.710699375
vt 0.8595389583333333 0.807705
vt 0.7948685416666667 0.80499625
vt 0.7953199999999999 0.70799
vt 0.8622479166666667 0.225670625
vt 0.8617964583333334 0.32267625
vt 0.7971260416666667 0.31996749999999996
vt 0.7975775 0.22296187499999998
vt 0.7647908333333334 0.31861312500000005
vt 0.8941316666666667 0.32403125
vt 0.8923256249999999 0.7120537499999999
vt 0.7629847916666667 0.706635625
vt 0.8927772916666666 0.615048125
vt 0.8936802083333334 0.421036875
vt 0.9260154166666666 0.42239125
vt 0.9251125 0.6164025
vt 0.7083333333333334 0.9375
vt 0.78125 0.9375
vt 0.78125 0.8125
vt 0.7083333333333334 0.8125
vt 0.7083333333333334 0.9375
vt 0.78125 0.9375
vt 0.78125 0.8125
vt 0.7083333333333334 0.8125
vt 0.6875 0.9375
vt 0.7604166666666666 0.9375
vt 0.7604166666666666 0.8125
vt 0.6875 0.8125
vt 0.6875 0.9375
vt 0.7604166666666666 0.9375
vt 0.7604166666666666 0.8125
vt 0.6875 0.8125
vt 0.7083333333333334 0.9375
vt 0.78125 0.9375
vt 0.78125 0.8125
vt 0.7083333333333334 0.8125
vt 0.7083333333333334 0.9375
vt 0.78125 0.9375
vt 0.78125 0.8125
vt 0.7083333333333334 0.8125
vt 0.6875 0.9375
vt 0.7604166666666666 0.9375
vt 0.7604166666666666 0.8125
vt 0.6875 0.8125
vt 0.6875 0.9375
vt 0.7604166666666666 0.9375
vt 0.7604166666666666 0.8125
vt 0.6875 0.8125
vt 0.052077708333333333 0.90625
vt 0.057286250000000004 0.90625
vt 0.057286250000000004 0.90625
vt 0.052077708333333333 0.90625
vt 0.78125 0.9375
vt 0.78125 0.8125
vt 0.71875 0.8125
vt 0.71875 0.9375
vt 0.7634362499999999 0.60963
vt 0.7629847916666667 0.706635625
vt 0.7301979166666667 0.8022868750000001
vt 0.6987658333333333 0.606920625
vt 0.052077708333333333 0.921875
vt 0.052077708333333333 0.90625
vt 0.052077708333333333 0.90625
vt 0.052077708333333333 0.921875
vt 0.7629847916666667 0.706635625
vt 0.7953199999999999 0.70799
vt 0.794416875 0.902001875
vt 0.7301979166666667 0.8022868750000001
vt 0.71875 0.8125
vt 0.71875 0.9375
vt 0.78125 0.9375
vt 0.78125 0.8125
vt 0.06770291666666667 0.90625
vt 0.07291125 0.90625
vt 0.07291125 0.90625
vt 0.06770291666666667 0.90625
vt 0.7647908333333334 0.31861312500000005
vt 0.764339375 0.41561875000000004
vt 0.69966875 0.412909375
vt 0.7329070833333334 0.22025249999999996
vt 0.6979166666666666 0.8125
vt 0.6979166666666666 0.9375
vt 0.7604166666666666 0.9375
vt 0.7604166666666666 0.8125
vt 0.07291125 0.90625
vt 0.07291125 0.921875
vt 0.07291125 0.921875
vt 0.07291125 0.90625
vt 0.7604166666666666 0.9375
vt 0.7604166666666666 0.8125
vt 0.6979166666666666 0.8125
vt 0.6979166666666666 0.9375
vt 0.7971260416666667 0.31996749999999996
vt 0.7647908333333334 0.31861312500000005
vt 0.7329070833333334 0.22025249999999996
vt 0.7980291666666667 0.12595625
vt 0.057286250000000004 0.96875
vt 0.052077708333333333 0.96875
vt 0.052077708333333333 0.96875
vt 0.057286250000000004 0.96875
vt 0.8923256249999999 0.7120537499999999
vt 0.8927772916666666 0.615048125
vt 0.9574477083333334 0.6177575
vt 0.9242093750000001 0.810414375
vt 0.6875 0.8125
vt 0.6875 0.9375
vt 0.75 0.9375
vt 0.75 0.8125
vt 0.052077708333333333 0.96875
vt 0.052077708333333333 0.953125
vt 0.052077708333333333 0.953125
vt 0.052077708333333333 0.96875
vt 0.78125 0.9375
vt 0.78125 0.8125
vt 0.71875 0.8125
vt 0.71875 0.9375
vt 0.8599904166666666 0.710699375
vt 0.8923256249999999 0.7120537499999999
vt 0.9242093750000001 0.810414375
vt 0.8590874999999999 0.904710625
vt 0.07291125 0.953125
vt 0.07291125 0.96875
vt 0.07291125 0.96875
vt 0.07291125 0.953125
vt 0.8941316666666667 0.32403125
vt 0.8617964583333334 0.32267625
vt 0.8626995833333333 0.12866500000000003
vt 0.9269185416666667 0.22838000000000003
vt 0.6979166666666666 0.8125
vt 0.6979166666666666 0.9375
vt 0.7604166666666666 0.9375
vt 0.7604166666666666 0.8125
vt 0.07291125 0.96875
vt 0.06770291666666667 0.96875
vt 0.06770291666666667 0.96875
vt 0.07291125 0.96875
vt 0.78125 0.9375
vt 0.78125 0.8125
vt 0.71875 0.8125
vt 0.71875 0.9375
vt 0.8936802083333334 0.421036875
vt 0.8941316666666667 0.32403125
vt 0.9269185416666667 0.22838000000000003
vt 0.958350625 0.423745625
vt 0.057286250000000004 0.90625
vt 0.057286250000000004 0.890625
vt 0.057286250000000004 0.890625
vt 0.057286250000000004 0.90625
vt 0.71875 0.9375
vt 0.78125 0.9375
vt 0.78125 0.8125
vt 0.71875 0.8125
vt 0.06770291666666667 0.890625
vt 0.06770291666666667 0.90625
vt 0.06770291666666667 0.90625
vt 0.06770291666666667 0.890625
vt 0.06770291666666667 0.90625
vt 0.06770291666666667 0.90625
vt 0.057286250000000004 0.90625
vt 0.057286250000000004 0.90625
vt 0.046869375 0.921875
vt 0.052077708333333333 0.921875
vt 0.052077708333333333 0.921875
vt 0.046869375 0.921875
vt 0.052077708333333333 0.921875
vt 0.07811958333333334 0.921875
vt 0.07811958333333334 0.921875
vt 0.052077708333333333 0.921875
vt 0.07811958333333334 0.921875
vt 0.07811958333333334 0.9375
vt 0.07811958333333334 0.9375
vt 0.07811958333333334 0.921875
vt 0.71875 0.8125
vt 0.71875 0.9375
vt 0.78125 0.9375
vt 0.78125 0.8125
vt 0.052077708333333333 0.9375
vt 0.052077708333333333 0.953125
vt 0.052077708333333333 0.953125
vt 0.052077708333333333 0.9375
vt 0.71875 0.9375
vt 0.78125 0.9375
vt 0.78125 0.8125
vt 0.71875 0.8125
vt 0.07811958333333334 0.953125
vt 0.07291125 0.953125
vt 0.07291125 0.953125
vt 0.07811958333333334 0.953125
vt 0.07291125 0.953125
vt 0.07291125 0.953125
vt 0.046869375 0.9375
vt 0.046869375 0.9375
vt 0.057286250000000004 0.984375
vt 0.057286250000000004 0.96875
vt 0.057286250000000004 0.96875
vt 0.057286250000000004 0.984375
vt 0.057286250000000004 0.96875
vt 0.06770291666666667 0.96875
vt 0.06770291666666667 0.96875
vt 0.057286250000000004 0.96875
vt 0.06770291666666667 0.96875
vt 0.06770291666666667 0.984375
vt 0.06770291666666667 0.984375
vt 0.06770291666666667 0.96875
vt 0.71875 0.8125
vt 0.71875 0.9375
vt 0.78125 0.9375
vt 0.78125 0.8125
vn 0 -1 0
vn 0 -1 0
vn 0 -1 0
vn 0 -1 0
vn 0 -1 0
vn -0.4472135954999581 0 -0.8944271909999159
vn -0.8944271909999159 0 -0.4472135954999581
vn 0.4472135954999581 0 -0.8944271909999159
vn 0.8944271909999159 0 -0.4472135954999581
vn -0.4472135954999581 0 0.8944271909999159
vn -0.8944271909999159 0 0.4472135954999581
vn 0.8944271909999159 0 0.4472135954999581
vn 0.4472135954999581 0 0.8944271909999159
vn 0 1 0
vn 1 0 0
vn 0 -1 0
vn 0 1 0
vn 0 -1 0
vn 0 0 1
vn 0 1 0
vn 0 -1 0
vn -1 0 0
vn 0 1 0
vn 0 0 1
vn 0 -1 0
vn 0 1 0
vn 0 -1 0
vn 1 0 0
vn 0 1 0
vn 0 0 -1
vn 0 -1 0
vn 0 1 0
vn 0 -1 0
vn 0 0 -1
vn 0 1 0
vn -1 0 0
vn 0 -1 0
vn -1 0 0
vn 0 0 -1
vn 1 0 0
vn 0 0 1
vn 0 0 -1
vn 1 0 0
vn 0 0 1
vn -1 0 0
vn 0 0 -1
vn 1 0 0
vn 0 0 1
vn -1 0 0
vn -1 0 0
vn 0 0 -1
vn 1 0 0
vn 0 0 1
usemtl m_cdb58b3e-8da2-8a25-0c37-1320fc7bf8d6
f 7/1/1 9/2/1 10/3/1 8/4/1
f 28/5/2 29/6/2 23/7/2 24/8/2
f 32/9/3 33/10/3 25/11/3 26/12/3
f 19/13/4 40/14/4 38/15/4 15/16/4
f 45/17/5 47/18/5 48/19/5 46/20/5
f 55/21/6 1/22/6 56/23/6 57/24/6
f 53/25/7 55/26/7 57/27/7 58/28/7
f 2/29/8 59/30/8 60/31/8 61/32/8
f 59/33/9 51/34/9 62/35/9 60/36/9
f 63/37/10 64/38/10 65/39/10 66/40/10
f 64/41/11 54/42/11 67/43/11 65/44/11
f 52/45/12 68/46/12 69/47/12 70/48/12
f 68/49/13 71/50/13 72/51/13 69/52/13
f 5/53/14 6/54/14 1/55/14 55/56/14
f 6/57/15 16/58/15 56/59/15 1/60/15
f 16/61/16 15/62/16 57/63/16 56/64/16
f 14/65/17 5/66/17 55/67/17 53/68/17
f 15/69/18 17/70/18 58/71/18 57/72/18
f 17/73/19 14/74/19 53/75/19 58/76/19
f 12/77/20 11/78/20 59/79/20 2/80/20
f 19/81/21 18/82/21 61/83/21 60/84/21
f 18/85/22 12/86/22 2/87/22 61/88/22
f 11/89/23 22/90/23 51/91/23 59/92/23
f 22/93/24 20/94/24 62/95/24 51/96/24
f 20/97/25 19/98/25 60/99/25 62/100/25
f 43/101/26 36/102/26 64/103/26 63/104/26
f 38/105/27 37/106/27 66/107/27 65/108/27
f 37/109/28 43/110/28 63/111/28 66/112/28
f 36/113/29 35/114/29 54/115/29 64/116/29
f 35/117/30 30/118/30 67/119/30 54/120/30
f 30/121/31 38/122/31 65/123/31 67/124/31
f 41/125/32 42/126/32 68/127/32 52/128/32
f 40/129/33 31/130/33 70/131/33 69/132/33
f 31/133/34 41/134/34 52/135/34 70/136/34
f 42/137/35 49/138/35 71/139/35 68/140/35
f 49/141/36 39/142/36 72/143/36 71/144/36
f 39/145/37 40/146/37 69/147/37 72/148/37
f 6/149/38 3/150/38 7/151/38 8/152/38
f 3/153/39 4/154/39 9/155/39 7/156/39
f 4/157/40 12/158/40 10/159/40 9/160/40
f 10/161/41 12/162/41 6/163/41 8/164/41
f 13/165/42 14/166/42 24/167/42 23/168/42
f 14/169/43 35/170/43 28/171/43 24/172/43
f 35/173/44 27/174/44 29/175/44 28/176/44
f 29/177/45 27/178/45 13/179/45 23/180/45
f 22/181/46 21/182/46 26/183/46 25/184/46
f 21/185/47 34/186/47 32/187/47 26/188/47
f 34/189/48 41/190/48 33/191/48 32/192/48
f 33/193/49 41/194/49 22/195/49 25/196/49
f 44/197/50 43/198/50 45/199/50 46/200/50
f 43/201/51 49/202/51 47/203/51 45/204/51
f 49/205/52 50/206/52 48/207/52 47/208/52
f 48/209/53 50/210/53 44/211/53 46/212/53
o side4
v -0.1 0.2 -0.4
v -0.3 0.2 -0.4
v -0.3 0.41875 -0.4
v -0.1 0.41875 -0.4
v 0.3 0.2 -0.4
v 0.1 0.2 -0.4
v 0.1 0.41875 -0.4
v 0.3 0.41875 -0.4
v 0.3 0.7999999999999999 -0.4
v 0.1 0.7999999999999999 -0.4
v 0.1 1 -0.4
v 0.3 1 -0.4
v -0.10000000000000003 0.7999999999999999 -0.4
v -0.30000000000000004 0.7999999999999999 -0.4
v -0.30000000000000004 1 -0.4
v -0.10000000000000003 1 -0.4
vt 0.3645833333333333 0.24375000000000002
vt 0.43124999999999997 0.24375000000000002
vt 0.43124999999999997 0.625
vt 0.3645833333333333 0.625
vt 0.5729166666666666 0.25
vt 0.6354166666666666 0.25
vt 0.6354166666666666 0.625
vt 0.5729166666666666 0.625
vt 0.3541666666666667 0.78125
vt 0.42083333333333334 0.78125
vt 0.42083333333333334 1
vt 0.3541666666666667 1
vt 0.5833333333333334 0.78125
vt 0.65 0.78125
vt 0.65 1
vt 0.5833333333333334 1
vt 0.3541666666666667 1
vt 0.42083333333333334 1
vt 0.42083333333333334 0.78125
vt 0.3541666666666667 0.78125
vt 0.65 1
vt 0.5833333333333334 1
vt 0.5833333333333334 0.78125
vt 0.65 0.78125
vn 0 0 -1
vn 0 0 -1
vn 0 0 -1
vn 0 0 -1
vn 0 0 -1
vn 0 0 -1
usemtl m_cdb58b3e-8da2-8a25-0c37-1320fc7bf8d6
f 80/213/54 79/214/54 82/215/54 81/216/54
f 76/217/55 75/218/55 86/219/55 85/220/55
f 77/221/56 78/222/56 79/223/56 80/224/56
f 73/225/57 74/226/57 75/227/57 76/228/57
f 81/229/58 82/230/58 83/231/58 84/232/58
f 85/233/59 86/234/59 87/235/59 88/236/59
o side1
v 0.4 0.2 -0.1
v 0.4 0.2 -0.3
v 0.4 0.41875 -0.3
v 0.4 0.41875 -0.1
v 0.4 0.2 0.3
v 0.4 0.2 0.1
v 0.4 0.41875 0.1
v 0.4 0.41875 0.3
v 0.4 0.7999999999999999 -0.10000000000000003
v 0.4 0.7999999999999999 -0.30000000000000004
v 0.4 1 -0.30000000000000004
v 0.4 1 -0.10000000000000003
v 0.4 0.7999999999999999 0.3
v 0.4 0.7999999999999999 0.1
v 0.4 1 0.1
v 0.4 1 0.3
vt 0.3645833333333333 0.24375000000000002
vt 0.43124999999999997 0.24375000000000002
vt 0.43124999999999997 0.625
vt 0.3645833333333333 0.625
vt 0.5729166666666666 0.25
vt 0.6354166666666666 0.25
vt 0.6354166666666666 0.625
vt 0.5729166666666666 0.625
vt 0.3541666666666667 0.78125
vt 0.42083333333333334 0.78125
vt 0.42083333333333334 1
vt 0.3541666666666667 1
vt 0.5833333333333334 0.78125
vt 0.65 0.78125
vt 0.65 1
vt 0.5833333333333334 1
vt 0.3541666666666667 1
vt 0.42083333333333334 1
vt 0.42083333333333334 0.78125
vt 0.3541666666666667 0.78125
vt 0.65 1
vt 0.5833333333333334 1
vt 0.5833333333333334 0.78125
vt 0.65 0.78125
vn 1 0 0
vn 1 0 0
vn 1 0 0
vn 1 0 0
vn 1 0 0
vn 1 0 0
usemtl m_cdb58b3e-8da2-8a25-0c37-1320fc7bf8d6
f 96/237/60 95/238/60 102/239/60 101/240/60
f 92/241/61 91/242/61 98/243/61 97/244/61
f 93/245/62 94/246/62 95/247/62 96/248/62
f 89/249/63 90/250/63 91/251/63 92/252/63
f 101/253/64 102/254/64 103/255/64 104/256/64
f 97/257/65 98/258/65 99/259/65 100/260/65
o up
v 0.4 1 0.4
v 0.4 1 -0.39999999999999997
v -0.39999999999999997 1 0.4
v -0.39999999999999997 1 -0.39999999999999997
vt 0.3020833333333333 0.09375
vt 0.3020833333333333 0.90625
vt 0.03125 0.90625
vt 0.03125 0.09375
vn 0 1 0
usemtl m_cdb58b3e-8da2-8a25-0c37-1320fc7bf8d6
f 105/261/66 106/262/66 108/263/66 107/264/66
o down
v 0.4 0.203125 0.4
v 0.4 0.203125 -0.39999999999999997
v -0.39999999999999997 0.203125 0.4
v -0.39999999999999997 0.203125 -0.39999999999999997
vt 0.03125 0.90625
vt 0.29791666666666666 0.90625
vt 0.29791666666666666 0.10624999999999996
vt 0.03125 0.10624999999999996
vn 0 -1 0
usemtl m_cdb58b3e-8da2-8a25-0c37-1320fc7bf8d6
f 112/265/67 110/266/67 109/267/67 111/268/67
o column3
v -0.4 1 0.1
v -0.4 0.7999999999999999 0.1
v -0.525 0.7999999999999999 0
v -0.4 1 0
v -0.4 0.7999999999999999 -0.09999999999999998
v -0.4 1 -0.09999999999999998
v -0.4 0.5 0.1
v -0.525 0.5 0
v -0.4 0.5 -0.09999999999999998
v -0.4 0.6 0.1
v -0.525 0.6 0
v -0.4 0.6 -0.09999999999999998
v -0.4 0.7 0.1
v -0.525 0.7 0
v -0.4 0.7 -0.09999999999999998
v -0.525 0.7 0
v -0.4 0.3999999999999999 0.1
v -0.4 0.19999999999999996 0.1
v -0.525 0.3999999999999999 0
v -0.4 0.19999999999999996 0
v -0.4 0.19999999999999996 -0.09999999999999998
v -0.4 0.3999999999999999 -0.09999999999999998
vt 0.48872895833333335 0.7561925
vt 0.4373329166666667 0.7662275000000001
vt 0.4359677083333333 0.936365
vt 0.460918125 0.9609375
vt 0.563208125 0.942299375
vt 0.5618697916666667 0.764371875
vt 0.5114885416666667 0.7538775
vt 0.5387502083333333 0.9679975
vt 0.5 0.125
vt 0.4479166666666667 0.125
vt 0.4479166666666667 0.21875
vt 0.5 0.21875
vt 0.5520833333333334 0.125
vt 0.5 0.125
vt 0.5 0.21875
vt 0.5520833333333334 0.21875
vt 0.5 0.21875
vt 0.4479166666666667 0.21875
vt 0.4479166666666667 0.3125
vt 0.5 0.3125
vt 0.5520833333333334 0.21875
vt 0.5 0.21875
vt 0.5 0.3125
vt 0.5520833333333334 0.3125
vt 0.5 0.3125
vt 0.4479166666666667 0.3125
vt 0.4479166666666667 0.40625
vt 0.5 0.40625
vt 0.5520833333333334 0.3125
vt 0.5 0.3125
vt 0.5 0.40625
vt 0.5520833333333334 0.40625
vt 0.5520833333333334 0.40625
vt 0.5 0.40625
vt 0.5 0.5
vt 0.5520833333333334 0.5
vt 0.5 0.40625
vt 0.4479166666666667 0.40625
vt 0.4479166666666667 0.5
vt 0.5 0.5
vt 0.4359677083333333 0.936365
vt 0.4373329166666667 0.7662275000000001
vt 0.48872895833333335 0.7561925
vt 0.460918125 0.9609375
vt 0.5114885416666667 0.7538775
vt 0.5618697916666667 0.764371875
vt 0.563208125 0.942299375
vt 0.5387502083333333 0.9679975
vn -0.6246950475544244 0 0.7808688094430304
vn -0.6246950475544242 0 -0.7808688094430304
vn -0.6246950475544243 0 0.7808688094430304
vn -0.6246950475544242 0 -0.7808688094430304
vn -0.6246950475544244 0 0.7808688094430305
vn -0.6246950475544242 0 -0.7808688094430305
vn -0.6246950475544244 0 0.7808688094430305
vn -0.6246950475544242 0 -0.7808688094430305
vn -0.6246950475544242 0 -0.7808688094430305
vn -0.6246950475544244 0 0.7808688094430305
vn -0.6246950475544244 0 0.7808688094430305
vn -0.6246950475544242 0 -0.7808688094430305
usemtl m_cdb58b3e-8da2-8a25-0c37-1320fc7bf8d6
f 115/269/68 114/270/68 113/271/68 116/272/68
f 118/273/69 117/274/69 115/275/69 116/276/69
f 131/277/70 129/278/70 119/279/70 120/280/70
f 134/281/71 131/282/71 120/283/71 121/284/71
f 120/285/72 119/286/72 122/287/72 123/288/72
f 121/289/73 120/290/73 123/291/73 124/292/73
f 123/293/74 122/294/74 125/295/74 126/296/74
f 124/297/75 123/298/75 126/299/75 127/300/75
f 127/301/76 126/302/76 115/303/76 117/304/76
f 128/305/77 125/306/77 114/307/77 115/308/77
f 130/309/78 129/310/78 131/311/78 132/312/78
f 131/313/79 134/314/79 133/315/79 132/316/79
o corner3
v -0.525 0.4 -0.3
v -0.525 0.5 -0.3
v -0.4 0.4 -0.3
v -0.4 0.5 -0.3
v -0.4 0.2 -0.3
v -0.525 0.4 -0.3
v -0.525 0.3625 -0.3
v -0.4 0.4 -0.3
v -0.3 0.4 -0.525
v -0.3 0.5 -0.525
v -0.3 0.6 -0.525
v -0.525 0.5 -0.3
v -0.525 0.6 -0.3
v -0.525 0.7 -0.3
v -0.525 0.8 -0.3
v -0.3 0.7 -0.525
v -0.3 0.4 -0.4
v -0.3 0.5 -0.4
v -0.3 0.6 -0.4
v -0.3 0.7 -0.4
v -0.4 0.5 -0.3
v -0.4 0.6 -0.3
v -0.4 0.7 -0.3
v -0.4 0.8 -0.3
v -0.488388125 0.4625 -0.488388125
v -0.488388125 0.5625 -0.488388125
v -0.488388125 0.6625 -0.488388125
v -0.3 0.4625 -0.525
v -0.3 0.5625 -0.525
v -0.3 0.6625 -0.525
v -0.4 1 -0.4
v -0.525 0.4625 -0.3
v -0.525 0.5625 -0.3
v -0.525 0.6625 -0.3
v -0.4 1 -0.3
v -0.525 0.7625 -0.3
v -0.525 0.8625 -0.3
v -0.488388125 0.7625 -0.488388125
v -0.488388125 0.8625 -0.488388125
v -0.3 0.2 -0.4
v -0.3 0.3625 -0.525
v -0.488388125 0.3625 -0.488388125
v -0.4 0.2 -0.4
v -0.4 0.2 -0.3
v -0.3054525 0.8 -0.52488125
v -0.3054525 0.8625 -0.52488125
v -0.3 0.8 -0.4
v -0.3 1 -0.4
v -0.3 0.7625 -0.525
vt 0.6354166666666666 0.1875
vt 0.6354166666666666 0.28125
vt 0.59375 0.28125
vt 0.59375 0.1875
vt 0.59375 0.1875
vt 0.59375 0.15625
vt 0.6354166666666666 0
vt 0.6354166666666666 0.1875
vt 0.4270833333333333 0.28125
vt 0.4270833333333333 0.1875
vt 0.46875 0.1875
vt 0.46875 0.28125
vt 0.4270833333333333 0.375
vt 0.4270833333333333 0.28125
vt 0.46875 0.28125
vt 0.46875 0.375
vt 0.4270833333333333 0.46875
vt 0.4270833333333333 0.375
vt 0.46875 0.375
vt 0.46875 0.46875
vt 0.4270833333333333 0.5625
vt 0.4270833333333333 0.46875
vt 0.46875 0.46875
vt 0.46875 0.5625
vt 0.6354166666666666 0.28125
vt 0.6354166666666666 0.375
vt 0.59375 0.375
vt 0.59375 0.28125
vt 0.6354166666666666 0.375
vt 0.6354166666666666 0.46875
vt 0.59375 0.46875
vt 0.59375 0.375
vt 0.6354166666666666 0.46875
vt 0.6354166666666666 0.5625
vt 0.59375 0.5625
vt 0.59375 0.46875
vt 0.4375 0
vt 0.5 0
vt 0.5 0.09375
vt 0.4375 0.09375
vt 0.4375 0.09375
vt 0.5 0.09375
vt 0.5 0.1875
vt 0.4375 0.1875
vt 0.4375 0.1875
vt 0.5 0.1875
vt 0.5 0.28125
vt 0.4375 0.28125
vt 0.5 0
vt 0.5625 0
vt 0.5625 0.09375
vt 0.5 0.09375
vt 0.5 0.09375
vt 0.5625 0.09375
vt 0.5625 0.1875
vt 0.5 0.1875
vt 0.5 0.1875
vt 0.5625 0.1875
vt 0.5625 0.28125
vt 0.5 0.28125
vt 0.5 0.25
vt 0.5625 0.25
vt 0.5625 0.34375
vt 0.5 0.34375
vt 0.5 0.34375
vt 0.5625 0.34375
vt 0.5625 0.4375
vt 0.5 0.4375
vt 0.4375 0.34375
vt 0.5 0.34375
vt 0.5 0.4375
vt 0.4375 0.4375
vt 0.44386041666666665 0.40625
vt 0.4375 0.22140625000000003
vt 0.4996791666666667 0.22140625000000003
vt 0.47655000000000003 0.39317500000000005
vt 0.4996791666666667 0.22140625000000003
vt 0.4375 0.22140625000000003
vt 0.44386041666666665 0.40625
vt 0.47655000000000003 0.39317500000000005
vt 0.5010385416666666 0.44642375
vt 0.4375 0.46875
vt 0.4375 0.263733125
vt 0.470444375 0.26372937500000004
vt 0.4375 0.263733125
vt 0.4375 0.46875
vt 0.5010385416666666 0.44642375
vt 0.470444375 0.26372937500000004
vt 0.6354166666666666 0.75
vt 0.59375 0.625
vt 0.59375 0.5625
vt 0.6354166666666666 0.5625
vt 0.4270833333333333 0.21875
vt 0.4270833333333333 0.03125
vt 0.46875 0.1875
vt 0.46875 0.21875
vt 0.4270833333333333 0.59375
vt 0.4270833333333333 0.65625
vt 0.46875 0.78125
vt 0.46875 0.59375
vt 0.4375 0.25
vt 0.5 0.25
vt 0.5 0.34375
vt 0.4375 0.34375
vn 0 0 1
vn 0 0 1
vn 1 0 0
vn 1 0 0
vn 1 0 0
vn 1 0 0
vn 0 0 1
vn 0 0 1
vn 0 0 1
vn -0.1907735120473255 0 -0.9816340800426241
vn -0.1907735120473255 0 -0.9816340800426241
vn -0.1907735120473255 0 -0.9816340800426241
vn -0.9816340800426241 0 -0.1907735120473255
vn -0.9816340800426241 0 -0.1907735120473255
vn -0.9816340800426241 0 -0.1907735120473255
vn -0.9816340800426241 0 -0.1907735120473255
vn -0.9816340800426241 0 -0.1907735120473255
vn -0.1907735120473255 0 -0.9816340800426241
vn -0.14552494688130635 0.668321585881125 -0.7294989703080677
vn -0.7324061020087238 0.66582372909884 -0.14233784988295126
vn -0.1522450743435495 -0.6026032242285175 -0.7833841914970728
vn -0.7833841914970728 -0.6026032242285175 -0.15224507434354953
vn 0 0 1
vn 1 0 0
vn 0.9990481982681515 0 -0.04361992133372404
vn -0.1907735120473255 0 -0.9816340800426241
usemtl m_cdb58b3e-8da2-8a25-0c37-1320fc7bf8d6
f 137/317/80 138/318/80 136/319/80 135/320/80
f 140/321/81 141/322/81 139/323/81 142/324/81
f 152/325/82 151/326/82 143/327/82 144/328/82
f 153/329/83 152/330/83 144/331/83 145/332/83
f 154/333/84 153/334/84 145/335/84 150/336/84
f 181/337/85 154/338/85 150/339/85 179/340/85
f 155/341/86 156/342/86 147/343/86 146/344/86
f 156/345/87 157/346/87 148/347/87 147/348/87
f 157/349/88 158/350/88 149/351/88 148/352/88
f 175/353/89 176/354/89 159/355/89 162/356/89
f 162/357/90 159/358/90 160/359/90 163/360/90
f 163/361/91 160/362/91 161/363/91 164/364/91
f 176/365/92 141/366/92 166/367/92 159/368/92
f 159/369/93 166/370/93 167/371/93 160/372/93
f 160/373/94 167/374/94 168/375/94 161/376/94
f 161/377/95 168/378/95 170/379/95 172/380/95
f 172/381/96 170/382/96 171/383/96 173/384/96
f 183/385/97 172/386/97 173/387/97 180/388/97
f 182/389/98 180/390/98 173/391/98 165/392/98
f 173/393/99 171/394/99 169/395/99 165/396/99
f 176/397/100 175/398/100 174/399/100 177/400/100
f 178/401/101 141/402/101 176/403/101 177/404/101
f 169/405/102 171/406/102 149/407/102 158/408/102
f 151/409/103 174/410/103 175/411/103 143/412/103
f 179/413/104 180/414/104 182/415/104 181/416/104
f 164/417/105 161/418/105 172/419/105 183/420/105
o corner4
v 0.3 0.4 -0.525
v 0.3 0.5 -0.525
v 0.3 0.4 -0.4
v 0.3 0.5 -0.4
v 0.3 0.2 -0.4
v 0.3 0.4 -0.525
v 0.3 0.3625 -0.525
v 0.3 0.4 -0.4
v 0.525 0.4 -0.3
v 0.525 0.5 -0.3
v 0.525 0.6 -0.3
v 0.3 0.5 -0.525
v 0.3 0.6 -0.525
v 0.3 0.7 -0.525
v 0.3 0.8 -0.525
v 0.525 0.7 -0.3
v 0.4 0.4 -0.3
v 0.4 0.5 -0.3
v 0.4 0.6 -0.3
v 0.4 0.7 -0.3
v 0.3 0.5 -0.4
v 0.3 0.6 -0.4
v 0.3 0.7 -0.4
v 0.3 0.8 -0.4
v 0.488388125 0.4625 -0.488388125
v 0.488388125 0.5625 -0.488388125
v 0.488388125 0.6625 -0.488388125
v 0.525 0.4625 -0.3
v 0.525 0.5625 -0.3
v 0.525 0.6625 -0.3
v 0.4 1 -0.4
v 0.3 0.4625 -0.525
v 0.3 0.5625 -0.525
v 0.3 0.6625 -0.525
v 0.3 1 -0.4
v 0.3 0.7625 -0.525
v 0.3 0.8625 -0.525
v 0.525 0.7625 -0.3
v 0.488388125 0.7625 -0.488388125
v 0.488388125 0.8625 -0.488388125
v 0.4 0.2 -0.3
v 0.525 0.3625 -0.3
v 0.488388125 0.3625 -0.488388125
v 0.4 0.2 -0.4
v 0.3 0.2 -0.4
v 0.52488125 0.8 -0.3054525
v 0.52488125 0.8625 -0.3054525
v 0.4 0.8 -0.3
v 0.4 1 -0.3
vt 0.6354166666666666 0.1875
vt 0.6354166666666666 0.28125
vt 0.59375 0.28125
vt 0.59375 0.1875
vt 0.59375 0.1875
vt 0.59375 0.15625
vt 0.6354166666666666 0
vt 0.6354166666666666 0.1875
vt 0.4270833333333333 0.28125
vt 0.4270833333333333 0.1875
vt 0.46875 0.1875
vt 0.46875 0.28125
vt 0.4270833333333333 0.375
vt 0.4270833333333333 0.28125
vt 0.46875 0.28125
vt 0.46875 0.375
vt 0.4270833333333333 0.46875
vt 0.4270833333333333 0.375
vt 0.46875 0.375
vt 0.46875 0.46875
vt 0.4270833333333333 0.5625
vt 0.4270833333333333 0.46875
vt 0.46875 0.46875
vt 0.46875 0.5625
vt 0.6354166666666666 0.28125
vt 0.6354166666666666 0.375
vt 0.59375 0.375
vt 0.59375 0.28125
vt 0.6354166666666666 0.375
vt 0.6354166666666666 0.46875
vt 0.59375 0.46875
vt 0.59375 0.375
vt 0.6354166666666666 0.46875
vt 0.6354166666666666 0.5625
vt 0.59375 0.5625
vt 0.59375 0.46875
vt 0.4375 0
vt 0.5 0
vt 0.5 0.09375
vt 0.4375 0.09375
vt 0.4375 0.09375
vt 0.5 0.09375
vt 0.5 0.1875
vt 0.4375 0.1875
vt 0.4375 0.1875
vt 0.5 0.1875
vt 0.5 0.28125
vt 0.4375 0.28125
vt 0.4375 0.25
vt 0.5 0.25
vt 0.5 0.34375
vt 0.4375 0.34375
vt 0.5 0
vt 0.5625 0
vt 0.5625 0.09375
vt 0.5 0.09375
vt 0.5 0.09375
vt 0.5625 0.09375
vt 0.5625 0.1875
vt 0.5 0.1875
vt 0.5 0.1875
vt 0.5625 0.1875
vt 0.5625 0.28125
vt 0.5 0.28125
vt 0.5 0.25
vt 0.5625 0.25
vt 0.5625 0.34375
vt 0.5 0.34375
vt 0.5 0.34375
vt 0.5625 0.34375
vt 0.5625 0.4375
vt 0.5 0.4375
vt 0.4375 0.34375
vt 0.5 0.34375
vt 0.5 0.4375
vt 0.4375 0.4375
vt 0.44386041666666665 0.40625
vt 0.4375 0.22140625000000003
vt 0.4996791666666667 0.22140625000000003
vt 0.47655000000000003 0.39317500000000005
vt 0.4996791666666667 0.22140625000000003
vt 0.4375 0.22140625000000003
vt 0.44386041666666665 0.40625
vt 0.47655000000000003 0.39317500000000005
vt 0.5010385416666666 0.44642375
vt 0.4375 0.46875
vt 0.4375 0.263733125
vt 0.470444375 0.26372937500000004
vt 0.4375 0.263733125
vt 0.4375 0.46875
vt 0.5010385416666666 0.44642375
vt 0.470444375 0.26372937500000004
vt 0.6354166666666666 0.75
vt 0.59375 0.625
vt 0.59375 0.5625
vt 0.6354166666666666 0.5625
vt 0.4270833333333333 0.21875
vt 0.4270833333333333 0.03125
vt 0.46875 0.1875
vt 0.46875 0.21875
vt 0.4270833333333333 0.59375
vt 0.4270833333333333 0.65625
vt 0.46875 0.78125
vt 0.46875 0.59375
vn -1 0 0
vn -1 0 0
vn 0 0 1
vn 0 0 1
vn 0 0 1
vn 0 0 1
vn -1 0 0
vn -1 0 0
vn -1 0 0
vn 0.9816340800426241 0 -0.1907735120473255
vn 0.9816340800426241 0 -0.1907735120473255
vn 0.9816340800426241 0 -0.1907735120473255
vn 0.9816340800426241 0 -0.1907735120473255
vn 0.1907735120473255 0 -0.9816340800426241
vn 0.1907735120473255 0 -0.9816340800426241
vn 0.1907735120473255 0 -0.9816340800426241
vn 0.1907735120473255 0 -0.9816340800426241
vn 0.1907735120473255 0 -0.9816340800426241
vn 0.9816340800426241 0 -0.1907735120473255
vn 0.7294989703080677 0.668321585881125 -0.14552494688130635
vn 0.14233784988295126 0.66582372909884 -0.7324061020087238
vn 0.7833841914970727 -0.6026032242285175 -0.1522450743435495
vn 0.15224507434354953 -0.6026032242285175 -0.7833841914970728
vn -1 0 0
vn 0 0 1
vn 0.04361992133372404 0 0.9990481982681515
usemtl m_cdb58b3e-8da2-8a25-0c37-1320fc7bf8d6
f 186/421/106 187/422/106 185/423/106 184/424/106
f 189/425/107 190/426/107 188/427/107 191/428/107
f 201/429/108 200/430/108 192/431/108 193/432/108
f 202/433/109 201/434/109 193/435/109 194/436/109
f 203/437/110 202/438/110 194/439/110 199/440/110
f 231/441/111 203/442/111 199/443/111 229/444/111
f 204/445/112 205/446/112 196/447/112 195/448/112
f 205/449/113 206/450/113 197/451/113 196/452/113
f 206/453/114 207/454/114 198/455/114 197/456/114
f 225/457/115 226/458/115 208/459/115 211/460/115
f 211/461/116 208/462/116 209/463/116 212/464/116
f 212/465/117 209/466/117 210/467/117 213/468/117
f 213/469/118 210/470/118 222/471/118 221/472/118
f 226/473/119 190/474/119 215/475/119 208/476/119
f 208/477/120 215/478/120 216/479/120 209/480/120
f 209/481/121 216/482/121 217/483/121 210/484/121
f 210/485/122 217/486/122 219/487/122 222/488/122
f 222/489/123 219/490/123 220/491/123 223/492/123
f 221/493/124 222/494/124 223/495/124 230/496/124
f 232/497/125 230/498/125 223/499/125 214/500/125
f 223/501/126 220/502/126 218/503/126 214/504/126
f 226/505/127 225/506/127 224/507/127 227/508/127
f 228/509/128 190/510/128 226/511/128 227/512/128
f 218/513/129 220/514/129 198/515/129 207/516/129
f 200/517/130 224/518/130 225/519/130 192/520/130
f 229/521/131 230/522/131 232/523/131 231/524/131
o corner1
v 0.525 0.4 0.3
v 0.525 0.5 0.3
v 0.4 0.4 0.3
v 0.4 0.5 0.3
v 0.4 0.2 0.3
v 0.525 0.4 0.3
v 0.525 0.3625 0.3
v 0.4 0.4 0.3
v 0.3 0.4 0.525
v 0.3 0.5 0.525
v 0.3 0.6 0.525
v 0.525 0.5 0.3
v 0.525 0.6 0.3
v 0.525 0.7 0.3
v 0.525 0.8 0.3
v 0.3 0.7 0.525
v 0.3 0.4 0.4
v 0.3 0.5 0.4
v 0.3 0.6 0.4
v 0.3 0.7 0.4
v 0.4 0.5 0.3
v 0.4 0.6 0.3
v 0.4 0.7 0.3
v 0.4 0.8 0.3
v 0.488388125 0.4625 0.488388125
v 0.488388125 0.5625 0.488388125
v 0.488388125 0.6625 0.488388125
v 0.3 0.4625 0.525
v 0.3 0.5625 0.525
v 0.3 0.6625 0.525
v 0.4 1 0.4
v 0.525 0.4625 0.3
v 0.525 0.5625 0.3
v 0.525 0.6625 0.3
v 0.4 1 0.3
v 0.525 0.7625 0.3
v 0.525 0.8625 0.3
v 0.3 0.7625 0.525
v 0.488388125 0.7625 0.488388125
v 0.488388125 0.8625 0.488388125
v 0.3 0.2 0.4
v 0.3 0.3625 0.525
v 0.488388125 0.3625 0.488388125
v 0.4 0.2 0.4
v 0.4 0.2 0.3
v 0.3054525 0.8 0.52488125
v 0.3054525 0.8625 0.52488125
v 0.3 0.8 0.4
v 0.3 1 0.4
vt 0.6354166666666666 0.1875
vt 0.6354166666666666 0.28125
vt 0.59375 0.28125
vt 0.59375 0.1875
vt 0.59375 0.1875
vt 0.59375 0.15625
vt 0.6354166666666666 0
vt 0.6354166666666666 0.1875
vt 0.4270833333333333 0.28125
vt 0.4270833333333333 0.1875
vt 0.46875 0.1875
vt 0.46875 0.28125
vt 0.4270833333333333 0.375
vt 0.4270833333333333 0.28125
vt 0.46875 0.28125
vt 0.46875 0.375
vt 0.4270833333333333 0.46875
vt 0.4270833333333333 0.375
vt 0.46875 0.375
vt 0.46875 0.46875
vt 0.4270833333333333 0.5625
vt 0.4270833333333333 0.46875
vt 0.46875 0.46875
vt 0.46875 0.5625
vt 0.6354166666666666 0.28125
vt 0.6354166666666666 0.375
vt 0.59375 0.375
vt 0.59375 0.28125
vt 0.6354166666666666 0.375
vt 0.6354166666666666 0.46875
vt 0.59375 0.46875
vt 0.59375 0.375
vt 0.6354166666666666 0.46875
vt 0.6354166666666666 0.5625
vt 0.59375 0.5625
vt 0.59375 0.46875
vt 0.4375 0
vt 0.5 0
vt 0.5 0.09375
vt 0.4375 0.09375
vt 0.4375 0.09375
vt 0.5 0.09375
vt 0.5 0.1875
vt 0.4375 0.1875
vt 0.4375 0.1875
vt 0.5 0.1875
vt 0.5 0.28125
vt 0.4375 0.28125
vt 0.4375 0.25
vt 0.5 0.25
vt 0.5 0.34375
vt 0.4375 0.34375
vt 0.5 0
vt 0.5625 0
vt 0.5625 0.09375
vt 0.5 0.09375
vt 0.5 0.09375
vt 0.5625 0.09375
vt 0.5625 0.1875
vt 0.5 0.1875
vt 0.5 0.1875
vt 0.5625 0.1875
vt 0.5625 0.28125
vt 0.5 0.28125
vt 0.5 0.25
vt 0.5625 0.25
vt 0.5625 0.34375
vt 0.5 0.34375
vt 0.5 0.34375
vt 0.5625 0.34375
vt 0.5625 0.4375
vt 0.5 0.4375
vt 0.4375 0.34375
vt 0.5 0.34375
vt 0.5 0.4375
vt 0.4375 0.4375
vt 0.44386041666666665 0.40625
vt 0.4375 0.22140625000000003
vt 0.4996791666666667 0.22140625000000003
vt 0.47655000000000003 0.39317500000000005
vt 0.4996791666666667 0.22140625000000003
vt 0.4375 0.22140625000000003
vt 0.44386041666666665 0.40625
vt 0.47655000000000003 0.39317500000000005
vt 0.5010385416666666 0.44642375
vt 0.4375 0.46875
vt 0.4375 0.263733125
vt 0.470444375 0.26372937500000004
vt 0.4375 0.263733125
vt 0.4375 0.46875
vt 0.5010385416666666 0.44642375
vt 0.470444375 0.26372937500000004
vt 0.6354166666666666 0.75
vt 0.59375 0.625
vt 0.59375 0.5625
vt 0.6354166666666666 0.5625
vt 0.4270833333333333 0.21875
vt 0.4270833333333333 0.03125
vt 0.46875 0.1875
vt 0.46875 0.21875
vt 0.4270833333333333 0.59375
vt 0.4270833333333333 0.65625
vt 0.46875 0.78125
vt 0.46875 0.59375
vn 0 0 -1
vn 0 0 -1
vn -1 0 0
vn -1 0 0
vn -1 0 0
vn -1 0 0
vn 0 0 -1
vn 0 0 -1
vn 0 0 -1
vn 0.1907735120473255 0 0.9816340800426241
vn 0.1907735120473255 0 0.9816340800426241
vn 0.1907735120473255 0 0.9816340800426241
vn 0.1907735120473255 0 0.9816340800426241
vn 0.9816340800426241 0 0.1907735120473255
vn 0.9816340800426241 0 0.1907735120473255
vn 0.9816340800426241 0 0.1907735120473255
vn 0.9816340800426241 0 0.1907735120473255
vn 0.9816340800426241 0 0.1907735120473255
vn 0.1907735120473255 0 0.9816340800426241
vn 0.14552494688130635 0.668321585881125 0.7294989703080677
vn 0.7324061020087238 0.66582372909884 0.14233784988295126
vn 0.1522450743435495 -0.6026032242285175 0.7833841914970728
vn 0.7833841914970728 -0.6026032242285175 0.15224507434354953
vn 0 0 -1
vn -1 0 0
vn -0.9990481982681515 0 0.04361992133372404
usemtl m_cdb58b3e-8da2-8a25-0c37-1320fc7bf8d6
f 235/525/132 236/526/132 234/527/132 233/528/132
f 238/529/133 239/530/133 237/531/133 240/532/133
f 250/533/134 249/534/134 241/535/134 242/536/134
f 251/537/135 250/538/135 242/539/135 243/540/135
f 252/541/136 251/542/136 243/543/136 248/544/136
f 280/545/137 252/546/137 248/547/137 278/548/137
f 253/549/138 254/550/138 245/551/138 244/552/138
f 254/553/139 255/554/139 246/555/139 245/556/139
f 255/557/140 256/558/140 247/559/140 246/560/140
f 274/561/141 275/562/141 257/563/141 260/564/141
f 260/565/142 257/566/142 258/567/142 261/568/142
f 261/569/143 258/570/143 259/571/143 262/572/143
f 262/573/144 259/574/144 271/575/144 270/576/144
f 275/577/145 239/578/145 264/579/145 257/580/145
f 257/581/146 264/582/146 265/583/146 258/584/146
f 258/585/147 265/586/147 266/587/147 259/588/147
f 259/589/148 266/590/148 268/591/148 271/592/148
f 271/593/149 268/594/149 269/595/149 272/596/149
f 270/597/150 271/598/150 272/599/150 279/600/150
f 281/601/151 279/602/151 272/603/151 263/604/151
f 272/605/152 269/606/152 267/607/152 263/608/152
f 275/609/153 274/610/153 273/611/153 276/612/153
f 277/613/154 239/614/154 275/615/154 276/616/154
f 267/617/155 269/618/155 247/619/155 256/620/155
f 249/621/156 273/622/156 274/623/156 241/624/156
f 278/625/157 279/626/157 281/627/157 280/628/157
o corner2
v -0.3 0.4 0.525
v -0.3 0.5 0.525
v -0.3 0.4 0.4
v -0.3 0.5 0.4
v -0.3 0.2 0.4
v -0.3 0.4 0.525
v -0.3 0.3625 0.525
v -0.3 0.4 0.4
v -0.525 0.4 0.3
v -0.525 0.5 0.3
v -0.525 0.6 0.3
v -0.3 0.5 0.525
v -0.3 0.6 0.525
v -0.3 0.7 0.525
v -0.3 0.8 0.525
v -0.525 0.7 0.3
v -0.4 0.4 0.3
v -0.4 0.5 0.3
v -0.4 0.6 0.3
v -0.4 0.7 0.3
v -0.3 0.5 0.4
v -0.3 0.6 0.4
v -0.3 0.7 0.4
v -0.3 0.8 0.4
v -0.488388125 0.4625 0.488388125
v -0.488388125 0.5625 0.488388125
v -0.488388125 0.6625 0.488388125
v -0.525 0.4625 0.3
v -0.525 0.5625 0.3
v -0.525 0.6625 0.3
v -0.4 1 0.4
v -0.3 0.4625 0.525
v -0.3 0.5625 0.525
v -0.3 0.6625 0.525
v -0.3 1 0.4
v -0.3 0.7625 0.525
v -0.3 0.8625 0.525
v -0.525 0.7625 0.3
v -0.488388125 0.7625 0.488388125
v -0.488388125 0.8625 0.488388125
v -0.4 0.2 0.3
v -0.525 0.3625 0.3
v -0.488388125 0.3625 0.488388125
v -0.4 0.2 0.4
v -0.3 0.2 0.4
v -0.52488125 0.8 0.3054525
v -0.52488125 0.8625 0.3054525
v -0.4 0.8 0.3
v -0.4 1 0.3
vt 0.6354166666666666 0.1875
vt 0.6354166666666666 0.28125
vt 0.59375 0.28125
vt 0.59375 0.1875
vt 0.59375 0.1875
vt 0.59375 0.15625
vt 0.6354166666666666 0
vt 0.6354166666666666 0.1875
vt 0.4270833333333333 0.28125
vt 0.4270833333333333 0.1875
vt 0.46875 0.1875
vt 0.46875 0.28125
vt 0.4270833333333333 0.375
vt 0.4270833333333333 0.28125
vt 0.46875 0.28125
vt 0.46875 0.375
vt 0.4270833333333333 0.46875
vt 0.4270833333333333 0.375
vt 0.46875 0.375
vt 0.46875 0.46875
vt 0.4270833333333333 0.5625
vt 0.4270833333333333 0.46875
vt 0.46875 0.46875
vt 0.46875 0.5625
vt 0.6354166666666666 0.28125
vt 0.6354166666666666 0.375
vt 0.59375 0.375
vt 0.59375 0.28125
vt 0.6354166666666666 0.375
vt 0.6354166666666666 0.46875
vt 0.59375 0.46875
vt 0.59375 0.375
vt 0.6354166666666666 0.46875
vt 0.6354166666666666 0.5625
vt 0.59375 0.5625
vt 0.59375 0.46875
vt 0.4375 0
vt 0.5 0
vt 0.5 0.09375
vt 0.4375 0.09375
vt 0.4375 0.09375
vt 0.5 0.09375
vt 0.5 0.1875
vt 0.4375 0.1875
vt 0.4375 0.1875
vt 0.5 0.1875
vt 0.5 0.28125
vt 0.4375 0.28125
vt 0.4375 0.25
vt 0.5 0.25
vt 0.5 0.34375
vt 0.4375 0.34375
vt 0.5 0
vt 0.5625 0
vt 0.5625 0.09375
vt 0.5 0.09375
vt 0.5 0.09375
vt 0.5625 0.09375
vt 0.5625 0.1875
vt 0.5 0.1875
vt 0.5 0.1875
vt 0.5625 0.1875
vt 0.5625 0.28125
vt 0.5 0.28125
vt 0.5 0.25
vt 0.5625 0.25
vt 0.5625 0.34375
vt 0.5 0.34375
vt 0.5 0.34375
vt 0.5625 0.34375
vt 0.5625 0.4375
vt 0.5 0.4375
vt 0.4375 0.34375
vt 0.5 0.34375
vt 0.5 0.4375
vt 0.4375 0.4375
vt 0.44386041666666665 0.40625
vt 0.4375 0.22140625000000003
vt 0.4996791666666667 0.22140625000000003
vt 0.47655000000000003 0.39317500000000005
vt 0.5010385416666666 0.44642375
vt 0.4375 0.46875
vt 0.4375 0.263733125
vt 0.470444375 0.26372937500000004
vt 0.4375 0.263733125
vt 0.4375 0.46875
vt 0.5010385416666666 0.44642375
vt 0.470444375 0.26372937500000004
vt 0.6354166666666666 0.75
vt 0.59375 0.625
vt 0.59375 0.5625
vt 0.6354166666666666 0.5625
vt 0.4270833333333333 0.21875
vt 0.4270833333333333 0.03125
vt 0.46875 0.1875
vt 0.46875 0.21875
vt 0.4270833333333333 0.59375
vt 0.4270833333333333 0.65625
vt 0.46875 0.78125
vt 0.46875 0.59375
vt 0.4996791666666667 0.22140625000000003
vt 0.4375 0.22140625000000003
vt 0.44386041666666665 0.40625
vt 0.47655000000000003 0.39317500000000005
vn 1 0 0
vn 1 0 0
vn 0 0 -1
vn 0 0 -1
vn 0 0 -1
vn 0 0 -1
vn 1 0 0
vn 1 0 0
vn 1 0 0
vn -0.9816340800426241 0 0.1907735120473255
vn -0.9816340800426241 0 0.1907735120473255
vn -0.9816340800426241 0 0.1907735120473255
vn -0.9816340800426241 0 0.1907735120473255
vn -0.1907735120473255 0 0.9816340800426241
vn -0.1907735120473255 0 0.9816340800426241
vn -0.1907735120473255 0 0.9816340800426241
vn -0.1907735120473255 0 0.9816340800426241
vn -0.1907735120473255 0 0.9816340800426241
vn -0.9816340800426241 0 0.1907735120473255
vn -0.7294989703080677 0.668321585881125 0.14552494688130635
vn -0.7833841914970727 -0.6026032242285175 0.1522450743435495
vn -0.15224507434354953 -0.6026032242285175 0.7833841914970728
vn 1 0 0
vn 0 0 -1
vn -0.04361992133372404 0 -0.9990481982681515
vn -0.14233784988295126 0.66582372909884 0.7324061020087238
usemtl m_cdb58b3e-8da2-8a25-0c37-1320fc7bf8d6
f 284/629/158 285/630/158 283/631/158 282/632/158
f 287/633/159 288/634/159 286/635/159 289/636/159
f 299/637/160 298/638/160 290/639/160 291/640/160
f 300/641/161 299/642/161 291/643/161 292/644/161
f 301/645/162 300/646/162 292/647/162 297/648/162
f 329/649/163 301/650/163 297/651/163 327/652/163
f 302/653/164 303/654/164 294/655/164 293/656/164
f 303/657/165 304/658/165 295/659/165 294/660/165
f 304/661/166 305/662/166 296/663/166 295/664/166
f 323/665/167 324/666/167 306/667/167 309/668/167
f 309/669/168 306/670/168 307/671/168 310/672/168
f 310/673/169 307/674/169 308/675/169 311/676/169
f 311/677/170 308/678/170 320/679/170 319/680/170
f 324/681/171 288/682/171 313/683/171 306/684/171
f 306/685/172 313/686/172 314/687/172 307/688/172
f 307/689/173 314/690/173 315/691/173 308/692/173
f 308/693/174 315/694/174 317/695/174 320/696/174
f 320/697/175 317/698/175 318/699/175 321/700/175
f 319/701/176 320/702/176 321/703/176 328/704/176
f 330/705/177 328/706/177 321/707/177 312/708/177
f 324/709/178 323/710/178 322/711/178 325/712/178
f 326/713/179 288/714/179 324/715/179 325/716/179
f 316/717/180 318/718/180 296/719/180 305/720/180
f 298/721/181 322/722/181 323/723/181 290/724/181
f 327/725/182 328/726/182 330/727/182 329/728/182
f 321/729/183 318/730/183 316/731/183 312/732/183
o frameup
v -0.2875 1.0625 -0.2875
v -0.2875 1.0625 -0.4
v -0.2875 1 -0.2875
v -0.2875 1 -0.4
v -0.4 1.0625 -0.4
v -0.4 1 -0.4
v 0.2875 1.0625 -0.4
v 0.2875 1 -0.2875
v -0.29375 1.0625 -0.2875
v -0.29375 1.0625 -0.4
v -0.29375 1 -0.2875
v -0.29375 1 -0.4
v 0.2875 1.0625 -0.2875
v 0.2875 1 -0.4
v 0.4 1.0625 -0.2875
v 0.4 1.0625 -0.4
v 0.4 1 -0.2875
v 0.4 1 -0.4
v 0.2875 1.0625 -0.2875
v 0.2875 1.0625 -0.4
v 0.2875 1 -0.2875
v 0.2875 1 -0.4
v 0.2875 1.0625 -0.2875
v 0.4 1 -0.2875
v 0.4 1.0625 0.2875
v 0.2875 1.0625 0.2875
v 0.4 1 0.2875
v 0.2875 1 0.2875
v 0.4 1.0625 -0.2875
v 0.2875 1 -0.2875
v 0.2875 1.0625 0.2875
v 0.2875 1 0.3999999999999999
v -0.29375 1.0625 0.3999999999999999
v -0.29375 1.0625 0.2875
v -0.29375 1 0.3999999999999999
v -0.29375 1 0.2875
v 0.2875 1.0625 0.3999999999999999
v 0.2875 1 0.2875
v 0.4 1.0625 0.3999999999999999
v 0.4 1.0625 0.2875
v 0.4 1 0.3999999999999999
v 0.4 1 0.2875
v 0.2875 1.0625 0.3999999999999999
v 0.2875 1.0625 0.2875
v 0.2875 1 0.3999999999999999
v 0.2875 1 0.2875
v -0.2875 1.0625 0.3999999999999999
v -0.2875 1.0625 0.2875
v -0.2875 1 0.3999999999999999
v -0.2875 1 0.2875
v -0.4 1.0625 0.3999999999999999
v -0.4 1 0.3999999999999999
v -0.4 1.0625 -0.2875
v -0.2875 1 -0.2875
v -0.2875 1.0625 0.2875
v -0.4 1.0625 0.2875
v -0.2875 1 0.2875
v -0.4 1 0.2875
v -0.2875 1.0625 -0.2875
v -0.4 1 -0.2875
v -0.4 1.0625 -0.2875
v -0.4 1 -0.2875
v -0.4 1.0625 0.2875
v -0.4 1 0.2875
vt 0.20833333333333334 0.75
vt 0.16666666666666666 0.75
vt 0.16666666666666666 0.6875
vt 0.20833333333333334 0.6875
vt 0.20833333333333334 0.9375
vt 0.20833333333333334 1
vt 0.16666666666666666 1
vt 0.16666666666666666 0.9375
vt 0 0.875
vt 0.041666666666666664 0.875
vt 0.041666666666666664 1
vt 0 1
vt 0.20833333333333334 0.375
vt 0.20833333333333334 0.5
vt 0.16666666666666666 0.5
vt 0.16666666666666666 0.375
vt 0.20833333333333334 0.6875
vt 0.20833333333333334 0.75
vt 0.16666666666666666 0.75
vt 0.16666666666666666 0.6875
vt 0.20833333333333334 1
vt 0.16666666666666666 1
vt 0.16666666666666666 0.9375
vt 0.20833333333333334 0.9375
vt 0.20833333333333334 0.6875
vt 0.20833333333333334 0.75
vt 0.16666666666666666 0.75
vt 0.16666666666666666 0.6875
vt 0.041666666666666664 0.125
vt 0.041666666666666664 0.71875
vt 0 0.71875
vt 0 0.125
vt 0.28125 0.375
vt 0.28125 0.5
vt 0.08333333333333333 0.5
vt 0.08333333333333333 0.375
vt 0.28125 0.6875
vt 0.28125 0.75
vt 0.08333333333333333 0.75
vt 0.08333333333333333 0.6875
vt 0.2604166666666667 1
vt 0.0625 1
vt 0.0625 0.9375
vt 0.2604166666666667 0.9375
vt 0.20833333333333334 0.75
vt 0.16666666666666666 0.75
vt 0.16666666666666666 0.6875
vt 0.20833333333333334 0.6875
vt 0.20833333333333334 1
vt 0.16666666666666666 1
vt 0.16666666666666666 0.9375
vt 0.20833333333333334 0.9375
vt 0.20833333333333334 0.6875
vt 0.20833333333333334 0.75
vt 0.16666666666666666 0.75
vt 0.16666666666666666 0.6875
vt 0.2916666666666667 0.875
vt 0.3333333333333333 0.875
vt 0.3333333333333333 1
vt 0.2916666666666667 1
vt 0.20833333333333334 0.375
vt 0.20833333333333334 0.5
vt 0.16666666666666666 0.5
vt 0.16666666666666666 0.375
vt 0.20833333333333334 0.6875
vt 0.20833333333333334 0.75
vt 0.16666666666666666 0.75
vt 0.16666666666666666 0.6875
vt 0.20833333333333334 1
vt 0.16666666666666666 1
vt 0.16666666666666666 0.9375
vt 0.20833333333333334 0.9375
vt 0.20833333333333334 0.5625
vt 0.20833333333333334 0.625
vt 0.16666666666666666 0.625
vt 0.16666666666666666 0.5625
vt 0.07291666666666667 0
vt 0.2604166666666667 0
vt 0.2604166666666667 0.125
vt 0.07291666666666667 0.125
vt 0.2708333333333333 0.25
vt 0.2708333333333333 0.375
vt 0.08333333333333333 0.375
vt 0.08333333333333333 0.25
vt 0.2708333333333333 0.9375
vt 0.2708333333333333 1
vt 0.08333333333333333 1
vt 0.08333333333333333 0.9375
vt 0.22916666666666666 0.625
vt 0.041666666666666664 0.625
vt 0.041666666666666664 0.5625
vt 0.22916666666666666 0.5625
vt 0.20833333333333334 0.625
vt 0.16666666666666666 0.625
vt 0.16666666666666666 0.5625
vt 0.20833333333333334 0.5625
vt 0.20833333333333334 0.6875
vt 0.20833333333333334 0.75
vt 0.16666666666666666 0.75
vt 0.16666666666666666 0.6875
vt 0.3333333333333333 0.125
vt 0.3333333333333333 0.71875
vt 0.2916666666666667 0.71875
vt 0.2916666666666667 0.125
vt 0.28125 0.375
vt 0.28125 0.5
vt 0.08333333333333333 0.5
vt 0.08333333333333333 0.375
vt 0.28125 0.9375
vt 0.28125 1
vt 0.08333333333333333 1
vt 0.08333333333333333 0.9375
vt 0.2604166666666667 0.75
vt 0.0625 0.75
vt 0.0625 0.6875
vt 0.2604166666666667 0.6875
vt 0.20833333333333334 0.75
vt 0.16666666666666666 0.75
vt 0.16666666666666666 0.6875
vt 0.20833333333333334 0.6875
vt 0.20833333333333334 1
vt 0.16666666666666666 1
vt 0.16666666666666666 0.9375
vt 0.20833333333333334 0.9375
vt 0.20833333333333334 0.6875
vt 0.20833333333333334 0.75
vt 0.16666666666666666 0.75
vt 0.16666666666666666 0.6875
vt 0.2916666666666667 0
vt 0.3333333333333333 0
vt 0.3333333333333333 0.125
vt 0.2916666666666667 0.125
vt 0.20833333333333334 0.375
vt 0.20833333333333334 0.5
vt 0.16666666666666666 0.5
vt 0.16666666666666666 0.375
vt 0.20833333333333334 0.9375
vt 0.20833333333333334 1
vt 0.16666666666666666 1
vt 0.16666666666666666 0.9375
vt 0.20833333333333334 0.75
vt 0.16666666666666666 0.75
vt 0.16666666666666666 0.6875
vt 0.20833333333333334 0.6875
vt 0.20833333333333334 0.75
vt 0.16666666666666666 0.75
vt 0.16666666666666666 0.6875
vt 0.20833333333333334 0.6875
vt 0.20833333333333334 0.9375
vt 0.20833333333333334 1
vt 0.16666666666666666 1
vt 0.16666666666666666 0.9375
vt 0 0
vt 0.041666666666666664 0
vt 0.041666666666666664 0.125
vt 0 0.125
vt 0.20833333333333334 0.375
vt 0.20833333333333334 0.5
vt 0.16666666666666666 0.5
vt 0.16666666666666666 0.375
vt 0.20833333333333334 0.9375
vt 0.20833333333333334 1
vt 0.16666666666666666 1
vt 0.16666666666666666 0.9375
vt 0.20833333333333334 0.75
vt 0.16666666666666666 0.75
vt 0.16666666666666666 0.6875
vt 0.20833333333333334 0.6875
vt 0.20833333333333334 0.6875
vt 0.20833333333333334 0.75
vt 0.16666666666666666 0.75
vt 0.16666666666666666 0.6875
vt 0.07291666666666667 0.875
vt 0.2604166666666667 0.875
vt 0.2604166666666667 1
vt 0.07291666666666667 1
vt 0.2708333333333333 0.375
vt 0.2708333333333333 0.5
vt 0.08333333333333333 0.5
vt 0.08333333333333333 0.375
vt 0.2708333333333333 0.6875
vt 0.2708333333333333 0.75
vt 0.08333333333333333 0.75
vt 0.08333333333333333 0.6875
vt 0.2708333333333333 1
vt 0.08333333333333333 1
vt 0.08333333333333333 0.9375
vt 0.2708333333333333 0.9375
vt 0.20833333333333334 0.75
vt 0.16666666666666666 0.75
vt 0.16666666666666666 0.6875
vt 0.20833333333333334 0.6875
vn 1 0 0
vn -1 0 0
vn 0 1 0
vn 0 -1 0
vn 0 0 1
vn 0 0 -1
vn -1 0 0
vn 0 1 0
vn 0 -1 0
vn 0 0 1
vn 0 0 -1
vn 1 0 0
vn 1 0 0
vn -1 0 0
vn 0 1 0
vn 0 -1 0
vn 0 0 1
vn 0 0 -1
vn 0 0 1
vn 0 1 0
vn 0 -1 0
vn 1 0 0
vn -1 0 0
vn 0 0 -1
vn -1 0 0
vn 0 1 0
vn 0 -1 0
vn 0 0 1
vn 0 0 -1
vn 1 0 0
vn 1 0 0
vn -1 0 0
vn 0 1 0
vn 0 -1 0
vn 0 0 1
vn 0 0 -1
vn 1 0 0
vn -1 0 0
vn 0 1 0
vn 0 -1 0
vn 0 0 1
vn 0 0 -1
vn 0 0 1
vn 0 1 0
vn 0 -1 0
vn 1 0 0
vn -1 0 0
vn 0 0 -1
usemtl m_cdb58b3e-8da2-8a25-0c37-1320fc7bf8d6
f 332/733/184 331/734/184 333/735/184 334/736/184
f 392/737/185 391/738/185 335/739/185 336/740/185
f 391/741/186 331/742/186 332/743/186 335/744/186
f 334/745/187 333/746/187 392/747/187 336/748/187
f 333/749/188 331/750/188 391/751/188 392/752/188
f 335/753/189 332/754/189 334/755/189 336/756/189
f 341/757/190 339/758/190 340/759/190 342/760/190
f 339/761/191 343/762/191 337/763/191 340/764/191
f 344/765/192 338/766/192 341/767/192 342/768/192
f 338/769/193 343/770/193 339/771/193 341/772/193
f 340/773/194 337/774/194 344/775/194 342/776/194
f 337/777/195 343/778/195 338/779/195 344/780/195
f 346/781/196 345/782/196 347/783/196 348/784/196
f 351/785/197 349/786/197 350/787/197 352/788/197
f 349/789/198 345/790/198 346/791/198 350/792/198
f 348/793/199 347/794/199 351/795/199 352/796/199
f 347/797/200 345/798/200 349/799/200 351/800/200
f 350/801/201 346/802/201 348/803/201 352/804/201
f 357/805/202 355/806/202 356/807/202 358/808/202
f 355/809/203 359/810/203 353/811/203 356/812/203
f 360/813/204 354/814/204 357/815/204 358/816/204
f 354/817/205 359/818/205 355/819/205 357/820/205
f 356/821/206 353/822/206 360/823/206 358/824/206
f 353/825/207 359/826/207 354/827/207 360/828/207
f 365/829/208 363/830/208 364/831/208 366/832/208
f 363/833/209 367/834/209 361/835/209 364/836/209
f 368/837/210 362/838/210 365/839/210 366/840/210
f 362/841/211 367/842/211 363/843/211 365/844/211
f 364/845/212 361/846/212 368/847/212 366/848/212
f 361/849/213 367/850/213 362/851/213 368/852/213
f 370/853/214 369/854/214 371/855/214 372/856/214
f 375/857/215 373/858/215 374/859/215 376/860/215
f 373/861/216 369/862/216 370/863/216 374/864/216
f 372/865/217 371/866/217 375/867/217 376/868/217
f 371/869/218 369/870/218 373/871/218 375/872/218
f 374/873/219 370/874/219 372/875/219 376/876/219
f 378/877/220 377/878/220 379/879/220 380/880/220
f 382/881/221 381/882/221 393/883/221 394/884/221
f 381/885/222 377/886/222 378/887/222 393/888/222
f 380/889/223 379/890/223 382/891/223 394/892/223
f 379/893/224 377/894/224 381/895/224 382/896/224
f 393/897/225 378/898/225 380/899/225 394/900/225
f 387/901/226 385/902/226 386/903/226 388/904/226
f 385/905/227 389/906/227 383/907/227 386/908/227
f 390/909/228 384/910/228 387/911/228 388/912/228
f 384/913/229 389/914/229 385/915/229 387/916/229
f 386/917/230 383/918/230 390/919/230 388/920/230
f 383/921/231 389/922/231 384/923/231 390/924/231
o column4
v -0.1 1 -0.4
v -0.1 0.7999999999999999 -0.4
v 0 0.7999999999999999 -0.525
v 0 1 -0.4
v 0.09999999999999998 0.7999999999999999 -0.4
v 0.09999999999999998 1 -0.4
v -0.1 0.5 -0.4
v 0 0.5 -0.525
v 0.09999999999999998 0.5 -0.4
v -0.1 0.6 -0.4
v 0 0.6 -0.525
v 0.09999999999999998 0.6 -0.4
v -0.1 0.7 -0.4
v 0 0.7 -0.525
v 0.09999999999999998 0.7 -0.4
v 0 0.7 -0.525
v -0.1 0.3999999999999999 -0.4
v -0.1 0.19999999999999996 -0.4
v 0 0.3999999999999999 -0.525
v 0 0.19999999999999996 -0.4
v 0.09999999999999998 0.19999999999999996 -0.4
v 0.09999999999999998 0.3999999999999999 -0.4
vt 0.48872895833333335 0.7561925
vt 0.4373329166666667 0.7662275000000001
vt 0.4359677083333333 0.936365
vt 0.460918125 0.9609375
vt 0.563208125 0.942299375
vt 0.5618697916666667 0.764371875
vt 0.5114885416666667 0.7538775
vt 0.5387502083333333 0.9679975
vt 0.5 0.125
vt 0.4479166666666667 0.125
vt 0.4479166666666667 0.21875
vt 0.5 0.21875
vt 0.5520833333333334 0.125
vt 0.5 0.125
vt 0.5 0.21875
vt 0.5520833333333334 0.21875
vt 0.5 0.21875
vt 0.4479166666666667 0.21875
vt 0.4479166666666667 0.3125
vt 0.5 0.3125
vt 0.5520833333333334 0.21875
vt 0.5 0.21875
vt 0.5 0.3125
vt 0.5520833333333334 0.3125
vt 0.5 0.3125
vt 0.4479166666666667 0.3125
vt 0.4479166666666667 0.40625
vt 0.5 0.40625
vt 0.5520833333333334 0.3125
vt 0.5 0.3125
vt 0.5 0.40625
vt 0.5520833333333334 0.40625
vt 0.5520833333333334 0.40625
vt 0.5 0.40625
vt 0.5 0.5
vt 0.5520833333333334 0.5
vt 0.5 0.40625
vt 0.4479166666666667 0.40625
vt 0.4479166666666667 0.5
vt 0.5 0.5
vt 0.4359677083333333 0.936365
vt 0.4373329166666667 0.7662275000000001
vt 0.48872895833333335 0.7561925
vt 0.460918125 0.9609375
vt 0.5114885416666667 0.7538775
vt 0.5618697916666667 0.764371875
vt 0.563208125 0.942299375
vt 0.5387502083333333 0.9679975
vn -0.7808688094430304 0 -0.6246950475544244
vn 0.7808688094430304 0 -0.6246950475544242
vn -0.7808688094430304 0 -0.6246950475544243
vn 0.7808688094430304 0 -0.6246950475544242
vn -0.7808688094430305 0 -0.6246950475544244
vn 0.7808688094430305 0 -0.6246950475544242
vn -0.7808688094430305 0 -0.6246950475544244
vn 0.7808688094430305 0 -0.6246950475544242
vn 0.7808688094430305 0 -0.6246950475544242
vn -0.7808688094430305 0 -0.6246950475544244
vn -0.7808688094430305 0 -0.6246950475544244
vn 0.7808688094430305 0 -0.6246950475544242
usemtl m_cdb58b3e-8da2-8a25-0c37-1320fc7bf8d6
f 397/925/232 396/926/232 395/927/232 398/928/232
f 400/929/233 399/930/233 397/931/233 398/932/233
f 413/933/234 411/934/234 401/935/234 402/936/234
f 416/937/235 413/938/235 402/939/235 403/940/235
f 402/941/236 401/942/236 404/943/236 405/944/236
f 403/945/237 402/946/237 405/947/237 406/948/237
f 405/949/238 404/950/238 407/951/238 408/952/238
f 406/953/239 405/954/239 408/955/239 409/956/239
f 409/957/240 408/958/240 397/959/240 399/960/240
f 410/961/241 407/962/241 396/963/241 397/964/241
f 412/965/242 411/966/242 413/967/242 414/968/242
f 413/969/243 416/970/243 415/971/243 414/972/243
o column1
v 0.4 1 -0.1
v 0.4 0.7999999999999999 -0.1
v 0.525 0.7999999999999999 0
v 0.4 1 0
v 0.4 0.7999999999999999 0.09999999999999998
v 0.4 1 0.09999999999999998
v 0.4 0.5 -0.1
v 0.525 0.5 0
v 0.4 0.5 0.09999999999999998
v 0.4 0.6 -0.1
v 0.525 0.6 0
v 0.4 0.6 0.09999999999999998
v 0.4 0.7 -0.1
v 0.525 0.7 0
v 0.4 0.7 0.09999999999999998
v 0.525 0.7 0
v 0.4 0.3999999999999999 -0.1
v 0.4 0.19999999999999996 -0.1
v 0.525 0.3999999999999999 0
v 0.4 0.19999999999999996 0
v 0.4 0.19999999999999996 0.09999999999999998
v 0.4 0.3999999999999999 0.09999999999999998
vt 0.48872895833333335 0.7561925
vt 0.4373329166666667 0.7662275000000001
vt 0.4359677083333333 0.936365
vt 0.460918125 0.9609375
vt 0.563208125 0.942299375
vt 0.5618697916666667 0.764371875
vt 0.5114885416666667 0.7538775
vt 0.5387502083333333 0.9679975
vt 0.5 0.125
vt 0.4479166666666667 0.125
vt 0.4479166666666667 0.21875
vt 0.5 0.21875
vt 0.5520833333333334 0.125
vt 0.5 0.125
vt 0.5 0.21875
vt 0.5520833333333334 0.21875
vt 0.5 0.21875
vt 0.4479166666666667 0.21875
vt 0.4479166666666667 0.3125
vt 0.5 0.3125
vt 0.5520833333333334 0.21875
vt 0.5 0.21875
vt 0.5 0.3125
vt 0.5520833333333334 0.3125
vt 0.5 0.3125
vt 0.4479166666666667 0.3125
vt 0.4479166666666667 0.40625
vt 0.5 0.40625
vt 0.5520833333333334 0.3125
vt 0.5 0.3125
vt 0.5 0.40625
vt 0.5520833333333334 0.40625
vt 0.5520833333333334 0.40625
vt 0.5 0.40625
vt 0.5 0.5
vt 0.5520833333333334 0.5
vt 0.5 0.40625
vt 0.4479166666666667 0.40625
vt 0.4479166666666667 0.5
vt 0.5 0.5
vt 0.4359677083333333 0.936365
vt 0.4373329166666667 0.7662275000000001
vt 0.48872895833333335 0.7561925
vt 0.460918125 0.9609375
vt 0.5114885416666667 0.7538775
vt 0.5618697916666667 0.764371875
vt 0.563208125 0.942299375
vt 0.5387502083333333 0.9679975
vn 0.6246950475544244 0 -0.7808688094430304
vn 0.6246950475544242 0 0.7808688094430304
vn 0.6246950475544243 0 -0.7808688094430304
vn 0.6246950475544242 0 0.7808688094430304
vn 0.6246950475544244 0 -0.7808688094430305
vn 0.6246950475544242 0 0.7808688094430305
vn 0.6246950475544244 0 -0.7808688094430305
vn 0.6246950475544242 0 0.7808688094430305
vn 0.6246950475544242 0 0.7808688094430305
vn 0.6246950475544244 0 -0.7808688094430305
vn 0.6246950475544244 0 -0.7808688094430305
vn 0.6246950475544242 0 0.7808688094430305
usemtl m_cdb58b3e-8da2-8a25-0c37-1320fc7bf8d6
f 419/973/244 418/974/244 417/975/244 420/976/244
f 422/977/245 421/978/245 419/979/245 420/980/245
f 435/981/246 433/982/246 423/983/246 424/984/246
f 438/985/247 435/986/247 424/987/247 425/988/247
f 424/989/248 423/990/248 426/991/248 427/992/248
f 425/993/249 424/994/249 427/995/249 428/996/249
f 427/997/250 426/998/250 429/999/250 430/1000/250
f 428/1001/251 427/1002/251 430/1003/251 431/1004/251
f 431/1005/252 430/1006/252 419/1007/252 421/1008/252
f 432/1009/253 429/1010/253 418/1011/253 419/1012/253
f 434/1013/254 433/1014/254 435/1015/254 436/1016/254
f 435/1017/255 438/1018/255 437/1019/255 436/1020/255
o column2
v 0.1 1 0.4
v 0.1 0.7999999999999999 0.4
v 0 0.7999999999999999 0.525
v 0 1 0.4
v -0.09999999999999998 0.7999999999999999 0.4
v -0.09999999999999998 1 0.4
v 0.1 0.5 0.4
v 0 0.5 0.525
v -0.09999999999999998 0.5 0.4
v 0.1 0.6 0.4
v 0 0.6 0.525
v -0.09999999999999998 0.6 0.4
v 0.1 0.7 0.4
v 0 0.7 0.525
v -0.09999999999999998 0.7 0.4
v 0 0.7 0.525
v 0.1 0.3999999999999999 0.4
v 0.1 0.19999999999999996 0.4
v 0 0.3999999999999999 0.525
v 0 0.19999999999999996 0.4
v -0.09999999999999998 0.19999999999999996 0.4
v -0.09999999999999998 0.3999999999999999 0.4
vt 0.48872895833333335 0.7561925
vt 0.4373329166666667 0.7662275000000001
vt 0.4359677083333333 0.936365
vt 0.460918125 0.9609375
vt 0.563208125 0.942299375
vt 0.5618697916666667 0.764371875
vt 0.5114885416666667 0.7538775
vt 0.5387502083333333 0.9679975
vt 0.5 0.125
vt 0.4479166666666667 0.125
vt 0.4479166666666667 0.21875
vt 0.5 0.21875
vt 0.5520833333333334 0.125
vt 0.5 0.125
vt 0.5 0.21875
vt 0.5520833333333334 0.21875
vt 0.5 0.21875
vt 0.4479166666666667 0.21875
vt 0.4479166666666667 0.3125
vt 0.5 0.3125
vt 0.5520833333333334 0.21875
vt 0.5 0.21875
vt 0.5 0.3125
vt 0.5520833333333334 0.3125
vt 0.5 0.3125
vt 0.4479166666666667 0.3125
vt 0.4479166666666667 0.40625
vt 0.5 0.40625
vt 0.5520833333333334 0.3125
vt 0.5 0.3125
vt 0.5 0.40625
vt 0.5520833333333334 0.40625
vt 0.5520833333333334 0.40625
vt 0.5 0.40625
vt 0.5 0.5
vt 0.5520833333333334 0.5
vt 0.5 0.40625
vt 0.4479166666666667 0.40625
vt 0.4479166666666667 0.5
vt 0.5 0.5
vt 0.4359677083333333 0.936365
vt 0.4373329166666667 0.7662275000000001
vt 0.48872895833333335 0.7561925
vt 0.460918125 0.9609375
vt 0.5114885416666667 0.7538775
vt 0.5618697916666667 0.764371875
vt 0.563208125 0.942299375
vt 0.5387502083333333 0.9679975
vn 0.7808688094430304 0 0.6246950475544244
vn -0.7808688094430304 0 0.6246950475544242
vn 0.7808688094430304 0 0.6246950475544243
vn -0.7808688094430304 0 0.6246950475544242
vn 0.7808688094430305 0 0.6246950475544244
vn -0.7808688094430305 0 0.6246950475544242
vn 0.7808688094430305 0 0.6246950475544244
vn -0.7808688094430305 0 0.6246950475544242
vn -0.7808688094430305 0 0.6246950475544242
vn 0.7808688094430305 0 0.6246950475544244
vn 0.7808688094430305 0 0.6246950475544244
vn -0.7808688094430305 0 0.6246950475544242
usemtl m_cdb58b3e-8da2-8a25-0c37-1320fc7bf8d6
f 441/1021/256 440/1022/256 439/1023/256 442/1024/256
f 444/1025/257 443/1026/257 441/1027/257 442/1028/257
f 457/1029/258 455/1030/258 445/1031/258 446/1032/258
f 460/1033/259 457/1034/259 446/1035/259 447/1036/259
f 446/1037/260 445/1038/260 448/1039/260 449/1040/260
f 447/1041/261 446/1042/261 449/1043/261 450/1044/261
f 449/1045/262 448/1046/262 451/1047/262 452/1048/262
f 450/1049/263 449/1050/263 452/1051/263 453/1052/263
f 453/1053/264 452/1054/264 441/1055/264 443/1056/264
f 454/1057/265 451/1058/265 440/1059/265 441/1060/265
f 456/1061/266 455/1062/266 457/1063/266 458/1064/266
f 457/1065/267 460/1066/267 459/1067/267 458/1068/267
o side4_selection
v 0.10000000000000003 0.7999999999999999 0.4
v 0.30000000000000004 0.7999999999999999 0.4
v 0.30000000000000004 1 0.4
v 0.10000000000000003 1 0.4
v -0.3 0.7999999999999999 0.4
v -0.1 0.7999999999999999 0.4
v -0.1 1 0.4
v -0.3 1 0.4
v 0.1 0.2 0.4
v 0.3 0.2 0.4
v 0.3 0.41875 0.4
v 0.1 0.41875 0.4
v -0.3 0.2 0.4
v -0.1 0.2 0.4
v -0.1 0.41875 0.4
v -0.3 0.41875 0.4
vt 0.3541666666666667 1
vt 0.42083333333333334 1
vt 0.42083333333333334 0.78125
vt 0.3541666666666667 0.78125
vt 0.65 1
vt 0.5833333333333334 1
vt 0.5833333333333334 0.78125
vt 0.65 0.78125
vt 0.3645833333333333 0.24375000000000002
vt 0.43124999999999997 0.24375000000000002
vt 0.43124999999999997 0.625
vt 0.3645833333333333 0.625
vt 0.5729166666666666 0.25
vt 0.6354166666666666 0.25
vt 0.6354166666666666 0.625
vt 0.5729166666666666 0.625
vt 0.3541666666666667 0.78125
vt 0.42083333333333334 0.78125
vt 0.42083333333333334 1
vt 0.3541666666666667 1
vt 0.5833333333333334 0.78125
vt 0.65 0.78125
vt 0.65 1
vt 0.5833333333333334 1
vn 0 0 1
vn 0 0 1
vn 0 0 1
vn 0 0 1
vn 0 0 1
vn 0 0 1
usemtl m_cdb58b3e-8da2-8a25-0c37-1320fc7bf8d6
f 465/1069/268 466/1070/268 467/1071/268 468/1072/268
f 461/1073/269 462/1074/269 463/1075/269 464/1076/269
f 476/1077/270 475/1078/270 466/1079/270 465/1080/270
f 472/1081/271 471/1082/271 462/1083/271 461/1084/271
f 473/1085/272 474/1086/272 475/1087/272 476/1088/272
f 469/1089/273 470/1090/273 471/1091/273 472/1092/273
o side4_selection
v -0.4 0.7999999999999999 0.10000000000000003
v -0.4 0.7999999999999999 0.30000000000000004
v -0.4 1 0.30000000000000004
v -0.4 1 0.10000000000000003
v -0.4 0.7999999999999999 -0.3
v -0.4 0.7999999999999999 -0.1
v -0.4 1 -0.1
v -0.4 1 -0.3
v -0.4 0.2 0.1
v -0.4 0.2 0.3
v -0.4 0.41875 0.3
v -0.4 0.41875 0.1
v -0.4 0.2 -0.3
v -0.4 0.2 -0.1
v -0.4 0.41875 -0.1
v -0.4 0.41875 -0.3
vt 0.3541666666666667 1
vt 0.42083333333333334 1
vt 0.42083333333333334 0.78125
vt 0.3541666666666667 0.78125
vt 0.65 1
vt 0.5833333333333334 1
vt 0.5833333333333334 0.78125
vt 0.65 0.78125
vt 0.3645833333333333 0.24375000000000002
vt 0.43124999999999997 0.24375000000000002
vt 0.43124999999999997 0.625
vt 0.3645833333333333 0.625
vt 0.5729166666666666 0.25
vt 0.6354166666666666 0.25
vt 0.6354166666666666 0.625
vt 0.5729166666666666 0.625
vt 0.3541666666666667 0.78125
vt 0.42083333333333334 0.78125
vt 0.42083333333333334 1
vt 0.3541666666666667 1
vt 0.5833333333333334 0.78125
vt 0.65 0.78125
vt 0.65 1
vt 0.5833333333333334 1
vn -1 0 0
vn -1 0 0
vn -1 0 0
vn -1 0 0
vn -1 0 0
vn -1 0 0
usemtl m_cdb58b3e-8da2-8a25-0c37-1320fc7bf8d6
f 481/1093/274 482/1094/274 483/1095/274 484/1096/274
f 477/1097/275 478/1098/275 479/1099/275 480/1100/275
f 492/1101/276 491/1102/276 482/1103/276 481/1104/276
f 488/1105/277 487/1106/277 478/1107/277 477/1108/277
f 489/1109/278 490/1110/278 491/1111/278 492/1112/278
f 485/1113/279 486/1114/279 487/1115/279 488/1116/279