# Made in Blockbench 5.1.6
mtllib MatrixAbsorber.mtl

o mesh_selection
v 0.25 0.75 -0.5
v 0.25 0.8125 -0.5
v 0.375 0.8125 -0.5
v 0.375 0.75 -0.5
v 0.375 0.8125 -0.5
v 0.5 0.8125 -0.5
v 0.5 0.75 -0.5
v 0.375 0.125 -0.5
v 0.375 0.75 -0.5
v 0.5 0.75 -0.5
v 0.5 0.125 -0.5
v -0.5 0.125 -0.5
v 0.5 0.125 -0.5
v -0.5 0 -0.5
v 0.5 0 -0.5
v -0.375 0.25 -0.5
v 0.375 0.25 -0.5
v 0.375 0.125 -0.5
v -0.375 0.125 -0.5
v -0.5 0.125 -0.5
v -0.5 0.75 -0.5
v -0.375 0.75 -0.5
v -0.375 0.125 -0.5
v -0.375 0.8125 -0.5
v -0.25 0.8125 -0.5
v -0.25 0.75 -0.5
v -0.375 0.75 -0.5
v -0.5 0.8125 -0.5
v -0.375 0.8125 -0.5
v -0.375 0.75 -0.5
v -0.5 0.75 -0.5
v -0.25 0.75 -0.5
v -0.0625 0.6875 -0.5
v -0.0625 0.5625 -0.5
v -0.25 0.5625 -0.5
v 0.0625 0.6875 -0.5
v 0.0625 0.5625 -0.5
v -0.0625 0.5625 -0.5
v 0.25 0.75 -0.5
v 0.25 0.5625 -0.5
v 0.0625 0.5625 -0.5
v 0.125 0.5625 -0.5
v 0.25 0.5625 -0.5
v 0.25 0.25 -0.5
v 0.125 0.25 -0.5
v -0.25 0.5625 -0.5
v -0.125 0.5625 -0.5
v -0.125 0.25 -0.5
v -0.25 0.25 -0.5
v 0.125 0.5625 0.375
v 0.25 0.5625 0.375
v 0.25 0.25 0.375
v 0.125 0.25 0.375
v 0.0625 0.6875 0.375
v 0.25 0.75 0.375
v 0.0625 0.5625 0.375
v -0.0625 0.6875 0.375
v -0.0625 0.5625 0.375
v -0.25 0.75 0.375
v -0.25 0.5625 0.375
v -0.125 0.5625 0.375
v -0.125 0.25 0.375
v -0.25 0.25 0.375
vt 0.25 0.125
vt 0.25 0.75
vt 0.21875 0.75
vt 0.21875 0.125
vt 0.25 0.8125
vt 0.21875 0.8125
vt 0.21875 0.75
vt 0.25 0.75
vt 0.21875 0.8125
vt 0.1875 0.8125
vt 0.1875 0.75
vt 0.21875 0.75
vt 0.21875 0.78125
vt 0.171875 0.71875
vt 0.171875 0.59375
vt 0.21875 0.59375
vt 0.171875 0.71875
vt 0.140625 0.71875
vt 0.140625 0.59375
vt 0.171875 0.59375
vt 0.140625 0.71875
vt 0.1015625 0.78125
vt 0.1015625 0.59375
vt 0.140625 0.59375
vt 0.0625 0.75
vt 0.0625 0.8125
vt 0.03125 0.8125
vt 0.03125 0.75
vt 0.03125 0.75
vt 0.03125 0.8125
vt 0 0.8125
vt 0 0.75
vt 0.03125 0.125
vt 0.03125 0.75
vt 0 0.75
vt 0 0.125
vt 0.25 0
vt 0.25 0.125
vt 0 0.125
vt 0 0
vt 0.21875 0.25
vt 0.03125 0.25
vt 0.03125 0.125
vt 0.21875 0.125
vt 0.1328125 0.84375
vt 0.1015625 0.84375
vt 0.1015625 0.53125
vt 0.1328125 0.53125
vt 0.171875 0.84375
vt 0.140625 0.84375
vt 0.140625 0.53125
vt 0.171875 0.53125
vt 0.21875 0.78125
vt 0.171875 0.71875
vt 0.171875 0.59375
vt 0.21875 0.59375
vt 0.171875 0.71875
vt 0.140625 0.71875
vt 0.140625 0.59375
vt 0.171875 0.59375
vt 0.140625 0.71875
vt 0.1015625 0.78125
vt 0.1015625 0.59375
vt 0.140625 0.59375
vt 0.1328125 0.84375
vt 0.1015625 0.84375
vt 0.1015625 0.53125
vt 0.1328125 0.53125
vt 0.171875 0.84375
vt 0.140625 0.84375
vt 0.140625 0.53125
vt 0.171875 0.53125
vn 0 0 -1
vn 0 0 -1
vn 0 0 -1
vn 0 0 -1
vn 0 0 -1
vn 0 0 -1
vn 0 0 -1
vn 0 0 -1
vn 0 0 -1
vn 0 0 -1
vn 0 0 -1
vn 0 0 -1
vn 0 0 -1
vn 0 0 -1
vn 0 0 -1
vn 0 0 -1
vn 0 0 -1
vn 0 0 -1
usemtl m_2d6b619e-58ea-d0a8-a3ee-244570b56f39
f 20/1/1 21/2/1 22/3/1 23/4/1
f 28/5/2 29/6/2 30/7/2 31/8/2
f 24/9/3 25/10/3 26/11/3 27/12/3
f 32/13/4 33/14/4 34/15/4 35/16/4
f 33/17/5 36/18/5 37/19/5 38/20/5
f 36/21/6 39/22/6 40/23/6 41/24/6
f 1/25/7 2/26/7 3/27/7 4/28/7
f 4/29/8 5/30/8 6/31/8 7/32/8
f 8/33/9 9/34/9 10/35/9 11/36/9
f 14/37/10 12/38/10 13/39/10 15/40/10
f 16/41/11 17/42/11 18/43/11 19/44/11
f 42/45/12 43/46/12 44/47/12 45/48/12
f 46/49/13 47/50/13 48/51/13 49/52/13
f 59/53/14 57/54/14 58/55/14 60/56/14
f 57/57/15 54/58/15 56/59/15 58/60/15
f 54/61/16 55/62/16 51/63/16 56/64/16
f 50/65/17 51/66/17 52/67/17 53/68/17
f 60/69/18 61/70/18 62/71/18 63/72/18
o mesh_selection
v 0.5 0.75 0.25
v 0.5 0.8125 0.25
v 0.5 0.8125 0.375
v 0.5 0.75 0.375
v 0.5 0.8125 0.375
v 0.5 0.8125 0.5
v 0.5 0.75 0.5
v 0.5 0.125 0.375
v 0.5 0.75 0.375
v 0.5 0.75 0.5
v 0.5 0.125 0.5
v 0.5 0.125 -0.5
v 0.5 0.125 0.5
v 0.5 0 -0.5
v 0.5 0 0.5
v 0.5 0.25 -0.375
v 0.5 0.25 0.375
v 0.5 0.125 0.375
v 0.5 0.125 -0.375
v 0.5 0.125 -0.5
v 0.5 0.75 -0.5
v 0.5 0.75 -0.375
v 0.5 0.125 -0.375
v 0.5 0.8125 -0.375
v 0.5 0.8125 -0.25
v 0.5 0.75 -0.25
v 0.5 0.75 -0.375
v 0.5 0.8125 -0.5
v 0.5 0.8125 -0.375
v 0.5 0.75 -0.375
v 0.5 0.75 -0.5
v 0.5 0.75 -0.25
v 0.5 0.6875 -0.0625
v 0.5 0.5625 -0.0625
v 0.5 0.5625 -0.25
v 0.5 0.6875 0.0625
v 0.5 0.5625 0.0625
v 0.5 0.5625 -0.0625
v 0.5 0.75 0.25
v 0.5 0.5625 0.25
v 0.5 0.5625 0.0625
v 0.5 0.5625 0.125
v 0.5 0.5625 0.25
v 0.5 0.25 0.25
v 0.5 0.25 0.125
v 0.5 0.5625 -0.25
v 0.5 0.5625 -0.125
v 0.5 0.25 -0.125
v 0.5 0.25 -0.25
v -0.375 0.5625 0.125
v -0.375 0.5625 0.25
v -0.375 0.25 0.25
v -0.375 0.25 0.125
v -0.375 0.6875 0.0625
v -0.375 0.75 0.25
v -0.375 0.5625 0.0625
v -0.375 0.6875 -0.0625
v -0.375 0.5625 -0.0625
v -0.375 0.75 -0.25
v -0.375 0.5625 -0.25
v -0.375 0.5625 -0.125
v -0.375 0.25 -0.125
v -0.375 0.25 -0.25
vt 0.25 0.125
vt 0.25 0.75
vt 0.21875 0.75
vt 0.21875 0.125
vt 0.25 0.8125
vt 0.21875 0.8125
vt 0.21875 0.75
vt 0.25 0.75
vt 0.21875 0.8125
vt 0.1875 0.8125
vt 0.1875 0.75
vt 0.21875 0.75
vt 0.21875 0.78125
vt 0.171875 0.71875
vt 0.171875 0.59375
vt 0.21875 0.59375
vt 0.171875 0.71875
vt 0.140625 0.71875
vt 0.140625 0.59375
vt 0.171875 0.59375
vt 0.140625 0.71875
vt 0.1015625 0.78125
vt 0.1015625 0.59375
vt 0.140625 0.59375
vt 0.0625 0.75
vt 0.0625 0.8125
vt 0.03125 0.8125
vt 0.03125 0.75
vt 0.03125 0.75
vt 0.03125 0.8125
vt 0 0.8125
vt 0 0.75
vt 0.03125 0.125
vt 0.03125 0.75
vt 0 0.75
vt 0 0.125
vt 0.25 0
vt 0.25 0.125
vt 0 0.125
vt 0 0
vt 0.21875 0.25
vt 0.03125 0.25
vt 0.03125 0.125
vt 0.21875 0.125
vt 0.1328125 0.84375
vt 0.1015625 0.84375
vt 0.1015625 0.53125
vt 0.1328125 0.53125
vt 0.171875 0.84375
vt 0.140625 0.84375
vt 0.140625 0.53125
vt 0.171875 0.53125
vt 0.21875 0.78125
vt 0.171875 0.71875
vt 0.171875 0.59375
vt 0.21875 0.59375
vt 0.171875 0.71875
vt 0.140625 0.71875
vt 0.140625 0.59375
vt 0.171875 0.59375
vt 0.140625 0.71875
vt 0.1015625 0.78125
vt 0.1015625 0.59375
vt 0.140625 0.59375
vt 0.1328125 0.84375
vt 0.1015625 0.84375
vt 0.1015625 0.53125
vt 0.1328125 0.53125
vt 0.171875 0.84375
vt 0.140625 0.84375
vt 0.140625 0.53125
vt 0.171875 0.53125
vn 1 0 0
vn 1 0 0
vn 1 0 0
vn 1 0 0
vn 1 0 0
vn 1 0 0
vn 1 0 0
vn 1 0 0
vn 1 0 0
vn 1 0 0
vn 1 0 0
vn 1 0 0
vn 1 0 0
vn 1 0 0
vn 1 0 0
vn 1 0 0
vn 1 0 0
vn 1 0 0
usemtl m_2d6b619e-58ea-d0a8-a3ee-244570b56f39
f 83/73/19 84/74/19 85/75/19 86/76/19
f 91/77/20 92/78/20 93/79/20 94/80/20
f 87/81/21 88/82/21 89/83/21 90/84/21
f 95/85/22 96/86/22 97/87/22 98/88/22
f 96/89/23 99/90/23 100/91/23 101/92/23
f 99/93/24 102/94/24 103/95/24 104/96/24
f 64/97/25 65/98/25 66/99/25 67/100/25
f 67/101/26 68/102/26 69/103/26 70/104/26
f 71/105/27 72/106/27 73/107/27 74/108/27
f 77/109/28 75/110/28 76/111/28 78/112/28
f 79/113/29 80/114/29 81/115/29 82/116/29
f 105/117/30 106/118/30 107/119/30 108/120/30
f 109/121/31 110/122/31 111/123/31 112/124/31
f 122/125/32 120/126/32 121/127/32 123/128/32
f 120/129/33 117/130/33 119/131/33 121/132/33
f 117/133/34 118/134/34 114/135/34 119/136/34
f 113/137/35 114/138/35 115/139/35 116/140/35
f 123/141/36 124/142/36 125/143/36 126/144/36
o mesh_selection
v -0.25 0.75 0.5
v -0.25 0.8125 0.5
v -0.375 0.8125 0.5
v -0.375 0.75 0.5
v -0.375 0.8125 0.5
v -0.5 0.8125 0.5
v -0.5 0.75 0.5
v -0.375 0.125 0.5
v -0.375 0.75 0.5
v -0.5 0.75 0.5
v -0.5 0.125 0.5
v 0.5 0.125 0.5
v -0.5 0.125 0.5
v 0.5 0 0.5
v -0.5 0 0.5
v 0.375 0.25 0.5
v -0.375 0.25 0.5
v -0.375 0.125 0.5
v 0.375 0.125 0.5
v 0.5 0.125 0.5
v 0.5 0.75 0.5
v 0.375 0.75 0.5
v 0.375 0.125 0.5
v 0.375 0.8125 0.5
v 0.25 0.8125 0.5
v 0.25 0.75 0.5
v 0.375 0.75 0.5
v 0.5 0.8125 0.5
v 0.375 0.8125 0.5
v 0.375 0.75 0.5
v 0.5 0.75 0.5
v 0.25 0.75 0.5
v 0.0625 0.6875 0.5
v 0.0625 0.5625 0.5
v 0.25 0.5625 0.5
v -0.0625 0.6875 0.5
v -0.0625 0.5625 0.5
v 0.0625 0.5625 0.5
v -0.25 0.75 0.5
v -0.25 0.5625 0.5
v -0.0625 0.5625 0.5
v -0.125 0.5625 0.5
v -0.25 0.5625 0.5
v -0.25 0.25 0.5
v -0.125 0.25 0.5
v 0.25 0.5625 0.5
v 0.125 0.5625 0.5
v 0.125 0.25 0.5
v 0.25 0.25 0.5
v -0.125 0.5625 -0.375
v -0.25 0.5625 -0.375
v -0.25 0.25 -0.375
v -0.125 0.25 -0.375
v -0.0625 0.6875 -0.375
v -0.25 0.75 -0.375
v -0.0625 0.5625 -0.375
v 0.0625 0.6875 -0.375
v 0.0625 0.5625 -0.375
v 0.25 0.75 -0.375
v 0.25 0.5625 -0.375
v 0.125 0.5625 -0.375
v 0.125 0.25 -0.375
v 0.25 0.25 -0.375
vt 0.25 0.125
vt 0.25 0.75
vt 0.21875 0.75
vt 0.21875 0.125
vt 0.25 0.8125
vt 0.21875 0.8125
vt 0.21875 0.75
vt 0.25 0.75
vt 0.21875 0.8125
vt 0.1875 0.8125
vt 0.1875 0.75
vt 0.21875 0.75
vt 0.21875 0.78125
vt 0.171875 0.71875
vt 0.171875 0.59375
vt 0.21875 0.59375
vt 0.171875 0.71875
vt 0.140625 0.71875
vt 0.140625 0.59375
vt 0.171875 0.59375
vt 0.140625 0.71875
vt 0.1015625 0.78125
vt 0.1015625 0.59375
vt 0.140625 0.59375
vt 0.0625 0.75
vt 0.0625 0.8125
vt 0.03125 0.8125
vt 0.03125 0.75
vt 0.03125 0.75
vt 0.03125 0.8125
vt 0 0.8125
vt 0 0.75
vt 0.03125 0.125
vt 0.03125 0.75
vt 0 0.75
vt 0 0.125
vt 0.25 0
vt 0.25 0.125
vt 0 0.125
vt 0 0
vt 0.21875 0.25
vt 0.03125 0.25
vt 0.03125 0.125
vt 0.21875 0.125
vt 0.1328125 0.84375
vt 0.1015625 0.84375
vt 0.1015625 0.53125
vt 0.1328125 0.53125
vt 0.171875 0.84375
vt 0.140625 0.84375
vt 0.140625 0.53125
vt 0.171875 0.53125
vt 0.21875 0.78125
vt 0.171875 0.71875
vt 0.171875 0.59375
vt 0.21875 0.59375
vt 0.171875 0.71875
vt 0.140625 0.71875
vt 0.140625 0.59375
vt 0.171875 0.59375
vt 0.140625 0.71875
vt 0.1015625 0.78125
vt 0.1015625 0.59375
vt 0.140625 0.59375
vt 0.1328125 0.84375
vt 0.1015625 0.84375
vt 0.1015625 0.53125
vt 0.1328125 0.53125
vt 0.171875 0.84375
vt 0.140625 0.84375
vt 0.140625 0.53125
vt 0.171875 0.53125
vn 0 0 1
vn 0 0 1
vn 0 0 1
vn 0 0 1
vn 0 0 1
vn 0 0 1
vn 0 0 1
vn 0 0 1
vn 0 0 1
vn 0 0 1
vn 0 0 1
vn 0 0 1
vn 0 0 1
vn 0 0 1
vn 0 0 1
vn 0 0 1
vn 0 0 1
vn 0 0 1
usemtl m_2d6b619e-58ea-d0a8-a3ee-244570b56f39
f 146/145/37 147/146/37 148/147/37 149/148/37
f 154/149/38 155/150/38 156/151/38 157/152/38
f 150/153/39 151/154/39 152/155/39 153/156/39
f 158/157/40 159/158/40 160/159/40 161/160/40
f 159/161/41 162/162/41 163/163/41 164/164/41
f 162/165/42 165/166/42 166/167/42 167/168/42
f 127/169/43 128/170/43 129/171/43 130/172/43
f 130/173/44 131/174/44 132/175/44 133/176/44
f 134/177/45 135/178/45 136/179/45 137/180/45
f 140/181/46 138/182/46 139/183/46 141/184/46
f 142/185/47 143/186/47 144/187/47 145/188/47
f 168/189/48 169/190/48 170/191/48 171/192/48
f 172/193/49 173/194/49 174/195/49 175/196/49
f 185/197/50 183/198/50 184/199/50 186/200/50
f 183/201/51 180/202/51 182/203/51 184/204/51
f 180/205/52 181/206/52 177/207/52 182/208/52
f 176/209/53 177/210/53 178/211/53 179/212/53
f 186/213/54 187/214/54 188/215/54 189/216/54
o mesh
v 0.5 0.75 0.5
v 0.5 0.75 0.375
v 0.5 0.125 0.5
v 0.5 0.125 0.375
v 0.375 0.75 0.5
v 0.375 0.75 0.375
v 0.375 0.125 0.5
v 0.375 0.125 0.375
vt 0.109375 0.28125
vt 0.109375 0.90625
vt 0.078125 0.90625
vt 0.078125 0.28125
vt 0 0.5
vt 0.125 0.5
vt 0.125 1
vt 0 1
vt 0.125 0.5
vt 0.125 1
vt 0 1
vt 0 0.5
vt 0.109375 0.90625
vt 0.078125 0.90625
vt 0.078125 0.28125
vt 0.109375 0.28125
vn -1 0 0
vn 0 1 0
vn 0 -1 0
vn 0 0 -1
usemtl m_2d6b619e-58ea-d0a8-a3ee-244570b56f39
f 196/217/55 194/218/55 195/219/55 197/220/55
f 194/221/56 190/222/56 191/223/56 195/224/56
f 193/225/57 192/226/57 196/227/57 197/228/57
f 195/229/58 191/230/58 193/231/58 197/232/58
o mesh
v 0.5 0.75 -0.375
v 0.5 0.75 -0.5
v 0.5 0.125 -0.375
v 0.5 0.125 -0.5
v 0.375 0.75 -0.375
v 0.375 0.75 -0.5
v 0.375 0.125 -0.375
v 0.375 0.125 -0.5
vt 0.109375 0.28125
vt 0.109375 0.90625
vt 0.078125 0.90625
vt 0.078125 0.28125
vt 0 0.5
vt 0.125 0.5
vt 0.125 1
vt 0 1
vt 0.125 0.5
vt 0.125 1
vt 0 1
vt 0 0.5
vt 0.109375 0.28125
vt 0.109375 0.90625
vt 0.078125 0.90625
vt 0.078125 0.28125
vn -1 0 0
vn 0 1 0
vn 0 -1 0
vn 0 0 1
usemtl m_2d6b619e-58ea-d0a8-a3ee-244570b56f39
f 204/233/59 202/234/59 203/235/59 205/236/59
f 202/237/60 198/238/60 199/239/60 203/240/60
f 201/241/61 200/242/61 204/243/61 205/244/61
f 200/245/62 198/246/62 202/247/62 204/248/62
o mesh
v 0.5 0.5625 -0.125
v 0.5 0.5625 -0.25
v 0.5 0.25 -0.125
v 0.5 0.25 -0.25
v 0.375 0.5625 -0.125
v 0.375 0.5625 -0.25
v 0.375 0.25 -0.125
v 0.375 0.25 -0.25
vt 0 0.5
vt 0.125 0.5
vt 0.125 1
vt 0 1
vt 0.125 0.5
vt 0.125 1
vt 0 1
vt 0 0.5
vt 0.109375 0.59375
vt 0.109375 0.90625
vt 0.078125 0.90625
vt 0.078125 0.59375
vt 0.109375 0.90625
vt 0.078125 0.90625
vt 0.078125 0.59375
vt 0.109375 0.59375
vn 0 1 0
vn 0 -1 0
vn 0 0 1
vn 0 0 -1
usemtl m_2d6b619e-58ea-d0a8-a3ee-244570b56f39
f 210/249/63 206/250/63 207/251/63 211/252/63
f 209/253/64 208/254/64 212/255/64 213/256/64
f 208/257/65 206/258/65 210/259/65 212/260/65
f 211/261/66 207/262/66 209/263/66 213/264/66
o mesh
v 0.5 0.5625 0.25
v 0.5 0.5625 0.125
v 0.5 0.25 0.25
v 0.5 0.25 0.125
v 0.375 0.5625 0.25
v 0.375 0.5625 0.125
v 0.375 0.25 0.25
v 0.375 0.25 0.125
vt 0 0.5
vt 0.125 0.5
vt 0.125 1
vt 0 1
vt 0.125 0.5
vt 0.125 1
vt 0 1
vt 0 0.5
vt 0.109375 0.59375
vt 0.109375 0.90625
vt 0.078125 0.90625
vt 0.078125 0.59375
vt 0.109375 0.90625
vt 0.078125 0.90625
vt 0.078125 0.59375
vt 0.109375 0.59375
vn 0 1 0
vn 0 -1 0
vn 0 0 1
vn 0 0 -1
usemtl m_2d6b619e-58ea-d0a8-a3ee-244570b56f39
f 218/265/67 214/266/67 215/267/67 219/268/67
f 217/269/68 216/270/68 220/271/68 221/272/68
f 216/273/69 214/274/69 218/275/69 220/276/69
f 219/277/70 215/278/70 217/279/70 221/280/70
o mesh
v 0.125 0.5625 0.5
v 0.25 0.5625 0.5
v 0.125 0.25 0.5
v 0.25 0.25 0.5
v 0.125 0.5625 0.375
v 0.25 0.5625 0.375
v 0.125 0.25 0.375
v 0.25 0.25 0.375
vt 0 0.5
vt 0.125 0.5
vt 0.125 1
vt 0 1
vt 0.125 0.5
vt 0.125 1
vt 0 1
vt 0 0.5
vt 0.109375 0.59375
vt 0.109375 0.90625
vt 0.078125 0.90625
vt 0.078125 0.59375
vt 0.109375 0.90625
vt 0.078125 0.90625
vt 0.078125 0.59375
vt 0.109375 0.59375
vn 0 1 0
vn 0 -1 0
vn -1 0 0
vn 1 0 0
usemtl m_2d6b619e-58ea-d0a8-a3ee-244570b56f39
f 226/281/71 222/282/71 223/283/71 227/284/71
f 225/285/72 224/286/72 228/287/72 229/288/72
f 224/289/73 222/290/73 226/291/73 228/292/73
f 227/293/74 223/294/74 225/295/74 229/296/74
o mesh
v -0.125 0.4375 0.5
v 0.125 0.4375 0.5
v -0.125 0.375 0.5
v 0.125 0.375 0.5
v -0.125 0.4375 0.375
v 0.125 0.4375 0.375
v -0.125 0.375 0.375
v 0.125 0.375 0.375
vt 0.171875 0.625
vt 0.109375 0.625
vt 0.109375 0.5625
vt 0.171875 0.5625
vt 0.125 0.75
vt 0.125 1
vt 0 1
vt 0 0.75
vt 0.0625 0.71875
vt 0.0625 0.59375
vt 0.125 0.59375
vt 0.125 0.71875
vt 0.125 0.71875
vt 0.0625 0.71875
vt 0.0625 0.59375
vt 0.125 0.59375
vt 0.125 0.75
vt 0.125 1
vt 0 1
vt 0 0.75
vt 0.125 1
vt 0 1
vt 0 0.75
vt 0.125 0.75
vn 0 0 1
vn 0 0 -1
vn 0 1 0
vn 0 -1 0
vn -1 0 0
vn 1 0 0
usemtl m_2d6b619e-58ea-d0a8-a3ee-244570b56f39
f 231/297/75 230/298/75 232/299/75 233/300/75
f 236/301/76 234/302/76 235/303/76 237/304/76
f 234/305/77 230/306/77 231/307/77 235/308/77
f 233/309/78 232/310/78 236/311/78 237/312/78
f 232/313/79 230/314/79 234/315/79 236/316/79
f 235/317/80 231/318/80 233/319/80 237/320/80
o mesh
v -0.25 0.5625 0.5
v -0.125 0.5625 0.5
v -0.25 0.25 0.5
v -0.125 0.25 0.5
v -0.25 0.5625 0.375
v -0.125 0.5625 0.375
v -0.25 0.25 0.375
v -0.125 0.25 0.375
vt 0 0.5
vt 0.125 0.5
vt 0.125 1
vt 0 1
vt 0.125 0.5
vt 0.125 1
vt 0 1
vt 0 0.5
vt 0.109375 0.59375
vt 0.109375 0.90625
vt 0.078125 0.90625
vt 0.078125 0.59375
vt 0.109375 0.90625
vt 0.078125 0.90625
vt 0.078125 0.59375
vt 0.109375 0.59375
vn 0 1 0
vn 0 -1 0
vn -1 0 0
vn 1 0 0
usemtl m_2d6b619e-58ea-d0a8-a3ee-244570b56f39
f 242/321/81 238/322/81 239/323/81 243/324/81
f 241/325/82 240/326/82 244/327/82 245/328/82
f 240/329/83 238/330/83 242/331/83 244/332/83
f 243/333/84 239/334/84 241/335/84 245/336/84
o mesh
v 0.25 0.75 0.5
v 0.0625 0.5625 0.5
v 0.25 0.5625 0.5
v 0.25 0.75 0.375
v 0.0625 0.5625 0.375
v 0.25 0.5625 0.375
v -0.0625 0.6875 0.5
v 0.0625 0.6875 0.5
v -0.0625 0.5625 0.5
v 0.0625 0.5625 0.5
v -0.0625 0.6875 0.375
v 0.0625 0.6875 0.375
v -0.0625 0.5625 0.375
v 0.0625 0.5625 0.375
v -0.25 0.75 0.5
v -0.25 0.5625 0.5
v -0.0625 0.5625 0.5
v -0.25 0.75 0.375
v -0.25 0.5625 0.375
v -0.0625 0.5625 0.375
v -0.375 0.75 0.5
v -0.375 0.75 0.375
v -0.375 0.125 0.5
v -0.375 0.125 0.375
v -0.5 0.75 0.5
v -0.5 0.75 0.375
v -0.5 0.125 0.5
v -0.5 0.125 0.375
v -0.375 0.8125 0.375
v -0.375 0.75 0.375
v -0.375 0.8125 0.5
v -0.375 0.8125 0.375
v -0.5 0.8125 0.375
v -0.375 0.75 0.375
v -0.5 0.75 0.375
v -0.375 0.8125 0.5
v -0.5 0.8125 0.5
v -0.5 0.75 0.5
v -0.375 0.8125 0.25
v -0.5 0.8125 0.25
v -0.5 0.75 0.25
v -0.375 0.8125 0.375
v -0.5 0.8125 0.375
v -0.375 0.75 0.375
v -0.5 0.75 0.375
v -0.375 0.75 0.5
v -0.25 0.75 0.5
v -0.25 0.75 0.375
v -0.375 0.75 0.25
v -0.5 0.75 0.25
v -0.5 0.5625 0.0625
v -0.5 0.5625 0.25
v -0.375 0.75 0.25
v -0.375 0.5625 0.0625
v -0.375 0.5625 0.25
v -0.5 0.6875 -0.0625
v -0.5 0.6875 0.0625
v -0.5 0.5625 -0.0625
v -0.5 0.5625 0.0625
v -0.375 0.6875 -0.0625
v -0.375 0.6875 0.0625
v -0.375 0.5625 -0.0625
v -0.375 0.5625 0.0625
v -0.5 0.75 -0.25
v -0.5 0.5625 -0.25
v -0.5 0.5625 -0.0625
v -0.375 0.75 -0.25
v -0.375 0.5625 -0.25
v -0.375 0.5625 -0.0625
v -0.375 0.8125 -0.25
v -0.375 0.8125 -0.375
v -0.375 0.75 -0.375
v -0.5 0.8125 -0.25
v -0.5 0.8125 -0.375
v -0.375 0.8125 -0.375
v -0.375 0.8125 -0.5
v -0.375 0.75 -0.375
v -0.375 0.75 -0.5
v -0.5 0.8125 -0.375
v -0.5 0.8125 -0.5
v -0.5 0.75 -0.5
v -0.25 0.8125 -0.375
v -0.25 0.8125 -0.5
v -0.25 0.75 -0.5
v -0.375 0.8125 -0.375
v -0.375 0.8125 -0.5
v -0.375 0.75 -0.375
v -0.375 0.75 -0.5
v -0.5 0.75 -0.375
v -0.5 0.75 -0.25
v -0.375 0.75 -0.25
v -0.25 0.75 -0.375
v -0.375 0.75 -0.375
v -0.375 0.75 -0.5
v -0.375 0.125 -0.375
v -0.375 0.125 -0.5
v -0.5 0.75 -0.375
v -0.5 0.75 -0.5
v -0.5 0.125 -0.375
v -0.5 0.125 -0.5
v 0.5 0.125 0.5
v 0.5 0.125 -0.5
v 0.5 0 0.5
v 0.5 0 -0.5
v -0.5 0.125 0.5
v -0.5 0.125 -0.5
v -0.5 0 0.5
v -0.5 0 -0.5
v -0.5 0.25 -0.375
v -0.5 0.25 0.375
v -0.5 0.125 -0.375
v -0.5 0.125 0.375
v -0.375 0.25 -0.375
v -0.375 0.25 0.375
v -0.375 0.125 -0.375
v -0.375 0.125 0.375
v -0.5 0.5625 -0.25
v -0.5 0.5625 -0.125
v -0.5 0.25 -0.25
v -0.5 0.25 -0.125
v -0.375 0.5625 -0.25
v -0.375 0.5625 -0.125
v -0.375 0.25 -0.25
v -0.375 0.25 -0.125
v -0.5 0.5625 0.125
v -0.5 0.5625 0.25
v -0.5 0.25 0.125
v -0.5 0.25 0.25
v -0.375 0.5625 0.125
v -0.375 0.5625 0.25
v -0.375 0.25 0.125
v -0.375 0.25 0.25
v -0.25 0.75 -0.5
v -0.0625 0.5625 -0.5
v -0.25 0.5625 -0.5
v -0.25 0.75 -0.375
v -0.0625 0.5625 -0.375
v -0.25 0.5625 -0.375
v 0.0625 0.6875 -0.5
v -0.0625 0.6875 -0.5
v 0.0625 0.5625 -0.5
v -0.0625 0.5625 -0.5
v 0.0625 0.6875 -0.375
v -0.0625 0.6875 -0.375
v 0.0625 0.5625 -0.375
v -0.0625 0.5625 -0.375
v 0.25 0.75 -0.5
v 0.25 0.5625 -0.5
v 0.0625 0.5625 -0.5
v 0.25 0.75 -0.375
v 0.25 0.5625 -0.375
v 0.0625 0.5625 -0.375
v 0.5 0.75 -0.25
v 0.5 0.5625 -0.0625
v 0.5 0.5625 -0.25
v 0.5 0.6875 0.0625
v 0.5 0.6875 -0.0625
v 0.5 0.5625 0.0625
v 0.5 0.5625 -0.0625
v 0.5 0.75 0.25
v 0.5 0.5625 0.25
v 0.5 0.5625 0.0625
v 0.25 0.8125 -0.375
v 0.375 0.8125 -0.375
v 0.375 0.75 -0.375
v 0.25 0.8125 -0.5
v 0.375 0.8125 -0.5
v 0.375 0.8125 -0.375
v 0.5 0.8125 -0.375
v 0.375 0.75 -0.375
v 0.5 0.75 -0.375
v 0.375 0.8125 -0.5
v 0.5 0.8125 -0.5
v 0.5 0.75 -0.5
v 0.375 0.8125 -0.25
v 0.5 0.8125 -0.25
v 0.5 0.75 -0.25
v 0.375 0.8125 -0.375
v 0.5 0.8125 -0.375
v 0.375 0.75 -0.375
v 0.5 0.75 -0.375
v 0.375 0.75 -0.5
v 0.25 0.75 -0.5
v 0.25 0.75 -0.375
v 0.375 0.8125 0.375
v 0.375 0.75 0.375
v 0.5 0.8125 0.375
v 0.375 0.8125 0.375
v 0.375 0.8125 0.5
v 0.375 0.75 0.375
v 0.375 0.75 0.5
v 0.5 0.8125 0.375
v 0.5 0.75 0.5
v 0.25 0.8125 0.375
v 0.25 0.75 0.5
v 0.375 0.8125 0.375
v 0.375 0.8125 0.5
v 0.375 0.75 0.375
v 0.375 0.75 0.5
v 0.5 0.75 0.375
v 0.5 0.75 0.25
v 0.25 0.75 0.375
v 0.25 0.75 -0.375
v 0.25 0.75 -0.5
v 0.0625 0.6875 -0.5
v 0.0625 0.6875 -0.375
v -0.0625 0.6875 -0.5
v -0.0625 0.6875 -0.375
v -0.25 0.75 -0.5
v -0.25 0.75 -0.375
v -0.5 0.8125 -0.375
v -0.375 0.8125 -0.375
v -0.375 0.8125 -0.5
v -0.5 0.8125 -0.5
v -0.375 0.8125 -0.375
v -0.25 0.8125 -0.375
v -0.25 0.8125 -0.5
v -0.375 0.8125 -0.5
v -0.5 0.8125 -0.375
v -0.5 0.8125 -0.25
v -0.375 0.8125 -0.25
v -0.375 0.75 -0.25
v -0.5 0.75 -0.25
v -0.5 0.6875 -0.0625
v -0.375 0.6875 -0.0625
v -0.5 0.6875 0.0625
v -0.375 0.6875 0.0625
v -0.5 0.75 0.25
v -0.375 0.75 0.25
v -0.375 0.8125 0.5
v -0.375 0.8125 0.375
v -0.5 0.8125 0.375
v -0.5 0.8125 0.5
v -0.375 0.8125 0.375
v -0.375 0.8125 0.25
v -0.5 0.8125 0.25
v -0.5 0.8125 0.375
v -0.375 0.8125 0.5
v -0.25 0.8125 0.5
v -0.25 0.8125 0.375
v -0.25 0.75 0.375
v -0.25 0.75 0.5
v -0.0625 0.6875 0.5
v -0.0625 0.6875 0.375
v 0.0625 0.6875 0.5
v 0.0625 0.6875 0.375
v 0.25 0.75 0.5
v 0.25 0.75 0.375
v 0.5 0.8125 0.375
v 0.375 0.8125 0.375
v 0.375 0.8125 0.5
v 0.5 0.8125 0.5
v 0.375 0.8125 0.375
v 0.25 0.8125 0.375
v 0.25 0.8125 0.5
v 0.375 0.8125 0.5
v 0.5 0.8125 0.375
v 0.5 0.8125 0.25
v 0.375 0.8125 0.25
v 0.375 0.5625 -0.125
v 0.375 0.5625 -0.25
v 0.375 0.25 -0.25
v 0.375 0.25 -0.125
v 0.375 0.6875 -0.0625
v 0.375 0.75 -0.25
v 0.375 0.5625 -0.0625
v 0.375 0.6875 0.0625
v 0.375 0.5625 0.0625
v 0.375 0.75 0.25
v 0.375 0.5625 0.25
v 0.375 0.5625 0.125
v 0.375 0.25 0.125
v 0.375 0.25 0.25
vt 0.125 0.71875
vt 0.078125 0.71875
vt 0.078125 0.59375
vt 0.125 0.59375
vt 0.125 0.75
vt 0.125 1
vt 0 1
vt 0 0.75
vt 0.109375 0.84375
vt 0.078125 0.84375
vt 0.078125 0.65625
vt 0.109375 0.65625
vt 0.109375 0.71875
vt 0.078125 0.71875
vt 0.078125 0.59375
vt 0.109375 0.59375
vt 0.125 0.75
vt 0.125 1
vt 0 1
vt 0 0.75
vt 0.125 1
vt 0 1
vt 0 0.75
vt 0.125 0.75
vt 0.125 0.71875
vt 0.078125 0.71875
vt 0.078125 0.59375
vt 0.125 0.59375
vt 0.109375 0.65625
vt 0.109375 0.84375
vt 0.078125 0.84375
vt 0.078125 0.65625
vt 0.125 1
vt 0 1
vt 0 0.75
vt 0.125 0.75
vt 0.109375 0.90625
vt 0.078125 0.90625
vt 0.078125 0.28125
vt 0.109375 0.28125
vt 0.25 0.125
vt 0.25 0.75
vt 0.21875 0.75
vt 0.21875 0.125
vt 0 0.5
vt 0.125 0.5
vt 0.125 1
vt 0 1
vt 0.125 0.5
vt 0.125 1
vt 0 1
vt 0 0.5
vt 0.109375 0.90625
vt 0.078125 0.90625
vt 0.078125 0.28125
vt 0.109375 0.28125
vt 0.125 1
vt 0 1
vt 0 0.75
vt 0.125 0.75
vt 0.125 1
vt 0 1
vt 0 0.75
vt 0.125 0.75
vt 0.125 0.5
vt 0.125 1
vt 0 1
vt 0 0.5
vt 0.125 0.75
vt 0.125 1
vt 0 1
vt 0 0.75
vt 0.25 0.8125
vt 0.21875 0.8125
vt 0.21875 0.75
vt 0.25 0.75
vt 0.125 0.75
vt 0.125 1
vt 0 1
vt 0 0.75
vt 0.078125 0.59375
vt 0.109375 0.59375
vt 0.109375 0.71875
vt 0.078125 0.71875
vt 0.21875 0.8125
vt 0.1875 0.8125
vt 0.1875 0.75
vt 0.21875 0.75
vt 0.125 0.75
vt 0.125 1
vt 0 1
vt 0 0.75
vt 0 1
vt 0 1
vt 0 1
vt 0 1
vt 0.0625 0.78125
vt 0.0625 0.90625
vt 0.03125 0.90625
vt 0.03125 0.65625
vt 0.21875 0.78125
vt 0.171875 0.71875
vt 0.171875 0.59375
vt 0.21875 0.59375
vt 0.078125 0.71875
vt 0.078125 0.53125
vt 0.109375 0.53125
vt 0.109375 0.71875
vt 0.125 0.75
vt 0.125 1
vt 0 1
vt 0 0.75
vt 0.109375 0.84375
vt 0.078125 0.84375
vt 0.078125 0.65625
vt 0.109375 0.65625
vt 0.171875 0.71875
vt 0.140625 0.71875
vt 0.140625 0.59375
vt 0.171875 0.59375
vt 0.078125 0.71875
vt 0.078125 0.59375
vt 0.109375 0.59375
vt 0.109375 0.71875
vt 0.125 0.75
vt 0.125 1
vt 0 1
vt 0 0.75
vt 0.125 1
vt 0 1
vt 0 0.75
vt 0.125 0.75
vt 0.140625 0.71875
vt 0.1015625 0.78125
vt 0.1015625 0.59375
vt 0.140625 0.59375
vt 0.078125 0.71875
vt 0.078125 0.53125
vt 0.109375 0.53125
vt 0.109375 0.71875
vt 0.109375 0.65625
vt 0.109375 0.84375
vt 0.078125 0.84375
vt 0.078125 0.65625
vt 0.125 1
vt 0 1
vt 0 0.75
vt 0.125 0.75
vt 0.0625 0.75
vt 0.0625 0.8125
vt 0.03125 0.8125
vt 0.03125 0.75
vt 0.3515625 0.0625
vt 0.3515625 0.125
vt 0.3203125 0.125
vt 0.3203125 0.0625
vt 0.125 1
vt 0 1
vt 0 0.75
vt 0.125 0.75
vt 0.125 1
vt 0 1
vt 0 0.75
vt 0.125 0.75
vt 0.03125 0.75
vt 0.03125 0.8125
vt 0 0.8125
vt 0 0.75
vt 0.125 0.5
vt 0.125 1
vt 0 1
vt 0 0.5
vt 0.125 0.75
vt 0.125 1
vt 0 1
vt 0 0.75
vt 0.426953125 0.125
vt 0.395703125 0.125
vt 0.395703125 0.0625
vt 0.426953125 0.0625
vt 0.125 0.75
vt 0.125 1
vt 0 1
vt 0 0.75
vt 0.109375 0.59375
vt 0.109375 0.71875
vt 0.078125 0.71875
vt 0.078125 0.59375
vt 0.39575625 0.125
vt 0.3515625 0.125
vt 0.3515625 0.0625
vt 0.39575625 0.0625
vt 0.125 0.75
vt 0.125 1
vt 0 1
vt 0 0.75
vt 0 1
vt 0 1
vt 0 1
vt 0 1
vt 0.0625 0.90625
vt 0.03125 0.90625
vt 0.03125 0.78125
vt 0.09375 0.78125
vt 0.109375 0.90625
vt 0.078125 0.90625
vt 0.078125 0.28125
vt 0.109375 0.28125
vt 0.03125 0.125
vt 0.03125 0.75
vt 0 0.75
vt 0 0.125
vt 0 0.5
vt 0.125 0.5
vt 0.125 1
vt 0 1
vt 0.125 0.5
vt 0.125 1
vt 0 1
vt 0 0.5
vt 0.109375 0.28125
vt 0.109375 0.90625
vt 0.078125 0.90625
vt 0.078125 0.28125
vt 0.25 0
vt 0.25 0.125
vt 0 0.125
vt 0 0
vt 0 0.5
vt 0.125 0.5
vt 0.125 1
vt 0 1
vt 0.5 0
vt 0.5 1
vt 0.2578125 1
vt 0.2578125 0
vt 0.21875 0.25
vt 0.03125 0.25
vt 0.03125 0.125
vt 0.21875 0.125
vt 0.125 0.75
vt 0.125 1
vt 0 1
vt 0 0.75
vt 0.109375 0.90625
vt 0.078125 0.90625
vt 0.078125 0.15625
vt 0.109375 0.15625
vt 0.125 0.5
vt 0.125 1
vt 0 1
vt 0 0.5
vt 0.125 0.75
vt 0.125 1
vt 0 1
vt 0 0.75
vt 0.125 1
vt 0 1
vt 0 0.75
vt 0.125 0.75
vt 0.1328125 0.84375
vt 0.1015625 0.84375
vt 0.1015625 0.53125
vt 0.1328125 0.53125
vt 0 0.5
vt 0.125 0.5
vt 0.125 1
vt 0 1
vt 0.125 0.5
vt 0.125 1
vt 0 1
vt 0 0.5
vt 0.109375 0.59375
vt 0.109375 0.90625
vt 0.078125 0.90625
vt 0.078125 0.59375
vt 0.125 1
vt 0 1
vt 0 0.75
vt 0.125 0.75
vt 0.171875 0.84375
vt 0.140625 0.84375
vt 0.140625 0.53125
vt 0.171875 0.53125
vt 0 0.5
vt 0.125 0.5
vt 0.125 1
vt 0 1
vt 0.125 0.5
vt 0.125 1
vt 0 1
vt 0 0.5
vt 0.109375 0.59375
vt 0.109375 0.90625
vt 0.078125 0.90625
vt 0.078125 0.59375
vt 0.109375 0.90625
vt 0.078125 0.90625
vt 0.078125 0.59375
vt 0.109375 0.59375
vt 0.078125 0.59375
vt 0.125 0.59375
vt 0.125 0.71875
vt 0.078125 0.71875
vt 0.125 0.75
vt 0.125 1
vt 0 1
vt 0 0.75
vt 0.109375 0.84375
vt 0.078125 0.84375
vt 0.078125 0.65625
vt 0.109375 0.65625
vt 0.078125 0.59375
vt 0.109375 0.59375
vt 0.109375 0.71875
vt 0.078125 0.71875
vt 0.125 0.75
vt 0.125 1
vt 0 1
vt 0 0.75
vt 0.125 1
vt 0 1
vt 0 0.75
vt 0.125 0.75
vt 0.078125 0.59375
vt 0.125 0.59375
vt 0.125 0.71875
vt 0.078125 0.71875
vt 0.109375 0.65625
vt 0.109375 0.84375
vt 0.078125 0.84375
vt 0.078125 0.65625
vt 0.125 1
vt 0 1
vt 0 0.75
vt 0.125 0.75
vt 0.4609375 0.5625
vt 0.4921875 0.5625
vt 0.4921875 0.75
vt 0.4609375 0.75
vt 0.109375 0.53125
vt 0.109375 0.71875
vt 0.078125 0.71875
vt 0.078125 0.53125
vt 0.125 0.75
vt 0.125 1
vt 0 1
vt 0 0.75
vt 0.109375 0.84375
vt 0.078125 0.84375
vt 0.078125 0.65625
vt 0.109375 0.65625
vt 0.4609375 0.4375
vt 0.4921875 0.4375
vt 0.4921875 0.5625
vt 0.4609375 0.5625
vt 0.109375 0.59375
vt 0.109375 0.71875
vt 0.078125 0.71875
vt 0.078125 0.59375
vt 0.125 0.75
vt 0.125 1
vt 0 1
vt 0 0.75
vt 0.125 1
vt 0 1
vt 0 0.75
vt 0.125 0.75
vt 0.4609375 0.4375
vt 0.4921875 0.4375
vt 0.4921875 0.25
vt 0.4609375 0.25
vt 0.109375 0.53125
vt 0.109375 0.71875
vt 0.078125 0.71875
vt 0.078125 0.53125
vt 0.109375 0.65625
vt 0.109375 0.84375
vt 0.078125 0.84375
vt 0.078125 0.65625
vt 0.125 1
vt 0 1
vt 0 0.75
vt 0.125 0.75
vt 0.125 1
vt 0 1
vt 0 0.75
vt 0.125 0.75
vt 0.125 1
vt 0 1
vt 0 0.75
vt 0.125 0.75
vt 0.46875 1
vt 0.46875 0.875
vt 0.5 0.875
vt 0.5 1
vt 0.125 0.5
vt 0.125 1
vt 0 1
vt 0 0.5
vt 0.125 0.75
vt 0.125 1
vt 0 1
vt 0 0.75
vt 0.125 0.75
vt 0.125 1
vt 0 1
vt 0 0.75
vt 0.109375 0.71875
vt 0.078125 0.71875
vt 0.078125 0.59375
vt 0.109375 0.59375
vt 0.46875 0.875
vt 0.46875 0.75
vt 0.5 0.75
vt 0.5 0.875
vt 0.125 0.75
vt 0.125 1
vt 0 1
vt 0 0.75
vt 0.46875 1
vt 0.4375 1
vt 0.4375 0.875
vt 0.46875 0.75
vt 0 1
vt 0 1
vt 0 1
vt 0 1
vt 0.03125 0.78125
vt 0.03125 0.65625
vt 0.0625 0.65625
vt 0.0625 0.90625
vt 0.125 1
vt 0 1
vt 0 0.75
vt 0.125 0.75
vt 0.125 1
vt 0 1
vt 0 0.75
vt 0.125 0.75
vt 0.125 0.5
vt 0.125 1
vt 0 1
vt 0 0.5
vt 0.125 0.75
vt 0.125 1
vt 0 1
vt 0 0.75
vt 0.125 0.75
vt 0.125 1
vt 0 1
vt 0 0.75
vt 0.078125 0.71875
vt 0.078125 0.59375
vt 0.109375 0.59375
vt 0.109375 0.71875
vt 0.125 0.75
vt 0.125 1
vt 0 1
vt 0 0.75
vt 0 1
vt 0 1
vt 0 1
vt 0 1
vt 0.0625 0.78125
vt 0.09375 0.78125
vt 0.09375 0.90625
vt 0.03125 0.90625
vt 0.4609375 0.5625
vt 0.4921875 0.5625
vt 0.4921875 0.75
vt 0.4609375 0.75
vt 0.4609375 0.4375
vt 0.4921875 0.4375
vt 0.4921875 0.5625
vt 0.4609375 0.5625
vt 0.4609375 0.4375
vt 0.4921875 0.4375
vt 0.4921875 0.25
vt 0.4609375 0.25
vt 0.46875 1
vt 0.46875 0.875
vt 0.5 0.875
vt 0.5 1
vt 0.46875 0.875
vt 0.46875 0.75
vt 0.5 0.75
vt 0.5 0.875
vt 0.46875 1
vt 0.4375 1
vt 0.4375 0.875
vt 0.46875 0.75
vt 0.4609375 0.5625
vt 0.4921875 0.5625
vt 0.4921875 0.75
vt 0.4609375 0.75
vt 0.4609375 0.4375
vt 0.4921875 0.4375
vt 0.4921875 0.5625
vt 0.4609375 0.5625
vt 0.4609375 0.4375
vt 0.4921875 0.4375
vt 0.4921875 0.25
vt 0.4609375 0.25
vt 0.46875 1
vt 0.46875 0.875
vt 0.5 0.875
vt 0.5 1
vt 0.46875 0.875
vt 0.46875 0.75
vt 0.5 0.75
vt 0.5 0.875
vt 0.46875 1
vt 0.4375 1
vt 0.4375 0.875
vt 0.46875 0.75
vt 0.4609375 0.5625
vt 0.4921875 0.5625
vt 0.4921875 0.75
vt 0.4609375 0.75
vt 0.4609375 0.4375
vt 0.4921875 0.4375
vt 0.4921875 0.5625
vt 0.4609375 0.5625
vt 0.4609375 0.4375
vt 0.4921875 0.4375
vt 0.4921875 0.25
vt 0.4609375 0.25
vt 0.46875 1
vt 0.46875 0.875
vt 0.5 0.875
vt 0.5 1
vt 0.46875 0.875
vt 0.46875 0.75
vt 0.5 0.75
vt 0.5 0.875
vt 0.46875 1
vt 0.4375 1
vt 0.4375 0.875
vt 0.46875 0.75
vt 0.21875 0.78125
vt 0.171875 0.71875
vt 0.171875 0.59375
vt 0.21875 0.59375
vt 0.171875 0.71875
vt 0.140625 0.71875
vt 0.140625 0.59375
vt 0.171875 0.59375
vt 0.140625 0.71875
vt 0.1015625 0.78125
vt 0.1015625 0.59375
vt 0.140625 0.59375
vt 0.1328125 0.84375
vt 0.1015625 0.84375
vt 0.1015625 0.53125
vt 0.1328125 0.53125
vt 0.171875 0.84375
vt 0.140625 0.84375
vt 0.140625 0.53125
vt 0.171875 0.53125
vn 0 -1 0
vn -1 0 0
vn 1 0 0
vn 0 -1 0
vn -1 0 0
vn 1 0 0
vn 0 -1 0
vn -1 0 0
vn 1 0 0
vn 1 0 0
vn -1 0 0
vn 0 1 0
vn 0 -1 0
vn 0 0 -1
vn -1 0 0
vn 0 0 -1
vn 0 -1 0
vn 1 0 0
vn -1 0 0
vn 0 0 1
vn 0 -1 0
vn -1 0 0
vn 1 0 0
vn 0 0 0
vn 0 -1 0
vn -1 0 0
vn 0 -1 0
vn 0 0 -1
vn 0 0 1
vn -1 0 0
vn 0 -1 0
vn 0 0 -1
vn 0 0 1
vn -1 0 0
vn 0 -1 0
vn 0 0 -1
vn 0 0 1
vn -1 0 0
vn 0 0 1
vn 0 0 -1
vn 1 0 0
vn -1 0 0
vn 0 -1 0
vn 0 0 1
vn 1 0 0
vn -1 0 0
vn 0 -1 0
vn 0.7071067811865476 0 0.7071067811865476
vn 0 0 1
vn 0 0 0
vn 0 -1 0
vn 1 0 0
vn -1 0 0
vn 0 1 0
vn 0 -1 0
vn 0 0 1
vn -1 0 0
vn 0 1 0
vn 0 -1 0
vn -1 0 0
vn 1 0 0
vn 0 1 0
vn 0 -1 0
vn 0 0 -1
vn 0 0 1
vn -1 0 0
vn 0 1 0
vn 0 -1 0
vn 0 0 -1
vn 0 0 1
vn -1 0 0
vn 0 1 0
vn 0 -1 0
vn 0 0 -1
vn 0 0 1
vn 0 -1 0
vn 1 0 0
vn -1 0 0
vn 0 -1 0
vn 1 0 0
vn -1 0 0
vn 0 -1 0
vn 1 0 0
vn -1 0 0
vn 0 0.948683298050514 0.316227766016838
vn 0 -1 0
vn 0 0 1
vn 0 0 -1
vn 0 1 0
vn 0 -1 0
vn 0 0 1
vn 0 0 -1
vn 0 0.948683298050514 -0.316227766016838
vn 0 -1 0
vn 0 0 1
vn 0 0 -1
vn 1 0 0
vn 0 0 1
vn 0 1 0
vn 0 -1 0
vn -1 0 0
vn 0 0 -1
vn 0 -1 0
vn 0 1 0
vn -1 0 0
vn 0 1 0
vn 0 0 0
vn 0 -1 0
vn 0 0 1
vn -1 0 0
vn 0 -1 0
vn 0 0 -1
vn 1 0 0
vn 0 -1 0
vn 0 0 -1
vn 0 0 0
vn 0 -1 0
vn 0.316227766016838 0.948683298050514 0
vn 0 1 0
vn -0.316227766016838 0.948683298050514 0
vn 0 1 0
vn 0 1 0
vn 0 1 0
vn 0 0.948683298050514 -0.316227766016838
vn 0 1 0
vn 0 0.948683298050514 0.316227766016838
vn 0 1 0
vn 0 1 0
vn 0 1 0
vn -0.316227766016838 0.948683298050514 0
vn 0 1 0
vn 0.316227766016838 0.948683298050514 0
vn 0 1 0
vn 0 1 0
vn 0 1 0
vn -1 0 0
vn -1 0 0
vn -1 0 0
vn -1 0 0
vn -1 0 0
usemtl m_2d6b619e-58ea-d0a8-a3ee-244570b56f39
f 248/337/85 247/338/85 250/339/85 251/340/85
f 247/341/86 253/342/86 257/343/86 250/344/86
f 249/345/87 246/346/87 248/347/87 251/348/87
f 255/349/88 254/350/88 258/351/88 259/352/88
f 254/353/89 252/354/89 256/355/89 258/356/89
f 257/357/90 253/358/90 255/359/90 259/360/90
f 262/361/91 261/362/91 264/363/91 265/364/91
f 261/365/92 260/366/92 263/367/92 264/368/92
f 256/369/93 252/370/93 262/371/93 265/372/93
f 267/373/94 266/374/94 268/375/94 269/376/94
f 272/377/95 270/378/95 271/379/95 273/380/95
f 270/381/96 266/382/96 267/383/96 271/384/96
f 269/385/97 268/386/97 272/387/97 273/388/97
f 271/389/98 267/390/98 269/391/98 273/392/98
f 276/393/99 274/394/99 275/395/99 291/396/99
f 278/397/100 277/398/100 279/399/100 280/400/100
f 280/401/101 279/402/101 291/403/101 283/404/101
f 279/405/102 277/406/102 281/407/102 291/408/102
f 282/409/103 278/410/103 280/411/103 283/412/103
f 289/413/104 287/414/104 288/415/104 290/416/104
f 286/417/105 294/418/105 289/419/105 290/420/105
f 288/421/106 285/422/106 286/423/106 290/424/106
f 294/425/107 284/426/107 287/427/107 289/428/107
f 284/429/108 274/430/108 287/431/108 276/432/108
f 293/433/109 292/434/109 291/435/109 294/436/109
f 295/437/110 302/438/110 296/439/110 297/440/110
f 297/441/111 296/442/111 299/443/111 300/444/111
f 296/445/112 302/446/112 306/447/112 299/448/112
f 298/449/113 295/450/113 297/451/113 300/452/113
f 302/453/114 301/454/114 303/455/114 304/456/114
f 304/457/115 303/458/115 307/459/115 308/460/115
f 303/461/116 301/462/116 305/463/116 307/464/116
f 306/465/117 302/466/117 304/467/117 308/468/117
f 301/469/118 309/470/118 310/471/118 311/472/118
f 311/473/119 310/474/119 313/475/119 314/476/119
f 310/477/120 309/478/120 312/479/120 313/480/120
f 305/481/121 301/482/121 311/483/121 314/484/121
f 335/485/122 318/486/122 319/487/122 334/488/122
f 336/489/123 315/490/123 318/491/123 335/492/123
f 319/493/124 316/494/124 317/495/124 334/496/124
f 321/497/125 320/498/125 322/499/125 323/500/125
f 334/501/126 324/502/126 325/503/126 326/504/126
f 323/505/127 322/506/127 334/507/127 326/508/127
f 322/509/128 320/510/128 324/511/128 334/512/128
f 328/513/129 327/514/129 337/515/129 329/516/129
f 332/517/130 330/518/130 331/519/130 333/520/130
f 329/521/131 337/522/131 332/523/131 333/524/131
f 327/525/132 315/526/132 336/527/132 337/528/132
f 337/529/133 327/530/133 330/531/133 332/532/133
f 327/533/134 316/534/134 330/535/134 319/536/134
f 336/537/135 335/538/135 334/539/135 337/540/135
f 339/541/136 338/542/136 340/543/136 341/544/136
f 344/545/137 342/546/137 343/547/137 345/548/137
f 342/549/138 338/550/138 339/551/138 343/552/138
f 341/553/139 340/554/139 344/555/139 345/556/139
f 340/557/140 338/558/140 342/559/140 344/560/140
f 352/561/141 350/562/141 351/563/141 353/564/141
f 350/565/142 346/566/142 347/567/142 351/568/142
f 349/569/143 348/570/143 352/571/143 353/572/143
f 355/573/144 354/574/144 356/575/144 357/576/144
f 360/577/145 358/578/145 359/579/145 361/580/145
f 358/581/146 354/582/146 355/583/146 359/584/146
f 357/585/147 356/586/147 360/587/147 361/588/147
f 356/589/148 354/590/148 358/591/148 360/592/148
f 359/593/149 355/594/149 357/595/149 361/596/149
f 363/597/150 362/598/150 364/599/150 365/600/150
f 366/601/151 362/602/151 363/603/151 367/604/151
f 365/605/152 364/606/152 368/607/152 369/608/152
f 364/609/153 362/610/153 366/611/153 368/612/153
f 367/613/154 363/614/154 365/615/154 369/616/154
f 371/617/155 370/618/155 372/619/155 373/620/155
f 374/621/156 370/622/156 371/623/156 375/624/156
f 373/625/157 372/626/157 376/627/157 377/628/157
f 372/629/158 370/630/158 374/631/158 376/632/158
f 375/633/159 371/634/159 373/635/159 377/636/159
f 380/637/160 379/638/160 382/639/160 383/640/160
f 379/641/161 385/642/161 389/643/161 382/644/161
f 381/645/162 378/646/162 380/647/162 383/648/162
f 387/649/163 386/650/163 390/651/163 391/652/163
f 386/653/164 384/654/164 388/655/164 390/656/164
f 389/657/165 385/658/165 387/659/165 391/660/165
f 394/661/166 393/662/166 396/663/166 397/664/166
f 393/665/167 392/666/167 395/667/167 396/668/167
f 388/669/168 384/670/168 394/671/168 397/672/168
f 509/673/169 402/674/169 398/675/169 510/676/169
f 400/677/170 399/678/170 511/679/170 506/680/170
f 399/681/171 402/682/171 509/683/171 511/684/171
f 510/685/172 398/686/172 400/687/172 506/688/172
f 512/689/173 401/690/173 402/691/173 509/692/173
f 404/693/174 403/694/174 513/695/174 511/696/174
f 403/697/175 401/698/175 512/699/175 513/700/175
f 509/701/176 402/702/176 404/703/176 511/704/176
f 514/705/177 405/706/177 401/707/177 512/708/177
f 407/709/178 406/710/178 515/711/178 513/712/178
f 406/713/179 405/714/179 514/715/179 515/716/179
f 512/717/180 401/718/180 407/719/180 513/720/180
f 412/721/181 409/722/181 410/723/181 427/724/181
f 414/725/182 413/726/182 415/727/182 416/728/182
f 417/729/183 413/730/183 414/731/183 418/732/183
f 416/733/184 415/734/184 427/735/184 419/736/184
f 415/737/185 413/738/185 417/739/185 427/740/185
f 425/741/186 423/742/186 424/743/186 426/744/186
f 422/745/187 510/746/187 425/747/187 426/748/187
f 423/749/188 420/750/188 421/751/188 424/752/188
f 510/753/189 420/754/189 423/755/189 425/756/189
f 412/757/190 411/758/190 408/759/190 420/760/190
f 420/761/191 409/762/191 423/763/191 412/764/191
f 429/765/192 428/766/192 427/767/192 510/768/192
f 432/769/193 430/770/193 431/771/193 445/772/193
f 434/773/194 433/774/194 435/775/194 436/776/194
f 436/777/195 435/778/195 445/779/195 438/780/195
f 435/781/196 433/782/196 437/783/196 445/784/196
f 443/785/197 441/786/197 442/787/197 444/788/197
f 440/789/198 447/790/198 443/791/198 444/792/198
f 447/793/199 439/794/199 441/795/199 443/796/199
f 439/797/200 430/798/200 441/799/200 432/800/200
f 514/801/201 446/802/201 445/803/201 447/804/201
f 453/805/202 452/806/202 454/807/202 455/808/202
f 451/809/203 450/810/203 452/811/203 453/812/203
f 448/813/204 449/814/204 450/815/204 451/816/204
f 456/817/205 457/818/205 458/819/205 459/820/205
f 460/821/206 461/822/206 462/823/206 463/824/206
f 464/825/207 465/826/207 466/827/207 461/828/207
f 472/829/208 471/830/208 473/831/208 474/832/208
f 470/833/209 469/834/209 471/835/209 472/836/209
f 467/837/210 468/838/210 469/839/210 470/840/210
f 475/841/211 476/842/211 477/843/211 478/844/211
f 479/845/212 480/846/212 481/847/212 482/848/212
f 483/849/213 484/850/213 485/851/213 480/852/213
f 491/853/214 490/854/214 492/855/214 493/856/214
f 489/857/215 488/858/215 490/859/215 491/860/215
f 486/861/216 487/862/216 488/863/216 489/864/216
f 494/865/217 495/866/217 496/867/217 497/868/217
f 498/869/218 499/870/218 500/871/218 501/872/218
f 502/873/219 503/874/219 504/875/219 499/876/219
f 514/877/220 512/878/220 513/879/220 515/880/220
f 512/881/221 509/882/221 511/883/221 513/884/221
f 509/885/222 510/886/222 506/887/222 511/888/222
f 505/889/223 506/890/223 507/891/223 508/892/223
f 515/893/224 516/894/224 517/895/224 518/896/224
o mesh_selection
v 0.5 0.8125 -0.25
v 0.375 0.8125 -0.25
v 0.375 0.75 -0.25
v 0.5 0.75 -0.25
v 0.25 0.8125 -0.375
v 0.25 0.75 -0.375
v 0.25 0.8125 -0.5
v 0.25 0.75 -0.5
vt 0.3515625 0.0625
vt 0.3515625 0.125
vt 0.3203125 0.125
vt 0.3203125 0.0625
vt 0.426953125 0.125
vt 0.395703125 0.125
vt 0.395703125 0.0625
vt 0.426953125 0.0625
vt 0.39575625 0.125
vt 0.3515625 0.125
vt 0.3515625 0.0625
vt 0.39575625 0.0625
vn -1 0 0
vn 0 0 1
vn -0.7071067811865476 0 0.7071067811865476
usemtl m_2d6b619e-58ea-d0a8-a3ee-244570b56f39
f 524/897/225 523/898/225 525/899/225 526/900/225
f 519/901/226 520/902/226 521/903/226 522/904/226
f 520/905/227 523/906/227 524/907/227 521/908/227
o mesh_selection
v 0.25 0.8125 0.5
v 0.25 0.8125 0.375
v 0.25 0.75 0.375
v 0.25 0.75 0.5
v 0.375 0.8125 0.25
v 0.375 0.75 0.25
v 0.5 0.8125 0.25
v 0.5 0.75 0.25
vt 0.3515625 0.0625
vt 0.3515625 0.125
vt 0.3203125 0.125
vt 0.3203125 0.0625
vt 0.426953125 0.125
vt 0.395703125 0.125
vt 0.395703125 0.0625
vt 0.426953125 0.0625
vt 0.39575625 0.125
vt 0.3515625 0.125
vt 0.3515625 0.0625
vt 0.39575625 0.0625
vn 0 0 -1
vn -1 0 0
vn -0.7071067811865476 0 -0.7071067811865476
usemtl m_2d6b619e-58ea-d0a8-a3ee-244570b56f39
f 532/909/228 531/910/228 533/911/228 534/912/228
f 527/913/229 528/914/229 529/915/229 530/916/229
f 528/917/230 531/918/230 532/919/230 529/920/230
o mesh_selection
v -0.5 0.8125 0.25
v -0.375 0.8125 0.25
v -0.375 0.75 0.25
v -0.5 0.75 0.25
v -0.25 0.8125 0.375
v -0.25 0.75 0.375
v -0.25 0.8125 0.5
v -0.25 0.75 0.5
vt 0.3515625 0.0625
vt 0.3515625 0.125
vt 0.3203125 0.125
vt 0.3203125 0.0625
vt 0.426953125 0.125
vt 0.395703125 0.125
vt 0.395703125 0.0625
vt 0.426953125 0.0625
vt 0.39575625 0.125
vt 0.3515625 0.125
vt 0.3515625 0.0625
vt 0.39575625 0.0625
vn 1 0 0
vn 0 0 -1
vn 0.7071067811865476 0 -0.7071067811865476
usemtl m_2d6b619e-58ea-d0a8-a3ee-244570b56f39
f 540/921/231 539/922/231 541/923/231 542/924/231
f 535/925/232 536/926/232 537/927/232 538/928/232
f 536/929/233 539/930/233 540/931/233 537/932/233
o mesh
v -0.5 0.4375 -0.125
v -0.5 0.4375 0.125
v -0.5 0.375 -0.125
v -0.5 0.375 0.125
v -0.375 0.4375 -0.125
v -0.375 0.4375 0.125
v -0.375 0.375 -0.125
v -0.375 0.375 0.125
vt 0.171875 0.625
vt 0.109375 0.625
vt 0.109375 0.5625
vt 0.171875 0.5625
vt 0.125 0.75
vt 0.125 1
vt 0 1
vt 0 0.75
vt 0.109375 0.78125
vt 0.078125 0.78125
vt 0.078125 0.53125
vt 0.109375 0.53125
vt 0.078125 0.78125
vt 0.078125 0.53125
vt 0.109375 0.53125
vt 0.109375 0.78125
vt 0.125 0.75
vt 0.125 1
vt 0 1
vt 0 0.75
vt 0.125 1
vt 0 1
vt 0 0.75
vt 0.125 0.75
vn -1 0 0
vn 1 0 0
vn 0 1 0
vn 0 -1 0
vn 0 0 -1
vn 0 0 1
usemtl m_2d6b619e-58ea-d0a8-a3ee-244570b56f39
f 544/933/234 543/934/234 545/935/234 546/936/234
f 549/937/235 547/938/235 548/939/235 550/940/235
f 547/941/236 543/942/236 544/943/236 548/944/236
f 546/945/237 545/946/237 549/947/237 550/948/237
f 545/949/238 543/950/238 547/951/238 549/952/238
f 548/953/239 544/954/239 546/955/239 550/956/239
o mesh
v -0.125 0.5625 -0.5
v -0.25 0.5625 -0.5
v -0.125 0.25 -0.5
v -0.25 0.25 -0.5
v -0.125 0.5625 -0.375
v -0.25 0.5625 -0.375
v -0.125 0.25 -0.375
v -0.25 0.25 -0.375
vt 0 0.5
vt 0.125 0.5
vt 0.125 1
vt 0 1
vt 0.125 0.5
vt 0.125 1
vt 0 1
vt 0 0.5
vt 0.109375 0.59375
vt 0.109375 0.90625
vt 0.078125 0.90625
vt 0.078125 0.59375
vt 0.109375 0.90625
vt 0.078125 0.90625
vt 0.078125 0.59375
vt 0.109375 0.59375
vn 0 1 0
vn 0 -1 0
vn 1 0 0
vn -1 0 0
usemtl m_2d6b619e-58ea-d0a8-a3ee-244570b56f39
f 555/957/240 551/958/240 552/959/240 556/960/240
f 554/961/241 553/962/241 557/963/241 558/964/241
f 553/965/242 551/966/242 555/967/242 557/968/242
f 556/969/243 552/970/243 554/971/243 558/972/243
o mesh
v 0.125 0.4375 -0.5
v -0.125 0.4375 -0.5
v 0.125 0.375 -0.5
v -0.125 0.375 -0.5
v 0.125 0.4375 -0.375
v -0.125 0.4375 -0.375
v 0.125 0.375 -0.375
v -0.125 0.375 -0.375
vt 0.171875 0.625
vt 0.109375 0.625
vt 0.109375 0.5625
vt 0.171875 0.5625
vt 0.125 0.75
vt 0.125 1
vt 0 1
vt 0 0.75
vt 0.125 0.59375
vt 0.125 0.71875
vt 0.0625 0.71875
vt 0.0625 0.59375
vt 0.0625 0.59375
vt 0.125 0.59375
vt 0.125 0.71875
vt 0.0625 0.71875
vt 0.125 0.75
vt 0.125 1
vt 0 1
vt 0 0.75
vt 0.125 1
vt 0 1
vt 0 0.75
vt 0.125 0.75
vn 0 0 -1
vn 0 0 1
vn 0 1 0
vn 0 -1 0
vn 1 0 0
vn -1 0 0
usemtl m_2d6b619e-58ea-d0a8-a3ee-244570b56f39
f 560/973/244 559/974/244 561/975/244 562/976/244
f 565/977/245 563/978/245 564/979/245 566/980/245
f 563/981/246 559/982/246 560/983/246 564/984/246
f 562/985/247 561/986/247 565/987/247 566/988/247
f 561/989/248 559/990/248 563/991/248 565/992/248
f 564/993/249 560/994/249 562/995/249 566/996/249
o mesh
v 0.25 0.5625 -0.5
v 0.125 0.5625 -0.5
v 0.25 0.25 -0.5
v 0.125 0.25 -0.5
v 0.25 0.5625 -0.375
v 0.125 0.5625 -0.375
v 0.25 0.25 -0.375
v 0.125 0.25 -0.375
vt 0 0.5
vt 0.125 0.5
vt 0.125 1
vt 0 1
vt 0.125 0.5
vt 0.125 1
vt 0 1
vt 0 0.5
vt 0.109375 0.59375
vt 0.109375 0.90625
vt 0.078125 0.90625
vt 0.078125 0.59375
vt 0.109375 0.90625
vt 0.078125 0.90625
vt 0.078125 0.59375
vt 0.109375 0.59375
vn 0 1 0
vn 0 -1 0
vn 1 0 0
vn -1 0 0
usemtl m_2d6b619e-58ea-d0a8-a3ee-244570b56f39
f 571/997/250 567/998/250 568/999/250 572/1000/250
f 570/1001/251 569/1002/251 573/1003/251 574/1004/251
f 569/1005/252 567/1006/252 571/1007/252 573/1008/252
f 572/1009/253 568/1010/253 570/1011/253 574/1012/253
o mesh
v 0.5 0.4375 0.125
v 0.5 0.4375 -0.125
v 0.5 0.375 0.125
v 0.5 0.375 -0.125
v 0.375 0.4375 0.125
v 0.375 0.4375 -0.125
v 0.375 0.375 0.125
v 0.375 0.375 -0.125
vt 0.171875 0.625
vt 0.109375 0.625
vt 0.109375 0.5625
vt 0.171875 0.5625
vt 0.125 0.75
vt 0.125 1
vt 0 1
vt 0 0.75
vt 0.078125 0.53125
vt 0.109375 0.53125
vt 0.109375 0.78125
vt 0.078125 0.78125
vt 0.109375 0.53125
vt 0.109375 0.78125
vt 0.078125 0.78125
vt 0.078125 0.53125
vt 0.125 0.75
vt 0.125 1
vt 0 1
vt 0 0.75
vt 0.125 1
vt 0 1
vt 0 0.75
vt 0.125 0.75
vn 1 0 0
vn -1 0 0
vn 0 1 0
vn 0 -1 0
vn 0 0 1
vn 0 0 -1
usemtl m_2d6b619e-58ea-d0a8-a3ee-244570b56f39
f 576/1013/254 575/1014/254 577/1015/254 578/1016/254
f 581/1017/255 579/1018/255 580/1019/255 582/1020/255
f 579/1021/256 575/1022/256 576/1023/256 580/1024/256
f 578/1025/257 577/1026/257 581/1027/257 582/1028/257
f 577/1029/258 575/1030/258 579/1031/258 581/1032/258
f 580/1033/259 576/1034/259 578/1035/259 582/1036/259
o mesh
v 0.5 0.25 0.375
v 0.5 0.25 -0.375
v 0.5 0.125 0.375
v 0.5 0.125 -0.375
v 0.375 0.25 0.375
v 0.375 0.25 -0.375
v 0.375 0.125 0.375
v 0.375 0.125 -0.375
vt 0.125 0.75
vt 0.125 1
vt 0 1
vt 0 0.75
vt 0.078125 0.15625
vt 0.109375 0.15625
vt 0.109375 0.90625
vt 0.078125 0.90625
vt 0.125 0.5
vt 0.125 1
vt 0 1
vt 0 0.5
vt 0.125 0.75
vt 0.125 1
vt 0 1
vt 0 0.75
vt 0.125 1
vt 0 1
vt 0 0.75
vt 0.125 0.75
vn -1 0 0
vn 0 1 0
vn 0 -1 0
vn 0 0 1
vn 0 0 -1
usemtl m_2d6b619e-58ea-d0a8-a3ee-244570b56f39
f 589/1037/260 587/1038/260 588/1039/260 590/1040/260
f 587/1041/261 583/1042/261 584/1043/261 588/1044/261
f 586/1045/262 585/1046/262 589/1047/262 590/1048/262
f 585/1049/263 583/1050/263 587/1051/263 589/1052/263
f 588/1053/264 584/1054/264 586/1055/264 590/1056/264
o mesh
v -0.375 0.25 0.5
v 0.375 0.25 0.5
v -0.375 0.125 0.5
v 0.375 0.125 0.5
v -0.375 0.25 0.375
v 0.375 0.25 0.375
v -0.375 0.125 0.375
v 0.375 0.125 0.375
vt 0.125 0.75
vt 0.125 1
vt 0 1
vt 0 0.75
vt 0.03125 0.71875
vt 0.03125 0.59375
vt 0.21875 0.59375
vt 0.21875 0.71875
vt 0.125 0.5
vt 0.125 1
vt 0 1
vt 0 0.5
vt 0.125 0.75
vt 0.125 1
vt 0 1
vt 0 0.75
vt 0.125 1
vt 0 1
vt 0 0.75
vt 0.125 0.75
vn 0 0 -1
vn 0 1 0
vn 0 -1 0
vn -1 0 0
vn 1 0 0
usemtl m_2d6b619e-58ea-d0a8-a3ee-244570b56f39
f 597/1057/265 595/1058/265 596/1059/265 598/1060/265
f 595/1061/266 591/1062/266 592/1063/266 596/1064/266
f 594/1065/267 593/1066/267 597/1067/267 598/1068/267
f 593/1069/268 591/1070/268 595/1071/268 597/1072/268
f 596/1073/269 592/1074/269 594/1075/269 598/1076/269
o mesh
v 0.375 0.25 -0.5
v -0.375 0.25 -0.5
v 0.375 0.125 -0.5
v -0.375 0.125 -0.5
v 0.375 0.25 -0.375
v -0.375 0.25 -0.375
v 0.375 0.125 -0.375
v -0.375 0.125 -0.375
vt 0.125 0.75
vt 0.125 1
vt 0 1
vt 0 0.75
vt 0.21875 0.59375
vt 0.21875 0.71875
vt 0.03125 0.71875
vt 0.03125 0.59375
vt 0.125 0.5
vt 0.125 1
vt 0 1
vt 0 0.5
vt 0.125 0.75
vt 0.125 1
vt 0 1
vt 0 0.75
vt 0.125 1
vt 0 1
vt 0 0.75
vt 0.125 0.75
vn 0 0 1
vn 0 1 0
vn 0 -1 0
vn 1 0 0
vn -1 0 0
usemtl m_2d6b619e-58ea-d0a8-a3ee-244570b56f39
f 605/1077/270 603/1078/270 604/1079/270 606/1080/270
f 603/1081/271 599/1082/271 600/1083/271 604/1084/271
f 602/1085/272 601/1086/272 605/1087/272 606/1088/272
f 601/1089/273 599/1090/273 603/1091/273 605/1092/273
f 604/1093/274 600/1094/274 602/1095/274 606/1096/274
o mesh
v 0.375 0.3125 -0.375
v -0.375 0.3125 -0.375
v 0.375 0.125 -0.375
v -0.375 0.125 -0.375
v 0.375 0.3125 0.375
v -0.375 0.3125 0.375
v 0.375 0.125 0.375
v -0.375 0.125 0.375
vt 0.9609375 0.84375
vt 0.7734375 0.84375
vt 0.7734375 0.65625
vt 0.9609375 0.65625
vt 0.9609375 0.65625
vt 0.9609375 0.84375
vt 0.7734375 0.84375
vt 0.7734375 0.65625
vt 0.9609375 0.15625
vt 0.9609375 0.90625
vt 0.7734375 0.90625
vt 0.7734375 0.15625
vt 0.7734375 0.15625
vt 0.9609375 0.15625
vt 0.9609375 0.90625
vt 0.7734375 0.90625
vt 0.9609375 0.65625
vt 0.9609375 0.84375
vt 0.7734375 0.84375
vt 0.7734375 0.65625
vt 0.9609375 0.84375
vt 0.7734375 0.84375
vt 0.7734375 0.65625
vt 0.9609375 0.65625
vn 0 0 -1
vn 0 0 1
vn 0 1 0
vn 0 -1 0
vn 1 0 0
vn -1 0 0
usemtl m_2d6b619e-58ea-d0a8-a3ee-244570b56f39
f 608/1097/275 607/1098/275 609/1099/275 610/1100/275
f 613/1101/276 611/1102/276 612/1103/276 614/1104/276
f 611/1105/277 607/1106/277 608/1107/277 612/1108/277
f 610/1109/278 609/1110/278 613/1111/278 614/1112/278
f 609/1113/279 607/1114/279 611/1115/279 613/1116/279
f 612/1117/280 608/1118/280 610/1119/280 614/1120/280
o mesh
v 0.25 0.375 -0.25
v -0.25 0.375 -0.25
v 0.25 0.1875 -0.25
v -0.25 0.1875 -0.25
v 0.25 0.375 0.25
v -0.25 0.375 0.25
v 0.25 0.1875 0.25
v -0.25 0.1875 0.25
vt 0.4375 0.75
vt 0.3125 0.75
vt 0.3125 0.5
vt 0.4375 0.5
vt 0.4375 0.5
vt 0.4375 0.75
vt 0.3125 0.75
vt 0.3125 0.5
vt 0.3125 0.25
vt 0.4375 0.25
vt 0.4375 0.75
vt 0.3125 0.75
vt 0.4375 0.25
vt 0.4375 0.75
vt 0.3125 0.75
vt 0.3125 0.25
vt 0.4375 0.5
vt 0.4375 0.75
vt 0.3125 0.75
vt 0.3125 0.5
vt 0.4375 0.75
vt 0.3125 0.75
vt 0.3125 0.5
vt 0.4375 0.5
vn 0 0 -1
vn 0 0 1
vn 0 1 0
vn 0 -1 0
vn 1 0 0
vn -1 0 0
usemtl m_2d6b619e-58ea-d0a8-a3ee-244570b56f39
f 616/1121/281 615/1122/281 617/1123/281 618/1124/281
f 621/1125/282 619/1126/282 620/1127/282 622/1128/282
f 619/1129/283 615/1130/283 616/1131/283 620/1132/283
f 618/1133/284 617/1134/284 621/1135/284 622/1136/284
f 617/1137/285 615/1138/285 619/1139/285 621/1140/285
f 620/1141/286 616/1142/286 618/1143/286 622/1144/286
o mesh
v -0.101903125 0.4375 0.101903125
v 0 0.4375 -0.101903125
v -0.101903125 0.4375 -0.101903125
v 0 0.4375 0
v -0.101903125 0.4375 0
v 0.101903125 0.4375 0.101903125
v 0 0.4375 0.101903125
v 0.101903125 0.4375 -0.101903125
v 0.101903125 0.4375 0
v 0 0.375 0.2757475
v 0.194983125 0.375 0.194983125
v 0.2757475 0.375 0
v 0.194983125 0.375 -0.194983125
v 0 0.375 -0.2757475
v -0.194983125 0.375 -0.194983125
v -0.2757475 0.375 0
v -0.194983125 0.375 0.194983125
vt 0.608463125 0.5043362499999999
vt 0.63304078125 0.5027818749999999
vt 0.633426875 0.601711875
vt 0.60884921875 0.60326625
vt 0.63304078125 0.5027818749999999
vt 0.6576184375 0.501228125
vt 0.65800453125 0.600158125
vt 0.633426875 0.601711875
vt 0.60807703125 0.40540624999999997
vt 0.6326546875 0.40385187499999997
vt 0.63304078125 0.5027818749999999
vt 0.608463125 0.5043362499999999
vt 0.6326546875 0.40385187499999997
vt 0.65723234375 0.4022975
vt 0.6576184375 0.501228125
vt 0.63304078125 0.5027818749999999
vt 0.65723234375 0.39917250000000004
vt 0.6326546875 0.40072687500000004
vt 0.63235765625 0.25210937499999997
vt 0.67647515625 0.32241875
vt 0.6576184375 0.498103125
vt 0.65723234375 0.39917250000000004
vt 0.67647515625 0.32241875
vt 0.6953196875 0.49770499999999995
vt 0.6576184375 0.498103125
vt 0.6953196875 0.49770499999999995
vt 0.67785234375 0.6752868750000001
vt 0.65800453125 0.597033125
vt 0.633426875 0.601711875
vt 0.65800453125 0.600158125
vt 0.67785234375 0.678411875
vt 0.6343053125 0.754265
vt 0.60884921875 0.6001412500000001
vt 0.633426875 0.5985868750000001
vt 0.6343053125 0.75114
vt 0.5901878125 0.68083
vt 0.608463125 0.50121125
vt 0.60884921875 0.6001412500000001
vt 0.5901878125 0.68083
vt 0.57134328125 0.5055443749999999
vt 0.60807703125 0.40228125000000003
vt 0.608463125 0.50121125
vt 0.57134328125 0.5055443749999999
vt 0.588810625 0.32796250000000005
vt 0.6326546875 0.40072687500000004
vt 0.60807703125 0.40228125000000003
vt 0.588810625 0.32796250000000005
vt 0.63235765625 0.25210937499999997
vn 0 1 0
vn 0 1 0
vn 0 1 0
vn 0 1 0
vn 0.3383170269203015 0.9410321935490878 0
vn 0 0.8302069782073784 -0.5574552657709619
vn -0.13877898194174915 0.9319261812724075 -0.3350432611324092
vn -0.5574552657709619 0.8302069782073784 0
vn -0.3383170269203015 0.9410321935490878 0
vn 0 0.8302069782073784 0.5574552657709619
vn 0 0.9410321935490878 0.3383170269203015
vn 0.5574552657709619 0.8302069782073784 0
usemtl m_2d6b619e-58ea-d0a8-a3ee-244570b56f39
f 629/1145/287 626/1146/287 627/1147/287 623/1148/287
f 626/1149/288 624/1150/288 625/1151/288 627/1152/288
f 628/1153/289 631/1154/289 626/1155/289 629/1156/289
f 631/1157/290 630/1158/290 624/1159/290 626/1160/290
f 630/1161/291 631/1162/291 634/1163/291 635/1164/291
f 624/1165/292 630/1166/292 635/1167/292 636/1168/292
f 624/1169/293 636/1170/293 637/1171/293 625/1172/293
f 627/1173/294 625/1174/294 637/1175/294 638/1176/294
f 623/1177/295 627/1178/295 638/1179/295 639/1180/295
f 629/1181/296 623/1182/296 639/1183/296 632/1184/296
f 628/1185/297 629/1186/297 632/1187/297 633/1188/297
f 631/1189/298 628/1190/298 633/1191/298 634/1192/298
o mesh
v 0.375 0.4375 -0.375
v -0.375 0.4375 -0.375
v 0.375 0.4375 0.375
v -0.375 0.4375 0.375
v 0.12944187499999998 0.4375 0.3125
v 0.3125 0.4375 0.12944187500000004
v 0.3125 0.4375 -0.12944187500000004
v 0.12944187499999998 0.4375 -0.3125
v -0.12944187499999998 0.4375 -0.3125
v -0.3125 0.4375 -0.12944187500000004
v -0.3125 0.4375 0.12944187500000004
v -0.12944187499999998 0.4375 0.3125
v 0.375 0.4375 0.1875
v 0.375 0.4375 -0.09375
v -0.375 0.4375 -0.1875
v -0.375 0.4375 0.09375
v -0.12944187499999998 0.3125 -0.3125
v -0.375 0.3125 -0.375
v -0.3125 0.3125 -0.12944187500000004
v -0.375 0.3125 -0.1875
v -0.375 0.3125 0.09375
v -0.3125 0.3125 0.12944187500000004
v -0.12944187499999998 0.3125 0.3125
v -0.375 0.3125 0.375
v 0.375 0.3125 -0.375
v 0.12944187499999998 0.3125 -0.3125
v 0.3125 0.3125 -0.12944187500000004
v 0.375 0.3125 -0.09375
v 0.375 0.3125 0.1875
v 0.3125 0.3125 0.12944187500000004
v 0.375 0.3125 0.375
v 0.12944187499999998 0.3125 0.3125
vt 0.08705671875 0.13753812499999996
vt 0.015625 0.06481437499999998
vt 0.23379640625 0.06481437499999998
vt 0.1623646875 0.13753812499999996
vt 0.1796875 0.5625
vt 0.1796875 0.4375
vt 0.2421875 0.4375
vt 0.2421875 0.5625
vt 0.15625 0.8125
vt 0.15625 0.6875
vt 0.220971875 0.6875
vt 0.220971875 0.8125
vt 0.09375 0.9375
vt 0.09375 0.8125
vt 0.158471875 0.8125
vt 0.158471875 0.9375
vt 0.15625 0.3125
vt 0.15625 0.1875
vt 0.2209703125 0.1875
vt 0.2209703125 0.3125
vt 0.09375 0.1875
vt 0.09375 0.0625
vt 0.158471875 0.0625
vt 0.158471875 0.1875
vt 0.03125 0.3125
vt 0.03125 0.1875
vt 0.095971875 0.1875
vt 0.095971875 0.3125
vt 0.015625 0.5625
vt 0.015625 0.4375
vt 0.080346875 0.4375
vt 0.080346875 0.5625
vt 0.03125 0.8125
vt 0.03125 0.6875
vt 0.0959703125 0.6875
vt 0.0959703125 0.8125
vt 0.1623646875 0.86477625
vt 0.23379625 0.9375
vt 0.015625 0.9375
vt 0.08705671875 0.86477625
vt 0.015625 0.9375
vt 0.015625 0.7193287500000001
vt 0.0338059375 0.6517731250000001
vt 0.08705671875 0.86477625
vt 0.0338059375 0.6517731250000001
vt 0.015625 0.7193287500000001
vt 0.015625 0.39207125
vt 0.0338059375 0.35054125
vt 0.015625 0.06481437499999998
vt 0.08705671875 0.13753812499999996
vt 0.0338059375 0.35054125
vt 0.015625 0.39207125
vt 0.21561546875 0.35054125
vt 0.23379640625 0.28298625
vt 0.23379640625 0.610243125
vt 0.21561546875 0.6517731250000001
vt 0.21561546875 0.35054125
vt 0.1623646875 0.13753812499999996
vt 0.23379640625 0.06481437499999998
vt 0.23379640625 0.28298625
vt 0.1623646875 0.86477625
vt 0.21561546875 0.6517731250000001
vt 0.23379640625 0.610243125
vt 0.23379625 0.9375
vt 0.229085625 0.08853999999999995
vt 0.02098640625 0.08853999999999995
vt 0.0891203125 0.15790625000000003
vt 0.1609515625 0.15790625000000003
vt 0.02098640625 0.920936875
vt 0.22908546875 0.920936875
vt 0.1609515625 0.851570625
vt 0.0891203125 0.851570625
vt 0.03832796875 0.6484006250000001
vt 0.02098640625 0.7128375
vt 0.02098640625 0.920936875
vt 0.0891203125 0.851570625
vt 0.02098640625 0.40068875000000004
vt 0.02098640625 0.7128375
vt 0.03832796875 0.6484006250000001
vt 0.03832796875 0.361075625
vt 0.03832796875 0.361075625
vt 0.0891203125 0.15790625000000003
vt 0.02098640625 0.08853999999999995
vt 0.02098640625 0.40068875000000004
vt 0.229085625 0.608788125
vt 0.229085625 0.29663937500000004
vt 0.21174390625 0.36107625
vt 0.21174390625 0.64840125
vt 0.229085625 0.08853999999999995
vt 0.1609515625 0.15790625000000003
vt 0.21174390625 0.36107625
vt 0.229085625 0.29663937500000004
vt 0.229085625 0.608788125
vt 0.21174390625 0.64840125
vt 0.1609515625 0.851570625
vt 0.22908546875 0.920936875
vt 0.21875 0.75
vt 0.21875 0.875
vt 0.03125 0.875
vt 0.03125 0.75
vt 0.2265625 0.71875
vt 0.2265625 0.84375
vt 0.15625 0.84375
vt 0.15625 0.71875
vt 0.2265625 0.40625
vt 0.2265625 0.53125
vt 0.15625 0.53125
vt 0.15625 0.40625
vt 0.203125 0.15625
vt 0.203125 0.28125
vt 0.15625 0.28125
vt 0.15625 0.15625
vt 0.21875 0
vt 0.21875 0.125
vt 0.03125 0.125
vt 0.03125 0
vt 0.078125 0.1875
vt 0.078125 0.3125
vt 0.0078125 0.3125
vt 0.0078125 0.1875
vt 0.078125 0.5
vt 0.078125 0.625
vt 0.0078125 0.625
vt 0.0078125 0.5
vt 0.0546875 0.75
vt 0.0546875 0.875
vt 0.0078125 0.875
vt 0.0078125 0.75
vn 0 1 0
vn 1 0 0
vn 0.7071067811865475 0 -0.7071067811865477
vn 0 0 -1
vn 0.7071067811865475 0 0.7071067811865477
vn 0 0 1
vn -0.7071067811865475 0 0.7071067811865477
vn -1 0 0
vn -0.7071067811865475 0 -0.7071067811865477
vn 0 1 0
vn 0 1 0
vn 0 1 0
vn 0 1 0
vn 0 1 0
vn 0 1 0
vn 0 1 0
vn 0 -1 0
vn 0 -1 0
vn 0 -1 0
vn 0 -1 0
vn 0 -1 0
vn 0 -1 0
vn 0 -1 0
vn 0 -1 0
vn 0 0 1
vn -1 0 0
vn -1 0 0
vn -1 0 0
vn 0 0 -1
vn 1 0 0
vn 1 0 0
vn 1 0 0
usemtl m_2d6b619e-58ea-d0a8-a3ee-244570b56f39
f 647/1193/299 640/1194/299 641/1195/299 648/1196/299
f 650/1197/300 661/1198/300 658/1199/300 649/1200/300
f 651/1201/301 662/1202/301 661/1203/301 650/1204/301
f 644/1205/302 671/1206/302 662/1207/302 651/1208/302
f 649/1209/303 658/1210/303 656/1211/303 648/1212/303
f 648/1213/304 656/1214/304 665/1215/304 647/1216/304
f 647/1217/305 665/1218/305 666/1219/305 646/1220/305
f 646/1221/306 666/1222/306 669/1223/306 645/1224/306
f 645/1225/307 669/1226/307 671/1227/307 644/1228/307
f 651/1229/308 643/1230/308 642/1231/308 644/1232/308
f 642/1233/309 652/1234/309 645/1235/309 644/1236/309
f 645/1237/310 652/1238/310 653/1239/310 646/1240/310
f 640/1241/311 647/1242/311 646/1243/311 653/1244/311
f 649/1245/312 654/1246/312 655/1247/312 650/1248/312
f 649/1249/313 648/1250/313 641/1251/313 654/1252/313
f 651/1253/314 650/1254/314 655/1255/314 643/1256/314
f 657/1257/315 664/1258/315 665/1259/315 656/1260/315
f 670/1261/316 663/1262/316 662/1263/316 671/1264/316
f 669/1265/317 668/1266/317 670/1267/317 671/1268/317
f 667/1269/318 668/1270/318 669/1271/318 666/1272/318
f 666/1273/319 665/1274/319 664/1275/319 667/1276/319
f 660/1277/320 659/1278/320 658/1279/320 661/1280/320
f 657/1281/321 656/1282/321 658/1283/321 659/1284/321
f 660/1285/322 661/1286/322 662/1287/322 663/1288/322
f 670/1289/323 642/1290/323 643/1291/323 663/1292/323
f 663/1293/324 643/1294/324 655/1295/324 660/1296/324
f 660/1297/325 655/1298/325 654/1299/325 659/1300/325
f 659/1301/326 654/1302/326 641/1303/326 657/1304/326
f 657/1305/327 641/1306/327 640/1307/327 664/1308/327
f 664/1309/328 640/1310/328 653/1311/328 667/1312/328
f 667/1313/329 653/1314/329 652/1315/329 668/1316/329
f 668/1317/330 652/1318/330 642/1319/330 670/1320/330