# Made in Blockbench 5.1.6
mtllib MIM.mtl

o Cube.002_Cube.003
v -0.6 1.602324 0.6
v -0.6 1.602324 -0.6
v -0.6 0.402324 -0.6
v -0.6 0.402324 0.6
v 0.6 1.602324 -0.6
v 0.6 0.402324 -0.6
v 0.6 1.602324 0.6
v 0.6 0.402324 0.6
vt 0 0
vt 1 0
vt 1 1
vt 0 1
vt 0 0
vt 1 0
vt 1 1
vt 0 1
vt 0 0
vt 1 0
vt 1 1
vt 0 1
vt 0 0
vt 1 0
vt 1 1
vt 0 1
vt 0 0
vt 1 0
vt 1 1
vt 0 1
vt 0 0
vt 1 0
vt 1 1
vt 0 1
vn -1 0 0
vn 0 0 -1
vn 1 0 0
vn 0 0 1
vn 0 -1 0
vn 0 1 0
usemtl m_9673f8b7-c218-215d-d0eb-d2d99fc47a6f
f 1/1/1 2/2/1 3/3/1 4/4/1
f 2/5/2 5/6/2 6/7/2 3/8/2
f 5/9/3 7/10/3 8/11/3 6/12/3
f 7/13/4 1/14/4 4/15/4 8/16/4
f 4/17/5 3/18/5 6/19/5 8/20/5
f 7/21/6 5/22/6 2/23/6 1/24/6
o Cube.001_Cube.002
v -1 2 1
v -1 2 -1
v -1 1.8 -1
v -1 1.8 1
v 1 2 -1
v 1 1.8 -1
v 1 2 1
v 1 1.8 1
v 1 2 1
v -1 2 1
v -1 1.8 1
v 1 1.8 1
vt 1 0.1875
vt 0 0.1875
vt 0 -0.012499999999999956
vt 1 -0.012499999999999956
vt 1 0.1875
vt 0 0.1875
vt 0 -0.012499999999999956
vt 1 -0.012499999999999956
vt 1 0.1875
vt 0 0.1875
vt 0 -0.012499999999999956
vt 1 -0.012499999999999956
vt 1 0.1875
vt 0 0.1875
vt 0 -0.012499999999999956
vt 1 -0.012499999999999956
vt 0 0
vt 1 0
vt 1 1
vt 0 1
vt 0 0
vt 1 0
vt 1 1
vt 0 1
vt 1 0.1875
vt 0 0.1875
vt 0 -0.012499999999999956
vt 1 -0.012499999999999956
vn -1 0 0
vn 0 0 -1
vn 1 0 0
vn 0 0 1
vn 0 -1 0
vn 0 1 0
vn 0 0 1
usemtl m_ce92fb54-63b5-b1d6-150c-4424ee33e678
f 9/25/7 10/26/7 11/27/7 12/28/7
f 10/29/8 13/30/8 14/31/8 11/32/8
f 13/33/9 15/34/9 16/35/9 14/36/9
f 15/37/10 9/38/10 12/39/10 16/40/10
f 12/41/11 11/42/11 14/43/11 16/44/11
f 15/45/12 13/46/12 10/47/12 9/48/12
f 17/49/13 18/50/13 19/51/13 20/52/13
o Cube_Cube.001
v -1 0.2 1
v -1 0.2 -1
v -1 0 -1
v -1 0 1
v 1 0.2 -1
v 1 0 -1
v 1 0.2 1
v 1 0 1
vt 1 -0.012499999999999956
vt 0 -0.012499999999999956
vt 0 0.1875
vt 1 0.1875
vt 1 -0.012499999999999956
vt 0 -0.012499999999999956
vt 0 0.1875
vt 1 0.1875
vt 1 -0.012499999999999956
vt 0 -0.012499999999999956
vt 0 0.1875
vt 1 0.1875
vt 1 -0.012499999999999956
vt 0 -0.012499999999999956
vt 0 0.1875
vt 1 0.1875
vt 0 0
vt 1 0
vt 1 1
vt 0 1
vt 0 0
vt 1 0
vt 1 1
vt 0 1
vn -1 0 0
vn 0 0 -1
vn 1 0 0
vn 0 0 1
vn 0 -1 0
vn 0 1 0
usemtl m_ce92fb54-63b5-b1d6-150c-4424ee33e678
f 21/53/14 22/54/14 23/55/14 24/56/14
f 22/57/15 25/58/15 26/59/15 23/60/15
f 25/61/16 27/62/16 28/63/16 26/64/16
f 27/65/17 21/66/17 24/67/17 28/68/17
f 24/69/18 23/70/18 26/71/18 28/72/18
f 27/73/19 25/74/19 22/75/19 21/76/19