# Made in Blockbench 5.1.6
mtllib MIN_Injector.mtl

o default
o pPipe1
v 0.113262 0 -0.08229
v 0.14 0 0
v 0.14 0.5 0
v 0.113262 0.5 -0.08229
v 0.043262 0 -0.133148
v 0.043262 0.5 -0.133148
v -0.043262 0 -0.133148
v -0.043262 0.5 -0.133148
v -0.113262 0 -0.08229
v -0.113262 0.5 -0.08229
v -0.14 0 0
v -0.14 0.5 0
v -0.113262 0 0.08229
v -0.113262 0.5 0.08229
v -0.043262 0 0.133148
v -0.043262 0.5 0.133148
v 0.043262 0 0.133148
v 0.043262 0.5 0.133148
v 0.113262 0 0.08229
v 0.113262 0.5 0.08229
v 0.15 0.5 0
v 0.121353 0.5 -0.088168
v 0.046353 0.5 -0.142658
v -0.046353 0.5 -0.142658
v -0.121353 0.5 -0.088168
v -0.15 0.5 0
v -0.121353 0.5 0.088168
v -0.046353 0.5 0.142658
v 0.046353 0.5 0.142658
v 0.121353 0.5 0.088168
v 0.15 0 0
v 0.121353 0 -0.088168
v 0.046353 0 -0.142658
v -0.046353 0 -0.142658
v -0.121353 0 -0.088168
v -0.15 0 0
v -0.121353 0 0.088168
v -0.046353 0 0.142658
v 0.046353 0 0.142658
v 0.121353 0 0.088168
vt 0 0.5
vt 0.09375 0.5
vt 0.09375 1
vt 0 1
vt 0.0625 0.5
vt 0.15625 0.5
vt 0.15625 1
vt 0.0625 1
vt 0.1875 0.5
vt 0.28125 0.5
vt 0.28125 1
vt 0.1875 1
vt 0.3125 0.5
vt 0.40625 0.5
vt 0.40625 1
vt 0.3125 1
vt 0.375 0.5
vt 0.46875 0.5
vt 0.46875 1
vt 0.375 1
vt 0.5 0.5
vt 0.59375 0.5
vt 0.59375 1
vt 0.5 1
vt 0.5625 0.5
vt 0.65625 0.5
vt 0.65625 1
vt 0.5625 1
vt 0.6875 0.5
vt 0.78125 0.5
vt 0.78125 1
vt 0.6875 1
vt 0.8125 0.5
vt 0.90625 0.5
vt 0.90625 1
vt 0.8125 1
vt 0.875 0.5
vt 0.96875 0.5
vt 0.96875 1
vt 0.875 1
vt 0.0625 0.6875
vt 0.0625 0.59375
vt 0.078125 0.59375
vt 0.078125 0.6875
vt 0.125 0.6875
vt 0.125 0.59375
vt 0.140625 0.59375
vt 0.140625 0.6875
vt 0.1875 0.609375
vt 0.28125 0.609375
vt 0.28125 0.625
vt 0.1875 0.625
vt 0.3125 0.609375
vt 0.40625 0.609375
vt 0.40625 0.625
vt 0.3125 0.625
vt 0.375 0.609375
vt 0.46875 0.609375
vt 0.46875 0.625
vt 0.375 0.625
vt 0.578125 0.59375
vt 0.578125 0.6875
vt 0.5625 0.6875
vt 0.5625 0.59375
vt 0.703125 0.59375
vt 0.703125 0.6875
vt 0.6875 0.6875
vt 0.6875 0.59375
vt 0.78125 0.625
vt 0.6875 0.625
vt 0.6875 0.609375
vt 0.78125 0.609375
vt 0.90625 0.625
vt 0.8125 0.625
vt 0.8125 0.609375
vt 0.90625 0.609375
vt 0.96875 0.625
vt 0.875 0.625
vt 0.875 0.609375
vt 0.96875 0.609375
vt 0.09375 0.625
vt 0 0.625
vt 0 0.125
vt 0.09375 0.125
vt 0.15625 0.625
vt 0.0625 0.625
vt 0.0625 0.125
vt 0.15625 0.125
vt 0.28125 0.625
vt 0.1875 0.625
vt 0.1875 0.125
vt 0.28125 0.125
vt 0.40625 0.625
vt 0.3125 0.625
vt 0.3125 0.125
vt 0.40625 0.125
vt 0.46875 0.625
vt 0.375 0.625
vt 0.375 0.125
vt 0.46875 0.125
vt 0.59375 0.625
vt 0.5 0.625
vt 0.5 0.125
vt 0.59375 0.125
vt 0.65625 0.625
vt 0.5625 0.625
vt 0.5625 0.125
vt 0.65625 0.125
vt 0.78125 0.625
vt 0.6875 0.625
vt 0.6875 0.125
vt 0.78125 0.125
vt 0.90625 0.625
vt 0.8125 0.625
vt 0.8125 0.125
vt 0.90625 0.125
vt 0.96875 0.625
vt 0.875 0.625
vt 0.875 0.125
vt 0.96875 0.125
vt 0 0.109375
vt 0.09375 0.109375
vt 0.09375 0.125
vt 0 0.125
vt 0.0625 0.109375
vt 0.15625 0.109375
vt 0.15625 0.125
vt 0.0625 0.125
vt 0.1875 0.109375
vt 0.28125 0.109375
vt 0.28125 0.125
vt 0.1875 0.125
vt 0.375 0.1875
vt 0.375 0.09375
vt 0.390625 0.09375
vt 0.390625 0.1875
vt 0.4375 0.1875
vt 0.4375 0.09375
vt 0.453125 0.09375
vt 0.453125 0.1875
vt 0.59375 0.125
vt 0.5 0.125
vt 0.5 0.109375
vt 0.59375 0.109375
vt 0.65625 0.125
vt 0.5625 0.125
vt 0.5625 0.109375
vt 0.65625 0.109375
vt 0.78125 0.125
vt 0.6875 0.125
vt 0.6875 0.109375
vt 0.78125 0.109375
vt 0.828125 0.09375
vt 0.828125 0.1875
vt 0.8125 0.1875
vt 0.8125 0.09375
vt 0.953125 0.09375
vt 0.953125 0.1875
vt 0.9375 0.1875
vt 0.9375 0.09375
vn -0.95105529962749 0 0.3090207388679042
vn -0.5877854265735332 0 0.809016867752317
vn 0 0 1
vn 0.5877854265735332 0 0.809016867752317
vn 0.95105529962749 0 0.3090207388679042
vn 0.95105529962749 0 -0.3090207388679042
vn 0.5877854265735332 0 -0.809016867752317
vn 0 0 -1
vn -0.5877854265735332 0 -0.809016867752317
vn -0.95105529962749 0 -0.3090207388679042
vn 0 1 0
vn 0 1 0
vn 0 1 0
vn 0 1 0
vn 0 1 0
vn 0 1 0
vn 0 1 0
vn 0 1 0
vn 0 1 0
vn 0 1 0
vn 0.9510581640729993 0 -0.3090119229901915
vn 0.5877803836035747 0 -0.809020531662105
vn 0 0 -1
vn -0.5877803836035747 0 -0.809020531662105
vn -0.9510581640729993 0 -0.3090119229901915
vn -0.9510581640729993 0 0.3090119229901915
vn -0.5877803836035747 0 0.809020531662105
vn 0 0 1
vn 0.5877803836035747 0 0.809020531662105
vn 0.9510581640729993 0 0.3090119229901915
vn 0 -1 0
vn 0 -1 0
vn 0 -1 0
vn 0 -1 0
vn 0 -1 0
vn 0 -1 0
vn 0 -1 0
vn 0 -1 0
vn 0 -1 0
vn 0 -1 0
usemtl m_d37908c7-489b-1de7-47f7-9da4b6618e12
f 1/1/1 2/2/1 3/3/1 4/4/1
f 5/5/2 1/6/2 4/7/2 6/8/2
f 7/9/3 5/10/3 6/11/3 8/12/3
f 9/13/4 7/14/4 8/15/4 10/16/4
f 11/17/5 9/18/5 10/19/5 12/20/5
f 13/21/6 11/22/6 12/23/6 14/24/6
f 15/25/7 13/26/7 14/27/7 16/28/7
f 17/29/8 15/30/8 16/31/8 18/32/8
f 19/33/9 17/34/9 18/35/9 20/36/9
f 2/37/10 19/38/10 20/39/10 3/40/10
f 4/41/11 3/42/11 21/43/11 22/44/11
f 6/45/12 4/46/12 22/47/12 23/48/12
f 8/49/13 6/50/13 23/51/13 24/52/13
f 10/53/14 8/54/14 24/55/14 25/56/14
f 12/57/15 10/58/15 25/59/15 26/60/15
f 14/61/16 12/62/16 26/63/16 27/64/16
f 16/65/17 14/66/17 27/67/17 28/68/17
f 18/69/18 16/70/18 28/71/18 29/72/18
f 20/73/19 18/74/19 29/75/19 30/76/19
f 3/77/20 20/78/20 30/79/20 21/80/20
f 22/81/21 21/82/21 31/83/21 32/84/21
f 23/85/22 22/86/22 32/87/22 33/88/22
f 24/89/23 23/90/23 33/91/23 34/92/23
f 25/93/24 24/94/24 34/95/24 35/96/24
f 26/97/25 25/98/25 35/99/25 36/100/25
f 27/101/26 26/102/26 36/103/26 37/104/26
f 28/105/27 27/106/27 37/107/27 38/108/27
f 29/109/28 28/110/28 38/111/28 39/112/28
f 30/113/29 29/114/29 39/115/29 40/116/29
f 21/117/30 30/118/30 40/119/30 31/120/30
f 32/121/31 31/122/31 2/123/31 1/124/31
f 33/125/32 32/126/32 1/127/32 5/128/32
f 34/129/33 33/130/33 5/131/33 7/132/33
f 35/133/34 34/134/34 7/135/34 9/136/34
f 36/137/35 35/138/35 9/139/35 11/140/35
f 37/141/36 36/142/36 11/143/36 13/144/36
f 38/145/37 37/146/37 13/147/37 15/148/37
f 39/149/38 38/150/38 15/151/38 17/152/38
f 40/153/39 39/154/39 17/155/39 19/156/39
f 31/157/40 40/158/40 19/159/40 2/160/40
o default
o pTorus1
v 0 0.05 -0.25
v 0.176777 0.05 -0.176777
v 0.187132 0.085355 -0.187132
v 0 0.085355 -0.264645
v -0.176777 0.05 -0.176777
v -0.187132 0.085355 -0.187132
v -0.25 0.05 0
v -0.264645 0.085355 0
v -0.176777 0.05 0.176777
v -0.187132 0.085355 0.187132
v 0 0.05 0.25
v 0 0.085355 0.264645
v 0.176777 0.05 0.176777
v 0.187132 0.085355 0.187132
v 0.25 0.05 0
v 0.264645 0.085355 0
v 0.212132 0.1 -0.212132
v 0 0.1 -0.3
v -0.212132 0.1 -0.212132
v -0.3 0.1 0
v -0.212132 0.1 0.212132
v 0 0.1 0.3
v 0.212132 0.1 0.212132
v 0.3 0.1 0
v 0.237132 0.085355 -0.237132
v 0 0.085355 -0.335355
v -0.237132 0.085355 -0.237132
v -0.335355 0.085355 0
v -0.237132 0.085355 0.237132
v 0 0.085355 0.335355
v 0.237132 0.085355 0.237132
v 0.335355 0.085355 0
v 0.247487 0.05 -0.247487
v 0 0.05 -0.35
v -0.247487 0.05 -0.247487
v -0.35 0.05 0
v -0.247487 0.05 0.247487
v 0 0.05 0.35
v 0.247487 0.05 0.247487
v 0.35 0.05 0
v 0.237132 0.014645 -0.237132
v 0 0.014645 -0.335355
v -0.237132 0.014645 -0.237132
v -0.335355 0.014645 0
v -0.237132 0.014645 0.237132
v 0 0.014645 0.335355
v 0.237132 0.014645 0.237132
v 0.335355 0.014645 0
v 0.212132 0 -0.212132
v 0 0 -0.3
v -0.212132 0 -0.212132
v -0.3 0 0
v -0.212132 0 0.212132
v 0 0 0.3
v 0.212132 0 0.212132
v 0.3 0 0
v 0.187132 0.014645 -0.187132
v 0 0.014645 -0.264645
v -0.187132 0.014645 -0.187132
v -0.264645 0.014645 0
v -0.187132 0.014645 0.187132
v 0 0.014645 0.264645
v 0.187132 0.014645 0.187132
v 0.264645 0.014645 0
vt 0 0.96875
vt 0.1875 0.96875
vt 0.1875 1
vt 0 1
vt 0.0625 0.96875
vt 0.25 0.96875
vt 0.25 1
vt 0.0625 1
vt 0.1875 0.96875
vt 0.375 0.96875
vt 0.375 1
vt 0.1875 1
vt 0.3125 0.96875
vt 0.5 0.96875
vt 0.5 1
vt 0.3125 1
vt 0.4375 0.96875
vt 0.625 0.96875
vt 0.625 1
vt 0.4375 1
vt 0.5625 0.96875
vt 0.75 0.96875
vt 0.75 1
vt 0.5625 1
vt 0.6875 0.96875
vt 0.875 0.96875
vt 0.875 1
vt 0.6875 1
vt 0.8125 0.96875
vt 1 0.96875
vt 1 1
vt 0.8125 1
vt 0 0.84375
vt 0.21875 0.84375
vt 0.21875 0.875
vt 0 0.875
vt 0.0625 0.84375
vt 0.28125 0.84375
vt 0.28125 0.875
vt 0.0625 0.875
vt 0.1875 0.84375
vt 0.40625 0.84375
vt 0.40625 0.875
vt 0.1875 0.875
vt 0.3125 0.84375
vt 0.53125 0.84375
vt 0.53125 0.875
vt 0.3125 0.875
vt 0.4375 0.84375
vt 0.65625 0.84375
vt 0.65625 0.875
vt 0.4375 0.875
vt 0.5625 0.84375
vt 0.78125 0.84375
vt 0.78125 0.875
vt 0.5625 0.875
vt 0.6875 0.84375
vt 0.90625 0.84375
vt 0.90625 0.875
vt 0.6875 0.875
vt 0.75 0.84375
vt 0.96875 0.84375
vt 0.96875 0.875
vt 0.75 0.875
vt 0.25 0.75
vt 0 0.75
vt 0 0.71875
vt 0.25 0.71875
vt 0.3125 0.75
vt 0.0625 0.75
vt 0.0625 0.71875
vt 0.3125 0.71875
vt 0.4375 0.75
vt 0.1875 0.75
vt 0.1875 0.71875
vt 0.4375 0.71875
vt 0.5625 0.75
vt 0.3125 0.75
vt 0.3125 0.71875
vt 0.5625 0.71875
vt 0.6875 0.75
vt 0.4375 0.75
vt 0.4375 0.71875
vt 0.6875 0.71875
vt 0.8125 0.75
vt 0.5625 0.75
vt 0.5625 0.71875
vt 0.8125 0.71875
vt 0.9375 0.75
vt 0.6875 0.75
vt 0.6875 0.71875
vt 0.9375 0.71875
vt 1 0.75
vt 0.75 0.75
vt 0.75 0.71875
vt 1 0.71875
vt 0.25 0.625
vt 0 0.625
vt 0 0.59375
vt 0.28125 0.59375
vt 0.3125 0.625
vt 0.0625 0.625
vt 0.0625 0.59375
vt 0.34375 0.59375
vt 0.4375 0.625
vt 0.1875 0.625
vt 0.1875 0.59375
vt 0.46875 0.59375
vt 0.5625 0.625
vt 0.3125 0.625
vt 0.3125 0.59375
vt 0.59375 0.59375
vt 0.6875 0.625
vt 0.4375 0.625
vt 0.4375 0.59375
vt 0.71875 0.59375
vt 0.8125 0.625
vt 0.5625 0.625
vt 0.5625 0.59375
vt 0.84375 0.59375
vt 0.9375 0.625
vt 0.6875 0.625
vt 0.6875 0.59375
vt 0.96875 0.59375
vt 1 0.625
vt 0.75 0.625
vt 0.75 0.59375
vt 1 0.59375
vt 0.28125 0.5
vt 0 0.5
vt 0 0.46875
vt 0.25 0.46875
vt 0.34375 0.5
vt 0.0625 0.5
vt 0.0625 0.46875
vt 0.3125 0.46875
vt 0.46875 0.5
vt 0.1875 0.5
vt 0.1875 0.46875
vt 0.4375 0.46875
vt 0.59375 0.5
vt 0.3125 0.5
vt 0.3125 0.46875
vt 0.5625 0.46875
vt 0.71875 0.5
vt 0.4375 0.5
vt 0.4375 0.46875
vt 0.6875 0.46875
vt 0.84375 0.5
vt 0.5625 0.5
vt 0.5625 0.46875
vt 0.8125 0.46875
vt 0.96875 0.5
vt 0.6875 0.5
vt 0.6875 0.46875
vt 0.9375 0.46875
vt 1 0.5
vt 0.75 0.5
vt 0.75 0.46875
vt 1 0.46875
vt 0.25 0.375
vt 0 0.375
vt 0 0.34375
vt 0.25 0.34375
vt 0.3125 0.375
vt 0.0625 0.375
vt 0.0625 0.34375
vt 0.3125 0.34375
vt 0.4375 0.375
vt 0.1875 0.375
vt 0.1875 0.34375
vt 0.4375 0.34375
vt 0.5625 0.375
vt 0.3125 0.375
vt 0.3125 0.34375
vt 0.5625 0.34375
vt 0.6875 0.375
vt 0.4375 0.375
vt 0.4375 0.34375
vt 0.6875 0.34375
vt 0.8125 0.375
vt 0.5625 0.375
vt 0.5625 0.34375
vt 0.8125 0.34375
vt 0.9375 0.375
vt 0.6875 0.375
vt 0.6875 0.34375
vt 0.9375 0.34375
vt 1 0.375
vt 0.75 0.375
vt 0.75 0.34375
vt 1 0.34375
vt 0 0.21875
vt 0.21875 0.21875
vt 0.21875 0.25
vt 0 0.25
vt 0.0625 0.21875
vt 0.28125 0.21875
vt 0.28125 0.25
vt 0.0625 0.25
vt 0.1875 0.21875
vt 0.40625 0.21875
vt 0.40625 0.25
vt 0.1875 0.25
vt 0.3125 0.21875
vt 0.53125 0.21875
vt 0.53125 0.25
vt 0.3125 0.25
vt 0.4375 0.21875
vt 0.65625 0.21875
vt 0.65625 0.25
vt 0.4375 0.25
vt 0.5625 0.21875
vt 0.78125 0.21875
vt 0.78125 0.25
vt 0.5625 0.25
vt 0.6875 0.21875
vt 0.90625 0.21875
vt 0.90625 0.25
vt 0.6875 0.25
vt 0.75 0.21875
vt 0.96875 0.21875
vt 0.96875 0.25
vt 0.75 0.25
vt 0 0.03125
vt 0.1875 0.03125
vt 0.1875 0.0625
vt 0 0.0625
vt 0.0625 0.03125
vt 0.25 0.03125
vt 0.25 0.0625
vt 0.0625 0.0625
vt 0.1875 0.03125
vt 0.375 0.03125
vt 0.375 0.0625
vt 0.1875 0.0625
vt 0.3125 0.03125
vt 0.5 0.03125
vt 0.5 0.0625
vt 0.3125 0.0625
vt 0.4375 0.03125
vt 0.625 0.03125
vt 0.625 0.0625
vt 0.4375 0.0625
vt 0.5625 0.03125
vt 0.75 0.03125
vt 0.75 0.0625
vt 0.5625 0.0625
vt 0.6875 0.03125
vt 0.875 0.03125
vt 0.875 0.0625
vt 0.6875 0.0625
vt 0.8125 0.03125
vt 1 0.03125
vt 1 0.0625
vt 0.8125 0.0625
vn -0.357406045406128 0.3573992577539765 0.8628595999721275
vn 0.35740341481273896 0.357417220573327 0.8628532491205161
vn 0.8628595999721275 0.3573992577539765 0.357406045406128
vn 0.8628532491205159 0.3574172205733269 -0.3574034148127389
vn 0.357406045406128 0.3573992577539765 -0.8628595999721275
vn -0.35740341481273896 0.357417220573327 -0.8628532491205161
vn -0.8628595999721275 0.3573992577539765 -0.357406045406128
vn -0.8628532491205159 0.3574172205733269 0.3574034148127389
vn -0.1565616016743238 0.9124835328143612 0.37797125184832936
vn 0.15656304276124566 0.9124818444360349 0.3779747309225216
vn 0.37797125184832936 0.9124835328143612 0.1565616016743238
vn 0.3779747309225216 0.9124818444360349 -0.15656304276124566
vn 0.1565616016743238 0.9124835328143612 -0.37797125184832936
vn -0.15656304276124566 0.9124818444360349 -0.3779747309225216
vn -0.37797125184832936 0.9124835328143612 -0.1565616016743238
vn -0.3779747309225216 0.9124818444360349 0.15656304276124566
vn 0.15656109217473388 0.9124834333272349 -0.37797170306836
vn -0.15656236342390728 0.9124819439252645 -0.37797477213365843
vn -0.37797170306836 0.9124834333272349 -0.15656109217473388
vn -0.37797477213365843 0.9124819439252645 0.15656236342390728
vn -0.15656109217473388 0.9124834333272349 0.37797170306836
vn 0.15656236342390728 0.9124819439252645 0.37797477213365843
vn 0.37797170306836 0.9124834333272349 0.15656109217473388
vn 0.37797477213365843 0.9124819439252645 -0.15656236342390728
vn 0.3574069189695885 0.35739939141566 -0.8628591827687655
vn -0.35740432751883294 0.35741708690810914 -0.8628529264347036
vn -0.8628591827687655 0.35739939141566 -0.3574069189695885
vn -0.8628529264347036 0.35741708690810914 0.35740432751883294
vn -0.3574069189695885 0.35739939141566 0.8628591827687655
vn 0.35740432751883294 0.35741708690810914 0.8628529264347036
vn 0.8628591827687655 0.35739939141566 0.3574069189695885
vn 0.8628529264347036 0.35741708690810914 -0.35740432751883294
vn 0.3574093384580941 -0.3573997616138234 -0.862858027245114
vn -0.35740685542090816 -0.35741671669644426 -0.8628520326939445
vn -0.862858027245114 -0.3573997616138234 -0.3574093384580941
vn -0.8628520326939445 -0.35741671669644426 0.35740685542090816
vn -0.3574093384580941 -0.3573997616138234 0.862858027245114
vn 0.35740685542090816 -0.35741671669644426 0.8628520326939445
vn 0.862858027245114 -0.3573997616138234 0.3574093384580941
vn 0.8628520326939445 -0.35741671669644426 -0.35740685542090816
vn 0.15656069010376383 -0.9124833548167977 -0.3779720591479157
vn -0.15656182732674634 -0.9124820224365994 -0.37797480465518274
vn -0.3779720591479157 -0.9124833548167977 -0.15656069010376383
vn -0.37797480465518274 -0.9124820224365994 0.15656182732674634
vn -0.15656069010376383 -0.9124833548167977 0.3779720591479157
vn 0.15656182732674634 -0.9124820224365994 0.37797480465518274
vn 0.3779720591479157 -0.9124833548167977 0.15656069010376383
vn 0.37797480465518274 -0.9124820224365994 -0.15656182732674634
vn -0.15656109217473405 -0.9124834333272346 0.37797170306836025
vn 0.15656236342390745 -0.9124819439252644 0.3779747721336588
vn 0.37797170306836025 -0.9124834333272346 0.15656109217473405
vn 0.3779747721336588 -0.9124819439252644 -0.15656236342390745
vn 0.15656109217473405 -0.9124834333272346 -0.37797170306836025
vn -0.15656236342390745 -0.9124819439252644 -0.3779747721336588
vn -0.37797170306836025 -0.9124834333272346 -0.15656109217473405
vn -0.3779747721336588 -0.9124819439252644 0.15656236342390745
vn -0.35740929358448426 -0.35739975474787655 0.8628580486763727
vn 0.3574068085365654 -0.35741672356269216 0.8628520492699875
vn 0.862858048676373 -0.3573997547478766 0.3574092935844843
vn 0.8628520492699875 -0.35741672356269216 -0.3574068085365654
vn 0.35740929358448426 -0.35739975474787655 -0.8628580486763727
vn -0.3574068085365654 -0.35741672356269216 -0.8628520492699875
vn -0.862858048676373 -0.3573997547478766 -0.3574092935844843
vn -0.8628520492699875 -0.35741672356269216 0.3574068085365654
usemtl m_1605c9d4-59a5-26b2-60f0-3f3b4bc4832c
f 41/161/41 42/162/41 43/163/41 44/164/41
f 45/165/42 41/166/42 44/167/42 46/168/42
f 47/169/43 45/170/43 46/171/43 48/172/43
f 49/173/44 47/174/44 48/175/44 50/176/44
f 51/177/45 49/178/45 50/179/45 52/180/45
f 53/181/46 51/182/46 52/183/46 54/184/46
f 55/185/47 53/186/47 54/187/47 56/188/47
f 42/189/48 55/190/48 56/191/48 43/192/48
f 44/193/49 43/194/49 57/195/49 58/196/49
f 46/197/50 44/198/50 58/199/50 59/200/50
f 48/201/51 46/202/51 59/203/51 60/204/51
f 50/205/52 48/206/52 60/207/52 61/208/52
f 52/209/53 50/210/53 61/211/53 62/212/53
f 54/213/54 52/214/54 62/215/54 63/216/54
f 56/217/55 54/218/55 63/219/55 64/220/55
f 43/221/56 56/222/56 64/223/56 57/224/56
f 58/225/57 57/226/57 65/227/57 66/228/57
f 59/229/58 58/230/58 66/231/58 67/232/58
f 60/233/59 59/234/59 67/235/59 68/236/59
f 61/237/60 60/238/60 68/239/60 69/240/60
f 62/241/61 61/242/61 69/243/61 70/244/61
f 63/245/62 62/246/62 70/247/62 71/248/62
f 64/249/63 63/250/63 71/251/63 72/252/63
f 57/253/64 64/254/64 72/255/64 65/256/64
f 66/257/65 65/258/65 73/259/65 74/260/65
f 67/261/66 66/262/66 74/263/66 75/264/66
f 68/265/67 67/266/67 75/267/67 76/268/67
f 69/269/68 68/270/68 76/271/68 77/272/68
f 70/273/69 69/274/69 77/275/69 78/276/69
f 71/277/70 70/278/70 78/279/70 79/280/70
f 72/281/71 71/282/71 79/283/71 80/284/71
f 65/285/72 72/286/72 80/287/72 73/288/72
f 74/289/73 73/290/73 81/291/73 82/292/73
f 75/293/74 74/294/74 82/295/74 83/296/74
f 76/297/75 75/298/75 83/299/75 84/300/75
f 77/301/76 76/302/76 84/303/76 85/304/76
f 78/305/77 77/306/77 85/307/77 86/308/77
f 79/309/78 78/310/78 86/311/78 87/312/78
f 80/313/79 79/314/79 87/315/79 88/316/79
f 73/317/80 80/318/80 88/319/80 81/320/80
f 82/321/81 81/322/81 89/323/81 90/324/81
f 83/325/82 82/326/82 90/327/82 91/328/82
f 84/329/83 83/330/83 91/331/83 92/332/83
f 85/333/84 84/334/84 92/335/84 93/336/84
f 86/337/85 85/338/85 93/339/85 94/340/85
f 87/341/86 86/342/86 94/343/86 95/344/86
f 88/345/87 87/346/87 95/347/87 96/348/87
f 81/349/88 88/350/88 96/351/88 89/352/88
f 90/353/89 89/354/89 97/355/89 98/356/89
f 91/357/90 90/358/90 98/359/90 99/360/90
f 92/361/91 91/362/91 99/363/91 100/364/91
f 93/365/92 92/366/92 100/367/92 101/368/92
f 94/369/93 93/370/93 101/371/93 102/372/93
f 95/373/94 94/374/94 102/375/94 103/376/94
f 96/377/95 95/378/95 103/379/95 104/380/95
f 89/381/96 96/382/96 104/383/96 97/384/96
f 98/385/97 97/386/97 42/387/97 41/388/97
f 99/389/98 98/390/98 41/391/98 45/392/98
f 100/393/99 99/394/99 45/395/99 47/396/99
f 101/397/100 100/398/100 47/399/100 49/400/100
f 102/401/101 101/402/101 49/403/101 51/404/101
f 103/405/102 102/406/102 51/407/102 53/408/102
f 104/409/103 103/410/103 53/411/103 55/412/103
f 97/413/104 104/414/104 55/415/104 42/416/104
o default
o pTorus2
v 0.002303 0.2 -0.237291
v 0.17908 0.2 -0.164067
v 0.189435 0.235355 -0.174423
v 0.002303 0.235355 -0.251935
v -0.174473 0.2 -0.164067
v -0.184829 0.235355 -0.174423
v -0.247697 0.2 0.012709
v -0.262341 0.235355 0.012709
v -0.174473 0.2 0.189486
v -0.184829 0.235355 0.199841
v 0.002303 0.2 0.262709
v 0.002303 0.235355 0.277354
v 0.17908 0.2 0.189486
v 0.189435 0.235355 0.199841
v 0.252303 0.2 0.012709
v 0.266948 0.235355 0.012709
v 0.214435 0.25 -0.199423
v 0.002303 0.25 -0.287291
v -0.209829 0.25 -0.199423
v -0.297697 0.25 0.012709
v -0.209829 0.25 0.224841
v 0.002303 0.25 0.312709
v 0.214435 0.25 0.224841
v 0.302303 0.25 0.012709
v 0.239435 0.235355 -0.224423
v 0.002303 0.235355 -0.322646
v -0.234829 0.235355 -0.224423
v -0.333052 0.235355 0.012709
v -0.234829 0.235355 0.249841
v 0.002303 0.235355 0.348065
v 0.239435 0.235355 0.249841
v 0.337659 0.235355 0.012709
v 0.249791 0.2 -0.234778
v 0.002303 0.2 -0.337291
v -0.245184 0.2 -0.234778
v -0.347697 0.2 0.012709
v -0.245184 0.2 0.260197
v 0.002303 0.2 0.362709
v 0.249791 0.2 0.260197
v 0.352303 0.2 0.012709
v 0.239435 0.164645 -0.224423
v 0.002303 0.164645 -0.322646
v -0.234829 0.164645 -0.224423
v -0.333052 0.164645 0.012709
v -0.234829 0.164645 0.249841
v 0.002303 0.164645 0.348065
v 0.239435 0.164645 0.249841
v 0.337659 0.164645 0.012709
v 0.214435 0.15 -0.199423
v 0.002303 0.15 -0.287291
v -0.209829 0.15 -0.199423
v -0.297697 0.15 0.012709
v -0.209829 0.15 0.224841
v 0.002303 0.15 0.312709
v 0.214435 0.15 0.224841
v 0.302303 0.15 0.012709
v 0.189435 0.164645 -0.174423
v 0.002303 0.164645 -0.251935
v -0.184829 0.164645 -0.174423
v -0.262341 0.164645 0.012709
v -0.184829 0.164645 0.199841
v 0.002303 0.164645 0.277354
v 0.189435 0.164645 0.199841
v 0.266948 0.164645 0.012709
vt 0 0.90625
vt 0.1875 0.90625
vt 0.1875 0.9375
vt 0 0.9375
vt 0.0625 0.90625
vt 0.25 0.90625
vt 0.25 0.9375
vt 0.0625 0.9375
vt 0.1875 0.90625
vt 0.375 0.90625
vt 0.375 0.9375
vt 0.1875 0.9375
vt 0.3125 0.90625
vt 0.5 0.90625
vt 0.5 0.9375
vt 0.3125 0.9375
vt 0.4375 0.90625
vt 0.625 0.90625
vt 0.625 0.9375
vt 0.4375 0.9375
vt 0.5625 0.90625
vt 0.75 0.90625
vt 0.75 0.9375
vt 0.5625 0.9375
vt 0.75 0.90625
vt 0.9375 0.90625
vt 0.9375 0.9375
vt 0.75 0.9375
vt 0.8125 0.90625
vt 1 0.90625
vt 1 0.9375
vt 0.8125 0.9375
vt 0 0.84375
vt 0.21875 0.84375
vt 0.21875 0.875
vt 0 0.875
vt 0.0625 0.78125
vt 0.28125 0.78125
vt 0.28125 0.8125
vt 0.0625 0.8125
vt 0.1875 0.84375
vt 0.40625 0.84375
vt 0.40625 0.875
vt 0.1875 0.875
vt 0.3125 0.84375
vt 0.53125 0.84375
vt 0.53125 0.875
vt 0.3125 0.875
vt 0.4375 0.78125
vt 0.65625 0.78125
vt 0.65625 0.8125
vt 0.4375 0.8125
vt 0.5625 0.78125
vt 0.78125 0.78125
vt 0.78125 0.8125
vt 0.5625 0.8125
vt 0.6875 0.84375
vt 0.90625 0.84375
vt 0.90625 0.875
vt 0.6875 0.875
vt 0.75 0.84375
vt 0.96875 0.84375
vt 0.96875 0.875
vt 0.75 0.875
vt 0.25 0.75
vt 0 0.75
vt 0 0.71875
vt 0.25 0.71875
vt 0.3125 0.75
vt 0.0625 0.75
vt 0.0625 0.71875
vt 0.3125 0.71875
vt 0.4375 0.75
vt 0.1875 0.75
vt 0.1875 0.71875
vt 0.4375 0.71875
vt 0.5625 0.75
vt 0.3125 0.75
vt 0.3125 0.71875
vt 0.5625 0.71875
vt 0.6875 0.6875
vt 0.4375 0.6875
vt 0.4375 0.65625
vt 0.6875 0.65625
vt 0.8125 0.6875
vt 0.5625 0.6875
vt 0.5625 0.65625
vt 0.8125 0.65625
vt 0.9375 0.6875
vt 0.6875 0.6875
vt 0.6875 0.65625
vt 0.9375 0.65625
vt 1 0.75
vt 0.75 0.75
vt 0.75 0.71875
vt 1 0.71875
vt 0.25 0.5625
vt 0 0.5625
vt 0 0.53125
vt 0.28125 0.53125
vt 0.3125 0.5625
vt 0.0625 0.5625
vt 0.0625 0.53125
vt 0.34375 0.53125
vt 0.4375 0.625
vt 0.1875 0.625
vt 0.1875 0.59375
vt 0.46875 0.59375
vt 0.5625 0.625
vt 0.3125 0.625
vt 0.3125 0.59375
vt 0.59375 0.59375
vt 0.6875 0.625
vt 0.4375 0.625
vt 0.4375 0.59375
vt 0.71875 0.59375
vt 0.8125 0.625
vt 0.5625 0.625
vt 0.5625 0.59375
vt 0.84375 0.59375
vt 0.9375 0.625
vt 0.6875 0.625
vt 0.6875 0.59375
vt 0.96875 0.59375
vt 1 0.625
vt 0.75 0.625
vt 0.75 0.59375
vt 1 0.59375
vt 0.28125 0.5
vt 0 0.5
vt 0 0.46875
vt 0.25 0.46875
vt 0.34375 0.5
vt 0.0625 0.5
vt 0.0625 0.46875
vt 0.3125 0.46875
vt 0.46875 0.5
vt 0.1875 0.5
vt 0.1875 0.46875
vt 0.4375 0.46875
vt 0.59375 0.4375
vt 0.3125 0.4375
vt 0.3125 0.40625
vt 0.5625 0.40625
vt 0.71875 0.4375
vt 0.4375 0.4375
vt 0.4375 0.40625
vt 0.6875 0.40625
vt 0.84375 0.4375
vt 0.5625 0.4375
vt 0.5625 0.40625
vt 0.8125 0.40625
vt 0.96875 0.4375
vt 0.6875 0.4375
vt 0.6875 0.40625
vt 0.9375 0.40625
vt 1 0.4375
vt 0.75 0.4375
vt 0.75 0.40625
vt 1 0.40625
vt 0.25 0.3125
vt 0 0.3125
vt 0 0.28125
vt 0.25 0.28125
vt 0.3125 0.3125
vt 0.0625 0.3125
vt 0.0625 0.28125
vt 0.3125 0.28125
vt 0.4375 0.3125
vt 0.1875 0.3125
vt 0.1875 0.28125
vt 0.4375 0.28125
vt 0.5625 0.375
vt 0.3125 0.375
vt 0.3125 0.34375
vt 0.5625 0.34375
vt 0.6875 0.375
vt 0.4375 0.375
vt 0.4375 0.34375
vt 0.6875 0.34375
vt 0.8125 0.375
vt 0.5625 0.375
vt 0.5625 0.34375
vt 0.8125 0.34375
vt 0.9375 0.375
vt 0.6875 0.375
vt 0.6875 0.34375
vt 0.9375 0.34375
vt 1 0.375
vt 0.75 0.375
vt 0.75 0.34375
vt 1 0.34375
vt 0 0.21875
vt 0.21875 0.21875
vt 0.21875 0.25
vt 0 0.25
vt 0.0625 0.21875
vt 0.28125 0.21875
vt 0.28125 0.25
vt 0.0625 0.25
vt 0.1875 0.21875
vt 0.40625 0.21875
vt 0.40625 0.25
vt 0.1875 0.25
vt 0.3125 0.15625
vt 0.53125 0.15625
vt 0.53125 0.1875
vt 0.3125 0.1875
vt 0.4375 0.15625
vt 0.65625 0.15625
vt 0.65625 0.1875
vt 0.4375 0.1875
vt 0.5625 0.15625
vt 0.78125 0.15625
vt 0.78125 0.1875
vt 0.5625 0.1875
vt 0.6875 0.15625
vt 0.90625 0.15625
vt 0.90625 0.1875
vt 0.6875 0.1875
vt 0.75 0.21875
vt 0.96875 0.21875
vt 0.96875 0.25
vt 0.75 0.25
vt 0 0.09375
vt 0.1875 0.09375
vt 0.1875 0.125
vt 0 0.125
vt 0.0625 0.09375
vt 0.25 0.09375
vt 0.25 0.125
vt 0.0625 0.125
vt 0.1875 0.09375
vt 0.375 0.09375
vt 0.375 0.125
vt 0.1875 0.125
vt 0.3125 0.09375
vt 0.5 0.09375
vt 0.5 0.125
vt 0.3125 0.125
vt 0.4375 0.09375
vt 0.625 0.09375
vt 0.625 0.125
vt 0.4375 0.125
vt 0.5625 0.09375
vt 0.75 0.09375
vt 0.75 0.125
vt 0.5625 0.125
vt 0.75 0.09375
vt 0.9375 0.09375
vt 0.9375 0.125
vt 0.75 0.125
vt 0.8125 0.09375
vt 1 0.09375
vt 1 0.125
vt 0.8125 0.125
vn -0.3574070027534962 0.3574211690692974 0.8628501273592646
vn 0.3574125534526757 0.35739505085313705 0.8628586467435566
vn 0.8628462035385321 0.3574302449544903 0.35740739923918113
vn 0.8628592702669372 0.35739530911579753 -0.35741078989928676
vn 0.3574064419795999 0.3574083337989966 -0.8628556763228183
vn -0.3574034148127392 0.35741722057332564 -0.8628532491205163
vn -0.8628595999721275 0.3573992577539765 -0.357406045406128
vn -0.8628526256272184 0.35741696230549114 0.357405178340396
vn -0.1565601239408387 0.9124832442644841 0.37797256054929584
vn 0.15655738544639913 0.9124864526762155 0.3779659491866492
vn 0.37797256054929596 0.9124832442644841 0.15656012394083868
vn 0.3779659491866492 0.9124864526762153 -0.15655738544639908
vn 0.15656160167432354 0.9124835328143613 -0.3779712518483288
vn -0.15656304276124525 0.9124818444360353 -0.3779747309225207
vn -0.3779712518483288 0.9124835328143613 -0.1565616016743236
vn -0.3779747309225212 0.9124818444360349 0.15656304276124552
vn 0.15656109217473385 0.9124834333272349 -0.3779717030683597
vn -0.15656236342390736 0.9124819439252644 -0.37797477213365854
vn -0.37797170306835964 0.9124834333272351 -0.15656109217473377
vn -0.37797477213365804 0.9124819439252647 0.15656236342390709
vn -0.15656109217473388 0.9124834333272348 0.37797170306835987
vn 0.15655867640057178 0.9124862636204526 0.377965870876839
vn 0.3779717030683597 0.9124834333272349 0.15656109217473377
vn 0.377965870876839 0.9124862636204526 -0.15655867640057178
vn 0.3574056276531884 0.3574082091811204 -0.86285606524598
vn -0.35740432751883267 0.35741708690811036 -0.8628529264347031
vn -0.8628591827687657 0.3573993914156597 -0.35740691896958854
vn -0.8628529264347036 0.35741708690810914 0.35740432751883294
vn -0.3574068391613081 0.3574211440408559 0.8628502054894863
vn 0.35741061897421705 0.3573953341467532 0.8628593306991574
vn 0.8628470878100936 0.35742996164715796 0.3574055477668919
vn 0.8628593306991574 0.3573953341467532 -0.35741061897421694
vn 0.35740684149005264 -0.35740839493672677 -0.8628554855158871
vn -0.35740685542090816 -0.3574167166964455 -0.862852032693944
vn -0.8628580272451141 -0.3573997616138232 -0.3574093384580942
vn -0.8628524780500352 -0.3574169011750174 0.35740559575552444
vn -0.35740331022257177 -0.35742060413586413 0.8628518908718357
vn 0.3574056721900488 -0.3573960585678006 0.862861079668437
vn 0.8628493490218522 -0.3574292371764909 0.35740081323913914
vn 0.862860634307716 -0.35739587409990625 -0.35740693185562294
vn 0.156560690103764 -0.9124833548167975 -0.3779720591479163
vn -0.15656182732674664 -0.9124820224365988 -0.3779748046551836
vn -0.37797205914791615 -0.9124833548167975 -0.156560690103764
vn -0.3779748046551831 -0.9124820224365991 0.1565618273267465
vn -0.1565618562502915 -0.9124835825238258 0.3779710263921661
vn 0.1565596951525832 -0.9124861144266239 0.377965809078457
vn 0.3779710263921661 -0.912483582523826 0.15656185625029143
vn 0.377965809078457 -0.9124861144266239 -0.15655969515258317
vn -0.15656109217473418 -0.9124834333272345 0.3779717030683605
vn 0.15655867640057208 -0.9124862636204522 0.37796587087683964
vn 0.37797170306836064 -0.9124834333272345 0.1565610921747342
vn 0.3779658708768397 -0.9124862636204522 -0.15655867640057206
vn 0.15656109217473413 -0.9124834333272347 -0.3779717030683604
vn -0.15656236342390742 -0.9124819439252645 -0.37797477213365877
vn -0.37797170306836053 -0.9124834333272345 -0.15656109217473416
vn -0.3779747721336592 -0.9124819439252642 0.15656236342390764
vn -0.3574023265836234 -0.3574204536445728 0.8628523606441144
vn 0.3574059041270285 -0.3573960246025514 0.8628609976661559
vn 0.8628492430023205 -0.35742927114453427 0.3574010352243115
vn 0.8628609976661563 -0.3573960246025508 -0.3574059041270285
vn 0.35740800224961206 -0.35740857256929753 -0.8628549311338022
vn -0.35740680853656553 -0.3574167235626911 -0.862852049269988
vn -0.8628580486763728 -0.3573997547478766 -0.35740929358448426
vn -0.8628520492699876 -0.3574167235626923 0.3574068085365655
usemtl m_1605c9d4-59a5-26b2-60f0-3f3b4bc4832c
f 105/417/105 106/418/105 107/419/105 108/420/105
f 109/421/106 105/422/106 108/423/106 110/424/106
f 111/425/107 109/426/107 110/427/107 112/428/107
f 113/429/108 111/430/108 112/431/108 114/432/108
f 115/433/109 113/434/109 114/435/109 116/436/109
f 117/437/110 115/438/110 116/439/110 118/440/110
f 119/441/111 117/442/111 118/443/111 120/444/111
f 106/445/112 119/446/112 120/447/112 107/448/112
f 108/449/113 107/450/113 121/451/113 122/452/113
f 110/453/114 108/454/114 122/455/114 123/456/114
f 112/457/115 110/458/115 123/459/115 124/460/115
f 114/461/116 112/462/116 124/463/116 125/464/116
f 116/465/117 114/466/117 125/467/117 126/468/117
f 118/469/118 116/470/118 126/471/118 127/472/118
f 120/473/119 118/474/119 127/475/119 128/476/119
f 107/477/120 120/478/120 128/479/120 121/480/120
f 122/481/121 121/482/121 129/483/121 130/484/121
f 123/485/122 122/486/122 130/487/122 131/488/122
f 124/489/123 123/490/123 131/491/123 132/492/123
f 125/493/124 124/494/124 132/495/124 133/496/124
f 126/497/125 125/498/125 133/499/125 134/500/125
f 127/501/126 126/502/126 134/503/126 135/504/126
f 128/505/127 127/506/127 135/507/127 136/508/127
f 121/509/128 128/510/128 136/511/128 129/512/128
f 130/513/129 129/514/129 137/515/129 138/516/129
f 131/517/130 130/518/130 138/519/130 139/520/130
f 132/521/131 131/522/131 139/523/131 140/524/131
f 133/525/132 132/526/132 140/527/132 141/528/132
f 134/529/133 133/530/133 141/531/133 142/532/133
f 135/533/134 134/534/134 142/535/134 143/536/134
f 136/537/135 135/538/135 143/539/135 144/540/135
f 129/541/136 136/542/136 144/543/136 137/544/136
f 138/545/137 137/546/137 145/547/137 146/548/137
f 139/549/138 138/550/138 146/551/138 147/552/138
f 140/553/139 139/554/139 147/555/139 148/556/139
f 141/557/140 140/558/140 148/559/140 149/560/140
f 142/561/141 141/562/141 149/563/141 150/564/141
f 143/565/142 142/566/142 150/567/142 151/568/142
f 144/569/143 143/570/143 151/571/143 152/572/143
f 137/573/144 144/574/144 152/575/144 145/576/144
f 146/577/145 145/578/145 153/579/145 154/580/145
f 147/581/146 146/582/146 154/583/146 155/584/146
f 148/585/147 147/586/147 155/587/147 156/588/147
f 149/589/148 148/590/148 156/591/148 157/592/148
f 150/593/149 149/594/149 157/595/149 158/596/149
f 151/597/150 150/598/150 158/599/150 159/600/150
f 152/601/151 151/602/151 159/603/151 160/604/151
f 145/605/152 152/606/152 160/607/152 153/608/152
f 154/609/153 153/610/153 161/611/153 162/612/153
f 155/613/154 154/614/154 162/615/154 163/616/154
f 156/617/155 155/618/155 163/619/155 164/620/155
f 157/621/156 156/622/156 164/623/156 165/624/156
f 158/625/157 157/626/157 165/627/157 166/628/157
f 159/629/158 158/630/158 166/631/158 167/632/158
f 160/633/159 159/634/159 167/635/159 168/636/159
f 153/637/160 160/638/160 168/639/160 161/640/160
f 162/641/161 161/642/161 106/643/161 105/644/161
f 163/645/162 162/646/162 105/647/162 109/648/162
f 164/649/163 163/650/163 109/651/163 111/652/163
f 165/653/164 164/654/164 111/655/164 113/656/164
f 166/657/165 165/658/165 113/659/165 115/660/165
f 167/661/166 166/662/166 115/663/166 117/664/166
f 168/665/167 167/666/167 117/667/167 119/668/167
f 161/669/168 168/670/168 119/671/168 106/672/168
o default
o pTorus3
v 0 0.35 -0.25
v 0.176777 0.35 -0.176777
v 0.187132 0.385355 -0.187132
v 0 0.385355 -0.264645
v -0.176777 0.35 -0.176777
v -0.187132 0.385355 -0.187132
v -0.25 0.35 0
v -0.264645 0.385355 0
v -0.176777 0.35 0.176777
v -0.187132 0.385355 0.187132
v 0 0.35 0.25
v 0 0.385355 0.264645
v 0.176777 0.35 0.176777
v 0.187132 0.385355 0.187132
v 0.25 0.35 0
v 0.264645 0.385355 0
v 0.212132 0.4 -0.212132
v 0 0.4 -0.3
v -0.212132 0.4 -0.212132
v -0.3 0.4 0
v -0.212132 0.4 0.212132
v 0 0.4 0.3
v 0.212132 0.4 0.212132
v 0.3 0.4 0
v 0.237132 0.385355 -0.237132
v 0 0.385355 -0.335355
v -0.237132 0.385355 -0.237132
v -0.335355 0.385355 0
v -0.237132 0.385355 0.237132
v 0 0.385355 0.335355
v 0.237132 0.385355 0.237132
v 0.335355 0.385355 0
v 0.247487 0.35 -0.247487
v 0 0.35 -0.35
v -0.247487 0.35 -0.247487
v -0.35 0.35 0
v -0.247487 0.35 0.247487
v 0 0.35 0.35
v 0.247487 0.35 0.247487
v 0.35 0.35 0
v 0.237132 0.314645 -0.237132
v 0 0.314645 -0.335355
v -0.237132 0.314645 -0.237132
v -0.335355 0.314645 0
v -0.237132 0.314645 0.237132
v 0 0.314645 0.335355
v 0.237132 0.314645 0.237132
v 0.335355 0.314645 0
v 0.212132 0.3 -0.212132
v 0 0.3 -0.3
v -0.212132 0.3 -0.212132
v -0.3 0.3 0
v -0.212132 0.3 0.212132
v 0 0.3 0.3
v 0.212132 0.3 0.212132
v 0.3 0.3 0
v 0.187132 0.314645 -0.187132
v 0 0.314645 -0.264645
v -0.187132 0.314645 -0.187132
v -0.264645 0.314645 0
v -0.187132 0.314645 0.187132
v 0 0.314645 0.264645
v 0.187132 0.314645 0.187132
v 0.264645 0.314645 0
vt 0 0.90625
vt 0.1875 0.90625
vt 0.1875 0.9375
vt 0 0.9375
vt 0.0625 0.90625
vt 0.25 0.90625
vt 0.25 0.9375
vt 0.0625 0.9375
vt 0.1875 0.90625
vt 0.375 0.90625
vt 0.375 0.9375
vt 0.1875 0.9375
vt 0.3125 0.90625
vt 0.5 0.90625
vt 0.5 0.9375
vt 0.3125 0.9375
vt 0.4375 0.90625
vt 0.625 0.90625
vt 0.625 0.9375
vt 0.4375 0.9375
vt 0.5625 0.90625
vt 0.75 0.90625
vt 0.75 0.9375
vt 0.5625 0.9375
vt 0.6875 0.90625
vt 0.875 0.90625
vt 0.875 0.9375
vt 0.6875 0.9375
vt 0.8125 0.90625
vt 1 0.90625
vt 1 0.9375
vt 0.8125 0.9375
vt 0 0.84375
vt 0.21875 0.84375
vt 0.21875 0.875
vt 0 0.875
vt 0.0625 0.84375
vt 0.28125 0.84375
vt 0.28125 0.875
vt 0.0625 0.875
vt 0.1875 0.84375
vt 0.40625 0.84375
vt 0.40625 0.875
vt 0.1875 0.875
vt 0.3125 0.84375
vt 0.53125 0.84375
vt 0.53125 0.875
vt 0.3125 0.875
vt 0.4375 0.84375
vt 0.65625 0.84375
vt 0.65625 0.875
vt 0.4375 0.875
vt 0.5625 0.84375
vt 0.78125 0.84375
vt 0.78125 0.875
vt 0.5625 0.875
vt 0.6875 0.84375
vt 0.90625 0.84375
vt 0.90625 0.875
vt 0.6875 0.875
vt 0.75 0.84375
vt 0.96875 0.84375
vt 0.96875 0.875
vt 0.75 0.875
vt 0.25 0.75
vt 0 0.75
vt 0 0.71875
vt 0.25 0.71875
vt 0.3125 0.75
vt 0.0625 0.75
vt 0.0625 0.71875
vt 0.3125 0.71875
vt 0.4375 0.75
vt 0.1875 0.75
vt 0.1875 0.71875
vt 0.4375 0.71875
vt 0.5625 0.75
vt 0.3125 0.75
vt 0.3125 0.71875
vt 0.5625 0.71875
vt 0.6875 0.75
vt 0.4375 0.75
vt 0.4375 0.71875
vt 0.6875 0.71875
vt 0.8125 0.75
vt 0.5625 0.75
vt 0.5625 0.71875
vt 0.8125 0.71875
vt 0.9375 0.75
vt 0.6875 0.75
vt 0.6875 0.71875
vt 0.9375 0.71875
vt 1 0.75
vt 0.75 0.75
vt 0.75 0.71875
vt 1 0.71875
vt 0.25 0.5625
vt 0 0.5625
vt 0 0.53125
vt 0.28125 0.53125
vt 0.3125 0.5625
vt 0.0625 0.5625
vt 0.0625 0.53125
vt 0.34375 0.53125
vt 0.4375 0.5625
vt 0.1875 0.5625
vt 0.1875 0.53125
vt 0.46875 0.53125
vt 0.5625 0.5625
vt 0.3125 0.5625
vt 0.3125 0.53125
vt 0.59375 0.53125
vt 0.6875 0.5625
vt 0.4375 0.5625
vt 0.4375 0.53125
vt 0.71875 0.53125
vt 0.8125 0.5625
vt 0.5625 0.5625
vt 0.5625 0.53125
vt 0.84375 0.53125
vt 0.9375 0.5625
vt 0.6875 0.5625
vt 0.6875 0.53125
vt 0.96875 0.53125
vt 1 0.5625
vt 0.75 0.5625
vt 0.75 0.53125
vt 1 0.53125
vt 0.28125 0.4375
vt 0 0.4375
vt 0 0.40625
vt 0.25 0.40625
vt 0.34375 0.4375
vt 0.0625 0.4375
vt 0.0625 0.40625
vt 0.3125 0.40625
vt 0.46875 0.4375
vt 0.1875 0.4375
vt 0.1875 0.40625
vt 0.4375 0.40625
vt 0.59375 0.4375
vt 0.3125 0.4375
vt 0.3125 0.40625
vt 0.5625 0.40625
vt 0.71875 0.4375
vt 0.4375 0.4375
vt 0.4375 0.40625
vt 0.6875 0.40625
vt 0.84375 0.4375
vt 0.5625 0.4375
vt 0.5625 0.40625
vt 0.8125 0.40625
vt 0.96875 0.4375
vt 0.6875 0.4375
vt 0.6875 0.40625
vt 0.9375 0.40625
vt 1 0.4375
vt 0.75 0.4375
vt 0.75 0.40625
vt 1 0.40625
vt 0.25 0.375
vt 0 0.375
vt 0 0.34375
vt 0.25 0.34375
vt 0.3125 0.375
vt 0.0625 0.375
vt 0.0625 0.34375
vt 0.3125 0.34375
vt 0.4375 0.375
vt 0.1875 0.375
vt 0.1875 0.34375
vt 0.4375 0.34375
vt 0.5625 0.375
vt 0.3125 0.375
vt 0.3125 0.34375
vt 0.5625 0.34375
vt 0.6875 0.375
vt 0.4375 0.375
vt 0.4375 0.34375
vt 0.6875 0.34375
vt 0.8125 0.375
vt 0.5625 0.375
vt 0.5625 0.34375
vt 0.8125 0.34375
vt 0.9375 0.375
vt 0.6875 0.375
vt 0.6875 0.34375
vt 0.9375 0.34375
vt 1 0.375
vt 0.75 0.375
vt 0.75 0.34375
vt 1 0.34375
vt 0 0.15625
vt 0.21875 0.15625
vt 0.21875 0.1875
vt 0 0.1875
vt 0.0625 0.15625
vt 0.28125 0.15625
vt 0.28125 0.1875
vt 0.0625 0.1875
vt 0.1875 0.15625
vt 0.40625 0.15625
vt 0.40625 0.1875
vt 0.1875 0.1875
vt 0.3125 0.15625
vt 0.53125 0.15625
vt 0.53125 0.1875
vt 0.3125 0.1875
vt 0.4375 0.15625
vt 0.65625 0.15625
vt 0.65625 0.1875
vt 0.4375 0.1875
vt 0.5625 0.15625
vt 0.78125 0.15625
vt 0.78125 0.1875
vt 0.5625 0.1875
vt 0.6875 0.15625
vt 0.90625 0.15625
vt 0.90625 0.1875
vt 0.6875 0.1875
vt 0.75 0.15625
vt 0.96875 0.15625
vt 0.96875 0.1875
vt 0.75 0.1875
vt 0 0.03125
vt 0.1875 0.03125
vt 0.1875 0.0625
vt 0 0.0625
vt 0.0625 0.03125
vt 0.25 0.03125
vt 0.25 0.0625
vt 0.0625 0.0625
vt 0.1875 0.03125
vt 0.375 0.03125
vt 0.375 0.0625
vt 0.1875 0.0625
vt 0.3125 0.03125
vt 0.5 0.03125
vt 0.5 0.0625
vt 0.3125 0.0625
vt 0.4375 0.03125
vt 0.625 0.03125
vt 0.625 0.0625
vt 0.4375 0.0625
vt 0.5625 0.03125
vt 0.75 0.03125
vt 0.75 0.0625
vt 0.5625 0.0625
vt 0.6875 0.03125
vt 0.875 0.03125
vt 0.875 0.0625
vt 0.6875 0.0625
vt 0.8125 0.03125
vt 1 0.03125
vt 1 0.0625
vt 0.8125 0.0625
vn -0.357406045406128 0.35739925775397624 0.8628595999721274
vn 0.3574034148127389 0.3574172205733267 0.862853249120516
vn 0.8628595999721274 0.35739925775397624 0.357406045406128
vn 0.862853249120516 0.3574172205733267 -0.3574034148127389
vn 0.357406045406128 0.35739925775397624 -0.8628595999721274
vn -0.3574034148127389 0.3574172205733267 -0.862853249120516
vn -0.8628595999721274 0.35739925775397624 -0.357406045406128
vn -0.862853249120516 0.3574172205733267 0.3574034148127389
vn -0.15656160167432392 0.912483532814361 0.3779712518483296
vn 0.15656304276124577 0.9124818444360345 0.37797473092252176
vn 0.3779712518483296 0.912483532814361 0.15656160167432392
vn 0.37797473092252176 0.9124818444360345 -0.15656304276124577
vn 0.15656160167432392 0.912483532814361 -0.3779712518483296
vn -0.15656304276124577 0.9124818444360345 -0.37797473092252176
vn -0.3779712518483296 0.912483532814361 -0.15656160167432392
vn -0.37797473092252176 0.9124818444360345 0.15656304276124577
vn 0.15656109217473402 0.9124834333272348 -0.3779717030683602
vn -0.15656236342390742 0.9124819439252645 -0.37797477213365877
vn -0.37797170306836014 0.9124834333272347 -0.15656109217473402
vn -0.37797477213365877 0.9124819439252645 0.15656236342390742
vn -0.15656109217473402 0.9124834333272348 0.3779717030683602
vn 0.15656236342390742 0.9124819439252645 0.37797477213365877
vn 0.37797170306836014 0.9124834333272347 0.15656109217473402
vn 0.37797477213365877 0.9124819439252645 -0.15656236342390742
vn 0.35740691896958854 0.35739939141565974 -0.8628591827687656
vn -0.35740432751883294 0.35741708690810886 -0.8628529264347037
vn -0.8628591827687656 0.35739939141565974 -0.35740691896958854
vn -0.8628529264347039 0.3574170869081089 0.357404327518833
vn -0.35740691896958854 0.35739939141565974 0.8628591827687656
vn 0.35740432751883294 0.35741708690810886 0.8628529264347037
vn 0.8628591827687656 0.35739939141565974 0.35740691896958854
vn 0.8628529264347039 0.3574170869081089 -0.357404327518833
vn 0.35740933845809403 -0.3573997616138237 -0.8628580272451138
vn -0.35740685542090805 -0.3574167166964445 -0.8628520326939444
vn -0.8628580272451138 -0.3573997616138237 -0.35740933845809403
vn -0.8628520326939444 -0.3574167166964445 0.35740685542090805
vn -0.35740933845809403 -0.3573997616138237 0.8628580272451138
vn 0.35740685542090805 -0.3574167166964445 0.8628520326939444
vn 0.8628580272451138 -0.3573997616138237 0.35740933845809403
vn 0.8628520326939444 -0.3574167166964445 -0.35740685542090805
vn 0.156560690103764 -0.9124833548167975 -0.37797205914791615
vn -0.1565618273267465 -0.9124820224365991 -0.3779748046551831
vn -0.37797205914791615 -0.9124833548167975 -0.156560690103764
vn -0.3779748046551831 -0.9124820224365991 0.1565618273267465
vn -0.156560690103764 -0.9124833548167975 0.37797205914791615
vn 0.1565618273267465 -0.9124820224365991 0.3779748046551831
vn 0.37797205914791615 -0.9124833548167975 0.156560690103764
vn 0.3779748046551831 -0.9124820224365991 -0.1565618273267465
vn -0.1565610921747342 -0.9124834333272345 0.37797170306836064
vn 0.1565623634239076 -0.912481943925264 0.37797477213365915
vn 0.37797170306836064 -0.9124834333272345 0.1565610921747342
vn 0.3779747721336592 -0.9124819439252642 -0.15656236342390764
vn 0.1565610921747342 -0.9124834333272345 -0.37797170306836064
vn -0.1565623634239076 -0.912481943925264 -0.37797477213365915
vn -0.37797170306836064 -0.9124834333272345 -0.1565610921747342
vn -0.3779747721336592 -0.9124819439252642 0.15656236342390764
vn -0.3574092935844842 -0.35739975474787683 0.8628580486763727
vn 0.3574068085365654 -0.3574167235626925 0.8628520492699874
vn 0.8628580486763728 -0.3573997547478769 0.35740929358448426
vn 0.8628520492699874 -0.3574167235626925 -0.3574068085365654
vn 0.3574092935844842 -0.35739975474787683 -0.8628580486763727
vn -0.3574068085365654 -0.3574167235626925 -0.8628520492699874
vn -0.8628580486763728 -0.3573997547478769 -0.35740929358448426
vn -0.8628520492699874 -0.3574167235626925 0.3574068085365654
usemtl m_1605c9d4-59a5-26b2-60f0-3f3b4bc4832c
f 169/673/169 170/674/169 171/675/169 172/676/169
f 173/677/170 169/678/170 172/679/170 174/680/170
f 175/681/171 173/682/171 174/683/171 176/684/171
f 177/685/172 175/686/172 176/687/172 178/688/172
f 179/689/173 177/690/173 178/691/173 180/692/173
f 181/693/174 179/694/174 180/695/174 182/696/174
f 183/697/175 181/698/175 182/699/175 184/700/175
f 170/701/176 183/702/176 184/703/176 171/704/176
f 172/705/177 171/706/177 185/707/177 186/708/177
f 174/709/178 172/710/178 186/711/178 187/712/178
f 176/713/179 174/714/179 187/715/179 188/716/179
f 178/717/180 176/718/180 188/719/180 189/720/180
f 180/721/181 178/722/181 189/723/181 190/724/181
f 182/725/182 180/726/182 190/727/182 191/728/182
f 184/729/183 182/730/183 191/731/183 192/732/183
f 171/733/184 184/734/184 192/735/184 185/736/184
f 186/737/185 185/738/185 193/739/185 194/740/185
f 187/741/186 186/742/186 194/743/186 195/744/186
f 188/745/187 187/746/187 195/747/187 196/748/187
f 189/749/188 188/750/188 196/751/188 197/752/188
f 190/753/189 189/754/189 197/755/189 198/756/189
f 191/757/190 190/758/190 198/759/190 199/760/190
f 192/761/191 191/762/191 199/763/191 200/764/191
f 185/765/192 192/766/192 200/767/192 193/768/192
f 194/769/193 193/770/193 201/771/193 202/772/193
f 195/773/194 194/774/194 202/775/194 203/776/194
f 196/777/195 195/778/195 203/779/195 204/780/195
f 197/781/196 196/782/196 204/783/196 205/784/196
f 198/785/197 197/786/197 205/787/197 206/788/197
f 199/789/198 198/790/198 206/791/198 207/792/198
f 200/793/199 199/794/199 207/795/199 208/796/199
f 193/797/200 200/798/200 208/799/200 201/800/200
f 202/801/201 201/802/201 209/803/201 210/804/201
f 203/805/202 202/806/202 210/807/202 211/808/202
f 204/809/203 203/810/203 211/811/203 212/812/203
f 205/813/204 204/814/204 212/815/204 213/816/204
f 206/817/205 205/818/205 213/819/205 214/820/205
f 207/821/206 206/822/206 214/823/206 215/824/206
f 208/825/207 207/826/207 215/827/207 216/828/207
f 201/829/208 208/830/208 216/831/208 209/832/208
f 210/833/209 209/834/209 217/835/209 218/836/209
f 211/837/210 210/838/210 218/839/210 219/840/210
f 212/841/211 211/842/211 219/843/211 220/844/211
f 213/845/212 212/846/212 220/847/212 221/848/212
f 214/849/213 213/850/213 221/851/213 222/852/213
f 215/853/214 214/854/214 222/855/214 223/856/214
f 216/857/215 215/858/215 223/859/215 224/860/215
f 209/861/216 216/862/216 224/863/216 217/864/216
f 218/865/217 217/866/217 225/867/217 226/868/217
f 219/869/218 218/870/218 226/871/218 227/872/218
f 220/873/219 219/874/219 227/875/219 228/876/219
f 221/877/220 220/878/220 228/879/220 229/880/220
f 222/881/221 221/882/221 229/883/221 230/884/221
f 223/885/222 222/886/222 230/887/222 231/888/222
f 224/889/223 223/890/223 231/891/223 232/892/223
f 217/893/224 224/894/224 232/895/224 225/896/224
f 226/897/225 225/898/225 170/899/225 169/900/225
f 227/901/226 226/902/226 169/903/226 173/904/226
f 228/905/227 227/906/227 173/907/227 175/908/227
f 229/909/228 228/910/228 175/911/228 177/912/228
f 230/913/229 229/914/229 177/915/229 179/916/229
f 231/917/230 230/918/230 179/919/230 181/920/230
f 232/921/231 231/922/231 181/923/231 183/924/231
f 225/925/232 232/926/232 183/927/232 170/928/232
o default
o pTorus4
v 0 0.5 -0.25
v 0.176777 0.5 -0.176777
v 0.187132 0.535355 -0.187132
v 0 0.535355 -0.264645
v -0.176777 0.5 -0.176777
v -0.187132 0.535355 -0.187132
v -0.25 0.5 0
v -0.264645 0.535355 0
v -0.176777 0.5 0.176777
v -0.187132 0.535355 0.187132
v 0 0.5 0.25
v 0 0.535355 0.264645
v 0.176777 0.5 0.176777
v 0.187132 0.535355 0.187132
v 0.25 0.5 0
v 0.264645 0.535355 0
v 0.212132 0.55 -0.212132
v 0 0.55 -0.3
v -0.212132 0.55 -0.212132
v -0.3 0.55 0
v -0.212132 0.55 0.212132
v 0 0.55 0.3
v 0.212132 0.55 0.212132
v 0.3 0.55 0
v 0.237132 0.535355 -0.237132
v 0 0.535355 -0.335355
v -0.237132 0.535355 -0.237132
v -0.335355 0.535355 0
v -0.237132 0.535355 0.237132
v 0 0.535355 0.335355
v 0.237132 0.535355 0.237132
v 0.335355 0.535355 0
v 0.247487 0.5 -0.247487
v 0 0.5 -0.35
v -0.247487 0.5 -0.247487
v -0.35 0.5 0
v -0.247487 0.5 0.247487
v 0 0.5 0.35
v 0.247487 0.5 0.247487
v 0.35 0.5 0
v 0.237132 0.464645 -0.237132
v 0 0.464645 -0.335355
v -0.237132 0.464645 -0.237132
v -0.335355 0.464645 0
v -0.237132 0.464645 0.237132
v 0 0.464645 0.335355
v 0.237132 0.464645 0.237132
v 0.335355 0.464645 0
v 0.212132 0.45 -0.212132
v 0 0.45 -0.3
v -0.212132 0.45 -0.212132
v -0.3 0.45 0
v -0.212132 0.45 0.212132
v 0 0.45 0.3
v 0.212132 0.45 0.212132
v 0.3 0.45 0
v 0.187132 0.464645 -0.187132
v 0 0.464645 -0.264645
v -0.187132 0.464645 -0.187132
v -0.264645 0.464645 0
v -0.187132 0.464645 0.187132
v 0 0.464645 0.264645
v 0.187132 0.464645 0.187132
v 0.264645 0.464645 0
vt 0 0.90625
vt 0.203125 0.90625
vt 0.203125 0.9375
vt 0 0.9375
vt 0.0625 0.90625
vt 0.265625 0.90625
vt 0.265625 0.9375
vt 0.0625 0.9375
vt 0.1875 0.90625
vt 0.390625 0.90625
vt 0.390625 0.9375
vt 0.1875 0.9375
vt 0.3125 0.90625
vt 0.515625 0.90625
vt 0.515625 0.9375
vt 0.3125 0.9375
vt 0.4375 0.90625
vt 0.640625 0.90625
vt 0.640625 0.9375
vt 0.4375 0.9375
vt 0.5625 0.90625
vt 0.765625 0.90625
vt 0.765625 0.9375
vt 0.5625 0.9375
vt 0.6875 0.90625
vt 0.890625 0.90625
vt 0.890625 0.9375
vt 0.6875 0.9375
vt 0.8125 0.90625
vt 1 0.90625
vt 1 0.9375
vt 0.8125 0.9375
vt 0.015625 0.84375
vt 0.21875 0.84375
vt 0.234375 0.875
vt 0 0.875
vt 0.078125 0.84375
vt 0.28125 0.84375
vt 0.296875 0.875
vt 0.0625 0.875
vt 0.203125 0.84375
vt 0.40625 0.84375
vt 0.421875 0.875
vt 0.1875 0.875
vt 0.328125 0.84375
vt 0.53125 0.84375
vt 0.546875 0.875
vt 0.3125 0.875
vt 0.453125 0.84375
vt 0.65625 0.84375
vt 0.671875 0.875
vt 0.4375 0.875
vt 0.578125 0.84375
vt 0.78125 0.84375
vt 0.796875 0.875
vt 0.5625 0.875
vt 0.703125 0.84375
vt 0.90625 0.84375
vt 0.921875 0.875
vt 0.6875 0.875
vt 0.765625 0.84375
vt 0.96875 0.84375
vt 0.984375 0.875
vt 0.75 0.875
vt 0.25 0.75
vt 0.015625 0.75
vt 0 0.71875
vt 0.25 0.71875
vt 0.3125 0.75
vt 0.078125 0.75
vt 0.0625 0.71875
vt 0.3125 0.71875
vt 0.4375 0.75
vt 0.203125 0.75
vt 0.1875 0.71875
vt 0.4375 0.71875
vt 0.5625 0.75
vt 0.328125 0.75
vt 0.3125 0.71875
vt 0.5625 0.71875
vt 0.6875 0.75
vt 0.453125 0.75
vt 0.4375 0.71875
vt 0.6875 0.71875
vt 0.8125 0.75
vt 0.578125 0.75
vt 0.5625 0.71875
vt 0.8125 0.71875
vt 0.9375 0.75
vt 0.703125 0.75
vt 0.6875 0.71875
vt 0.9375 0.71875
vt 1 0.75
vt 0.765625 0.75
vt 0.75 0.71875
vt 1 0.71875
vt 0.265625 0.5625
vt 0 0.5625
vt 0 0.53125
vt 0.265625 0.53125
vt 0.328125 0.5625
vt 0.0625 0.5625
vt 0.0625 0.53125
vt 0.328125 0.53125
vt 0.453125 0.5625
vt 0.1875 0.5625
vt 0.1875 0.53125
vt 0.453125 0.53125
vt 0.578125 0.5625
vt 0.3125 0.5625
vt 0.3125 0.53125
vt 0.578125 0.53125
vt 0.703125 0.5625
vt 0.4375 0.5625
vt 0.4375 0.53125
vt 0.703125 0.53125
vt 0.828125 0.5625
vt 0.5625 0.5625
vt 0.5625 0.53125
vt 0.828125 0.53125
vt 0.953125 0.5625
vt 0.6875 0.5625
vt 0.6875 0.53125
vt 0.953125 0.53125
vt 1 0.5625
vt 0.75 0.5625
vt 0.75 0.53125
vt 1 0.53125
vt 0.265625 0.4375
vt 0 0.4375
vt 0 0.40625
vt 0.265625 0.40625
vt 0.328125 0.4375
vt 0.0625 0.4375
vt 0.0625 0.40625
vt 0.328125 0.40625
vt 0.453125 0.4375
vt 0.1875 0.4375
vt 0.1875 0.40625
vt 0.453125 0.40625
vt 0.578125 0.4375
vt 0.3125 0.4375
vt 0.3125 0.40625
vt 0.578125 0.40625
vt 0.703125 0.4375
vt 0.4375 0.4375
vt 0.4375 0.40625
vt 0.703125 0.40625
vt 0.828125 0.4375
vt 0.5625 0.4375
vt 0.5625 0.40625
vt 0.828125 0.40625
vt 0.953125 0.4375
vt 0.6875 0.4375
vt 0.6875 0.40625
vt 0.953125 0.40625
vt 1 0.4375
vt 0.75 0.4375
vt 0.75 0.40625
vt 1 0.40625
vt 0.25 0.375
vt 0 0.375
vt 0.015625 0.34375
vt 0.25 0.34375
vt 0.3125 0.375
vt 0.0625 0.375
vt 0.078125 0.34375
vt 0.3125 0.34375
vt 0.4375 0.375
vt 0.1875 0.375
vt 0.203125 0.34375
vt 0.4375 0.34375
vt 0.5625 0.375
vt 0.3125 0.375
vt 0.328125 0.34375
vt 0.5625 0.34375
vt 0.6875 0.375
vt 0.4375 0.375
vt 0.453125 0.34375
vt 0.6875 0.34375
vt 0.8125 0.375
vt 0.5625 0.375
vt 0.578125 0.34375
vt 0.8125 0.34375
vt 0.9375 0.375
vt 0.6875 0.375
vt 0.703125 0.34375
vt 0.9375 0.34375
vt 1 0.375
vt 0.75 0.375
vt 0.765625 0.34375
vt 1 0.34375
vt 0 0.15625
vt 0.234375 0.15625
vt 0.21875 0.1875
vt 0.015625 0.1875
vt 0.0625 0.15625
vt 0.296875 0.15625
vt 0.28125 0.1875
vt 0.078125 0.1875
vt 0.1875 0.15625
vt 0.421875 0.15625
vt 0.40625 0.1875
vt 0.203125 0.1875
vt 0.3125 0.15625
vt 0.546875 0.15625
vt 0.53125 0.1875
vt 0.328125 0.1875
vt 0.4375 0.15625
vt 0.671875 0.15625
vt 0.65625 0.1875
vt 0.453125 0.1875
vt 0.5625 0.15625
vt 0.796875 0.15625
vt 0.78125 0.1875
vt 0.578125 0.1875
vt 0.6875 0.15625
vt 0.921875 0.15625
vt 0.90625 0.1875
vt 0.703125 0.1875
vt 0.75 0.15625
vt 0.984375 0.15625
vt 0.96875 0.1875
vt 0.765625 0.1875
vt 0 0.03125
vt 0.203125 0.03125
vt 0.203125 0.0625
vt 0 0.0625
vt 0.0625 0.03125
vt 0.265625 0.03125
vt 0.265625 0.0625
vt 0.0625 0.0625
vt 0.1875 0.03125
vt 0.390625 0.03125
vt 0.390625 0.0625
vt 0.1875 0.0625
vt 0.3125 0.03125
vt 0.515625 0.03125
vt 0.515625 0.0625
vt 0.3125 0.0625
vt 0.4375 0.03125
vt 0.640625 0.03125
vt 0.640625 0.0625
vt 0.4375 0.0625
vt 0.5625 0.03125
vt 0.765625 0.03125
vt 0.765625 0.0625
vt 0.5625 0.0625
vt 0.6875 0.03125
vt 0.890625 0.03125
vt 0.890625 0.0625
vt 0.6875 0.0625
vt 0.8125 0.03125
vt 1 0.03125
vt 1 0.0625
vt 0.8125 0.0625
vn -0.357406045406128 0.35739925775397624 0.8628595999721274
vn 0.3574034148127389 0.3574172205733267 0.862853249120516
vn 0.8628595999721274 0.35739925775397624 0.357406045406128
vn 0.862853249120516 0.3574172205733267 -0.3574034148127389
vn 0.357406045406128 0.35739925775397624 -0.8628595999721274
vn -0.3574034148127389 0.3574172205733267 -0.862853249120516
vn -0.8628595999721274 0.35739925775397624 -0.357406045406128
vn -0.862853249120516 0.3574172205733267 0.3574034148127389
vn -0.15656160167432392 0.912483532814361 0.3779712518483296
vn 0.15656304276124577 0.9124818444360345 0.37797473092252176
vn 0.3779712518483296 0.912483532814361 0.15656160167432392
vn 0.37797473092252176 0.9124818444360345 -0.15656304276124577
vn 0.15656160167432392 0.912483532814361 -0.3779712518483296
vn -0.15656304276124577 0.9124818444360345 -0.37797473092252176
vn -0.3779712518483296 0.912483532814361 -0.15656160167432392
vn -0.37797473092252176 0.9124818444360345 0.15656304276124577
vn 0.15656109217473402 0.9124834333272348 -0.3779717030683602
vn -0.15656236342390742 0.9124819439252645 -0.37797477213365877
vn -0.37797170306836014 0.9124834333272347 -0.15656109217473402
vn -0.37797477213365877 0.9124819439252645 0.15656236342390742
vn -0.15656109217473402 0.9124834333272348 0.3779717030683602
vn 0.15656236342390742 0.9124819439252645 0.37797477213365877
vn 0.37797170306836014 0.9124834333272347 0.15656109217473402
vn 0.37797477213365877 0.9124819439252645 -0.15656236342390742
vn 0.35740691896958854 0.35739939141565974 -0.8628591827687656
vn -0.35740432751883294 0.35741708690810886 -0.8628529264347037
vn -0.8628591827687656 0.35739939141565974 -0.35740691896958854
vn -0.8628529264347039 0.3574170869081089 0.357404327518833
vn -0.35740691896958854 0.35739939141565974 0.8628591827687656
vn 0.35740432751883294 0.35741708690810886 0.8628529264347037
vn 0.8628591827687656 0.35739939141565974 0.35740691896958854
vn 0.8628529264347039 0.3574170869081089 -0.357404327518833
vn 0.35740933845809414 -0.35739976161382325 -0.862858027245114
vn -0.3574068554209082 -0.35741671669644404 -0.8628520326939445
vn -0.862858027245114 -0.35739976161382325 -0.35740933845809414
vn -0.8628520326939445 -0.35741671669644404 0.3574068554209082
vn -0.35740933845809414 -0.35739976161382325 0.862858027245114
vn 0.3574068554209082 -0.35741671669644404 0.8628520326939445
vn 0.862858027245114 -0.35739976161382325 0.35740933845809414
vn 0.8628520326939445 -0.35741671669644404 -0.3574068554209082
vn 0.1565606901037635 -0.9124833548167981 -0.37797205914791493
vn -0.156561827326746 -0.9124820224365997 -0.3779748046551819
vn -0.37797205914791493 -0.9124833548167981 -0.1565606901037635
vn -0.3779748046551819 -0.9124820224365997 0.156561827326746
vn -0.1565606901037635 -0.9124833548167981 0.37797205914791493
vn 0.156561827326746 -0.9124820224365997 0.3779748046551819
vn 0.37797205914791493 -0.9124833548167981 0.1565606901037635
vn 0.3779748046551819 -0.9124820224365997 -0.156561827326746
vn -0.1565610921747337 -0.912483433327235 0.3779717030683595
vn 0.1565623634239071 -0.9124819439252648 0.37797477213365804
vn 0.3779717030683595 -0.912483433327235 0.1565610921747337
vn 0.37797477213365804 -0.9124819439252648 -0.1565623634239071
vn 0.1565610921747337 -0.912483433327235 -0.3779717030683595
vn -0.1565623634239071 -0.9124819439252648 -0.37797477213365804
vn -0.3779717030683595 -0.912483433327235 -0.1565610921747337
vn -0.37797477213365804 -0.9124819439252648 0.1565623634239071
vn -0.35740929358448426 -0.35739975474787633 0.8628580486763728
vn 0.3574068085365655 -0.357416723562692 0.8628520492699877
vn 0.8628580486763728 -0.35739975474787633 0.35740929358448426
vn 0.8628520492699877 -0.357416723562692 -0.3574068085365655
vn 0.35740929358448426 -0.35739975474787633 -0.8628580486763728
vn -0.3574068085365655 -0.357416723562692 -0.8628520492699877
vn -0.8628580486763728 -0.35739975474787633 -0.35740929358448426
vn -0.8628520492699877 -0.357416723562692 0.3574068085365655
usemtl m_1605c9d4-59a5-26b2-60f0-3f3b4bc4832c
f 233/929/233 234/930/233 235/931/233 236/932/233
f 237/933/234 233/934/234 236/935/234 238/936/234
f 239/937/235 237/938/235 238/939/235 240/940/235
f 241/941/236 239/942/236 240/943/236 242/944/236
f 243/945/237 241/946/237 242/947/237 244/948/237
f 245/949/238 243/950/238 244/951/238 246/952/238
f 247/953/239 245/954/239 246/955/239 248/956/239
f 234/957/240 247/958/240 248/959/240 235/960/240
f 236/961/241 235/962/241 249/963/241 250/964/241
f 238/965/242 236/966/242 250/967/242 251/968/242
f 240/969/243 238/970/243 251/971/243 252/972/243
f 242/973/244 240/974/244 252/975/244 253/976/244
f 244/977/245 242/978/245 253/979/245 254/980/245
f 246/981/246 244/982/246 254/983/246 255/984/246
f 248/985/247 246/986/247 255/987/247 256/988/247
f 235/989/248 248/990/248 256/991/248 249/992/248
f 250/993/249 249/994/249 257/995/249 258/996/249
f 251/997/250 250/998/250 258/999/250 259/1000/250
f 252/1001/251 251/1002/251 259/1003/251 260/1004/251
f 253/1005/252 252/1006/252 260/1007/252 261/1008/252
f 254/1009/253 253/1010/253 261/1011/253 262/1012/253
f 255/1013/254 254/1014/254 262/1015/254 263/1016/254
f 256/1017/255 255/1018/255 263/1019/255 264/1020/255
f 249/1021/256 256/1022/256 264/1023/256 257/1024/256
f 258/1025/257 257/1026/257 265/1027/257 266/1028/257
f 259/1029/258 258/1030/258 266/1031/258 267/1032/258
f 260/1033/259 259/1034/259 267/1035/259 268/1036/259
f 261/1037/260 260/1038/260 268/1039/260 269/1040/260
f 262/1041/261 261/1042/261 269/1043/261 270/1044/261
f 263/1045/262 262/1046/262 270/1047/262 271/1048/262
f 264/1049/263 263/1050/263 271/1051/263 272/1052/263
f 257/1053/264 264/1054/264 272/1055/264 265/1056/264
f 266/1057/265 265/1058/265 273/1059/265 274/1060/265
f 267/1061/266 266/1062/266 274/1063/266 275/1064/266
f 268/1065/267 267/1066/267 275/1067/267 276/1068/267
f 269/1069/268 268/1070/268 276/1071/268 277/1072/268
f 270/1073/269 269/1074/269 277/1075/269 278/1076/269
f 271/1077/270 270/1078/270 278/1079/270 279/1080/270
f 272/1081/271 271/1082/271 279/1083/271 280/1084/271
f 265/1085/272 272/1086/272 280/1087/272 273/1088/272
f 274/1089/273 273/1090/273 281/1091/273 282/1092/273
f 275/1093/274 274/1094/274 282/1095/274 283/1096/274
f 276/1097/275 275/1098/275 283/1099/275 284/1100/275
f 277/1101/276 276/1102/276 284/1103/276 285/1104/276
f 278/1105/277 277/1106/277 285/1107/277 286/1108/277
f 279/1109/278 278/1110/278 286/1111/278 287/1112/278
f 280/1113/279 279/1114/279 287/1115/279 288/1116/279
f 273/1117/280 280/1118/280 288/1119/280 281/1120/280
f 282/1121/281 281/1122/281 289/1123/281 290/1124/281
f 283/1125/282 282/1126/282 290/1127/282 291/1128/282
f 284/1129/283 283/1130/283 291/1131/283 292/1132/283
f 285/1133/284 284/1134/284 292/1135/284 293/1136/284
f 286/1137/285 285/1138/285 293/1139/285 294/1140/285
f 287/1141/286 286/1142/286 294/1143/286 295/1144/286
f 288/1145/287 287/1146/287 295/1147/287 296/1148/287
f 281/1149/288 288/1150/288 296/1151/288 289/1152/288
f 290/1153/289 289/1154/289 234/1155/289 233/1156/289
f 291/1157/290 290/1158/290 233/1159/290 237/1160/290
f 292/1161/291 291/1162/291 237/1163/291 239/1164/291
f 293/1165/292 292/1166/292 239/1167/292 241/1168/292
f 294/1169/293 293/1170/293 241/1171/293 243/1172/293
f 295/1173/294 294/1174/294 243/1175/294 245/1176/294
f 296/1177/295 295/1178/295 245/1179/295 247/1180/295
f 289/1181/296 296/1182/296 247/1183/296 234/1184/296
o default
o pSphere1
v 0.075 0.314683 -0.054491
v 0.028647 0.314683 -0.088168
v 0.054491 0.357295 -0.167705
v 0.142658 0.357295 -0.103647
v -0.028647 0.314683 -0.088168
v -0.054491 0.357295 -0.167705
v -0.075 0.314683 -0.054491
v -0.142659 0.357295 -0.103647
v -0.092705 0.314683 0
v -0.176336 0.357295 0
v -0.075 0.314683 0.054491
v -0.142658 0.357295 0.103647
v -0.028647 0.314683 0.088168
v -0.054491 0.357295 0.167705
v 0.028647 0.314683 0.088168
v 0.054491 0.357295 0.167705
v 0.075 0.314683 0.054491
v 0.142658 0.357295 0.103647
v 0.092705 0.314683 0
v 0.176336 0.357295 0
v 0.075 0.423664 -0.230826
v 0.196353 0.423664 -0.142659
v -0.075 0.423664 -0.230826
v -0.196353 0.423664 -0.142658
v -0.242705 0.423664 0
v -0.196353 0.423664 0.142659
v -0.075 0.423664 0.230826
v 0.075 0.423664 0.230826
v 0.196353 0.423664 0.142658
v 0.242705 0.423664 0
v 0.088168 0.507295 -0.271353
v 0.230826 0.507295 -0.167705
v -0.088168 0.507295 -0.271353
v -0.230826 0.507295 -0.167705
v -0.285317 0.507295 0
v -0.230826 0.507295 0.167705
v -0.088168 0.507295 0.271353
v 0.088168 0.507295 0.271353
v 0.230826 0.507295 0.167705
v 0.285317 0.507295 0
v 0.092705 0.6 -0.285317
v 0.242705 0.6 -0.176336
v -0.092705 0.6 -0.285317
v -0.242705 0.6 -0.176336
v -0.3 0.6 0
v -0.242705 0.6 0.176336
v -0.092705 0.6 0.285317
v 0.092705 0.6 0.285317
v 0.242705 0.6 0.176336
v 0.3 0.6 0
v 0.088168 0.692705 -0.271353
v 0.230826 0.692705 -0.167705
v -0.088168 0.692705 -0.271353
v -0.230826 0.692705 -0.167705
v -0.285317 0.692705 0
v -0.230826 0.692705 0.167705
v -0.088168 0.692705 0.271353
v 0.088168 0.692705 0.271353
v 0.230826 0.692705 0.167705
v 0.285317 0.692705 0
v 0.075 0.776336 -0.230826
v 0.196353 0.776336 -0.142659
v -0.075 0.776336 -0.230826
v -0.196353 0.776336 -0.142658
v -0.242705 0.776336 0
v -0.196353 0.776336 0.142659
v -0.075 0.776336 0.230826
v 0.075 0.776336 0.230826
v 0.196353 0.776336 0.142658
v 0.242705 0.776336 0
v 0.054491 0.842705 -0.167705
v 0.142658 0.842705 -0.103647
v -0.054491 0.842705 -0.167705
v -0.142659 0.842705 -0.103647
v -0.176336 0.842705 0
v -0.142658 0.842705 0.103647
v -0.054491 0.842705 0.167705
v 0.054491 0.842705 0.167705
v 0.142658 0.842705 0.103647
v 0.176336 0.842705 0
v 0.028647 0.885317 -0.088168
v 0.075 0.885317 -0.054491
v -0.028647 0.885317 -0.088168
v -0.075 0.885317 -0.054491
v -0.092705 0.885317 0
v -0.075 0.885317 0.054491
v -0.028647 0.885317 0.088168
v 0.028647 0.885317 0.088168
v 0.075 0.885317 0.054491
v 0.092705 0.885317 0
v 0 0.3 0
v 0 0.9 0
vt 0.03125 0.09375
vt 0.078125 0.09375
vt 0.109375 0.1875
vt 0 0.1875
vt 0.09375 0.09375
vt 0.140625 0.09375
vt 0.171875 0.1875
vt 0.0625 0.1875
vt 0.21875 0.09375
vt 0.265625 0.09375
vt 0.296875 0.1875
vt 0.1875 0.1875
vt 0.34375 0.09375
vt 0.390625 0.09375
vt 0.421875 0.1875
vt 0.3125 0.1875
vt 0.40625 0.09375
vt 0.453125 0.09375
vt 0.484375 0.1875
vt 0.375 0.1875
vt 0.53125 0.09375
vt 0.578125 0.09375
vt 0.609375 0.1875
vt 0.5 0.1875
vt 0.59375 0.09375
vt 0.640625 0.09375
vt 0.671875 0.1875
vt 0.5625 0.1875
vt 0.71875 0.09375
vt 0.765625 0.09375
vt 0.796875 0.1875
vt 0.6875 0.1875
vt 0.84375 0.09375
vt 0.890625 0.09375
vt 0.921875 0.1875
vt 0.8125 0.1875
vt 0.90625 0.09375
vt 0.953125 0.09375
vt 0.984375 0.1875
vt 0.875 0.1875
vt 0.015625 0.15625
vt 0.125 0.15625
vt 0.15625 0.25
vt 0 0.25
vt 0.078125 0.15625
vt 0.1875 0.15625
vt 0.21875 0.25
vt 0.0625 0.25
vt 0.203125 0.15625
vt 0.3125 0.15625
vt 0.34375 0.25
vt 0.1875 0.25
vt 0.328125 0.15625
vt 0.4375 0.15625
vt 0.46875 0.25
vt 0.3125 0.25
vt 0.390625 0.15625
vt 0.5 0.15625
vt 0.53125 0.25
vt 0.375 0.25
vt 0.515625 0.15625
vt 0.625 0.15625
vt 0.65625 0.25
vt 0.5 0.25
vt 0.578125 0.15625
vt 0.6875 0.15625
vt 0.71875 0.25
vt 0.5625 0.25
vt 0.703125 0.15625
vt 0.8125 0.15625
vt 0.84375 0.25
vt 0.6875 0.25
vt 0.828125 0.15625
vt 0.9375 0.15625
vt 0.96875 0.25
vt 0.8125 0.25
vt 0.890625 0.15625
vt 1 0.15625
vt 1 0.25
vt 0.875 0.25
vt 0.015625 0.28125
vt 0.15625 0.28125
vt 0.171875 0.375
vt 0 0.375
vt 0.078125 0.28125
vt 0.21875 0.28125
vt 0.234375 0.375
vt 0.0625 0.375
vt 0.203125 0.28125
vt 0.34375 0.28125
vt 0.359375 0.375
vt 0.1875 0.375
vt 0.328125 0.28125
vt 0.46875 0.28125
vt 0.484375 0.375
vt 0.3125 0.375
vt 0.390625 0.28125
vt 0.53125 0.28125
vt 0.546875 0.375
vt 0.375 0.375
vt 0.515625 0.28125
vt 0.65625 0.28125
vt 0.671875 0.375
vt 0.5 0.375
vt 0.578125 0.28125
vt 0.71875 0.28125
vt 0.734375 0.375
vt 0.5625 0.375
vt 0.703125 0.28125
vt 0.84375 0.28125
vt 0.859375 0.375
vt 0.6875 0.375
vt 0.828125 0.28125
vt 0.96875 0.28125
vt 0.984375 0.375
vt 0.8125 0.375
vt 0.828125 0.28125
vt 0.96875 0.28125
vt 0.984375 0.375
vt 0.8125 0.375
vt 0 0.40625
vt 0.1875 0.40625
vt 0.1875 0.5
vt 0 0.5
vt 0.0625 0.40625
vt 0.25 0.40625
vt 0.25 0.5
vt 0.0625 0.5
vt 0.1875 0.40625
vt 0.375 0.40625
vt 0.375 0.5
vt 0.1875 0.5
vt 0.3125 0.40625
vt 0.5 0.40625
vt 0.5 0.5
vt 0.3125 0.5
vt 0.375 0.40625
vt 0.5625 0.40625
vt 0.5625 0.5
vt 0.375 0.5
vt 0.5 0.40625
vt 0.6875 0.40625
vt 0.6875 0.5
vt 0.5 0.5
vt 0.5625 0.40625
vt 0.75 0.40625
vt 0.75 0.5
vt 0.5625 0.5
vt 0.6875 0.40625
vt 0.875 0.40625
vt 0.875 0.5
vt 0.6875 0.5
vt 0.8125 0.40625
vt 1 0.40625
vt 1 0.5
vt 0.8125 0.5
vt 0.8125 0.40625
vt 1 0.40625
vt 1 0.5
vt 0.8125 0.5
vt 0 0.46875
vt 0.1875 0.46875
vt 0.1875 0.5625
vt 0 0.5625
vt 0.0625 0.46875
vt 0.25 0.46875
vt 0.25 0.5625
vt 0.0625 0.5625
vt 0.1875 0.46875
vt 0.375 0.46875
vt 0.375 0.5625
vt 0.1875 0.5625
vt 0.3125 0.46875
vt 0.5 0.46875
vt 0.5 0.5625
vt 0.3125 0.5625
vt 0.375 0.46875
vt 0.5625 0.46875
vt 0.5625 0.5625
vt 0.375 0.5625
vt 0.5 0.46875
vt 0.6875 0.46875
vt 0.6875 0.5625
vt 0.5 0.5625
vt 0.5625 0.46875
vt 0.75 0.46875
vt 0.75 0.5625
vt 0.5625 0.5625
vt 0.6875 0.46875
vt 0.875 0.46875
vt 0.875 0.5625
vt 0.6875 0.5625
vt 0.8125 0.46875
vt 1 0.46875
vt 1 0.5625
vt 0.8125 0.5625
vt 0.8125 0.46875
vt 1 0.46875
vt 1 0.5625
vt 0.8125 0.5625
vt 0 0.65625
vt 0.171875 0.65625
vt 0.15625 0.75
vt 0.015625 0.75
vt 0.0625 0.65625
vt 0.234375 0.65625
vt 0.21875 0.75
vt 0.078125 0.75
vt 0.1875 0.65625
vt 0.359375 0.65625
vt 0.34375 0.75
vt 0.203125 0.75
vt 0.3125 0.65625
vt 0.484375 0.65625
vt 0.46875 0.75
vt 0.328125 0.75
vt 0.375 0.65625
vt 0.546875 0.65625
vt 0.53125 0.75
vt 0.390625 0.75
vt 0.5 0.65625
vt 0.671875 0.65625
vt 0.65625 0.75
vt 0.515625 0.75
vt 0.5625 0.65625
vt 0.734375 0.65625
vt 0.71875 0.75
vt 0.578125 0.75
vt 0.6875 0.65625
vt 0.859375 0.65625
vt 0.84375 0.75
vt 0.703125 0.75
vt 0.8125 0.65625
vt 0.984375 0.65625
vt 0.96875 0.75
vt 0.828125 0.75
vt 0.8125 0.65625
vt 0.984375 0.65625
vt 0.96875 0.75
vt 0.828125 0.75
vt 0 0.71875
vt 0.15625 0.71875
vt 0.125 0.8125
vt 0.015625 0.8125
vt 0.0625 0.71875
vt 0.21875 0.71875
vt 0.1875 0.8125
vt 0.078125 0.8125
vt 0.1875 0.71875
vt 0.34375 0.71875
vt 0.3125 0.8125
vt 0.203125 0.8125
vt 0.3125 0.71875
vt 0.46875 0.71875
vt 0.4375 0.8125
vt 0.328125 0.8125
vt 0.375 0.71875
vt 0.53125 0.71875
vt 0.5 0.8125
vt 0.390625 0.8125
vt 0.5 0.71875
vt 0.65625 0.71875
vt 0.625 0.8125
vt 0.515625 0.8125
vt 0.5625 0.71875
vt 0.71875 0.71875
vt 0.6875 0.8125
vt 0.578125 0.8125
vt 0.6875 0.71875
vt 0.84375 0.71875
vt 0.8125 0.8125
vt 0.703125 0.8125
vt 0.8125 0.71875
vt 0.96875 0.71875
vt 0.9375 0.8125
vt 0.828125 0.8125
vt 0.875 0.71875
vt 1 0.71875
vt 1 0.8125
vt 0.890625 0.8125
vt 0 0.78125
vt 0.109375 0.78125
vt 0.078125 0.875
vt 0.03125 0.875
vt 0.0625 0.78125
vt 0.171875 0.78125
vt 0.140625 0.875
vt 0.09375 0.875
vt 0.1875 0.78125
vt 0.296875 0.78125
vt 0.265625 0.875
vt 0.21875 0.875
vt 0.3125 0.78125
vt 0.421875 0.78125
vt 0.390625 0.875
vt 0.34375 0.875
vt 0.375 0.78125
vt 0.484375 0.78125
vt 0.453125 0.875
vt 0.40625 0.875
vt 0.5 0.78125
vt 0.609375 0.78125
vt 0.578125 0.875
vt 0.53125 0.875
vt 0.5625 0.78125
vt 0.671875 0.78125
vt 0.640625 0.875
vt 0.59375 0.875
vt 0.6875 0.78125
vt 0.796875 0.78125
vt 0.765625 0.875
vt 0.71875 0.875
vt 0.8125 0.78125
vt 0.921875 0.78125
vt 0.890625 0.875
vt 0.84375 0.875
vt 0.875 0.78125
vt 0.984375 0.78125
vt 0.953125 0.875
vt 0.90625 0.875
vt 0.3125 0.0625
vt 0.25 0.0625
vt 0.28125 0
vt 0.28125 0
vt 0.375 0.0625
vt 0.3125 0.0625
vt 0.34375 0
vt 0.34375 0
vt 0.4375 0.0625
vt 0.375 0.0625
vt 0.40625 0
vt 0.40625 0
vt 0.5 0.0625
vt 0.4375 0.0625
vt 0.46875 0
vt 0.46875 0
vt 0.5625 0.0625
vt 0.5 0.0625
vt 0.53125 0
vt 0.53125 0
vt 0.5625 0.0625
vt 0.5 0.0625
vt 0.53125 0
vt 0.53125 0
vt 0.625 0.0625
vt 0.5625 0.0625
vt 0.59375 0
vt 0.59375 0
vt 0.6875 0.0625
vt 0.625 0.0625
vt 0.65625 0
vt 0.65625 0
vt 0.75 0.0625
vt 0.6875 0.0625
vt 0.71875 0
vt 0.71875 0
vt 0.8125 0.0625
vt 0.75 0.0625
vt 0.78125 0
vt 0.78125 0
vt 0.25 0.90625
vt 0.3125 0.90625
vt 0.28125 1
vt 0.28125 1
vt 0.3125 0.90625
vt 0.375 0.90625
vt 0.34375 1
vt 0.34375 1
vt 0.375 0.90625
vt 0.4375 0.90625
vt 0.40625 1
vt 0.40625 1
vt 0.4375 0.90625
vt 0.5 0.90625
vt 0.46875 1
vt 0.46875 1
vt 0.5 0.90625
vt 0.5625 0.90625
vt 0.53125 1
vt 0.53125 1
vt 0.5 0.90625
vt 0.5625 0.90625
vt 0.53125 1
vt 0.53125 1
vt 0.5625 0.90625
vt 0.625 0.90625
vt 0.59375 1
vt 0.59375 1
vt 0.625 0.90625
vt 0.6875 0.90625
vt 0.65625 1
vt 0.65625 1
vt 0.6875 0.90625
vt 0.75 0.90625
vt 0.71875 1
vt 0.71875 1
vt 0.75 0.90625
vt 0.8125 0.90625
vt 0.78125 1
vt 0.78125 1
vn 0.27757533176757654 -0.8814682610288761 -0.38205449872086206
vn 0 -0.8814666245784436 -0.4722463231770953
vn -0.2775775437220678 -0.8814662448808256 -0.3820575432535263
vn -0.4491295075988526 -0.8814688315497902 -0.14592938158664157
vn -0.44913546245645175 -0.8814654770626574 0.14593131641539847
vn -0.27757533176757654 -0.8814682610288761 0.38205449872086206
vn 0 -0.8814666245784436 0.4722463231770953
vn 0.2775791375614741 -0.8814647921183132 0.3820597370130061
vn 0.4491295075988526 -0.8814688315497902 0.14592938158664157
vn 0.44913546245645175 -0.8814654770626574 -0.14593131641539847
vn 0.4259231108846135 -0.6891519795578717 -0.5862244047170334
vn 0 -0.6891536499648934 -0.7246152404828823
vn -0.42591858744538186 -0.6891544153262726 -0.5862248277792693
vn -0.6891517082738295 -0.6891517082738295 -0.22391928449002618
vn -0.6891400217098219 -0.6891624680694617 0.22392213620407123
vn -0.4259231108846135 -0.6891519795578717 0.5862244047170334
vn 0 -0.6891536499648934 0.7246152404828823
vn 0.4259195110511578 -0.6891584190136218 0.5862194500428898
vn 0.6891506822205483 -0.6891506822205483 0.22392560012179433
vn 0.6891400217098219 -0.6891624680694617 -0.22392213620407123
vn 0.5289459480368466 -0.4360879551406996 -0.7280408501152975
vn 0 -0.43608736999412967 -0.8999043314328493
vn -0.5289521226623849 -0.436080062887989 -0.7280410913420787
vn -0.8558627693107678 -0.4360826048459351 -0.27808430710575444
vn -0.855867768954041 -0.43607299947471395 0.2780839822693115
vn -0.5289459480368466 -0.4360879551406996 0.7280408501152975
vn 0 -0.43608736999412967 0.8999043314328493
vn 0.5289521226623849 -0.436080062887989 0.7280410913420787
vn 0.8558627693107678 -0.4360826048459351 0.27808430710575444
vn 0.855867768954041 -0.43607299947471395 -0.2780839822693115
vn 0.5812319212001217 -0.14894679107691 -0.7999901919435681
vn 0 -0.1489480807787136 -0.9888450178022529
vn -0.5812309340175914 -0.14895794061458112 -0.7999888332151276
vn -0.9404464039684819 -0.14895177767616882 -0.3055714796735132
vn -0.9404458362259611 -0.14895574065491013 0.3055712952016269
vn -0.5812319212001217 -0.14894679107691 0.7999901919435681
vn 0 -0.1489480807787136 0.9888450178022529
vn 0.5812309340175914 -0.14895794061458112 0.7999888332151276
vn 0.9404464039684819 -0.14895177767616882 0.3055714796735132
vn 0.9404458362259611 -0.14895574065491013 -0.3055712952016269
vn 0.5812272846248899 0.14894706392831794 -0.7999935098203678
vn 0 0.14894808077871344 -0.9888450178022529
vn -0.5812263457651714 0.14895766777770447 -0.7999922175863292
vn -0.9404470162823788 0.14895187465696744 -0.30556954789662283
vn -0.9404464763280516 0.14895564366495412 0.305569372454948
vn -0.5812272846248899 0.14894706392831794 0.7999935098203678
vn 0 0.14894808077871344 0.9888450178022529
vn 0.5812263457651714 0.14895766777770447 0.7999922175863292
vn 0.9404470162823788 0.14895187465696744 0.30556954789662283
vn 0.9404464763280516 0.14895564366495412 -0.305569372454948
vn 0.5289536517505826 0.436086793115979 -0.7280359490914887
vn 0 0.43608736999412995 -0.8999043314328491
vn -0.5289554140619908 0.4360806059914521 -0.7280383746840795
vn -0.8558617908731692 0.43608210630851557 -0.2780881002144829
vn -0.8558656491777639 0.43607373439179936 0.2780893538615159
vn -0.5289536517505826 0.436086793115979 0.7280359490914887
vn 0 0.43608736999412995 0.8999043314328491
vn 0.5289554140619908 0.4360806059914521 0.7280383746840795
vn 0.8558617908731692 0.43608210630851557 0.2780881002144829
vn 0.8558656491777639 0.43607373439179936 -0.2780893538615159
vn 0.42591471237637885 0.6891534941629843 -0.5862287260654292
vn 0 0.6891536499648934 -0.7246152404828823
vn -0.42591749692267744 0.6891541689949139 -0.5862259096730977
vn -0.6891520515037252 0.6891520515037252 -0.22391717177656117
vn -0.6891445483908892 0.6891608566022142 0.2239131643079967
vn -0.42591471237637885 0.6891534941629843 0.5862287260654292
vn 0 0.6891536499648934 0.7246152404828823
vn 0.4259156132683065 0.6891575385430341 0.5862233170418837
vn 0.6891520515037252 0.6891520515037252 0.22391717177656117
vn 0.6891445483908892 0.6891608566022142 -0.2239131643079967
vn 0.277581154535794 0.8814674384646883 -0.3820521660363633
vn 0 0.8814666245784435 -0.4722463231770952
vn -0.2775798788976215 0.8814667230011087 -0.3820547435549892
vn -0.4491293863044691 0.8814685934954724 -0.14593119282348355
vn -0.449132232950082 0.8814662725153685 0.14593645104337657
vn -0.277581154535794 0.8814674384646883 0.3820521660363633
vn 0 0.8814666245784435 0.4722463231770952
vn 0.27758315541413736 0.8814656147335104 0.3820549199693756
vn 0.44912910229005915 0.8814680360842004 0.1459354337986107
vn 0.449132232950082 0.8814662725153685 -0.14593645104337657
vn 0.09655599496018641 -0.9864150417231122 -0.13289960609286816
vn 0 -0.9864150819607355 -0.1642719881184725
vn -0.09655599496018641 -0.9864150417231122 -0.13289960609286816
vn -0.15623247627753198 -0.9864150182734184 -0.050762437696017765
vn -0.15623247627753198 -0.9864150182734184 0.050762437696017765
vn -0.09655599496018641 -0.9864150417231122 0.13289960609286816
vn 0 -0.9864150819607355 0.1642719881184725
vn 0.09655599496018641 -0.9864150417231122 0.13289960609286816
vn 0.15623247627753198 -0.9864150182734184 0.050762437696017765
vn 0.15623247627753198 -0.9864150182734184 -0.050762437696017765
vn 0.09655599496018641 0.9864150417231122 -0.13289960609286816
vn 0 0.9864150819607355 -0.1642719881184725
vn -0.09655599496018641 0.9864150417231122 -0.13289960609286816
vn -0.15623247627753198 0.9864150182734184 -0.050762437696017765
vn -0.15623247627753198 0.9864150182734184 0.050762437696017765
vn -0.09655599496018641 0.9864150417231122 0.13289960609286816
vn 0 0.9864150819607355 0.1642719881184725
vn 0.09655599496018641 0.9864150417231122 0.13289960609286816
vn 0.15623247627753198 0.9864150182734184 0.050762437696017765
vn 0.15623247627753198 0.9864150182734184 -0.050762437696017765
usemtl m_d37908c7-489b-1de7-47f7-9da4b6618e12
f 297/1185/297 298/1186/297 299/1187/297 300/1188/297
f 298/1189/298 301/1190/298 302/1191/298 299/1192/298
f 301/1193/299 303/1194/299 304/1195/299 302/1196/299
f 303/1197/300 305/1198/300 306/1199/300 304/1200/300
f 305/1201/301 307/1202/301 308/1203/301 306/1204/301
f 307/1205/302 309/1206/302 310/1207/302 308/1208/302
f 309/1209/303 311/1210/303 312/1211/303 310/1212/303
f 311/1213/304 313/1214/304 314/1215/304 312/1216/304
f 313/1217/305 315/1218/305 316/1219/305 314/1220/305
f 315/1221/306 297/1222/306 300/1223/306 316/1224/306
f 300/1225/307 299/1226/307 317/1227/307 318/1228/307
f 299/1229/308 302/1230/308 319/1231/308 317/1232/308
f 302/1233/309 304/1234/309 320/1235/309 319/1236/309
f 304/1237/310 306/1238/310 321/1239/310 320/1240/310
f 306/1241/311 308/1242/311 322/1243/311 321/1244/311
f 308/1245/312 310/1246/312 323/1247/312 322/1248/312
f 310/1249/313 312/1250/313 324/1251/313 323/1252/313
f 312/1253/314 314/1254/314 325/1255/314 324/1256/314
f 314/1257/315 316/1258/315 326/1259/315 325/1260/315
f 316/1261/316 300/1262/316 318/1263/316 326/1264/316
f 318/1265/317 317/1266/317 327/1267/317 328/1268/317
f 317/1269/318 319/1270/318 329/1271/318 327/1272/318
f 319/1273/319 320/1274/319 330/1275/319 329/1276/319
f 320/1277/320 321/1278/320 331/1279/320 330/1280/320
f 321/1281/321 322/1282/321 332/1283/321 331/1284/321
f 322/1285/322 323/1286/322 333/1287/322 332/1288/322
f 323/1289/323 324/1290/323 334/1291/323 333/1292/323
f 324/1293/324 325/1294/324 335/1295/324 334/1296/324
f 325/1297/325 326/1298/325 336/1299/325 335/1300/325
f 326/1301/326 318/1302/326 328/1303/326 336/1304/326
f 328/1305/327 327/1306/327 337/1307/327 338/1308/327
f 327/1309/328 329/1310/328 339/1311/328 337/1312/328
f 329/1313/329 330/1314/329 340/1315/329 339/1316/329
f 330/1317/330 331/1318/330 341/1319/330 340/1320/330
f 331/1321/331 332/1322/331 342/1323/331 341/1324/331
f 332/1325/332 333/1326/332 343/1327/332 342/1328/332
f 333/1329/333 334/1330/333 344/1331/333 343/1332/333
f 334/1333/334 335/1334/334 345/1335/334 344/1336/334
f 335/1337/335 336/1338/335 346/1339/335 345/1340/335
f 336/1341/336 328/1342/336 338/1343/336 346/1344/336
f 338/1345/337 337/1346/337 347/1347/337 348/1348/337
f 337/1349/338 339/1350/338 349/1351/338 347/1352/338
f 339/1353/339 340/1354/339 350/1355/339 349/1356/339
f 340/1357/340 341/1358/340 351/1359/340 350/1360/340
f 341/1361/341 342/1362/341 352/1363/341 351/1364/341
f 342/1365/342 343/1366/342 353/1367/342 352/1368/342
f 343/1369/343 344/1370/343 354/1371/343 353/1372/343
f 344/1373/344 345/1374/344 355/1375/344 354/1376/344
f 345/1377/345 346/1378/345 356/1379/345 355/1380/345
f 346/1381/346 338/1382/346 348/1383/346 356/1384/346
f 348/1385/347 347/1386/347 357/1387/347 358/1388/347
f 347/1389/348 349/1390/348 359/1391/348 357/1392/348
f 349/1393/349 350/1394/349 360/1395/349 359/1396/349
f 350/1397/350 351/1398/350 361/1399/350 360/1400/350
f 351/1401/351 352/1402/351 362/1403/351 361/1404/351
f 352/1405/352 353/1406/352 363/1407/352 362/1408/352
f 353/1409/353 354/1410/353 364/1411/353 363/1412/353
f 354/1413/354 355/1414/354 365/1415/354 364/1416/354
f 355/1417/355 356/1418/355 366/1419/355 365/1420/355
f 356/1421/356 348/1422/356 358/1423/356 366/1424/356
f 358/1425/357 357/1426/357 367/1427/357 368/1428/357
f 357/1429/358 359/1430/358 369/1431/358 367/1432/358
f 359/1433/359 360/1434/359 370/1435/359 369/1436/359
f 360/1437/360 361/1438/360 371/1439/360 370/1440/360
f 361/1441/361 362/1442/361 372/1443/361 371/1444/361
f 362/1445/362 363/1446/362 373/1447/362 372/1448/362
f 363/1449/363 364/1450/363 374/1451/363 373/1452/363
f 364/1453/364 365/1454/364 375/1455/364 374/1456/364
f 365/1457/365 366/1458/365 376/1459/365 375/1460/365
f 366/1461/366 358/1462/366 368/1463/366 376/1464/366
f 368/1465/367 367/1466/367 377/1467/367 378/1468/367
f 367/1469/368 369/1470/368 379/1471/368 377/1472/368
f 369/1473/369 370/1474/369 380/1475/369 379/1476/369
f 370/1477/370 371/1478/370 381/1479/370 380/1480/370
f 371/1481/371 372/1482/371 382/1483/371 381/1484/371
f 372/1485/372 373/1486/372 383/1487/372 382/1488/372
f 373/1489/373 374/1490/373 384/1491/373 383/1492/373
f 374/1493/374 375/1494/374 385/1495/374 384/1496/374
f 375/1497/375 376/1498/375 386/1499/375 385/1500/375
f 376/1501/376 368/1502/376 378/1503/376 386/1504/376
f 298/1505/377 297/1506/377 387/1507/377 387/1507/377
f 301/1509/378 298/1510/378 387/1511/378 387/1511/378
f 303/1513/379 301/1514/379 387/1515/379 387/1515/379
f 305/1517/380 303/1518/380 387/1519/380 387/1519/380
f 307/1521/381 305/1522/381 387/1523/381 387/1523/381
f 309/1525/382 307/1526/382 387/1527/382 387/1527/382
f 311/1529/383 309/1530/383 387/1531/383 387/1531/383
f 313/1533/384 311/1534/384 387/1535/384 387/1535/384
f 315/1537/385 313/1538/385 387/1539/385 387/1539/385
f 297/1541/386 315/1542/386 387/1543/386 387/1543/386
f 378/1545/387 377/1546/387 388/1547/387 388/1547/387
f 377/1549/388 379/1550/388 388/1551/388 388/1551/388
f 379/1553/389 380/1554/389 388/1555/389 388/1555/389
f 380/1557/390 381/1558/390 388/1559/390 388/1559/390
f 381/1561/391 382/1562/391 388/1563/391 388/1563/391
f 382/1565/392 383/1566/392 388/1567/392 388/1567/392
f 383/1569/393 384/1570/393 388/1571/393 388/1571/393
f 384/1573/394 385/1574/394 388/1575/394 388/1575/394
f 385/1577/395 386/1578/395 388/1579/395 388/1579/395
f 386/1581/396 378/1582/396 388/1583/396 388/1583/396