# Made in Blockbench 5.1.6
mtllib MIN_Ejector.mtl

o default
o pPipe1
v 0.113262 0 -0.08229
v 0.14 0 0
v 0.14 0.5 0
v 0.113262 0.5 -0.08229
v 0.043262 0 -0.133148
v 0.043262 0.5 -0.133148
v -0.043262 0 -0.133148
v -0.043262 0.5 -0.133148
v -0.113262 0 -0.08229
v -0.113262 0.5 -0.08229
v -0.14 0 0
v -0.14 0.5 0
v -0.113262 0 0.08229
v -0.113262 0.5 0.08229
v -0.043262 0 0.133148
v -0.043262 0.5 0.133148
v 0.043262 0 0.133148
v 0.043262 0.5 0.133148
v 0.113262 0 0.08229
v 0.113262 0.5 0.08229
v 0.15 0.5 0
v 0.121353 0.5 -0.088168
v 0.046353 0.5 -0.142658
v -0.046353 0.5 -0.142658
v -0.121353 0.5 -0.088168
v -0.15 0.5 0
v -0.121353 0.5 0.088168
v -0.046353 0.5 0.142658
v 0.046353 0.5 0.142658
v 0.121353 0.5 0.088168
v 0.15 0 0
v 0.121353 0 -0.088168
v 0.046353 0 -0.142658
v -0.046353 0 -0.142658
v -0.121353 0 -0.088168
v -0.15 0 0
v -0.121353 0 0.088168
v -0.046353 0 0.142658
v 0.046353 0 0.142658
v 0.121353 0 0.088168
vt 0 0.5
vt 0.09375 0.5
vt 0.09375 1
vt 0 1
vt 0.0625 0.5
vt 0.15625 0.5
vt 0.15625 1
vt 0.0625 1
vt 0.1875 0.5
vt 0.28125 0.5
vt 0.28125 1
vt 0.1875 1
vt 0.3125 0.5
vt 0.40625 0.5
vt 0.40625 1
vt 0.3125 1
vt 0.375 0.5
vt 0.46875 0.5
vt 0.46875 1
vt 0.375 1
vt 0.5 0.5
vt 0.59375 0.5
vt 0.59375 1
vt 0.5 1
vt 0.5625 0.5
vt 0.65625 0.5
vt 0.65625 1
vt 0.5625 1
vt 0.6875 0.5
vt 0.78125 0.5
vt 0.78125 1
vt 0.6875 1
vt 0.8125 0.5
vt 0.90625 0.5
vt 0.90625 1
vt 0.8125 1
vt 0.875 0.5
vt 0.96875 0.5
vt 0.96875 1
vt 0.875 1
vt 0.0625 0.6875
vt 0.0625 0.59375
vt 0.0625 0.59375
vt 0.0625 0.6875
vt 0.125 0.6875
vt 0.125 0.59375
vt 0.125 0.59375
vt 0.125 0.6875
vt 0.1875 0.625
vt 0.28125 0.625
vt 0.28125 0.625
vt 0.1875 0.625
vt 0.3125 0.625
vt 0.40625 0.625
vt 0.40625 0.625
vt 0.3125 0.625
vt 0.375 0.625
vt 0.46875 0.625
vt 0.46875 0.625
vt 0.375 0.625
vt 0.5625 0.59375
vt 0.5625 0.6875
vt 0.5625 0.6875
vt 0.5625 0.59375
vt 0.6875 0.59375
vt 0.6875 0.6875
vt 0.6875 0.6875
vt 0.6875 0.59375
vt 0.78125 0.625
vt 0.6875 0.625
vt 0.6875 0.625
vt 0.78125 0.625
vt 0.90625 0.625
vt 0.8125 0.625
vt 0.8125 0.625
vt 0.90625 0.625
vt 0.96875 0.625
vt 0.875 0.625
vt 0.875 0.625
vt 0.96875 0.625
vt 0.09375 0.625
vt 0 0.625
vt 0 0.125
vt 0.09375 0.125
vt 0.15625 0.625
vt 0.0625 0.625
vt 0.0625 0.125
vt 0.15625 0.125
vt 0.28125 0.625
vt 0.1875 0.625
vt 0.1875 0.125
vt 0.28125 0.125
vt 0.40625 0.625
vt 0.3125 0.625
vt 0.3125 0.125
vt 0.40625 0.125
vt 0.46875 0.625
vt 0.375 0.625
vt 0.375 0.125
vt 0.46875 0.125
vt 0.59375 0.625
vt 0.5 0.625
vt 0.5 0.125
vt 0.59375 0.125
vt 0.65625 0.625
vt 0.5625 0.625
vt 0.5625 0.125
vt 0.65625 0.125
vt 0.78125 0.625
vt 0.6875 0.625
vt 0.6875 0.125
vt 0.78125 0.125
vt 0.90625 0.625
vt 0.8125 0.625
vt 0.8125 0.125
vt 0.90625 0.125
vt 0.96875 0.625
vt 0.875 0.625
vt 0.875 0.125
vt 0.96875 0.125
vt 0 0.125
vt 0.09375 0.125
vt 0.09375 0.125
vt 0 0.125
vt 0.0625 0.125
vt 0.15625 0.125
vt 0.15625 0.125
vt 0.0625 0.125
vt 0.1875 0.125
vt 0.28125 0.125
vt 0.28125 0.125
vt 0.1875 0.125
vt 0.375 0.1875
vt 0.375 0.09375
vt 0.375 0.09375
vt 0.375 0.1875
vt 0.4375 0.1875
vt 0.4375 0.09375
vt 0.4375 0.09375
vt 0.4375 0.1875
vt 0.59375 0.125
vt 0.5 0.125
vt 0.5 0.125
vt 0.59375 0.125
vt 0.65625 0.125
vt 0.5625 0.125
vt 0.5625 0.125
vt 0.65625 0.125
vt 0.78125 0.125
vt 0.6875 0.125
vt 0.6875 0.125
vt 0.78125 0.125
vt 0.8125 0.09375
vt 0.8125 0.1875
vt 0.8125 0.1875
vt 0.8125 0.09375
vt 0.9375 0.09375
vt 0.9375 0.1875
vt 0.9375 0.1875
vt 0.9375 0.09375
vn -0.95105529962749 0 0.3090207388679042
vn -0.5877854265735332 0 0.809016867752317
vn 0 0 1
vn 0.5877854265735332 0 0.809016867752317
vn 0.95105529962749 0 0.3090207388679042
vn 0.95105529962749 0 -0.3090207388679042
vn 0.5877854265735332 0 -0.809016867752317
vn 0 0 -1
vn -0.5877854265735332 0 -0.809016867752317
vn -0.95105529962749 0 -0.3090207388679042
vn 0 1 0
vn 0 1 0
vn 0 1 0
vn 0 1 0
vn 0 1 0
vn 0 1 0
vn 0 1 0
vn 0 1 0
vn 0 1 0
vn 0 1 0
vn 0.9510581640729993 0 -0.3090119229901915
vn 0.5877803836035747 0 -0.809020531662105
vn 0 0 -1
vn -0.5877803836035747 0 -0.809020531662105
vn -0.9510581640729993 0 -0.3090119229901915
vn -0.9510581640729993 0 0.3090119229901915
vn -0.5877803836035747 0 0.809020531662105
vn 0 0 1
vn 0.5877803836035747 0 0.809020531662105
vn 0.9510581640729993 0 0.3090119229901915
vn 0 -1 0
vn 0 -1 0
vn 0 -1 0
vn 0 -1 0
vn 0 -1 0
vn 0 -1 0
vn 0 -1 0
vn 0 -1 0
vn 0 -1 0
vn 0 -1 0
usemtl m_cf0ab2ba-8347-9998-a527-bb8e76a5e49f
f 1/1/1 2/2/1 3/3/1 4/4/1
f 5/5/2 1/6/2 4/7/2 6/8/2
f 7/9/3 5/10/3 6/11/3 8/12/3
f 9/13/4 7/14/4 8/15/4 10/16/4
f 11/17/5 9/18/5 10/19/5 12/20/5
f 13/21/6 11/22/6 12/23/6 14/24/6
f 15/25/7 13/26/7 14/27/7 16/28/7
f 17/29/8 15/30/8 16/31/8 18/32/8
f 19/33/9 17/34/9 18/35/9 20/36/9
f 2/37/10 19/38/10 20/39/10 3/40/10
f 4/41/11 3/42/11 21/43/11 22/44/11
f 6/45/12 4/46/12 22/47/12 23/48/12
f 8/49/13 6/50/13 23/51/13 24/52/13
f 10/53/14 8/54/14 24/55/14 25/56/14
f 12/57/15 10/58/15 25/59/15 26/60/15
f 14/61/16 12/62/16 26/63/16 27/64/16
f 16/65/17 14/66/17 27/67/17 28/68/17
f 18/69/18 16/70/18 28/71/18 29/72/18
f 20/73/19 18/74/19 29/75/19 30/76/19
f 3/77/20 20/78/20 30/79/20 21/80/20
f 22/81/21 21/82/21 31/83/21 32/84/21
f 23/85/22 22/86/22 32/87/22 33/88/22
f 24/89/23 23/90/23 33/91/23 34/92/23
f 25/93/24 24/94/24 34/95/24 35/96/24
f 26/97/25 25/98/25 35/99/25 36/100/25
f 27/101/26 26/102/26 36/103/26 37/104/26
f 28/105/27 27/106/27 37/107/27 38/108/27
f 29/109/28 28/110/28 38/111/28 39/112/28
f 30/113/29 29/114/29 39/115/29 40/116/29
f 21/117/30 30/118/30 40/119/30 31/120/30
f 32/121/31 31/122/31 2/123/31 1/124/31
f 33/125/32 32/126/32 1/127/32 5/128/32
f 34/129/33 33/130/33 5/131/33 7/132/33
f 35/133/34 34/134/34 7/135/34 9/136/34
f 36/137/35 35/138/35 9/139/35 11/140/35
f 37/141/36 36/142/36 11/143/36 13/144/36
f 38/145/37 37/146/37 13/147/37 15/148/37
f 39/149/38 38/150/38 15/151/38 17/152/38
f 40/153/39 39/154/39 17/155/39 19/156/39
f 31/157/40 40/158/40 19/159/40 2/160/40
o default
o pCube2
v -0.25 0.5 0.25
v 0.25 0.5 0.25
v 0.25 1 0.25
v -0.25 1 0.25
v 0.25 1 -0.25
v -0.25 1 -0.25
v 0.25 0.5 -0.25
v -0.25 0.5 -0.25
vt 0 0
vt 1 0
vt 1 1
vt 0 1
vt 0 0
vt 1 0
vt 1 1
vt 0 1
vt 1 1
vt 0 1
vt 0 0
vt 1 0
vt 0 0
vt 1 0
vt 1 1
vt 0 1
vt 0 0
vt 1 0
vt 1 1
vt 0 1
vt 0 0
vt 1 0
vt 1 1
vt 0 1
vn 0 0 1
vn 0 1 0
vn 0 0 -1
vn 0 -1 0
vn 1 0 0
vn -1 0 0
usemtl m_4f0242f1-d9a7-762e-6c8c-ff5d5436f3e4
f 41/161/41 42/162/41 43/163/41 44/164/41
f 44/165/42 43/166/42 45/167/42 46/168/42
f 46/169/43 45/170/43 47/171/43 48/172/43
f 48/173/44 47/174/44 42/175/44 41/176/44
f 42/177/45 47/178/45 45/179/45 43/180/45
f 48/181/46 41/182/46 44/183/46 46/184/46
o default
o pTorus1
v 0 0.05 -0.25
v 0.176777 0.05 -0.176777
v 0.187132 0.085355 -0.187132
v 0 0.085355 -0.264645
v -0.176777 0.05 -0.176777
v -0.187132 0.085355 -0.187132
v -0.25 0.05 0
v -0.264645 0.085355 0
v -0.176777 0.05 0.176777
v -0.187132 0.085355 0.187132
v 0 0.05 0.25
v 0 0.085355 0.264645
v 0.176777 0.05 0.176777
v 0.187132 0.085355 0.187132
v 0.25 0.05 0
v 0.264645 0.085355 0
v 0.212132 0.1 -0.212132
v 0 0.1 -0.3
v -0.212132 0.1 -0.212132
v -0.3 0.1 0
v -0.212132 0.1 0.212132
v 0 0.1 0.3
v 0.212132 0.1 0.212132
v 0.3 0.1 0
v 0.237132 0.085355 -0.237132
v 0 0.085355 -0.335355
v -0.237132 0.085355 -0.237132
v -0.335355 0.085355 0
v -0.237132 0.085355 0.237132
v 0 0.085355 0.335355
v 0.237132 0.085355 0.237132
v 0.335355 0.085355 0
v 0.247487 0.05 -0.247487
v 0 0.05 -0.35
v -0.247487 0.05 -0.247487
v -0.35 0.05 0
v -0.247487 0.05 0.247487
v 0 0.05 0.35
v 0.247487 0.05 0.247487
v 0.35 0.05 0
v 0.237132 0.014645 -0.237132
v 0 0.014645 -0.335355
v -0.237132 0.014645 -0.237132
v -0.335355 0.014645 0
v -0.237132 0.014645 0.237132
v 0 0.014645 0.335355
v 0.237132 0.014645 0.237132
v 0.335355 0.014645 0
v 0.212132 0 -0.212132
v 0 0 -0.3
v -0.212132 0 -0.212132
v -0.3 0 0
v -0.212132 0 0.212132
v 0 0 0.3
v 0.212132 0 0.212132
v 0.3 0 0
v 0.187132 0.014645 -0.187132
v 0 0.014645 -0.264645
v -0.187132 0.014645 -0.187132
v -0.264645 0.014645 0
v -0.187132 0.014645 0.187132
v 0 0.014645 0.264645
v 0.187132 0.014645 0.187132
v 0.264645 0.014645 0
vt 0 0.96875
vt 0.1875 0.96875
vt 0.1875 1
vt 0 1
vt 0.0625 0.96875
vt 0.25 0.96875
vt 0.25 1
vt 0.0625 1
vt 0.1875 0.96875
vt 0.375 0.96875
vt 0.375 1
vt 0.1875 1
vt 0.3125 0.96875
vt 0.5 0.96875
vt 0.5 1
vt 0.3125 1
vt 0.4375 0.96875
vt 0.625 0.96875
vt 0.625 1
vt 0.4375 1
vt 0.5625 0.96875
vt 0.75 0.96875
vt 0.75 1
vt 0.5625 1
vt 0.6875 0.96875
vt 0.875 0.96875
vt 0.875 1
vt 0.6875 1
vt 0.8125 0.96875
vt 1 0.96875
vt 1 1
vt 0.8125 1
vt 0 0.84375
vt 0.21875 0.84375
vt 0.21875 0.875
vt 0 0.875
vt 0.0625 0.84375
vt 0.28125 0.84375
vt 0.28125 0.875
vt 0.0625 0.875
vt 0.1875 0.84375
vt 0.40625 0.84375
vt 0.40625 0.875
vt 0.1875 0.875
vt 0.3125 0.84375
vt 0.53125 0.84375
vt 0.53125 0.875
vt 0.3125 0.875
vt 0.4375 0.84375
vt 0.65625 0.84375
vt 0.65625 0.875
vt 0.4375 0.875
vt 0.5625 0.84375
vt 0.78125 0.84375
vt 0.78125 0.875
vt 0.5625 0.875
vt 0.6875 0.84375
vt 0.90625 0.84375
vt 0.90625 0.875
vt 0.6875 0.875
vt 0.75 0.84375
vt 0.96875 0.84375
vt 0.96875 0.875
vt 0.75 0.875
vt 0.25 0.75
vt 0 0.75
vt 0 0.71875
vt 0.25 0.71875
vt 0.3125 0.75
vt 0.0625 0.75
vt 0.0625 0.71875
vt 0.3125 0.71875
vt 0.4375 0.75
vt 0.1875 0.75
vt 0.1875 0.71875
vt 0.4375 0.71875
vt 0.5625 0.75
vt 0.3125 0.75
vt 0.3125 0.71875
vt 0.5625 0.71875
vt 0.6875 0.75
vt 0.4375 0.75
vt 0.4375 0.71875
vt 0.6875 0.71875
vt 0.8125 0.75
vt 0.5625 0.75
vt 0.5625 0.71875
vt 0.8125 0.71875
vt 0.9375 0.75
vt 0.6875 0.75
vt 0.6875 0.71875
vt 0.9375 0.71875
vt 1 0.75
vt 0.75 0.75
vt 0.75 0.71875
vt 1 0.71875
vt 0.25 0.625
vt 0 0.625
vt 0 0.59375
vt 0.28125 0.59375
vt 0.3125 0.625
vt 0.0625 0.625
vt 0.0625 0.59375
vt 0.34375 0.59375
vt 0.4375 0.625
vt 0.1875 0.625
vt 0.1875 0.59375
vt 0.46875 0.59375
vt 0.5625 0.625
vt 0.3125 0.625
vt 0.3125 0.59375
vt 0.59375 0.59375
vt 0.6875 0.625
vt 0.4375 0.625
vt 0.4375 0.59375
vt 0.71875 0.59375
vt 0.8125 0.625
vt 0.5625 0.625
vt 0.5625 0.59375
vt 0.84375 0.59375
vt 0.9375 0.625
vt 0.6875 0.625
vt 0.6875 0.59375
vt 0.96875 0.59375
vt 1 0.625
vt 0.75 0.625
vt 0.75 0.59375
vt 1 0.59375
vt 0.28125 0.5
vt 0 0.5
vt 0 0.46875
vt 0.25 0.46875
vt 0.34375 0.5
vt 0.0625 0.5
vt 0.0625 0.46875
vt 0.3125 0.46875
vt 0.46875 0.5
vt 0.1875 0.5
vt 0.1875 0.46875
vt 0.4375 0.46875
vt 0.59375 0.5
vt 0.3125 0.5
vt 0.3125 0.46875
vt 0.5625 0.46875
vt 0.71875 0.5
vt 0.4375 0.5
vt 0.4375 0.46875
vt 0.6875 0.46875
vt 0.84375 0.5
vt 0.5625 0.5
vt 0.5625 0.46875
vt 0.8125 0.46875
vt 0.96875 0.5
vt 0.6875 0.5
vt 0.6875 0.46875
vt 0.9375 0.46875
vt 1 0.5
vt 0.75 0.5
vt 0.75 0.46875
vt 1 0.46875
vt 0.25 0.375
vt 0 0.375
vt 0 0.34375
vt 0.25 0.34375
vt 0.3125 0.375
vt 0.0625 0.375
vt 0.0625 0.34375
vt 0.3125 0.34375
vt 0.4375 0.375
vt 0.1875 0.375
vt 0.1875 0.34375
vt 0.4375 0.34375
vt 0.5625 0.375
vt 0.3125 0.375
vt 0.3125 0.34375
vt 0.5625 0.34375
vt 0.6875 0.375
vt 0.4375 0.375
vt 0.4375 0.34375
vt 0.6875 0.34375
vt 0.8125 0.375
vt 0.5625 0.375
vt 0.5625 0.34375
vt 0.8125 0.34375
vt 0.9375 0.375
vt 0.6875 0.375
vt 0.6875 0.34375
vt 0.9375 0.34375
vt 1 0.375
vt 0.75 0.375
vt 0.75 0.34375
vt 1 0.34375
vt 0 0.21875
vt 0.21875 0.21875
vt 0.21875 0.25
vt 0 0.25
vt 0.0625 0.21875
vt 0.28125 0.21875
vt 0.28125 0.25
vt 0.0625 0.25
vt 0.1875 0.21875
vt 0.40625 0.21875
vt 0.40625 0.25
vt 0.1875 0.25
vt 0.3125 0.21875
vt 0.53125 0.21875
vt 0.53125 0.25
vt 0.3125 0.25
vt 0.4375 0.21875
vt 0.65625 0.21875
vt 0.65625 0.25
vt 0.4375 0.25
vt 0.5625 0.21875
vt 0.78125 0.21875
vt 0.78125 0.25
vt 0.5625 0.25
vt 0.6875 0.21875
vt 0.90625 0.21875
vt 0.90625 0.25
vt 0.6875 0.25
vt 0.75 0.21875
vt 0.96875 0.21875
vt 0.96875 0.25
vt 0.75 0.25
vt 0 0.03125
vt 0.1875 0.03125
vt 0.1875 0.0625
vt 0 0.0625
vt 0.0625 0.03125
vt 0.25 0.03125
vt 0.25 0.0625
vt 0.0625 0.0625
vt 0.1875 0.03125
vt 0.375 0.03125
vt 0.375 0.0625
vt 0.1875 0.0625
vt 0.3125 0.03125
vt 0.5 0.03125
vt 0.5 0.0625
vt 0.3125 0.0625
vt 0.4375 0.03125
vt 0.625 0.03125
vt 0.625 0.0625
vt 0.4375 0.0625
vt 0.5625 0.03125
vt 0.75 0.03125
vt 0.75 0.0625
vt 0.5625 0.0625
vt 0.6875 0.03125
vt 0.875 0.03125
vt 0.875 0.0625
vt 0.6875 0.0625
vt 0.8125 0.03125
vt 1 0.03125
vt 1 0.0625
vt 0.8125 0.0625
vn -0.357406045406128 0.3573992577539765 0.8628595999721275
vn 0.35740341481273896 0.357417220573327 0.8628532491205161
vn 0.8628595999721275 0.3573992577539765 0.357406045406128
vn 0.8628532491205159 0.3574172205733269 -0.3574034148127389
vn 0.357406045406128 0.3573992577539765 -0.8628595999721275
vn -0.35740341481273896 0.357417220573327 -0.8628532491205161
vn -0.8628595999721275 0.3573992577539765 -0.357406045406128
vn -0.8628532491205159 0.3574172205733269 0.3574034148127389
vn -0.1565616016743238 0.9124835328143612 0.37797125184832936
vn 0.15656304276124566 0.9124818444360349 0.3779747309225216
vn 0.37797125184832936 0.9124835328143612 0.1565616016743238
vn 0.3779747309225216 0.9124818444360349 -0.15656304276124566
vn 0.1565616016743238 0.9124835328143612 -0.37797125184832936
vn -0.15656304276124566 0.9124818444360349 -0.3779747309225216
vn -0.37797125184832936 0.9124835328143612 -0.1565616016743238
vn -0.3779747309225216 0.9124818444360349 0.15656304276124566
vn 0.15656109217473388 0.9124834333272349 -0.37797170306836
vn -0.15656236342390728 0.9124819439252645 -0.37797477213365843
vn -0.37797170306836 0.9124834333272349 -0.15656109217473388
vn -0.37797477213365843 0.9124819439252645 0.15656236342390728
vn -0.15656109217473388 0.9124834333272349 0.37797170306836
vn 0.15656236342390728 0.9124819439252645 0.37797477213365843
vn 0.37797170306836 0.9124834333272349 0.15656109217473388
vn 0.37797477213365843 0.9124819439252645 -0.15656236342390728
vn 0.3574069189695885 0.35739939141566 -0.8628591827687655
vn -0.35740432751883294 0.35741708690810914 -0.8628529264347036
vn -0.8628591827687655 0.35739939141566 -0.3574069189695885
vn -0.8628529264347036 0.35741708690810914 0.35740432751883294
vn -0.3574069189695885 0.35739939141566 0.8628591827687655
vn 0.35740432751883294 0.35741708690810914 0.8628529264347036
vn 0.8628591827687655 0.35739939141566 0.3574069189695885
vn 0.8628529264347036 0.35741708690810914 -0.35740432751883294
vn 0.3574093384580941 -0.3573997616138234 -0.862858027245114
vn -0.35740685542090816 -0.35741671669644426 -0.8628520326939445
vn -0.862858027245114 -0.3573997616138234 -0.3574093384580941
vn -0.8628520326939445 -0.35741671669644426 0.35740685542090816
vn -0.3574093384580941 -0.3573997616138234 0.862858027245114
vn 0.35740685542090816 -0.35741671669644426 0.8628520326939445
vn 0.862858027245114 -0.3573997616138234 0.3574093384580941
vn 0.8628520326939445 -0.35741671669644426 -0.35740685542090816
vn 0.15656069010376383 -0.9124833548167977 -0.3779720591479157
vn -0.15656182732674634 -0.9124820224365994 -0.37797480465518274
vn -0.3779720591479157 -0.9124833548167977 -0.15656069010376383
vn -0.37797480465518274 -0.9124820224365994 0.15656182732674634
vn -0.15656069010376383 -0.9124833548167977 0.3779720591479157
vn 0.15656182732674634 -0.9124820224365994 0.37797480465518274
vn 0.3779720591479157 -0.9124833548167977 0.15656069010376383
vn 0.37797480465518274 -0.9124820224365994 -0.15656182732674634
vn -0.15656109217473405 -0.9124834333272346 0.37797170306836025
vn 0.15656236342390745 -0.9124819439252644 0.3779747721336588
vn 0.37797170306836025 -0.9124834333272346 0.15656109217473405
vn 0.3779747721336588 -0.9124819439252644 -0.15656236342390745
vn 0.15656109217473405 -0.9124834333272346 -0.37797170306836025
vn -0.15656236342390745 -0.9124819439252644 -0.3779747721336588
vn -0.37797170306836025 -0.9124834333272346 -0.15656109217473405
vn -0.3779747721336588 -0.9124819439252644 0.15656236342390745
vn -0.35740929358448426 -0.35739975474787655 0.8628580486763727
vn 0.3574068085365654 -0.35741672356269216 0.8628520492699875
vn 0.862858048676373 -0.3573997547478766 0.3574092935844843
vn 0.8628520492699875 -0.35741672356269216 -0.3574068085365654
vn 0.35740929358448426 -0.35739975474787655 -0.8628580486763727
vn -0.3574068085365654 -0.35741672356269216 -0.8628520492699875
vn -0.862858048676373 -0.3573997547478766 -0.3574092935844843
vn -0.8628520492699875 -0.35741672356269216 0.3574068085365654
usemtl m_f17e2fc1-2e5a-fb80-18f5-e89d28ffae67
f 49/185/47 50/186/47 51/187/47 52/188/47
f 53/189/48 49/190/48 52/191/48 54/192/48
f 55/193/49 53/194/49 54/195/49 56/196/49
f 57/197/50 55/198/50 56/199/50 58/200/50
f 59/201/51 57/202/51 58/203/51 60/204/51
f 61/205/52 59/206/52 60/207/52 62/208/52
f 63/209/53 61/210/53 62/211/53 64/212/53
f 50/213/54 63/214/54 64/215/54 51/216/54
f 52/217/55 51/218/55 65/219/55 66/220/55
f 54/221/56 52/222/56 66/223/56 67/224/56
f 56/225/57 54/226/57 67/227/57 68/228/57
f 58/229/58 56/230/58 68/231/58 69/232/58
f 60/233/59 58/234/59 69/235/59 70/236/59
f 62/237/60 60/238/60 70/239/60 71/240/60
f 64/241/61 62/242/61 71/243/61 72/244/61
f 51/245/62 64/246/62 72/247/62 65/248/62
f 66/249/63 65/250/63 73/251/63 74/252/63
f 67/253/64 66/254/64 74/255/64 75/256/64
f 68/257/65 67/258/65 75/259/65 76/260/65
f 69/261/66 68/262/66 76/263/66 77/264/66
f 70/265/67 69/266/67 77/267/67 78/268/67
f 71/269/68 70/270/68 78/271/68 79/272/68
f 72/273/69 71/274/69 79/275/69 80/276/69
f 65/277/70 72/278/70 80/279/70 73/280/70
f 74/281/71 73/282/71 81/283/71 82/284/71
f 75/285/72 74/286/72 82/287/72 83/288/72
f 76/289/73 75/290/73 83/291/73 84/292/73
f 77/293/74 76/294/74 84/295/74 85/296/74
f 78/297/75 77/298/75 85/299/75 86/300/75
f 79/301/76 78/302/76 86/303/76 87/304/76
f 80/305/77 79/306/77 87/307/77 88/308/77
f 73/309/78 80/310/78 88/311/78 81/312/78
f 82/313/79 81/314/79 89/315/79 90/316/79
f 83/317/80 82/318/80 90/319/80 91/320/80
f 84/321/81 83/322/81 91/323/81 92/324/81
f 85/325/82 84/326/82 92/327/82 93/328/82
f 86/329/83 85/330/83 93/331/83 94/332/83
f 87/333/84 86/334/84 94/335/84 95/336/84
f 88/337/85 87/338/85 95/339/85 96/340/85
f 81/341/86 88/342/86 96/343/86 89/344/86
f 90/345/87 89/346/87 97/347/87 98/348/87
f 91/349/88 90/350/88 98/351/88 99/352/88
f 92/353/89 91/354/89 99/355/89 100/356/89
f 93/357/90 92/358/90 100/359/90 101/360/90
f 94/361/91 93/362/91 101/363/91 102/364/91
f 95/365/92 94/366/92 102/367/92 103/368/92
f 96/369/93 95/370/93 103/371/93 104/372/93
f 89/373/94 96/374/94 104/375/94 97/376/94
f 98/377/95 97/378/95 105/379/95 106/380/95
f 99/381/96 98/382/96 106/383/96 107/384/96
f 100/385/97 99/386/97 107/387/97 108/388/97
f 101/389/98 100/390/98 108/391/98 109/392/98
f 102/393/99 101/394/99 109/395/99 110/396/99
f 103/397/100 102/398/100 110/399/100 111/400/100
f 104/401/101 103/402/101 111/403/101 112/404/101
f 97/405/102 104/406/102 112/407/102 105/408/102
f 106/409/103 105/410/103 50/411/103 49/412/103
f 107/413/104 106/414/104 49/415/104 53/416/104
f 108/417/105 107/418/105 53/419/105 55/420/105
f 109/421/106 108/422/106 55/423/106 57/424/106
f 110/425/107 109/426/107 57/427/107 59/428/107
f 111/429/108 110/430/108 59/431/108 61/432/108
f 112/433/109 111/434/109 61/435/109 63/436/109
f 105/437/110 112/438/110 63/439/110 50/440/110
o default
o pTorus2
v 0.002303 0.2 -0.237291
v 0.17908 0.2 -0.164067
v 0.189435 0.235355 -0.174423
v 0.002303 0.235355 -0.251935
v -0.174473 0.2 -0.164067
v -0.184829 0.235355 -0.174423
v -0.247697 0.2 0.012709
v -0.262341 0.235355 0.012709
v -0.174473 0.2 0.189486
v -0.184829 0.235355 0.199841
v 0.002303 0.2 0.262709
v 0.002303 0.235355 0.277354
v 0.17908 0.2 0.189486
v 0.189435 0.235355 0.199841
v 0.252303 0.2 0.012709
v 0.266948 0.235355 0.012709
v 0.214435 0.25 -0.199423
v 0.002303 0.25 -0.287291
v -0.209829 0.25 -0.199423
v -0.297697 0.25 0.012709
v -0.209829 0.25 0.224841
v 0.002303 0.25 0.312709
v 0.214435 0.25 0.224841
v 0.302303 0.25 0.012709
v 0.239435 0.235355 -0.224423
v 0.002303 0.235355 -0.322646
v -0.234829 0.235355 -0.224423
v -0.333052 0.235355 0.012709
v -0.234829 0.235355 0.249841
v 0.002303 0.235355 0.348065
v 0.239435 0.235355 0.249841
v 0.337659 0.235355 0.012709
v 0.249791 0.2 -0.234778
v 0.002303 0.2 -0.337291
v -0.245184 0.2 -0.234778
v -0.347697 0.2 0.012709
v -0.245184 0.2 0.260197
v 0.002303 0.2 0.362709
v 0.249791 0.2 0.260197
v 0.352303 0.2 0.012709
v 0.239435 0.164645 -0.224423
v 0.002303 0.164645 -0.322646
v -0.234829 0.164645 -0.224423
v -0.333052 0.164645 0.012709
v -0.234829 0.164645 0.249841
v 0.002303 0.164645 0.348065
v 0.239435 0.164645 0.249841
v 0.337659 0.164645 0.012709
v 0.214435 0.15 -0.199423
v 0.002303 0.15 -0.287291
v -0.209829 0.15 -0.199423
v -0.297697 0.15 0.012709
v -0.209829 0.15 0.224841
v 0.002303 0.15 0.312709
v 0.214435 0.15 0.224841
v 0.302303 0.15 0.012709
v 0.189435 0.164645 -0.174423
v 0.002303 0.164645 -0.251935
v -0.184829 0.164645 -0.174423
v -0.262341 0.164645 0.012709
v -0.184829 0.164645 0.199841
v 0.002303 0.164645 0.277354
v 0.189435 0.164645 0.199841
v 0.266948 0.164645 0.012709
vt 0 0.90625
vt 0.1875 0.90625
vt 0.1875 0.9375
vt 0 0.9375
vt 0.0625 0.90625
vt 0.25 0.90625
vt 0.25 0.9375
vt 0.0625 0.9375
vt 0.1875 0.90625
vt 0.375 0.90625
vt 0.375 0.9375
vt 0.1875 0.9375
vt 0.3125 0.90625
vt 0.5 0.90625
vt 0.5 0.9375
vt 0.3125 0.9375
vt 0.4375 0.90625
vt 0.625 0.90625
vt 0.625 0.9375
vt 0.4375 0.9375
vt 0.5625 0.90625
vt 0.75 0.90625
vt 0.75 0.9375
vt 0.5625 0.9375
vt 0.75 0.90625
vt 0.9375 0.90625
vt 0.9375 0.9375
vt 0.75 0.9375
vt 0.8125 0.90625
vt 1 0.90625
vt 1 0.9375
vt 0.8125 0.9375
vt 0 0.84375
vt 0.21875 0.84375
vt 0.21875 0.875
vt 0 0.875
vt 0.0625 0.78125
vt 0.28125 0.78125
vt 0.28125 0.8125
vt 0.0625 0.8125
vt 0.1875 0.84375
vt 0.40625 0.84375
vt 0.40625 0.875
vt 0.1875 0.875
vt 0.3125 0.84375
vt 0.53125 0.84375
vt 0.53125 0.875
vt 0.3125 0.875
vt 0.4375 0.78125
vt 0.65625 0.78125
vt 0.65625 0.8125
vt 0.4375 0.8125
vt 0.5625 0.78125
vt 0.78125 0.78125
vt 0.78125 0.8125
vt 0.5625 0.8125
vt 0.6875 0.84375
vt 0.90625 0.84375
vt 0.90625 0.875
vt 0.6875 0.875
vt 0.75 0.84375
vt 0.96875 0.84375
vt 0.96875 0.875
vt 0.75 0.875
vt 0.25 0.75
vt 0 0.75
vt 0 0.71875
vt 0.25 0.71875
vt 0.3125 0.75
vt 0.0625 0.75
vt 0.0625 0.71875
vt 0.3125 0.71875
vt 0.4375 0.75
vt 0.1875 0.75
vt 0.1875 0.71875
vt 0.4375 0.71875
vt 0.5625 0.75
vt 0.3125 0.75
vt 0.3125 0.71875
vt 0.5625 0.71875
vt 0.6875 0.6875
vt 0.4375 0.6875
vt 0.4375 0.65625
vt 0.6875 0.65625
vt 0.8125 0.6875
vt 0.5625 0.6875
vt 0.5625 0.65625
vt 0.8125 0.65625
vt 0.9375 0.6875
vt 0.6875 0.6875
vt 0.6875 0.65625
vt 0.9375 0.65625
vt 1 0.75
vt 0.75 0.75
vt 0.75 0.71875
vt 1 0.71875
vt 0.25 0.5625
vt 0 0.5625
vt 0 0.53125
vt 0.28125 0.53125
vt 0.3125 0.5625
vt 0.0625 0.5625
vt 0.0625 0.53125
vt 0.34375 0.53125
vt 0.4375 0.625
vt 0.1875 0.625
vt 0.1875 0.59375
vt 0.46875 0.59375
vt 0.5625 0.625
vt 0.3125 0.625
vt 0.3125 0.59375
vt 0.59375 0.59375
vt 0.6875 0.625
vt 0.4375 0.625
vt 0.4375 0.59375
vt 0.71875 0.59375
vt 0.8125 0.625
vt 0.5625 0.625
vt 0.5625 0.59375
vt 0.84375 0.59375
vt 0.9375 0.625
vt 0.6875 0.625
vt 0.6875 0.59375
vt 0.96875 0.59375
vt 1 0.625
vt 0.75 0.625
vt 0.75 0.59375
vt 1 0.59375
vt 0.28125 0.5
vt 0 0.5
vt 0 0.46875
vt 0.25 0.46875
vt 0.34375 0.5
vt 0.0625 0.5
vt 0.0625 0.46875
vt 0.3125 0.46875
vt 0.46875 0.5
vt 0.1875 0.5
vt 0.1875 0.46875
vt 0.4375 0.46875
vt 0.59375 0.4375
vt 0.3125 0.4375
vt 0.3125 0.40625
vt 0.5625 0.40625
vt 0.71875 0.4375
vt 0.4375 0.4375
vt 0.4375 0.40625
vt 0.6875 0.40625
vt 0.84375 0.4375
vt 0.5625 0.4375
vt 0.5625 0.40625
vt 0.8125 0.40625
vt 0.96875 0.4375
vt 0.6875 0.4375
vt 0.6875 0.40625
vt 0.9375 0.40625
vt 1 0.4375
vt 0.75 0.4375
vt 0.75 0.40625
vt 1 0.40625
vt 0.25 0.3125
vt 0 0.3125
vt 0 0.28125
vt 0.25 0.28125
vt 0.3125 0.3125
vt 0.0625 0.3125
vt 0.0625 0.28125
vt 0.3125 0.28125
vt 0.4375 0.3125
vt 0.1875 0.3125
vt 0.1875 0.28125
vt 0.4375 0.28125
vt 0.5625 0.375
vt 0.3125 0.375
vt 0.3125 0.34375
vt 0.5625 0.34375
vt 0.6875 0.375
vt 0.4375 0.375
vt 0.4375 0.34375
vt 0.6875 0.34375
vt 0.8125 0.375
vt 0.5625 0.375
vt 0.5625 0.34375
vt 0.8125 0.34375
vt 0.9375 0.375
vt 0.6875 0.375
vt 0.6875 0.34375
vt 0.9375 0.34375
vt 1 0.375
vt 0.75 0.375
vt 0.75 0.34375
vt 1 0.34375
vt 0 0.21875
vt 0.21875 0.21875
vt 0.21875 0.25
vt 0 0.25
vt 0.0625 0.21875
vt 0.28125 0.21875
vt 0.28125 0.25
vt 0.0625 0.25
vt 0.1875 0.21875
vt 0.40625 0.21875
vt 0.40625 0.25
vt 0.1875 0.25
vt 0.3125 0.15625
vt 0.53125 0.15625
vt 0.53125 0.1875
vt 0.3125 0.1875
vt 0.4375 0.15625
vt 0.65625 0.15625
vt 0.65625 0.1875
vt 0.4375 0.1875
vt 0.5625 0.15625
vt 0.78125 0.15625
vt 0.78125 0.1875
vt 0.5625 0.1875
vt 0.6875 0.15625
vt 0.90625 0.15625
vt 0.90625 0.1875
vt 0.6875 0.1875
vt 0.75 0.21875
vt 0.96875 0.21875
vt 0.96875 0.25
vt 0.75 0.25
vt 0 0.09375
vt 0.1875 0.09375
vt 0.1875 0.125
vt 0 0.125
vt 0.0625 0.09375
vt 0.25 0.09375
vt 0.25 0.125
vt 0.0625 0.125
vt 0.1875 0.09375
vt 0.375 0.09375
vt 0.375 0.125
vt 0.1875 0.125
vt 0.3125 0.09375
vt 0.5 0.09375
vt 0.5 0.125
vt 0.3125 0.125
vt 0.4375 0.09375
vt 0.625 0.09375
vt 0.625 0.125
vt 0.4375 0.125
vt 0.5625 0.09375
vt 0.75 0.09375
vt 0.75 0.125
vt 0.5625 0.125
vt 0.75 0.09375
vt 0.9375 0.09375
vt 0.9375 0.125
vt 0.75 0.125
vt 0.8125 0.09375
vt 1 0.09375
vt 1 0.125
vt 0.8125 0.125
vn -0.3574070027534962 0.3574211690692974 0.8628501273592646
vn 0.3574125534526757 0.35739505085313705 0.8628586467435566
vn 0.8628462035385321 0.3574302449544903 0.35740739923918113
vn 0.8628592702669372 0.35739530911579753 -0.35741078989928676
vn 0.3574064419795999 0.3574083337989966 -0.8628556763228183
vn -0.3574034148127392 0.35741722057332564 -0.8628532491205163
vn -0.8628595999721275 0.3573992577539765 -0.357406045406128
vn -0.8628526256272184 0.35741696230549114 0.357405178340396
vn -0.1565601239408387 0.9124832442644841 0.37797256054929584
vn 0.15655738544639913 0.9124864526762155 0.3779659491866492
vn 0.37797256054929596 0.9124832442644841 0.15656012394083868
vn 0.3779659491866492 0.9124864526762153 -0.15655738544639908
vn 0.15656160167432354 0.9124835328143613 -0.3779712518483288
vn -0.15656304276124525 0.9124818444360353 -0.3779747309225207
vn -0.3779712518483288 0.9124835328143613 -0.1565616016743236
vn -0.3779747309225212 0.9124818444360349 0.15656304276124552
vn 0.15656109217473385 0.9124834333272349 -0.3779717030683597
vn -0.15656236342390736 0.9124819439252644 -0.37797477213365854
vn -0.37797170306835964 0.9124834333272351 -0.15656109217473377
vn -0.37797477213365804 0.9124819439252647 0.15656236342390709
vn -0.15656109217473388 0.9124834333272348 0.37797170306835987
vn 0.15655867640057178 0.9124862636204526 0.377965870876839
vn 0.3779717030683597 0.9124834333272349 0.15656109217473377
vn 0.377965870876839 0.9124862636204526 -0.15655867640057178
vn 0.3574056276531884 0.3574082091811204 -0.86285606524598
vn -0.35740432751883267 0.35741708690811036 -0.8628529264347031
vn -0.8628591827687657 0.3573993914156597 -0.35740691896958854
vn -0.8628529264347036 0.35741708690810914 0.35740432751883294
vn -0.3574068391613081 0.3574211440408559 0.8628502054894863
vn 0.35741061897421705 0.3573953341467532 0.8628593306991574
vn 0.8628470878100936 0.35742996164715796 0.3574055477668919
vn 0.8628593306991574 0.3573953341467532 -0.35741061897421694
vn 0.35740684149005264 -0.35740839493672677 -0.8628554855158871
vn -0.35740685542090816 -0.3574167166964455 -0.862852032693944
vn -0.8628580272451141 -0.3573997616138232 -0.3574093384580942
vn -0.8628524780500352 -0.3574169011750174 0.35740559575552444
vn -0.35740331022257177 -0.35742060413586413 0.8628518908718357
vn 0.3574056721900488 -0.3573960585678006 0.862861079668437
vn 0.8628493490218522 -0.3574292371764909 0.35740081323913914
vn 0.862860634307716 -0.35739587409990625 -0.35740693185562294
vn 0.156560690103764 -0.9124833548167975 -0.3779720591479163
vn -0.15656182732674664 -0.9124820224365988 -0.3779748046551836
vn -0.37797205914791615 -0.9124833548167975 -0.156560690103764
vn -0.3779748046551831 -0.9124820224365991 0.1565618273267465
vn -0.1565618562502915 -0.9124835825238258 0.3779710263921661
vn 0.1565596951525832 -0.9124861144266239 0.377965809078457
vn 0.3779710263921661 -0.912483582523826 0.15656185625029143
vn 0.377965809078457 -0.9124861144266239 -0.15655969515258317
vn -0.15656109217473418 -0.9124834333272345 0.3779717030683605
vn 0.15655867640057208 -0.9124862636204522 0.37796587087683964
vn 0.37797170306836064 -0.9124834333272345 0.1565610921747342
vn 0.3779658708768397 -0.9124862636204522 -0.15655867640057206
vn 0.15656109217473413 -0.9124834333272347 -0.3779717030683604
vn -0.15656236342390742 -0.9124819439252645 -0.37797477213365877
vn -0.37797170306836053 -0.9124834333272345 -0.15656109217473416
vn -0.3779747721336592 -0.9124819439252642 0.15656236342390764
vn -0.3574023265836234 -0.3574204536445728 0.8628523606441144
vn 0.3574059041270285 -0.3573960246025514 0.8628609976661559
vn 0.8628492430023205 -0.35742927114453427 0.3574010352243115
vn 0.8628609976661563 -0.3573960246025508 -0.3574059041270285
vn 0.35740800224961206 -0.35740857256929753 -0.8628549311338022
vn -0.35740680853656553 -0.3574167235626911 -0.862852049269988
vn -0.8628580486763728 -0.3573997547478766 -0.35740929358448426
vn -0.8628520492699876 -0.3574167235626923 0.3574068085365655
usemtl m_f17e2fc1-2e5a-fb80-18f5-e89d28ffae67
f 113/441/111 114/442/111 115/443/111 116/444/111
f 117/445/112 113/446/112 116/447/112 118/448/112
f 119/449/113 117/450/113 118/451/113 120/452/113
f 121/453/114 119/454/114 120/455/114 122/456/114
f 123/457/115 121/458/115 122/459/115 124/460/115
f 125/461/116 123/462/116 124/463/116 126/464/116
f 127/465/117 125/466/117 126/467/117 128/468/117
f 114/469/118 127/470/118 128/471/118 115/472/118
f 116/473/119 115/474/119 129/475/119 130/476/119
f 118/477/120 116/478/120 130/479/120 131/480/120
f 120/481/121 118/482/121 131/483/121 132/484/121
f 122/485/122 120/486/122 132/487/122 133/488/122
f 124/489/123 122/490/123 133/491/123 134/492/123
f 126/493/124 124/494/124 134/495/124 135/496/124
f 128/497/125 126/498/125 135/499/125 136/500/125
f 115/501/126 128/502/126 136/503/126 129/504/126
f 130/505/127 129/506/127 137/507/127 138/508/127
f 131/509/128 130/510/128 138/511/128 139/512/128
f 132/513/129 131/514/129 139/515/129 140/516/129
f 133/517/130 132/518/130 140/519/130 141/520/130
f 134/521/131 133/522/131 141/523/131 142/524/131
f 135/525/132 134/526/132 142/527/132 143/528/132
f 136/529/133 135/530/133 143/531/133 144/532/133
f 129/533/134 136/534/134 144/535/134 137/536/134
f 138/537/135 137/538/135 145/539/135 146/540/135
f 139/541/136 138/542/136 146/543/136 147/544/136
f 140/545/137 139/546/137 147/547/137 148/548/137
f 141/549/138 140/550/138 148/551/138 149/552/138
f 142/553/139 141/554/139 149/555/139 150/556/139
f 143/557/140 142/558/140 150/559/140 151/560/140
f 144/561/141 143/562/141 151/563/141 152/564/141
f 137/565/142 144/566/142 152/567/142 145/568/142
f 146/569/143 145/570/143 153/571/143 154/572/143
f 147/573/144 146/574/144 154/575/144 155/576/144
f 148/577/145 147/578/145 155/579/145 156/580/145
f 149/581/146 148/582/146 156/583/146 157/584/146
f 150/585/147 149/586/147 157/587/147 158/588/147
f 151/589/148 150/590/148 158/591/148 159/592/148
f 152/593/149 151/594/149 159/595/149 160/596/149
f 145/597/150 152/598/150 160/599/150 153/600/150
f 154/601/151 153/602/151 161/603/151 162/604/151
f 155/605/152 154/606/152 162/607/152 163/608/152
f 156/609/153 155/610/153 163/611/153 164/612/153
f 157/613/154 156/614/154 164/615/154 165/616/154
f 158/617/155 157/618/155 165/619/155 166/620/155
f 159/621/156 158/622/156 166/623/156 167/624/156
f 160/625/157 159/626/157 167/627/157 168/628/157
f 153/629/158 160/630/158 168/631/158 161/632/158
f 162/633/159 161/634/159 169/635/159 170/636/159
f 163/637/160 162/638/160 170/639/160 171/640/160
f 164/641/161 163/642/161 171/643/161 172/644/161
f 165/645/162 164/646/162 172/647/162 173/648/162
f 166/649/163 165/650/163 173/651/163 174/652/163
f 167/653/164 166/654/164 174/655/164 175/656/164
f 168/657/165 167/658/165 175/659/165 176/660/165
f 161/661/166 168/662/166 176/663/166 169/664/166
f 170/665/167 169/666/167 114/667/167 113/668/167
f 171/669/168 170/670/168 113/671/168 117/672/168
f 172/673/169 171/674/169 117/675/169 119/676/169
f 173/677/170 172/678/170 119/679/170 121/680/170
f 174/681/171 173/682/171 121/683/171 123/684/171
f 175/685/172 174/686/172 123/687/172 125/688/172
f 176/689/173 175/690/173 125/691/173 127/692/173
f 169/693/174 176/694/174 127/695/174 114/696/174
o default
o pTorus3
v 0 0.35 -0.25
v 0.176777 0.35 -0.176777
v 0.187132 0.385355 -0.187132
v 0 0.385355 -0.264645
v -0.176777 0.35 -0.176777
v -0.187132 0.385355 -0.187132
v -0.25 0.35 0
v -0.264645 0.385355 0
v -0.176777 0.35 0.176777
v -0.187132 0.385355 0.187132
v 0 0.35 0.25
v 0 0.385355 0.264645
v 0.176777 0.35 0.176777
v 0.187132 0.385355 0.187132
v 0.25 0.35 0
v 0.264645 0.385355 0
v 0.212132 0.4 -0.212132
v 0 0.4 -0.3
v -0.212132 0.4 -0.212132
v -0.3 0.4 0
v -0.212132 0.4 0.212132
v 0 0.4 0.3
v 0.212132 0.4 0.212132
v 0.3 0.4 0
v 0.237132 0.385355 -0.237132
v 0 0.385355 -0.335355
v -0.237132 0.385355 -0.237132
v -0.335355 0.385355 0
v -0.237132 0.385355 0.237132
v 0 0.385355 0.335355
v 0.237132 0.385355 0.237132
v 0.335355 0.385355 0
v 0.247487 0.35 -0.247487
v 0 0.35 -0.35
v -0.247487 0.35 -0.247487
v -0.35 0.35 0
v -0.247487 0.35 0.247487
v 0 0.35 0.35
v 0.247487 0.35 0.247487
v 0.35 0.35 0
v 0.237132 0.314645 -0.237132
v 0 0.314645 -0.335355
v -0.237132 0.314645 -0.237132
v -0.335355 0.314645 0
v -0.237132 0.314645 0.237132
v 0 0.314645 0.335355
v 0.237132 0.314645 0.237132
v 0.335355 0.314645 0
v 0.212132 0.3 -0.212132
v 0 0.3 -0.3
v -0.212132 0.3 -0.212132
v -0.3 0.3 0
v -0.212132 0.3 0.212132
v 0 0.3 0.3
v 0.212132 0.3 0.212132
v 0.3 0.3 0
v 0.187132 0.314645 -0.187132
v 0 0.314645 -0.264645
v -0.187132 0.314645 -0.187132
v -0.264645 0.314645 0
v -0.187132 0.314645 0.187132
v 0 0.314645 0.264645
v 0.187132 0.314645 0.187132
v 0.264645 0.314645 0
vt 0 0.90625
vt 0.1875 0.90625
vt 0.1875 0.9375
vt 0 0.9375
vt 0.0625 0.90625
vt 0.25 0.90625
vt 0.25 0.9375
vt 0.0625 0.9375
vt 0.1875 0.90625
vt 0.375 0.90625
vt 0.375 0.9375
vt 0.1875 0.9375
vt 0.3125 0.90625
vt 0.5 0.90625
vt 0.5 0.9375
vt 0.3125 0.9375
vt 0.4375 0.90625
vt 0.625 0.90625
vt 0.625 0.9375
vt 0.4375 0.9375
vt 0.5625 0.90625
vt 0.75 0.90625
vt 0.75 0.9375
vt 0.5625 0.9375
vt 0.6875 0.90625
vt 0.875 0.90625
vt 0.875 0.9375
vt 0.6875 0.9375
vt 0.8125 0.90625
vt 1 0.90625
vt 1 0.9375
vt 0.8125 0.9375
vt 0 0.84375
vt 0.21875 0.84375
vt 0.21875 0.875
vt 0 0.875
vt 0.0625 0.84375
vt 0.28125 0.84375
vt 0.28125 0.875
vt 0.0625 0.875
vt 0.1875 0.84375
vt 0.40625 0.84375
vt 0.40625 0.875
vt 0.1875 0.875
vt 0.3125 0.84375
vt 0.53125 0.84375
vt 0.53125 0.875
vt 0.3125 0.875
vt 0.4375 0.84375
vt 0.65625 0.84375
vt 0.65625 0.875
vt 0.4375 0.875
vt 0.5625 0.84375
vt 0.78125 0.84375
vt 0.78125 0.875
vt 0.5625 0.875
vt 0.6875 0.84375
vt 0.90625 0.84375
vt 0.90625 0.875
vt 0.6875 0.875
vt 0.75 0.84375
vt 0.96875 0.84375
vt 0.96875 0.875
vt 0.75 0.875
vt 0.25 0.75
vt 0 0.75
vt 0 0.71875
vt 0.25 0.71875
vt 0.3125 0.75
vt 0.0625 0.75
vt 0.0625 0.71875
vt 0.3125 0.71875
vt 0.4375 0.75
vt 0.1875 0.75
vt 0.1875 0.71875
vt 0.4375 0.71875
vt 0.5625 0.75
vt 0.3125 0.75
vt 0.3125 0.71875
vt 0.5625 0.71875
vt 0.6875 0.75
vt 0.4375 0.75
vt 0.4375 0.71875
vt 0.6875 0.71875
vt 0.8125 0.75
vt 0.5625 0.75
vt 0.5625 0.71875
vt 0.8125 0.71875
vt 0.9375 0.75
vt 0.6875 0.75
vt 0.6875 0.71875
vt 0.9375 0.71875
vt 1 0.75
vt 0.75 0.75
vt 0.75 0.71875
vt 1 0.71875
vt 0.25 0.5625
vt 0 0.5625
vt 0 0.53125
vt 0.28125 0.53125
vt 0.3125 0.5625
vt 0.0625 0.5625
vt 0.0625 0.53125
vt 0.34375 0.53125
vt 0.4375 0.5625
vt 0.1875 0.5625
vt 0.1875 0.53125
vt 0.46875 0.53125
vt 0.5625 0.5625
vt 0.3125 0.5625
vt 0.3125 0.53125
vt 0.59375 0.53125
vt 0.6875 0.5625
vt 0.4375 0.5625
vt 0.4375 0.53125
vt 0.71875 0.53125
vt 0.8125 0.5625
vt 0.5625 0.5625
vt 0.5625 0.53125
vt 0.84375 0.53125
vt 0.9375 0.5625
vt 0.6875 0.5625
vt 0.6875 0.53125
vt 0.96875 0.53125
vt 1 0.5625
vt 0.75 0.5625
vt 0.75 0.53125
vt 1 0.53125
vt 0.28125 0.4375
vt 0 0.4375
vt 0 0.40625
vt 0.25 0.40625
vt 0.34375 0.4375
vt 0.0625 0.4375
vt 0.0625 0.40625
vt 0.3125 0.40625
vt 0.46875 0.4375
vt 0.1875 0.4375
vt 0.1875 0.40625
vt 0.4375 0.40625
vt 0.59375 0.4375
vt 0.3125 0.4375
vt 0.3125 0.40625
vt 0.5625 0.40625
vt 0.71875 0.4375
vt 0.4375 0.4375
vt 0.4375 0.40625
vt 0.6875 0.40625
vt 0.84375 0.4375
vt 0.5625 0.4375
vt 0.5625 0.40625
vt 0.8125 0.40625
vt 0.96875 0.4375
vt 0.6875 0.4375
vt 0.6875 0.40625
vt 0.9375 0.40625
vt 1 0.4375
vt 0.75 0.4375
vt 0.75 0.40625
vt 1 0.40625
vt 0.25 0.375
vt 0 0.375
vt 0 0.34375
vt 0.25 0.34375
vt 0.3125 0.375
vt 0.0625 0.375
vt 0.0625 0.34375
vt 0.3125 0.34375
vt 0.4375 0.375
vt 0.1875 0.375
vt 0.1875 0.34375
vt 0.4375 0.34375
vt 0.5625 0.375
vt 0.3125 0.375
vt 0.3125 0.34375
vt 0.5625 0.34375
vt 0.6875 0.375
vt 0.4375 0.375
vt 0.4375 0.34375
vt 0.6875 0.34375
vt 0.8125 0.375
vt 0.5625 0.375
vt 0.5625 0.34375
vt 0.8125 0.34375
vt 0.9375 0.375
vt 0.6875 0.375
vt 0.6875 0.34375
vt 0.9375 0.34375
vt 1 0.375
vt 0.75 0.375
vt 0.75 0.34375
vt 1 0.34375
vt 0 0.15625
vt 0.21875 0.15625
vt 0.21875 0.1875
vt 0 0.1875
vt 0.0625 0.15625
vt 0.28125 0.15625
vt 0.28125 0.1875
vt 0.0625 0.1875
vt 0.1875 0.15625
vt 0.40625 0.15625
vt 0.40625 0.1875
vt 0.1875 0.1875
vt 0.3125 0.15625
vt 0.53125 0.15625
vt 0.53125 0.1875
vt 0.3125 0.1875
vt 0.4375 0.15625
vt 0.65625 0.15625
vt 0.65625 0.1875
vt 0.4375 0.1875
vt 0.5625 0.15625
vt 0.78125 0.15625
vt 0.78125 0.1875
vt 0.5625 0.1875
vt 0.6875 0.15625
vt 0.90625 0.15625
vt 0.90625 0.1875
vt 0.6875 0.1875
vt 0.75 0.15625
vt 0.96875 0.15625
vt 0.96875 0.1875
vt 0.75 0.1875
vt 0 0.03125
vt 0.1875 0.03125
vt 0.1875 0.0625
vt 0 0.0625
vt 0.0625 0.03125
vt 0.25 0.03125
vt 0.25 0.0625
vt 0.0625 0.0625
vt 0.1875 0.03125
vt 0.375 0.03125
vt 0.375 0.0625
vt 0.1875 0.0625
vt 0.3125 0.03125
vt 0.5 0.03125
vt 0.5 0.0625
vt 0.3125 0.0625
vt 0.4375 0.03125
vt 0.625 0.03125
vt 0.625 0.0625
vt 0.4375 0.0625
vt 0.5625 0.03125
vt 0.75 0.03125
vt 0.75 0.0625
vt 0.5625 0.0625
vt 0.6875 0.03125
vt 0.875 0.03125
vt 0.875 0.0625
vt 0.6875 0.0625
vt 0.8125 0.03125
vt 1 0.03125
vt 1 0.0625
vt 0.8125 0.0625
vn -0.357406045406128 0.35739925775397624 0.8628595999721274
vn 0.3574034148127389 0.3574172205733267 0.862853249120516
vn 0.8628595999721274 0.35739925775397624 0.357406045406128
vn 0.862853249120516 0.3574172205733267 -0.3574034148127389
vn 0.357406045406128 0.35739925775397624 -0.8628595999721274
vn -0.3574034148127389 0.3574172205733267 -0.862853249120516
vn -0.8628595999721274 0.35739925775397624 -0.357406045406128
vn -0.862853249120516 0.3574172205733267 0.3574034148127389
vn -0.15656160167432392 0.912483532814361 0.3779712518483296
vn 0.15656304276124577 0.9124818444360345 0.37797473092252176
vn 0.3779712518483296 0.912483532814361 0.15656160167432392
vn 0.37797473092252176 0.9124818444360345 -0.15656304276124577
vn 0.15656160167432392 0.912483532814361 -0.3779712518483296
vn -0.15656304276124577 0.9124818444360345 -0.37797473092252176
vn -0.3779712518483296 0.912483532814361 -0.15656160167432392
vn -0.37797473092252176 0.9124818444360345 0.15656304276124577
vn 0.15656109217473402 0.9124834333272348 -0.3779717030683602
vn -0.15656236342390742 0.9124819439252645 -0.37797477213365877
vn -0.37797170306836014 0.9124834333272347 -0.15656109217473402
vn -0.37797477213365877 0.9124819439252645 0.15656236342390742
vn -0.15656109217473402 0.9124834333272348 0.3779717030683602
vn 0.15656236342390742 0.9124819439252645 0.37797477213365877
vn 0.37797170306836014 0.9124834333272347 0.15656109217473402
vn 0.37797477213365877 0.9124819439252645 -0.15656236342390742
vn 0.35740691896958854 0.35739939141565974 -0.8628591827687656
vn -0.35740432751883294 0.35741708690810886 -0.8628529264347037
vn -0.8628591827687656 0.35739939141565974 -0.35740691896958854
vn -0.8628529264347039 0.3574170869081089 0.357404327518833
vn -0.35740691896958854 0.35739939141565974 0.8628591827687656
vn 0.35740432751883294 0.35741708690810886 0.8628529264347037
vn 0.8628591827687656 0.35739939141565974 0.35740691896958854
vn 0.8628529264347039 0.3574170869081089 -0.357404327518833
vn 0.35740933845809403 -0.3573997616138237 -0.8628580272451138
vn -0.35740685542090805 -0.3574167166964445 -0.8628520326939444
vn -0.8628580272451138 -0.3573997616138237 -0.35740933845809403
vn -0.8628520326939444 -0.3574167166964445 0.35740685542090805
vn -0.35740933845809403 -0.3573997616138237 0.8628580272451138
vn 0.35740685542090805 -0.3574167166964445 0.8628520326939444
vn 0.8628580272451138 -0.3573997616138237 0.35740933845809403
vn 0.8628520326939444 -0.3574167166964445 -0.35740685542090805
vn 0.156560690103764 -0.9124833548167975 -0.37797205914791615
vn -0.1565618273267465 -0.9124820224365991 -0.3779748046551831
vn -0.37797205914791615 -0.9124833548167975 -0.156560690103764
vn -0.3779748046551831 -0.9124820224365991 0.1565618273267465
vn -0.156560690103764 -0.9124833548167975 0.37797205914791615
vn 0.1565618273267465 -0.9124820224365991 0.3779748046551831
vn 0.37797205914791615 -0.9124833548167975 0.156560690103764
vn 0.3779748046551831 -0.9124820224365991 -0.1565618273267465
vn -0.1565610921747342 -0.9124834333272345 0.37797170306836064
vn 0.1565623634239076 -0.912481943925264 0.37797477213365915
vn 0.37797170306836064 -0.9124834333272345 0.1565610921747342
vn 0.3779747721336592 -0.9124819439252642 -0.15656236342390764
vn 0.1565610921747342 -0.9124834333272345 -0.37797170306836064
vn -0.1565623634239076 -0.912481943925264 -0.37797477213365915
vn -0.37797170306836064 -0.9124834333272345 -0.1565610921747342
vn -0.3779747721336592 -0.9124819439252642 0.15656236342390764
vn -0.3574092935844842 -0.35739975474787683 0.8628580486763727
vn 0.3574068085365654 -0.3574167235626925 0.8628520492699874
vn 0.8628580486763728 -0.3573997547478769 0.35740929358448426
vn 0.8628520492699874 -0.3574167235626925 -0.3574068085365654
vn 0.3574092935844842 -0.35739975474787683 -0.8628580486763727
vn -0.3574068085365654 -0.3574167235626925 -0.8628520492699874
vn -0.8628580486763728 -0.3573997547478769 -0.35740929358448426
vn -0.8628520492699874 -0.3574167235626925 0.3574068085365654
usemtl m_f17e2fc1-2e5a-fb80-18f5-e89d28ffae67
f 177/697/175 178/698/175 179/699/175 180/700/175
f 181/701/176 177/702/176 180/703/176 182/704/176
f 183/705/177 181/706/177 182/707/177 184/708/177
f 185/709/178 183/710/178 184/711/178 186/712/178
f 187/713/179 185/714/179 186/715/179 188/716/179
f 189/717/180 187/718/180 188/719/180 190/720/180
f 191/721/181 189/722/181 190/723/181 192/724/181
f 178/725/182 191/726/182 192/727/182 179/728/182
f 180/729/183 179/730/183 193/731/183 194/732/183
f 182/733/184 180/734/184 194/735/184 195/736/184
f 184/737/185 182/738/185 195/739/185 196/740/185
f 186/741/186 184/742/186 196/743/186 197/744/186
f 188/745/187 186/746/187 197/747/187 198/748/187
f 190/749/188 188/750/188 198/751/188 199/752/188
f 192/753/189 190/754/189 199/755/189 200/756/189
f 179/757/190 192/758/190 200/759/190 193/760/190
f 194/761/191 193/762/191 201/763/191 202/764/191
f 195/765/192 194/766/192 202/767/192 203/768/192
f 196/769/193 195/770/193 203/771/193 204/772/193
f 197/773/194 196/774/194 204/775/194 205/776/194
f 198/777/195 197/778/195 205/779/195 206/780/195
f 199/781/196 198/782/196 206/783/196 207/784/196
f 200/785/197 199/786/197 207/787/197 208/788/197
f 193/789/198 200/790/198 208/791/198 201/792/198
f 202/793/199 201/794/199 209/795/199 210/796/199
f 203/797/200 202/798/200 210/799/200 211/800/200
f 204/801/201 203/802/201 211/803/201 212/804/201
f 205/805/202 204/806/202 212/807/202 213/808/202
f 206/809/203 205/810/203 213/811/203 214/812/203
f 207/813/204 206/814/204 214/815/204 215/816/204
f 208/817/205 207/818/205 215/819/205 216/820/205
f 201/821/206 208/822/206 216/823/206 209/824/206
f 210/825/207 209/826/207 217/827/207 218/828/207
f 211/829/208 210/830/208 218/831/208 219/832/208
f 212/833/209 211/834/209 219/835/209 220/836/209
f 213/837/210 212/838/210 220/839/210 221/840/210
f 214/841/211 213/842/211 221/843/211 222/844/211
f 215/845/212 214/846/212 222/847/212 223/848/212
f 216/849/213 215/850/213 223/851/213 224/852/213
f 209/853/214 216/854/214 224/855/214 217/856/214
f 218/857/215 217/858/215 225/859/215 226/860/215
f 219/861/216 218/862/216 226/863/216 227/864/216
f 220/865/217 219/866/217 227/867/217 228/868/217
f 221/869/218 220/870/218 228/871/218 229/872/218
f 222/873/219 221/874/219 229/875/219 230/876/219
f 223/877/220 222/878/220 230/879/220 231/880/220
f 224/881/221 223/882/221 231/883/221 232/884/221
f 217/885/222 224/886/222 232/887/222 225/888/222
f 226/889/223 225/890/223 233/891/223 234/892/223
f 227/893/224 226/894/224 234/895/224 235/896/224
f 228/897/225 227/898/225 235/899/225 236/900/225
f 229/901/226 228/902/226 236/903/226 237/904/226
f 230/905/227 229/906/227 237/907/227 238/908/227
f 231/909/228 230/910/228 238/911/228 239/912/228
f 232/913/229 231/914/229 239/915/229 240/916/229
f 225/917/230 232/918/230 240/919/230 233/920/230
f 234/921/231 233/922/231 178/923/231 177/924/231
f 235/925/232 234/926/232 177/927/232 181/928/232
f 236/929/233 235/930/233 181/931/233 183/932/233
f 237/933/234 236/934/234 183/935/234 185/936/234
f 238/937/235 237/938/235 185/939/235 187/940/235
f 239/941/236 238/942/236 187/943/236 189/944/236
f 240/945/237 239/946/237 189/947/237 191/948/237
f 233/949/238 240/950/238 191/951/238 178/952/238
o default
o pTorus4
v 0 0.5 -0.25
v 0.176777 0.5 -0.176777
v 0.187132 0.535355 -0.187132
v 0 0.535355 -0.264645
v -0.176777 0.5 -0.176777
v -0.187132 0.535355 -0.187132
v -0.25 0.5 0
v -0.264645 0.535355 0
v -0.176777 0.5 0.176777
v -0.187132 0.535355 0.187132
v 0 0.5 0.25
v 0 0.535355 0.264645
v 0.176777 0.5 0.176777
v 0.187132 0.535355 0.187132
v 0.25 0.5 0
v 0.264645 0.535355 0
v 0.212132 0.55 -0.212132
v 0 0.55 -0.3
v -0.212132 0.55 -0.212132
v -0.3 0.55 0
v -0.212132 0.55 0.212132
v 0 0.55 0.3
v 0.212132 0.55 0.212132
v 0.3 0.55 0
v 0.237132 0.535355 -0.237132
v 0 0.535355 -0.335355
v -0.237132 0.535355 -0.237132
v -0.335355 0.535355 0
v -0.237132 0.535355 0.237132
v 0 0.535355 0.335355
v 0.237132 0.535355 0.237132
v 0.335355 0.535355 0
v 0.247487 0.5 -0.247487
v 0 0.5 -0.35
v -0.247487 0.5 -0.247487
v -0.35 0.5 0
v -0.247487 0.5 0.247487
v 0 0.5 0.35
v 0.247487 0.5 0.247487
v 0.35 0.5 0
v 0.237132 0.464645 -0.237132
v 0 0.464645 -0.335355
v -0.237132 0.464645 -0.237132
v -0.335355 0.464645 0
v -0.237132 0.464645 0.237132
v 0 0.464645 0.335355
v 0.237132 0.464645 0.237132
v 0.335355 0.464645 0
v 0.212132 0.45 -0.212132
v 0 0.45 -0.3
v -0.212132 0.45 -0.212132
v -0.3 0.45 0
v -0.212132 0.45 0.212132
v 0 0.45 0.3
v 0.212132 0.45 0.212132
v 0.3 0.45 0
v 0.187132 0.464645 -0.187132
v 0 0.464645 -0.264645
v -0.187132 0.464645 -0.187132
v -0.264645 0.464645 0
v -0.187132 0.464645 0.187132
v 0 0.464645 0.264645
v 0.187132 0.464645 0.187132
v 0.264645 0.464645 0
vt 0 0.90625
vt 0.1875 0.90625
vt 0.1875 0.9375
vt 0 0.9375
vt 0.0625 0.90625
vt 0.25 0.90625
vt 0.25 0.9375
vt 0.0625 0.9375
vt 0.1875 0.90625
vt 0.375 0.90625
vt 0.375 0.9375
vt 0.1875 0.9375
vt 0.3125 0.90625
vt 0.5 0.90625
vt 0.5 0.9375
vt 0.3125 0.9375
vt 0.4375 0.90625
vt 0.625 0.90625
vt 0.625 0.9375
vt 0.4375 0.9375
vt 0.5625 0.90625
vt 0.75 0.90625
vt 0.75 0.9375
vt 0.5625 0.9375
vt 0.6875 0.90625
vt 0.875 0.90625
vt 0.875 0.9375
vt 0.6875 0.9375
vt 0.8125 0.90625
vt 1 0.90625
vt 1 0.9375
vt 0.8125 0.9375
vt 0 0.84375
vt 0.21875 0.84375
vt 0.21875 0.875
vt 0 0.875
vt 0.0625 0.84375
vt 0.28125 0.84375
vt 0.28125 0.875
vt 0.0625 0.875
vt 0.1875 0.84375
vt 0.40625 0.84375
vt 0.40625 0.875
vt 0.1875 0.875
vt 0.3125 0.84375
vt 0.53125 0.84375
vt 0.53125 0.875
vt 0.3125 0.875
vt 0.4375 0.84375
vt 0.65625 0.84375
vt 0.65625 0.875
vt 0.4375 0.875
vt 0.5625 0.84375
vt 0.78125 0.84375
vt 0.78125 0.875
vt 0.5625 0.875
vt 0.6875 0.84375
vt 0.90625 0.84375
vt 0.90625 0.875
vt 0.6875 0.875
vt 0.75 0.84375
vt 0.96875 0.84375
vt 0.96875 0.875
vt 0.75 0.875
vt 0.25 0.75
vt 0 0.75
vt 0 0.71875
vt 0.25 0.71875
vt 0.3125 0.75
vt 0.0625 0.75
vt 0.0625 0.71875
vt 0.3125 0.71875
vt 0.4375 0.75
vt 0.1875 0.75
vt 0.1875 0.71875
vt 0.4375 0.71875
vt 0.5625 0.75
vt 0.3125 0.75
vt 0.3125 0.71875
vt 0.5625 0.71875
vt 0.6875 0.75
vt 0.4375 0.75
vt 0.4375 0.71875
vt 0.6875 0.71875
vt 0.8125 0.75
vt 0.5625 0.75
vt 0.5625 0.71875
vt 0.8125 0.71875
vt 0.9375 0.75
vt 0.6875 0.75
vt 0.6875 0.71875
vt 0.9375 0.71875
vt 1 0.75
vt 0.75 0.75
vt 0.75 0.71875
vt 1 0.71875
vt 0.25 0.5625
vt 0 0.5625
vt 0 0.53125
vt 0.28125 0.53125
vt 0.3125 0.5625
vt 0.0625 0.5625
vt 0.0625 0.53125
vt 0.34375 0.53125
vt 0.4375 0.5625
vt 0.1875 0.5625
vt 0.1875 0.53125
vt 0.46875 0.53125
vt 0.5625 0.5625
vt 0.3125 0.5625
vt 0.3125 0.53125
vt 0.59375 0.53125
vt 0.6875 0.5625
vt 0.4375 0.5625
vt 0.4375 0.53125
vt 0.71875 0.53125
vt 0.8125 0.5625
vt 0.5625 0.5625
vt 0.5625 0.53125
vt 0.84375 0.53125
vt 0.9375 0.5625
vt 0.6875 0.5625
vt 0.6875 0.53125
vt 0.96875 0.53125
vt 1 0.5625
vt 0.75 0.5625
vt 0.75 0.53125
vt 1 0.53125
vt 0.28125 0.4375
vt 0 0.4375
vt 0 0.40625
vt 0.25 0.40625
vt 0.34375 0.4375
vt 0.0625 0.4375
vt 0.0625 0.40625
vt 0.3125 0.40625
vt 0.46875 0.4375
vt 0.1875 0.4375
vt 0.1875 0.40625
vt 0.4375 0.40625
vt 0.59375 0.4375
vt 0.3125 0.4375
vt 0.3125 0.40625
vt 0.5625 0.40625
vt 0.71875 0.4375
vt 0.4375 0.4375
vt 0.4375 0.40625
vt 0.6875 0.40625
vt 0.84375 0.4375
vt 0.5625 0.4375
vt 0.5625 0.40625
vt 0.8125 0.40625
vt 0.96875 0.4375
vt 0.6875 0.4375
vt 0.6875 0.40625
vt 0.9375 0.40625
vt 1 0.4375
vt 0.75 0.4375
vt 0.75 0.40625
vt 1 0.40625
vt 0.25 0.375
vt 0 0.375
vt 0 0.34375
vt 0.25 0.34375
vt 0.3125 0.375
vt 0.0625 0.375
vt 0.0625 0.34375
vt 0.3125 0.34375
vt 0.4375 0.375
vt 0.1875 0.375
vt 0.1875 0.34375
vt 0.4375 0.34375
vt 0.5625 0.375
vt 0.3125 0.375
vt 0.3125 0.34375
vt 0.5625 0.34375
vt 0.6875 0.375
vt 0.4375 0.375
vt 0.4375 0.34375
vt 0.6875 0.34375
vt 0.8125 0.375
vt 0.5625 0.375
vt 0.5625 0.34375
vt 0.8125 0.34375
vt 0.9375 0.375
vt 0.6875 0.375
vt 0.6875 0.34375
vt 0.9375 0.34375
vt 1 0.375
vt 0.75 0.375
vt 0.75 0.34375
vt 1 0.34375
vt 0 0.15625
vt 0.21875 0.15625
vt 0.21875 0.1875
vt 0 0.1875
vt 0.0625 0.15625
vt 0.28125 0.15625
vt 0.28125 0.1875
vt 0.0625 0.1875
vt 0.1875 0.15625
vt 0.40625 0.15625
vt 0.40625 0.1875
vt 0.1875 0.1875
vt 0.3125 0.15625
vt 0.53125 0.15625
vt 0.53125 0.1875
vt 0.3125 0.1875
vt 0.4375 0.15625
vt 0.65625 0.15625
vt 0.65625 0.1875
vt 0.4375 0.1875
vt 0.5625 0.15625
vt 0.78125 0.15625
vt 0.78125 0.1875
vt 0.5625 0.1875
vt 0.6875 0.15625
vt 0.90625 0.15625
vt 0.90625 0.1875
vt 0.6875 0.1875
vt 0.75 0.15625
vt 0.96875 0.15625
vt 0.96875 0.1875
vt 0.75 0.1875
vt 0 0.03125
vt 0.1875 0.03125
vt 0.1875 0.0625
vt 0 0.0625
vt 0.0625 0.03125
vt 0.25 0.03125
vt 0.25 0.0625
vt 0.0625 0.0625
vt 0.1875 0.03125
vt 0.375 0.03125
vt 0.375 0.0625
vt 0.1875 0.0625
vt 0.3125 0.03125
vt 0.5 0.03125
vt 0.5 0.0625
vt 0.3125 0.0625
vt 0.4375 0.03125
vt 0.625 0.03125
vt 0.625 0.0625
vt 0.4375 0.0625
vt 0.5625 0.03125
vt 0.75 0.03125
vt 0.75 0.0625
vt 0.5625 0.0625
vt 0.6875 0.03125
vt 0.875 0.03125
vt 0.875 0.0625
vt 0.6875 0.0625
vt 0.8125 0.03125
vt 1 0.03125
vt 1 0.0625
vt 0.8125 0.0625
vn -0.357406045406128 0.35739925775397624 0.8628595999721274
vn 0.3574034148127389 0.3574172205733267 0.862853249120516
vn 0.8628595999721274 0.35739925775397624 0.357406045406128
vn 0.862853249120516 0.3574172205733267 -0.3574034148127389
vn 0.357406045406128 0.35739925775397624 -0.8628595999721274
vn -0.3574034148127389 0.3574172205733267 -0.862853249120516
vn -0.8628595999721274 0.35739925775397624 -0.357406045406128
vn -0.862853249120516 0.3574172205733267 0.3574034148127389
vn -0.15656160167432392 0.912483532814361 0.3779712518483296
vn 0.15656304276124577 0.9124818444360345 0.37797473092252176
vn 0.3779712518483296 0.912483532814361 0.15656160167432392
vn 0.37797473092252176 0.9124818444360345 -0.15656304276124577
vn 0.15656160167432392 0.912483532814361 -0.3779712518483296
vn -0.15656304276124577 0.9124818444360345 -0.37797473092252176
vn -0.3779712518483296 0.912483532814361 -0.15656160167432392
vn -0.37797473092252176 0.9124818444360345 0.15656304276124577
vn 0.15656109217473402 0.9124834333272348 -0.3779717030683602
vn -0.15656236342390742 0.9124819439252645 -0.37797477213365877
vn -0.37797170306836014 0.9124834333272347 -0.15656109217473402
vn -0.37797477213365877 0.9124819439252645 0.15656236342390742
vn -0.15656109217473402 0.9124834333272348 0.3779717030683602
vn 0.15656236342390742 0.9124819439252645 0.37797477213365877
vn 0.37797170306836014 0.9124834333272347 0.15656109217473402
vn 0.37797477213365877 0.9124819439252645 -0.15656236342390742
vn 0.35740691896958854 0.35739939141565974 -0.8628591827687656
vn -0.35740432751883294 0.35741708690810886 -0.8628529264347037
vn -0.8628591827687656 0.35739939141565974 -0.35740691896958854
vn -0.8628529264347039 0.3574170869081089 0.357404327518833
vn -0.35740691896958854 0.35739939141565974 0.8628591827687656
vn 0.35740432751883294 0.35741708690810886 0.8628529264347037
vn 0.8628591827687656 0.35739939141565974 0.35740691896958854
vn 0.8628529264347039 0.3574170869081089 -0.357404327518833
vn 0.35740933845809414 -0.35739976161382325 -0.862858027245114
vn -0.3574068554209082 -0.35741671669644404 -0.8628520326939445
vn -0.862858027245114 -0.35739976161382325 -0.35740933845809414
vn -0.8628520326939445 -0.35741671669644404 0.3574068554209082
vn -0.35740933845809414 -0.35739976161382325 0.862858027245114
vn 0.3574068554209082 -0.35741671669644404 0.8628520326939445
vn 0.862858027245114 -0.35739976161382325 0.35740933845809414
vn 0.8628520326939445 -0.35741671669644404 -0.3574068554209082
vn 0.1565606901037635 -0.9124833548167981 -0.37797205914791493
vn -0.156561827326746 -0.9124820224365997 -0.3779748046551819
vn -0.37797205914791493 -0.9124833548167981 -0.1565606901037635
vn -0.3779748046551819 -0.9124820224365997 0.156561827326746
vn -0.1565606901037635 -0.9124833548167981 0.37797205914791493
vn 0.156561827326746 -0.9124820224365997 0.3779748046551819
vn 0.37797205914791493 -0.9124833548167981 0.1565606901037635
vn 0.3779748046551819 -0.9124820224365997 -0.156561827326746
vn -0.1565610921747337 -0.912483433327235 0.3779717030683595
vn 0.1565623634239071 -0.9124819439252648 0.37797477213365804
vn 0.3779717030683595 -0.912483433327235 0.1565610921747337
vn 0.37797477213365804 -0.9124819439252648 -0.1565623634239071
vn 0.1565610921747337 -0.912483433327235 -0.3779717030683595
vn -0.1565623634239071 -0.9124819439252648 -0.37797477213365804
vn -0.3779717030683595 -0.912483433327235 -0.1565610921747337
vn -0.37797477213365804 -0.9124819439252648 0.1565623634239071
vn -0.35740929358448426 -0.35739975474787633 0.8628580486763728
vn 0.3574068085365655 -0.357416723562692 0.8628520492699877
vn 0.8628580486763728 -0.35739975474787633 0.35740929358448426
vn 0.8628520492699877 -0.357416723562692 -0.3574068085365655
vn 0.35740929358448426 -0.35739975474787633 -0.8628580486763728
vn -0.3574068085365655 -0.357416723562692 -0.8628520492699877
vn -0.8628580486763728 -0.35739975474787633 -0.35740929358448426
vn -0.8628520492699877 -0.357416723562692 0.3574068085365655
usemtl m_f17e2fc1-2e5a-fb80-18f5-e89d28ffae67
f 241/953/239 242/954/239 243/955/239 244/956/239
f 245/957/240 241/958/240 244/959/240 246/960/240
f 247/961/241 245/962/241 246/963/241 248/964/241
f 249/965/242 247/966/242 248/967/242 250/968/242
f 251/969/243 249/970/243 250/971/243 252/972/243
f 253/973/244 251/974/244 252/975/244 254/976/244
f 255/977/245 253/978/245 254/979/245 256/980/245
f 242/981/246 255/982/246 256/983/246 243/984/246
f 244/985/247 243/986/247 257/987/247 258/988/247
f 246/989/248 244/990/248 258/991/248 259/992/248
f 248/993/249 246/994/249 259/995/249 260/996/249
f 250/997/250 248/998/250 260/999/250 261/1000/250
f 252/1001/251 250/1002/251 261/1003/251 262/1004/251
f 254/1005/252 252/1006/252 262/1007/252 263/1008/252
f 256/1009/253 254/1010/253 263/1011/253 264/1012/253
f 243/1013/254 256/1014/254 264/1015/254 257/1016/254
f 258/1017/255 257/1018/255 265/1019/255 266/1020/255
f 259/1021/256 258/1022/256 266/1023/256 267/1024/256
f 260/1025/257 259/1026/257 267/1027/257 268/1028/257
f 261/1029/258 260/1030/258 268/1031/258 269/1032/258
f 262/1033/259 261/1034/259 269/1035/259 270/1036/259
f 263/1037/260 262/1038/260 270/1039/260 271/1040/260
f 264/1041/261 263/1042/261 271/1043/261 272/1044/261
f 257/1045/262 264/1046/262 272/1047/262 265/1048/262
f 266/1049/263 265/1050/263 273/1051/263 274/1052/263
f 267/1053/264 266/1054/264 274/1055/264 275/1056/264
f 268/1057/265 267/1058/265 275/1059/265 276/1060/265
f 269/1061/266 268/1062/266 276/1063/266 277/1064/266
f 270/1065/267 269/1066/267 277/1067/267 278/1068/267
f 271/1069/268 270/1070/268 278/1071/268 279/1072/268
f 272/1073/269 271/1074/269 279/1075/269 280/1076/269
f 265/1077/270 272/1078/270 280/1079/270 273/1080/270
f 274/1081/271 273/1082/271 281/1083/271 282/1084/271
f 275/1085/272 274/1086/272 282/1087/272 283/1088/272
f 276/1089/273 275/1090/273 283/1091/273 284/1092/273
f 277/1093/274 276/1094/274 284/1095/274 285/1096/274
f 278/1097/275 277/1098/275 285/1099/275 286/1100/275
f 279/1101/276 278/1102/276 286/1103/276 287/1104/276
f 280/1105/277 279/1106/277 287/1107/277 288/1108/277
f 273/1109/278 280/1110/278 288/1111/278 281/1112/278
f 282/1113/279 281/1114/279 289/1115/279 290/1116/279
f 283/1117/280 282/1118/280 290/1119/280 291/1120/280
f 284/1121/281 283/1122/281 291/1123/281 292/1124/281
f 285/1125/282 284/1126/282 292/1127/282 293/1128/282
f 286/1129/283 285/1130/283 293/1131/283 294/1132/283
f 287/1133/284 286/1134/284 294/1135/284 295/1136/284
f 288/1137/285 287/1138/285 295/1139/285 296/1140/285
f 281/1141/286 288/1142/286 296/1143/286 289/1144/286
f 290/1145/287 289/1146/287 297/1147/287 298/1148/287
f 291/1149/288 290/1150/288 298/1151/288 299/1152/288
f 292/1153/289 291/1154/289 299/1155/289 300/1156/289
f 293/1157/290 292/1158/290 300/1159/290 301/1160/290
f 294/1161/291 293/1162/291 301/1163/291 302/1164/291
f 295/1165/292 294/1166/292 302/1167/292 303/1168/292
f 296/1169/293 295/1170/293 303/1171/293 304/1172/293
f 289/1173/294 296/1174/294 304/1175/294 297/1176/294
f 298/1177/295 297/1178/295 242/1179/295 241/1180/295
f 299/1181/296 298/1182/296 241/1183/296 245/1184/296
f 300/1185/297 299/1186/297 245/1187/297 247/1188/297
f 301/1189/298 300/1190/298 247/1191/298 249/1192/298
f 302/1193/299 301/1194/299 249/1195/299 251/1196/299
f 303/1197/300 302/1198/300 251/1199/300 253/1200/300
f 304/1201/301 303/1202/301 253/1203/301 255/1204/301
f 297/1205/302 304/1206/302 255/1207/302 242/1208/302