# Made in Blockbench 5.1.6
mtllib MithrilineFurnace.mtl

o side1
v -0.375 0.1875 -0.375
v 0 0.3125 -0.375
v -0.375 0.4375 -0.375
v 0 0.4375 -0.375
v -0.375 0.1875 -0.5
v 0 0.3125 -0.5
v -0.375 0.4375 -0.5
v 0 0.4375 -0.5
v 0.375 0.1875 -0.375
v 0.375 0.4375 -0.375
v 0.375 0.1875 -0.5
v 0.375 0.4375 -0.5
v -0.375 0.8125 -0.375
v 0 0.6875 -0.375
v -0.375 0.5625 -0.375
v 0 0.5625 -0.375
v -0.375 0.8125 -0.5
v 0 0.6875 -0.5
v -0.375 0.5625 -0.5
v 0 0.5625 -0.5
v 0.375 0.8125 -0.375
v 0.375 0.5625 -0.375
v 0.375 0.8125 -0.5
v 0.375 0.5625 -0.5
v -0.375 0.5625 -0.375
v 0.375 0.5625 -0.375
v -0.375 0.4375 -0.375
v 0.375 0.4375 -0.375
v -0.375 0.5625 -0.5
v 0.375 0.5625 -0.5
v -0.375 0.4375 -0.5
v 0.375 0.4375 -0.5
vt 0 0.75
vt 0 1
vt 0.25 1
vt 0.25 0.75
vt 0.4375 0.25
vt 0.265625 0.15625
vt 0.265625 0.375
vt 0.4375 0.375
vt 0.390625 0.9374999999999988
vt 0.390625 0.5422124999999989
vt 0.453125 0.5422124999999989
vt 0.453125 0.9374999999999988
vt 0 1
vt 0.25 1
vt 0.25 0.5
vt 0 0.5
vt 0 1
vt 0.25 1
vt 0.25 0.75
vt 0 0.75
vt 0 0.75
vt 0 1
vt 0.25 1
vt 0.25 0.75
vt 0 0.75
vt 0 1
vt 0.25 1
vt 0.25 0.75
vt 0.265625 0.125
vt 0.078125 0.25
vt 0.078125 0.375
vt 0.265625 0.375
vt 0.453125 0.5422124999999989
vt 0.453125 0.9374999999999988
vt 0.390625 0.9374999999999988
vt 0.390625 0.5422124999999989
vt 0 1
vt 0.25 1
vt 0.25 0.5
vt 0 0.5
vt 0 1
vt 0.25 1
vt 0.25 0.75
vt 0 0.75
vt 0 0.75
vt 0 1
vt 0.25 1
vt 0.25 0.75
vt 0.25 1
vt 0 1
vt 0 0.75
vt 0.25 0.75
vt 0.265625 0.5
vt 0.265625 0.75
vt 0.4375 0.625
vt 0.4375 0.5
vt 0.453125 0.9374999999999984
vt 0.390625 0.9374999999999984
vt 0.390625 0.5422124999999984
vt 0.453125 0.5422124999999984
vt 0.25 0.5
vt 0.25 1
vt 0 1
vt 0 0.5
vt 0.25 0.75
vt 0.25 1
vt 0 1
vt 0 0.75
vt 0.25 1
vt 0 1
vt 0 0.75
vt 0.25 0.75
vt 0.25 1
vt 0 1
vt 0 0.75
vt 0.25 0.75
vt 0.078125 0.5
vt 0.078125 0.625
vt 0.265625 0.75
vt 0.265625 0.5
vt 0.390625 0.5422124999999984
vt 0.453125 0.5422124999999984
vt 0.453125 0.9374999999999984
vt 0.390625 0.9374999999999984
vt 0.25 0.5
vt 0.25 1
vt 0 1
vt 0 0.5
vt 0.25 0.75
vt 0.25 1
vt 0 1
vt 0 0.75
vt 0.25 1
vt 0 1
vt 0 0.75
vt 0.25 0.75
vt 0.25 1
vt 0 1
vt 0 0.75
vt 0.25 0.75
vt 0.921875 0.46875
vt 0.921875 0.59375
vt 0.578125 0.59375
vt 0.578125 0.46875
vt 0 0.5
vt 0.25 0.5
vt 0.25 1
vt 0 1
vt 0.25 0.5
vt 0.25 1
vt 0 1
vt 0 0.5
vt 0.25 0.75
vt 0.25 1
vt 0 1
vt 0 0.75
vt 0.25 1
vt 0 1
vt 0 0.75
vt 0.25 0.75
vn 0 0 1
vn 0 0 -1
vn 0.316227766016838 -0.948683298050514 0
vn 0 1 0
vn -1 0 0
vn 1 0 0
vn 0 0 1
vn 0 0 -1
vn -0.316227766016838 -0.948683298050514 0
vn 0 1 0
vn -1 0 0
vn 1 0 0
vn 0 0 1
vn 0 0 -1
vn 0.316227766016838 0.948683298050514 0
vn 0 -1 0
vn -1 0 0
vn 1 0 0
vn 0 0 1
vn 0 0 -1
vn -0.316227766016838 0.948683298050514 0
vn 0 -1 0
vn -1 0 0
vn 1 0 0
vn 0 0 1
vn 0 0 -1
vn 0 1 0
vn 0 -1 0
vn -1 0 0
vn 1 0 0
usemtl m_ac975a9c-4842-d1c3-3759-12644fb5fa50
f 3/1/1 1/2/1 2/3/1 4/4/1
f 6/5/2 5/6/2 7/7/2 8/8/2
f 2/9/3 1/10/3 5/11/3 6/12/3
f 7/13/4 3/14/4 4/15/4 8/16/4
f 5/17/5 1/18/5 3/19/5 7/20/5
f 4/21/6 2/22/6 6/23/6 8/24/6
f 4/25/7 2/26/7 9/27/7 10/28/7
f 11/29/8 6/30/8 8/31/8 12/32/8
f 9/33/9 2/34/9 6/35/9 11/36/9
f 8/37/10 4/38/10 10/39/10 12/40/10
f 6/41/11 2/42/11 4/43/11 8/44/11
f 10/45/12 9/46/12 11/47/12 12/48/12
f 14/49/13 13/50/13 15/51/13 16/52/13
f 19/53/14 17/54/14 18/55/14 20/56/14
f 17/57/15 13/58/15 14/59/15 18/60/15
f 16/61/16 15/62/16 19/63/16 20/64/16
f 15/65/17 13/66/17 17/67/17 19/68/17
f 18/69/18 14/70/18 16/71/18 20/72/18
f 21/73/19 14/74/19 16/75/19 22/76/19
f 20/77/20 18/78/20 23/79/20 24/80/20
f 18/81/21 14/82/21 21/83/21 23/84/21
f 22/85/22 16/86/22 20/87/22 24/88/22
f 16/89/23 14/90/23 18/91/23 20/92/23
f 23/93/24 21/94/24 22/95/24 24/96/24
f 26/97/25 25/98/25 27/99/25 28/100/25
f 31/101/26 29/102/26 30/103/26 32/104/26
f 29/105/27 25/106/27 26/107/27 30/108/27
f 28/109/28 27/110/28 31/111/28 32/112/28
f 27/113/29 25/114/29 29/115/29 31/116/29
f 30/117/30 26/118/30 28/119/30 32/120/30
o frame
v 0.5 1 0.5
v 0.5 1 0.375
v 0.5 0.125 0.5
v 0.5 0.125 0.375
v 0.375 1 0.5
v 0.375 1 0.375
v 0.375 0.125 0.5
v 0.375 0.125 0.375
v -0.375 1 0.5
v -0.375 1 0.375
v -0.375 0.125 0.5
v -0.375 0.125 0.375
v -0.5 1 0.5
v -0.5 1 0.375
v -0.5 0.125 0.5
v -0.5 0.125 0.375
v -0.375 1 -0.375
v -0.375 1 -0.5
v -0.375 0.125 -0.375
v -0.375 0.125 -0.5
v -0.5 1 -0.375
v -0.5 1 -0.5
v -0.5 0.125 -0.375
v -0.5 0.125 -0.5
v 0.3750000000000001 1 0.3749999999999998
v 0.3749999999999999 1 -0.3750000000000002
v 0.3749999999999999 1 -0.3750000000000002
v -0.3750000000000001 1 -0.375
v -0.3749999999999999 1 0.375
v -0.3750000000000001 1 -0.375
v 0.3750000000000001 1 0.3749999999999998
v -0.3749999999999999 1 0.375
v 0.4999999999999999 1 -0.3750000000000002
v 0.5000000000000001 1 0.3749999999999998
v -0.3750000000000001 1 -0.5
v 0.3749999999999999 1 -0.5000000000000001
v -0.4999999999999999 1 0.375
v -0.5000000000000001 1 -0.375
v 0.3750000000000001 1 0.4999999999999998
v -0.3749999999999999 1 0.5
v 0.3749999999999999 0.875 -0.5000000000000001
v -0.3750000000000001 0.875 -0.5
v 0.3749999999999999 0.875 -0.3750000000000002
v 0.5000000000000001 0.875 0.3749999999999998
v 0.4999999999999999 0.875 -0.3750000000000002
v -0.3749999999999999 0.875 0.5
v 0.3750000000000001 0.875 0.4999999999999998
v 0.3750000000000001 0.875 0.3749999999999998
v -0.5000000000000001 0.875 -0.375
v -0.4999999999999999 0.875 0.375
v -0.3749999999999999 0.875 0.375
v -0.3750000000000001 0.875 -0.375
v 0.5 1 -0.375
v 0.5 1 -0.5
v 0.5 0.125 -0.375
v 0.5 0.125 -0.5
v 0.375 1 -0.375
v 0.375 1 -0.5
v 0.375 0.125 -0.375
v 0.375 0.125 -0.5
v 0.5 0.125 0.5
v 0.5 0.125 -0.5
v 0.5 0 0.5
v 0.5 0 -0.5
v -0.5 0.125 0.5
v -0.5 0.125 -0.5
v -0.5 0 0.5
v -0.5 0 -0.5
v -0.5 1 0.3750000000000001
v -0.5 0.875 0.3750000000000001
v -0.5000000000000001 0.875 -0.3749999999999999
v -0.5000000000000001 1 -0.3749999999999999
v -0.5 1 -0.375
v -0.5 1 -0.5
v -0.5 0.125 -0.5
v -0.5 0.125 -0.375
v -0.5 1 0.5
v -0.5 1 0.375
v -0.5 0.125 0.375
v -0.5 0.125 0.5
v -0.5 0.125 0.5
v -0.5 0.125 -0.5
v -0.5 0 -0.5
v -0.5 0 0.5
v 0.3750000000000001 1 0.5
v 0.3750000000000001 0.875 0.5
v -0.3749999999999999 0.875 0.5000000000000001
v -0.3749999999999999 1 0.5000000000000001
v -0.375 1 0.5
v -0.5 1 0.5
v -0.5 0.125 0.5
v -0.375 0.125 0.5
v 0.5 1 0.5
v 0.375 1 0.5
v 0.375 0.125 0.5
v 0.5 0.125 0.5
v 0.5 0.125 0.5
v -0.5 0.125 0.5
v -0.5 0 0.5
v 0.5 0 0.5
v 0.5 1 -0.3750000000000001
v 0.5 0.875 -0.3750000000000001
v 0.5000000000000001 0.875 0.3749999999999999
v 0.5000000000000001 1 0.3749999999999999
v 0.5 1 0.375
v 0.5 1 0.5
v 0.5 0.125 0.5
v 0.5 0.125 0.375
v 0.5 1 -0.5
v 0.5 1 -0.375
v 0.5 0.125 -0.375
v 0.5 0.125 -0.5
v 0.5 0.125 -0.5
v 0.5 0.125 0.5
v 0.5 0 0.5
v 0.5 0 -0.5
vt 0.25 0.75
vt 0.25 1
vt 0 1
vt 0 0.75
vt 0.515625 0.875
vt 0.578125 0.875
vt 0.578125 1
vt 0.515625 1
vt 0.25 0.5
vt 0.25 1
vt 0 1
vt 0 0.5
vt 0.25 1
vt 0 1
vt 0 0.75
vt 0.25 0.75
vt 0.25 1
vt 0 1
vt 0 0.75
vt 0.25 0.75
vt 0.515625 0.875
vt 0.578125 0.875
vt 0.578125 1
vt 0.515625 1
vt 0.25 0.5
vt 0.25 1
vt 0 1
vt 0 0.5
vt 0.25 1
vt 0 1
vt 0 0.75
vt 0.25 0.75
vt 0.25 1
vt 0 1
vt 0 0.75
vt 0.25 0.75
vt 0.515625 0.875
vt 0.578125 0.875
vt 0.578125 1
vt 0.515625 1
vt 0.25 0.5
vt 0.25 1
vt 0 1
vt 0 0.5
vt 0.25 0.75
vt 0.25 1
vt 0 1
vt 0 0.75
vt 0.578125 0.9375
vt 0.515625 0.9375
vt 0.515625 0.0625
vt 0.578125 0.0625
vt 0.5625 0.875
vt 0.5625 0.125
vt 0.9375 0.125
vt 0.9375 0.875
vt 0.546875 0.875
vt 0.921875 0.875
vt 0.921875 1
vt 0.546875 1
vt 0.5625 0.15625
vt 0.5625 0.90625
vt 0.5 0.90625
vt 0.5 0.15625
vt 0.546875 0.875
vt 0.921875 0.875
vt 0.921875 1
vt 0.546875 1
vt 0 1
vt 0 0.9375
vt 0.1875 0.9375
vt 0.1875 1
vt 0 1
vt 0 0.9375
vt 0.1875 0.9375
vt 0.1875 1
vt 0 1
vt 0 0.9375
vt 0.1875 0.9375
vt 0.1875 1
vt 0 1
vt 0 0.9375
vt 0.1875 0.9375
vt 0.1875 1
vt 0.5625 0.15625
vt 0.5625 0.90625
vt 0.5 0.90625
vt 0.5 0.15625
vt 0.5625 0.15625
vt 0.5625 0.90625
vt 0.5 0.90625
vt 0.5 0.15625
vt 0.5625 0.15625
vt 0.5625 0.90625
vt 0.5 0.90625
vt 0.5 0.15625
vt 0.5625 0.15625
vt 0.5625 0.90625
vt 0.5 0.90625
vt 0.5 0.15625
vt 0.546875 0.875
vt 0.921875 0.875
vt 0.921875 1
vt 0.546875 1
vt 0.1875 0.9375
vt 0 0.9375
vt 0 1
vt 0.1875 1
vt 0.25 0.75
vt 0.25 1
vt 0 1
vt 0 0.75
vt 0.25 0.5
vt 0.25 1
vt 0 1
vt 0 0.5
vt 0.25 0.75
vt 0.25 1
vt 0 1
vt 0 0.75
vt 0.515625 0.875
vt 0.578125 0.875
vt 0.578125 1
vt 0.515625 1
vt 0.515625 0.9375
vt 0.578125 0.9375
vt 0.578125 0.0625
vt 0.515625 0.0625
vt 0.5 0
vt 1 0
vt 1 1
vt 0.5 1
vt 0.5 0
vt 1 0
vt 1 1
vt 0.5 1
vt 1 0.125
vt 0.5 0.125
vt 0.5 0
vt 1 0
vt 0.578125 0.9375
vt 0.515625 0.9375
vt 0.515625 0.0625
vt 0.578125 0.0625
vt 0.1875 0.9375
vt 0 0.9375
vt 0 1
vt 0.1875 1
vt 0.515625 0.9375
vt 0.578125 0.9375
vt 0.578125 0.0625
vt 0.515625 0.0625
vt 1 0.125
vt 0.5 0.125
vt 0.5 0
vt 1 0
vt 0.578125 0.9375
vt 0.515625 0.9375
vt 0.515625 0.0625
vt 0.578125 0.0625
vt 0.1875 0.9375
vt 0 0.9375
vt 0 1
vt 0.1875 1
vt 0.515625 0.9375
vt 0.578125 0.9375
vt 0.578125 0.0625
vt 0.515625 0.0625
vt 1 0.125
vt 0.5 0.125
vt 0.5 0
vt 1 0
vt 0.578125 0.9375
vt 0.515625 0.9375
vt 0.515625 0.0625
vt 0.578125 0.0625
vt 0.1875 0.9375
vt 0 0.9375
vt 0 1
vt 0.1875 1
vt 0.515625 0.9375
vt 0.578125 0.9375
vt 0.578125 0.0625
vt 0.515625 0.0625
vt 1 0.125
vt 0.5 0.125
vt 0.5 0
vt 1 0
vn -1 0 0
vn 0 1 0
vn 0 -1 0
vn 0 0 -1
vn 1 0 0
vn 0 1 0
vn 0 -1 0
vn 0 0 -1
vn 1 0 0
vn 0 1 0
vn 0 -1 0
vn 0 0 1
vn 0 0 -1
vn 0 1 0
vn 0 1 0
vn 0 1 0
vn 0 1 0
vn -1 0 2.960594732333750616
vn 2.960594732333750616 0 1
vn 1 0 -2.960594732333750616
vn -2.960594732333750616 0 -1
vn 0 1 0
vn 0 1 0
vn 0 1 0
vn 0 1 0
vn 0 1 0
vn -1.480297366166875316 0 -1
vn -1 0 0
vn 0 -1 0
vn 0 0 1
vn 0 1 0
vn 0 0 -1
vn 0 1 0
vn 0 -1 0
vn 0 0 -1
vn -1 0 0
vn -1 0 1.480297366166875316
vn -1 0 0
vn -1 0 0
vn 0 0 1
vn 1.480297366166875316 0 1
vn 0 0 1
vn 0 0 1
vn 1 0 0
vn 1 0 -1.480297366166875316
vn 1 0 0
vn 1 0 0
usemtl m_ac975a9c-4842-d1c3-3759-12644fb5fa50
f 39/121/31 37/122/31 38/123/31 40/124/31
f 37/125/32 33/126/32 34/127/32 38/128/32
f 36/129/33 35/130/33 39/131/33 40/132/33
f 38/133/34 34/134/34 36/135/34 40/136/34
f 42/137/35 41/138/35 43/139/35 44/140/35
f 45/141/36 41/142/36 42/143/36 46/144/36
f 44/145/37 43/146/37 47/147/37 48/148/37
f 46/149/38 42/150/38 44/151/38 48/152/38
f 50/153/39 49/154/39 51/155/39 52/156/39
f 53/157/40 49/158/40 50/159/40 54/160/40
f 52/161/41 51/162/41 55/163/41 56/164/41
f 51/165/42 49/166/42 53/167/42 55/168/42
f 54/169/43 50/170/43 52/171/43 56/172/43
f 84/173/44 83/174/44 80/175/44 75/176/44
f 58/177/45 57/178/45 66/179/45 65/180/45
f 60/181/46 59/182/46 68/183/46 67/184/46
f 70/185/47 69/186/47 61/187/47 62/188/47
f 58/189/48 75/190/48 80/191/48 57/192/48
f 60/193/49 84/194/49 75/195/49 59/196/49
f 61/197/50 83/198/50 84/199/50 62/200/50
f 63/201/51 80/202/51 83/203/51 64/204/51
f 72/205/52 71/206/52 63/207/52 64/208/52
f 84/209/53 75/210/53 73/211/53 74/212/53
f 75/213/54 80/214/54 76/215/54 77/216/54
f 78/217/55 79/218/55 80/219/55 83/220/55
f 81/221/56 82/222/56 83/223/56 84/224/56
f 73/225/57 74/226/57 67/227/57 68/228/57
f 91/229/58 89/230/58 90/231/58 92/232/58
f 88/233/59 87/234/59 91/235/59 92/236/59
f 87/237/60 85/238/60 89/239/60 91/240/60
f 89/241/61 85/242/61 86/243/61 90/244/61
f 90/245/62 86/246/62 88/247/62 92/248/62
f 97/249/63 93/250/63 94/251/63 98/252/63
f 96/253/64 95/254/64 99/255/64 100/256/64
f 98/257/65 94/258/65 96/259/65 100/260/65
f 109/261/66 110/262/66 111/263/66 112/264/66
f 103/265/67 102/266/67 101/267/67 104/268/67
f 105/269/68 106/270/68 107/271/68 108/272/68
f 113/273/69 114/274/69 115/275/69 116/276/69
f 125/277/70 126/278/70 127/279/70 128/280/70
f 119/281/71 118/282/71 117/283/71 120/284/71
f 121/285/72 122/286/72 123/287/72 124/288/72
f 129/289/73 130/290/73 131/291/73 132/292/73
f 141/293/74 142/294/74 143/295/74 144/296/74
f 135/297/75 134/298/75 133/299/75 136/300/75
f 137/301/76 138/302/76 139/303/76 140/304/76
f 145/305/77 146/306/77 147/307/77 148/308/77
o side4
v 0.375 0.1875 0.375
v 0 0.3125 0.375
v 0.375 0.4375 0.375
v 0 0.4375 0.375
v 0.375 0.1875 0.5
v 0 0.3125 0.5
v 0.375 0.4375 0.5
v 0 0.4375 0.5
v -0.375 0.1875 0.375
v -0.375 0.4375 0.375
v -0.375 0.1875 0.5
v -0.375 0.4375 0.5
v 0.375 0.8125 0.375
v 0 0.6875 0.375
v 0.375 0.5625 0.375
v 0 0.5625 0.375
v 0.375 0.8125 0.5
v 0 0.6875 0.5
v 0.375 0.5625 0.5
v 0 0.5625 0.5
v -0.375 0.8125 0.375
v -0.375 0.5625 0.375
v -0.375 0.8125 0.5
v -0.375 0.5625 0.5
v 0.375 0.5625 0.375
v -0.375 0.5625 0.375
v 0.375 0.4375 0.375
v -0.375 0.4375 0.375
v 0.375 0.5625 0.5
v -0.375 0.5625 0.5
v 0.375 0.4375 0.5
v -0.375 0.4375 0.5
vt 0 0.75
vt 0 1
vt 0.25 1
vt 0.25 0.75
vt 0.4375 0.25
vt 0.265625 0.15625
vt 0.265625 0.375
vt 0.4375 0.375
vt 0.390625 0.9374999999999988
vt 0.390625 0.5422124999999989
vt 0.453125 0.5422124999999989
vt 0.453125 0.9374999999999988
vt 0 1
vt 0.25 1
vt 0.25 0.5
vt 0 0.5
vt 0 1
vt 0.25 1
vt 0.25 0.75
vt 0 0.75
vt 0 0.75
vt 0 1
vt 0.25 1
vt 0.25 0.75
vt 0 0.75
vt 0 1
vt 0.25 1
vt 0.25 0.75
vt 0.265625 0.125
vt 0.078125 0.25
vt 0.078125 0.375
vt 0.265625 0.375
vt 0.453125 0.5422124999999989
vt 0.453125 0.9374999999999988
vt 0.390625 0.9374999999999988
vt 0.390625 0.5422124999999989
vt 0 1
vt 0.25 1
vt 0.25 0.5
vt 0 0.5
vt 0 1
vt 0.25 1
vt 0.25 0.75
vt 0 0.75
vt 0 0.75
vt 0 1
vt 0.25 1
vt 0.25 0.75
vt 0.25 1
vt 0 1
vt 0 0.75
vt 0.25 0.75
vt 0.265625 0.5
vt 0.265625 0.75
vt 0.4375 0.625
vt 0.4375 0.5
vt 0.453125 0.9374999999999984
vt 0.390625 0.9374999999999984
vt 0.390625 0.5422124999999984
vt 0.453125 0.5422124999999984
vt 0.25 0.5
vt 0.25 1
vt 0 1
vt 0 0.5
vt 0.25 0.75
vt 0.25 1
vt 0 1
vt 0 0.75
vt 0.25 1
vt 0 1
vt 0 0.75
vt 0.25 0.75
vt 0.25 1
vt 0 1
vt 0 0.75
vt 0.25 0.75
vt 0.078125 0.5
vt 0.078125 0.625
vt 0.265625 0.75
vt 0.265625 0.5
vt 0.390625 0.5422124999999984
vt 0.453125 0.5422124999999984
vt 0.453125 0.9374999999999984
vt 0.390625 0.9374999999999984
vt 0.25 0.5
vt 0.25 1
vt 0 1
vt 0 0.5
vt 0.25 0.75
vt 0.25 1
vt 0 1
vt 0 0.75
vt 0.25 1
vt 0 1
vt 0 0.75
vt 0.25 0.75
vt 0.25 1
vt 0 1
vt 0 0.75
vt 0.25 0.75
vt 0.921875 0.46875
vt 0.921875 0.59375
vt 0.578125 0.59375
vt 0.578125 0.46875
vt 0 0.5
vt 0.25 0.5
vt 0.25 1
vt 0 1
vt 0.25 0.5
vt 0.25 1
vt 0 1
vt 0 0.5
vt 0.25 0.75
vt 0.25 1
vt 0 1
vt 0 0.75
vt 0.25 1
vt 0 1
vt 0 0.75
vt 0.25 0.75
vn 0 0 -1
vn 0 0 1
vn -0.316227766016838 -0.948683298050514 0
vn 0 1 0
vn 1 0 0
vn -1 0 0
vn 0 0 -1
vn 0 0 1
vn 0.316227766016838 -0.948683298050514 0
vn 0 1 0
vn 1 0 0
vn -1 0 0
vn 0 0 -1
vn 0 0 1
vn -0.316227766016838 0.948683298050514 0
vn 0 -1 0
vn 1 0 0
vn -1 0 0
vn 0 0 -1
vn 0 0 1
vn 0.316227766016838 0.948683298050514 0
vn 0 -1 0
vn 1 0 0
vn -1 0 0
vn 0 0 -1
vn 0 0 1
vn 0 1 0
vn 0 -1 0
vn 1 0 0
vn -1 0 0
usemtl m_ac975a9c-4842-d1c3-3759-12644fb5fa50
f 151/309/78 149/310/78 150/311/78 152/312/78
f 154/313/79 153/314/79 155/315/79 156/316/79
f 150/317/80 149/318/80 153/319/80 154/320/80
f 155/321/81 151/322/81 152/323/81 156/324/81
f 153/325/82 149/326/82 151/327/82 155/328/82
f 152/329/83 150/330/83 154/331/83 156/332/83
f 152/333/84 150/334/84 157/335/84 158/336/84
f 159/337/85 154/338/85 156/339/85 160/340/85
f 157/341/86 150/342/86 154/343/86 159/344/86
f 156/345/87 152/346/87 158/347/87 160/348/87
f 154/349/88 150/350/88 152/351/88 156/352/88
f 158/353/89 157/354/89 159/355/89 160/356/89
f 162/357/90 161/358/90 163/359/90 164/360/90
f 167/361/91 165/362/91 166/363/91 168/364/91
f 165/365/92 161/366/92 162/367/92 166/368/92
f 164/369/93 163/370/93 167/371/93 168/372/93
f 163/373/94 161/374/94 165/375/94 167/376/94
f 166/377/95 162/378/95 164/379/95 168/380/95
f 169/381/96 162/382/96 164/383/96 170/384/96
f 168/385/97 166/386/97 171/387/97 172/388/97
f 166/389/98 162/390/98 169/391/98 171/392/98
f 170/393/99 164/394/99 168/395/99 172/396/99
f 164/397/100 162/398/100 166/399/100 168/400/100
f 171/401/101 169/402/101 170/403/101 172/404/101
f 174/405/102 173/406/102 175/407/102 176/408/102
f 179/409/103 177/410/103 178/411/103 180/412/103
f 177/413/104 173/414/104 174/415/104 178/416/104
f 176/417/105 175/418/105 179/419/105 180/420/105
f 175/421/106 173/422/106 177/423/106 179/424/106
f 178/425/107 174/426/107 176/427/107 180/428/107
o side2
v 0.375 0.1875 -0.375
v 0.375 0.3125 0
v 0.375 0.4375 -0.375
v 0.375 0.4375 0
v 0.5 0.1875 -0.375
v 0.5 0.3125 0
v 0.5 0.4375 -0.375
v 0.5 0.4375 0
v 0.375 0.1875 0.375
v 0.375 0.4375 0.375
v 0.5 0.1875 0.375
v 0.5 0.4375 0.375
v 0.375 0.8125 -0.375
v 0.375 0.6875 0
v 0.375 0.5625 -0.375
v 0.375 0.5625 0
v 0.5 0.8125 -0.375
v 0.5 0.6875 0
v 0.5 0.5625 -0.375
v 0.5 0.5625 0
v 0.375 0.8125 0.375
v 0.375 0.5625 0.375
v 0.5 0.8125 0.375
v 0.5 0.5625 0.375
v 0.375 0.5625 -0.375
v 0.375 0.5625 0.375
v 0.375 0.4375 -0.375
v 0.375 0.4375 0.375
v 0.5 0.5625 -0.375
v 0.5 0.5625 0.375
v 0.5 0.4375 -0.375
v 0.5 0.4375 0.375
vt 0 0.75
vt 0 1
vt 0.25 1
vt 0.25 0.75
vt 0.25 0.25
vt 0.4375 0.125
vt 0.4375 0.375
vt 0.25 0.375
vt 0.390625 0.9374999999999988
vt 0.390625 0.5422124999999989
vt 0.453125 0.5422124999999989
vt 0.453125 0.9374999999999988
vt 0 1
vt 0.25 1
vt 0.25 0.5
vt 0 0.5
vt 0 1
vt 0.25 1
vt 0.25 0.75
vt 0 0.75
vt 0 0.75
vt 0 1
vt 0.25 1
vt 0.25 0.75
vt 0 0.75
vt 0 1
vt 0.25 1
vt 0.25 0.75
vt 0.0625 0.125
vt 0.25 0.25
vt 0.25 0.375
vt 0.0625 0.375
vt 0.453125 0.5422124999999989
vt 0.453125 0.9374999999999988
vt 0.390625 0.9374999999999988
vt 0.390625 0.5422124999999989
vt 0 1
vt 0.25 1
vt 0.25 0.5
vt 0 0.5
vt 0 1
vt 0.25 1
vt 0.25 0.75
vt 0 0.75
vt 0 0.75
vt 0 1
vt 0.25 1
vt 0.25 0.75
vt 0.25 1
vt 0 1
vt 0 0.75
vt 0.25 0.75
vt 0.4375 0.5
vt 0.4375 0.75
vt 0.25 0.625
vt 0.25 0.5
vt 0.453125 0.9374999999999984
vt 0.390625 0.9374999999999984
vt 0.390625 0.5422124999999984
vt 0.453125 0.5422124999999984
vt 0.25 0.5
vt 0.25 1
vt 0 1
vt 0 0.5
vt 0.25 0.75
vt 0.25 1
vt 0 1
vt 0 0.75
vt 0.25 1
vt 0 1
vt 0 0.75
vt 0.25 0.75
vt 0.25 1
vt 0 1
vt 0 0.75
vt 0.25 0.75
vt 0.25 0.5
vt 0.25 0.625
vt 0.0625 0.75
vt 0.0625 0.5
vt 0.390625 0.5422124999999984
vt 0.453125 0.5422124999999984
vt 0.453125 0.9374999999999984
vt 0.390625 0.9374999999999984
vt 0.25 0.5
vt 0.25 1
vt 0 1
vt 0 0.5
vt 0.25 0.75
vt 0.25 1
vt 0 1
vt 0 0.75
vt 0.25 1
vt 0 1
vt 0 0.75
vt 0.25 0.75
vt 0.25 1
vt 0 1
vt 0 0.75
vt 0.25 0.75
vt 0.4375 0.4375
vt 0.4375 0.5625
vt 0.0625 0.5625
vt 0.0625 0.4375
vt 0 0.5
vt 0.25 0.5
vt 0.25 1
vt 0 1
vt 0.25 0.5
vt 0.25 1
vt 0 1
vt 0 0.5
vt 0.25 0.75
vt 0.25 1
vt 0 1
vt 0 0.75
vt 0.25 1
vt 0 1
vt 0 0.75
vt 0.25 0.75
vn -1 0 0
vn 1 0 0
vn 0 -0.948683298050514 0.316227766016838
vn 0 1 0
vn 0 0 -1
vn 0 0 1
vn -1 0 0
vn 1 0 0
vn 0 -0.948683298050514 -0.316227766016838
vn 0 1 0
vn 0 0 -1
vn 0 0 1
vn -1 0 0
vn 1 0 0
vn 0 0.948683298050514 0.316227766016838
vn 0 -1 0
vn 0 0 -1
vn 0 0 1
vn -1 0 0
vn 1 0 0
vn 0 0.948683298050514 -0.316227766016838
vn 0 -1 0
vn 0 0 -1
vn 0 0 1
vn -1 0 0
vn 1 0 0
vn 0 1 0
vn 0 -1 0
vn 0 0 -1
vn 0 0 1
usemtl m_ac975a9c-4842-d1c3-3759-12644fb5fa50
f 183/429/108 181/430/108 182/431/108 184/432/108
f 186/433/109 185/434/109 187/435/109 188/436/109
f 182/437/110 181/438/110 185/439/110 186/440/110
f 187/441/111 183/442/111 184/443/111 188/444/111
f 185/445/112 181/446/112 183/447/112 187/448/112
f 184/449/113 182/450/113 186/451/113 188/452/113
f 184/453/114 182/454/114 189/455/114 190/456/114
f 191/457/115 186/458/115 188/459/115 192/460/115
f 189/461/116 182/462/116 186/463/116 191/464/116
f 188/465/117 184/466/117 190/467/117 192/468/117
f 186/469/118 182/470/118 184/471/118 188/472/118
f 190/473/119 189/474/119 191/475/119 192/476/119
f 194/477/120 193/478/120 195/479/120 196/480/120
f 199/481/121 197/482/121 198/483/121 200/484/121
f 197/485/122 193/486/122 194/487/122 198/488/122
f 196/489/123 195/490/123 199/491/123 200/492/123
f 195/493/124 193/494/124 197/495/124 199/496/124
f 198/497/125 194/498/125 196/499/125 200/500/125
f 201/501/126 194/502/126 196/503/126 202/504/126
f 200/505/127 198/506/127 203/507/127 204/508/127
f 198/509/128 194/510/128 201/511/128 203/512/128
f 202/513/129 196/514/129 200/515/129 204/516/129
f 196/517/130 194/518/130 198/519/130 200/520/130
f 203/521/131 201/522/131 202/523/131 204/524/131
f 206/525/132 205/526/132 207/527/132 208/528/132
f 211/529/133 209/530/133 210/531/133 212/532/133
f 209/533/134 205/534/134 206/535/134 210/536/134
f 208/537/135 207/538/135 211/539/135 212/540/135
f 207/541/136 205/542/136 209/543/136 211/544/136
f 210/545/137 206/546/137 208/547/137 212/548/137
o side3
v -0.375 0.1875 0.375
v -0.375 0.3125 0
v -0.375 0.4375 0.375
v -0.375 0.4375 0
v -0.5 0.1875 0.375
v -0.5 0.3125 0
v -0.5 0.4375 0.375
v -0.5 0.4375 0
v -0.375 0.1875 -0.375
v -0.375 0.4375 -0.375
v -0.5 0.1875 -0.375
v -0.5 0.4375 -0.375
v -0.375 0.8125 0.375
v -0.375 0.6875 0
v -0.375 0.5625 0.375
v -0.375 0.5625 0
v -0.5 0.8125 0.375
v -0.5 0.6875 0
v -0.5 0.5625 0.375
v -0.5 0.5625 0
v -0.375 0.8125 -0.375
v -0.375 0.5625 -0.375
v -0.5 0.8125 -0.375
v -0.5 0.5625 -0.375
v -0.375 0.5625 0.375
v -0.375 0.5625 -0.375
v -0.375 0.4375 0.375
v -0.375 0.4375 -0.375
v -0.5 0.5625 0.375
v -0.5 0.5625 -0.375
v -0.5 0.4375 0.375
v -0.5 0.4375 -0.375
vt 0 0.75
vt 0 1
vt 0.25 1
vt 0.25 0.75
vt 0.25 0.25
vt 0.4375 0.125
vt 0.4375 0.375
vt 0.25 0.375
vt 0.390625 0.9374999999999988
vt 0.390625 0.5422124999999989
vt 0.453125 0.5422124999999989
vt 0.453125 0.9374999999999988
vt 0 1
vt 0.25 1
vt 0.25 0.5
vt 0 0.5
vt 0 1
vt 0.25 1
vt 0.25 0.75
vt 0 0.75
vt 0 0.75
vt 0 1
vt 0.25 1
vt 0.25 0.75
vt 0 0.75
vt 0 1
vt 0.25 1
vt 0.25 0.75
vt 0.0625 0.125
vt 0.25 0.25
vt 0.25 0.375
vt 0.0625 0.375
vt 0.453125 0.5422124999999989
vt 0.453125 0.9374999999999988
vt 0.390625 0.9374999999999988
vt 0.390625 0.5422124999999989
vt 0 1
vt 0.25 1
vt 0.25 0.5
vt 0 0.5
vt 0 1
vt 0.25 1
vt 0.25 0.75
vt 0 0.75
vt 0 0.75
vt 0 1
vt 0.25 1
vt 0.25 0.75
vt 0.25 1
vt 0 1
vt 0 0.75
vt 0.25 0.75
vt 0.4375 0.5
vt 0.4375 0.75
vt 0.25 0.625
vt 0.25 0.5
vt 0.453125 0.9374999999999984
vt 0.390625 0.9374999999999984
vt 0.390625 0.5422124999999984
vt 0.453125 0.5422124999999984
vt 0.25 0.5
vt 0.25 1
vt 0 1
vt 0 0.5
vt 0.25 0.75
vt 0.25 1
vt 0 1
vt 0 0.75
vt 0.25 1
vt 0 1
vt 0 0.75
vt 0.25 0.75
vt 0.25 1
vt 0 1
vt 0 0.75
vt 0.25 0.75
vt 0.25 0.5
vt 0.25 0.625
vt 0.0625 0.75
vt 0.0625 0.5
vt 0.390625 0.5422124999999984
vt 0.453125 0.5422124999999984
vt 0.453125 0.9374999999999984
vt 0.390625 0.9374999999999984
vt 0.25 0.5
vt 0.25 1
vt 0 1
vt 0 0.5
vt 0.25 0.75
vt 0.25 1
vt 0 1
vt 0 0.75
vt 0.25 1
vt 0 1
vt 0 0.75
vt 0.25 0.75
vt 0.25 1
vt 0 1
vt 0 0.75
vt 0.25 0.75
vt 0.4375 0.4375
vt 0.4375 0.5625
vt 0.0625 0.5625
vt 0.0625 0.4375
vt 0 0.5
vt 0.25 0.5
vt 0.25 1
vt 0 1
vt 0.25 0.5
vt 0.25 1
vt 0 1
vt 0 0.5
vt 0.25 0.75
vt 0.25 1
vt 0 1
vt 0 0.75
vt 0.25 1
vt 0 1
vt 0 0.75
vt 0.25 0.75
vn 1 0 0
vn -1 0 0
vn 0 -0.948683298050514 -0.316227766016838
vn 0 1 0
vn 0 0 1
vn 0 0 -1
vn 1 0 0
vn -1 0 0
vn 0 -0.948683298050514 0.316227766016838
vn 0 1 0
vn 0 0 1
vn 0 0 -1
vn 1 0 0
vn -1 0 0
vn 0 0.948683298050514 -0.316227766016838
vn 0 -1 0
vn 0 0 1
vn 0 0 -1
vn 1 0 0
vn -1 0 0
vn 0 0.948683298050514 0.316227766016838
vn 0 -1 0
vn 0 0 1
vn 0 0 -1
vn 1 0 0
vn -1 0 0
vn 0 1 0
vn 0 -1 0
vn 0 0 1
vn 0 0 -1
usemtl m_ac975a9c-4842-d1c3-3759-12644fb5fa50
f 215/549/138 213/550/138 214/551/138 216/552/138
f 218/553/139 217/554/139 219/555/139 220/556/139
f 214/557/140 213/558/140 217/559/140 218/560/140
f 219/561/141 215/562/141 216/563/141 220/564/141
f 217/565/142 213/566/142 215/567/142 219/568/142
f 216/569/143 214/570/143 218/571/143 220/572/143
f 216/573/144 214/574/144 221/575/144 222/576/144
f 223/577/145 218/578/145 220/579/145 224/580/145
f 221/581/146 214/582/146 218/583/146 223/584/146
f 220/585/147 216/586/147 222/587/147 224/588/147
f 218/589/148 214/590/148 216/591/148 220/592/148
f 222/593/149 221/594/149 223/595/149 224/596/149
f 226/597/150 225/598/150 227/599/150 228/600/150
f 231/601/151 229/602/151 230/603/151 232/604/151
f 229/605/152 225/606/152 226/607/152 230/608/152
f 228/609/153 227/610/153 231/611/153 232/612/153
f 227/613/154 225/614/154 229/615/154 231/616/154
f 230/617/155 226/618/155 228/619/155 232/620/155
f 233/621/156 226/622/156 228/623/156 234/624/156
f 232/625/157 230/626/157 235/627/157 236/628/157
f 230/629/158 226/630/158 233/631/158 235/632/158
f 234/633/159 228/634/159 232/635/159 236/636/159
f 228/637/160 226/638/160 230/639/160 232/640/160
f 235/641/161 233/642/161 234/643/161 236/644/161
f 238/645/162 237/646/162 239/647/162 240/648/162
f 243/649/163 241/650/163 242/651/163 244/652/163
f 241/653/164 237/654/164 238/655/164 242/656/164
f 240/657/165 239/658/165 243/659/165 244/660/165
f 239/661/166 237/662/166 241/663/166 243/664/166
f 242/665/167 238/666/167 240/667/167 244/668/167
o rod
v 0.125 0.875 0.125
v 0.125 0.875 -0.125
v 0.125 0.125 0.125
v 0.125 0.125 -0.125
v -0.125 0.875 0.125
v -0.125 0.875 -0.125
v -0.125 0.125 0.125
v -0.125 0.125 -0.125
vt 0.3125 0.875
vt 0.1875 0.875
vt 0.1875 0.125
vt 0.3125 0.125
vt 0.3125 0.125
vt 0.3125 0.875
vt 0.1875 0.875
vt 0.1875 0.125
vt 0.3125 0.25
vt 0.3125 0.5
vt 0.1875 0.5
vt 0.1875 0.25
vt 0.3125 0.125
vt 0.3125 0.875
vt 0.1875 0.875
vt 0.1875 0.125
vt 0.3125 0.875
vt 0.1875 0.875
vt 0.1875 0.125
vt 0.3125 0.125
vn 1 0 0
vn -1 0 0
vn 0 -1 0
vn 0 0 1
vn 0 0 -1
usemtl m_ac975a9c-4842-d1c3-3759-12644fb5fa50
f 246/669/168 245/670/168 247/671/168 248/672/168
f 251/673/169 249/674/169 250/675/169 252/676/169
f 248/677/170 247/678/170 251/679/170 252/680/170
f 247/681/171 245/682/171 249/683/171 251/684/171
f 250/685/172 246/686/172 248/687/172 252/688/172