# Made in Blockbench 5.1.6
mtllib MonsterHarvester.mtl

o frame
v 0.5 0.84375 0.5
v 0.5 0.84375 -0.5
v 0.5 0 0.5
v 0.5 0 -0.5
v -0.5 0.84375 0.5
v -0.5 0.84375 -0.5
v -0.5 0 0.5
v -0.5 0 -0.5
vt 1 0.84375
vt 0.5 0.84375
vt 0.5 0
vt 1 0
vt 1 0
vt 1 0.84375
vt 0.5 0.84375
vt 0.5 0
vt 0 0
vt 0.5 0
vt 0.5 1
vt 0 1
vt 0.5 0
vt 0.5 1
vt 0 1
vt 0 0
vt 1 0
vt 1 0.84375
vt 0.5 0.84375
vt 0.5 0
vt 1 0.84375
vt 0.5 0.84375
vt 0.5 0
vt 1 0
vn 1 0 0
vn -1 0 0
vn 0 1 0
vn 0 -1 0
vn 0 0 1
vn 0 0 -1
usemtl m_d98a5762-7845-8297-0b47-04c9bdde35f8
f 2/1/1 1/2/1 3/3/1 4/4/1
f 7/5/2 5/6/2 6/7/2 8/8/2
f 5/9/3 1/10/3 2/11/3 6/12/3
f 4/13/4 3/14/4 7/15/4 8/16/4
f 3/17/5 1/18/5 5/19/5 7/20/5
f 6/21/6 2/22/6 4/23/6 8/24/6
o dingus
v -0.375 0.875 -0.10048125
v -0.375 0.875 0.10048125
v -0.27451875 0.875 -0.27451875
v -0.27451875 0.875 0.27451875
v -0.10048125 0.875 0.375
v 0.10048125 0.875 0.375
v 0.27451875 0.875 0.27451875
v 0.375 0.875 0.10048125
v 0.375 0.875 -0.10048125
v 0.27451875 0.875 -0.27451875
v 0.10048125 0.875 -0.375
v -0.10048125 0.875 -0.375
v -0.375 1.0625 -0.10048125
v -0.375 1.0625 0.10048125
v -0.27451875 1.0625 -0.27451875
v -0.27451875 1.0625 0.27451875
v -0.10048125 1.0625 0.375
v 0.10048125 1.0625 0.375
v 0.27451875 1.0625 0.27451875
v 0.375 1.0625 0.10048125
v 0.375 1.0625 -0.10048125
v 0.27451875 1.0625 -0.27451875
v 0.10048125 1.0625 -0.375
v -0.10048125 1.0625 -0.375
v 0.133974375 0.84375 0.5
v 0.366025625 0.84375 0.366025625
v 0.5 0.84375 0.133974375
v 0.5 0.84375 -0.133974375
v 0.366025625 0.84375 -0.366025625
v 0.133974375 0.84375 -0.5
v -0.133974375 0.84375 -0.5
v -0.366025625 0.84375 -0.366025625
v -0.5 0.84375 -0.133974375
v -0.5 0.84375 0.133974375
v -0.366025625 0.84375 0.366025625
v -0.133974375 0.84375 0.5
v -0.5 1.0625 -0.133974375
v -0.5 1.0625 0.133974375
v -0.366025625 1.0625 -0.366025625
v -0.366025625 1.0625 0.366025625
v -0.133974375 1.0625 0.5
v 0.133974375 1.0625 0.5
v 0.366025625 1.0625 0.366025625
v 0.5 1.0625 0.133974375
v 0.5 1.0625 -0.133974375
v 0.366025625 1.0625 -0.366025625
v 0.133974375 1.0625 -0.5
v -0.133974375 1.0625 -0.5
v 0.1875 1.03125 0.1875
v 0.1875 1.03125 -0.1875
v 0.1875 0.84375 0.1875
v 0.1875 0.84375 -0.1875
v -0.1875 1.03125 0.1875
v -0.1875 1.03125 -0.1875
v -0.1875 0.84375 0.1875
v -0.1875 0.84375 -0.1875
vt 0.328125 0.28125
vt 0.328125 0.0625
vt 0.1875 0.0625
vt 0.1875 0.28125
vt 0.46875 0.28125
vt 0.46875 0.0625
vt 0.328125 0.0625
vt 0.328125 0.28125
vt 0.171875 0.28125
vt 0.171875 0.0625
vt 0.03125 0.0625
vt 0.03125 0.28125
vt 0.328125 0.28125
vt 0.328125 0.0625
vt 0.1875 0.0625
vt 0.1875 0.28125
vt 0.03125 0.28125
vt 0.03125 0.0625
vt 0.171875 0.0625
vt 0.171875 0.28125
vt 0.171875 0.28125
vt 0.171875 0.0625
vt 0.03125 0.0625
vt 0.03125 0.28125
vt 0.328125 0.28125
vt 0.328125 0.0625
vt 0.1875 0.0625
vt 0.1875 0.28125
vt 0.03125 0.28125
vt 0.03125 0.0625
vt 0.171875 0.0625
vt 0.171875 0.28125
vt 0.171875 0.28125
vt 0.171875 0.0625
vt 0.03125 0.0625
vt 0.03125 0.28125
vt 0.328125 0.28125
vt 0.328125 0.0625
vt 0.1875 0.0625
vt 0.1875 0.28125
vt 0.171875 0.28125
vt 0.03125 0.28125
vt 0.03125 0.0625
vt 0.171875 0.0625
vt 0.171875 0.28125
vt 0.171875 0.0625
vt 0.03125 0.0625
vt 0.03125 0.28125
vt 0.296875 0.4375
vt 0.3125 0.5625
vt 0.1875 0.5625
vt 0.203125 0.4375
vt 0.203125 0.4375
vt 0.1875 0.5625
vt 0.3125 0.5625
vt 0.296875 0.4375
vt 0.296875 0.4375
vt 0.3125 0.5625
vt 0.1875 0.5625
vt 0.203125 0.4375
vt 0.296875 0.4375
vt 0.3125 0.5625
vt 0.1875 0.5625
vt 0.203125 0.4375
vt 0.3125 0.4375
vt 0.328125 0.5625
vt 0.1875 0.5625
vt 0.203125 0.4375
vt 0.3125 0.4375
vt 0.328125 0.5625
vt 0.1875 0.5625
vt 0.203125 0.4375
vt 0.3125 0.4375
vt 0.328125 0.5625
vt 0.1875 0.5625
vt 0.203125 0.4375
vt 0.203125 0.4375
vt 0.1875 0.5625
vt 0.3125 0.5625
vt 0.296875 0.4375
vt 0.296875 0.4375
vt 0.203125 0.4375
vt 0.1875 0.5625
vt 0.3125 0.5625
vt 0.203125 0.4375
vt 0.1875 0.5625
vt 0.328125 0.5625
vt 0.3125 0.4375
vt 0.203125 0.4375
vt 0.1875 0.5625
vt 0.328125 0.5625
vt 0.3125 0.4375
vt 0.203125 0.4375
vt 0.1875 0.5625
vt 0.3125 0.5625
vt 0.296875 0.4375
vt 0.203125 0.3125
vt 0.203125 0.125
vt 0.296875 0.125
vt 0.296875 0.3125
vt 0.203125 0.125
vt 0.296875 0.125
vt 0.296875 0.3125
vt 0.203125 0.3125
vt 0.203125 0.3125
vt 0.203125 0.125
vt 0.296875 0.125
vt 0.296875 0.3125
vt 0.203125 0.125
vt 0.296875 0.125
vt 0.296875 0.3125
vt 0.203125 0.3125
vt 0.296875 0.125
vt 0.296875 0.3125
vt 0.203125 0.3125
vt 0.203125 0.125
vt 0.203125 0.3125
vt 0.203125 0.125
vt 0.296875 0.125
vt 0.296875 0.3125
vt 0.203125 0.3125
vt 0.203125 0.125
vt 0.296875 0.125
vt 0.296875 0.3125
vt 0.203125 0.3125
vt 0.203125 0.125
vt 0.296875 0.125
vt 0.296875 0.3125
vt 0.203125 0.3125
vt 0.203125 0.125
vt 0.296875 0.125
vt 0.296875 0.3125
vt 0.203125 0.125
vt 0.296875 0.125
vt 0.296875 0.3125
vt 0.203125 0.3125
vt 0.203125 0.3125
vt 0.203125 0.125
vt 0.296875 0.125
vt 0.296875 0.3125
vt 0.203125 0.3125
vt 0.203125 0.125
vt 0.296875 0.125
vt 0.296875 0.3125
vt 0.34375 0.625
vt 0.15625 0.625
vt 0.15625 0.8125
vt 0.34375 0.8125
vt 0.34375 0.8125
vt 0.34375 0.625
vt 0.15625 0.625
vt 0.15625 0.8125
vt 0.15625 0.3125
vt 0.34375 0.3125
vt 0.34375 0.6875
vt 0.15625 0.6875
vt 0.34375 0.3125
vt 0.34375 0.6875
vt 0.15625 0.6875
vt 0.15625 0.3125
vt 0.34375 0.8125
vt 0.34375 0.625
vt 0.15625 0.625
vt 0.15625 0.8125
vt 0.34375 0.625
vt 0.15625 0.625
vt 0.15625 0.8125
vt 0.34375 0.8125
vn 0 0 -1
vn 0.49999866583004415 0 -0.8660261740664515
vn 0.8660261740664515 0 -0.49999866583004415
vn 1 0 0
vn 0.8660261740664515 0 0.49999866583004415
vn 0.49999866583004415 0 0.8660261740664515
vn 0 0 1
vn -0.49999866583004415 0 0.8660261740664515
vn -0.8660261740664515 0 0.49999866583004415
vn -1 0 0
vn -0.8660261740664515 0 -0.49999866583004415
vn -0.49999866583004415 0 -0.8660261740664515
vn 0 1 0
vn 0 1 0
vn 0 1 0
vn 0 1 0
vn 0 1 0
vn 0 1 0
vn 0 1 0
vn 0 1 0
vn 0 1 0
vn 0 1 0
vn 0 1 0
vn 0 1 0
vn -1 0 0
vn -0.8660239977804737 0 -0.500002435262396
vn -0.500002435262396 0 -0.8660239977804737
vn 0 0 -1
vn 0.500002435262396 0 -0.8660239977804737
vn 0.8660239977804737 0 -0.500002435262396
vn 1 0 0
vn 0.8660239977804737 0 0.500002435262396
vn 0.500002435262396 0 0.8660239977804737
vn 0 0 1
vn -0.500002435262396 0 0.8660239977804737
vn -0.8660239977804737 0 0.500002435262396
vn 1 0 0
vn -1 0 0
vn 0 1 0
vn 0 -1 0
vn 0 0 1
vn 0 0 -1
usemtl m_d98a5762-7845-8297-0b47-04c9bdde35f8
f 55/25/7 38/26/7 39/27/7 56/28/7
f 54/29/8 37/30/8 38/31/8 55/32/8
f 53/33/9 36/34/9 37/35/9 54/36/9
f 52/37/10 35/38/10 36/39/10 53/40/10
f 51/41/11 34/42/11 35/43/11 52/44/11
f 50/45/12 33/46/12 34/47/12 51/48/12
f 49/49/13 44/50/13 33/51/13 50/52/13
f 48/53/14 43/54/14 44/55/14 49/56/14
f 46/57/15 42/58/15 43/59/15 48/60/15
f 45/61/16 41/62/16 42/63/16 46/64/16
f 45/65/17 47/66/17 40/67/17 41/68/17
f 56/69/18 39/70/18 40/71/18 47/72/18
f 28/73/19 52/74/19 53/75/19 29/76/19
f 27/77/20 51/78/20 52/79/20 28/80/20
f 29/81/21 53/82/21 54/83/21 30/84/21
f 30/85/22 54/86/22 55/87/22 31/88/22
f 31/89/23 55/90/23 56/91/23 32/92/23
f 32/93/24 56/94/24 47/95/24 23/96/24
f 23/97/25 47/98/25 45/99/25 21/100/25
f 21/101/26 45/102/26 46/103/26 22/104/26
f 24/105/27 22/106/27 46/107/27 48/108/27
f 26/109/28 50/110/28 51/111/28 27/112/28
f 25/113/29 49/114/29 50/115/29 26/116/29
f 24/117/30 48/118/30 49/119/30 25/120/30
f 29/121/31 17/122/31 16/123/31 28/124/31
f 16/125/32 15/126/32 27/127/32 28/128/32
f 27/129/33 15/130/33 14/131/33 26/132/33
f 14/133/34 13/134/34 25/135/34 26/136/34
f 12/137/35 24/138/35 25/139/35 13/140/35
f 24/141/36 12/142/36 10/143/36 22/144/36
f 22/145/37 10/146/37 9/147/37 21/148/37
f 21/149/38 9/150/38 11/151/38 23/152/38
f 23/153/39 11/154/39 20/155/39 32/156/39
f 20/157/40 19/158/40 31/159/40 32/160/40
f 31/161/41 19/162/41 18/163/41 30/164/41
f 30/165/42 18/166/42 17/167/42 29/168/42
f 58/169/43 57/170/43 59/171/43 60/172/43
f 63/173/44 61/174/44 62/175/44 64/176/44
f 61/177/45 57/178/45 58/179/45 62/180/45
f 60/181/46 59/182/46 63/183/46 64/184/46
f 59/185/47 57/186/47 61/187/47 63/188/47
f 62/189/48 58/190/48 60/191/48 64/192/48