# Made in Blockbench 5.1.6
mtllib mruCoilHardener.mtl

o corner3
v -0.125 1 -0.125
v -0.125 1 -0.5
v -0.125 0 -0.125
v -0.125 0 -0.5
v -0.5 1 -0.125
v -0.5 1 -0.5
v -0.5 0 -0.125
v -0.5 0 -0.5
vt 0.671875 1
vt 0.484375 1
vt 0.484375 0
vt 0.671875 0
vt 0.671875 0
vt 0.671875 1
vt 0.484375 1
vt 0.484375 0
vt 0 0.625
vt 0.1875 0.625
vt 0.1875 1
vt 0 1
vt 0 0.375
vt 0.1875 0.375
vt 0.1875 0
vt 0 0
vt 0.484375 0
vt 0.484375 1
vt 0.671875 1
vt 0.671875 0
vt 1 1
vt 0.8125 1
vt 0.8125 0
vt 1 0
vn 1 0 0
vn -1 0 0
vn 0 1 0
vn 0 -1 0
vn 0 0 1
vn 0 0 -1
usemtl m_f5e75d8e-4c22-ddfe-0806-5f61c9c32970
f 2/1/1 1/2/1 3/3/1 4/4/1
f 7/5/2 5/6/2 6/7/2 8/8/2
f 5/9/3 1/10/3 2/11/3 6/12/3
f 4/13/4 3/14/4 7/15/4 8/16/4
f 3/17/5 1/18/5 5/19/5 7/20/5
f 6/21/6 2/22/6 4/23/6 8/24/6
o corner2
v -0.125 1 0.5
v -0.125 1 0.125
v -0.125 0 0.5
v -0.125 0 0.125
v -0.5 1 0.5
v -0.5 1 0.125
v -0.5 0 0.5
v -0.5 0 0.125
vt 0.484375 1
vt 0.671875 1
vt 0.671875 0
vt 0.484375 0
vt 1 0
vt 1 1
vt 0.8125 1
vt 0.8125 0
vt 0 0
vt 0.1875 0
vt 0.1875 0.375
vt 0 0.375
vt 0.1875 0.375
vt 0 0.375
vt 0 0
vt 0.1875 0
vt 0.671875 0
vt 0.671875 1
vt 0.484375 1
vt 0.484375 0
vt 0.671875 1
vt 0.484375 1
vt 0.484375 0
vt 0.671875 0
vn 1 0 0
vn -1 0 0
vn 0 1 0
vn 0 -1 0
vn 0 0 1
vn 0 0 -1
usemtl m_f5e75d8e-4c22-ddfe-0806-5f61c9c32970
f 10/25/7 9/26/7 11/27/7 12/28/7
f 15/29/8 13/30/8 14/31/8 16/32/8
f 13/33/9 9/34/9 10/35/9 14/36/9
f 12/37/10 11/38/10 15/39/10 16/40/10
f 11/41/11 9/42/11 13/43/11 15/44/11
f 14/45/12 10/46/12 12/47/12 16/48/12
o corner1
v 0.5 1 0.5
v 0.5 1 0.125
v 0.5 0 0.5
v 0.5 0 0.125
v 0.125 1 0.5
v 0.125 1 0.125
v 0.125 0 0.5
v 0.125 0 0.125
vt 0.671875 1
vt 0.484375 1
vt 0.484375 0
vt 0.671875 0
vt 0.671875 0
vt 0.671875 1
vt 0.484375 1
vt 0.484375 0
vt 0.3125 0
vt 0.5 0
vt 0.5 0.375
vt 0.3125 0.375
vt 0.1875 0
vt 0 0
vt 0 0.375
vt 0.1875 0.375
vt 1 0
vt 1 1
vt 0.8125 1
vt 0.8125 0
vt 0.484375 1
vt 0.671875 1
vt 0.671875 0
vt 0.484375 0
vn 1 0 0
vn -1 0 0
vn 0 1 0
vn 0 -1 0
vn 0 0 1
vn 0 0 -1
usemtl m_f5e75d8e-4c22-ddfe-0806-5f61c9c32970
f 18/49/13 17/50/13 19/51/13 20/52/13
f 23/53/14 21/54/14 22/55/14 24/56/14
f 21/57/15 17/58/15 18/59/15 22/60/15
f 20/61/16 19/62/16 23/63/16 24/64/16
f 19/65/17 17/66/17 21/67/17 23/68/17
f 22/69/18 18/70/18 20/71/18 24/72/18
o corner4
v 0.5 1 -0.125
v 0.5 1 -0.5
v 0.5 0 -0.125
v 0.5 0 -0.5
v 0.125 1 -0.125
v 0.125 1 -0.5
v 0.125 0 -0.125
v 0.125 0 -0.5
vt 1 1
vt 0.8125 1
vt 0.8125 0
vt 1 0
vt 0.484375 0
vt 0.484375 1
vt 0.671875 1
vt 0.671875 0
vt 0.3125 0.625
vt 0.5 0.625
vt 0.5 1
vt 0.3125 1
vt 0 0
vt 0.1875 0
vt 0.1875 0.375
vt 0 0.375
vt 0.6875 0
vt 0.6875 1
vt 0.5 1
vt 0.5 0
vt 0.671875 1
vt 0.484375 1
vt 0.484375 0
vt 0.671875 0
vn 1 0 0
vn -1 0 0
vn 0 1 0
vn 0 -1 0
vn 0 0 1
vn 0 0 -1
usemtl m_f5e75d8e-4c22-ddfe-0806-5f61c9c32970
f 26/73/19 25/74/19 27/75/19 28/76/19
f 31/77/20 29/78/20 30/79/20 32/80/20
f 29/81/21 25/82/21 26/83/21 30/84/21
f 28/85/22 27/86/22 31/87/22 32/88/22
f 27/89/23 25/90/23 29/91/23 31/92/23
f 30/93/24 26/94/24 28/95/24 32/96/24
o moddle
v 0.12499999999999997 1 -0.125
v -0.12500000000000006 1 -0.12500000000000006
v 0.12499999999999992 1 0.125
v -0.1250000000000001 1 0.12499999999999994
v -0.1250000000000001 0 0.12499999999999994
v 0.12499999999999992 0 0.125
v 0.12499999999999997 0 -0.125
v -0.12500000000000006 0 -0.12500000000000006
v 0.125 1 0.25
v 0.125 1 0.125
v -0.125 1 0.2499999999999999
v -0.125 1 0.12500000000000006
v -0.125 0 0.12500000000000006
v -0.125 0 0.2499999999999999
v 0.125 0 0.25
v 0.125 0 0.125
v 0.24999999999999997 1 -0.12499999999999997
v 0.12499999999999997 1 -0.125
v 0.24999999999999992 1 0.125
v 0.12499999999999992 1 0.125
v 0.12499999999999992 0 0.125
v 0.24999999999999992 0 0.125
v 0.24999999999999997 0 -0.12499999999999997
v 0.12499999999999997 0 -0.125
v 0.125 1 -0.12499999999999997
v 0.125 1 -0.24999999999999994
v -0.12500000000000006 1 -0.12499999999999997
v -0.125 1 -0.24999999999999997
v -0.125 0 -0.24999999999999997
v -0.12500000000000006 0 -0.12499999999999997
v 0.125 0 -0.12499999999999997
v 0.125 0 -0.24999999999999994
v -0.12500000000000006 1 -0.12499999999999997
v -0.25000000000000006 1 -0.125
v -0.1250000000000001 1 0.12500000000000006
v -0.25000000000000017 1 0.12499999999999994
v -0.25000000000000017 0 0.12499999999999994
v -0.1250000000000001 0 0.12500000000000006
v -0.12500000000000006 0 -0.12499999999999997
v -0.25000000000000006 0 -0.125
vt 0.25 1
vt 0 1
vt 0 0.75
vt 0.25 0.75
vt 0.25 0.75
vt 0.25 1
vt 0 1
vt 0 0.75
vt 0.25 0.75
vt 0.25 1
vt 0 1
vt 0 0.75
vt 0.25 1
vt 0 1
vt 0 0.75
vt 0.25 0.75
vt 0.1875 0.625
vt 0.1875 0.375
vt 0.3125 0.375
vt 0.3125 0.625
vt 0.1875 0.625
vt 0.1875 0.375
vt 0.3125 0.375
vt 0.3125 0.625
vt 0.25 1
vt 0 1
vt 0 0.75
vt 0.25 0.75
vt 0.25 0.75
vt 0.25 1
vt 0 1
vt 0 0.75
vt 0.8125 0
vt 0.8125 1
vt 0.6875 1
vt 0.6875 0
vt 0.25 1
vt 0 1
vt 0 0.75
vt 0.25 0.75
vt 0.3125 0.375
vt 0.375 0.375
vt 0.375 0.625
vt 0.3125 0.625
vt 0.1875 0.375
vt 0.125 0.375
vt 0.125 0.625
vt 0.1875 0.625
vt 0.25 1
vt 0 1
vt 0 0.75
vt 0.25 0.75
vt 0.25 0.75
vt 0.25 1
vt 0 1
vt 0 0.75
vt 0.8125 0
vt 0.8125 1
vt 0.6875 1
vt 0.6875 0
vt 0.25 1
vt 0 1
vt 0 0.75
vt 0.25 0.75
vt 0.1875 0.375
vt 0.1875 0.25
vt 0.3125 0.25
vt 0.3125 0.375
vt 0.1875 0.375
vt 0.125 0.375
vt 0.125 0.625
vt 0.1875 0.625
vt 0.25 1
vt 0 1
vt 0 0.75
vt 0.25 0.75
vt 0.25 0.75
vt 0.25 1
vt 0 1
vt 0 0.75
vt 0.25 0.75
vt 0.25 1
vt 0 1
vt 0 0.75
vt 0.8125 1
vt 0.6875 1
vt 0.6875 0
vt 0.8125 0
vt 0.125 0.375
vt 0.1875 0.375
vt 0.1875 0.625
vt 0.125 0.625
vt 0.125 0.375
vt 0.1875 0.375
vt 0.1875 0.625
vt 0.125 0.625
vt 0.25 1
vt 0 1
vt 0 0.75
vt 0.25 0.75
vt 0.25 0.75
vt 0.25 1
vt 0 1
vt 0 0.75
vt 0.25 0.75
vt 0.25 1
vt 0 1
vt 0 0.75
vt 0.8125 1
vt 0.6875 1
vt 0.6875 0
vt 0.8125 0
vt 0.1875 0.78125
vt 0.1875 0.65625
vt 0.3125 0.65625
vt 0.3125 0.78125
vt 0.125 0.375
vt 0.1875 0.375
vt 0.1875 0.625
vt 0.125 0.625
vn 2.2204460492503136 0 -1
vn -2.2204460492503136 0 1
vn 1 0 2.2204460492503136
vn -1 0 -2.2204460492503136
vn 0 1 0
vn 0 1 0
vn 1 0 0
vn -1 0 -2.2204460492503136
vn -2.2204460492503136 0 1
vn -2.2204460492503146 0 -1
vn 0 1 0
vn 0 1 0
vn 2.2204460492503136 0 -1
vn -2.2204460492503136 0 1
vn 1 0 2.2204460492503136
vn -1 0 -2.2204460492503136
vn 0 1 0
vn 0 1 0
vn 1 0 -4.93038065763132432
vn -1 0 -2.2204460492503136
vn 0 0 1
vn 1.11022302462515656 0 -1
vn 0 1 0
vn 0 1 0
vn 2.2204460492503136 0 -1
vn -6.6613381477509376 0 1
vn 1 0 2.2204460492503136
vn -1 0 -4.4408920985006266
vn 0 1 0
vn 0 1 0
usemtl m_f5e75d8e-4c22-ddfe-0806-5f61c9c32970
f 34/97/25 33/98/25 39/99/25 40/100/25
f 38/101/26 35/102/26 36/103/26 37/104/26
f 39/105/27 33/106/27 35/107/27 38/108/27
f 36/109/28 34/110/28 40/111/28 37/112/28
f 36/113/29 35/114/29 33/115/29 34/116/29
f 37/117/30 38/118/30 39/119/30 40/120/30
f 42/121/31 41/122/31 47/123/31 48/124/31
f 46/125/32 43/126/32 44/127/32 45/128/32
f 47/129/33 41/130/33 43/131/33 46/132/33
f 44/133/34 42/134/34 48/135/34 45/136/34
f 44/137/35 43/138/35 41/139/35 42/140/35
f 45/141/36 46/142/36 47/143/36 48/144/36
f 50/145/37 49/146/37 55/147/37 56/148/37
f 54/149/38 51/150/38 52/151/38 53/152/38
f 55/153/39 49/154/39 51/155/39 54/156/39
f 52/157/40 50/158/40 56/159/40 53/160/40
f 52/161/41 51/162/41 49/163/41 50/164/41
f 53/165/42 54/166/42 55/167/42 56/168/42
f 58/169/43 57/170/43 63/171/43 64/172/43
f 62/173/44 59/174/44 60/175/44 61/176/44
f 63/177/45 57/178/45 59/179/45 62/180/45
f 60/181/46 58/182/46 64/183/46 61/184/46
f 60/185/47 59/186/47 57/187/47 58/188/47
f 61/189/48 62/190/48 63/191/48 64/192/48
f 66/193/49 65/194/49 71/195/49 72/196/49
f 70/197/50 67/198/50 68/199/50 69/200/50
f 71/201/51 65/202/51 67/203/51 70/204/51
f 68/205/52 66/206/52 72/207/52 69/208/52
f 68/209/53 67/210/53 65/211/53 66/212/53
f 69/213/54 70/214/54 71/215/54 72/216/54