# Made in Blockbench 5.1.6
mtllib mruReactor_btm.mtl

o default
o pCube1
v -0.5 0 0.5
v -0.375 0 0.5
v -0.375 0.1 0.5
v -0.5 0.1 0.5
v -0.25 0 0.5
v -0.25 0.1 0.5
v -0.125 0 0.5
v -0.125 0.1 0.5
v 0 0 0.5
v 0 0.1 0.5
v 0.125 0 0.5
v 0.125 0.1 0.5
v 0.25 0 0.5
v 0.25 0.1 0.5
v 0.375 0 0.5
v 0.375 0.1 0.5
v 0.5 0 0.5
v 0.5 0.1 0.5
v -0.375 0.2 0.5
v -0.5 0.2 0.5
v -0.25 0.2 0.5
v -0.125 0.2 0.5
v 0 0.2 0.5
v 0.125 0.2 0.5
v 0.25 0.2 0.5
v 0.375 0.2 0.5
v 0.5 0.2 0.5
v -0.375 0.2 0.375
v -0.5 0.2 0.375
v -0.25 0.2 0.375
v -0.125 0.2 0.375
v 0 0.2 0.375
v 0.125 0.2 0.375
v 0.25 0.2 0.375
v 0.375 0.2 0.375
v 0.5 0.2 0.375
v -0.375 0.2 0.25
v -0.5 0.2 0.25
v -0.25 0.2 0.25
v -0.125 0.2 0.25
v 0 0.2 0.25
v 0.125 0.2 0.25
v 0.25 0.2 0.25
v 0.375 0.2 0.25
v 0.5 0.2 0.25
v -0.375 0.2 0.125
v -0.5 0.2 0.125
v -0.25 0.2 0.125
v -0.25 0.4 0.25
v -0.125 0.4 0.25
v -0.125 0.4 0.125
v -0.25 0.4 0.125
v 0 0.2 0.125
v -0.125 0.2 0.125
v 0.125 0.2 0.125
v 0.125 0.4 0.25
v 0.25 0.4 0.25
v 0.25 0.4 0.125
v 0.125 0.4 0.125
v 0.375 0.2 0.125
v 0.25 0.2 0.125
v 0.5 0.2 0.125
v -0.375 0.2 0
v -0.5 0.2 0
v -0.25 0.2 0
v -0.125 0.2 0
v -0.125 0.6 0.125
v 0 0.6 0.125
v 0 0.6 0
v -0.125 0.6 0
v 0.125 0.6 0.125
v 0.125 0.6 0
v 0.25 0.2 0
v 0.125 0.2 0
v 0.375 0.2 0
v 0.5 0.2 0
v -0.375 0.2 -0.125
v -0.5 0.2 -0.125
v -0.25 0.2 -0.125
v -0.125 0.2 -0.125
v 0 0.6 -0.125
v -0.125 0.6 -0.125
v 0.125 0.6 -0.125
v 0.25 0.2 -0.125
v 0.125 0.2 -0.125
v 0.375 0.2 -0.125
v 0.5 0.2 -0.125
v -0.375 0.2 -0.25
v -0.5 0.2 -0.25
v -0.25 0.2 -0.25
v -0.25 0.4 -0.125
v -0.125 0.4 -0.125
v -0.125 0.4 -0.25
v -0.25 0.4 -0.25
v 0 0.2 -0.125
v 0 0.2 -0.25
v -0.125 0.2 -0.25
v 0.125 0.2 -0.25
v 0.125 0.4 -0.125
v 0.25 0.4 -0.125
v 0.25 0.4 -0.25
v 0.125 0.4 -0.25
v 0.375 0.2 -0.25
v 0.25 0.2 -0.25
v 0.5 0.2 -0.25
v -0.375 0.2 -0.375
v -0.5 0.2 -0.375
v -0.25 0.2 -0.375
v -0.125 0.2 -0.375
v 0 0.2 -0.375
v 0.125 0.2 -0.375
v 0.25 0.2 -0.375
v 0.375 0.2 -0.375
v 0.5 0.2 -0.375
v -0.375 0.2 -0.5
v -0.5 0.2 -0.5
v -0.25 0.2 -0.5
v -0.125 0.2 -0.5
v 0 0.2 -0.5
v 0.125 0.2 -0.5
v 0.25 0.2 -0.5
v 0.375 0.2 -0.5
v 0.5 0.2 -0.5
v -0.375 0.1 -0.5
v -0.5 0.1 -0.5
v -0.25 0.1 -0.5
v -0.125 0.1 -0.5
v 0 0.1 -0.5
v 0.125 0.1 -0.5
v 0.25 0.1 -0.5
v 0.375 0.1 -0.5
v 0.5 0.1 -0.5
v -0.375 0 -0.5
v -0.5 0 -0.5
v -0.25 0 -0.5
v -0.125 0 -0.5
v 0 0 -0.5
v 0.125 0 -0.5
v 0.25 0 -0.5
v 0.375 0 -0.5
v 0.5 0 -0.5
v -0.375 0 -0.375
v -0.5 0 -0.375
v -0.25 0 -0.375
v -0.125 0 -0.375
v 0 0 -0.375
v 0.125 0 -0.375
v 0.25 0 -0.375
v 0.375 0 -0.375
v 0.5 0 -0.375
v -0.375 0 -0.25
v -0.5 0 -0.25
v -0.25 0 -0.25
v -0.125 0 -0.25
v 0 0 -0.25
v 0.125 0 -0.25
v 0.25 0 -0.25
v 0.375 0 -0.25
v 0.5 0 -0.25
v -0.375 0 -0.125
v -0.5 0 -0.125
v -0.25 0 -0.125
v -0.125 0 -0.125
v 0 0 -0.125
v 0.125 0 -0.125
v 0.25 0 -0.125
v 0.375 0 -0.125
v 0.5 0 -0.125
v -0.375 0 0
v -0.5 0 0
v -0.25 0 0
v -0.125 0 0
v 0 0 0
v 0.125 0 0
v 0.25 0 0
v 0.375 0 0
v 0.5 0 0
v -0.375 0 0.125
v -0.5 0 0.125
v -0.25 0 0.125
v -0.125 0 0.125
v 0 0 0.125
v 0.125 0 0.125
v 0.25 0 0.125
v 0.375 0 0.125
v 0.5 0 0.125
v -0.375 0 0.25
v -0.5 0 0.25
v -0.25 0 0.25
v -0.125 0 0.25
v 0 0 0.25
v 0.125 0 0.25
v 0.25 0 0.25
v 0.375 0 0.25
v 0.5 0 0.25
v -0.375 0 0.375
v -0.5 0 0.375
v -0.25 0 0.375
v -0.125 0 0.375
v 0 0 0.375
v 0.125 0 0.375
v 0.25 0 0.375
v 0.375 0 0.375
v 0.5 0 0.375
v 0.5 0.1 -0.375
v 0.5 0.1 -0.25
v 0.5 0.1 -0.125
v 0.5 0.1 0
v 0.5 0.1 0.125
v 0.5 0.1 0.25
v 0.5 0.1 0.375
v -0.5 0.1 -0.375
v -0.5 0.1 -0.25
v -0.5 0.1 -0.125
v -0.5 0.1 0
v -0.5 0.1 0.125
v -0.5 0.1 0.25
v -0.5 0.1 0.375
v 0 0.4 0.125
v -0.125 0.4 0.125
v -0.125 0.4 0
v 0.125 0.4 0.125
v 0.125 0.4 0
v -0.125 0.4 -0.125
v 0 0.4 -0.125
v 0.125 0.4 -0.125
vt 0.25 0
vt 0.28125 0
vt 0.28125 0.03125
vt 0.25 0.03125
vt 0.28125 0
vt 0.3125 0
vt 0.3125 0.03125
vt 0.28125 0.03125
vt 0.3125 0
vt 0.34375 0
vt 0.34375 0.03125
vt 0.3125 0.03125
vt 0.34375 0
vt 0.375 0
vt 0.375 0.03125
vt 0.34375 0.03125
vt 0.375 0
vt 0.40625 0
vt 0.40625 0.03125
vt 0.375 0.03125
vt 0.40625 0
vt 0.4375 0
vt 0.4375 0.03125
vt 0.40625 0.03125
vt 0.4375 0
vt 0.46875 0
vt 0.46875 0.03125
vt 0.4375 0.03125
vt 0.46875 0
vt 0.5 0
vt 0.5 0.03125
vt 0.46875 0.03125
vt 0.25 0.21875
vt 0.28125 0.21875
vt 0.28125 0.25
vt 0.25 0.25
vt 0.28125 0.21875
vt 0.3125 0.21875
vt 0.3125 0.25
vt 0.28125 0.25
vt 0.3125 0.21875
vt 0.34375 0.21875
vt 0.34375 0.25
vt 0.3125 0.25
vt 0.34375 0.21875
vt 0.375 0.21875
vt 0.375 0.25
vt 0.34375 0.25
vt 0.375 0.21875
vt 0.40625 0.21875
vt 0.40625 0.25
vt 0.375 0.25
vt 0.40625 0.21875
vt 0.4375 0.21875
vt 0.4375 0.25
vt 0.40625 0.25
vt 0.4375 0.21875
vt 0.46875 0.21875
vt 0.46875 0.25
vt 0.4375 0.25
vt 0.46875 0.21875
vt 0.5 0.21875
vt 0.5 0.25
vt 0.46875 0.25
vt 0.249991875 0.25
vt 0.281241875 0.25
vt 0.281241875 0.28125
vt 0.249991875 0.28125
vt 0.281241875 0.25
vt 0.312491875 0.25
vt 0.312491875 0.28125
vt 0.281241875 0.28125
vt 0.312491875 0.25
vt 0.343741875 0.25
vt 0.343741875 0.28125
vt 0.312491875 0.28125
vt 0.343741875 0.25
vt 0.374991875 0.25
vt 0.374991875 0.28125
vt 0.343741875 0.28125
vt 0.374991875 0.25
vt 0.406241875 0.25
vt 0.406241875 0.28125
vt 0.374991875 0.28125
vt 0.406241875 0.25
vt 0.437491875 0.25
vt 0.437491875 0.28125
vt 0.406241875 0.28125
vt 0.437491875 0.25
vt 0.468741875 0.25
vt 0.468741875 0.28125
vt 0.437491875 0.28125
vt 0.468741875 0.25
vt 0.499991875 0.25
vt 0.499991875 0.28125
vt 0.468741875 0.28125
vt 0.249991875 0.28125
vt 0.281241875 0.28125
vt 0.281241875 0.3125
vt 0.249991875 0.3125
vt 0.281241875 0.28125
vt 0.312491875 0.28125
vt 0.312491875 0.3125
vt 0.281241875 0.3125
vt 0.312491875 0.28125
vt 0.343741875 0.28125
vt 0.343741875 0.3125
vt 0.312491875 0.3125
vt 0.343741875 0.28125
vt 0.374991875 0.28125
vt 0.374991875 0.3125
vt 0.343741875 0.3125
vt 0.374991875 0.28125
vt 0.406241875 0.28125
vt 0.406241875 0.3125
vt 0.374991875 0.3125
vt 0.406241875 0.28125
vt 0.437491875 0.28125
vt 0.437491875 0.3125
vt 0.406241875 0.3125
vt 0.437491875 0.28125
vt 0.468741875 0.28125
vt 0.468741875 0.3125
vt 0.437491875 0.3125
vt 0.468741875 0.28125
vt 0.499991875 0.28125
vt 0.499991875 0.3125
vt 0.468741875 0.3125
vt 0.249991875 0.3125
vt 0.281241875 0.3125
vt 0.281241875 0.34375
vt 0.249991875 0.34375
vt 0.281241875 0.3125
vt 0.312491875 0.3125
vt 0.312491875 0.34375
vt 0.281241875 0.34375
vt 0.312491875 0.3125
vt 0.343741875 0.3125
vt 0.343741875 0.34375
vt 0.312491875 0.34375
vt 0.343741875 0.3125
vt 0.374991875 0.3125
vt 0.374991875 0.34375
vt 0.343741875 0.34375
vt 0.374991875 0.3125
vt 0.406241875 0.3125
vt 0.406241875 0.34375
vt 0.374991875 0.34375
vt 0.406241875 0.3125
vt 0.437491875 0.3125
vt 0.437491875 0.34375
vt 0.406241875 0.34375
vt 0.437491875 0.3125
vt 0.468741875 0.3125
vt 0.468741875 0.34375
vt 0.437491875 0.34375
vt 0.468741875 0.3125
vt 0.499991875 0.3125
vt 0.499991875 0.34375
vt 0.468741875 0.34375
vt 0.249991875 0.34375
vt 0.281241875 0.34375
vt 0.281241875 0.375
vt 0.249991875 0.375
vt 0.281241875 0.34375
vt 0.312491875 0.34375
vt 0.312491875 0.375
vt 0.281241875 0.375
vt 0.312491875 0.34375
vt 0.343741875 0.34375
vt 0.343741875 0.375
vt 0.312491875 0.375
vt 0.343741875 0.34375
vt 0.374991875 0.34375
vt 0.374991875 0.375
vt 0.343741875 0.375
vt 0.374991875 0.34375
vt 0.406241875 0.34375
vt 0.406241875 0.375
vt 0.374991875 0.375
vt 0.406241875 0.34375
vt 0.437491875 0.34375
vt 0.437491875 0.375
vt 0.406241875 0.375
vt 0.437491875 0.34375
vt 0.468741875 0.34375
vt 0.468741875 0.375
vt 0.437491875 0.375
vt 0.468741875 0.34375
vt 0.499991875 0.34375
vt 0.499991875 0.375
vt 0.468741875 0.375
vt 0.249991875 0.375
vt 0.281241875 0.375
vt 0.281241875 0.40625
vt 0.249991875 0.40625
vt 0.281241875 0.375
vt 0.312491875 0.375
vt 0.312491875 0.40625
vt 0.281241875 0.40625
vt 0.312491875 0.375
vt 0.343741875 0.375
vt 0.343741875 0.40625
vt 0.312491875 0.40625
vt 0.343741875 0.375
vt 0.374991875 0.375
vt 0.374991875 0.40625
vt 0.343741875 0.40625
vt 0.374991875 0.375
vt 0.406241875 0.375
vt 0.406241875 0.40625
vt 0.374991875 0.40625
vt 0.406241875 0.375
vt 0.437491875 0.375
vt 0.437491875 0.40625
vt 0.406241875 0.40625
vt 0.437491875 0.375
vt 0.468741875 0.375
vt 0.468741875 0.40625
vt 0.437491875 0.40625
vt 0.468741875 0.375
vt 0.499991875 0.375
vt 0.499991875 0.40625
vt 0.468741875 0.40625
vt 0.249991875 0.40625
vt 0.281241875 0.40625
vt 0.281241875 0.4375
vt 0.249991875 0.4375
vt 0.281241875 0.40625
vt 0.312491875 0.40625
vt 0.312491875 0.4375
vt 0.281241875 0.4375
vt 0.312491875 0.40625
vt 0.343741875 0.40625
vt 0.343741875 0.4375
vt 0.312491875 0.4375
vt 0.343741875 0.40625
vt 0.374991875 0.40625
vt 0.374991875 0.4375
vt 0.343741875 0.4375
vt 0.374991875 0.40625
vt 0.406241875 0.40625
vt 0.406241875 0.4375
vt 0.374991875 0.4375
vt 0.406241875 0.40625
vt 0.437491875 0.40625
vt 0.437491875 0.4375
vt 0.406241875 0.4375
vt 0.437491875 0.40625
vt 0.468741875 0.40625
vt 0.468741875 0.4375
vt 0.437491875 0.4375
vt 0.468741875 0.40625
vt 0.499991875 0.40625
vt 0.499991875 0.4375
vt 0.468741875 0.4375
vt 0.249991875 0.4375
vt 0.281241875 0.4375
vt 0.281241875 0.46875
vt 0.249991875 0.46875
vt 0.281241875 0.4375
vt 0.312491875 0.4375
vt 0.312491875 0.46875
vt 0.281241875 0.46875
vt 0.312491875 0.4375
vt 0.343741875 0.4375
vt 0.343741875 0.46875
vt 0.312491875 0.46875
vt 0.343741875 0.4375
vt 0.374991875 0.4375
vt 0.374991875 0.46875
vt 0.343741875 0.46875
vt 0.374991875 0.4375
vt 0.406241875 0.4375
vt 0.406241875 0.46875
vt 0.374991875 0.46875
vt 0.406241875 0.4375
vt 0.437491875 0.4375
vt 0.437491875 0.46875
vt 0.406241875 0.46875
vt 0.437491875 0.4375
vt 0.468741875 0.4375
vt 0.468741875 0.46875
vt 0.437491875 0.46875
vt 0.468741875 0.4375
vt 0.499991875 0.4375
vt 0.499991875 0.46875
vt 0.468741875 0.46875
vt 0.249991875 0.46875
vt 0.281241875 0.46875
vt 0.281241875 0.5
vt 0.249991875 0.5
vt 0.281241875 0.46875
vt 0.312491875 0.46875
vt 0.312491875 0.5
vt 0.281241875 0.5
vt 0.312491875 0.46875
vt 0.343741875 0.46875
vt 0.343741875 0.5
vt 0.312491875 0.5
vt 0.343741875 0.46875
vt 0.374991875 0.46875
vt 0.374991875 0.5
vt 0.343741875 0.5
vt 0.374991875 0.46875
vt 0.406241875 0.46875
vt 0.406241875 0.5
vt 0.374991875 0.5
vt 0.406241875 0.46875
vt 0.437491875 0.46875
vt 0.437491875 0.5
vt 0.406241875 0.5
vt 0.437491875 0.46875
vt 0.468741875 0.46875
vt 0.468741875 0.5
vt 0.437491875 0.5
vt 0.468741875 0.46875
vt 0.499991875 0.46875
vt 0.499991875 0.5
vt 0.468741875 0.5
vt 0.25 0.5
vt 0.28125 0.5
vt 0.28125 0.53125
vt 0.25 0.53125
vt 0.28125 0.5
vt 0.3125 0.5
vt 0.3125 0.53125
vt 0.28125 0.53125
vt 0.3125 0.5
vt 0.34375 0.5
vt 0.34375 0.53125
vt 0.3125 0.53125
vt 0.34375 0.5
vt 0.375 0.5
vt 0.375 0.53125
vt 0.34375 0.53125
vt 0.375 0.5
vt 0.40625 0.5
vt 0.40625 0.53125
vt 0.375 0.53125
vt 0.40625 0.5
vt 0.4375 0.5
vt 0.4375 0.53125
vt 0.40625 0.53125
vt 0.4375 0.5
vt 0.46875 0.5
vt 0.46875 0.53125
vt 0.4375 0.53125
vt 0.46875 0.5
vt 0.5 0.5
vt 0.5 0.53125
vt 0.46875 0.53125
vt 0.25 0.71875
vt 0.28125 0.71875
vt 0.281241875 0.75
vt 0.249991875 0.75
vt 0.28125 0.71875
vt 0.3125 0.71875
vt 0.312491875 0.75
vt 0.281241875 0.75
vt 0.3125 0.71875
vt 0.34375 0.71875
vt 0.343741875 0.75
vt 0.312491875 0.75
vt 0.34375 0.71875
vt 0.375 0.71875
vt 0.374991875 0.75
vt 0.343741875 0.75
vt 0.375 0.71875
vt 0.40625 0.71875
vt 0.406241875 0.75
vt 0.374991875 0.75
vt 0.40625 0.71875
vt 0.4375 0.71875
vt 0.437491875 0.75
vt 0.406241875 0.75
vt 0.4375 0.71875
vt 0.46875 0.71875
vt 0.468741875 0.75
vt 0.437491875 0.75
vt 0.46875 0.71875
vt 0.5 0.71875
vt 0.499991875 0.75
vt 0.468741875 0.75
vt 0.249991875 0.75
vt 0.281241875 0.75
vt 0.281241875 0.78125
vt 0.249991875 0.78125
vt 0.281241875 0.75
vt 0.312491875 0.75
vt 0.312491875 0.78125
vt 0.281241875 0.78125
vt 0.312491875 0.75
vt 0.343741875 0.75
vt 0.343741875 0.78125
vt 0.312491875 0.78125
vt 0.343741875 0.75
vt 0.374991875 0.75
vt 0.374991875 0.78125
vt 0.343741875 0.78125
vt 0.374991875 0.75
vt 0.406241875 0.75
vt 0.406241875 0.78125
vt 0.374991875 0.78125
vt 0.406241875 0.75
vt 0.437491875 0.75
vt 0.437491875 0.78125
vt 0.406241875 0.78125
vt 0.437491875 0.75
vt 0.468741875 0.75
vt 0.468741875 0.78125
vt 0.437491875 0.78125
vt 0.468741875 0.75
vt 0.499991875 0.75
vt 0.499991875 0.78125
vt 0.468741875 0.78125
vt 0.249991875 0.78125
vt 0.281241875 0.78125
vt 0.281241875 0.8125
vt 0.249991875 0.8125
vt 0.281241875 0.78125
vt 0.312491875 0.78125
vt 0.312491875 0.8125
vt 0.281241875 0.8125
vt 0.312491875 0.78125
vt 0.343741875 0.78125
vt 0.343741875 0.8125
vt 0.312491875 0.8125
vt 0.343741875 0.78125
vt 0.374991875 0.78125
vt 0.374991875 0.8125
vt 0.343741875 0.8125
vt 0.374991875 0.78125
vt 0.406241875 0.78125
vt 0.406241875 0.8125
vt 0.374991875 0.8125
vt 0.406241875 0.78125
vt 0.437491875 0.78125
vt 0.437491875 0.8125
vt 0.406241875 0.8125
vt 0.437491875 0.78125
vt 0.468741875 0.78125
vt 0.468741875 0.8125
vt 0.437491875 0.8125
vt 0.468741875 0.78125
vt 0.499991875 0.78125
vt 0.499991875 0.8125
vt 0.468741875 0.8125
vt 0.249991875 0.8125
vt 0.281241875 0.8125
vt 0.281241875 0.84375
vt 0.249991875 0.84375
vt 0.281241875 0.8125
vt 0.312491875 0.8125
vt 0.312491875 0.84375
vt 0.281241875 0.84375
vt 0.312491875 0.8125
vt 0.343741875 0.8125
vt 0.343741875 0.84375
vt 0.312491875 0.84375
vt 0.343741875 0.8125
vt 0.374991875 0.8125
vt 0.374991875 0.84375
vt 0.343741875 0.84375
vt 0.374991875 0.8125
vt 0.406241875 0.8125
vt 0.406241875 0.84375
vt 0.374991875 0.84375
vt 0.406241875 0.8125
vt 0.437491875 0.8125
vt 0.437491875 0.84375
vt 0.406241875 0.84375
vt 0.437491875 0.8125
vt 0.468741875 0.8125
vt 0.468741875 0.84375
vt 0.437491875 0.84375
vt 0.468741875 0.8125
vt 0.499991875 0.8125
vt 0.499991875 0.84375
vt 0.468741875 0.84375
vt 0.249991875 0.84375
vt 0.281241875 0.84375
vt 0.281241875 0.875
vt 0.249991875 0.875
vt 0.281241875 0.84375
vt 0.312491875 0.84375
vt 0.312491875 0.875
vt 0.281241875 0.875
vt 0.312491875 0.84375
vt 0.343741875 0.84375
vt 0.343741875 0.875
vt 0.312491875 0.875
vt 0.343741875 0.84375
vt 0.374991875 0.84375
vt 0.374991875 0.875
vt 0.343741875 0.875
vt 0.374991875 0.84375
vt 0.406241875 0.84375
vt 0.406241875 0.875
vt 0.374991875 0.875
vt 0.406241875 0.84375
vt 0.437491875 0.84375
vt 0.437491875 0.875
vt 0.406241875 0.875
vt 0.437491875 0.84375
vt 0.468741875 0.84375
vt 0.468741875 0.875
vt 0.437491875 0.875
vt 0.468741875 0.84375
vt 0.499991875 0.84375
vt 0.499991875 0.875
vt 0.468741875 0.875
vt 0.249991875 0.875
vt 0.281241875 0.875
vt 0.281241875 0.90625
vt 0.249991875 0.90625
vt 0.281241875 0.875
vt 0.312491875 0.875
vt 0.312491875 0.90625
vt 0.281241875 0.90625
vt 0.312491875 0.875
vt 0.343741875 0.875
vt 0.343741875 0.90625
vt 0.312491875 0.90625
vt 0.343741875 0.875
vt 0.374991875 0.875
vt 0.374991875 0.90625
vt 0.343741875 0.90625
vt 0.374991875 0.875
vt 0.406241875 0.875
vt 0.406241875 0.90625
vt 0.374991875 0.90625
vt 0.406241875 0.875
vt 0.437491875 0.875
vt 0.437491875 0.90625
vt 0.406241875 0.90625
vt 0.437491875 0.875
vt 0.468741875 0.875
vt 0.468741875 0.90625
vt 0.437491875 0.90625
vt 0.468741875 0.875
vt 0.499991875 0.875
vt 0.499991875 0.90625
vt 0.468741875 0.90625
vt 0.249991875 0.90625
vt 0.281241875 0.90625
vt 0.281241875 0.9375
vt 0.249991875 0.9375
vt 0.281241875 0.90625
vt 0.312491875 0.90625
vt 0.312491875 0.9375
vt 0.281241875 0.9375
vt 0.312491875 0.90625
vt 0.343741875 0.90625
vt 0.343741875 0.9375
vt 0.312491875 0.9375
vt 0.343741875 0.90625
vt 0.374991875 0.90625
vt 0.374991875 0.9375
vt 0.343741875 0.9375
vt 0.374991875 0.90625
vt 0.406241875 0.90625
vt 0.406241875 0.9375
vt 0.374991875 0.9375
vt 0.406241875 0.90625
vt 0.437491875 0.90625
vt 0.437491875 0.9375
vt 0.406241875 0.9375
vt 0.437491875 0.90625
vt 0.468741875 0.90625
vt 0.468741875 0.9375
vt 0.437491875 0.9375
vt 0.468741875 0.90625
vt 0.499991875 0.90625
vt 0.499991875 0.9375
vt 0.468741875 0.9375
vt 0.249991875 0.9375
vt 0.281241875 0.9375
vt 0.281241875 0.96875
vt 0.249991875 0.96875
vt 0.281241875 0.9375
vt 0.312491875 0.9375
vt 0.312491875 0.96875
vt 0.281241875 0.96875
vt 0.312491875 0.9375
vt 0.343741875 0.9375
vt 0.343741875 0.96875
vt 0.312491875 0.96875
vt 0.343741875 0.9375
vt 0.374991875 0.9375
vt 0.374991875 0.96875
vt 0.343741875 0.96875
vt 0.374991875 0.9375
vt 0.406241875 0.9375
vt 0.406241875 0.96875
vt 0.374991875 0.96875
vt 0.406241875 0.9375
vt 0.437491875 0.9375
vt 0.437491875 0.96875
vt 0.406241875 0.96875
vt 0.437491875 0.9375
vt 0.468741875 0.9375
vt 0.468741875 0.96875
vt 0.437491875 0.96875
vt 0.468741875 0.9375
vt 0.499991875 0.9375
vt 0.499991875 0.96875
vt 0.468741875 0.96875
vt 0.249991875 0.96875
vt 0.281241875 0.96875
vt 0.281241875 1
vt 0.249991875 1
vt 0.281241875 0.96875
vt 0.312491875 0.96875
vt 0.312491875 1
vt 0.281241875 1
vt 0.312491875 0.96875
vt 0.343741875 0.96875
vt 0.343741875 1
vt 0.312491875 1
vt 0.343741875 0.96875
vt 0.374991875 0.96875
vt 0.374991875 1
vt 0.343741875 1
vt 0.374991875 0.96875
vt 0.406241875 0.96875
vt 0.406241875 1
vt 0.374991875 1
vt 0.406241875 0.96875
vt 0.437491875 0.96875
vt 0.437491875 1
vt 0.406241875 1
vt 0.437491875 0.96875
vt 0.468741875 0.96875
vt 0.468741875 1
vt 0.437491875 1
vt 0.468741875 0.96875
vt 0.499991875 0.96875
vt 0.499991875 1
vt 0.468741875 1
vt 0.71875 0
vt 0.75 0
vt 0.75 0.03125
vt 0.71875 0.03125
vt 0.6875 0
vt 0.71875 0
vt 0.71875 0.03125
vt 0.6875 0.03125
vt 0.65625 0
vt 0.6875 0
vt 0.6875 0.03125
vt 0.65625 0.03125
vt 0.625 0
vt 0.65625 0
vt 0.65625 0.03125
vt 0.625 0.03125
vt 0.59375 0
vt 0.625 0
vt 0.625 0.03125
vt 0.59375 0.03125
vt 0.5625 0
vt 0.59375 0
vt 0.59375 0.03125
vt 0.5625 0.03125
vt 0.53125 0
vt 0.5625 0
vt 0.5625 0.03125
vt 0.53125 0.03125
vt 0.499991875 0
vt 0.53125 0
vt 0.53125 0.03125
vt 0.499991875 0.03125
vt 0.71875 0.21875
vt 0.75 0.21875
vt 0.75 0.25
vt 0.71875 0.25
vt 0.6875 0.21875
vt 0.71875 0.21875
vt 0.71875 0.25
vt 0.6875 0.25
vt 0.65625 0.21875
vt 0.6875 0.21875
vt 0.6875 0.25
vt 0.65625 0.25
vt 0.625 0.21875
vt 0.65625 0.21875
vt 0.65625 0.25
vt 0.625 0.25
vt 0.59375 0.21875
vt 0.625 0.21875
vt 0.625 0.25
vt 0.59375 0.25
vt 0.5625 0.21875
vt 0.59375 0.21875
vt 0.59375 0.25
vt 0.5625 0.25
vt 0.53125 0.21875
vt 0.5625 0.21875
vt 0.5625 0.25
vt 0.53125 0.25
vt 0.499991875 0.21875
vt 0.53125 0.21875
vt 0.53125 0.25
vt 0.499991875 0.25
vt 0 0
vt 0.03125 0
vt 0.03125 0.03125
vt 0 0.03125
vt 0.03125 0
vt 0.0625 0
vt 0.0625 0.03125
vt 0.03125 0.03125
vt 0.0625 0
vt 0.09375 0
vt 0.09375 0.03125
vt 0.0625 0.03125
vt 0.09375 0
vt 0.125 0
vt 0.125 0.03125
vt 0.09375 0.03125
vt 0.125 0
vt 0.15625 0
vt 0.15625 0.03125
vt 0.125 0.03125
vt 0.15625 0
vt 0.1875 0
vt 0.1875 0.03125
vt 0.15625 0.03125
vt 0.1875 0
vt 0.21875 0
vt 0.21875 0.03125
vt 0.1875 0.03125
vt 0.21875 0
vt 0.25 0
vt 0.25 0.03125
vt 0.21875 0.03125
vt 0 0.21875
vt 0.03125 0.21875
vt 0.03125 0.25
vt 0 0.25
vt 0.03125 0.21875
vt 0.0625 0.21875
vt 0.0625 0.25
vt 0.03125 0.25
vt 0.0625 0.21875
vt 0.09375 0.21875
vt 0.09375 0.25
vt 0.0625 0.25
vt 0.09375 0.21875
vt 0.125 0.21875
vt 0.125 0.25
vt 0.09375 0.25
vt 0.125 0.21875
vt 0.15625 0.21875
vt 0.15625 0.25
vt 0.125 0.25
vt 0.15625 0.21875
vt 0.1875 0.21875
vt 0.1875 0.25
vt 0.15625 0.25
vt 0.1875 0.21875
vt 0.21875 0.21875
vt 0.21875 0.25
vt 0.1875 0.25
vt 0.21875 0.21875
vt 0.25 0.21875
vt 0.25 0.25
vt 0.21875 0.25
vt 0.15355625 0.06503499999999995
vt 0.1797525 0.06507624999999995
vt 0.179549375 0.114803125
vt 0.1534875 0.11484187499999998
vt 0.15355625 0.06503499999999995
vt 0.1797525 0.06507624999999995
vt 0.179549375 0.114803125
vt 0.1534875 0.11484187499999998
vt 0.15355625 0.06503499999999995
vt 0.1797525 0.06507624999999995
vt 0.179549375 0.114803125
vt 0.1534875 0.11484187499999998
vt 0.15355625 0.06503499999999995
vt 0.1797525 0.06507624999999995
vt 0.179549375 0.114803125
vt 0.1534875 0.11484187499999998
vt 0.15355625 0.06503499999999995
vt 0.1797525 0.06507624999999995
vt 0.179549375 0.114803125
vt 0.1534875 0.11484187499999998
vt 0.15355625 0.06503499999999995
vt 0.1797525 0.06507624999999995
vt 0.179549375 0.114803125
vt 0.1534875 0.11484187499999998
vt 0.15355625 0.06503499999999995
vt 0.1797525 0.06507624999999995
vt 0.179549375 0.114803125
vt 0.1534875 0.11484187499999998
vt 0.15355625 0.06503499999999995
vt 0.1797525 0.06507624999999995
vt 0.179549375 0.114803125
vt 0.1534875 0.11484187499999998
vt 0.10319875 0.066784375
vt 0.1276775 0.06681999999999999
vt 0.12773625 0.11315249999999999
vt 0.103374375 0.11318562499999996
vt 0.1276775 0.06681999999999999
vt 0.1520825 0.06685562499999997
vt 0.152025625 0.11311875000000005
vt 0.12773625 0.11315249999999999
vt 0.1276775 0.06681999999999999
vt 0.1520825 0.06685562499999997
vt 0.152025625 0.11311875000000005
vt 0.12773625 0.11315249999999999
vt 0.10319875 0.066784375
vt 0.1276775 0.06681999999999999
vt 0.12773625 0.11315249999999999
vt 0.103374375 0.11318562499999996
vt 0.1276775 0.06681999999999999
vt 0.1520825 0.06685562499999997
vt 0.152025625 0.11311875000000005
vt 0.12773625 0.11315249999999999
vt 0.10319875 0.066784375
vt 0.1276775 0.06681999999999999
vt 0.12773625 0.11315249999999999
vt 0.103374375 0.11318562499999996
vt 0.1276775 0.06681999999999999
vt 0.1520825 0.06685562499999997
vt 0.152025625 0.11311875000000005
vt 0.12773625 0.11315249999999999
vt 0.10319875 0.066784375
vt 0.1276775 0.06681999999999999
vt 0.12773625 0.11315249999999999
vt 0.103374375 0.11318562499999996
vt 0.15355625 0.06503499999999995
vt 0.1797525 0.06507624999999995
vt 0.179549375 0.114803125
vt 0.1534875 0.11484187499999998
vt 0.15355625 0.06503499999999995
vt 0.1797525 0.06507624999999995
vt 0.179549375 0.114803125
vt 0.1534875 0.11484187499999998
vt 0.15355625 0.06503499999999995
vt 0.1797525 0.06507624999999995
vt 0.179549375 0.114803125
vt 0.1534875 0.11484187499999998
vt 0.074460625 0.06491124999999998
vt 0.10091125 0.06495312499999994
vt 0.1011125 0.11492000000000002
vt 0.07479875 0.11495937499999997
vt 0.15355625 0.06503499999999995
vt 0.1797525 0.06507624999999995
vt 0.179549375 0.114803125
vt 0.1534875 0.11484187499999998
vt 0.15355625 0.06503499999999995
vt 0.1797525 0.06507624999999995
vt 0.179549375 0.114803125
vt 0.1534875 0.11484187499999998
vt 0.15355625 0.06503499999999995
vt 0.1797525 0.06507624999999995
vt 0.179549375 0.114803125
vt 0.1534875 0.11484187499999998
vt 0.15355625 0.06503499999999995
vt 0.1797525 0.06507624999999995
vt 0.179549375 0.114803125
vt 0.1534875 0.11484187499999998
vt 0.103374375 0.11318562499999996
vt 0.12773625 0.11315249999999999
vt 0.127795 0.159045
vt 0.10354875 0.15914625000000004
vt 0.12773625 0.11315249999999999
vt 0.152025625 0.11311875000000005
vt 0.15196875 0.15894375000000005
vt 0.127795 0.159045
vt 0.12773625 0.11315249999999999
vt 0.152025625 0.11311875000000005
vt 0.15196875 0.15894375000000005
vt 0.127795 0.159045
vt 0.103374375 0.11318562499999996
vt 0.12773625 0.11315249999999999
vt 0.127795 0.159045
vt 0.10354875 0.15914625000000004
vt 0.12773625 0.11315249999999999
vt 0.152025625 0.11311875000000005
vt 0.15196875 0.15894375000000005
vt 0.127795 0.159045
vt 0.103374375 0.11318562499999996
vt 0.12773625 0.11315249999999999
vt 0.127795 0.159045
vt 0.10354875 0.15914625000000004
vt 0.12773625 0.11315249999999999
vt 0.152025625 0.11311875000000005
vt 0.15196875 0.15894375000000005
vt 0.127795 0.159045
vt 0.103374375 0.11318562499999996
vt 0.12773625 0.11315249999999999
vt 0.127795 0.159045
vt 0.10354875 0.15914625000000004
vn 0 0 1
vn 0 0 1
vn 0 0 1
vn 0 0 1
vn 0 0 1
vn 0 0 1
vn 0 0 1
vn 0 0 1
vn 0 0 1
vn 0 0 1
vn 0 0 1
vn 0 0 1
vn 0 0 1
vn 0 0 1
vn 0 0 1
vn 0 0 1
vn 0 1 0
vn 0 1 0
vn 0 1 0
vn 0 1 0
vn 0 1 0
vn 0 1 0
vn 0 1 0
vn 0 1 0
vn 0 1 0
vn 0 1 0
vn 0 1 0
vn 0 1 0
vn 0 1 0
vn 0 1 0
vn 0 1 0
vn 0 1 0
vn 0 1 0
vn 0 1 0
vn 0 1 0
vn 0 1 0
vn 0 1 0
vn 0 1 0
vn 0 1 0
vn 0 1 0
vn 0 1 0
vn 0 1 0
vn 0 1 0
vn 0 1 0
vn 0 1 0
vn 0 1 0
vn 0 1 0
vn 0 1 0
vn 0 1 0
vn 0 1 0
vn 0 1 0
vn 0 1 0
vn 0 1 0
vn 0 1 0
vn 0 1 0
vn 0 1 0
vn 0 1 0
vn 0 1 0
vn 0 1 0
vn 0 1 0
vn 0 1 0
vn 0 1 0
vn 0 1 0
vn 0 1 0
vn 0 1 0
vn 0 1 0
vn 0 1 0
vn 0 1 0
vn 0 1 0
vn 0 1 0
vn 0 1 0
vn 0 1 0
vn 0 1 0
vn 0 1 0
vn 0 1 0
vn 0 1 0
vn 0 1 0
vn 0 1 0
vn 0 1 0
vn 0 1 0
vn 0 0 -1
vn 0 0 -1
vn 0 0 -1
vn 0 0 -1
vn 0 0 -1
vn 0 0 -1
vn 0 0 -1
vn 0 0 -1
vn 0 0 -1
vn 0 0 -1
vn 0 0 -1
vn 0 0 -1
vn 0 0 -1
vn 0 0 -1
vn 0 0 -1
vn 0 0 -1
vn 0 -1 0
vn 0 -1 0
vn 0 -1 0
vn 0 -1 0
vn 0 -1 0
vn 0 -1 0
vn 0 -1 0
vn 0 -1 0
vn 0 -1 0
vn 0 -1 0
vn 0 -1 0
vn 0 -1 0
vn 0 -1 0
vn 0 -1 0
vn 0 -1 0
vn 0 -1 0
vn 0 -1 0
vn 0 -1 0
vn 0 -1 0
vn 0 -1 0
vn 0 -1 0
vn 0 -1 0
vn 0 -1 0
vn 0 -1 0
vn 0 -1 0
vn 0 -1 0
vn 0 -1 0
vn 0 -1 0
vn 0 -1 0
vn 0 -1 0
vn 0 -1 0
vn 0 -1 0
vn 0 -1 0
vn 0 -1 0
vn 0 -1 0
vn 0 -1 0
vn 0 -1 0
vn 0 -1 0
vn 0 -1 0
vn 0 -1 0
vn 0 -1 0
vn 0 -1 0
vn 0 -1 0
vn 0 -1 0
vn 0 -1 0
vn 0 -1 0
vn 0 -1 0
vn 0 -1 0
vn 0 -1 0
vn 0 -1 0
vn 0 -1 0
vn 0 -1 0
vn 0 -1 0
vn 0 -1 0
vn 0 -1 0
vn 0 -1 0
vn 0 -1 0
vn 0 -1 0
vn 0 -1 0
vn 0 -1 0
vn 0 -1 0
vn 0 -1 0
vn 0 -1 0
vn 0 -1 0
vn 1 0 0
vn 1 0 0
vn 1 0 0
vn 1 0 0
vn 1 0 0
vn 1 0 0
vn 1 0 0
vn 1 0 0
vn 1 0 0
vn 1 0 0
vn 1 0 0
vn 1 0 0
vn 1 0 0
vn 1 0 0
vn 1 0 0
vn 1 0 0
vn -1 0 0
vn -1 0 0
vn -1 0 0
vn -1 0 0
vn -1 0 0
vn -1 0 0
vn -1 0 0
vn -1 0 0
vn -1 0 0
vn -1 0 0
vn -1 0 0
vn -1 0 0
vn -1 0 0
vn -1 0 0
vn -1 0 0
vn -1 0 0
vn 0 0 1
vn 1 0 0
vn 0 0 -1
vn -1 0 0
vn 0 0 1
vn 1 0 0
vn 0 0 -1
vn -1 0 0
vn 0 0 1
vn -1 0 0
vn 0 0 1
vn 1 0 0
vn 0 0 -1
vn -1 0 0
vn 1 0 0
vn 0 0 -1
vn 0 0 1
vn 1 0 0
vn 0 0 -1
vn -1 0 0
vn 0 0 1
vn 1 0 0
vn 0 0 -1
vn -1 0 0
vn 0 0 1
vn -1 0 0
vn 0 0 1
vn 1 0 0
vn 0 0 -1
vn -1 0 0
vn 1 0 0
vn 0 0 -1
usemtl m_ad234f33-50bc-5d0d-78b1-64bbf0090ed1
f 1/1/1 2/2/1 3/3/1 4/4/1
f 2/5/2 5/6/2 6/7/2 3/8/2
f 5/9/3 7/10/3 8/11/3 6/12/3
f 7/13/4 9/14/4 10/15/4 8/16/4
f 9/17/5 11/18/5 12/19/5 10/20/5
f 11/21/6 13/22/6 14/23/6 12/24/6
f 13/25/7 15/26/7 16/27/7 14/28/7
f 15/29/8 17/30/8 18/31/8 16/32/8
f 4/33/9 3/34/9 19/35/9 20/36/9
f 3/37/10 6/38/10 21/39/10 19/40/10
f 6/41/11 8/42/11 22/43/11 21/44/11
f 8/45/12 10/46/12 23/47/12 22/48/12
f 10/49/13 12/50/13 24/51/13 23/52/13
f 12/53/14 14/54/14 25/55/14 24/56/14
f 14/57/15 16/58/15 26/59/15 25/60/15
f 16/61/16 18/62/16 27/63/16 26/64/16
f 20/65/17 19/66/17 28/67/17 29/68/17
f 19/69/18 21/70/18 30/71/18 28/72/18
f 21/73/19 22/74/19 31/75/19 30/76/19
f 22/77/20 23/78/20 32/79/20 31/80/20
f 23/81/21 24/82/21 33/83/21 32/84/21
f 24/85/22 25/86/22 34/87/22 33/88/22
f 25/89/23 26/90/23 35/91/23 34/92/23
f 26/93/24 27/94/24 36/95/24 35/96/24
f 29/97/25 28/98/25 37/99/25 38/100/25
f 28/101/26 30/102/26 39/103/26 37/104/26
f 30/105/27 31/106/27 40/107/27 39/108/27
f 31/109/28 32/110/28 41/111/28 40/112/28
f 32/113/29 33/114/29 42/115/29 41/116/29
f 33/117/30 34/118/30 43/119/30 42/120/30
f 34/121/31 35/122/31 44/123/31 43/124/31
f 35/125/32 36/126/32 45/127/32 44/128/32
f 38/129/33 37/130/33 46/131/33 47/132/33
f 37/133/34 39/134/34 48/135/34 46/136/34
f 49/137/35 50/138/35 51/139/35 52/140/35
f 40/141/36 41/142/36 53/143/36 54/144/36
f 41/145/37 42/146/37 55/147/37 53/148/37
f 56/149/38 57/150/38 58/151/38 59/152/38
f 43/153/39 44/154/39 60/155/39 61/156/39
f 44/157/40 45/158/40 62/159/40 60/160/40
f 47/161/41 46/162/41 63/163/41 64/164/41
f 46/165/42 48/166/42 65/167/42 63/168/42
f 48/169/43 54/170/43 66/171/43 65/172/43
f 67/173/44 68/174/44 69/175/44 70/176/44
f 68/177/45 71/178/45 72/179/45 69/180/45
f 55/181/46 61/182/46 73/183/46 74/184/46
f 61/185/47 60/186/47 75/187/47 73/188/47
f 60/189/48 62/190/48 76/191/48 75/192/48
f 64/193/49 63/194/49 77/195/49 78/196/49
f 63/197/50 65/198/50 79/199/50 77/200/50
f 65/201/51 66/202/51 80/203/51 79/204/51
f 70/205/52 69/206/52 81/207/52 82/208/52
f 69/209/53 72/210/53 83/211/53 81/212/53
f 74/213/54 73/214/54 84/215/54 85/216/54
f 73/217/55 75/218/55 86/219/55 84/220/55
f 75/221/56 76/222/56 87/223/56 86/224/56
f 78/225/57 77/226/57 88/227/57 89/228/57
f 77/229/58 79/230/58 90/231/58 88/232/58
f 91/233/59 92/234/59 93/235/59 94/236/59
f 80/237/60 95/238/60 96/239/60 97/240/60
f 95/241/61 85/242/61 98/243/61 96/244/61
f 99/245/62 100/246/62 101/247/62 102/248/62
f 84/249/63 86/250/63 103/251/63 104/252/63
f 86/253/64 87/254/64 105/255/64 103/256/64
f 89/257/65 88/258/65 106/259/65 107/260/65
f 88/261/66 90/262/66 108/263/66 106/264/66
f 90/265/67 97/266/67 109/267/67 108/268/67
f 97/269/68 96/270/68 110/271/68 109/272/68
f 96/273/69 98/274/69 111/275/69 110/276/69
f 98/277/70 104/278/70 112/279/70 111/280/70
f 104/281/71 103/282/71 113/283/71 112/284/71
f 103/285/72 105/286/72 114/287/72 113/288/72
f 107/289/73 106/290/73 115/291/73 116/292/73
f 106/293/74 108/294/74 117/295/74 115/296/74
f 108/297/75 109/298/75 118/299/75 117/300/75
f 109/301/76 110/302/76 119/303/76 118/304/76
f 110/305/77 111/306/77 120/307/77 119/308/77
f 111/309/78 112/310/78 121/311/78 120/312/78
f 112/313/79 113/314/79 122/315/79 121/316/79
f 113/317/80 114/318/80 123/319/80 122/320/80
f 116/321/81 115/322/81 124/323/81 125/324/81
f 115/325/82 117/326/82 126/327/82 124/328/82
f 117/329/83 118/330/83 127/331/83 126/332/83
f 118/333/84 119/334/84 128/335/84 127/336/84
f 119/337/85 120/338/85 129/339/85 128/340/85
f 120/341/86 121/342/86 130/343/86 129/344/86
f 121/345/87 122/346/87 131/347/87 130/348/87
f 122/349/88 123/350/88 132/351/88 131/352/88
f 125/353/89 124/354/89 133/355/89 134/356/89
f 124/357/90 126/358/90 135/359/90 133/360/90
f 126/361/91 127/362/91 136/363/91 135/364/91
f 127/365/92 128/366/92 137/367/92 136/368/92
f 128/369/93 129/370/93 138/371/93 137/372/93
f 129/373/94 130/374/94 139/375/94 138/376/94
f 130/377/95 131/378/95 140/379/95 139/380/95
f 131/381/96 132/382/96 141/383/96 140/384/96
f 134/385/97 133/386/97 142/387/97 143/388/97
f 133/389/98 135/390/98 144/391/98 142/392/98
f 135/393/99 136/394/99 145/395/99 144/396/99
f 136/397/100 137/398/100 146/399/100 145/400/100
f 137/401/101 138/402/101 147/403/101 146/404/101
f 138/405/102 139/406/102 148/407/102 147/408/102
f 139/409/103 140/410/103 149/411/103 148/412/103
f 140/413/104 141/414/104 150/415/104 149/416/104
f 143/417/105 142/418/105 151/419/105 152/420/105
f 142/421/106 144/422/106 153/423/106 151/424/106
f 144/425/107 145/426/107 154/427/107 153/428/107
f 145/429/108 146/430/108 155/431/108 154/432/108
f 146/433/109 147/434/109 156/435/109 155/436/109
f 147/437/110 148/438/110 157/439/110 156/440/110
f 148/441/111 149/442/111 158/443/111 157/444/111
f 149/445/112 150/446/112 159/447/112 158/448/112
f 152/449/113 151/450/113 160/451/113 161/452/113
f 151/453/114 153/454/114 162/455/114 160/456/114
f 153/457/115 154/458/115 163/459/115 162/460/115
f 154/461/116 155/462/116 164/463/116 163/464/116
f 155/465/117 156/466/117 165/467/117 164/468/117
f 156/469/118 157/470/118 166/471/118 165/472/118
f 157/473/119 158/474/119 167/475/119 166/476/119
f 158/477/120 159/478/120 168/479/120 167/480/120
f 161/481/121 160/482/121 169/483/121 170/484/121
f 160/485/122 162/486/122 171/487/122 169/488/122
f 162/489/123 163/490/123 172/491/123 171/492/123
f 163/493/124 164/494/124 173/495/124 172/496/124
f 164/497/125 165/498/125 174/499/125 173/500/125
f 165/501/126 166/502/126 175/503/126 174/504/126
f 166/505/127 167/506/127 176/507/127 175/508/127
f 167/509/128 168/510/128 177/511/128 176/512/128
f 170/513/129 169/514/129 178/515/129 179/516/129
f 169/517/130 171/518/130 180/519/130 178/520/130
f 171/521/131 172/522/131 181/523/131 180/524/131
f 172/525/132 173/526/132 182/527/132 181/528/132
f 173/529/133 174/530/133 183/531/133 182/532/133
f 174/533/134 175/534/134 184/535/134 183/536/134
f 175/537/135 176/538/135 185/539/135 184/540/135
f 176/541/136 177/542/136 186/543/136 185/544/136
f 179/545/137 178/546/137 187/547/137 188/548/137
f 178/549/138 180/550/138 189/551/138 187/552/138
f 180/553/139 181/554/139 190/555/139 189/556/139
f 181/557/140 182/558/140 191/559/140 190/560/140
f 182/561/141 183/562/141 192/563/141 191/564/141
f 183/565/142 184/566/142 193/567/142 192/568/142
f 184/569/143 185/570/143 194/571/143 193/572/143
f 185/573/144 186/574/144 195/575/144 194/576/144
f 188/577/145 187/578/145 196/579/145 197/580/145
f 187/581/146 189/582/146 198/583/146 196/584/146
f 189/585/147 190/586/147 199/587/147 198/588/147
f 190/589/148 191/590/148 200/591/148 199/592/148
f 191/593/149 192/594/149 201/595/149 200/596/149
f 192/597/150 193/598/150 202/599/150 201/600/150
f 193/601/151 194/602/151 203/603/151 202/604/151
f 194/605/152 195/606/152 204/607/152 203/608/152
f 197/609/153 196/610/153 2/611/153 1/612/153
f 196/613/154 198/614/154 5/615/154 2/616/154
f 198/617/155 199/618/155 7/619/155 5/620/155
f 199/621/156 200/622/156 9/623/156 7/624/156
f 200/625/157 201/626/157 11/627/157 9/628/157
f 201/629/158 202/630/158 13/631/158 11/632/158
f 202/633/159 203/634/159 15/635/159 13/636/159
f 203/637/160 204/638/160 17/639/160 15/640/160
f 150/641/161 141/642/161 132/643/161 205/644/161
f 159/645/162 150/646/162 205/647/162 206/648/162
f 168/649/163 159/650/163 206/651/163 207/652/163
f 177/653/164 168/654/164 207/655/164 208/656/164
f 186/657/165 177/658/165 208/659/165 209/660/165
f 195/661/166 186/662/166 209/663/166 210/664/166
f 204/665/167 195/666/167 210/667/167 211/668/167
f 17/669/168 204/670/168 211/671/168 18/672/168
f 205/673/169 132/674/169 123/675/169 114/676/169
f 206/677/170 205/678/170 114/679/170 105/680/170
f 207/681/171 206/682/171 105/683/171 87/684/171
f 208/685/172 207/686/172 87/687/172 76/688/172
f 209/689/173 208/690/173 76/691/173 62/692/173
f 210/693/174 209/694/174 62/695/174 45/696/174
f 211/697/175 210/698/175 45/699/175 36/700/175
f 18/701/176 211/702/176 36/703/176 27/704/176
f 134/705/177 143/706/177 212/707/177 125/708/177
f 143/709/178 152/710/178 213/711/178 212/712/178
f 152/713/179 161/714/179 214/715/179 213/716/179
f 161/717/180 170/718/180 215/719/180 214/720/180
f 170/721/181 179/722/181 216/723/181 215/724/181
f 179/725/182 188/726/182 217/727/182 216/728/182
f 188/729/183 197/730/183 218/731/183 217/732/183
f 197/733/184 1/734/184 4/735/184 218/736/184
f 125/737/185 212/738/185 107/739/185 116/740/185
f 212/741/186 213/742/186 89/743/186 107/744/186
f 213/745/187 214/746/187 78/747/187 89/748/187
f 214/749/188 215/750/188 64/751/188 78/752/188
f 215/753/189 216/754/189 47/755/189 64/756/189
f 216/757/190 217/758/190 38/759/190 47/760/190
f 217/761/191 218/762/191 29/763/191 38/764/191
f 218/765/192 4/766/192 20/767/192 29/768/192
f 39/769/193 40/770/193 50/771/193 49/772/193
f 40/773/194 54/774/194 51/775/194 50/776/194
f 54/777/195 48/778/195 52/779/195 51/780/195
f 48/781/196 39/782/196 49/783/196 52/784/196
f 42/785/197 43/786/197 57/787/197 56/788/197
f 43/789/198 61/790/198 58/791/198 57/792/198
f 61/793/199 55/794/199 59/795/199 58/796/199
f 55/797/200 42/798/200 56/799/200 59/800/200
f 54/801/201 53/802/201 219/803/201 220/804/201
f 66/805/202 54/806/202 220/807/202 221/808/202
f 53/809/203 55/810/203 222/811/203 219/812/203
f 55/813/204 74/814/204 223/815/204 222/816/204
f 95/817/205 80/818/205 224/819/205 225/820/205
f 80/821/206 66/822/206 221/823/206 224/824/206
f 74/825/207 85/826/207 226/827/207 223/828/207
f 85/829/208 95/830/208 225/831/208 226/832/208
f 79/833/209 80/834/209 92/835/209 91/836/209
f 80/837/210 97/838/210 93/839/210 92/840/210
f 97/841/211 90/842/211 94/843/211 93/844/211
f 90/845/212 79/846/212 91/847/212 94/848/212
f 85/849/213 84/850/213 100/851/213 99/852/213
f 84/853/214 104/854/214 101/855/214 100/856/214
f 104/857/215 98/858/215 102/859/215 101/860/215
f 98/861/216 85/862/216 99/863/216 102/864/216
f 220/865/217 219/866/217 68/867/217 67/868/217
f 221/869/218 220/870/218 67/871/218 70/872/218
f 219/873/219 222/874/219 71/875/219 68/876/219
f 222/877/220 223/878/220 72/879/220 71/880/220
f 225/881/221 224/882/221 82/883/221 81/884/221
f 224/885/222 221/886/222 70/887/222 82/888/222
f 223/889/223 226/890/223 83/891/223 72/892/223
f 226/893/224 225/894/224 81/895/224 83/896/224