# Made in Blockbench 5.1.6
mtllib PotionSpreader.mtl

o side1
v -0.4999999999999999 1 0.5
v -0.4999999999999999 1 -0.5
v -0.5000000000000001 0 0.5
v -0.5000000000000001 0 -0.5
vt 1 0
vt 1 1
vt 0.5 1
vt 0.5 0
vn -1 2.2204460492503136 0
usemtl m_ced11fe0-2d79-5daf-d416-deb77d52868b
f 1/1/1 2/2/1 4/3/1 3/4/1
o dingus
v -0.109375 0.90613875 0.15613875
v -0.149398125 0.879931875 0.16502312500000005
v -0.14051375 0.90613875 0.125
v 0.015625 0.90613875 0.15613875
v 0.015625 0.90613875 0.21886125
v 0.140625 0.90613875 0.15613875
v 0.180648125 0.879931875 0.16502312500000005
v 0.17176375 0.90613875 0.125
v -0.20323625 0.90613875 0
v -0.14051375 0.90613875 0
v -0.109375 0.625 0.125
v 0.015625 0.625 0.125
v -0.109375 0.625 0
v 0.140625 0.625 0.125
v 0.140625 0.625 0
v 0.17176375 0.90613875 0
v 0.23448625 0.90613875 0
v -0.149398125 0.879931875 -0.16502312500000005
v -0.14051375 0.90613875 -0.125
v 0.015625 0.625 -0.125
v -0.109375 0.625 -0.125
v 0.140625 0.625 -0.125
v 0.17176375 0.90613875 -0.125
v 0.180648125 0.879931875 -0.16502312500000005
v -0.109375 0.90613875 -0.15613875
v 0.015625 0.90613875 -0.21886125
v 0.015625 0.90613875 -0.15613875
v 0.140625 0.90613875 -0.15613875
v -0.109375 0.875 0.11726000000000003
v 0.015625 0.875 0.11726000000000003
v 0.140625 0.875 0.11726000000000003
v -0.101635 0.875 0.125
v 0.132885 0.875 0.125
v -0.101635 0.875 0
v 0.132885 0.875 0
v -0.101635 0.875 -0.125
v 0.132885 0.875 -0.125
v -0.109375 0.875 -0.11725999999999992
v 0.015625 0.875 -0.11725999999999992
v 0.140625 0.875 -0.11725999999999992
v 0.015625 0.625 0.25773999999999997
v -0.175745 0.625 0.19137000000000004
v -0.24211500000000002 0.625 0
v 0.206995 0.625 0.19137000000000004
v 0.273365 0.625 0
v -0.175745 0.625 -0.19137000000000004
v 0.015625 0.625 -0.2577400000000001
v 0.206995 0.625 -0.19137000000000004
vt 0.36073625 0.507833125
vt 0.3292571875 0.5075031249999999
vt 0.329585625 0.381920625
vt 0.33270125 0.343145625
vt 0.3318490625 0.668956875
vt 0.32892875 0.633085625
vt 0.3292571875 0.5075031249999999
vt 0.36073625 0.507833125
vt 0.2514690625 0.28680125
vt 0.33270125 0.343145625
vt 0.314039375 0.35047312500000005
vt 0.251304375 0.34981562499999996
vt 0.25048375 0.6635481249999999
vt 0.31321875 0.664205625
vt 0.3318490625 0.668956875
vt 0.25031875 0.7265625
vt 0.169940625 0.341439375
vt 0.2514690625 0.28680125
vt 0.251304375 0.34981562499999996
vt 0.1885690625 0.349158125
vt 0.296875 0.59375
vt 0.203125 0.59375
vt 0.203125 0.375
vt 0.296875 0.375
vt 0.1877484375 0.66289
vt 0.25048375 0.6635481249999999
vt 0.25031875 0.7265625
vt 0.1690884375 0.667250625
vt 0.1725309375 0.505860625
vt 0.1410515625 0.505530625
vt 0.169940625 0.341439375
vt 0.172859375 0.380278125
vt 0.1722025 0.6314425
vt 0.1690884375 0.667250625
vt 0.1410515625 0.505530625
vt 0.1725309375 0.505860625
vt 0.3088540625 0.38253562500000005
vt 0.329585625 0.381920625
vt 0.3292571875 0.5075031249999999
vt 0.3085321875 0.5055287500000001
vt 0.3085321875 0.5055287500000001
vt 0.3292571875 0.5075031249999999
vt 0.32892875 0.633085625
vt 0.308210625 0.628521875
vt 0.251196875 0.38954750000000005
vt 0.251304375 0.34981562499999996
vt 0.314039375 0.35047312500000005
vt 0.3126384375 0.39019125
vt 0.189755 0.388903125
vt 0.1885690625 0.349158125
vt 0.251304375 0.34981562499999996
vt 0.251196875 0.38954750000000005
vt 0.250593125 0.620301875
vt 0.25048375 0.6635481249999999
vt 0.1877484375 0.66289
vt 0.18915125 0.619658125
vt 0.1932575 0.5043206250000001
vt 0.1725309375 0.505860625
vt 0.172859375 0.380278125
vt 0.193579375 0.38132750000000004
vt 0.1929359375 0.62731375
vt 0.1722025 0.6314425
vt 0.1725309375 0.505860625
vt 0.1932575 0.5043206250000001
vt 0.28857625 0.618945625
vt 0.2028053125 0.65625
vt 0.1875 0.37409250000000005
vt 0.28857625 0.36131
vt 0.298028125 0.65625
vt 0.2112509375 0.629839375
vt 0.203125 0.37271687499999995
vt 0.304403125 0.37271687499999995
vt 0.2824075 0.65625
vt 0.19563 0.629850625
vt 0.1875 0.37272249999999996
vt 0.288775 0.37272249999999996
vt 0.304198125 0.618945625
vt 0.2184271875 0.65625
vt 0.203125 0.37409187499999996
vt 0.304198125 0.36131
vt 0.2980325 0.65625
vt 0.211255 0.629850625
vt 0.203125 0.37272249999999996
vt 0.3044 0.37272249999999996
vt 0.304198125 0.618945625
vt 0.2184271875 0.65625
vt 0.203125 0.37409187499999996
vt 0.304198125 0.36131
vt 0.2980325 0.65625
vt 0.211255 0.629850625
vt 0.203125 0.37272249999999996
vt 0.304403125 0.37272249999999996
vt 0.304198125 0.61894625
vt 0.2184303125 0.65625
vt 0.203125 0.37409250000000005
vt 0.304198125 0.36131
vt 0.2723675 0.48581062500000005
vt 0.27264375 0.38028375000000003
vt 0.3007803125 0.324546875
vt 0.328348125 0.48639750000000004
vt 0.30389375 0.43809624999999996
vt 0.2511775 0.43754375
vt 0.251470625 0.325483125
vt 0.3320303125 0.38235937499999995
vt 0.2720915625 0.591336875
vt 0.2723675 0.48581062500000005
vt 0.328348125 0.48639750000000004
vt 0.2999353125 0.6476612500000001
vt 0.2490628125 0.5360968749999999
vt 0.3017790625 0.536649375
vt 0.3296228125 0.5929737500000001
vt 0.2487696875 0.6481581249999999
vt 0.2297109375 0.37917875
vt 0.229435 0.48470562500000003
vt 0.1734546875 0.48411875000000004
vt 0.2018675 0.322855
vt 0.2511775 0.43754375
vt 0.1984609375 0.43699125000000005
vt 0.1706175 0.38066750000000005
vt 0.251470625 0.325483125
vt 0.1963465625 0.535544375
vt 0.2490628125 0.5360968749999999
vt 0.2487696875 0.6481581249999999
vt 0.1682096875 0.591281875
vt 0.229435 0.48470562500000003
vt 0.2291590625 0.590231875
vt 0.2010221875 0.645969375
vt 0.1734546875 0.48411875000000004
vt 0.172859375 0.380278125
vt 0.169940625 0.341439375
vt 0.1885690625 0.349158125
vt 0.193579375 0.38132750000000004
vt 0.314039375 0.35047312500000005
vt 0.33270125 0.343145625
vt 0.329585625 0.381920625
vt 0.3126384375 0.39019125
vt 0.308210625 0.628521875
vt 0.312035 0.62094625
vt 0.32892875 0.633085625
vt 0.3318490625 0.668956875
vt 0.3318490625 0.668956875
vt 0.31321875 0.664205625
vt 0.308210625 0.628521875
vt 0.312035 0.62094625
vt 0.31321875 0.664205625
vt 0.25048375 0.6635481249999999
vt 0.250593125 0.620301875
vt 0.1877484375 0.66289
vt 0.1690884375 0.667250625
vt 0.1722025 0.6314425
vt 0.1929359375 0.62731375
vn 0 1 0
vn 0 0.32106159947746765 0.9470583135905467
vn -0.6358303235106669 0.7028007185201847 0.31904693973118253
vn 0.9470583135905473 0.3210615994774658 0
vn 0 0.9876237315453181 -0.15684184673900536
vn 0 1 0
vn 0 1 0
vn -0.1568418467390054 0.9876237315453181 0
vn 0.31904693973118237 0.7028007185201851 -0.6358303235106666
vn 0 0.7805185859822444 -0.6251325754880142
vn 0 0.7805185859822444 -0.6251325754880142
vn 0.6251325754880139 0.7805185859822447 0
vn 0.6251325754880139 0.7805185859822447 0
vn -0.6251325754880139 0.7805185859822447 0
vn 0 0.7805185859822454 0.6251325754880132
vn 0 0.7805185859822454 0.6251325754880132
vn 0.3260728655756345 -0.1294995303238309 -0.9364327834827237
vn 0.9362634263622471 -0.1304710351420532 -0.32617189554801695
vn -0.3261718955480168 -0.13047103514205313 -0.9362634263622472
vn -0.9364327834827236 -0.12949953032383105 -0.3260728655756347
vn 0.3261718955480168 -0.13047103514205313 0.9362634263622472
vn 0.9364327834827236 -0.12949953032383105 0.3260728655756347
vn -0.9362634263622471 -0.1304710351420532 0.32617189554801695
vn -0.32607286557563453 -0.12949953032383124 0.9364327834827236
vn 0 1 0
vn 0 1 0
vn 0 1 0
vn 0 1 0
vn 0 1 0
vn 0 1 0
vn 0 1 0
vn 0 1 0
vn -0.42707226194503306 0.7970060013289151 -0.42707226194503306
vn -0.42707226194503306 0.7970060013289151 0.42707226194503306
vn -0.5300797768507868 0.6618389988113712 -0.5300797768507887
vn -0.6698211767995297 0.5442768964968067 0.5050764803974717
vn -0.6251325754880139 0.7805185859822447 0
vn 0.42707226194503306 0.7970060013289151 -0.42707226194503306
usemtl m_ced11fe0-2d79-5daf-d416-deb77d52868b
f 9/5/2 8/6/2 5/7/2 6/8/2
f 11/9/3 10/10/3 8/11/3 9/12/3
f 13/13/4 6/14/4 7/15/4 14/16/4
f 20/17/5 12/18/5 11/19/5 21/20/5
f 22/21/6 13/22/6 14/23/6 23/24/6
f 18/25/7 26/26/7 25/27/7 15/28/7
f 27/29/8 20/30/8 21/31/8 28/32/8
f 31/33/9 30/34/9 22/35/9 29/36/9
f 32/37/10 28/38/10 30/39/10 31/40/10
f 33/41/11 5/42/11 8/43/11 34/44/11
f 34/45/12 8/46/12 10/47/12 35/48/12
f 38/49/13 14/50/13 7/51/13 36/52/13
f 40/53/14 23/54/14 14/55/14 38/56/14
f 39/57/15 20/58/15 27/59/15 41/60/15
f 43/61/16 31/62/16 29/63/16 42/64/16
f 44/65/17 32/66/17 31/67/17 43/68/17
f 6/69/18 9/70/18 45/71/18 46/72/18
f 13/73/19 6/74/19 46/75/19 47/76/19
f 9/77/20 11/78/20 48/79/20 45/80/20
f 11/81/21 21/82/21 49/83/21 48/84/21
f 30/85/22 22/86/22 50/87/22 51/88/22
f 22/89/23 13/90/23 47/91/23 50/92/23
f 21/93/24 28/94/24 52/95/24 49/96/24
f 28/97/25 30/98/25 51/99/25 52/100/25
f 16/101/26 15/102/26 46/103/26 45/104/26
f 15/105/27 17/106/27 47/107/27 46/108/27
f 18/109/28 16/110/28 45/111/28 48/112/28
f 19/113/29 18/114/29 48/115/29 49/116/29
f 25/117/30 24/118/30 51/119/30 50/120/30
f 17/121/31 25/122/31 50/123/31 47/124/31
f 26/125/32 19/126/32 49/127/32 52/128/32
f 24/129/33 26/130/33 52/131/33 51/132/33
f 29/133/34 22/134/34 23/135/34 42/136/34
f 7/137/35 6/138/35 5/139/35 36/140/35
f 35/141/36 37/142/36 10/143/36 11/144/36
f 37/148/38 12/149/38 20/150/38 39/151/38
f 27/152/39 28/153/39 32/154/39 44/155/39
o side3
v 0.5000000000000001 1 0.5
v 0.5000000000000001 1 -0.5
v 0.4999999999999999 0 0.5
v 0.4999999999999999 0 -0.5
vt 0.5 1
vt 1 1
vt 1 0
vt 0.5 0
vn 1 -2.2204460492503136 0
usemtl m_ced11fe0-2d79-5daf-d416-deb77d52868b
f 56/156/40 54/157/40 53/158/40 55/159/40
o side2
v 0.5 1 0.5
v -0.5 1 0.4999999999999998
v 0.5 0 0.5000000000000002
v -0.5 0 0.5
vt 1 0
vt 1 1
vt 0.5 1
vt 0.5 0
vn -2.2204460492503136 2.2204460492503136 1
usemtl m_ced11fe0-2d79-5daf-d416-deb77d52868b
f 57/160/41 58/161/41 60/162/41 59/163/41
o side4
v 0.5 1 -0.5
v -0.5 1 -0.5000000000000002
v 0.5 0 -0.4999999999999998
v -0.5 0 -0.5
vt 0.5 1
vt 1 1
vt 1 0
vt 0.5 0
vn 2.2204460492503136 -2.2204460492503136 -1
usemtl m_ced11fe0-2d79-5daf-d416-deb77d52868b
f 64/164/42 62/165/42 61/166/42 63/167/42
o down
v 0.5 0 0.5
v 0.5 0 -0.5
v -0.5 0 0.5
v -0.5 0 -0.5
vt 0.5 1
vt 1 1
vt 1 0
vt 0.5 0
vn 0 -1 0
usemtl m_ced11fe0-2d79-5daf-d416-deb77d52868b
f 68/168/43 66/169/43 65/170/43 67/171/43
o up
v 0.3125 0.875 -0.3125
v 0.3125 1 -0.3125
v -0.3125 0.875 -0.3125
v -0.3125 1 -0.3125
v 0.5 1 0.5
v 0.5 1 0.3125
v 0.3125 1 0.5
v -0.3125 1 0.5
v -0.3125 1 0.3125
v -0.5 1 0.3125
v -0.5 1 0.5
v -0.3125 1 -0.3125
v -0.3125 1 -0.5
v -0.5 1 -0.5
v -0.5 1 -0.3125
v 0.5 1 -0.3125
v 0.5 1 -0.5
v 0.3125 1 -0.5
v 0.3125 0.875 0.125
v -0.3125 0.875 0.3125
v -0.3125 0.875 0.125
v -0.125 0.875 0.125
v -0.3125 0.875 -0.125
v -0.125 0.875 -0.125
v -0.3125 0.875 -0.3125
v 0.125 0.875 -0.125
v 0.3125 0.875 -0.125
v 0.125 0.875 0.125
v -0.125 0.875 -0.3125
v 0.125 0.875 -0.3125
v -0.125 0.875 0.3125
v 0.125 0.875 0.3125
v 0.3125 0.875 0.3125
v 0.3125 1 0.3125
v 0.3125 0.875 -0.3125
v 0.3125 1 -0.3125
v -0.3125 0.875 0.3125
v -0.3125 1 0.3125
v 0.3125 0.875 0.3125
v 0.3125 1 0.3125
v -0.3125 0.875 -0.3125
v -0.3125 1 -0.3125
v -0.3125 0.875 0.3125
v -0.3125 1 0.3125
vt 0.09375 0.1875
vt 0.09375 0.8125
vt 0.03125 0.8125
vt 0.03125 0.1875
vt 0 1
vt 0 0.8125
vt 0.09375 0.8125
vt 0.09375 1
vt 0.40625 1
vt 0.40625 0.8125
vt 0.5 0.8125
vt 0.5 1
vt 0.40625 0.1875
vt 0.40625 0
vt 0.5 0
vt 0.5 0.1875
vt 0 0.1875
vt 0 0
vt 0.09375 0
vt 0.09375 0.1875
vt 0.09375 0.1875
vt 0.09375 0.8125
vt 0 0.8125
vt 0 0.1875
vt 0.40625 1
vt 0.09375 1
vt 0.09375 0.8125
vt 0.40625 0.8125
vt 0.5 0.1875
vt 0.5 0.8125
vt 0.40625 0.8125
vt 0.40625 0.1875
vt 0.09375 0
vt 0.40625 0
vt 0.40625 0.1875
vt 0.09375 0.1875
vt 0.3125 0.8125
vt 0.1875 0.8125
vt 0.1875 0.625
vt 0.3125 0.625
vt 0.40625 0.375
vt 0.40625 0.625
vt 0.3125 0.625
vt 0.3125 0.375
vt 0.3125 0.375
vt 0.1875 0.375
vt 0.1875 0.1875
vt 0.3125 0.1875
vt 0.1875 0.375
vt 0.1875 0.625
vt 0.09375 0.625
vt 0.09375 0.375
vt 0.40625 0.1875
vt 0.40625 0.375
vt 0.3125 0.375
vt 0.3125 0.1875
vt 0.1875 0.1875
vt 0.1875 0.375
vt 0.09375 0.375
vt 0.09375 0.1875
vt 0.40625 0.625
vt 0.40625 0.8125
vt 0.3125 0.8125
vt 0.3125 0.625
vt 0.1875 0.625
vt 0.1875 0.8125
vt 0.09375 0.8125
vt 0.09375 0.625
vt 0.09375 0.1875
vt 0.09375 0.8125
vt 0.03125 0.8125
vt 0.03125 0.1875
vt 0.03125 0.71875
vt 0.03125 0.40625
vt 0.078125 0.40625
vt 0.078125 0.71875
vt 0.09375 0.1875
vt 0.09375 0.8125
vt 0.03125 0.8125
vt 0.03125 0.1875
vn 0 0 1
vn 0 1 0
vn 0 1 0
vn 0 1 0
vn 0 1 0
vn 0 1 0
vn 0 1 0
vn 0 1 0
vn 0 1 0
vn 0 1 0
vn 0 1 0
vn 0 1 0
vn 0 1 0
vn 0 1 0
vn 0 1 0
vn 0 1 0
vn 0 1 0
vn -1 0 0
vn 0 0 -1
vn 1 0 0
usemtl m_ced11fe0-2d79-5daf-d416-deb77d52868b
f 71/172/44 69/173/44 70/174/44 72/175/44
f 73/176/45 74/177/45 102/178/45 75/179/45
f 76/180/46 77/181/46 78/182/46 79/183/46
f 80/184/47 81/185/47 82/186/47 83/187/47
f 84/188/48 85/189/48 86/190/48 104/191/48
f 104/192/49 102/193/49 74/194/49 84/195/49
f 76/196/50 75/197/50 102/198/50 77/199/50
f 83/200/51 78/201/51 77/202/51 80/203/51
f 86/204/52 81/205/52 80/206/52 104/207/52
f 99/208/53 100/209/53 96/210/53 90/211/53
f 91/212/54 89/213/54 90/214/54 92/215/54
f 92/216/55 94/217/55 98/218/55 97/219/55
f 94/220/56 96/221/56 87/222/56 95/223/56
f 93/224/57 91/225/57 92/226/57 97/227/57
f 98/228/58 94/229/58 95/230/58 103/231/58
f 89/232/59 88/233/59 99/234/59 90/235/59
f 96/236/60 100/237/60 101/238/60 87/239/60
f 103/240/61 101/241/61 102/242/61 104/243/61
f 107/244/62 105/245/62 106/246/62 108/247/62
f 111/248/63 109/249/63 110/250/63 112/251/63