# Made in Blockbench 5.1.6
mtllib RadiatingChamber.mtl

o cornersup
v -0.5 1 0.49999999999999994
v -0.4375 1 0.4375
v -0.5 1 0.49999999999999994
v -0.5 0.875 0.49999999999999994
v -0.5 0.875 0.49999999999999994
v -0.4375 0.875 0.4375
v -0.32500000000000007 1 0.5625
v -0.32500000000000007 1 0.43750000000000006
v -0.4375 1 0.325
v -0.5625 1 0.325
v -0.32500000000000007 0.875 0.43750000000000006
v -0.32500000000000007 0.875 0.5625
v -0.4375 0.875 0.325
v -0.5625 0.875 0.325
v 0.5 1 0.49999999999999994
v 0.4375 1 0.4375
v 0.5 0.875 0.49999999999999994
v 0.4375 0.875 0.4375
v 0.5625 1 0.325
v 0.4375 1 0.325
v 0.32499999999999996 1 0.4375
v 0.32499999999999996 1 0.5625
v 0.4375 0.875 0.325
v 0.5625 0.875 0.325
v 0.32499999999999996 0.875 0.4375
v 0.32499999999999996 0.875 0.5625
v 0.5 1 -0.49999999999999994
v 0.4375 1 -0.4375
v 0.5 1 -0.49999999999999994
v 0.5 0.875 -0.49999999999999994
v 0.5 0.875 -0.49999999999999994
v 0.4375 0.875 -0.4375
v 0.32499999999999996 1 -0.5625
v 0.32499999999999996 1 -0.4375
v 0.4375 1 -0.325
v 0.5625 1 -0.325
v 0.32499999999999996 0.875 -0.4375
v 0.32499999999999996 0.875 -0.5625
v 0.4375 0.875 -0.325
v 0.5625 0.875 -0.325
v -0.5 1 -0.49999999999999994
v -0.4375 1 -0.4375
v -0.5 1 -0.49999999999999994
v -0.5 0.875 -0.49999999999999994
v -0.5 0.875 -0.49999999999999994
v -0.4375 0.875 -0.4375
v -0.5625 1 -0.325
v -0.4375 1 -0.325
v -0.32500000000000007 1 -0.4375
v -0.32500000000000007 1 -0.5625
v -0.4375 0.875 -0.325
v -0.5625 0.875 -0.325
v -0.32500000000000007 0.875 -0.4375
v -0.32500000000000007 0.875 -0.5625
vt 0.96875 1
vt 0.96875 0.875
vt 0.953125 0.8125
vt 0.9375 1
vt 0.96875 0.875
vt 0.96875 1
vt 0.9375 1
vt 0.953125 0.8125
vt 0.99176875 0.875
vt 0.9453125 0.875
vt 0.9453125 0.75
vt 0.99176875 0.75
vt 0.99176875 0.75
vt 0.9453125 0.75
vt 0.9453125 0.875
vt 0.99176875 0.875
vt 0.9671875 1
vt 0.9515625 0.9375
vt 0.9515625 0.825
vt 0.9828125 0.825
vt 0.953125 0.825
vt 0.984375 0.825
vt 0.984375 0.9375
vt 0.96875 1
vt 1 0.875
vt 1 1
vt 0.96875 1
vt 0.96875 0.875
vt 0.96875 1
vt 0.96875 0.875
vt 1 0.875
vt 1 1
vt 0.96875 1
vt 0.96875 0.875
vt 0.953125 0.8125
vt 0.9375 1
vt 0.96875 0.875
vt 0.96875 1
vt 0.9375 1
vt 0.953125 0.8125
vt 0.99176875 0.875
vt 0.9453125 0.875
vt 0.9453125 0.75
vt 0.99176875 0.75
vt 0.99176875 0.75
vt 0.9453125 0.75
vt 0.9453125 0.875
vt 0.99176875 0.875
vt 0.9671875 1
vt 0.9515625 0.9375
vt 0.9515625 0.825
vt 0.9828125 0.825
vt 0.953125 0.825
vt 0.984375 0.825
vt 0.984375 0.9375
vt 0.96875 1
vt 1 0.875
vt 1 1
vt 0.96875 1
vt 0.96875 0.875
vt 0.96875 1
vt 0.96875 0.875
vt 1 0.875
vt 1 1
vt 0.96875 1
vt 0.96875 0.875
vt 0.953125 0.8125
vt 0.9375 1
vt 0.96875 0.875
vt 0.96875 1
vt 0.9375 1
vt 0.953125 0.8125
vt 0.99176875 0.875
vt 0.9453125 0.875
vt 0.9453125 0.75
vt 0.99176875 0.75
vt 0.99176875 0.75
vt 0.9453125 0.75
vt 0.9453125 0.875
vt 0.99176875 0.875
vt 0.9671875 1
vt 0.9515625 0.9375
vt 0.9515625 0.825
vt 0.9828125 0.825
vt 0.953125 0.825
vt 0.984375 0.825
vt 0.984375 0.9375
vt 0.96875 1
vt 1 0.875
vt 1 1
vt 0.96875 1
vt 0.96875 0.875
vt 0.96875 1
vt 0.96875 0.875
vt 1 0.875
vt 1 1
vt 0.96875 1
vt 0.96875 0.875
vt 0.953125 0.8125
vt 0.9375 1
vt 0.96875 0.875
vt 0.96875 1
vt 0.9375 1
vt 0.953125 0.8125
vt 0.99176875 0.875
vt 0.9453125 0.875
vt 0.9453125 0.75
vt 0.99176875 0.75
vt 0.99176875 0.75
vt 0.9453125 0.75
vt 0.9453125 0.875
vt 0.99176875 0.875
vt 0.9671875 1
vt 0.9515625 0.9375
vt 0.9515625 0.825
vt 0.9828125 0.825
vt 0.953125 0.825
vt 0.984375 0.825
vt 0.984375 0.9375
vt 0.96875 1
vt 1 0.875
vt 1 1
vt 0.96875 1
vt 0.96875 0.875
vt 0.96875 1
vt 0.96875 0.875
vt 1 0.875
vt 1 1
vn 0 1 0
vn 0 1 0
vn -0.3363363969981566 0 0.9417419115948373
vn -0.9417419115948374 0 0.3363363969981564
vn 0 -1 0
vn 0 -1 0
vn 1 0 0
vn 0 0 -1
vn 0 1 0
vn 0 1 0
vn 0.9417419115948374 0 0.3363363969981564
vn 0.3363363969981565 0 0.9417419115948376
vn 0 -1 0
vn 0 -1 0
vn 0 0 -1
vn -1 0 0
vn 0 1 0
vn 0 1 0
vn 0.3363363969981565 0 -0.9417419115948376
vn 0.9417419115948374 0 -0.3363363969981564
vn 0 -1 0
vn 0 -1 0
vn -1 0 0
vn 0 0 1
vn 0 1 0
vn 0 1 0
vn -0.9417419115948374 0 -0.3363363969981564
vn -0.3363363969981566 0 -0.9417419115948373
vn 0 -1 0
vn 0 -1 0
vn 0 0 1
vn 1 0 0
usemtl m_2bb03a8e-3552-9178-74eb-1892283fb4e3
f 8/1/1 2/2/1 1/3/1 7/4/1
f 2/5/2 9/6/2 10/7/2 1/8/2
f 7/9/3 3/10/3 4/11/3 12/12/3
f 14/13/4 4/14/4 3/15/4 10/16/4
f 5/17/5 6/18/5 11/19/5 12/20/5
f 14/21/6 13/22/6 6/23/6 5/24/6
f 11/25/7 8/26/7 7/27/7 12/28/7
f 9/29/8 13/30/8 14/31/8 10/32/8
f 20/33/9 16/34/9 15/35/9 19/36/9
f 16/37/10 21/38/10 22/39/10 15/40/10
f 19/41/11 15/42/11 17/43/11 24/44/11
f 26/45/12 17/46/12 15/47/12 22/48/12
f 17/49/13 18/50/13 23/51/13 24/52/13
f 26/53/14 25/54/14 18/55/14 17/56/14
f 23/57/15 20/58/15 19/59/15 24/60/15
f 21/61/16 25/62/16 26/63/16 22/64/16
f 34/65/17 28/66/17 27/67/17 33/68/17
f 28/69/18 35/70/18 36/71/18 27/72/18
f 33/73/19 29/74/19 30/75/19 38/76/19
f 40/77/20 30/78/20 29/79/20 36/80/20
f 31/81/21 32/82/21 37/83/21 38/84/21
f 40/85/22 39/86/22 32/87/22 31/88/22
f 37/89/23 34/90/23 33/91/23 38/92/23
f 35/93/24 39/94/24 40/95/24 36/96/24
f 48/97/25 42/98/25 41/99/25 47/100/25
f 42/101/26 49/102/26 50/103/26 41/104/26
f 47/105/27 43/106/27 44/107/27 52/108/27
f 54/109/28 44/110/28 43/111/28 50/112/28
f 45/113/29 46/114/29 51/115/29 52/116/29
f 54/117/30 53/118/30 46/119/30 45/120/30
f 51/121/31 48/122/31 47/123/31 52/124/31
f 49/125/32 53/126/32 54/127/32 50/128/32
o eye3
v 0.4375 0.375 0.35
v 0.5625 0.375 0.35
v 0.5625 0.625 0.225
v 0.5625 0.75 0.225
v 0.4375 0.1875 0.2875
v 0.4375 0.125 0.1125
v 0.4375 0.375 0.35
v 0.4375 0.125 -0.1125
v 0.4375 0.1875 -0.2875
v 0.4375 0.375 -0.35
v 0.4375 0.625 0.35
v 0.5625 0.625 0.35
v 0.4375 0.625 -0.35
v 0.4375 0.875 0.1125
v 0.4375 0.8125 0.2875
v 0.5625 0.8125 0.2875
v 0.4375 0.875 -0.1125
v 0.4375 0.8125 -0.2875
v 0.5625 0.25 -0.1125
v 0.5625 0.25 -0.225
v 0.5625 0.375 -0.225
v 0.5625 0.625 -0.225
v 0.5625 0.75 -0.1125
v 0.5625 0.75 -0.225
v 0.5625 0.1875 0.2875
v 0.5625 0.375 0.35
v 0.5625 0.125 -0.1125
v 0.5625 0.1875 -0.2875
v 0.5625 0.375 -0.35
v 0.5625 0.625 -0.35
v 0.5625 0.875 -0.1125
v 0.5625 0.8125 -0.2875
v 0.5625 0.25 0.225
v 0.5625 0.25 0.1125
v 0.5625 0.375 0.225
v 0.5625 0.125 0.1125
v 0.5625 0.875 0.1125
v 0.5625 0.75 0.1125
vt 0.31550109375 0.6191481249999999
vt 0.31561421875 0.743354375
vt 0.2988746875 0.80531
vt 0.28182703125 0.6191481249999999
vt 0.265625 0.78125
vt 0.265625 0.595425
vt 0.296875 0.595425
vt 0.296875 0.78125
vt 0.265625 0.78125
vt 0.265625 0.595425
vt 0.296875 0.595425
vt 0.296875 0.78125
vt 0.265625 0.78125
vt 0.265625 0.595425
vt 0.296875 0.595425
vt 0.296875 0.78125
vt 0.484375 0.375
vt 0.484375 0.625
vt 0.453125 0.625
vt 0.453125 0.375
vt 0.265625 0.78125
vt 0.265625 0.595425
vt 0.296875 0.595425
vt 0.296875 0.78125
vt 0.265625 0.78125
vt 0.265625 0.595425
vt 0.296875 0.595425
vt 0.296875 0.78125
vt 0.296875 0.595425
vt 0.296875 0.78125
vt 0.265625 0.78125
vt 0.265625 0.595425
vt 0.43697015625 0.24412124999999996
vt 0.40651671875 0.24412124999999996
vt 0.406549375 0.11830437500000002
vt 0.453943125 0.18126374999999995
vt 0.4368884375 0.369533125
vt 0.43697015625 0.24412124999999996
vt 0.453943125 0.18126374999999995
vt 0.470670625 0.369533125
vt 0.47040015625 0.6191481249999999
vt 0.43672609375 0.6191481249999999
vt 0.4368884375 0.369533125
vt 0.470670625 0.369533125
vt 0.436645625 0.743354375
vt 0.43672609375 0.6191481249999999
vt 0.47040015625 0.6191481249999999
vt 0.45340140625 0.80531
vt 0.4063878125 0.743354375
vt 0.436645625 0.743354375
vt 0.45340140625 0.80531
vt 0.406355625 0.867165
vt 0.265625 0.78125
vt 0.265625 0.595425
vt 0.296875 0.595425
vt 0.296875 0.78125
vt 0.453125 0.3578125
vt 0.453125 0.5828125
vt 0.484375 0.5828125
vt 0.484375 0.3578125
vt 0.265625 0.78125
vt 0.265625 0.595425
vt 0.296875 0.595425
vt 0.296875 0.78125
vt 0.29765625 0.3453125
vt 0.265625 0.3453125
vt 0.265625 0.5828125
vt 0.29765625 0.5828125
vt 0.34561109375 0.24412124999999996
vt 0.31515765625 0.24412124999999996
vt 0.29816828125 0.18126374999999995
vt 0.345545 0.11830437500000002
vt 0.31515765625 0.24412124999999996
vt 0.31527265625 0.369533125
vt 0.28149046875 0.369533125
vt 0.29816828125 0.18126374999999995
vt 0.406549375 0.11830437500000002
vt 0.40651671875 0.24412124999999996
vt 0.34561109375 0.24412124999999996
vt 0.345545 0.11830437500000002
vt 0.31527265625 0.369533125
vt 0.31550109375 0.6191481249999999
vt 0.28182703125 0.6191481249999999
vt 0.28149046875 0.369533125
vt 0.34587203125 0.743354375
vt 0.4063878125 0.743354375
vt 0.406355625 0.867165
vt 0.345936875 0.867165
vt 0.43697015625 0.24412124999999996
vt 0.436645625 0.743354375
vt 0.31561421875 0.743354375
vt 0.31515765625 0.24412124999999996
vt 0.31561421875 0.743354375
vt 0.34587203125 0.743354375
vt 0.345936875 0.867165
vt 0.2988746875 0.80531
vt 0.484375 0.375
vt 0.484375 0.625
vt 0.453125 0.625
vt 0.453125 0.375
vn 1 0 0
vn 0 -0.316227766016838 0.948683298050514
vn 0 -0.9417419115948376 -0.33633639699815626
vn 0 -0.316227766016838 -0.948683298050514
vn 0 0 -1
vn 0 0.316227766016838 0.948683298050514
vn 0 0.316227766016838 -0.948683298050514
vn 0 0.9417419115948376 -0.33633639699815626
vn 1 0 0
vn 1 0 0
vn 1 0 0
vn 1 0 0
vn 1 0 0
vn 0 -0.9417419115948376 0.33633639699815626
vn 0 -1 0
vn 0 0.9417419115948376 0.33633639699815626
vn 0 1 0
vn 1 0 0
vn 1 0 0
vn 1 0 0
vn 1 0 0
vn 1 0 0
vn 1 0 0
vn 1 0 0
vn 0 0 1
usemtl m_2bb03a8e-3552-9178-74eb-1892283fb4e3
f 57/129/33 58/130/33 70/131/33 66/132/33
f 61/133/34 59/134/34 79/135/34 80/136/34
f 62/137/35 63/138/35 82/139/35 81/140/35
f 63/141/36 64/142/36 83/143/36 82/144/36
f 64/145/37 67/146/37 84/147/37 83/148/37
f 69/149/38 65/150/38 66/151/38 70/152/38
f 67/153/39 72/154/39 86/155/39 84/156/39
f 72/157/40 71/158/40 85/159/40 86/160/40
f 74/161/41 73/162/41 81/163/41 82/164/41
f 75/165/42 74/166/42 82/167/42 83/168/42
f 84/169/43 76/170/43 75/171/43 83/172/43
f 78/173/44 76/174/44 84/175/44 86/176/44
f 77/177/45 78/178/45 86/179/45 85/180/45
f 59/181/46 60/182/46 90/183/46 79/184/46
f 60/185/47 62/186/47 81/187/47 90/188/47
f 68/189/48 69/190/48 70/191/48 91/192/48
f 85/193/49 71/194/49 68/195/49 91/196/49
f 88/197/50 87/198/50 79/199/50 90/200/50
f 87/201/51 89/202/51 80/203/51 79/204/51
f 81/205/52 73/206/52 88/207/52 90/208/52
f 89/209/53 57/210/53 66/211/53 80/212/53
f 92/213/54 77/214/54 85/215/54 91/216/54
f 74/217/55 78/218/55 58/219/55 87/220/55
f 58/221/56 92/222/56 91/223/56 70/224/56
f 56/225/57 66/226/57 65/227/57 55/228/57
o cornersdown
v -0.32500000000000007 0.125 0.4375
v -0.4375 0.125 0.4375
v -0.4375 0.125 0.325
v -0.32500000000000007 0.125 0.5625
v -0.5 0.125 0.49999999999999994
v -0.5625 0.125 0.325
v -0.5 0 0.49999999999999994
v -0.32500000000000007 0 0.5625
v -0.5625 0 0.325
v -0.32500000000000007 0 0.4375
v -0.4375 0 0.4375
v -0.4375 0 0.325
v -0.32500000000000007 0.125 0.4375
v -0.4375 0.125 0.325
v -0.32500000000000007 0 0.4375
v -0.4375 0 0.325
v -0.4375 0.125 -0.325
v -0.4375 0.125 -0.4375
v -0.32500000000000007 0.125 -0.4375
v -0.5625 0.125 -0.325
v -0.5 0.125 -0.49999999999999994
v -0.32500000000000007 0.125 -0.5625
v -0.5 0 -0.49999999999999994
v -0.5625 0 -0.325
v -0.32500000000000007 0 -0.5625
v -0.4375 0 -0.325
v -0.4375 0 -0.4375
v -0.32500000000000007 0 -0.4375
v -0.4375 0.125 -0.325
v -0.32500000000000007 0.125 -0.4375
v -0.4375 0 -0.325
v -0.32500000000000007 0 -0.4375
v 0.32499999999999996 0.125 -0.4375
v 0.4375 0.125 -0.4375
v 0.4375 0.125 -0.325
v 0.32499999999999996 0.125 -0.5625
v 0.5 0.125 -0.49999999999999994
v 0.5625 0.125 -0.325
v 0.5 0 -0.49999999999999994
v 0.32499999999999996 0 -0.5625
v 0.5625 0 -0.325
v 0.32499999999999996 0 -0.4375
v 0.4375 0 -0.4375
v 0.4375 0 -0.325
v 0.32499999999999996 0.125 -0.4375
v 0.4375 0.125 -0.325
v 0.32499999999999996 0 -0.4375
v 0.4375 0 -0.325
v 0.4375 0.125 0.325
v 0.4375 0.125 0.4375
v 0.32499999999999996 0.125 0.4375
v 0.5625 0.125 0.325
v 0.5 0.125 0.49999999999999994
v 0.32499999999999996 0.125 0.5625
v 0.5 0 0.49999999999999994
v 0.5625 0 0.325
v 0.32499999999999996 0 0.5625
v 0.4375 0 0.325
v 0.4375 0 0.4375
v 0.32499999999999996 0 0.4375
v 0.4375 0.125 0.325
v 0.32499999999999996 0.125 0.4375
v 0.4375 0 0.325
v 0.32499999999999996 0 0.4375
vt 0.96875 1
vt 0.96875 0.875
vt 0.953125 0.8125
vt 0.9375 1
vt 0.96875 0.875
vt 0.96875 1
vt 0.9375 1
vt 0.953125 0.8125
vt 0.99176875 0.875
vt 0.9453125 0.875
vt 0.9453125 0.75
vt 0.99176875 0.75
vt 0.99176875 0.75
vt 0.9453125 0.75
vt 0.9453125 0.875
vt 0.99176875 0.875
vt 0.9671875 1
vt 0.9515625 0.9375
vt 0.9515625 0.825
vt 0.9828125 0.825
vt 0.953125 0.825
vt 0.984375 0.825
vt 0.984375 0.9375
vt 0.96875 1
vt 1 0.875
vt 1 1
vt 0.96875 1
vt 0.96875 0.875
vt 0.96875 1
vt 0.96875 0.875
vt 1 0.875
vt 1 1
vt 0.96875 1
vt 0.96875 0.875
vt 0.953125 0.8125
vt 0.9375 1
vt 0.96875 0.875
vt 0.96875 1
vt 0.9375 1
vt 0.953125 0.8125
vt 0.99176875 0.875
vt 0.9453125 0.875
vt 0.9453125 0.75
vt 0.99176875 0.75
vt 0.99176875 0.75
vt 0.9453125 0.75
vt 0.9453125 0.875
vt 0.99176875 0.875
vt 0.9671875 1
vt 0.9515625 0.9375
vt 0.9515625 0.825
vt 0.9828125 0.825
vt 0.953125 0.825
vt 0.984375 0.825
vt 0.984375 0.9375
vt 0.96875 1
vt 1 0.875
vt 1 1
vt 0.96875 1
vt 0.96875 0.875
vt 0.96875 1
vt 0.96875 0.875
vt 1 0.875
vt 1 1
vt 0.96875 1
vt 0.96875 0.875
vt 0.953125 0.8125
vt 0.9375 1
vt 0.96875 0.875
vt 0.96875 1
vt 0.9375 1
vt 0.953125 0.8125
vt 0.99176875 0.875
vt 0.9453125 0.875
vt 0.9453125 0.75
vt 0.99176875 0.75
vt 0.99176875 0.75
vt 0.9453125 0.75
vt 0.9453125 0.875
vt 0.99176875 0.875
vt 0.9671875 1
vt 0.9515625 0.9375
vt 0.9515625 0.825
vt 0.9828125 0.825
vt 0.953125 0.825
vt 0.984375 0.825
vt 0.984375 0.9375
vt 0.96875 1
vt 1 0.875
vt 1 1
vt 0.96875 1
vt 0.96875 0.875
vt 0.96875 1
vt 0.96875 0.875
vt 1 0.875
vt 1 1
vt 0.96875 1
vt 0.96875 0.875
vt 0.953125 0.8125
vt 0.9375 1
vt 0.96875 0.875
vt 0.96875 1
vt 0.9375 1
vt 0.953125 0.8125
vt 0.99176875 0.875
vt 0.9453125 0.875
vt 0.9453125 0.75
vt 0.99176875 0.75
vt 0.99176875 0.75
vt 0.9453125 0.75
vt 0.9453125 0.875
vt 0.99176875 0.875
vt 0.9671875 1
vt 0.9515625 0.9375
vt 0.9515625 0.825
vt 0.9828125 0.825
vt 0.953125 0.825
vt 0.984375 0.825
vt 0.984375 0.9375
vt 0.96875 1
vt 1 0.875
vt 1 1
vt 0.96875 1
vt 0.96875 0.875
vt 0.96875 1
vt 0.96875 0.875
vt 1 0.875
vt 1 1
vn 0 1 0
vn 0 1 0
vn -0.3363363969981566 0 0.9417419115948373
vn -0.9417419115948374 0 0.3363363969981564
vn 0 -1 0
vn 0 -1 0
vn 1 0 0
vn 0 0 -1
vn 0 1 0
vn 0 1 0
vn -0.9417419115948374 0 -0.3363363969981564
vn -0.3363363969981566 0 -0.9417419115948373
vn 0 -1 0
vn 0 -1 0
vn 0 0 1
vn 1 0 0
vn 0 1 0
vn 0 1 0
vn 0.3363363969981565 0 -0.9417419115948376
vn 0.9417419115948374 0 -0.3363363969981564
vn 0 -1 0
vn 0 -1 0
vn -1 0 0
vn 0 0 1
vn 0 1 0
vn 0 1 0
vn 0.9417419115948374 0 0.3363363969981564
vn 0.3363363969981565 0 0.9417419115948376
vn 0 -1 0
vn 0 -1 0
vn 0 0 -1
vn -1 0 0
usemtl m_2bb03a8e-3552-9178-74eb-1892283fb4e3
f 93/229/58 94/230/58 97/231/58 96/232/58
f 94/233/59 95/234/59 98/235/59 97/236/59
f 96/237/60 97/238/60 99/239/60 100/240/60
f 101/241/61 99/242/61 97/243/61 98/244/61
f 99/245/62 103/246/62 102/247/62 100/248/62
f 101/249/63 104/250/63 103/251/63 99/252/63
f 107/253/64 105/254/64 96/255/64 100/256/64
f 106/257/65 108/258/65 101/259/65 98/260/65
f 109/261/66 110/262/66 113/263/66 112/264/66
f 110/265/67 111/266/67 114/267/67 113/268/67
f 112/269/68 113/270/68 115/271/68 116/272/68
f 117/273/69 115/274/69 113/275/69 114/276/69
f 115/277/70 119/278/70 118/279/70 116/280/70
f 117/281/71 120/282/71 119/283/71 115/284/71
f 123/285/72 121/286/72 112/287/72 116/288/72
f 122/289/73 124/290/73 117/291/73 114/292/73
f 125/293/74 126/294/74 129/295/74 128/296/74
f 126/297/75 127/298/75 130/299/75 129/300/75
f 128/301/76 129/302/76 131/303/76 132/304/76
f 133/305/77 131/306/77 129/307/77 130/308/77
f 131/309/78 135/310/78 134/311/78 132/312/78
f 133/313/79 136/314/79 135/315/79 131/316/79
f 139/317/80 137/318/80 128/319/80 132/320/80
f 138/321/81 140/322/81 133/323/81 130/324/81
f 141/325/82 142/326/82 145/327/82 144/328/82
f 142/329/83 143/330/83 146/331/83 145/332/83
f 144/333/84 145/334/84 147/335/84 148/336/84
f 149/337/85 147/338/85 145/339/85 146/340/85
f 147/341/86 151/342/86 150/343/86 148/344/86
f 149/345/87 152/346/87 151/347/87 147/348/87
f 155/349/88 153/350/88 144/351/88 148/352/88
f 154/353/89 156/354/89 149/355/89 146/356/89
o eye4
v -0.35 0.375 0.43750000000000006
v -0.35 0.375 0.5625
v -0.22499999999999998 0.625 0.5625
v -0.22499999999999998 0.75 0.5625
v -0.2875 0.1875 0.43750000000000006
v -0.11250000000000004 0.125 0.43750000000000006
v -0.35 0.375 0.43750000000000006
v 0.11250000000000004 0.125 0.43750000000000006
v 0.2875000000000001 0.1875 0.43750000000000006
v 0.3500000000000001 0.375 0.43750000000000006
v -0.35 0.625 0.43750000000000006
v -0.35 0.625 0.5625
v 0.3500000000000001 0.625 0.43750000000000006
v -0.11250000000000004 0.875 0.43750000000000006
v -0.2875 0.8125 0.43750000000000006
v -0.2875 0.8125 0.5625
v 0.11250000000000004 0.875 0.43750000000000006
v 0.2875000000000001 0.8125 0.43750000000000006
v 0.11250000000000004 0.25 0.5625
v 0.2250000000000001 0.25 0.5625
v 0.2250000000000001 0.375 0.5625
v 0.2250000000000001 0.625 0.5625
v 0.11250000000000004 0.75 0.5625
v 0.2250000000000001 0.75 0.5625
v -0.2875 0.1875 0.5625
v -0.35 0.375 0.5625
v 0.11250000000000004 0.125 0.5625
v 0.2875000000000001 0.1875 0.5625
v 0.3500000000000001 0.375 0.5625
v 0.3500000000000001 0.625 0.5625
v 0.11250000000000004 0.875 0.5625
v 0.2875000000000001 0.8125 0.5625
v -0.22499999999999998 0.25 0.5625
v -0.11250000000000004 0.25 0.5625
v -0.22499999999999998 0.375 0.5625
v -0.11250000000000004 0.125 0.5625
v -0.11250000000000004 0.875 0.5625
v -0.11250000000000004 0.75 0.5625
vt 0.31550109375 0.6191481249999999
vt 0.31561421875 0.743354375
vt 0.2988746875 0.80531
vt 0.28182703125 0.6191481249999999
vt 0.265625 0.78125
vt 0.265625 0.595425
vt 0.296875 0.595425
vt 0.296875 0.78125
vt 0.265625 0.78125
vt 0.265625 0.595425
vt 0.296875 0.595425
vt 0.296875 0.78125
vt 0.265625 0.78125
vt 0.265625 0.595425
vt 0.296875 0.595425
vt 0.296875 0.78125
vt 0.484375 0.375
vt 0.484375 0.625
vt 0.453125 0.625
vt 0.453125 0.375
vt 0.265625 0.78125
vt 0.265625 0.595425
vt 0.296875 0.595425
vt 0.296875 0.78125
vt 0.265625 0.78125
vt 0.265625 0.595425
vt 0.296875 0.595425
vt 0.296875 0.78125
vt 0.296875 0.595425
vt 0.296875 0.78125
vt 0.265625 0.78125
vt 0.265625 0.595425
vt 0.43697015625 0.24412124999999996
vt 0.40651671875 0.24412124999999996
vt 0.406549375 0.11830437500000002
vt 0.453943125 0.18126374999999995
vt 0.4368884375 0.369533125
vt 0.43697015625 0.24412124999999996
vt 0.453943125 0.18126374999999995
vt 0.470670625 0.369533125
vt 0.47040015625 0.6191481249999999
vt 0.43672609375 0.6191481249999999
vt 0.4368884375 0.369533125
vt 0.470670625 0.369533125
vt 0.436645625 0.743354375
vt 0.43672609375 0.6191481249999999
vt 0.47040015625 0.6191481249999999
vt 0.45340140625 0.80531
vt 0.4063878125 0.743354375
vt 0.436645625 0.743354375
vt 0.45340140625 0.80531
vt 0.406355625 0.867165
vt 0.265625 0.78125
vt 0.265625 0.595425
vt 0.296875 0.595425
vt 0.296875 0.78125
vt 0.453125 0.3578125
vt 0.453125 0.5828125
vt 0.484375 0.5828125
vt 0.484375 0.3578125
vt 0.265625 0.78125
vt 0.265625 0.595425
vt 0.296875 0.595425
vt 0.296875 0.78125
vt 0.29765625 0.3453125
vt 0.265625 0.3453125
vt 0.265625 0.5828125
vt 0.29765625 0.5828125
vt 0.34561109375 0.24412124999999996
vt 0.31515765625 0.24412124999999996
vt 0.29816828125 0.18126374999999995
vt 0.345545 0.11830437500000002
vt 0.31515765625 0.24412124999999996
vt 0.31527265625 0.369533125
vt 0.28149046875 0.369533125
vt 0.29816828125 0.18126374999999995
vt 0.406549375 0.11830437500000002
vt 0.40651671875 0.24412124999999996
vt 0.34561109375 0.24412124999999996
vt 0.345545 0.11830437500000002
vt 0.31527265625 0.369533125
vt 0.31550109375 0.6191481249999999
vt 0.28182703125 0.6191481249999999
vt 0.28149046875 0.369533125
vt 0.34587203125 0.743354375
vt 0.4063878125 0.743354375
vt 0.406355625 0.867165
vt 0.345936875 0.867165
vt 0.43697015625 0.24412124999999996
vt 0.436645625 0.743354375
vt 0.31561421875 0.743354375
vt 0.31515765625 0.24412124999999996
vt 0.31561421875 0.743354375
vt 0.34587203125 0.743354375
vt 0.345936875 0.867165
vt 0.2988746875 0.80531
vt 0.484375 0.375
vt 0.484375 0.625
vt 0.453125 0.625
vt 0.453125 0.375
vn 0 0 1
vn -0.948683298050514 -0.31622776601683794 0
vn 0.3363363969981562 -0.9417419115948377 0
vn 0.948683298050514 -0.31622776601683794 0
vn 1 0 0
vn -0.948683298050514 0.31622776601683794 0
vn 0.948683298050514 0.31622776601683794 0
vn 0.3363363969981562 0.9417419115948377 0
vn 0 0 1
vn 0 0 1
vn 0 0 1
vn 0 0 1
vn 0 0 1
vn -0.3363363969981564 -0.9417419115948374 0
vn 0 -1 0
vn -0.3363363969981564 0.9417419115948374 0
vn 0 1 0
vn 0 0 1
vn 0 0 1
vn 0 0 1
vn 0 0 1
vn 0 0 1
vn 0 0 1
vn 0 0 1
vn -1 0 0
usemtl m_2bb03a8e-3552-9178-74eb-1892283fb4e3
f 159/357/90 160/358/90 172/359/90 168/360/90
f 163/361/91 161/362/91 181/363/91 182/364/91
f 164/365/92 165/366/92 184/367/92 183/368/92
f 165/369/93 166/370/93 185/371/93 184/372/93
f 166/373/94 169/374/94 186/375/94 185/376/94
f 171/377/95 167/378/95 168/379/95 172/380/95
f 169/381/96 174/382/96 188/383/96 186/384/96
f 174/385/97 173/386/97 187/387/97 188/388/97
f 176/389/98 175/390/98 183/391/98 184/392/98
f 177/393/99 176/394/99 184/395/99 185/396/99
f 186/397/100 178/398/100 177/399/100 185/400/100
f 180/401/101 178/402/101 186/403/101 188/404/101
f 179/405/102 180/406/102 188/407/102 187/408/102
f 161/409/103 162/410/103 192/411/103 181/412/103
f 162/413/104 164/414/104 183/415/104 192/416/104
f 170/417/105 171/418/105 172/419/105 193/420/105
f 187/421/106 173/422/106 170/423/106 193/424/106
f 190/425/107 189/426/107 181/427/107 192/428/107
f 189/429/108 191/430/108 182/431/108 181/432/108
f 183/433/109 175/434/109 190/435/109 192/436/109
f 191/437/110 159/438/110 168/439/110 182/440/110
f 194/441/111 179/442/111 187/443/111 193/444/111
f 176/445/112 180/446/112 160/447/112 189/448/112
f 160/449/113 194/450/113 193/451/113 172/452/113
f 158/453/114 168/454/114 167/455/114 157/456/114
o eye1
v -0.4375 0.375 -0.35
v -0.5625 0.375 -0.35
v -0.5625 0.625 -0.225
v -0.5625 0.75 -0.225
v -0.4375 0.1875 -0.2875
v -0.4375 0.125 -0.1125
v -0.4375 0.375 -0.35
v -0.4375 0.125 0.1125
v -0.4375 0.1875 0.2875
v -0.4375 0.375 0.35
v -0.4375 0.625 -0.35
v -0.5625 0.625 -0.35
v -0.4375 0.625 0.35
v -0.4375 0.875 -0.1125
v -0.4375 0.8125 -0.2875
v -0.5625 0.8125 -0.2875
v -0.4375 0.875 0.1125
v -0.4375 0.8125 0.2875
v -0.5625 0.25 0.1125
v -0.5625 0.25 0.225
v -0.5625 0.375 0.225
v -0.5625 0.625 0.225
v -0.5625 0.75 0.1125
v -0.5625 0.75 0.225
v -0.5625 0.1875 -0.2875
v -0.5625 0.375 -0.35
v -0.5625 0.125 0.1125
v -0.5625 0.1875 0.2875
v -0.5625 0.375 0.35
v -0.5625 0.625 0.35
v -0.5625 0.875 0.1125
v -0.5625 0.8125 0.2875
v -0.5625 0.25 -0.225
v -0.5625 0.25 -0.1125
v -0.5625 0.375 -0.225
v -0.5625 0.125 -0.1125
v -0.5625 0.875 -0.1125
v -0.5625 0.75 -0.1125
vt 0.31550109375 0.6191481249999999
vt 0.31561421875 0.743354375
vt 0.2988746875 0.80531
vt 0.28182703125 0.6191481249999999
vt 0.265625 0.78125
vt 0.265625 0.595425
vt 0.296875 0.595425
vt 0.296875 0.78125
vt 0.265625 0.78125
vt 0.265625 0.595425
vt 0.296875 0.595425
vt 0.296875 0.78125
vt 0.265625 0.78125
vt 0.265625 0.595425
vt 0.296875 0.595425
vt 0.296875 0.78125
vt 0.484375 0.375
vt 0.484375 0.625
vt 0.453125 0.625
vt 0.453125 0.375
vt 0.265625 0.78125
vt 0.265625 0.595425
vt 0.296875 0.595425
vt 0.296875 0.78125
vt 0.265625 0.78125
vt 0.265625 0.595425
vt 0.296875 0.595425
vt 0.296875 0.78125
vt 0.296875 0.595425
vt 0.296875 0.78125
vt 0.265625 0.78125
vt 0.265625 0.595425
vt 0.43697015625 0.24412124999999996
vt 0.40651671875 0.24412124999999996
vt 0.406549375 0.11830437500000002
vt 0.453943125 0.18126374999999995
vt 0.4368884375 0.369533125
vt 0.43697015625 0.24412124999999996
vt 0.453943125 0.18126374999999995
vt 0.470670625 0.369533125
vt 0.47040015625 0.6191481249999999
vt 0.43672609375 0.6191481249999999
vt 0.4368884375 0.369533125
vt 0.470670625 0.369533125
vt 0.436645625 0.743354375
vt 0.43672609375 0.6191481249999999
vt 0.47040015625 0.6191481249999999
vt 0.45340140625 0.80531
vt 0.4063878125 0.743354375
vt 0.436645625 0.743354375
vt 0.45340140625 0.80531
vt 0.406355625 0.867165
vt 0.265625 0.78125
vt 0.265625 0.595425
vt 0.296875 0.595425
vt 0.296875 0.78125
vt 0.453125 0.3578125
vt 0.453125 0.5828125
vt 0.484375 0.5828125
vt 0.484375 0.3578125
vt 0.265625 0.78125
vt 0.265625 0.595425
vt 0.296875 0.595425
vt 0.296875 0.78125
vt 0.29765625 0.3453125
vt 0.265625 0.3453125
vt 0.265625 0.5828125
vt 0.29765625 0.5828125
vt 0.34561109375 0.24412124999999996
vt 0.31515765625 0.24412124999999996
vt 0.29816828125 0.18126374999999995
vt 0.345545 0.11830437500000002
vt 0.31515765625 0.24412124999999996
vt 0.31527265625 0.369533125
vt 0.28149046875 0.369533125
vt 0.29816828125 0.18126374999999995
vt 0.406549375 0.11830437500000002
vt 0.40651671875 0.24412124999999996
vt 0.34561109375 0.24412124999999996
vt 0.345545 0.11830437500000002
vt 0.31527265625 0.369533125
vt 0.31550109375 0.6191481249999999
vt 0.28182703125 0.6191481249999999
vt 0.28149046875 0.369533125
vt 0.34587203125 0.743354375
vt 0.4063878125 0.743354375
vt 0.406355625 0.867165
vt 0.345936875 0.867165
vt 0.43697015625 0.24412124999999996
vt 0.436645625 0.743354375
vt 0.31561421875 0.743354375
vt 0.31515765625 0.24412124999999996
vt 0.31561421875 0.743354375
vt 0.34587203125 0.743354375
vt 0.345936875 0.867165
vt 0.2988746875 0.80531
vt 0.484375 0.375
vt 0.484375 0.625
vt 0.453125 0.625
vt 0.453125 0.375
vn -1 0 0
vn 0 -0.316227766016838 -0.948683298050514
vn 0 -0.9417419115948376 0.33633639699815626
vn 0 -0.316227766016838 0.948683298050514
vn 0 0 1
vn 0 0.316227766016838 -0.948683298050514
vn 0 0.316227766016838 0.948683298050514
vn 0 0.9417419115948376 0.33633639699815626
vn -1 0 0
vn -1 0 0
vn -1 0 0
vn -1 0 0
vn -1 0 0
vn 0 -0.9417419115948376 -0.33633639699815626
vn 0 -1 0
vn 0 0.9417419115948376 -0.33633639699815626
vn 0 1 0
vn -1 0 0
vn -1 0 0
vn -1 0 0
vn -1 0 0
vn -1 0 0
vn -1 0 0
vn -1 0 0
vn 0 0 -1
usemtl m_2bb03a8e-3552-9178-74eb-1892283fb4e3
f 197/457/115 198/458/115 210/459/115 206/460/115
f 201/461/116 199/462/116 219/463/116 220/464/116
f 202/465/117 203/466/117 222/467/117 221/468/117
f 203/469/118 204/470/118 223/471/118 222/472/118
f 204/473/119 207/474/119 224/475/119 223/476/119
f 209/477/120 205/478/120 206/479/120 210/480/120
f 207/481/121 212/482/121 226/483/121 224/484/121
f 212/485/122 211/486/122 225/487/122 226/488/122
f 214/489/123 213/490/123 221/491/123 222/492/123
f 215/493/124 214/494/124 222/495/124 223/496/124
f 224/497/125 216/498/125 215/499/125 223/500/125
f 218/501/126 216/502/126 224/503/126 226/504/126
f 217/505/127 218/506/127 226/507/127 225/508/127
f 199/509/128 200/510/128 230/511/128 219/512/128
f 200/513/129 202/514/129 221/515/129 230/516/129
f 208/517/130 209/518/130 210/519/130 231/520/130
f 225/521/131 211/522/131 208/523/131 231/524/131
f 228/525/132 227/526/132 219/527/132 230/528/132
f 227/529/133 229/530/133 220/531/133 219/532/133
f 221/533/134 213/534/134 228/535/134 230/536/134
f 229/537/135 197/538/135 206/539/135 220/540/135
f 232/541/136 217/542/136 225/543/136 231/544/136
f 214/545/137 218/546/137 198/547/137 227/548/137
f 198/549/138 232/550/138 231/551/138 210/552/138
f 196/553/139 206/554/139 205/555/139 195/556/139
o eye2
v 0.3500000000000001 0.375 -0.43750000000000006
v 0.3500000000000001 0.375 -0.5625
v 0.2250000000000001 0.625 -0.5625
v 0.2250000000000001 0.75 -0.5625
v 0.2875000000000001 0.1875 -0.43750000000000006
v 0.11250000000000004 0.125 -0.43750000000000006
v 0.3500000000000001 0.375 -0.43750000000000006
v -0.11250000000000004 0.125 -0.43750000000000006
v -0.2875 0.1875 -0.43750000000000006
v -0.35 0.375 -0.43750000000000006
v 0.3500000000000001 0.625 -0.43750000000000006
v 0.3500000000000001 0.625 -0.5625
v -0.35 0.625 -0.43750000000000006
v 0.11250000000000004 0.875 -0.43750000000000006
v 0.2875000000000001 0.8125 -0.43750000000000006
v 0.2875000000000001 0.8125 -0.5625
v -0.11250000000000004 0.875 -0.43750000000000006
v -0.2875 0.8125 -0.43750000000000006
v -0.11250000000000004 0.25 -0.5625
v -0.22499999999999998 0.25 -0.5625
v -0.22499999999999998 0.375 -0.5625
v -0.22499999999999998 0.625 -0.5625
v -0.11250000000000004 0.75 -0.5625
v -0.22499999999999998 0.75 -0.5625
v 0.2875000000000001 0.1875 -0.5625
v 0.3500000000000001 0.375 -0.5625
v -0.11250000000000004 0.125 -0.5625
v -0.2875 0.1875 -0.5625
v -0.35 0.375 -0.5625
v -0.35 0.625 -0.5625
v -0.11250000000000004 0.875 -0.5625
v -0.2875 0.8125 -0.5625
v 0.2250000000000001 0.25 -0.5625
v 0.11250000000000004 0.25 -0.5625
v 0.2250000000000001 0.375 -0.5625
v 0.11250000000000004 0.125 -0.5625
v 0.11250000000000004 0.875 -0.5625
v 0.11250000000000004 0.75 -0.5625
vt 0.31550109375 0.6191481249999999
vt 0.31561421875 0.743354375
vt 0.2988746875 0.80531
vt 0.28182703125 0.6191481249999999
vt 0.265625 0.78125
vt 0.265625 0.595425
vt 0.296875 0.595425
vt 0.296875 0.78125
vt 0.265625 0.78125
vt 0.265625 0.595425
vt 0.296875 0.595425
vt 0.296875 0.78125
vt 0.265625 0.78125
vt 0.265625 0.595425
vt 0.296875 0.595425
vt 0.296875 0.78125
vt 0.484375 0.375
vt 0.484375 0.625
vt 0.453125 0.625
vt 0.453125 0.375
vt 0.265625 0.78125
vt 0.265625 0.595425
vt 0.296875 0.595425
vt 0.296875 0.78125
vt 0.265625 0.78125
vt 0.265625 0.595425
vt 0.296875 0.595425
vt 0.296875 0.78125
vt 0.296875 0.595425
vt 0.296875 0.78125
vt 0.265625 0.78125
vt 0.265625 0.595425
vt 0.43697015625 0.24412124999999996
vt 0.40651671875 0.24412124999999996
vt 0.406549375 0.11830437500000002
vt 0.453943125 0.18126374999999995
vt 0.4368884375 0.369533125
vt 0.43697015625 0.24412124999999996
vt 0.453943125 0.18126374999999995
vt 0.470670625 0.369533125
vt 0.47040015625 0.6191481249999999
vt 0.43672609375 0.6191481249999999
vt 0.4368884375 0.369533125
vt 0.470670625 0.369533125
vt 0.436645625 0.743354375
vt 0.43672609375 0.6191481249999999
vt 0.47040015625 0.6191481249999999
vt 0.45340140625 0.80531
vt 0.4063878125 0.743354375
vt 0.436645625 0.743354375
vt 0.45340140625 0.80531
vt 0.406355625 0.867165
vt 0.265625 0.78125
vt 0.265625 0.595425
vt 0.296875 0.595425
vt 0.296875 0.78125
vt 0.453125 0.3578125
vt 0.453125 0.5828125
vt 0.484375 0.5828125
vt 0.484375 0.3578125
vt 0.265625 0.78125
vt 0.265625 0.595425
vt 0.296875 0.595425
vt 0.296875 0.78125
vt 0.29765625 0.3453125
vt 0.265625 0.3453125
vt 0.265625 0.5828125
vt 0.29765625 0.5828125
vt 0.34561109375 0.24412124999999996
vt 0.31515765625 0.24412124999999996
vt 0.29816828125 0.18126374999999995
vt 0.345545 0.11830437500000002
vt 0.31515765625 0.24412124999999996
vt 0.31527265625 0.369533125
vt 0.28149046875 0.369533125
vt 0.29816828125 0.18126374999999995
vt 0.406549375 0.11830437500000002
vt 0.40651671875 0.24412124999999996
vt 0.34561109375 0.24412124999999996
vt 0.345545 0.11830437500000002
vt 0.31527265625 0.369533125
vt 0.31550109375 0.6191481249999999
vt 0.28182703125 0.6191481249999999
vt 0.28149046875 0.369533125
vt 0.34587203125 0.743354375
vt 0.4063878125 0.743354375
vt 0.406355625 0.867165
vt 0.345936875 0.867165
vt 0.43697015625 0.24412124999999996
vt 0.436645625 0.743354375
vt 0.31561421875 0.743354375
vt 0.31515765625 0.24412124999999996
vt 0.31561421875 0.743354375
vt 0.34587203125 0.743354375
vt 0.345936875 0.867165
vt 0.2988746875 0.80531
vt 0.484375 0.375
vt 0.484375 0.625
vt 0.453125 0.625
vt 0.453125 0.375
vn 0 0 -1
vn 0.948683298050514 -0.31622776601683794 0
vn -0.3363363969981564 -0.9417419115948374 0
vn -0.948683298050514 -0.31622776601683794 0
vn -1 0 0
vn 0.948683298050514 0.31622776601683794 0
vn -0.948683298050514 0.31622776601683794 0
vn -0.3363363969981564 0.9417419115948374 0
vn 0 0 -1
vn 0 0 -1
vn 0 0 -1
vn 0 0 -1
vn 0 0 -1
vn 0.3363363969981562 -0.9417419115948377 0
vn 0 -1 0
vn 0.3363363969981562 0.9417419115948377 0
vn 0 1 0
vn 0 0 -1
vn 0 0 -1
vn 0 0 -1
vn 0 0 -1
vn 0 0 -1
vn 0 0 -1
vn 0 0 -1
vn 1 0 0
usemtl m_2bb03a8e-3552-9178-74eb-1892283fb4e3
f 235/557/140 236/558/140 248/559/140 244/560/140
f 239/561/141 237/562/141 257/563/141 258/564/141
f 240/565/142 241/566/142 260/567/142 259/568/142
f 241/569/143 242/570/143 261/571/143 260/572/143
f 242/573/144 245/574/144 262/575/144 261/576/144
f 247/577/145 243/578/145 244/579/145 248/580/145
f 245/581/146 250/582/146 264/583/146 262/584/146
f 250/585/147 249/586/147 263/587/147 264/588/147
f 252/589/148 251/590/148 259/591/148 260/592/148
f 253/593/149 252/594/149 260/595/149 261/596/149
f 262/597/150 254/598/150 253/599/150 261/600/150
f 256/601/151 254/602/151 262/603/151 264/604/151
f 255/605/152 256/606/152 264/607/152 263/608/152
f 237/609/153 238/610/153 268/611/153 257/612/153
f 238/613/154 240/614/154 259/615/154 268/616/154
f 246/617/155 247/618/155 248/619/155 269/620/155
f 263/621/156 249/622/156 246/623/156 269/624/156
f 266/625/157 265/626/157 257/627/157 268/628/157
f 265/629/158 267/630/158 258/631/158 257/632/158
f 259/633/159 251/634/159 266/635/159 268/636/159
f 267/637/160 235/638/160 244/639/160 258/640/160
f 270/641/161 255/642/161 263/643/161 269/644/161
f 252/645/162 256/646/162 236/647/162 265/648/162
f 236/649/163 270/650/163 269/651/163 248/652/163
f 234/653/164 244/654/164 243/655/164 233/656/164
o frame
v 0.4375 1 0.4375
v 0.4375 1 -0.4375
v 0.4375 0 0.4375
v 0.4375 0 -0.4375
v -0.4375 1 0.4375
v -0.4375 1 -0.4375
v -0.4375 0 0.4375
v -0.4375 0 -0.4375
vt 0.484375 1
vt 0.265625 1
vt 0.265625 0
vt 0.484375 0
vt 0.484375 0
vt 0.484375 1
vt 0.265625 1
vt 0.265625 0
vt 0.734375 0.0625
vt 0.734375 0.9375
vt 0.515625 0.9375
vt 0.515625 0.0625
vt 0.484375 0
vt 0.484375 1
vt 0.265625 1
vt 0.265625 0
vt 0.484375 1
vt 0.265625 1
vt 0.265625 0
vt 0.484375 0
vn 1 0 0
vn -1 0 0
vn 0 -1 0
vn 0 0 1
vn 0 0 -1
usemtl m_2bb03a8e-3552-9178-74eb-1892283fb4e3
f 272/657/165 271/658/165 273/659/165 274/660/165
f 277/661/166 275/662/166 276/663/166 278/664/166
f 274/665/167 273/666/167 277/667/167 278/668/167
f 273/669/168 271/670/168 275/671/168 277/672/168
f 276/673/169 272/674/169 274/675/169 278/676/169
o up
v 0.1875 0.875 0.1875
v -0.1875 0.875 0.1875
v 0.1875 0.875 -0.1875
v -0.1875 0.875 -0.1875
v 0.4375 1 -0.4375
v 0.4375 1 0.4375
v 0.4375 1 -0.1875
v 0.1875 1 -0.18750000000000006
v 0.4375 1 0.1875
v 0.1875 1 0.4375
v 0.1875 1 0.1875
v -0.1875 1 0.4375
v 0.1875 1 -0.4375
v -0.1875 1 -0.4375
v -0.1875 1 -0.18749999999999994
v -0.4375 1 -0.1875
v -0.1875 1 0.18750000000000006
v -0.4375 1 0.1875
v -0.4375 1 -0.4375
v -0.4375 1 0.4375
vt 0.0703125 0.71875
vt 0.0703125 0.28125
vt 0.171875 0.28125
vt 0.171875 0.71875
vt 0.0703125 0.28125
vt 0 0.28125
vt 0 0
vt 0.0703125 0
vt 0.0703125 1
vt 0 1
vt 0 0.71875
vt 0.0703125 0.71875
vt 0 0.71875
vt 0 0.28125
vt 0.0703125 0.28125
vt 0.0703125 0.71875
vt 0.171875 1
vt 0.0703125 1
vt 0.0703125 0.71875
vt 0.171875 0.71875
vt 0.171875 0.28125
vt 0.0703125 0.28125
vt 0.0703125 0
vt 0.171875 0
vt 0.171875 0.71875
vt 0.171875 0.28125
vt 0.25 0.28125
vt 0.25 0.71875
vt 0.25 0.28125
vt 0.171875 0.28125
vt 0.171875 0
vt 0.25 0
vt 0.25 1
vt 0.171875 1
vt 0.171875 0.71875
vt 0.25 0.71875
vt 0.078125 0.65625
vt 0.078125 0.78125
vt 0.171875 0.78125
vt 0.171875 0.65625
vt 0.078125 0.65625
vt 0.078125 0.78125
vt 0.171875 0.78125
vt 0.171875 0.65625
vt 0.078125 0.65625
vt 0.078125 0.78125
vt 0.171875 0.78125
vt 0.171875 0.65625
vt 0.078125 0.65625
vt 0.078125 0.78125
vt 0.171875 0.78125
vt 0.171875 0.65625
vn 0 1 0
vn 0 1 0
vn 0 1 0
vn 0 1 0
vn 0 1 0
vn 0 1 0
vn 0 1 0
vn 0 1 0
vn 0 1 0
vn 0 0 -1
vn 1 0 0
vn 0 -4.44089209850062616 1
vn -1 0 0
usemtl m_2bb03a8e-3552-9178-74eb-1892283fb4e3
f 282/677/170 280/678/170 279/679/170 281/680/170
f 286/681/171 285/682/171 283/683/171 291/684/171
f 288/685/172 284/686/172 287/687/172 289/688/172
f 287/689/173 285/690/173 286/691/173 289/692/173
f 290/693/174 288/694/174 289/695/174 295/696/174
f 293/697/175 286/698/175 291/699/175 292/700/175
f 295/701/176 293/702/176 294/703/176 296/704/176
f 294/705/177 293/706/177 292/707/177 297/708/177
f 298/709/178 290/710/178 295/711/178 296/712/178
f 289/713/179 279/714/179 280/715/179 295/716/179
f 295/717/180 280/718/180 282/719/180 293/720/180
f 293/721/181 282/722/181 281/723/181 286/724/181
f 286/725/182 281/726/182 279/727/182 289/728/182