# Made in Blockbench 5.1.6
mtllib sphere.mtl

o default
o mesh
v 0.57537125 1.57537125 0.57537125
v 0.57537125 1.57537125 -0.57537125
v 0.57537125 0.42462875 0.57537125
v 0.57537125 0.42462875 -0.57537125
v -0.57537125 1.57537125 0.57537125
v -0.57537125 1.57537125 -0.57537125
v -0.57537125 0.42462875 0.57537125
v -0.57537125 0.42462875 -0.57537125
v 0.974175625 1 0
v -0.974175625 1 0
v 0 1.974175625 0
v 0 0.025824375 0
v 0 1 0.974175625
v 0 1 -0.974175625
v 0.7088475 1.7088475 0
v 0.7088475 1 0.7088475
v 0.7088475 0.2911525 0
v 0.7088475 1 -0.7088475
v -0.7088475 1 0.7088475
v -0.7088475 1.7088475 0
v -0.7088475 1 -0.7088475
v -0.7088475 0.2911525 0
v 0 1.7088475 0.7088475
v 0 1.7088475 -0.7088475
v 0 0.2911525 0.7088475
v 0 0.2911525 -0.7088475
v 0.845971875 1.365901875 -0.365901875
v 0.845971875 1.365901875 0.365901875
v 0.845971875 0.634098125 0.365901875
v 0.845971875 0.634098125 -0.365901875
v -0.845971875 0.634098125 0.365901875
v -0.845971875 1.365901875 0.365901875
v -0.845971875 1.365901875 -0.365901875
v -0.845971875 0.634098125 -0.365901875
v -0.365901875 1.845971875 0.365901875
v 0.365901875 1.845971875 0.365901875
v 0.365901875 1.845971875 -0.365901875
v -0.365901875 1.845971875 -0.365901875
v 0.365901875 0.154028125 -0.365901875
v 0.365901875 0.154028125 0.365901875
v -0.365901875 0.154028125 0.365901875
v -0.365901875 0.154028125 -0.365901875
v 0.365901875 0.634098125 0.845971875
v 0.365901875 1.365901875 0.845971875
v -0.365901875 1.365901875 0.845971875
v -0.365901875 0.634098125 0.845971875
v -0.365901875 1.365901875 -0.845971875
v 0.365901875 1.365901875 -0.845971875
v 0.365901875 0.634098125 -0.845971875
v -0.365901875 0.634098125 -0.845971875
v 0.664844375 1.341384375 -0.664844375
v 0.664844375 1.664844375 -0.341384375
v 0.90761 1.387161875 0
v 0.90761 1 -0.387161875
v 0.664844375 1.664844375 0.341384375
v 0.664844375 1.341384375 0.664844375
v 0.90761 1 0.387161875
v 0.664844375 0.658615625 0.664844375
v 0.664844375 0.335155625 0.341384375
v 0.90761 0.612838125 0
v 0.664844375 0.335155625 -0.341384375
v 0.664844375 0.658615625 -0.664844375
v -0.664844375 0.335155625 0.341384375
v -0.664844375 0.658615625 0.664844375
v -0.90761 1 0.387161875
v -0.90761 0.612838125 0
v -0.664844375 1.341384375 0.664844375
v -0.664844375 1.664844375 0.341384375
v -0.90761 1.387161875 0
v -0.664844375 1.664844375 -0.341384375
v -0.664844375 1.341384375 -0.664844375
v -0.90761 1 -0.387161875
v -0.664844375 0.658615625 -0.664844375
v -0.664844375 0.335155625 -0.341384375
v -0.341384375 1.664844375 0.664844375
v 0 1.90761 0.387161875
v -0.387161875 1.90761 0
v 0.341384375 1.664844375 0.664844375
v 0.387161875 1.90761 0
v 0.341384375 1.664844375 -0.664844375
v 0 1.90761 -0.387161875
v -0.341384375 1.664844375 -0.664844375
v 0.341384375 0.335155625 -0.664844375
v 0.387161875 0.09239 0
v 0 0.09239 -0.387161875
v 0.341384375 0.335155625 0.664844375
v 0 0.09239 0.387161875
v -0.341384375 0.335155625 0.664844375
v -0.387161875 0.09239 0
v -0.341384375 0.335155625 -0.664844375
v 0.387161875 1 0.90761
v 0 0.612838125 0.90761
v 0 1.387161875 0.90761
v -0.387161875 1 0.90761
v 0 1.387161875 -0.90761
v -0.387161875 1 -0.90761
v 0.387161875 1 -0.90761
v 0 0.612838125 -0.90761
v 0.810360625 1.18024625 -0.5504475
v 0.7087025 1.498083125 -0.498083125
v 0.810360625 1.5504475 -0.18024625
v 0.94106375 1.1941875 -0.1941875
v 0.810360625 1.5504475 0.18024625
v 0.7087025 1.498083125 0.498083125
v 0.810360625 1.18024625 0.5504475
v 0.94106375 1.1941875 0.1941875
v 0.810360625 0.81975375 0.5504475
v 0.7087025 0.501916875 0.498083125
v 0.810360625 0.4495525 0.18024625
v 0.94106375 0.8058125 0.1941875
v 0.810360625 0.4495525 -0.18024625
v 0.7087025 0.501916875 -0.498083125
v 0.810360625 0.81975375 -0.5504475
v 0.94106375 0.8058125 -0.1941875
v -0.810360625 0.4495525 0.18024625
v -0.7087025 0.501916875 0.498083125
v -0.810360625 0.81975375 0.5504475
v -0.94106375 0.8058125 0.1941875
v -0.810360625 1.18024625 0.5504475
v -0.7087025 1.498083125 0.498083125
v -0.810360625 1.5504475 0.18024625
v -0.94106375 1.1941875 0.1941875
v -0.810360625 1.5504475 -0.18024625
v -0.7087025 1.498083125 -0.498083125
v -0.810360625 1.18024625 -0.5504475
v -0.94106375 1.1941875 -0.1941875
v -0.810360625 0.81975375 -0.5504475
v -0.7087025 0.501916875 -0.498083125
v -0.810360625 0.4495525 -0.18024625
v -0.94106375 0.8058125 -0.1941875
v -0.5504475 1.810360625 0.18024625
v -0.498083125 1.7087025 0.498083125
v -0.18024625 1.810360625 0.5504475
v -0.1941875 1.94106375 0.1941875
v 0.18024625 1.810360625 0.5504475
v 0.498083125 1.7087025 0.498083125
v 0.5504475 1.810360625 0.18024625
v 0.1941875 1.94106375 0.1941875
v 0.5504475 1.810360625 -0.18024625
v 0.498083125 1.7087025 -0.498083125
v 0.18024625 1.810360625 -0.5504475
v 0.1941875 1.94106375 -0.1941875
v -0.18024625 1.810360625 -0.5504475
v -0.498083125 1.7087025 -0.498083125
v -0.5504475 1.810360625 -0.18024625
v -0.1941875 1.94106375 -0.1941875
v 0.18024625 0.189639375 -0.5504475
v 0.498083125 0.2912975 -0.498083125
v 0.5504475 0.189639375 -0.18024625
v 0.1941875 0.05893625 -0.1941875
v 0.5504475 0.189639375 0.18024625
v 0.498083125 0.2912975 0.498083125
v 0.18024625 0.189639375 0.5504475
v 0.1941875 0.05893625 0.1941875
v -0.18024625 0.189639375 0.5504475
v -0.498083125 0.2912975 0.498083125
v -0.5504475 0.189639375 0.18024625
v -0.1941875 0.05893625 0.1941875
v -0.5504475 0.189639375 -0.18024625
v -0.498083125 0.2912975 -0.498083125
v -0.18024625 0.189639375 -0.5504475
v -0.1941875 0.05893625 -0.1941875
v 0.18024625 0.4495525 0.810360625
v 0.498083125 0.501916875 0.7087025
v 0.5504475 0.81975375 0.810360625
v 0.1941875 0.8058125 0.94106375
v 0.5504475 1.18024625 0.810360625
v 0.498083125 1.498083125 0.7087025
v 0.18024625 1.5504475 0.810360625
v 0.1941875 1.1941875 0.94106375
v -0.18024625 1.5504475 0.810360625
v -0.498083125 1.498083125 0.7087025
v -0.5504475 1.18024625 0.810360625
v -0.1941875 1.1941875 0.94106375
v -0.5504475 0.81975375 0.810360625
v -0.498083125 0.501916875 0.7087025
v -0.18024625 0.4495525 0.810360625
v -0.1941875 0.8058125 0.94106375
v -0.5504475 1.18024625 -0.810360625
v -0.498083125 1.498083125 -0.7087025
v -0.18024625 1.5504475 -0.810360625
v -0.1941875 1.1941875 -0.94106375
v 0.18024625 1.5504475 -0.810360625
v 0.498083125 1.498083125 -0.7087025
v 0.5504475 1.18024625 -0.810360625
v 0.1941875 1.1941875 -0.94106375
v 0.5504475 0.81975375 -0.810360625
v 0.498083125 0.501916875 -0.7087025
v 0.18024625 0.4495525 -0.810360625
v 0.1941875 0.8058125 -0.94106375
v -0.18024625 0.4495525 -0.810360625
v -0.498083125 0.501916875 -0.7087025
v -0.5504475 0.81975375 -0.810360625
v -0.1941875 0.8058125 -0.94106375
v 0.824675625 1 -0.56028125
v 0.696461875 1.176760625 -0.696461875
v 0.770630625 1.34982875 -0.5275225
v 0.891956875 1.187216875 -0.380346875
v 0.61953375 1.481735 -0.61953375
v 0.61953375 1.61953375 -0.481735
v 0.770630625 1.5275225 -0.34982875
v 0.696461875 1.696461875 -0.176760625
v 0.824675625 1.56028125 0
v 0.891956875 1.380346875 -0.187216875
v 0.957495 1.197673125 0
v 0.957495 1 -0.197673125
v 0.696461875 1.696461875 0.176760625
v 0.770630625 1.5275225 0.34982875
v 0.891956875 1.380346875 0.187216875
v 0.61953375 1.61953375 0.481735
v 0.61953375 1.481735 0.61953375
v 0.770630625 1.34982875 0.5275225
v 0.696461875 1.176760625 0.696461875
v 0.824675625 1 0.56028125
v 0.891956875 1.187216875 0.380346875
v 0.957495 1 0.197673125
v 0.696461875 0.823239375 0.696461875
v 0.770630625 0.65017125 0.5275225
v 0.891956875 0.812783125 0.380346875
v 0.61953375 0.518265 0.61953375
v 0.61953375 0.38046625 0.481735
v 0.770630625 0.4724775 0.34982875
v 0.696461875 0.303538125 0.176760625
v 0.824675625 0.43971875 0
v 0.891956875 0.619653125 0.187216875
v 0.957495 0.802326875 0
v 0.696461875 0.303538125 -0.176760625
v 0.770630625 0.4724775 -0.34982875
v 0.891956875 0.619653125 -0.187216875
v 0.61953375 0.38046625 -0.481735
v 0.61953375 0.518265 -0.61953375
v 0.770630625 0.65017125 -0.5275225
v 0.696461875 0.823239375 -0.696461875
v 0.891956875 0.812783125 -0.380346875
v -0.824675625 0.43971875 0
v -0.696461875 0.303538125 0.176760625
v -0.770630625 0.4724775 0.34982875
v -0.891956875 0.619653125 0.187216875
v -0.61953375 0.38046625 0.481735
v -0.61953375 0.518265 0.61953375
v -0.770630625 0.65017125 0.5275225
v -0.696461875 0.823239375 0.696461875
v -0.824675625 1 0.56028125
v -0.891956875 0.812783125 0.380346875
v -0.957495 1 0.197673125
v -0.957495 0.802326875 0
v -0.696461875 1.176760625 0.696461875
v -0.770630625 1.34982875 0.5275225
v -0.891956875 1.187216875 0.380346875
v -0.61953375 1.481735 0.61953375
v -0.61953375 1.61953375 0.481735
v -0.770630625 1.5275225 0.34982875
v -0.696461875 1.696461875 0.176760625
v -0.824675625 1.56028125 0
v -0.891956875 1.380346875 0.187216875
v -0.957495 1.197673125 0
v -0.696461875 1.696461875 -0.176760625
v -0.770630625 1.5275225 -0.34982875
v -0.891956875 1.380346875 -0.187216875
v -0.61953375 1.61953375 -0.481735
v -0.61953375 1.481735 -0.61953375
v -0.770630625 1.34982875 -0.5275225
v -0.696461875 1.176760625 -0.696461875
v -0.824675625 1 -0.56028125
v -0.891956875 1.187216875 -0.380346875
v -0.957495 1 -0.197673125
v -0.696461875 0.823239375 -0.696461875
v -0.770630625 0.65017125 -0.5275225
v -0.891956875 0.812783125 -0.380346875
v -0.61953375 0.518265 -0.61953375
v -0.61953375 0.38046625 -0.481735
v -0.770630625 0.4724775 -0.34982875
v -0.696461875 0.303538125 -0.176760625
v -0.891956875 0.619653125 -0.187216875
v -0.56028125 1.824675625 0
v -0.5275225 1.770630625 0.34982875
v -0.380346875 1.891956875 0.187216875
v -0.481735 1.61953375 0.61953375
v -0.34982875 1.770630625 0.5275225
v -0.176760625 1.696461875 0.696461875
v 0 1.824675625 0.56028125
v -0.187216875 1.891956875 0.380346875
v 0 1.957495 0.197673125
v -0.197673125 1.957495 0
v 0.176760625 1.696461875 0.696461875
v 0.34982875 1.770630625 0.5275225
v 0.187216875 1.891956875 0.380346875
v 0.481735 1.61953375 0.61953375
v 0.5275225 1.770630625 0.34982875
v 0.56028125 1.824675625 0
v 0.380346875 1.891956875 0.187216875
v 0.197673125 1.957495 0
v 0.5275225 1.770630625 -0.34982875
v 0.380346875 1.891956875 -0.187216875
v 0.481735 1.61953375 -0.61953375
v 0.34982875 1.770630625 -0.5275225
v 0.176760625 1.696461875 -0.696461875
v 0 1.824675625 -0.56028125
v 0.187216875 1.891956875 -0.380346875
v 0 1.957495 -0.197673125
v -0.176760625 1.696461875 -0.696461875
v -0.34982875 1.770630625 -0.5275225
v -0.187216875 1.891956875 -0.380346875
v -0.481735 1.61953375 -0.61953375
v -0.5275225 1.770630625 -0.34982875
v -0.380346875 1.891956875 -0.187216875
v 0 0.175324375 -0.56028125
v 0.176760625 0.303538125 -0.696461875
v 0.34982875 0.229369375 -0.5275225
v 0.187216875 0.108043125 -0.380346875
v 0.481735 0.38046625 -0.61953375
v 0.5275225 0.229369375 -0.34982875
v 0.56028125 0.175324375 0
v 0.380346875 0.108043125 -0.187216875
v 0.197673125 0.042505 0
v 0 0.042505 -0.197673125
v 0.5275225 0.229369375 0.34982875
v 0.380346875 0.108043125 0.187216875
v 0.481735 0.38046625 0.61953375
v 0.34982875 0.229369375 0.5275225
v 0.176760625 0.303538125 0.696461875
v 0 0.175324375 0.56028125
v 0.187216875 0.108043125 0.380346875
v 0 0.042505 0.197673125
v -0.176760625 0.303538125 0.696461875
v -0.34982875 0.229369375 0.5275225
v -0.187216875 0.108043125 0.380346875
v -0.481735 0.38046625 0.61953375
v -0.5275225 0.229369375 0.34982875
v -0.56028125 0.175324375 0
v -0.380346875 0.108043125 0.187216875
v -0.197673125 0.042505 0
v -0.5275225 0.229369375 -0.34982875
v -0.380346875 0.108043125 -0.187216875
v -0.481735 0.38046625 -0.61953375
v -0.34982875 0.229369375 -0.5275225
v -0.176760625 0.303538125 -0.696461875
v -0.187216875 0.108043125 -0.380346875
v 0 0.43971875 0.824675625
v 0.34982875 0.4724775 0.770630625
v 0.187216875 0.619653125 0.891956875
v 0.5275225 0.65017125 0.770630625
v 0.56028125 1 0.824675625
v 0.380346875 0.812783125 0.891956875
v 0.197673125 1 0.957495
v 0 0.802326875 0.957495
v 0.5275225 1.34982875 0.770630625
v 0.380346875 1.187216875 0.891956875
v 0.34982875 1.5275225 0.770630625
v 0 1.56028125 0.824675625
v 0.187216875 1.380346875 0.891956875
v 0 1.197673125 0.957495
v -0.34982875 1.5275225 0.770630625
v -0.187216875 1.380346875 0.891956875
v -0.5275225 1.34982875 0.770630625
v -0.56028125 1 0.824675625
v -0.380346875 1.187216875 0.891956875
v -0.197673125 1 0.957495
v -0.5275225 0.65017125 0.770630625
v -0.380346875 0.812783125 0.891956875
v -0.34982875 0.4724775 0.770630625
v -0.187216875 0.619653125 0.891956875
v -0.56028125 1 -0.824675625
v -0.5275225 1.34982875 -0.770630625
v -0.380346875 1.187216875 -0.891956875
v -0.34982875 1.5275225 -0.770630625
v 0 1.56028125 -0.824675625
v -0.187216875 1.380346875 -0.891956875
v 0 1.197673125 -0.957495
v -0.197673125 1 -0.957495
v 0.34982875 1.5275225 -0.770630625
v 0.187216875 1.380346875 -0.891956875
v 0.5275225 1.34982875 -0.770630625
v 0.56028125 1 -0.824675625
v 0.380346875 1.187216875 -0.891956875
v 0.197673125 1 -0.957495
v 0.5275225 0.65017125 -0.770630625
v 0.380346875 0.812783125 -0.891956875
v 0.34982875 0.4724775 -0.770630625
v 0 0.43971875 -0.824675625
v 0.187216875 0.619653125 -0.891956875
v 0 0.802326875 -0.957495
v -0.34982875 0.4724775 -0.770630625
v -0.187216875 0.619653125 -0.891956875
v -0.5275225 0.65017125 -0.770630625
v -0.380346875 0.812783125 -0.891956875
vt 0.75 0.625
vt 0.75 0.5
vt 0.875 0.5
vt 0.875 0.625
vt 0.875 0.5
vt 1 0.5
vt 1 0.625
vt 0.875 0.625
vt 1 0.625
vt 1 0.75
vt 0.875 0.75
vt 0.875 0.625
vt 0.875 0.75
vt 0.75 0.75
vt 0.75 0.625
vt 0.875 0.625
vt 0.875 0.75
vt 1 0.75
vt 1 0.875
vt 0.875 0.875
vt 1 0.875
vt 1 1
vt 0.875 1
vt 0.875 0.875
vt 0.875 1
vt 0.75 1
vt 0.75 0.875
vt 0.875 0.875
vt 0.75 0.875
vt 0.75 0.75
vt 0.875 0.75
vt 0.875 0.875
vt 0.75 0.875
vt 0.75 1
vt 0.625 1
vt 0.625 0.875
vt 0.625 1
vt 0.5 1
vt 0.5 0.875
vt 0.625 0.875
vt 0.5 0.875
vt 0.5 0.75
vt 0.625 0.75
vt 0.625 0.875
vt 0.625 0.75
vt 0.75 0.75
vt 0.75 0.875
vt 0.625 0.875
vt 0.625 0.75
vt 0.5 0.75
vt 0.5 0.625
vt 0.625 0.625
vt 0.5 0.625
vt 0.5 0.5
vt 0.625 0.5
vt 0.625 0.625
vt 0.625 0.5
vt 0.75 0.5
vt 0.75 0.625
vt 0.625 0.625
vt 0.75 0.625
vt 0.75 0.75
vt 0.625 0.75
vt 0.625 0.625
vt 0.375 0.75
vt 0.5 0.75
vt 0.5 0.875
vt 0.375 0.875
vt 0.5 0.875
vt 0.5 1
vt 0.375 1
vt 0.375 0.875
vt 0.375 1
vt 0.25 1
vt 0.25 0.875
vt 0.375 0.875
vt 0.25 0.875
vt 0.25 0.75
vt 0.375 0.75
vt 0.375 0.875
vt 0.25 0.875
vt 0.25 1
vt 0.125 1
vt 0.125 0.875
vt 0.125 1
vt 0 1
vt 0 0.875
vt 0.125 0.875
vt 0 0.875
vt 0 0.75
vt 0.125 0.75
vt 0.125 0.875
vt 0.125 0.75
vt 0.25 0.75
vt 0.25 0.875
vt 0.125 0.875
vt 0.125 0.75
vt 0 0.75
vt 0 0.625
vt 0.125 0.625
vt 0 0.625
vt 0 0.5
vt 0.125 0.5
vt 0.125 0.625
vt 0.125 0.5
vt 0.25 0.5
vt 0.25 0.625
vt 0.125 0.625
vt 0.25 0.625
vt 0.25 0.75
vt 0.125 0.75
vt 0.125 0.625
vt 0.25 0.625
vt 0.25 0.5
vt 0.375 0.5
vt 0.375 0.625
vt 0.375 0.5
vt 0.5 0.5
vt 0.5 0.625
vt 0.375 0.625
vt 0.5 0.625
vt 0.5 0.75
vt 0.375 0.75
vt 0.375 0.625
vt 0.375 0.75
vt 0.25 0.75
vt 0.25 0.625
vt 0.375 0.625
vt 0.25 0.375
vt 0.25 0.5
vt 0.125 0.5
vt 0.125 0.375
vt 0.125 0.5
vt 0 0.5
vt 0 0.375
vt 0.125 0.375
vt 0 0.375
vt 0 0.25
vt 0.125 0.25
vt 0.125 0.375
vt 0.125 0.25
vt 0.25 0.25
vt 0.25 0.375
vt 0.125 0.375
vt 0.125 0.25
vt 0 0.25
vt 0 0.125
vt 0.125 0.125
vt 0 0.125
vt 0 0
vt 0.125 0
vt 0.125 0.125
vt 0.125 0
vt 0.25 0
vt 0.25 0.125
vt 0.125 0.125
vt 0.25 0.125
vt 0.25 0.25
vt 0.125 0.25
vt 0.125 0.125
vt 0.25 0.125
vt 0.25 0
vt 0.375 0
vt 0.375 0.125
vt 0.375 0
vt 0.5 0
vt 0.5 0.125
vt 0.375 0.125
vt 0.5 0.125
vt 0.5 0.25
vt 0.375 0.25
vt 0.375 0.125
vt 0.375 0.25
vt 0.25 0.25
vt 0.25 0.125
vt 0.375 0.125
vt 0.375 0.25
vt 0.5 0.25
vt 0.5 0.375
vt 0.375 0.375
vt 0.5 0.375
vt 0.5 0.5
vt 0.375 0.5
vt 0.375 0.375
vt 0.375 0.5
vt 0.25 0.5
vt 0.25 0.375
vt 0.375 0.375
vt 0.25 0.375
vt 0.25 0.25
vt 0.375 0.25
vt 0.375 0.375
vt 0.625 0.25
vt 0.5 0.25
vt 0.5 0.125
vt 0.625 0.125
vt 0.5 0.125
vt 0.5 0
vt 0.625 0
vt 0.625 0.125
vt 0.625 0
vt 0.75 0
vt 0.75 0.125
vt 0.625 0.125
vt 0.75 0.125
vt 0.75 0.25
vt 0.625 0.25
vt 0.625 0.125
vt 0.75 0.125
vt 0.75 0
vt 0.875 0
vt 0.875 0.125
vt 0.875 0
vt 1 0
vt 1 0.125
vt 0.875 0.125
vt 1 0.125
vt 1 0.25
vt 0.875 0.25
vt 0.875 0.125
vt 0.875 0.25
vt 0.75 0.25
vt 0.75 0.125
vt 0.875 0.125
vt 0.875 0.25
vt 1 0.25
vt 1 0.375
vt 0.875 0.375
vt 1 0.375
vt 1 0.5
vt 0.875 0.5
vt 0.875 0.375
vt 0.875 0.5
vt 0.75 0.5
vt 0.75 0.375
vt 0.875 0.375
vt 0.75 0.375
vt 0.75 0.25
vt 0.875 0.25
vt 0.875 0.375
vt 0.75 0.375
vt 0.75 0.5
vt 0.625 0.5
vt 0.625 0.375
vt 0.625 0.5
vt 0.5 0.5
vt 0.5 0.375
vt 0.625 0.375
vt 0.5 0.375
vt 0.5 0.25
vt 0.625 0.25
vt 0.625 0.375
vt 0.625 0.25
vt 0.75 0.25
vt 0.75 0.375
vt 0.625 0.375
vt 0.625 0.25
vt 0.5 0.25
vt 0.5 0.125
vt 0.625 0.125
vt 0.5 0.125
vt 0.5 0
vt 0.625 0
vt 0.625 0.125
vt 0.625 0
vt 0.75 0
vt 0.75 0.125
vt 0.625 0.125
vt 0.75 0.125
vt 0.75 0.25
vt 0.625 0.25
vt 0.625 0.125
vt 0.75 0.125
vt 0.75 0
vt 0.875 0
vt 0.875 0.125
vt 0.875 0
vt 1 0
vt 1 0.125
vt 0.875 0.125
vt 1 0.125
vt 1 0.25
vt 0.875 0.25
vt 0.875 0.125
vt 0.875 0.25
vt 0.75 0.25
vt 0.75 0.125
vt 0.875 0.125
vt 0.875 0.25
vt 1 0.25
vt 1 0.375
vt 0.875 0.375
vt 1 0.375
vt 1 0.5
vt 0.875 0.5
vt 0.875 0.375
vt 0.875 0.5
vt 0.75 0.5
vt 0.75 0.375
vt 0.875 0.375
vt 0.75 0.375
vt 0.75 0.25
vt 0.875 0.25
vt 0.875 0.375
vt 0.75 0.375
vt 0.75 0.5
vt 0.625 0.5
vt 0.625 0.375
vt 0.625 0.5
vt 0.5 0.5
vt 0.5 0.375
vt 0.625 0.375
vt 0.5 0.375
vt 0.5 0.25
vt 0.625 0.25
vt 0.625 0.375
vt 0.625 0.25
vt 0.75 0.25
vt 0.75 0.375
vt 0.625 0.375
vt 0.75 0.625
vt 0.75 0.5
vt 0.875 0.5
vt 0.875 0.625
vt 0.875 0.5
vt 1 0.5
vt 1 0.625
vt 0.875 0.625
vt 1 0.625
vt 1 0.75
vt 0.875 0.75
vt 0.875 0.625
vt 0.875 0.75
vt 0.75 0.75
vt 0.75 0.625
vt 0.875 0.625
vt 0.875 0.75
vt 1 0.75
vt 1 0.875
vt 0.875 0.875
vt 1 0.875
vt 1 1
vt 0.875 1
vt 0.875 0.875
vt 0.875 1
vt 0.75 1
vt 0.75 0.875
vt 0.875 0.875
vt 0.75 0.875
vt 0.75 0.75
vt 0.875 0.75
vt 0.875 0.875
vt 0.75 0.875
vt 0.75 1
vt 0.625 1
vt 0.625 0.875
vt 0.625 1
vt 0.5 1
vt 0.5 0.875
vt 0.625 0.875
vt 0.5 0.875
vt 0.5 0.75
vt 0.625 0.75
vt 0.625 0.875
vt 0.625 0.75
vt 0.75 0.75
vt 0.75 0.875
vt 0.625 0.875
vt 0.625 0.75
vt 0.5 0.75
vt 0.5 0.625
vt 0.625 0.625
vt 0.5 0.625
vt 0.5 0.5
vt 0.625 0.5
vt 0.625 0.625
vt 0.625 0.5
vt 0.75 0.5
vt 0.75 0.625
vt 0.625 0.625
vt 0.75 0.625
vt 0.75 0.75
vt 0.625 0.75
vt 0.625 0.625
vt 0.375 0.75
vt 0.5 0.75
vt 0.5 0.875
vt 0.375 0.875
vt 0.5 0.875
vt 0.5 1
vt 0.375 1
vt 0.375 0.875
vt 0.375 1
vt 0.25 1
vt 0.25 0.875
vt 0.375 0.875
vt 0.25 0.875
vt 0.25 0.75
vt 0.375 0.75
vt 0.375 0.875
vt 0.25 0.875
vt 0.25 1
vt 0.125 1
vt 0.125 0.875
vt 0.125 1
vt 0 1
vt 0 0.875
vt 0.125 0.875
vt 0 0.875
vt 0 0.75
vt 0.125 0.75
vt 0.125 0.875
vt 0.125 0.75
vt 0.25 0.75
vt 0.25 0.875
vt 0.125 0.875
vt 0.125 0.75
vt 0 0.75
vt 0 0.625
vt 0.125 0.625
vt 0 0.625
vt 0 0.5
vt 0.125 0.5
vt 0.125 0.625
vt 0.125 0.5
vt 0.25 0.5
vt 0.25 0.625
vt 0.125 0.625
vt 0.25 0.625
vt 0.25 0.75
vt 0.125 0.75
vt 0.125 0.625
vt 0.25 0.625
vt 0.25 0.5
vt 0.375 0.5
vt 0.375 0.625
vt 0.375 0.5
vt 0.5 0.5
vt 0.5 0.625
vt 0.375 0.625
vt 0.5 0.625
vt 0.5 0.75
vt 0.375 0.75
vt 0.375 0.625
vt 0.375 0.75
vt 0.25 0.75
vt 0.25 0.625
vt 0.375 0.625
vt 0.25 0.375
vt 0.25 0.5
vt 0.125 0.5
vt 0.125 0.375
vt 0.125 0.5
vt 0 0.5
vt 0 0.375
vt 0.125 0.375
vt 0 0.375
vt 0 0.25
vt 0.125 0.25
vt 0.125 0.375
vt 0.125 0.25
vt 0.25 0.25
vt 0.25 0.375
vt 0.125 0.375
vt 0.125 0.25
vt 0 0.25
vt 0 0.125
vt 0.125 0.125
vt 0 0.125
vt 0 0
vt 0.125 0
vt 0.125 0.125
vt 0.125 0
vt 0.25 0
vt 0.25 0.125
vt 0.125 0.125
vt 0.25 0.125
vt 0.25 0.25
vt 0.125 0.25
vt 0.125 0.125
vt 0.25 0.125
vt 0.25 0
vt 0.375 0
vt 0.375 0.125
vt 0.375 0
vt 0.5 0
vt 0.5 0.125
vt 0.375 0.125
vt 0.5 0.125
vt 0.5 0.25
vt 0.375 0.25
vt 0.375 0.125
vt 0.375 0.25
vt 0.25 0.25
vt 0.25 0.125
vt 0.375 0.125
vt 0.375 0.25
vt 0.5 0.25
vt 0.5 0.375
vt 0.375 0.375
vt 0.5 0.375
vt 0.5 0.5
vt 0.375 0.5
vt 0.375 0.375
vt 0.375 0.5
vt 0.25 0.5
vt 0.25 0.375
vt 0.375 0.375
vt 0.25 0.375
vt 0.25 0.25
vt 0.375 0.25
vt 0.375 0.375
vt 0.25 0.375
vt 0.25 0.5
vt 0.125 0.5
vt 0.125 0.375
vt 0.125 0.5
vt 0 0.5
vt 0 0.375
vt 0.125 0.375
vt 0 0.375
vt 0 0.25
vt 0.125 0.25
vt 0.125 0.375
vt 0.125 0.25
vt 0.25 0.25
vt 0.25 0.375
vt 0.125 0.375
vt 0.125 0.25
vt 0 0.25
vt 0 0.125
vt 0.125 0.125
vt 0 0.125
vt 0 0
vt 0.125 0
vt 0.125 0.125
vt 0.125 0
vt 0.25 0
vt 0.25 0.125
vt 0.125 0.125
vt 0.25 0.125
vt 0.25 0.25
vt 0.125 0.25
vt 0.125 0.125
vt 0.25 0.125
vt 0.25 0
vt 0.375 0
vt 0.375 0.125
vt 0.375 0
vt 0.5 0
vt 0.5 0.125
vt 0.375 0.125
vt 0.5 0.125
vt 0.5 0.25
vt 0.375 0.25
vt 0.375 0.125
vt 0.375 0.25
vt 0.25 0.25
vt 0.25 0.125
vt 0.375 0.125
vt 0.375 0.25
vt 0.5 0.25
vt 0.5 0.375
vt 0.375 0.375
vt 0.5 0.375
vt 0.5 0.5
vt 0.375 0.5
vt 0.375 0.375
vt 0.375 0.5
vt 0.25 0.5
vt 0.25 0.375
vt 0.375 0.375
vt 0.25 0.375
vt 0.25 0.25
vt 0.375 0.25
vt 0.375 0.375
vt 0.625 0.25
vt 0.5 0.25
vt 0.5 0.125
vt 0.625 0.125
vt 0.5 0.125
vt 0.5 0
vt 0.625 0
vt 0.625 0.125
vt 0.625 0
vt 0.75 0
vt 0.75 0.125
vt 0.625 0.125
vt 0.75 0.125
vt 0.75 0.25
vt 0.625 0.25
vt 0.625 0.125
vt 0.75 0.125
vt 0.75 0
vt 0.875 0
vt 0.875 0.125
vt 0.875 0
vt 1 0
vt 1 0.125
vt 0.875 0.125
vt 1 0.125
vt 1 0.25
vt 0.875 0.25
vt 0.875 0.125
vt 0.875 0.25
vt 0.75 0.25
vt 0.75 0.125
vt 0.875 0.125
vt 0.875 0.25
vt 1 0.25
vt 1 0.375
vt 0.875 0.375
vt 1 0.375
vt 1 0.5
vt 0.875 0.5
vt 0.875 0.375
vt 0.875 0.5
vt 0.75 0.5
vt 0.75 0.375
vt 0.875 0.375
vt 0.75 0.375
vt 0.75 0.25
vt 0.875 0.25
vt 0.875 0.375
vt 0.75 0.375
vt 0.75 0.5
vt 0.625 0.5
vt 0.625 0.375
vt 0.625 0.5
vt 0.5 0.5
vt 0.5 0.375
vt 0.625 0.375
vt 0.5 0.375
vt 0.5 0.25
vt 0.625 0.25
vt 0.625 0.375
vt 0.625 0.25
vt 0.75 0.25
vt 0.75 0.375
vt 0.625 0.375
vt 0.75 0.625
vt 0.75 0.5
vt 0.875 0.5
vt 0.875 0.625
vt 0.875 0.5
vt 1 0.5
vt 1 0.625
vt 0.875 0.625
vt 1 0.625
vt 1 0.75
vt 0.875 0.75
vt 0.875 0.625
vt 0.875 0.75
vt 0.75 0.75
vt 0.75 0.625
vt 0.875 0.625
vt 0.875 0.75
vt 1 0.75
vt 1 0.875
vt 0.875 0.875
vt 1 0.875
vt 1 1
vt 0.875 1
vt 0.875 0.875
vt 0.875 1
vt 0.75 1
vt 0.75 0.875
vt 0.875 0.875
vt 0.75 0.875
vt 0.75 0.75
vt 0.875 0.75
vt 0.875 0.875
vt 0.75 0.875
vt 0.75 1
vt 0.625 1
vt 0.625 0.875
vt 0.625 1
vt 0.5 1
vt 0.5 0.875
vt 0.625 0.875
vt 0.5 0.875
vt 0.5 0.75
vt 0.625 0.75
vt 0.625 0.875
vt 0.625 0.75
vt 0.75 0.75
vt 0.75 0.875
vt 0.625 0.875
vt 0.625 0.75
vt 0.5 0.75
vt 0.5 0.625
vt 0.625 0.625
vt 0.5 0.625
vt 0.5 0.5
vt 0.625 0.5
vt 0.625 0.625
vt 0.625 0.5
vt 0.75 0.5
vt 0.75 0.625
vt 0.625 0.625
vt 0.75 0.625
vt 0.75 0.75
vt 0.625 0.75
vt 0.625 0.625
vt 0.375 0.75
vt 0.5 0.75
vt 0.5 0.875
vt 0.375 0.875
vt 0.5 0.875
vt 0.5 1
vt 0.375 1
vt 0.375 0.875
vt 0.375 1
vt 0.25 1
vt 0.25 0.875
vt 0.375 0.875
vt 0.25 0.875
vt 0.25 0.75
vt 0.375 0.75
vt 0.375 0.875
vt 0.25 0.875
vt 0.25 1
vt 0.125 1
vt 0.125 0.875
vt 0.125 1
vt 0 1
vt 0 0.875
vt 0.125 0.875
vt 0 0.875
vt 0 0.75
vt 0.125 0.75
vt 0.125 0.875
vt 0.125 0.75
vt 0.25 0.75
vt 0.25 0.875
vt 0.125 0.875
vt 0.125 0.75
vt 0 0.75
vt 0 0.625
vt 0.125 0.625
vt 0 0.625
vt 0 0.5
vt 0.125 0.5
vt 0.125 0.625
vt 0.125 0.5
vt 0.25 0.5
vt 0.25 0.625
vt 0.125 0.625
vt 0.25 0.625
vt 0.25 0.75
vt 0.125 0.75
vt 0.125 0.625
vt 0.25 0.625
vt 0.25 0.5
vt 0.375 0.5
vt 0.375 0.625
vt 0.375 0.5
vt 0.5 0.5
vt 0.5 0.625
vt 0.375 0.625
vt 0.5 0.625
vt 0.5 0.75
vt 0.375 0.75
vt 0.375 0.625
vt 0.375 0.75
vt 0.25 0.75
vt 0.25 0.625
vt 0.375 0.625
vt 0.625 0.25
vt 0.5 0.25
vt 0.5 0.125
vt 0.625 0.125
vt 0.5 0.125
vt 0.5 0
vt 0.625 0
vt 0.625 0.125
vt 0.625 0
vt 0.75 0
vt 0.75 0.125
vt 0.625 0.125
vt 0.75 0.125
vt 0.75 0.25
vt 0.625 0.25
vt 0.625 0.125
vt 0.75 0.125
vt 0.75 0
vt 0.875 0
vt 0.875 0.125
vt 0.875 0
vt 1 0
vt 1 0.125
vt 0.875 0.125
vt 1 0.125
vt 1 0.25
vt 0.875 0.25
vt 0.875 0.125
vt 0.875 0.25
vt 0.75 0.25
vt 0.75 0.125
vt 0.875 0.125
vt 0.875 0.25
vt 1 0.25
vt 1 0.375
vt 0.875 0.375
vt 1 0.375
vt 1 0.5
vt 0.875 0.5
vt 0.875 0.375
vt 0.875 0.5
vt 0.75 0.5
vt 0.75 0.375
vt 0.875 0.375
vt 0.75 0.375
vt 0.75 0.25
vt 0.875 0.25
vt 0.875 0.375
vt 0.75 0.375
vt 0.75 0.5
vt 0.625 0.5
vt 0.625 0.375
vt 0.625 0.5
vt 0.5 0.5
vt 0.5 0.375
vt 0.625 0.375
vt 0.5 0.375
vt 0.5 0.25
vt 0.625 0.25
vt 0.625 0.375
vt 0.625 0.25
vt 0.75 0.25
vt 0.75 0.375
vt 0.625 0.375
vt 0.75 0.625
vt 0.75 0.5
vt 0.875 0.5
vt 0.875 0.625
vt 0.875 0.5
vt 1 0.5
vt 1 0.625
vt 0.875 0.625
vt 1 0.625
vt 1 0.75
vt 0.875 0.75
vt 0.875 0.625
vt 0.875 0.75
vt 0.75 0.75
vt 0.75 0.625
vt 0.875 0.625
vt 0.875 0.75
vt 1 0.75
vt 1 0.875
vt 0.875 0.875
vt 1 0.875
vt 1 1
vt 0.875 1
vt 0.875 0.875
vt 0.875 1
vt 0.75 1
vt 0.75 0.875
vt 0.875 0.875
vt 0.75 0.875
vt 0.75 0.75
vt 0.875 0.75
vt 0.875 0.875
vt 0.75 0.875
vt 0.75 1
vt 0.625 1
vt 0.625 0.875
vt 0.625 1
vt 0.5 1
vt 0.5 0.875
vt 0.625 0.875
vt 0.5 0.875
vt 0.5 0.75
vt 0.625 0.75
vt 0.625 0.875
vt 0.625 0.75
vt 0.75 0.75
vt 0.75 0.875
vt 0.625 0.875
vt 0.625 0.75
vt 0.5 0.75
vt 0.5 0.625
vt 0.625 0.625
vt 0.5 0.625
vt 0.5 0.5
vt 0.625 0.5
vt 0.625 0.625
vt 0.625 0.5
vt 0.75 0.5
vt 0.75 0.625
vt 0.625 0.625
vt 0.75 0.625
vt 0.75 0.75
vt 0.625 0.75
vt 0.625 0.625
vt 0.375 0.75
vt 0.5 0.75
vt 0.5 0.875
vt 0.375 0.875
vt 0.5 0.875
vt 0.5 1
vt 0.375 1
vt 0.375 0.875
vt 0.375 1
vt 0.25 1
vt 0.25 0.875
vt 0.375 0.875
vt 0.25 0.875
vt 0.25 0.75
vt 0.375 0.75
vt 0.375 0.875
vt 0.25 0.875
vt 0.25 1
vt 0.125 1
vt 0.125 0.875
vt 0.125 1
vt 0 1
vt 0 0.875
vt 0.125 0.875
vt 0 0.875
vt 0 0.75
vt 0.125 0.75
vt 0.125 0.875
vt 0.125 0.75
vt 0.25 0.75
vt 0.25 0.875
vt 0.125 0.875
vt 0.125 0.75
vt 0 0.75
vt 0 0.625
vt 0.125 0.625
vt 0 0.625
vt 0 0.5
vt 0.125 0.5
vt 0.125 0.625
vt 0.125 0.5
vt 0.25 0.5
vt 0.25 0.625
vt 0.125 0.625
vt 0.25 0.625
vt 0.25 0.75
vt 0.125 0.75
vt 0.125 0.625
vt 0.25 0.625
vt 0.25 0.5
vt 0.375 0.5
vt 0.375 0.625
vt 0.375 0.5
vt 0.5 0.5
vt 0.5 0.625
vt 0.375 0.625
vt 0.5 0.625
vt 0.5 0.75
vt 0.375 0.75
vt 0.375 0.625
vt 0.375 0.75
vt 0.25 0.75
vt 0.25 0.625
vt 0.375 0.625
vt 0.25 0.375
vt 0.25 0.5
vt 0.125 0.5
vt 0.125 0.375
vt 0.125 0.5
vt 0 0.5
vt 0 0.375
vt 0.125 0.375
vt 0 0.375
vt 0 0.25
vt 0.125 0.25
vt 0.125 0.375
vt 0.125 0.25
vt 0.25 0.25
vt 0.25 0.375
vt 0.125 0.375
vt 0.125 0.25
vt 0 0.25
vt 0 0.125
vt 0.125 0.125
vt 0 0.125
vt 0 0
vt 0.125 0
vt 0.125 0.125
vt 0.125 0
vt 0.25 0
vt 0.25 0.125
vt 0.125 0.125
vt 0.25 0.125
vt 0.25 0.25
vt 0.125 0.25
vt 0.125 0.125
vt 0.25 0.125
vt 0.25 0
vt 0.375 0
vt 0.375 0.125
vt 0.375 0
vt 0.5 0
vt 0.5 0.125
vt 0.375 0.125
vt 0.5 0.125
vt 0.5 0.25
vt 0.375 0.25
vt 0.375 0.125
vt 0.375 0.25
vt 0.25 0.25
vt 0.25 0.125
vt 0.375 0.125
vt 0.375 0.25
vt 0.5 0.25
vt 0.5 0.375
vt 0.375 0.375
vt 0.5 0.375
vt 0.5 0.5
vt 0.375 0.5
vt 0.375 0.375
vt 0.375 0.5
vt 0.25 0.5
vt 0.25 0.375
vt 0.375 0.375
vt 0.25 0.375
vt 0.25 0.25
vt 0.375 0.25
vt 0.375 0.375
vt 0.625 0.25
vt 0.5 0.25
vt 0.5 0.125
vt 0.625 0.125
vt 0.5 0.125
vt 0.5 0
vt 0.625 0
vt 0.625 0.125
vt 0.625 0
vt 0.75 0
vt 0.75 0.125
vt 0.625 0.125
vt 0.75 0.125
vt 0.75 0.25
vt 0.625 0.25
vt 0.625 0.125
vt 0.75 0.125
vt 0.75 0
vt 0.875 0
vt 0.875 0.125
vt 0.875 0
vt 1 0
vt 1 0.125
vt 0.875 0.125
vt 1 0.125
vt 1 0.25
vt 0.875 0.25
vt 0.875 0.125
vt 0.875 0.25
vt 0.75 0.25
vt 0.75 0.125
vt 0.875 0.125
vt 0.875 0.25
vt 1 0.25
vt 1 0.375
vt 0.875 0.375
vt 1 0.375
vt 1 0.5
vt 0.875 0.5
vt 0.875 0.375
vt 0.875 0.5
vt 0.75 0.5
vt 0.75 0.375
vt 0.875 0.375
vt 0.75 0.375
vt 0.75 0.25
vt 0.875 0.25
vt 0.875 0.375
vt 0.75 0.375
vt 0.75 0.5
vt 0.625 0.5
vt 0.625 0.375
vt 0.625 0.5
vt 0.5 0.5
vt 0.5 0.375
vt 0.625 0.375
vt 0.5 0.375
vt 0.5 0.25
vt 0.625 0.25
vt 0.625 0.375
vt 0.625 0.25
vt 0.75 0.25
vt 0.75 0.375
vt 0.625 0.375
vt 0.75 0.625
vt 0.75 0.5
vt 0.875 0.5
vt 0.875 0.625
vt 0.875 0.5
vt 1 0.5
vt 1 0.625
vt 0.875 0.625
vt 1 0.625
vt 1 0.75
vt 0.875 0.75
vt 0.875 0.625
vt 0.875 0.75
vt 0.75 0.75
vt 0.75 0.625
vt 0.875 0.625
vt 0.875 0.75
vt 1 0.75
vt 1 0.875
vt 0.875 0.875
vt 1 0.875
vt 1 1
vt 0.875 1
vt 0.875 0.875
vt 0.875 1
vt 0.75 1
vt 0.75 0.875
vt 0.875 0.875
vt 0.75 0.875
vt 0.75 0.75
vt 0.875 0.75
vt 0.875 0.875
vt 0.75 0.875
vt 0.75 1
vt 0.625 1
vt 0.625 0.875
vt 0.625 1
vt 0.5 1
vt 0.5 0.875
vt 0.625 0.875
vt 0.5 0.875
vt 0.5 0.75
vt 0.625 0.75
vt 0.625 0.875
vt 0.625 0.75
vt 0.75 0.75
vt 0.75 0.875
vt 0.625 0.875
vt 0.625 0.75
vt 0.5 0.75
vt 0.5 0.625
vt 0.625 0.625
vt 0.5 0.625
vt 0.5 0.5
vt 0.625 0.5
vt 0.625 0.625
vt 0.625 0.5
vt 0.75 0.5
vt 0.75 0.625
vt 0.625 0.625
vt 0.75 0.625
vt 0.75 0.75
vt 0.625 0.75
vt 0.625 0.625
vt 0.375 0.75
vt 0.5 0.75
vt 0.5 0.875
vt 0.375 0.875
vt 0.5 0.875
vt 0.5 1
vt 0.375 1
vt 0.375 0.875
vt 0.375 1
vt 0.25 1
vt 0.25 0.875
vt 0.375 0.875
vt 0.25 0.875
vt 0.25 0.75
vt 0.375 0.75
vt 0.375 0.875
vt 0.25 0.875
vt 0.25 1
vt 0.125 1
vt 0.125 0.875
vt 0.125 1
vt 0 1
vt 0 0.875
vt 0.125 0.875
vt 0 0.875
vt 0 0.75
vt 0.125 0.75
vt 0.125 0.875
vt 0.125 0.75
vt 0.25 0.75
vt 0.25 0.875
vt 0.125 0.875
vt 0.125 0.75
vt 0 0.75
vt 0 0.625
vt 0.125 0.625
vt 0 0.625
vt 0 0.5
vt 0.125 0.5
vt 0.125 0.625
vt 0.125 0.5
vt 0.25 0.5
vt 0.25 0.625
vt 0.125 0.625
vt 0.25 0.625
vt 0.25 0.75
vt 0.125 0.75
vt 0.125 0.625
vt 0.25 0.625
vt 0.25 0.5
vt 0.375 0.5
vt 0.375 0.625
vt 0.375 0.5
vt 0.5 0.5
vt 0.5 0.625
vt 0.375 0.625
vt 0.5 0.625
vt 0.5 0.75
vt 0.375 0.75
vt 0.375 0.625
vt 0.375 0.75
vt 0.25 0.75
vt 0.25 0.625
vt 0.375 0.625
vt 0.25 0.375
vt 0.25 0.5
vt 0.125 0.5
vt 0.125 0.375
vt 0.125 0.5
vt 0 0.5
vt 0 0.375
vt 0.125 0.375
vt 0 0.375
vt 0 0.25
vt 0.125 0.25
vt 0.125 0.375
vt 0.125 0.25
vt 0.25 0.25
vt 0.25 0.375
vt 0.125 0.375
vt 0.125 0.25
vt 0 0.25
vt 0 0.125
vt 0.125 0.125
vt 0 0.125
vt 0 0
vt 0.125 0
vt 0.125 0.125
vt 0.125 0
vt 0.25 0
vt 0.25 0.125
vt 0.125 0.125
vt 0.25 0.125
vt 0.25 0.25
vt 0.125 0.25
vt 0.125 0.125
vt 0.25 0.125
vt 0.25 0
vt 0.375 0
vt 0.375 0.125
vt 0.375 0
vt 0.5 0
vt 0.5 0.125
vt 0.375 0.125
vt 0.5 0.125
vt 0.5 0.25
vt 0.375 0.25
vt 0.375 0.125
vt 0.375 0.25
vt 0.25 0.25
vt 0.25 0.125
vt 0.375 0.125
vt 0.375 0.25
vt 0.5 0.25
vt 0.5 0.375
vt 0.375 0.375
vt 0.5 0.375
vt 0.5 0.5
vt 0.375 0.5
vt 0.375 0.375
vt 0.375 0.5
vt 0.25 0.5
vt 0.25 0.375
vt 0.375 0.375
vt 0.25 0.375
vt 0.25 0.25
vt 0.375 0.25
vt 0.375 0.375
vt 0.75 0.625
vt 0.75 0.5
vt 0.875 0.5
vt 0.875 0.625
vt 0.875 0.5
vt 1 0.5
vt 1 0.625
vt 0.875 0.625
vt 1 0.625
vt 1 0.75
vt 0.875 0.75
vt 0.875 0.625
vt 0.875 0.75
vt 0.75 0.75
vt 0.75 0.625
vt 0.875 0.625
vt 0.875 0.75
vt 1 0.75
vt 1 0.875
vt 0.875 0.875
vt 1 0.875
vt 1 1
vt 0.875 1
vt 0.875 0.875
vt 0.875 1
vt 0.75 1
vt 0.75 0.875
vt 0.875 0.875
vt 0.75 0.875
vt 0.75 0.75
vt 0.875 0.75
vt 0.875 0.875
vt 0.75 0.875
vt 0.75 1
vt 0.625 1
vt 0.625 0.875
vt 0.625 1
vt 0.5 1
vt 0.5 0.875
vt 0.625 0.875
vt 0.5 0.875
vt 0.5 0.75
vt 0.625 0.75
vt 0.625 0.875
vt 0.625 0.75
vt 0.75 0.75
vt 0.75 0.875
vt 0.625 0.875
vt 0.625 0.75
vt 0.5 0.75
vt 0.5 0.625
vt 0.625 0.625
vt 0.5 0.625
vt 0.5 0.5
vt 0.625 0.5
vt 0.625 0.625
vt 0.625 0.5
vt 0.75 0.5
vt 0.75 0.625
vt 0.625 0.625
vt 0.75 0.625
vt 0.75 0.75
vt 0.625 0.75
vt 0.625 0.625
vt 0.375 0.75
vt 0.5 0.75
vt 0.5 0.875
vt 0.375 0.875
vt 0.5 0.875
vt 0.5 1
vt 0.375 1
vt 0.375 0.875
vt 0.375 1
vt 0.25 1
vt 0.25 0.875
vt 0.375 0.875
vt 0.25 0.875
vt 0.25 0.75
vt 0.375 0.75
vt 0.375 0.875
vt 0.25 0.875
vt 0.25 1
vt 0.125 1
vt 0.125 0.875
vt 0.125 1
vt 0 1
vt 0 0.875
vt 0.125 0.875
vt 0 0.875
vt 0 0.75
vt 0.125 0.75
vt 0.125 0.875
vt 0.125 0.75
vt 0.25 0.75
vt 0.25 0.875
vt 0.125 0.875
vt 0.125 0.75
vt 0 0.75
vt 0 0.625
vt 0.125 0.625
vt 0 0.625
vt 0 0.5
vt 0.125 0.5
vt 0.125 0.625
vt 0.125 0.5
vt 0.25 0.5
vt 0.25 0.625
vt 0.125 0.625
vt 0.25 0.625
vt 0.25 0.75
vt 0.125 0.75
vt 0.125 0.625
vt 0.25 0.625
vt 0.25 0.5
vt 0.375 0.5
vt 0.375 0.625
vt 0.375 0.5
vt 0.5 0.5
vt 0.5 0.625
vt 0.375 0.625
vt 0.5 0.625
vt 0.5 0.75
vt 0.375 0.75
vt 0.375 0.625
vt 0.375 0.75
vt 0.25 0.75
vt 0.25 0.625
vt 0.375 0.625
vt 0.25 0.375
vt 0.25 0.5
vt 0.125 0.5
vt 0.125 0.375
vt 0.125 0.5
vt 0 0.5
vt 0 0.375
vt 0.125 0.375
vt 0 0.375
vt 0 0.25
vt 0.125 0.25
vt 0.125 0.375
vt 0.125 0.25
vt 0.25 0.25
vt 0.25 0.375
vt 0.125 0.375
vt 0.125 0.25
vt 0 0.25
vt 0 0.125
vt 0.125 0.125
vt 0 0.125
vt 0 0
vt 0.125 0
vt 0.125 0.125
vt 0.125 0
vt 0.25 0
vt 0.25 0.125
vt 0.125 0.125
vt 0.25 0.125
vt 0.25 0.25
vt 0.125 0.25
vt 0.125 0.125
vt 0.25 0.125
vt 0.25 0
vt 0.375 0
vt 0.375 0.125
vt 0.375 0
vt 0.5 0
vt 0.5 0.125
vt 0.375 0.125
vt 0.5 0.125
vt 0.5 0.25
vt 0.375 0.25
vt 0.375 0.125
vt 0.375 0.25
vt 0.25 0.25
vt 0.25 0.125
vt 0.375 0.125
vt 0.375 0.25
vt 0.5 0.25
vt 0.5 0.375
vt 0.375 0.375
vt 0.5 0.375
vt 0.5 0.5
vt 0.375 0.5
vt 0.375 0.375
vt 0.375 0.5
vt 0.25 0.5
vt 0.25 0.375
vt 0.375 0.375
vt 0.25 0.375
vt 0.25 0.25
vt 0.375 0.25
vt 0.375 0.375
vt 0.625 0.25
vt 0.5 0.25
vt 0.5 0.125
vt 0.625 0.125
vt 0.5 0.125
vt 0.5 0
vt 0.625 0
vt 0.625 0.125
vt 0.625 0
vt 0.75 0
vt 0.75 0.125
vt 0.625 0.125
vt 0.75 0.125
vt 0.75 0.25
vt 0.625 0.25
vt 0.625 0.125
vt 0.75 0.125
vt 0.75 0
vt 0.875 0
vt 0.875 0.125
vt 0.875 0
vt 1 0
vt 1 0.125
vt 0.875 0.125
vt 1 0.125
vt 1 0.25
vt 0.875 0.25
vt 0.875 0.125
vt 0.875 0.25
vt 0.75 0.25
vt 0.75 0.125
vt 0.875 0.125
vt 0.875 0.25
vt 1 0.25
vt 1 0.375
vt 0.875 0.375
vt 1 0.375
vt 1 0.5
vt 0.875 0.5
vt 0.875 0.375
vt 0.875 0.5
vt 0.75 0.5
vt 0.75 0.375
vt 0.875 0.375
vt 0.75 0.375
vt 0.75 0.25
vt 0.875 0.25
vt 0.875 0.375
vt 0.75 0.375
vt 0.75 0.5
vt 0.625 0.5
vt 0.625 0.375
vt 0.625 0.5
vt 0.5 0.5
vt 0.5 0.375
vt 0.625 0.375
vt 0.5 0.375
vt 0.5 0.25
vt 0.625 0.25
vt 0.625 0.375
vt 0.625 0.25
vt 0.75 0.25
vt 0.75 0.375
vt 0.625 0.375
vn 0.898132214532309 0.09075456248186317 -0.4302582185246625
vn 0.7848539774562852 0.0978708390765173 -0.6119032055231509
vn 0.757037668112607 0.2604785556659111 -0.5992035472999367
vn 0.8657369517958893 0.25749463275723555 -0.4291806663823273
vn 0.7088816433428795 0.41335929702613805 -0.5715075741348979
vn 0.6209347232523885 0.5542743316533248 -0.5542743316533248
vn 0.7088816433428794 0.5715075741348983 -0.4133592970261375
vn 0.8068970253112712 0.41768240957922936 -0.41768240957922936
vn 0.7570376681126068 0.5992035472999369 -0.26047855566591155
vn 0.7848539774562853 0.6119032055231509 -0.09787083907651765
vn 0.898132214532309 0.43025821852466245 -0.09075456248186319
vn 0.8657369517958893 0.4291806663823276 -0.2574946327572357
vn 0.9631465730087105 0.2535589410692689 -0.08975824366267243
vn 0.9929543575970304 0.08379034469755045 -0.08379034469755041
vn 0.9631465730087105 0.08975824366267242 -0.2535589410692692
vn 0.9297660330334879 0.26032203500392653 -0.2603220350039266
vn 0.898132214532309 0.4302582185246624 0.09075456248186319
vn 0.7848539774562853 0.6119032055231509 0.09787083907651761
vn 0.7570376681126068 0.5992035472999369 0.26047855566591155
vn 0.8657369517958893 0.4291806663823276 0.2574946327572357
vn 0.7088816433428795 0.5715075741348983 0.4133592970261375
vn 0.6209347232523885 0.5542743316533247 0.5542743316533247
vn 0.7088816433428795 0.413359297026138 0.5715075741348979
vn 0.806897025311271 0.41768240957922925 0.41768240957922925
vn 0.757037668112607 0.26047855566591105 0.5992035472999367
vn 0.7848539774562852 0.09787083907651727 0.6119032055231509
vn 0.898132214532309 0.09075456248186316 0.43025821852466234
vn 0.8657369517958893 0.25749463275723555 0.4291806663823274
vn 0.9631465730087105 0.08975824366267242 0.2535589410692692
vn 0.9929543575970304 0.08379034469755045 0.08379034469755041
vn 0.9631465730087105 0.2535589410692689 0.08975824366267242
vn 0.9297660330334879 0.26032203500392653 0.2603220350039266
vn 0.8981322145323091 -0.09075456248186324 0.43025821852466256
vn 0.7848539774562852 -0.0978708390765173 0.6119032055231509
vn 0.7570376681126066 -0.26047855566591127 0.599203547299937
vn 0.8657369517958895 -0.25749463275723544 0.42918066638232727
vn 0.7088816433428793 -0.4133592970261377 0.5715075741348984
vn 0.6209347232523894 -0.5542743316533243 0.5542743316533243
vn 0.7088816433428793 -0.5715075741348983 0.41335929702613766
vn 0.8068970253112713 -0.4176824095792291 0.4176824095792291
vn 0.7570376681126065 -0.5992035472999371 0.2604785556659113
vn 0.7848539774562852 -0.6119032055231509 0.09787083907651746
vn 0.8981322145323092 -0.43025821852466234 0.09075456248186321
vn 0.8657369517958894 -0.42918066638232727 0.25749463275723544
vn 0.9631465730087104 -0.2535589410692692 0.08975824366267243
vn 0.9929543575970304 -0.08379034469755041 0.08379034469755041
vn 0.9631465730087104 -0.08975824366267246 0.2535589410692692
vn 0.929766033033488 -0.26032203500392637 0.2603220350039264
vn 0.8981322145323091 -0.4302582185246624 -0.09075456248186321
vn 0.7848539774562852 -0.6119032055231509 -0.09787083907651739
vn 0.7570376681126064 -0.5992035472999371 -0.2604785556659114
vn 0.8657369517958894 -0.42918066638232727 -0.25749463275723544
vn 0.7088816433428794 -0.5715075741348984 -0.41335929702613766
vn 0.6209347232523894 -0.5542743316533243 -0.5542743316533243
vn 0.7088816433428793 -0.41335929702613766 -0.5715075741348984
vn 0.8068970253112713 -0.4176824095792291 -0.4176824095792291
vn 0.7570376681126066 -0.2604785556659112 -0.599203547299937
vn 0.7848539774562852 -0.09787083907651727 -0.6119032055231509
vn 0.8981322145323091 -0.09075456248186321 -0.4302582185246625
vn 0.8657369517958895 -0.25749463275723544 -0.4291806663823272
vn 0.9631465730087106 -0.08975824366267246 -0.2535589410692692
vn 0.9929543575970304 -0.08379034469755041 -0.08379034469755041
vn 0.9631465730087104 -0.2535589410692692 -0.08975824366267243
vn 0.929766033033488 -0.26032203500392637 -0.2603220350039264
vn -0.8981322145323091 -0.4302582185246624 0.09075456248186321
vn -0.7848539774562852 -0.6119032055231509 0.09787083907651739
vn -0.7570376681126064 -0.5992035472999371 0.2604785556659114
vn -0.8657369517958894 -0.42918066638232727 0.25749463275723544
vn -0.7088816433428794 -0.5715075741348984 0.41335929702613766
vn -0.6209347232523894 -0.5542743316533243 0.5542743316533243
vn -0.7088816433428793 -0.41335929702613766 0.5715075741348984
vn -0.8068970253112713 -0.4176824095792291 0.4176824095792291
vn -0.7570376681126066 -0.2604785556659112 0.599203547299937
vn -0.7848539774562852 -0.09787083907651727 0.6119032055231509
vn -0.8981322145323091 -0.09075456248186321 0.4302582185246625
vn -0.8657369517958895 -0.25749463275723544 0.4291806663823272
vn -0.9631465730087106 -0.08975824366267246 0.2535589410692692
vn -0.9929543575970304 -0.08379034469755041 0.08379034469755041
vn -0.9631465730087104 -0.2535589410692692 0.08975824366267243
vn -0.929766033033488 -0.26032203500392637 0.2603220350039264
vn -0.898132214532309 0.09075456248186317 0.4302582185246625
vn -0.7848539774562852 0.0978708390765173 0.6119032055231509
vn -0.757037668112607 0.2604785556659111 0.5992035472999367
vn -0.8657369517958893 0.25749463275723555 0.4291806663823273
vn -0.7088816433428795 0.41335929702613805 0.5715075741348979
vn -0.6209347232523885 0.5542743316533248 0.5542743316533248
vn -0.7088816433428794 0.5715075741348983 0.4133592970261375
vn -0.8068970253112712 0.41768240957922936 0.41768240957922936
vn -0.7570376681126068 0.5992035472999369 0.26047855566591155
vn -0.7848539774562853 0.6119032055231509 0.09787083907651765
vn -0.898132214532309 0.43025821852466245 0.09075456248186319
vn -0.8657369517958893 0.4291806663823276 0.2574946327572357
vn -0.9631465730087105 0.2535589410692689 0.08975824366267243
vn -0.9929543575970304 0.08379034469755045 0.08379034469755041
vn -0.9631465730087105 0.08975824366267242 0.2535589410692692
vn -0.9297660330334879 0.26032203500392653 0.2603220350039266
vn -0.898132214532309 0.4302582185246624 -0.09075456248186319
vn -0.7848539774562853 0.6119032055231509 -0.09787083907651761
vn -0.7570376681126068 0.5992035472999369 -0.26047855566591155
vn -0.8657369517958893 0.4291806663823276 -0.2574946327572357
vn -0.7088816433428795 0.5715075741348983 -0.4133592970261375
vn -0.6209347232523885 0.5542743316533247 -0.5542743316533247
vn -0.7088816433428795 0.413359297026138 -0.5715075741348979
vn -0.806897025311271 0.41768240957922925 -0.41768240957922925
vn -0.757037668112607 0.26047855566591105 -0.5992035472999367
vn -0.7848539774562852 0.09787083907651727 -0.6119032055231509
vn -0.898132214532309 0.09075456248186316 -0.43025821852466234
vn -0.8657369517958893 0.25749463275723555 -0.4291806663823274
vn -0.9631465730087105 0.08975824366267242 -0.2535589410692692
vn -0.9929543575970304 0.08379034469755045 -0.08379034469755041
vn -0.9631465730087105 0.2535589410692689 -0.08975824366267242
vn -0.9297660330334879 0.26032203500392653 -0.2603220350039266
vn -0.8981322145323091 -0.09075456248186324 -0.43025821852466256
vn -0.7848539774562852 -0.0978708390765173 -0.6119032055231509
vn -0.7570376681126066 -0.26047855566591127 -0.599203547299937
vn -0.8657369517958895 -0.25749463275723544 -0.42918066638232727
vn -0.7088816433428793 -0.4133592970261377 -0.5715075741348984
vn -0.6209347232523894 -0.5542743316533243 -0.5542743316533243
vn -0.7088816433428793 -0.5715075741348983 -0.41335929702613766
vn -0.8068970253112713 -0.4176824095792291 -0.4176824095792291
vn -0.7570376681126065 -0.5992035472999371 -0.2604785556659113
vn -0.7848539774562852 -0.6119032055231509 -0.09787083907651746
vn -0.8981322145323092 -0.43025821852466234 -0.09075456248186321
vn -0.8657369517958894 -0.42918066638232727 -0.25749463275723544
vn -0.9631465730087104 -0.2535589410692692 -0.08975824366267243
vn -0.9929543575970304 -0.08379034469755041 -0.08379034469755041
vn -0.9631465730087104 -0.08975824366267246 -0.2535589410692692
vn -0.929766033033488 -0.26032203500392637 -0.2603220350039264
vn -0.4302582185246624 0.898132214532309 0.09075456248186319
vn -0.6119032055231506 0.7848539774562856 0.09787083907651775
vn -0.5992035472999369 0.7570376681126065 0.26047855566591166
vn -0.4291806663823276 0.8657369517958892 0.25749463275723555
vn -0.5715075741348983 0.7088816433428796 0.41335929702613733
vn -0.5542743316533248 0.6209347232523884 0.5542743316533248
vn -0.4133592970261374 0.7088816433428794 0.5715075741348983
vn -0.4176824095792294 0.806897025311271 0.4176824095792294
vn -0.26047855566591155 0.7570376681126065 0.5992035472999369
vn -0.09787083907651777 0.7848539774562855 0.6119032055231506
vn -0.09075456248186319 0.898132214532309 0.43025821852466245
vn -0.25749463275723555 0.8657369517958892 0.42918066638232755
vn -0.08975824366267243 0.9631465730087104 0.2535589410692692
vn -0.08379034469755041 0.9929543575970304 0.08379034469755041
vn -0.2535589410692692 0.9631465730087104 0.08975824366267243
vn -0.26032203500392653 0.9297660330334879 0.26032203500392653
vn 0.09075456248186319 0.898132214532309 0.4302582185246624
vn 0.09787083907651775 0.7848539774562855 0.6119032055231506
vn 0.26047855566591166 0.7570376681126065 0.5992035472999369
vn 0.25749463275723555 0.8657369517958892 0.4291806663823276
vn 0.4133592970261373 0.7088816433428796 0.5715075741348983
vn 0.5542743316533248 0.6209347232523884 0.5542743316533248
vn 0.5715075741348983 0.7088816433428794 0.4133592970261374
vn 0.4176824095792294 0.806897025311271 0.4176824095792294
vn 0.5992035472999369 0.7570376681126065 0.26047855566591155
vn 0.6119032055231506 0.7848539774562856 0.09787083907651778
vn 0.43025821852466245 0.898132214532309 0.09075456248186319
vn 0.42918066638232755 0.8657369517958892 0.25749463275723555
vn 0.2535589410692692 0.9631465730087104 0.08975824366267243
vn 0.08379034469755041 0.9929543575970304 0.08379034469755041
vn 0.08975824366267243 0.9631465730087104 0.2535589410692692
vn 0.26032203500392653 0.9297660330334879 0.26032203500392653
vn 0.4302582185246624 0.898132214532309 -0.09075456248186319
vn 0.6119032055231506 0.7848539774562856 -0.09787083907651775
vn 0.5992035472999369 0.7570376681126065 -0.26047855566591166
vn 0.4291806663823276 0.8657369517958892 -0.25749463275723555
vn 0.5715075741348983 0.7088816433428796 -0.41335929702613733
vn 0.5542743316533248 0.6209347232523884 -0.5542743316533248
vn 0.4133592970261374 0.7088816433428794 -0.5715075741348983
vn 0.4176824095792294 0.806897025311271 -0.4176824095792294
vn 0.26047855566591155 0.7570376681126065 -0.5992035472999369
vn 0.09787083907651777 0.7848539774562855 -0.6119032055231506
vn 0.09075456248186319 0.898132214532309 -0.43025821852466245
vn 0.25749463275723555 0.8657369517958892 -0.42918066638232755
vn 0.08975824366267243 0.9631465730087104 -0.2535589410692692
vn 0.08379034469755041 0.9929543575970304 -0.08379034469755041
vn 0.2535589410692692 0.9631465730087104 -0.08975824366267243
vn 0.26032203500392653 0.9297660330334879 -0.26032203500392653
vn -0.09075456248186319 0.898132214532309 -0.4302582185246624
vn -0.09787083907651775 0.7848539774562855 -0.6119032055231506
vn -0.26047855566591166 0.7570376681126065 -0.5992035472999369
vn -0.25749463275723555 0.8657369517958892 -0.4291806663823276
vn -0.4133592970261373 0.7088816433428796 -0.5715075741348983
vn -0.5542743316533248 0.6209347232523884 -0.5542743316533248
vn -0.5715075741348983 0.7088816433428794 -0.4133592970261374
vn -0.4176824095792294 0.806897025311271 -0.4176824095792294
vn -0.5992035472999369 0.7570376681126065 -0.26047855566591155
vn -0.6119032055231506 0.7848539774562856 -0.09787083907651778
vn -0.43025821852466245 0.898132214532309 -0.09075456248186319
vn -0.42918066638232755 0.8657369517958892 -0.25749463275723555
vn -0.2535589410692692 0.9631465730087104 -0.08975824366267243
vn -0.08379034469755041 0.9929543575970304 -0.08379034469755041
vn -0.08975824366267243 0.9631465730087104 -0.2535589410692692
vn -0.26032203500392653 0.9297660330334879 -0.26032203500392653
vn 0.09075456248186299 -0.898132214532309 -0.43025821852466245
vn 0.09787083907651752 -0.7848539774562854 -0.6119032055231506
vn 0.2604785556659115 -0.7570376681126065 -0.5992035472999372
vn 0.2574946327572357 -0.8657369517958894 -0.42918066638232694
vn 0.4133592970261376 -0.7088816433428793 -0.5715075741348984
vn 0.5542743316533243 -0.6209347232523894 -0.5542743316533243
vn 0.5715075741348985 -0.7088816433428793 -0.41335929702613766
vn 0.4176824095792289 -0.8068970253112716 -0.4176824095792289
vn 0.599203547299937 -0.7570376681126065 -0.2604785556659114
vn 0.6119032055231506 -0.7848539774562854 -0.0978708390765175
vn 0.43025821852466245 -0.898132214532309 -0.09075456248186299
vn 0.429180666382327 -0.8657369517958896 -0.2574946327572358
vn 0.2535589410692694 -0.9631465730087104 -0.08975824366267222
vn 0.0837903446975504 -0.9929543575970304 -0.0837903446975504
vn 0.08975824366267224 -0.9631465730087104 -0.2535589410692694
vn 0.2603220350039267 -0.9297660330334878 -0.2603220350039267
vn 0.43025821852466245 -0.898132214532309 0.09075456248186299
vn 0.6119032055231506 -0.7848539774562854 0.09787083907651752
vn 0.5992035472999372 -0.7570376681126065 0.2604785556659115
vn 0.42918066638232694 -0.8657369517958894 0.2574946327572357
vn 0.5715075741348984 -0.7088816433428793 0.4133592970261376
vn 0.5542743316533243 -0.6209347232523894 0.5542743316533243
vn 0.41335929702613755 -0.7088816433428792 0.5715075741348984
vn 0.4176824095792289 -0.8068970253112716 0.4176824095792289
vn 0.2604785556659114 -0.7570376681126065 0.599203547299937
vn 0.0978708390765175 -0.7848539774562854 0.6119032055231506
vn 0.09075456248186299 -0.898132214532309 0.43025821852466245
vn 0.2574946327572358 -0.8657369517958896 0.429180666382327
vn 0.08975824366267222 -0.9631465730087104 0.2535589410692694
vn 0.0837903446975504 -0.9929543575970304 0.0837903446975504
vn 0.2535589410692694 -0.9631465730087104 0.08975824366267224
vn 0.2603220350039267 -0.9297660330334878 0.2603220350039267
vn -0.09075456248186299 -0.898132214532309 0.43025821852466245
vn -0.09787083907651752 -0.7848539774562854 0.6119032055231506
vn -0.2604785556659115 -0.7570376681126065 0.5992035472999372
vn -0.2574946327572357 -0.8657369517958894 0.42918066638232694
vn -0.4133592970261376 -0.7088816433428793 0.5715075741348984
vn -0.5542743316533243 -0.6209347232523894 0.5542743316533243
vn -0.5715075741348985 -0.7088816433428793 0.41335929702613766
vn -0.4176824095792289 -0.8068970253112716 0.4176824095792289
vn -0.599203547299937 -0.7570376681126065 0.2604785556659114
vn -0.6119032055231506 -0.7848539774562854 0.0978708390765175
vn -0.43025821852466245 -0.898132214532309 0.09075456248186299
vn -0.429180666382327 -0.8657369517958896 0.2574946327572358
vn -0.2535589410692694 -0.9631465730087104 0.08975824366267222
vn -0.0837903446975504 -0.9929543575970304 0.0837903446975504
vn -0.08975824366267224 -0.9631465730087104 0.2535589410692694
vn -0.2603220350039267 -0.9297660330334878 0.2603220350039267
vn -0.43025821852466245 -0.898132214532309 -0.09075456248186299
vn -0.6119032055231506 -0.7848539774562854 -0.09787083907651752
vn -0.5992035472999372 -0.7570376681126065 -0.2604785556659115
vn -0.42918066638232694 -0.8657369517958894 -0.2574946327572357
vn -0.5715075741348984 -0.7088816433428793 -0.4133592970261376
vn -0.5542743316533243 -0.6209347232523894 -0.5542743316533243
vn -0.41335929702613755 -0.7088816433428792 -0.5715075741348984
vn -0.4176824095792289 -0.8068970253112716 -0.4176824095792289
vn -0.2604785556659114 -0.7570376681126065 -0.599203547299937
vn -0.0978708390765175 -0.7848539774562854 -0.6119032055231506
vn -0.09075456248186299 -0.898132214532309 -0.43025821852466245
vn -0.2574946327572358 -0.8657369517958896 -0.429180666382327
vn -0.08975824366267222 -0.9631465730087104 -0.2535589410692694
vn -0.0837903446975504 -0.9929543575970304 -0.0837903446975504
vn -0.2535589410692694 -0.9631465730087104 -0.08975824366267224
vn -0.2603220350039267 -0.9297660330334878 -0.2603220350039267
vn 0.09075456248186321 -0.4302582185246624 0.8981322145323092
vn 0.09787083907651739 -0.6119032055231509 0.7848539774562852
vn 0.2604785556659114 -0.5992035472999371 0.7570376681126064
vn 0.25749463275723544 -0.42918066638232727 0.8657369517958894
vn 0.41335929702613755 -0.5715075741348983 0.7088816433428793
vn 0.5542743316533243 -0.5542743316533243 0.6209347232523894
vn 0.5715075741348984 -0.41335929702613766 0.7088816433428793
vn 0.4176824095792291 -0.4176824095792291 0.8068970253112713
vn 0.599203547299937 -0.2604785556659112 0.7570376681126066
vn 0.6119032055231509 -0.09787083907651727 0.7848539774562852
vn 0.4302582185246625 -0.09075456248186321 0.8981322145323091
vn 0.4291806663823272 -0.25749463275723544 0.8657369517958895
vn 0.25355894106926913 -0.08975824366267245 0.9631465730087104
vn 0.08379034469755041 -0.08379034469755041 0.9929543575970304
vn 0.08975824366267243 -0.2535589410692692 0.9631465730087104
vn 0.2603220350039264 -0.26032203500392637 0.929766033033488
vn 0.4302582185246625 0.09075456248186317 0.898132214532309
vn 0.6119032055231509 0.0978708390765173 0.7848539774562852
vn 0.5992035472999367 0.2604785556659111 0.757037668112607
vn 0.4291806663823273 0.25749463275723555 0.8657369517958893
vn 0.5715075741348979 0.41335929702613805 0.7088816433428795
vn 0.5542743316533248 0.5542743316533248 0.6209347232523885
vn 0.4133592970261375 0.5715075741348983 0.7088816433428794
vn 0.41768240957922936 0.41768240957922936 0.8068970253112712
vn 0.26047855566591155 0.5992035472999369 0.7570376681126068
vn 0.09787083907651765 0.6119032055231509 0.7848539774562852
vn 0.09075456248186319 0.43025821852466245 0.898132214532309
vn 0.2574946327572357 0.4291806663823276 0.8657369517958893
vn 0.08975824366267243 0.2535589410692689 0.9631465730087105
vn 0.08379034469755041 0.08379034469755045 0.9929543575970304
vn 0.2535589410692692 0.08975824366267242 0.9631465730087105
vn 0.2603220350039266 0.26032203500392653 0.9297660330334879
vn -0.09075456248186319 0.4302582185246624 0.898132214532309
vn -0.0978708390765176 0.6119032055231509 0.7848539774562852
vn -0.26047855566591155 0.5992035472999369 0.7570376681126068
vn -0.2574946327572357 0.4291806663823276 0.8657369517958893
vn -0.4133592970261375 0.5715075741348983 0.7088816433428795
vn -0.5542743316533247 0.5542743316533247 0.6209347232523885
vn -0.5715075741348979 0.413359297026138 0.7088816433428795
vn -0.41768240957922925 0.41768240957922925 0.806897025311271
vn -0.5992035472999367 0.26047855566591105 0.757037668112607
vn -0.6119032055231509 0.09787083907651727 0.7848539774562852
vn -0.43025821852466234 0.09075456248186316 0.898132214532309
vn -0.4291806663823274 0.25749463275723555 0.8657369517958893
vn -0.2535589410692692 0.08975824366267242 0.9631465730087105
vn -0.08379034469755041 0.08379034469755045 0.9929543575970304
vn -0.08975824366267242 0.2535589410692689 0.9631465730087105
vn -0.2603220350039266 0.26032203500392653 0.9297660330334879
vn -0.43025821852466256 -0.09075456248186324 0.8981322145323091
vn -0.6119032055231509 -0.0978708390765173 0.7848539774562852
vn -0.599203547299937 -0.26047855566591127 0.7570376681126066
vn -0.42918066638232727 -0.25749463275723544 0.8657369517958895
vn -0.5715075741348983 -0.41335929702613766 0.7088816433428793
vn -0.5542743316533243 -0.5542743316533243 0.6209347232523894
vn -0.4133592970261377 -0.5715075741348984 0.7088816433428793
vn -0.4176824095792291 -0.4176824095792291 0.8068970253112713
vn -0.2604785556659113 -0.5992035472999371 0.7570376681126065
vn -0.09787083907651746 -0.6119032055231509 0.7848539774562852
vn -0.09075456248186321 -0.4302582185246624 0.8981322145323092
vn -0.25749463275723544 -0.42918066638232727 0.8657369517958894
vn -0.08975824366267243 -0.2535589410692692 0.9631465730087104
vn -0.08379034469755041 -0.08379034469755041 0.9929543575970304
vn -0.2535589410692692 -0.08975824366267246 0.9631465730087104
vn -0.2603220350039264 -0.26032203500392637 0.929766033033488
vn -0.4302582185246625 0.09075456248186317 -0.898132214532309
vn -0.6119032055231509 0.0978708390765173 -0.7848539774562852
vn -0.5992035472999367 0.2604785556659111 -0.757037668112607
vn -0.4291806663823273 0.25749463275723555 -0.8657369517958893
vn -0.5715075741348979 0.41335929702613805 -0.7088816433428795
vn -0.5542743316533248 0.5542743316533248 -0.6209347232523885
vn -0.4133592970261375 0.5715075741348983 -0.7088816433428794
vn -0.41768240957922936 0.41768240957922936 -0.8068970253112712
vn -0.26047855566591155 0.5992035472999369 -0.7570376681126068
vn -0.09787083907651765 0.6119032055231509 -0.7848539774562852
vn -0.09075456248186319 0.43025821852466245 -0.898132214532309
vn -0.2574946327572357 0.4291806663823276 -0.8657369517958893
vn -0.08975824366267243 0.2535589410692689 -0.9631465730087105
vn -0.08379034469755041 0.08379034469755045 -0.9929543575970304
vn -0.2535589410692692 0.08975824366267242 -0.9631465730087105
vn -0.2603220350039266 0.26032203500392653 -0.9297660330334879
vn 0.09075456248186319 0.4302582185246624 -0.898132214532309
vn 0.0978708390765176 0.6119032055231509 -0.7848539774562852
vn 0.26047855566591155 0.5992035472999369 -0.7570376681126068
vn 0.2574946327572357 0.4291806663823276 -0.8657369517958893
vn 0.4133592970261375 0.5715075741348983 -0.7088816433428795
vn 0.5542743316533247 0.5542743316533247 -0.6209347232523885
vn 0.5715075741348979 0.413359297026138 -0.7088816433428795
vn 0.41768240957922925 0.41768240957922925 -0.806897025311271
vn 0.5992035472999367 0.26047855566591105 -0.757037668112607
vn 0.6119032055231509 0.09787083907651727 -0.7848539774562852
vn 0.43025821852466234 0.09075456248186316 -0.898132214532309
vn 0.4291806663823274 0.25749463275723555 -0.8657369517958893
vn 0.2535589410692692 0.08975824366267242 -0.9631465730087105
vn 0.08379034469755041 0.08379034469755045 -0.9929543575970304
vn 0.08975824366267242 0.2535589410692689 -0.9631465730087105
vn 0.2603220350039266 0.26032203500392653 -0.9297660330334879
vn 0.43025821852466256 -0.09075456248186324 -0.8981322145323091
vn 0.6119032055231509 -0.0978708390765173 -0.7848539774562852
vn 0.599203547299937 -0.26047855566591127 -0.7570376681126066
vn 0.42918066638232727 -0.25749463275723544 -0.8657369517958895
vn 0.5715075741348983 -0.41335929702613766 -0.7088816433428793
vn 0.5542743316533243 -0.5542743316533243 -0.6209347232523894
vn 0.4133592970261377 -0.5715075741348984 -0.7088816433428793
vn 0.4176824095792291 -0.4176824095792291 -0.8068970253112713
vn 0.2604785556659113 -0.5992035472999371 -0.7570376681126065
vn 0.09787083907651746 -0.6119032055231509 -0.7848539774562852
vn 0.09075456248186321 -0.4302582185246624 -0.8981322145323092
vn 0.25749463275723544 -0.42918066638232727 -0.8657369517958894
vn 0.08975824366267243 -0.2535589410692692 -0.9631465730087104
vn 0.08379034469755041 -0.08379034469755041 -0.9929543575970304
vn 0.2535589410692692 -0.08975824366267246 -0.9631465730087104
vn 0.2603220350039264 -0.26032203500392637 -0.929766033033488
vn -0.09075456248186321 -0.4302582185246624 -0.8981322145323092
vn -0.09787083907651739 -0.6119032055231509 -0.7848539774562852
vn -0.2604785556659114 -0.5992035472999371 -0.7570376681126064
vn -0.25749463275723544 -0.42918066638232727 -0.8657369517958894
vn -0.41335929702613755 -0.5715075741348983 -0.7088816433428793
vn -0.5542743316533243 -0.5542743316533243 -0.6209347232523894
vn -0.5715075741348984 -0.41335929702613766 -0.7088816433428793
vn -0.4176824095792291 -0.4176824095792291 -0.8068970253112713
vn -0.599203547299937 -0.2604785556659112 -0.7570376681126066
vn -0.6119032055231509 -0.09787083907651727 -0.7848539774562852
vn -0.4302582185246625 -0.09075456248186321 -0.8981322145323091
vn -0.4291806663823272 -0.25749463275723544 -0.8657369517958895
vn -0.25355894106926913 -0.08975824366267245 -0.9631465730087104
vn -0.08379034469755041 -0.08379034469755041 -0.9929543575970304
vn -0.08975824366267243 -0.2535589410692692 -0.9631465730087104
vn -0.2603220350039264 -0.26032203500392637 -0.929766033033488
usemtl m_273d8bb1-332c-e33e-9ce7-050660dbe44c
f 198/1/1 54/2/1 195/3/1 99/4/1
f 195/5/2 18/6/2 196/7/2 99/8/2
f 196/9/3 51/10/3 197/11/3 99/12/3
f 197/13/4 27/14/4 198/15/4 99/16/4
f 197/17/5 51/18/5 199/19/5 100/20/5
f 199/21/6 2/22/6 200/23/6 100/24/6
f 200/25/7 52/26/7 201/27/7 100/28/7
f 201/29/8 27/30/8 197/31/8 100/32/8
f 201/33/9 52/34/9 202/35/9 101/36/9
f 202/37/10 15/38/10 203/39/10 101/40/10
f 203/41/11 53/42/11 204/43/11 101/44/11
f 204/45/12 27/46/12 201/47/12 101/48/12
f 204/49/13 53/50/13 205/51/13 102/52/13
f 205/53/14 9/54/14 206/55/14 102/56/14
f 206/57/15 54/58/15 198/59/15 102/60/15
f 198/61/16 27/62/16 204/63/16 102/64/16
f 209/65/17 53/66/17 203/67/17 103/68/17
f 203/69/18 15/70/18 207/71/18 103/72/18
f 207/73/19 55/74/19 208/75/19 103/76/19
f 208/77/20 28/78/20 209/79/20 103/80/20
f 208/81/21 55/82/21 210/83/21 104/84/21
f 210/85/22 1/86/22 211/87/22 104/88/22
f 211/89/23 56/90/23 212/91/23 104/92/23
f 212/93/24 28/94/24 208/95/24 104/96/24
f 212/97/25 56/98/25 213/99/25 105/100/25
f 213/101/26 16/102/26 214/103/26 105/104/26
f 214/105/27 57/106/27 215/107/27 105/108/27
f 215/109/28 28/110/28 212/111/28 105/112/28
f 215/113/29 57/114/29 216/115/29 106/116/29
f 216/117/30 9/118/30 205/119/30 106/120/30
f 205/121/31 53/122/31 209/123/31 106/124/31
f 209/125/32 28/126/32 215/127/32 106/128/32
f 219/129/33 57/130/33 214/131/33 107/132/33
f 214/133/34 16/134/34 217/135/34 107/136/34
f 217/137/35 58/138/35 218/139/35 107/140/35
f 218/141/36 29/142/36 219/143/36 107/144/36
f 218/145/37 58/146/37 220/147/37 108/148/37
f 220/149/38 3/150/38 221/151/38 108/152/38
f 221/153/39 59/154/39 222/155/39 108/156/39
f 222/157/40 29/158/40 218/159/40 108/160/40
f 222/161/41 59/162/41 223/163/41 109/164/41
f 223/165/42 17/166/42 224/167/42 109/168/42
f 224/169/43 60/170/43 225/171/43 109/172/43
f 225/173/44 29/174/44 222/175/44 109/176/44
f 225/177/45 60/178/45 226/179/45 110/180/45
f 226/181/46 9/182/46 216/183/46 110/184/46
f 216/185/47 57/186/47 219/187/47 110/188/47
f 219/189/48 29/190/48 225/191/48 110/192/48
f 229/193/49 60/194/49 224/195/49 111/196/49
f 224/197/50 17/198/50 227/199/50 111/200/50
f 227/201/51 61/202/51 228/203/51 111/204/51
f 228/205/52 30/206/52 229/207/52 111/208/52
f 228/209/53 61/210/53 230/211/53 112/212/53
f 230/213/54 4/214/54 231/215/54 112/216/54
f 231/217/55 62/218/55 232/219/55 112/220/55
f 232/221/56 30/222/56 228/223/56 112/224/56
f 232/225/57 62/226/57 233/227/57 113/228/57
f 233/229/58 18/230/58 195/231/58 113/232/58
f 195/233/59 54/234/59 234/235/59 113/236/59
f 234/237/60 30/238/60 232/239/60 113/240/60
f 234/241/61 54/242/61 206/243/61 114/244/61
f 206/245/62 9/246/62 226/247/62 114/248/62
f 226/249/63 60/250/63 229/251/63 114/252/63
f 229/253/64 30/254/64 234/255/64 114/256/64
f 238/257/65 66/258/65 235/259/65 115/260/65
f 235/261/66 22/262/66 236/263/66 115/264/66
f 236/265/67 63/266/67 237/267/67 115/268/67
f 237/269/68 31/270/68 238/271/68 115/272/68
f 237/273/69 63/274/69 239/275/69 116/276/69
f 239/277/70 7/278/70 240/279/70 116/280/70
f 240/281/71 64/282/71 241/283/71 116/284/71
f 241/285/72 31/286/72 237/287/72 116/288/72
f 241/289/73 64/290/73 242/291/73 117/292/73
f 242/293/74 19/294/74 243/295/74 117/296/74
f 243/297/75 65/298/75 244/299/75 117/300/75
f 244/301/76 31/302/76 241/303/76 117/304/76
f 244/305/77 65/306/77 245/307/77 118/308/77
f 245/309/78 10/310/78 246/311/78 118/312/78
f 246/313/79 66/314/79 238/315/79 118/316/79
f 238/317/80 31/318/80 244/319/80 118/320/80
f 249/321/81 65/322/81 243/323/81 119/324/81
f 243/325/82 19/326/82 247/327/82 119/328/82
f 247/329/83 67/330/83 248/331/83 119/332/83
f 248/333/84 32/334/84 249/335/84 119/336/84
f 248/337/85 67/338/85 250/339/85 120/340/85
f 250/341/86 5/342/86 251/343/86 120/344/86
f 251/345/87 68/346/87 252/347/87 120/348/87
f 252/349/88 32/350/88 248/351/88 120/352/88
f 252/353/89 68/354/89 253/355/89 121/356/89
f 253/357/90 20/358/90 254/359/90 121/360/90
f 254/361/91 69/362/91 255/363/91 121/364/91
f 255/365/92 32/366/92 252/367/92 121/368/92
f 255/369/93 69/370/93 256/371/93 122/372/93
f 256/373/94 10/374/94 245/375/94 122/376/94
f 245/377/95 65/378/95 249/379/95 122/380/95
f 249/381/96 32/382/96 255/383/96 122/384/96
f 259/385/97 69/386/97 254/387/97 123/388/97
f 254/389/98 20/390/98 257/391/98 123/392/98
f 257/393/99 70/394/99 258/395/99 123/396/99
f 258/397/100 33/398/100 259/399/100 123/400/100
f 258/401/101 70/402/101 260/403/101 124/404/101
f 260/405/102 6/406/102 261/407/102 124/408/102
f 261/409/103 71/410/103 262/411/103 124/412/103
f 262/413/104 33/414/104 258/415/104 124/416/104
f 262/417/105 71/418/105 263/419/105 125/420/105
f 263/421/106 21/422/106 264/423/106 125/424/106
f 264/425/107 72/426/107 265/427/107 125/428/107
f 265/429/108 33/430/108 262/431/108 125/432/108
f 265/433/109 72/434/109 266/435/109 126/436/109
f 266/437/110 10/438/110 256/439/110 126/440/110
f 256/441/111 69/442/111 259/443/111 126/444/111
f 259/445/112 33/446/112 265/447/112 126/448/112
f 269/449/113 72/450/113 264/451/113 127/452/113
f 264/453/114 21/454/114 267/455/114 127/456/114
f 267/457/115 73/458/115 268/459/115 127/460/115
f 268/461/116 34/462/116 269/463/116 127/464/116
f 268/465/117 73/466/117 270/467/117 128/468/117
f 270/469/118 8/470/118 271/471/118 128/472/118
f 271/473/119 74/474/119 272/475/119 128/476/119
f 272/477/120 34/478/120 268/479/120 128/480/120
f 272/481/121 74/482/121 273/483/121 129/484/121
f 273/485/122 22/486/122 235/487/122 129/488/122
f 235/489/123 66/490/123 274/491/123 129/492/123
f 274/493/124 34/494/124 272/495/124 129/496/124
f 274/497/125 66/498/125 246/499/125 130/500/125
f 246/501/126 10/502/126 266/503/126 130/504/126
f 266/505/127 72/506/127 269/507/127 130/508/127
f 269/509/128 34/510/128 274/511/128 130/512/128
f 277/513/129 77/514/129 275/515/129 131/516/129
f 275/517/130 20/518/130 253/519/130 131/520/130
f 253/521/131 68/522/131 276/523/131 131/524/131
f 276/525/132 35/526/132 277/527/132 131/528/132
f 276/529/133 68/530/133 251/531/133 132/532/133
f 251/533/134 5/534/134 278/535/134 132/536/134
f 278/537/135 75/538/135 279/539/135 132/540/135
f 279/541/136 35/542/136 276/543/136 132/544/136
f 279/545/137 75/546/137 280/547/137 133/548/137
f 280/549/138 23/550/138 281/551/138 133/552/138
f 281/553/139 76/554/139 282/555/139 133/556/139
f 282/557/140 35/558/140 279/559/140 133/560/140
f 282/561/141 76/562/141 283/563/141 134/564/141
f 283/565/142 11/566/142 284/567/142 134/568/142
f 284/569/143 77/570/143 277/571/143 134/572/143
f 277/573/144 35/574/144 282/575/144 134/576/144
f 287/577/145 76/578/145 281/579/145 135/580/145
f 281/581/146 23/582/146 285/583/146 135/584/146
f 285/585/147 78/586/147 286/587/147 135/588/147
f 286/589/148 36/590/148 287/591/148 135/592/148
f 286/593/149 78/594/149 288/595/149 136/596/149
f 288/597/150 1/598/150 210/599/150 136/600/150
f 210/601/151 55/602/151 289/603/151 136/604/151
f 289/605/152 36/606/152 286/607/152 136/608/152
f 289/609/153 55/610/153 207/611/153 137/612/153
f 207/613/154 15/614/154 290/615/154 137/616/154
f 290/617/155 79/618/155 291/619/155 137/620/155
f 291/621/156 36/622/156 289/623/156 137/624/156
f 291/625/157 79/626/157 292/627/157 138/628/157
f 292/629/158 11/630/158 283/631/158 138/632/158
f 283/633/159 76/634/159 287/635/159 138/636/159
f 287/637/160 36/638/160 291/639/160 138/640/160
f 294/641/161 79/642/161 290/643/161 139/644/161
f 290/645/162 15/646/162 202/647/162 139/648/162
f 202/649/163 52/650/163 293/651/163 139/652/163
f 293/653/164 37/654/164 294/655/164 139/656/164
f 293/657/165 52/658/165 200/659/165 140/660/165
f 200/661/166 2/662/166 295/663/166 140/664/166
f 295/665/167 80/666/167 296/667/167 140/668/167
f 296/669/168 37/670/168 293/671/168 140/672/168
f 296/673/169 80/674/169 297/675/169 141/676/169
f 297/677/170 24/678/170 298/679/170 141/680/170
f 298/681/171 81/682/171 299/683/171 141/684/171
f 299/685/172 37/686/172 296/687/172 141/688/172
f 299/689/173 81/690/173 300/691/173 142/692/173
f 300/693/174 11/694/174 292/695/174 142/696/174
f 292/697/175 79/698/175 294/699/175 142/700/175
f 294/701/176 37/702/176 299/703/176 142/704/176
f 303/705/177 81/706/177 298/707/177 143/708/177
f 298/709/178 24/710/178 301/711/178 143/712/178
f 301/713/179 82/714/179 302/715/179 143/716/179
f 302/717/180 38/718/180 303/719/180 143/720/180
f 302/721/181 82/722/181 304/723/181 144/724/181
f 304/725/182 6/726/182 260/727/182 144/728/182
f 260/729/183 70/730/183 305/731/183 144/732/183
f 305/733/184 38/734/184 302/735/184 144/736/184
f 305/737/185 70/738/185 257/739/185 145/740/185
f 257/741/186 20/742/186 275/743/186 145/744/186
f 275/745/187 77/746/187 306/747/187 145/748/187
f 306/749/188 38/750/188 305/751/188 145/752/188
f 306/753/189 77/754/189 284/755/189 146/756/189
f 284/757/190 11/758/190 300/759/190 146/760/190
f 300/761/191 81/762/191 303/763/191 146/764/191
f 303/765/192 38/766/192 306/767/192 146/768/192
f 310/769/193 85/770/193 307/771/193 147/772/193
f 307/773/194 26/774/194 308/775/194 147/776/194
f 308/777/195 83/778/195 309/779/195 147/780/195
f 309/781/196 39/782/196 310/783/196 147/784/196
f 309/785/197 83/786/197 311/787/197 148/788/197
f 311/789/198 4/790/198 230/791/198 148/792/198
f 230/793/199 61/794/199 312/795/199 148/796/199
f 312/797/200 39/798/200 309/799/200 148/800/200
f 312/801/201 61/802/201 227/803/201 149/804/201
f 227/805/202 17/806/202 313/807/202 149/808/202
f 313/809/203 84/810/203 314/811/203 149/812/203
f 314/813/204 39/814/204 312/815/204 149/816/204
f 314/817/205 84/818/205 315/819/205 150/820/205
f 315/821/206 12/822/206 316/823/206 150/824/206
f 316/825/207 85/826/207 310/827/207 150/828/207
f 310/829/208 39/830/208 314/831/208 150/832/208
f 318/833/209 84/834/209 313/835/209 151/836/209
f 313/837/210 17/838/210 223/839/210 151/840/210
f 223/841/211 59/842/211 317/843/211 151/844/211
f 317/845/212 40/846/212 318/847/212 151/848/212
f 317/849/213 59/850/213 221/851/213 152/852/213
f 221/853/214 3/854/214 319/855/214 152/856/214
f 319/857/215 86/858/215 320/859/215 152/860/215
f 320/861/216 40/862/216 317/863/216 152/864/216
f 320/865/217 86/866/217 321/867/217 153/868/217
f 321/869/218 25/870/218 322/871/218 153/872/218
f 322/873/219 87/874/219 323/875/219 153/876/219
f 323/877/220 40/878/220 320/879/220 153/880/220
f 323/881/221 87/882/221 324/883/221 154/884/221
f 324/885/222 12/886/222 315/887/222 154/888/222
f 315/889/223 84/890/223 318/891/223 154/892/223
f 318/893/224 40/894/224 323/895/224 154/896/224
f 327/897/225 87/898/225 322/899/225 155/900/225
f 322/901/226 25/902/226 325/903/226 155/904/226
f 325/905/227 88/906/227 326/907/227 155/908/227
f 326/909/228 41/910/228 327/911/228 155/912/228
f 326/913/229 88/914/229 328/915/229 156/916/229
f 328/917/230 7/918/230 239/919/230 156/920/230
f 239/921/231 63/922/231 329/923/231 156/924/231
f 329/925/232 41/926/232 326/927/232 156/928/232
f 329/929/233 63/930/233 236/931/233 157/932/233
f 236/933/234 22/934/234 330/935/234 157/936/234
f 330/937/235 89/938/235 331/939/235 157/940/235
f 331/941/236 41/942/236 329/943/236 157/944/236
f 331/945/237 89/946/237 332/947/237 158/948/237
f 332/949/238 12/950/238 324/951/238 158/952/238
f 324/953/239 87/954/239 327/955/239 158/956/239
f 327/957/240 41/958/240 331/959/240 158/960/240
f 334/961/241 89/962/241 330/963/241 159/964/241
f 330/965/242 22/966/242 273/967/242 159/968/242
f 273/969/243 74/970/243 333/971/243 159/972/243
f 333/973/244 42/974/244 334/975/244 159/976/244
f 333/977/245 74/978/245 271/979/245 160/980/245
f 271/981/246 8/982/246 335/983/246 160/984/246
f 335/985/247 90/986/247 336/987/247 160/988/247
f 336/989/248 42/990/248 333/991/248 160/992/248
f 336/993/249 90/994/249 337/995/249 161/996/249
f 337/997/250 26/998/250 307/999/250 161/1000/250
f 307/1001/251 85/1002/251 338/1003/251 161/1004/251
f 338/1005/252 42/1006/252 336/1007/252 161/1008/252
f 338/1009/253 85/1010/253 316/1011/253 162/1012/253
f 316/1013/254 12/1014/254 332/1015/254 162/1016/254
f 332/1017/255 89/1018/255 334/1019/255 162/1020/255
f 334/1021/256 42/1022/256 338/1023/256 162/1024/256
f 341/1025/257 92/1026/257 339/1027/257 163/1028/257
f 339/1029/258 25/1030/258 321/1031/258 163/1032/258
f 321/1033/259 86/1034/259 340/1035/259 163/1036/259
f 340/1037/260 43/1038/260 341/1039/260 163/1040/260
f 340/1041/261 86/1042/261 319/1043/261 164/1044/261
f 319/1045/262 3/1046/262 220/1047/262 164/1048/262
f 220/1049/263 58/1050/263 342/1051/263 164/1052/263
f 342/1053/264 43/1054/264 340/1055/264 164/1056/264
f 342/1057/265 58/1058/265 217/1059/265 165/1060/265
f 217/1061/266 16/1062/266 343/1063/266 165/1064/266
f 343/1065/267 91/1066/267 344/1067/267 165/1068/267
f 344/1069/268 43/1070/268 342/1071/268 165/1072/268
f 344/1073/269 91/1074/269 345/1075/269 166/1076/269
f 345/1077/270 13/1078/270 346/1079/270 166/1080/270
f 346/1081/271 92/1082/271 341/1083/271 166/1084/271
f 341/1085/272 43/1086/272 344/1087/272 166/1088/272
f 348/1089/273 91/1090/273 343/1091/273 167/1092/273
f 343/1093/274 16/1094/274 213/1095/274 167/1096/274
f 213/1097/275 56/1098/275 347/1099/275 167/1100/275
f 347/1101/276 44/1102/276 348/1103/276 167/1104/276
f 347/1105/277 56/1106/277 211/1107/277 168/1108/277
f 211/1109/278 1/1110/278 288/1111/278 168/1112/278
f 288/1113/279 78/1114/279 349/1115/279 168/1116/279
f 349/1117/280 44/1118/280 347/1119/280 168/1120/280
f 349/1121/281 78/1122/281 285/1123/281 169/1124/281
f 285/1125/282 23/1126/282 350/1127/282 169/1128/282
f 350/1129/283 93/1130/283 351/1131/283 169/1132/283
f 351/1133/284 44/1134/284 349/1135/284 169/1136/284
f 351/1137/285 93/1138/285 352/1139/285 170/1140/285
f 352/1141/286 13/1142/286 345/1143/286 170/1144/286
f 345/1145/287 91/1146/287 348/1147/287 170/1148/287
f 348/1149/288 44/1150/288 351/1151/288 170/1152/288
f 354/1153/289 93/1154/289 350/1155/289 171/1156/289
f 350/1157/290 23/1158/290 280/1159/290 171/1160/290
f 280/1161/291 75/1162/291 353/1163/291 171/1164/291
f 353/1165/292 45/1166/292 354/1167/292 171/1168/292
f 353/1169/293 75/1170/293 278/1171/293 172/1172/293
f 278/1173/294 5/1174/294 250/1175/294 172/1176/294
f 250/1177/295 67/1178/295 355/1179/295 172/1180/295
f 355/1181/296 45/1182/296 353/1183/296 172/1184/296
f 355/1185/297 67/1186/297 247/1187/297 173/1188/297
f 247/1189/298 19/1190/298 356/1191/298 173/1192/298
f 356/1193/299 94/1194/299 357/1195/299 173/1196/299
f 357/1197/300 45/1198/300 355/1199/300 173/1200/300
f 357/1201/301 94/1202/301 358/1203/301 174/1204/301
f 358/1205/302 13/1206/302 352/1207/302 174/1208/302
f 352/1209/303 93/1210/303 354/1211/303 174/1212/303
f 354/1213/304 45/1214/304 357/1215/304 174/1216/304
f 360/1217/305 94/1218/305 356/1219/305 175/1220/305
f 356/1221/306 19/1222/306 242/1223/306 175/1224/306
f 242/1225/307 64/1226/307 359/1227/307 175/1228/307
f 359/1229/308 46/1230/308 360/1231/308 175/1232/308
f 359/1233/309 64/1234/309 240/1235/309 176/1236/309
f 240/1237/310 7/1238/310 328/1239/310 176/1240/310
f 328/1241/311 88/1242/311 361/1243/311 176/1244/311
f 361/1245/312 46/1246/312 359/1247/312 176/1248/312
f 361/1249/313 88/1250/313 325/1251/313 177/1252/313
f 325/1253/314 25/1254/314 339/1255/314 177/1256/314
f 339/1257/315 92/1258/315 362/1259/315 177/1260/315
f 362/1261/316 46/1262/316 361/1263/316 177/1264/316
f 362/1265/317 92/1266/317 346/1267/317 178/1268/317
f 346/1269/318 13/1270/318 358/1271/318 178/1272/318
f 358/1273/319 94/1274/319 360/1275/319 178/1276/319
f 360/1277/320 46/1278/320 362/1279/320 178/1280/320
f 365/1281/321 96/1282/321 363/1283/321 179/1284/321
f 363/1285/322 21/1286/322 263/1287/322 179/1288/322
f 263/1289/323 71/1290/323 364/1291/323 179/1292/323
f 364/1293/324 47/1294/324 365/1295/324 179/1296/324
f 364/1297/325 71/1298/325 261/1299/325 180/1300/325
f 261/1301/326 6/1302/326 304/1303/326 180/1304/326
f 304/1305/327 82/1306/327 366/1307/327 180/1308/327
f 366/1309/328 47/1310/328 364/1311/328 180/1312/328
f 366/1313/329 82/1314/329 301/1315/329 181/1316/329
f 301/1317/330 24/1318/330 367/1319/330 181/1320/330
f 367/1321/331 95/1322/331 368/1323/331 181/1324/331
f 368/1325/332 47/1326/332 366/1327/332 181/1328/332
f 368/1329/333 95/1330/333 369/1331/333 182/1332/333
f 369/1333/334 14/1334/334 370/1335/334 182/1336/334
f 370/1337/335 96/1338/335 365/1339/335 182/1340/335
f 365/1341/336 47/1342/336 368/1343/336 182/1344/336
f 372/1345/337 95/1346/337 367/1347/337 183/1348/337
f 367/1349/338 24/1350/338 297/1351/338 183/1352/338
f 297/1353/339 80/1354/339 371/1355/339 183/1356/339
f 371/1357/340 48/1358/340 372/1359/340 183/1360/340
f 371/1361/341 80/1362/341 295/1363/341 184/1364/341
f 295/1365/342 2/1366/342 199/1367/342 184/1368/342
f 199/1369/343 51/1370/343 373/1371/343 184/1372/343
f 373/1373/344 48/1374/344 371/1375/344 184/1376/344
f 373/1377/345 51/1378/345 196/1379/345 185/1380/345
f 196/1381/346 18/1382/346 374/1383/346 185/1384/346
f 374/1385/347 97/1386/347 375/1387/347 185/1388/347
f 375/1389/348 48/1390/348 373/1391/348 185/1392/348
f 375/1393/349 97/1394/349 376/1395/349 186/1396/349
f 376/1397/350 14/1398/350 369/1399/350 186/1400/350
f 369/1401/351 95/1402/351 372/1403/351 186/1404/351
f 372/1405/352 48/1406/352 375/1407/352 186/1408/352
f 378/1409/353 97/1410/353 374/1411/353 187/1412/353
f 374/1413/354 18/1414/354 233/1415/354 187/1416/354
f 233/1417/355 62/1418/355 377/1419/355 187/1420/355
f 377/1421/356 49/1422/356 378/1423/356 187/1424/356
f 377/1425/357 62/1426/357 231/1427/357 188/1428/357
f 231/1429/358 4/1430/358 311/1431/358 188/1432/358
f 311/1433/359 83/1434/359 379/1435/359 188/1436/359
f 379/1437/360 49/1438/360 377/1439/360 188/1440/360
f 379/1441/361 83/1442/361 308/1443/361 189/1444/361
f 308/1445/362 26/1446/362 380/1447/362 189/1448/362
f 380/1449/363 98/1450/363 381/1451/363 189/1452/363
f 381/1453/364 49/1454/364 379/1455/364 189/1456/364
f 381/1457/365 98/1458/365 382/1459/365 190/1460/365
f 382/1461/366 14/1462/366 376/1463/366 190/1464/366
f 376/1465/367 97/1466/367 378/1467/367 190/1468/367
f 378/1469/368 49/1470/368 381/1471/368 190/1472/368
f 384/1473/369 98/1474/369 380/1475/369 191/1476/369
f 380/1477/370 26/1478/370 337/1479/370 191/1480/370
f 337/1481/371 90/1482/371 383/1483/371 191/1484/371
f 383/1485/372 50/1486/372 384/1487/372 191/1488/372
f 383/1489/373 90/1490/373 335/1491/373 192/1492/373
f 335/1493/374 8/1494/374 270/1495/374 192/1496/374
f 270/1497/375 73/1498/375 385/1499/375 192/1500/375
f 385/1501/376 50/1502/376 383/1503/376 192/1504/376
f 385/1505/377 73/1506/377 267/1507/377 193/1508/377
f 267/1509/378 21/1510/378 363/1511/378 193/1512/378
f 363/1513/379 96/1514/379 386/1515/379 193/1516/379
f 386/1517/380 50/1518/380 385/1519/380 193/1520/380
f 386/1521/381 96/1522/381 370/1523/381 194/1524/381
f 370/1525/382 14/1526/382 382/1527/382 194/1528/382
f 382/1529/383 98/1530/383 384/1531/383 194/1532/383
f 384/1533/384 50/1534/384 386/1535/384 194/1536/384