# Made in Blockbench 5.1.6
mtllib SunrayCollector.mtl

o dingus
v -0.145833125 0.633333125 0.25
v -0.25 0.8 0.25
v -0.35436875 0.8 0.35436875
v -0.145833125 0.633333125 0.458736875
v 0.25 0.8 0.25
v 0.145833125 0.633333125 0.25
v 0.145833125 0.633333125 0.458736875
v 0.35436875 0.8 0.35436875
v 0.25 0.8 0.25
v 0.145833125 0.633333125 0.25
v 0.145833125 0.633333125 0.458736875
v 0.35436875 0.8 0.35436875
v 0.5 0.625 0.3125
v 0.5 0.8125 0.3125
v -0.5 0.625 0.3125
v -0.5 0.8125 0.3125
v -0.3125 0.625 0.5
v -0.3125 0.8125 0.5
v -0.3125 0.625 -0.5
v -0.3125 0.8125 -0.5
v -0.5 0.625 -0.3125
v -0.5 0.8125 -0.3125
v 0.5 0.625 -0.3125
v 0.5 0.8125 -0.3125
v 0.3125 0.625 -0.5
v 0.3125 0.8125 -0.5
v 0.3125 0.625 0.5
v 0.3125 0.8125 0.5
v -0.0625 0.8 0.3125
v -0.00037125 0.8799 0.00037125
v -0.13032125 0.854116875 0.02615375
v -0.13032125 0.895783125 0.13032125
v -0.02615375 0.854116875 0.13032125
v 0.13032125 0.885366875 0.02615375
v 0.00037125 0.8799 0.00037125
v 0.02615375 0.885366875 0.13032125
v 0.13032125 0.895783125 0.13032125
v -0.02615375 0.885366875 -0.13032125
v -0.13032125 0.895783125 -0.13032125
v -0.13032125 0.885366875 -0.02615375
v -0.00037125 0.8799 -0.00037125
v 0.13032125 0.895783125 -0.13032125
v 0.02615375 0.854116875 -0.13032125
v 0.00037125 0.8799 -0.00037125
v 0.13032125 0.854116875 -0.02615375
v -0.25 0.633333125 0.145833125
v -0.12005 0.659116875 0.12005
v -0.145833125 0.633333125 0.25
v -0.0625 0.74444375 0.3125
v 0.12005 0.659116875 0.12005
v 0.25 0.633333125 0.145833125
v 0.145833125 0.633333125 0.25
v -0.12005 0.659116875 -0.12005
v -0.25 0.633333125 -0.145833125
v -0.145833125 0.633333125 -0.25
v -0.09375 0.8 -0.21875
v 0.09375 0.8 -0.21875
v 0.12005 0.659116875 -0.12005
v 0.145833125 0.633333125 -0.25
v 0.25 0.633333125 -0.145833125
v -0.35436875 0.8 0.35436875
v -0.458736875 0.633333125 0.145833125
v -0.25 0.8 0.25
v 0.25 0.8 0.25
v -0.25 0.8 -0.25
v 0.25 0.8 -0.25
v -0.125 0.74444375 0.3125
v -0.125 0.8 0.3125
v -0.0625 0.8 -0.25
v 0.0625 0.8 -0.25
v -0.03125 0.8 -0.15625
v 0 0.8 -0.1875
v 0 0.8 -0.1875
v 0.03125 0.8 -0.15625
v -0.35436875 0.8 -0.35436875
v -0.145833125 0.633333125 -0.458736875
v 0.145833125 0.633333125 -0.458736875
v 0.35436875 0.8 -0.35436875
v -0.458736875 0.633333125 -0.145833125
v 0.35436875 0.8 0.35436875
v 0.458736875 0.633333125 0.145833125
v 0.458736875 0.633333125 -0.145833125
v -0.3125 0.8 0.0625
v -0.3125 0.8 -0.0625
v -0.1875 0.8 0
v -0.21875 0.8 0.09375
v -0.21875 0.74444375 0.09375
v -0.1875 0.74444375 0
v -0.21875 0.8 -0.09375
v -0.21875 0.74444375 -0.09375
v -0.25 0.8 0.0625
v -0.3125 0.8 0.125
v -0.3125 0.74444375 0.125
v -0.25 0.8 -0.0625
v -0.3125 0.74444375 -0.125
v -0.3125 0.8 -0.125
v -0.25 0.85 0.0625
v -0.3125 0.85 0.0625
v -0.3125 0.85 0.125
v -0.21875 0.85 0.09375
v -0.3125 0.85 -0.0625
v -0.25 0.85 -0.0625
v -0.21875 0.85 -0.09375
v -0.3125 0.85 -0.125
v -0.15625 0.8 0.03125
v -0.1875 0.8 0
v -0.1875 0.85 0
v -0.15625 0.85 0.03125
v -0.1875 0.8 0
v -0.15625 0.8 -0.03125
v -0.15625 0.85 -0.03125
v -0.1875 0.85 0
v -0.0625 0.8 -0.3125
v 0.0625 0.8 -0.3125
v 0 0.8 -0.1875
v -0.09375 0.8 -0.21875
v -0.09375 0.74444375 -0.21875
v 0 0.74444375 -0.1875
v 0.09375 0.8 -0.21875
v 0.09375 0.74444375 -0.21875
v -0.0625 0.8 -0.25
v -0.125 0.8 -0.3125
v -0.125 0.74444375 -0.3125
v 0.0625 0.8 -0.25
v 0.125 0.74444375 -0.3125
v 0.125 0.8 -0.3125
v -0.0625 0.85 -0.25
v -0.0625 0.85 -0.3125
v -0.125 0.85 -0.3125
v -0.09375 0.85 -0.21875
v 0.0625 0.85 -0.3125
v 0.0625 0.85 -0.25
v 0.09375 0.85 -0.21875
v 0.125 0.85 -0.3125
v -0.03125 0.8 -0.15625
v 0 0.8 -0.1875
v 0 0.85 -0.1875
v -0.03125 0.85 -0.15625
v 0 0.8 -0.1875
v 0.03125 0.8 -0.15625
v 0.03125 0.85 -0.15625
v 0 0.85 -0.1875
v 0.3125 0.8 -0.0625
v 0.3125 0.8 0.0625
v 0.1875 0.8 0
v 0.21875 0.8 -0.09375
v 0.21875 0.74444375 -0.09375
v 0.1875 0.74444375 0
v 0.21875 0.8 0.09375
v 0.21875 0.74444375 0.09375
v 0.25 0.8 -0.0625
v 0.3125 0.8 -0.125
v 0.3125 0.74444375 -0.125
v 0.25 0.8 0.0625
v 0.3125 0.74444375 0.125
v 0.3125 0.8 0.125
v 0.25 0.85 -0.0625
v 0.3125 0.85 -0.0625
v 0.3125 0.85 -0.125
v 0.21875 0.85 -0.09375
v 0.3125 0.85 0.0625
v 0.25 0.85 0.0625
v 0.21875 0.85 0.09375
v 0.3125 0.85 0.125
v 0.15625 0.8 -0.03125
v 0.1875 0.8 0
v 0.1875 0.85 0
v 0.15625 0.85 -0.03125
v 0.1875 0.8 0
v 0.15625 0.8 0.03125
v 0.15625 0.85 0.03125
v 0.1875 0.85 0
v 0.0625 0.8 0.3125
v -0.0625 0.8 0.3125
v 0 0.8 0.1875
v 0.09375 0.8 0.21875
v 0.09375 0.74444375 0.21875
v 0 0.74444375 0.1875
v -0.09375 0.8 0.21875
v -0.09375 0.74444375 0.21875
v 0.0625 0.8 0.25
v 0.125 0.8 0.3125
v 0.125 0.74444375 0.3125
v -0.0625 0.8 0.25
v -0.125 0.74444375 0.3125
v -0.125 0.8 0.3125
v 0.0625 0.85 0.25
v 0.0625 0.85 0.3125
v 0.125 0.85 0.3125
v 0.09375 0.85 0.21875
v -0.0625 0.85 0.3125
v -0.0625 0.85 0.25
v -0.09375 0.85 0.21875
v -0.125 0.85 0.3125
v 0.03125 0.8 0.15625
v 0 0.8 0.1875
v 0 0.85 0.1875
v 0.03125 0.85 0.15625
v 0 0.8 0.1875
v -0.03125 0.8 0.15625
v -0.03125 0.85 0.15625
v 0 0.85 0.1875
vt 0.1038371875 0.674263125
vt 0.1049296875 0.66231375
vt 0.1097078125 0.65247625
vt 0.1126115625 0.67445
vt 0.1046996875 0.7099243749999999
vt 0.1037128125 0.70002125
vt 0.1124871875 0.7002081250000001
vt 0.109381875 0.71996375
vt 0.1046996875 0.7099243749999999
vt 0.1037128125 0.70002125
vt 0.1124871875 0.7002081250000001
vt 0.109381875 0.71996375
vt 0.5 0.8125
vt 0 0.8125
vt 0 1
vt 0.5 1
vt 0.5 0.8125
vt 0 0.8125
vt 0 1
vt 0.5 1
vt 0.5 0.8125
vt 0 0.8125
vt 0 1
vt 0.5 1
vt 0.5 0.8125
vt 0 0.8125
vt 0 1
vt 0.5 1
vt 0.296875 0.46875
vt 0.32779375 0.34878125000000004
vt 0.380105 0.38927750000000005
vt 0.356431875 0.46875
vt 0.265625 0.6875
vt 0.2750034375 0.576893125
vt 0.342360625 0.585169375
vt 0.31187875 0.6875
vt 0.265625 0.4759375
vt 0.265625 0.27939375
vt 0.36999375 0.27939375
vt 0.317809375 0.53125
vt 0.328125 0.25305687499999996
vt 0.37952375 0.16559562500000002
vt 0.37952375 0.44378874999999995
vt 0.328125 0.53125
vt 0.2732378125 0.19400687500000002
vt 0.3584215625 0.29201
vt 0.3178521875 0.46875
vt 0.265625 0.46875
vt 0.265625 0.45095375000000004
vt 0.265625 0.25441375
vt 0.3901909375 0.37820437500000004
vt 0.3611390625 0.46875
vt 0.265625 0.25686875
vt 0.3331096875 0.25686875
vt 0.423245625 0.46875
vt 0.3557609375 0.46875
vt 0.234375 0.44583062500000004
vt 0.3003784375 0.473955625
vt 0.3664596875 0.71875
vt 0.3005125 0.71875
vt 0.29983125 0.411076875
vt 0.365756875 0.38224625
vt 0.3003984375 0.65625
vt 0.234375 0.65625
vt 0.2739109375 0.36764062500000005
vt 0.34282625 0.5077556249999999
vt 0.2800371875 0.65625
vt 0.234375 0.65625
vt 0.234375 0.57596
vt 0.234375 0.37941562500000003
vt 0.366265 0.529710625
vt 0.3293671875 0.59375
vt 0.1332859375 0.18014062500000005
vt 0.20220125 0.32025562500000004
vt 0.1394121875 0.46875
vt 0.09375 0.46875
vt 0.09375 0.38846
vt 0.09375 0.19191562500000003
vt 0.22564 0.342210625
vt 0.1887421875 0.40625
vt 0.125 0.19583062500000004
vt 0.1910034375 0.223955625
vt 0.2570846875 0.46875
vt 0.1911375 0.46875
vt 0.15920625 0.223576875
vt 0.225131875 0.19474625
vt 0.1597734375 0.46875
vt 0.09375 0.46875
vt 0.234375 0.66970375
vt 0.234375 0.47316375
vt 0.3589409375 0.5969543749999999
vt 0.3298890625 0.6875
vt 0.234375 0.53811875
vt 0.3018596875 0.53811875
vt 0.391995625 0.75
vt 0.3245109375 0.75
vt 0.296875 0.47180687499999996
vt 0.34827375 0.384345625
vt 0.34827375 0.66253875
vt 0.296875 0.75
vt 0.2732378125 0.475256875
vt 0.3584215625 0.57326
vt 0.3178521875 0.75
vt 0.265625 0.75
vt 0.074213125 0.6875
vt 0.074213125 0.6796875
vt 0.074213125 0.6796875
vt 0.074213125 0.6875
vt 0.089838125 0.7265625
vt 0.089838125 0.7265625
vt 0.089838125 0.7265625
vt 0.089838125 0.7265625
vt 0.097650625 0.7265625
vt 0.097650625 0.7265625
vt 0.097650625 0.7265625
vt 0.097650625 0.7265625
vt 0.125 0.385563125
vt 0.125 0.25297250000000004
vt 0.186245625 0.30372875
vt 0.17620125 0.40625
vt 0.326793125 0.49094187499999997
vt 0.316929375 0.59375
vt 0.265625 0.5730075
vt 0.265625 0.440790625
vt 0.09375 0.4759375
vt 0.09375 0.27939375
vt 0.19811875 0.27939375
vt 0.145934375 0.53125
vt 0.3452271875 0.560643125
vt 0.3452271875 0.757181875
vt 0.2768096875 0.8125
vt 0.265625 0.560644375
vt 0.2046021875 0.279393125
vt 0.2046021875 0.475931875
vt 0.1361846875 0.53125
vt 0.125 0.279394375
vt 0.3452271875 0.404393125
vt 0.3452271875 0.600931875
vt 0.2768096875 0.65625
vt 0.265625 0.404394375
vt 0.265625 0.7571875
vt 0.265625 0.56064375
vt 0.36999375 0.56064375
vt 0.317809375 0.8125
vt 0.265625 0.53819375
vt 0.265625 0.59375
vt 0.315034375 0.59375
vt 0.315034375 0.53819375
vt 0.265625 0.53819375
vt 0.265625 0.59375
vt 0.315034375 0.59375
vt 0.315034375 0.53819375
vt 0.265625 0.59375
vt 0.265625 0.53819375
vt 0.3150375 0.53819375
vt 0.3150375 0.59375
vt 0.3150375 0.53819375
vt 0.3150375 0.59375
vt 0.265625 0.59375
vt 0.265625 0.53819375
vt 0.296875 0.59375
vt 0.265625 0.59375
vt 0.265625 0.53125
vt 0.3125 0.5625
vt 0.265625 0.53125
vt 0.296875 0.53125
vt 0.3125 0.5625
vt 0.265625 0.59375
vt 0.265625 0.54375
vt 0.296875 0.54375
vt 0.296875 0.59375
vt 0.265625 0.59375
vt 0.265625 0.54375
vt 0.296875 0.54375
vt 0.296875 0.59375
vt 0.265625 0.59375
vt 0.265625 0.54375
vt 0.3150375 0.54375
vt 0.3150375 0.59375
vt 0.265625 0.59375
vt 0.265625 0.54375
vt 0.287721875 0.54375
vt 0.287721875 0.59375
vt 0.265625 0.59375
vt 0.265625 0.54375
vt 0.296875 0.54375
vt 0.296875 0.59375
vt 0.265625 0.59375
vt 0.296875 0.54375
vt 0.318971875 0.54375
vt 0.318971875 0.59375
vt 0.296875 0.59375
vt 0.265625 0.54375
vt 0.3150375 0.54375
vt 0.3150375 0.59375
vt 0.265625 0.59375
vt 0.265625 0.54375
vt 0.296875 0.54375
vt 0.296875 0.59375
vt 0.265625 0.59375
vt 0.30981875 0.54375
vt 0.30981875 0.59375
vt 0.265625 0.59375
vt 0.265625 0.54375
vt 0.265625 0.59375
vt 0.265625 0.549555625
vt 0.3098190625 0.549555625
vt 0.3098190625 0.59375
vt 0.265625 0.59375
vt 0.265625 0.54375
vt 0.30981875 0.54375
vt 0.30981875 0.59375
vt 0.30981875 0.54375
vt 0.30981875 0.59375
vt 0.265625 0.59375
vt 0.265625 0.54375
vt 0.3189721875 0.59375
vt 0.296875 0.59375
vt 0.296875 0.505361875
vt 0.3189721875 0.505361875
vt 0.265625 0.59375
vt 0.265625 0.54375
vt 0.30981875 0.54375
vt 0.30981875 0.59375
vt 0.265625 0.53819375
vt 0.265625 0.59375
vt 0.315034375 0.59375
vt 0.315034375 0.53819375
vt 0.265625 0.53819375
vt 0.265625 0.59375
vt 0.315034375 0.59375
vt 0.315034375 0.53819375
vt 0.265625 0.59375
vt 0.265625 0.53819375
vt 0.3150375 0.53819375
vt 0.3150375 0.59375
vt 0.3150375 0.53819375
vt 0.3150375 0.59375
vt 0.265625 0.59375
vt 0.265625 0.53819375
vt 0.296875 0.53125
vt 0.296875 0.59375
vt 0.265625 0.59375
vt 0.28125 0.5
vt 0.296875 0.59375
vt 0.296875 0.53125
vt 0.3125 0.5
vt 0.328125 0.59375
vt 0.265625 0.54375
vt 0.296875 0.54375
vt 0.296875 0.59375
vt 0.265625 0.59375
vt 0.265625 0.54375
vt 0.296875 0.54375
vt 0.296875 0.59375
vt 0.265625 0.59375
vt 0.265625 0.54375
vt 0.3150375 0.54375
vt 0.3150375 0.59375
vt 0.265625 0.59375
vt 0.265625 0.54375
vt 0.287721875 0.54375
vt 0.287721875 0.59375
vt 0.265625 0.59375
vt 0.265625 0.54375
vt 0.296875 0.54375
vt 0.296875 0.59375
vt 0.265625 0.59375
vt 0.296875 0.54375
vt 0.318971875 0.54375
vt 0.318971875 0.59375
vt 0.296875 0.59375
vt 0.265625 0.54375
vt 0.3150375 0.54375
vt 0.3150375 0.59375
vt 0.265625 0.59375
vt 0.265625 0.54375
vt 0.296875 0.54375
vt 0.296875 0.59375
vt 0.265625 0.59375
vt 0.30981875 0.54375
vt 0.30981875 0.59375
vt 0.265625 0.59375
vt 0.265625 0.54375
vt 0.2877221875 0.59375
vt 0.265625 0.59375
vt 0.265625 0.505361875
vt 0.2877221875 0.505361875
vt 0.265625 0.59375
vt 0.265625 0.54375
vt 0.30981875 0.54375
vt 0.30981875 0.59375
vt 0.30981875 0.54375
vt 0.30981875 0.59375
vt 0.265625 0.59375
vt 0.265625 0.54375
vt 0.3098190625 0.549555625
vt 0.3098190625 0.59375
vt 0.265625 0.59375
vt 0.265625 0.549555625
vt 0.265625 0.59375
vt 0.265625 0.54375
vt 0.30981875 0.54375
vt 0.30981875 0.59375
vt 0.265625 0.53819375
vt 0.265625 0.59375
vt 0.315034375 0.59375
vt 0.315034375 0.53819375
vt 0.265625 0.53819375
vt 0.265625 0.59375
vt 0.315034375 0.59375
vt 0.315034375 0.53819375
vt 0.265625 0.59375
vt 0.265625 0.53819375
vt 0.3150375 0.53819375
vt 0.3150375 0.59375
vt 0.3150375 0.53819375
vt 0.3150375 0.59375
vt 0.265625 0.59375
vt 0.265625 0.53819375
vt 0.28125 0.53125
vt 0.3125 0.53125
vt 0.3125 0.59375
vt 0.265625 0.5625
vt 0.34375 0.59375
vt 0.3125 0.59375
vt 0.296875 0.5625
vt 0.34375 0.53125
vt 0.265625 0.54375
vt 0.296875 0.54375
vt 0.296875 0.59375
vt 0.265625 0.59375
vt 0.265625 0.54375
vt 0.296875 0.54375
vt 0.296875 0.59375
vt 0.265625 0.59375
vt 0.265625 0.54375
vt 0.3150375 0.54375
vt 0.3150375 0.59375
vt 0.265625 0.59375
vt 0.265625 0.54375
vt 0.287721875 0.54375
vt 0.287721875 0.59375
vt 0.265625 0.59375
vt 0.265625 0.54375
vt 0.296875 0.54375
vt 0.296875 0.59375
vt 0.265625 0.59375
vt 0.296875 0.54375
vt 0.318971875 0.54375
vt 0.318971875 0.59375
vt 0.296875 0.59375
vt 0.265625 0.54375
vt 0.3150375 0.54375
vt 0.3150375 0.59375
vt 0.265625 0.59375
vt 0.265625 0.54375
vt 0.296875 0.54375
vt 0.296875 0.59375
vt 0.265625 0.59375
vt 0.30981875 0.54375
vt 0.30981875 0.59375
vt 0.265625 0.59375
vt 0.265625 0.54375
vt 0.3098190625 0.549555625
vt 0.3098190625 0.59375
vt 0.265625 0.59375
vt 0.265625 0.549555625
vt 0.265625 0.59375
vt 0.265625 0.54375
vt 0.30981875 0.54375
vt 0.30981875 0.59375
vt 0.30981875 0.54375
vt 0.30981875 0.59375
vt 0.265625 0.59375
vt 0.265625 0.54375
vt 0.265625 0.505361875
vt 0.2877221875 0.505361875
vt 0.2877221875 0.59375
vt 0.265625 0.59375
vt 0.265625 0.59375
vt 0.265625 0.54375
vt 0.30981875 0.54375
vt 0.30981875 0.59375
vt 0.265625 0.53819375
vt 0.265625 0.59375
vt 0.315034375 0.59375
vt 0.315034375 0.53819375
vt 0.265625 0.53819375
vt 0.265625 0.59375
vt 0.315034375 0.59375
vt 0.315034375 0.53819375
vt 0.265625 0.59375
vt 0.265625 0.53819375
vt 0.3150375 0.53819375
vt 0.3150375 0.59375
vt 0.3150375 0.53819375
vt 0.3150375 0.59375
vt 0.265625 0.59375
vt 0.265625 0.53819375
vt 0.265625 0.5625
vt 0.265625 0.5
vt 0.296875 0.5
vt 0.28125 0.59375
vt 0.296875 0.5
vt 0.296875 0.5625
vt 0.28125 0.59375
vt 0.265625 0.5
vt 0.265625 0.54375
vt 0.296875 0.54375
vt 0.296875 0.59375
vt 0.265625 0.59375
vt 0.265625 0.54375
vt 0.296875 0.54375
vt 0.296875 0.59375
vt 0.265625 0.59375
vt 0.265625 0.54375
vt 0.3150375 0.54375
vt 0.3150375 0.59375
vt 0.265625 0.59375
vt 0.265625 0.54375
vt 0.287721875 0.54375
vt 0.287721875 0.59375
vt 0.265625 0.59375
vt 0.265625 0.54375
vt 0.296875 0.54375
vt 0.296875 0.59375
vt 0.265625 0.59375
vt 0.296875 0.54375
vt 0.318971875 0.54375
vt 0.318971875 0.59375
vt 0.296875 0.59375
vt 0.265625 0.54375
vt 0.3150375 0.54375
vt 0.3150375 0.59375
vt 0.265625 0.59375
vt 0.265625 0.54375
vt 0.296875 0.54375
vt 0.296875 0.59375
vt 0.265625 0.59375
vt 0.30981875 0.54375
vt 0.30981875 0.59375
vt 0.265625 0.59375
vt 0.265625 0.54375
vt 0.296875 0.505361875
vt 0.3189721875 0.505361875
vt 0.3189721875 0.59375
vt 0.296875 0.59375
vt 0.265625 0.59375
vt 0.265625 0.54375
vt 0.30981875 0.54375
vt 0.30981875 0.59375
vt 0.30981875 0.54375
vt 0.30981875 0.59375
vt 0.265625 0.59375
vt 0.265625 0.54375
vt 0.265625 0.59375
vt 0.265625 0.549555625
vt 0.3098190625 0.549555625
vt 0.3098190625 0.59375
vt 0.265625 0.59375
vt 0.265625 0.54375
vt 0.30981875 0.54375
vt 0.30981875 0.59375
vn 0.6467615875036303 0.4042262953588841 0.6467615875036303
vn -0.8479981253539727 0.5299992258448573 0
vn -0.8479981253539727 0.5299992258448573 0
vn 0 0 -1
vn 1 0 0
vn 0 0 1
vn -1 0 0
vn -0.24973017217613988 0.8990605714370814 -0.35961775539050383
vn -0.35961775539050383 0.8990605714370814 -0.2497301721761399
vn 0 0.5299992258448573 -0.8479981253539727
vn -0.09115088874227233 -0.43593062068711314 -0.8953524498368463
vn -0.7861880941362216 0.32753278100968153 -0.5240520565769393
vn 0.40736426399323644 0.2546028559475328 0.877058573964481
vn 0.8953529950321528 -0.4359294288513084 0.0911512333889454
vn 0.09115123338894539 -0.43592942885130836 -0.8953529950321527
vn -0.9167649927705356 -0.3852549808982055 0.10545400762210631
vn -0.5240520565769393 0.32753278100968153 0.7861880941362216
vn 0.8911493186280657 0.24046602340764806 -0.38474534889358597
vn 0.5240520565769393 0.32753278100968153 -0.7861880941362216
vn -0.8911493186280657 0.24046602340764806 0.38474534889358597
vn -0.09115123338894539 -0.43592942885130836 0.8953529950321527
vn 0.9167649927705356 -0.3852549808982055 -0.10545400762210631
vn -0.40736426399323644 0.2546028559475328 -0.877058573964481
vn -0.8953529950321528 -0.4359294288513084 -0.0911512333889454
vn 0.09115088874227233 -0.43593062068711314 0.8953524498368463
vn 0.7861880941362216 0.32753278100968153 0.5240520565769393
vn 0 0 1
vn 0 -1 0
vn 0 -1 0
vn 0.03506108580849009 0.9987699637673629 0.03506108580849009
vn -0.09901009481051617 0.9901484748517392 -0.09901009481051617
vn 0.8479981253539727 0.5299992258448573 0
vn -0.6467615875036303 0.4042262953588841 -0.6467615875036303
vn -0.6467615875036303 0.4042262953588841 0.6467615875036303
vn 0.6467615875036303 0.4042262953588841 -0.6467615875036303
vn 0 0.5299992258448573 0.8479981253539727
vn -0.948683298050514 0 -0.31622776601683794
vn -0.948683298050514 0 0.31622776601683794
vn 0.31622776601683794 0 0.948683298050514
vn 0.31622776601683794 0 -0.948683298050514
vn 0 1 0
vn 0 1 0
vn 0 0 -1
vn -1 0 0
vn 0.31622776601683794 0 0.9486832980505139
vn 0.7071067811865476 0 -0.7071067811865476
vn 0 0 1
vn 0.7071067811865476 0 0.7071067811865476
vn 0.31622776601683794 0 -0.9486832980505139
vn -1 0 0
vn -0.7071067811865476 0 -0.7071067811865476
vn 0 1 0
vn 0.7071067811865476 0 0.7071067811865476
vn 0.7071067811865476 0 -0.7071067811865476
vn 0 1 0
vn -0.7071067811865476 0 0.7071067811865476
vn 0.31622776601683794 0 -0.948683298050514
vn -0.31622776601683794 0 -0.948683298050514
vn -0.948683298050514 0 0.31622776601683794
vn 0.948683298050514 0 0.31622776601683794
vn 0 1 0
vn 0 1 0
vn 1 0 0
vn 0 0 -1
vn -0.9486832980505139 0 0.31622776601683794
vn 0.7071067811865476 0 0.7071067811865476
vn -1 0 0
vn -0.7071067811865476 0 0.7071067811865476
vn 0.9486832980505139 0 0.31622776601683794
vn 0 0 -1
vn 0.7071067811865476 0 -0.7071067811865476
vn 0 1 0
vn -0.7071067811865476 0 0.7071067811865476
vn 0.7071067811865476 0 0.7071067811865476
vn 0 1 0
vn -0.7071067811865476 0 -0.7071067811865476
vn 0.948683298050514 0 0.31622776601683794
vn 0.948683298050514 0 -0.31622776601683794
vn -0.31622776601683794 0 -0.948683298050514
vn -0.31622776601683794 0 0.948683298050514
vn 0 1 0
vn 0 1 0
vn 0 0 1
vn 1 0 0
vn -0.31622776601683794 0 -0.9486832980505139
vn -0.7071067811865476 0 0.7071067811865476
vn 0 0 -1
vn -0.7071067811865476 0 -0.7071067811865476
vn -0.31622776601683794 0 0.9486832980505139
vn 1 0 0
vn 0.7071067811865476 0 0.7071067811865476
vn 0 1 0
vn -0.7071067811865476 0 -0.7071067811865476
vn -0.7071067811865476 0 0.7071067811865476
vn 0 1 0
vn 0.7071067811865476 0 -0.7071067811865476
vn -0.31622776601683794 0 0.948683298050514
vn 0.31622776601683794 0 0.948683298050514
vn 0.948683298050514 0 -0.31622776601683794
vn -0.948683298050514 0 -0.31622776601683794
vn 0 1 0
vn 0 1 0
vn -1 0 0
vn 0 0 1
vn 0.9486832980505139 0 -0.31622776601683794
vn -0.7071067811865476 0 -0.7071067811865476
vn 1 0 0
vn 0.7071067811865476 0 -0.7071067811865476
vn -0.9486832980505139 0 -0.31622776601683794
vn 0 0 1
vn -0.7071067811865476 0 0.7071067811865476
vn 0 1 0
vn 0.7071067811865476 0 -0.7071067811865476
vn -0.7071067811865476 0 -0.7071067811865476
vn 0 1 0
vn 0.7071067811865476 0 0.7071067811865476
usemtl m_bf9dc855-53a3-5d4b-be76-0fc5d34f05f6
f 1/1/1 2/2/1 3/3/1 4/4/1
f 5/5/2 6/6/2 7/7/2 8/8/2
f 9/9/3 10/10/3 11/11/3 12/12/3
f 16/13/4 14/14/4 13/15/4 15/16/4
f 20/17/5 18/18/5 17/19/5 19/20/5
f 24/21/6 22/22/6 21/23/6 23/24/6
f 28/25/7 26/26/7 25/27/7 27/28/7
f 30/29/8 31/30/8 32/31/8 33/32/8
f 42/33/9 43/34/9 44/35/9 45/36/9
f 63/37/10 46/38/10 62/39/10 61/40/10
f 47/41/11 46/42/11 31/43/11 30/44/11
f 46/45/12 63/46/12 32/47/12 31/48/12
f 63/49/13 48/50/13 33/51/13 32/52/13
f 48/53/14 47/54/14 30/55/14 33/56/14
f 51/57/15 50/58/15 35/59/15 34/60/15
f 50/61/16 52/62/16 36/63/16 35/64/16
f 52/65/17 64/66/17 37/67/17 36/68/17
f 64/69/18 51/70/18 34/71/18 37/72/18
f 55/73/19 65/74/19 39/75/19 38/76/19
f 65/77/20 54/78/20 40/79/20 39/80/20
f 54/81/21 53/82/21 41/83/21 40/84/21
f 53/85/22 55/86/22 38/87/22 41/88/22
f 66/89/23 59/90/23 43/91/23 42/92/23
f 59/93/24 58/94/24 44/95/24 43/96/24
f 58/97/25 60/98/25 45/99/25 44/100/25
f 60/101/26 66/102/26 42/103/26 45/104/26
f 49/105/27 29/106/27 68/107/27 67/108/27
f 56/109/28 69/110/28 72/111/28 71/112/28
f 70/113/29 57/114/29 74/115/29 73/116/29
f 40/117/30 41/118/30 38/119/30 39/120/30
f 36/121/31 37/122/31 34/123/31 35/124/31
f 65/125/32 55/126/32 76/127/32 75/128/32
f 59/129/33 66/130/33 78/131/33 77/132/33
f 54/133/34 65/134/34 75/135/34 79/136/34
f 51/137/35 64/138/35 80/139/35 81/140/35
f 66/141/36 60/142/36 82/143/36 78/144/36
f 87/145/37 86/146/37 85/147/37 88/148/37
f 88/149/38 85/150/38 89/151/38 90/152/38
f 92/153/39 93/154/39 87/155/39 86/156/39
f 95/157/40 96/158/40 89/159/40 90/160/40
f 97/161/41 98/162/41 99/163/41 100/164/41
f 101/165/42 102/166/42 103/167/42 104/168/42
f 91/169/43 83/170/43 98/171/43 97/172/43
f 83/173/44 92/174/44 99/175/44 98/176/44
f 92/177/45 86/178/45 100/179/45 99/180/45
f 105/181/46 106/182/46 107/183/46 108/184/46
f 84/185/47 94/186/47 102/187/47 101/188/47
f 109/189/48 110/190/48 111/191/48 112/192/48
f 89/193/49 96/194/49 104/195/49 103/196/49
f 96/197/50 84/198/50 101/199/50 104/200/50
f 91/201/51 97/202/51 107/203/51 106/204/51
f 97/205/52 100/206/52 108/207/52 107/208/52
f 100/209/53 86/210/53 105/211/53 108/212/53
f 89/213/54 103/214/54 111/215/54 110/216/54
f 103/217/55 102/218/55 112/219/55 111/220/55
f 102/221/56 94/222/56 109/223/56 112/224/56
f 117/225/57 116/226/57 115/227/57 118/228/57
f 118/229/58 115/230/58 119/231/58 120/232/58
f 122/233/59 123/234/59 117/235/59 116/236/59
f 125/237/60 126/238/60 119/239/60 120/240/60
f 127/241/61 128/242/61 129/243/61 130/244/61
f 131/245/62 132/246/62 133/247/62 134/248/62
f 121/249/63 113/250/63 128/251/63 127/252/63
f 113/253/64 122/254/64 129/255/64 128/256/64
f 122/257/65 116/258/65 130/259/65 129/260/65
f 135/261/66 136/262/66 137/263/66 138/264/66
f 114/265/67 124/266/67 132/267/67 131/268/67
f 139/269/68 140/270/68 141/271/68 142/272/68
f 119/273/69 126/274/69 134/275/69 133/276/69
f 126/277/70 114/278/70 131/279/70 134/280/70
f 121/281/71 127/282/71 137/283/71 136/284/71
f 127/285/72 130/286/72 138/287/72 137/288/72
f 130/289/73 116/290/73 135/291/73 138/292/73
f 119/293/74 133/294/74 141/295/74 140/296/74
f 133/297/75 132/298/75 142/299/75 141/300/75
f 132/301/76 124/302/76 139/303/76 142/304/76
f 147/305/77 146/306/77 145/307/77 148/308/77
f 148/309/78 145/310/78 149/311/78 150/312/78
f 152/313/79 153/314/79 147/315/79 146/316/79
f 155/317/80 156/318/80 149/319/80 150/320/80
f 157/321/81 158/322/81 159/323/81 160/324/81
f 161/325/82 162/326/82 163/327/82 164/328/82
f 151/329/83 143/330/83 158/331/83 157/332/83
f 143/333/84 152/334/84 159/335/84 158/336/84
f 152/337/85 146/338/85 160/339/85 159/340/85
f 165/341/86 166/342/86 167/343/86 168/344/86
f 144/345/87 154/346/87 162/347/87 161/348/87
f 169/349/88 170/350/88 171/351/88 172/352/88
f 149/353/89 156/354/89 164/355/89 163/356/89
f 156/357/90 144/358/90 161/359/90 164/360/90
f 151/361/91 157/362/91 167/363/91 166/364/91
f 157/365/92 160/366/92 168/367/92 167/368/92
f 160/369/93 146/370/93 165/371/93 168/372/93
f 149/373/94 163/374/94 171/375/94 170/376/94
f 163/377/95 162/378/95 172/379/95 171/380/95
f 162/381/96 154/382/96 169/383/96 172/384/96
f 177/385/97 176/386/97 175/387/97 178/388/97
f 178/389/98 175/390/98 179/391/98 180/392/98
f 182/393/99 183/394/99 177/395/99 176/396/99
f 185/397/100 186/398/100 179/399/100 180/400/100
f 187/401/101 188/402/101 189/403/101 190/404/101
f 191/405/102 192/406/102 193/407/102 194/408/102
f 181/409/103 173/410/103 188/411/103 187/412/103
f 173/413/104 182/414/104 189/415/104 188/416/104
f 182/417/105 176/418/105 190/419/105 189/420/105
f 195/421/106 196/422/106 197/423/106 198/424/106
f 174/425/107 184/426/107 192/427/107 191/428/107
f 199/429/108 200/430/108 201/431/108 202/432/108
f 179/433/109 186/434/109 194/435/109 193/436/109
f 186/437/110 174/438/110 191/439/110 194/440/110
f 181/441/111 187/442/111 197/443/111 196/444/111
f 187/445/112 190/446/112 198/447/112 197/448/112
f 190/449/113 176/450/113 195/451/113 198/452/113
f 179/453/114 193/454/114 201/455/114 200/456/114
f 193/457/115 192/458/115 202/459/115 201/460/115
f 192/461/116 184/462/116 199/463/116 202/464/116
o side3
v -0.5 0 -0.5000000000000001
v -0.5 0.6875 -0.49999999999999994
v 0.5 0 -0.5000000000000001
v 0.5 0.6875 -0.49999999999999994
v -0.5 0.6875 -0.49999999999999994
v -0.5 0.8125 -0.49999999999999994
v 0.5 0.6875 -0.49999999999999994
v 0.5 0.8125 -0.49999999999999994
vt 0.5 1
vt 0.5 0.1875
vt 1 0.1875
vt 1 1
vt 0.5 0.125
vt 0.5 0
vt 1 0
vt 1 0.125
vn 0 2.2204460492503136 -1
vn 0 2.2204460492503136 -1
usemtl m_bf9dc855-53a3-5d4b-be76-0fc5d34f05f6
f 203/465/117 204/466/117 206/467/117 205/468/117
f 207/469/118 208/470/118 210/471/118 209/472/118
o down
v 0.5 0 0.5
v 0.5 0 -0.5
v -0.5 0 0.5
v -0.5 0 -0.5
vt 0.5 1
vt 1 1
vt 1 0
vt 0.5 0
vn 0 -1 0
usemtl m_bf9dc855-53a3-5d4b-be76-0fc5d34f05f6
f 214/473/119 212/474/119 211/475/119 213/476/119
o up
v 0.3125000000000001 0.8125 -0.49999999999999994
v -0.3124999999999999 0.8125 -0.5000000000000001
v 0.31250000000000006 0.8125 -0.31249999999999994
v -0.31249999999999994 0.8125 -0.31250000000000006
v -0.3124999999999999 0.8125 -0.5000000000000001
v -0.4999999999999999 0.8125 -0.5000000000000001
v -0.31249999999999994 0.8125 -0.31250000000000006
v -0.49999999999999994 0.8125 -0.3125000000000001
v -0.31250000000000006 0.8125 0.31249999999999994
v -0.31249999999999994 0.8125 -0.31250000000000006
v -0.5000000000000001 0.8125 0.3124999999999999
v -0.49999999999999994 0.8125 -0.3125000000000001
v 0.31249999999999994 0.8125 0.31250000000000006
v -0.31250000000000006 0.8125 0.31249999999999994
v 0.3124999999999999 0.8125 0.5000000000000001
v -0.3125000000000001 0.8125 0.49999999999999994
v -0.31250000000000006 0.8125 0.31249999999999994
v -0.5000000000000001 0.8125 0.3124999999999999
v -0.3125000000000001 0.8125 0.49999999999999994
v -0.5000000000000001 0.8125 0.4999999999999999
v 0.49999999999999994 0.8125 0.3125000000000001
v 0.31249999999999994 0.8125 0.31250000000000006
v 0.4999999999999999 0.8125 0.5000000000000001
v 0.3124999999999999 0.8125 0.5000000000000001
v 0.49999999999999994 0.8125 0.3125000000000001
v 0.5000000000000001 0.8125 -0.3124999999999999
v 0.31249999999999994 0.8125 0.31250000000000006
v 0.31250000000000006 0.8125 -0.31249999999999994
v 0.5000000000000001 0.8125 -0.4999999999999999
v 0.3125000000000001 0.8125 -0.49999999999999994
v 0.5000000000000001 0.8125 -0.3124999999999999
v 0.31250000000000006 0.8125 -0.31249999999999994
vt 0.5 0.1875
vt 0.5 0.8125
vt 0.40625 0.8125
vt 0.40625 0.1875
vt 0.5 0.8125
vt 0.5 1
vt 0.40625 1
vt 0.40625 0.8125
vt 0.09375 0.1875
vt 0.09375 0.8125
vt 0 0.8125
vt 0 0.1875
vt 0.09375 0.1875
vt 0.09375 0.8125
vt 0 0.8125
vt 0 0.1875
vt 0.09375 0.8125
vt 0.09375 1
vt 0 1
vt 0 0.8125
vt 0.09375 0
vt 0.09375 0.1875
vt 0 0.1875
vt 0 0
vt 0.40625 0
vt 0.09375 0
vt 0.09375 0.1875
vt 0.40625 0.1875
vt 0.5 0
vt 0.5 0.1875
vt 0.40625 0.1875
vt 0.40625 0
vn 0 1 0
vn 0 1 0
vn 0 1 0
vn 0 1 0
vn 0 1 0
vn 0 1 0
vn 0 1 0
vn 0 1 0
usemtl m_bf9dc855-53a3-5d4b-be76-0fc5d34f05f6
f 215/477/120 216/478/120 218/479/120 217/480/120
f 219/481/121 220/482/121 222/483/121 221/484/121
f 223/485/122 224/486/122 226/487/122 225/488/122
f 227/489/123 228/490/123 230/491/123 229/492/123
f 231/493/124 232/494/124 234/495/124 233/496/124
f 235/497/125 236/498/125 238/499/125 237/500/125
f 239/501/126 240/502/126 242/503/126 241/504/126
f 243/505/127 244/506/127 246/507/127 245/508/127
o side4
v 0.5000000000000001 0 -0.5
v 0.49999999999999994 0.6875 -0.5
v 0.5000000000000001 0 0.5
v 0.49999999999999994 0.6875 0.5
v 0.49999999999999994 0.6875 -0.5
v 0.49999999999999994 0.8125 -0.5
v 0.49999999999999994 0.6875 0.5
v 0.49999999999999994 0.8125 0.5
vt 0.5 1
vt 0.5 0.1875
vt 1 0.1875
vt 1 1
vt 0.5 0.125
vt 0.5 0
vt 1 0
vt 1 0.125
vn 1 2.2204460492503136 0
vn 1 2.2204460492503136 0
usemtl m_bf9dc855-53a3-5d4b-be76-0fc5d34f05f6
f 247/509/128 248/510/128 250/511/128 249/512/128
f 251/513/129 252/514/129 254/515/129 253/516/129
o side1
v 0.5 0 0.5000000000000001
v 0.5 0.6875 0.49999999999999994
v -0.5 0 0.5000000000000001
v -0.5 0.6875 0.49999999999999994
v 0.5 0.6875 0.49999999999999994
v 0.5 0.8125 0.49999999999999994
v -0.5 0.6875 0.49999999999999994
v -0.5 0.8125 0.49999999999999994
vt 0.5 1
vt 0.5 0.1875
vt 1 0.1875
vt 1 1
vt 0.5 0.125
vt 0.5 0
vt 1 0
vt 1 0.125
vn 0 2.2204460492503136 1
vn 0 2.2204460492503136 1
usemtl m_bf9dc855-53a3-5d4b-be76-0fc5d34f05f6
f 255/517/130 256/518/130 258/519/130 257/520/130
f 259/521/131 260/522/131 262/523/131 261/524/131
o side2
v -0.5000000000000001 0 0.5
v -0.49999999999999994 0.6875 0.5
v -0.5000000000000001 0 -0.5
v -0.49999999999999994 0.6875 -0.5
v -0.49999999999999994 0.6875 0.5
v -0.49999999999999994 0.8125 0.5
v -0.49999999999999994 0.6875 -0.5
v -0.49999999999999994 0.8125 -0.5
vt 0.5 1
vt 0.5 0.1875
vt 1 0.1875
vt 1 1
vt 0.5 0.125
vt 0.5 0
vt 1 0
vt 1 0.125
vn -1 2.2204460492503136 0
vn -1 2.2204460492503136 0
usemtl m_bf9dc855-53a3-5d4b-be76-0fc5d34f05f6
f 263/525/132 264/526/132 266/527/132 265/528/132
f 267/529/133 268/530/133 270/531/133 269/532/133
o frame
v 0.5 0.6875 0.5
v 0.5 0.6875 -0.5
v -0.5 0.6875 0.5
v -0.5 0.6875 -0.5
vt 0.5 0
vt 0.5 1
vt 0 1
vt 0 0
vn 0 1 0
usemtl m_bf9dc855-53a3-5d4b-be76-0fc5d34f05f6
f 271/533/134 272/534/134 274/535/134 273/536/134